M48
;Layer_Color=9474304
;FILE_FORMAT=4:4
METRIC,LZ
;TYPE=PLATED
T1F00S00C0.4000
T2F00S00C0.5000
T3F00S00C0.7112
T4F00S00C0.9000
T5F00S00C1.0000
T6F00S00C1.5000
;TYPE=NON_PLATED
T9F00S00C3.3000
T10F00S00C15.0000
%
T01
X-001235Y-0028935
X-001115
X-001175Y-0028235
X-001115Y-0027535
X-001235Y-0027535
X-001175Y-0026735
X-001115Y-0025935
X-001235Y-0025935
T02
X00155Y-00303
X00208Y-003
X00239Y-00264
X00276Y-00208
X003Y-00153
X00265Y-00116
X00269Y-00095
X00258Y-0004
X00265Y-00008
X00235Y-00002
X00213Y-00062
X00222Y-00128
X00196Y-00135
X00159Y-0015
X0037Y-00179
X0038Y-00112
X0036Y-00067
Y-00043
X00342Y-00025
X00356Y-0001
X00337Y-00233
X00133Y-00211
X00082Y-00231
X00047
Y-00317
X-0001Y-00305
X-00029
X-00026Y-00267
X-00063Y-00289
X-00067Y-00215
X-00098Y-00198
X-00134
X-00145Y-00166
X-00142Y-00136
X-001155Y-001505
X-00074Y-001095
X-00163562Y-00115098
X-00217Y-00147
X-00239Y-00176
X-00254Y-00241
X-00183Y-0024
X-00174Y-00274
Y-00305
X-00231Y-00095
X-00219Y-00029
X-00176Y-00025
X-0013625Y-0003075
X00071Y-00098
X00081Y-00156
X0013Y-00135
X-00299Y-00157
Y-00181
X-00362Y-00189
X-0035Y-00218
X-00293Y-00271
X-0027Y-00299
X-00376Y-001
X-00364Y-00053
X-00286Y00114
X-00329Y00166
X-00309Y00197
X-00233Y00233
X-00175Y00229
X-0013625Y00211
X-00129Y0018
X-00106454Y00169315
X-00103Y00118
X-00055Y00099
X-00047Y00198
X-00072Y00291
X-00126Y0031
X-00137Y002735
X-00197Y00307
X-00217Y00127
X-0018085Y00085401
X-00157Y00036
X00116Y00001
X00075Y00122
X00095Y00161
X00118Y00229
X0012Y00265
X00122Y00318
X-0001Y00321
X00031Y00273
X00189Y00321
X00233Y00283
X00279Y00206
X00323Y00215
X00336Y00172
X00291Y00153
X00302Y00133
X00272Y00135
X00209Y00139
X00212Y00114
X00243Y00071
X00283Y00062
X00325Y00066
X00298Y00018
X00358Y00012
X00151Y00181
T03
X0014825Y-0018475
X002285Y-002215
X00153Y-00026
X-00018Y-0013525
X00018Y-00198
X00032Y00085
X00018Y001355
X-00018Y00197
X-00234Y002015
X00145Y00144
T04
X-00252076Y-00281308
X-00295076Y-00239308
X-0028Y0023
X-00235Y00273
X00093Y00287
X00173
T05
X-00302Y-000085
X-00356Y00051
T06
X0018Y-00255
X0013
X00346Y00033
Y00078
T09
X0019Y-0018
X0036Y-0014
X-0019Y-0018
X-0036Y-0014
Y0014
X-0019Y0018
X0019
X0036Y0014
T10
X0Y0
M30
