G04*
G04 #@! TF.GenerationSoftware,Altium Limited,Altium Designer,19.1.9 (167)*
G04*
G04 Layer_Color=65535*
%FSLAX44Y44*%
%MOMM*%
G71*
G01*
G75*
%ADD10C,0.2500*%
%ADD11C,0.2000*%
%ADD12C,0.2540*%
%ADD13C,0.5000*%
%ADD14C,0.4000*%
%ADD15R,0.5500X1.6500*%
G36*
X95958Y286220D02*
X96254Y286146D01*
X96587Y285961D01*
X96921Y285665D01*
X97069Y285479D01*
X97217Y285257D01*
X97328Y284998D01*
X97439Y284665D01*
X97476Y284294D01*
X97513Y283887D01*
Y283850D01*
Y283813D01*
Y283702D01*
Y283554D01*
Y283331D01*
Y283109D01*
X97550Y282850D01*
Y282517D01*
Y282183D01*
X97587Y281776D01*
X97624Y280887D01*
X97698Y279850D01*
X97773Y278702D01*
X98032D01*
X98180Y278739D01*
X99365D01*
X99698Y278702D01*
X100069D01*
X100476Y278665D01*
X100957Y278628D01*
X101439Y278591D01*
X102513Y278406D01*
X103587Y278184D01*
X104624Y277850D01*
X105105Y277628D01*
X105513Y277406D01*
X105549Y277369D01*
X105624Y277332D01*
X105772Y277221D01*
X105920Y277073D01*
X106142Y276888D01*
X106364Y276665D01*
X106586Y276369D01*
X106846Y276073D01*
X107105Y275666D01*
X107327Y275258D01*
X107549Y274777D01*
X107772Y274258D01*
X107920Y273666D01*
X108068Y273036D01*
X108142Y272333D01*
X108179Y271592D01*
Y271555D01*
Y271444D01*
Y271259D01*
X108142Y270999D01*
X108105Y270703D01*
X108031Y270370D01*
X107846Y269592D01*
X107734Y269185D01*
X107549Y268740D01*
X107327Y268296D01*
X107105Y267852D01*
X106772Y267444D01*
X106438Y267037D01*
X106031Y266630D01*
X105587Y266296D01*
X105549D01*
X105475Y266222D01*
X105364Y266148D01*
X105179Y266074D01*
X104957Y265963D01*
X104698Y265815D01*
X104402Y265704D01*
X104031Y265555D01*
X103624Y265407D01*
X103179Y265296D01*
X102698Y265148D01*
X102179Y265037D01*
X101587Y264963D01*
X100994Y264889D01*
X100328Y264815D01*
X99180D01*
X98921Y264852D01*
X98254D01*
X97847Y264889D01*
X97624D01*
X97402Y264926D01*
X97106D01*
X96513Y264963D01*
X95995D01*
X95847Y264926D01*
X95662Y264889D01*
X95365D01*
X95106Y264926D01*
X94773Y265037D01*
X94403Y265259D01*
X94217Y265407D01*
X94032Y265592D01*
X93847Y265815D01*
X93699Y266111D01*
X93551Y266407D01*
X93440Y266815D01*
X93403Y267222D01*
X93366Y267740D01*
Y267778D01*
Y267852D01*
Y267963D01*
X93403Y268185D01*
Y268481D01*
X93440Y268925D01*
X93477Y269444D01*
X93551Y270111D01*
Y270148D01*
Y270222D01*
X93588Y270370D01*
Y270555D01*
X93625Y270777D01*
X93662Y271073D01*
X93699Y271703D01*
X93773Y272444D01*
X93810Y273295D01*
X93847Y274147D01*
Y275036D01*
Y275110D01*
Y275295D01*
Y275592D01*
Y276036D01*
X93810Y276554D01*
X93773Y277221D01*
X93736Y277962D01*
X93699Y278776D01*
Y278813D01*
Y278888D01*
Y279036D01*
X93662Y279221D01*
Y279480D01*
X93625Y279739D01*
X93588Y280332D01*
X93551Y280961D01*
X93514Y281591D01*
Y282109D01*
X93477Y282369D01*
Y282554D01*
X92588D01*
X92255Y282517D01*
X90773D01*
X90070Y282480D01*
X89070D01*
X88922Y282517D01*
X88736Y282554D01*
X88255Y282702D01*
X88033Y282813D01*
X87811Y282998D01*
X87774Y283035D01*
X87737Y283109D01*
X87662Y283220D01*
X87551Y283368D01*
X87440Y283554D01*
X87366Y283776D01*
X87329Y284035D01*
X87292Y284331D01*
Y284368D01*
Y284480D01*
X87329Y284591D01*
X87366Y284776D01*
X87514Y285220D01*
X87625Y285442D01*
X87811Y285627D01*
X87848Y285665D01*
X87922Y285702D01*
X88033Y285813D01*
X88181Y285924D01*
X88403Y285998D01*
X88625Y286109D01*
X88922Y286146D01*
X89218Y286183D01*
X91032D01*
X91699Y286220D01*
X93180D01*
X93662Y286257D01*
X95736D01*
X95958Y286220D01*
D02*
G37*
G36*
X55666D02*
X55962Y286146D01*
X56295Y285961D01*
X56629Y285665D01*
X56777Y285479D01*
X56925Y285257D01*
X57036Y284998D01*
X57147Y284665D01*
X57184Y284294D01*
X57221Y283887D01*
Y283850D01*
Y283813D01*
Y283702D01*
Y283554D01*
Y283331D01*
Y283109D01*
X57258Y282850D01*
Y282517D01*
Y282183D01*
X57295Y281776D01*
X57332Y280887D01*
X57406Y279850D01*
X57480Y278702D01*
X57740D01*
X57888Y278739D01*
X59073D01*
X59406Y278702D01*
X59777D01*
X60184Y278665D01*
X60665Y278628D01*
X61147Y278591D01*
X62221Y278406D01*
X63295Y278184D01*
X64331Y277850D01*
X64813Y277628D01*
X65220Y277406D01*
X65257Y277369D01*
X65331Y277332D01*
X65480Y277221D01*
X65628Y277073D01*
X65850Y276888D01*
X66072Y276665D01*
X66294Y276369D01*
X66554Y276073D01*
X66813Y275666D01*
X67035Y275258D01*
X67257Y274777D01*
X67479Y274258D01*
X67628Y273666D01*
X67776Y273036D01*
X67850Y272333D01*
X67887Y271592D01*
Y271555D01*
Y271444D01*
Y271259D01*
X67850Y270999D01*
X67813Y270703D01*
X67739Y270370D01*
X67553Y269592D01*
X67442Y269185D01*
X67257Y268740D01*
X67035Y268296D01*
X66813Y267852D01*
X66480Y267444D01*
X66146Y267037D01*
X65739Y266630D01*
X65294Y266296D01*
X65257D01*
X65183Y266222D01*
X65072Y266148D01*
X64887Y266074D01*
X64665Y265963D01*
X64406Y265815D01*
X64109Y265704D01*
X63739Y265555D01*
X63332Y265407D01*
X62887Y265296D01*
X62406Y265148D01*
X61887Y265037D01*
X61295Y264963D01*
X60702Y264889D01*
X60036Y264815D01*
X58888D01*
X58628Y264852D01*
X57962D01*
X57554Y264889D01*
X57332D01*
X57110Y264926D01*
X56814D01*
X56221Y264963D01*
X55703D01*
X55555Y264926D01*
X55370Y264889D01*
X55073D01*
X54814Y264926D01*
X54481Y265037D01*
X54110Y265259D01*
X53925Y265407D01*
X53740Y265592D01*
X53555Y265815D01*
X53407Y266111D01*
X53259Y266407D01*
X53148Y266815D01*
X53110Y267222D01*
X53074Y267740D01*
Y267778D01*
Y267852D01*
Y267963D01*
X53110Y268185D01*
Y268481D01*
X53148Y268925D01*
X53185Y269444D01*
X53259Y270111D01*
Y270148D01*
Y270222D01*
X53296Y270370D01*
Y270555D01*
X53333Y270777D01*
X53370Y271073D01*
X53407Y271703D01*
X53481Y272444D01*
X53518Y273295D01*
X53555Y274147D01*
Y275036D01*
Y275110D01*
Y275295D01*
Y275592D01*
Y276036D01*
X53518Y276554D01*
X53481Y277221D01*
X53444Y277962D01*
X53407Y278776D01*
Y278813D01*
Y278888D01*
Y279036D01*
X53370Y279221D01*
Y279480D01*
X53333Y279739D01*
X53296Y280332D01*
X53259Y280961D01*
X53222Y281591D01*
Y282109D01*
X53185Y282369D01*
Y282554D01*
X52296D01*
X51962Y282517D01*
X50481D01*
X49777Y282480D01*
X48778D01*
X48629Y282517D01*
X48444Y282554D01*
X47963Y282702D01*
X47741Y282813D01*
X47519Y282998D01*
X47481Y283035D01*
X47444Y283109D01*
X47370Y283220D01*
X47259Y283368D01*
X47148Y283554D01*
X47074Y283776D01*
X47037Y284035D01*
X47000Y284331D01*
Y284368D01*
Y284480D01*
X47037Y284591D01*
X47074Y284776D01*
X47222Y285220D01*
X47333Y285442D01*
X47519Y285627D01*
X47555Y285665D01*
X47630Y285702D01*
X47741Y285813D01*
X47889Y285924D01*
X48111Y285998D01*
X48333Y286109D01*
X48629Y286146D01*
X48926Y286183D01*
X50740D01*
X51407Y286220D01*
X52888D01*
X53370Y286257D01*
X55444D01*
X55666Y286220D01*
D02*
G37*
G36*
X71442Y286294D02*
X71664Y286220D01*
X71923Y286109D01*
X72220Y285924D01*
X72479Y285702D01*
X72775Y285405D01*
X72812Y285368D01*
X72849Y285257D01*
X72960Y285109D01*
X73108Y284887D01*
X73257Y284665D01*
X73442Y284368D01*
X73849Y283776D01*
Y283739D01*
X73923Y283702D01*
X73997Y283591D01*
X74071Y283442D01*
X74331Y283072D01*
X74627Y282628D01*
X74960Y282146D01*
X75293Y281702D01*
X75590Y281258D01*
X75812Y280887D01*
X75849Y280813D01*
X75997Y280591D01*
X76182Y280295D01*
X76441Y279887D01*
X76701Y279406D01*
X76960Y278888D01*
X77256Y278369D01*
X77478Y277813D01*
X77515Y277777D01*
X77552Y277628D01*
X77663Y277443D01*
X77812Y277184D01*
X77997Y276851D01*
X78219Y276517D01*
X78478Y276110D01*
X78811Y275666D01*
Y275703D01*
X78849Y275777D01*
X78923Y275888D01*
X78997Y276073D01*
X79071Y276295D01*
X79219Y276591D01*
X79330Y276925D01*
X79515Y277295D01*
X79700Y277739D01*
X79922Y278221D01*
X80145Y278776D01*
X80404Y279369D01*
X80663Y279998D01*
X80960Y280702D01*
X81293Y281443D01*
X81626Y282220D01*
X81663Y282257D01*
X81737Y282406D01*
X81848Y282628D01*
X82033Y282924D01*
X82256Y283331D01*
X82515Y283813D01*
X82811Y284368D01*
X83181Y285035D01*
X83218Y285072D01*
X83293Y285220D01*
X83441Y285442D01*
X83626Y285665D01*
X83848Y285887D01*
X84181Y286109D01*
X84515Y286257D01*
X84959Y286294D01*
X85107D01*
X85255Y286257D01*
X85441Y286220D01*
X85663Y286146D01*
X85885Y286072D01*
X86144Y285924D01*
X86366Y285739D01*
X86403Y285702D01*
X86477Y285627D01*
X86552Y285516D01*
X86700Y285368D01*
X86885Y284961D01*
X86959Y284702D01*
X86996Y284405D01*
Y284368D01*
Y284257D01*
X86959Y284109D01*
X86922Y283887D01*
X86811Y283591D01*
X86700Y283257D01*
X86514Y282887D01*
X86255Y282443D01*
Y282406D01*
X86181Y282332D01*
X86107Y282220D01*
X85996Y282035D01*
X85848Y281776D01*
X85700Y281517D01*
X85514Y281183D01*
X85292Y280776D01*
X85255Y280702D01*
X85181Y280480D01*
X84996Y280147D01*
X84811Y279702D01*
X84552Y279110D01*
X84255Y278480D01*
X83922Y277739D01*
X83589Y276925D01*
X83181Y276073D01*
X82811Y275184D01*
X81959Y273295D01*
X81108Y271407D01*
X80663Y270444D01*
X80256Y269555D01*
X80219Y269481D01*
X80145Y269333D01*
X79997Y269074D01*
X79811Y268777D01*
X79552Y268370D01*
X79219Y267963D01*
X78811Y267481D01*
X78367Y267037D01*
X77849Y266555D01*
X77219Y266074D01*
X76553Y265667D01*
X75812Y265259D01*
X74997Y264963D01*
X74108Y264704D01*
X73145Y264556D01*
X72071Y264482D01*
X71923D01*
X71775Y264519D01*
X71590Y264556D01*
X71146Y264704D01*
X70924Y264815D01*
X70701Y265000D01*
X70664Y265037D01*
X70627Y265111D01*
X70516Y265222D01*
X70442Y265370D01*
X70331Y265555D01*
X70220Y265778D01*
X70183Y266037D01*
X70146Y266333D01*
Y266370D01*
Y266518D01*
X70183Y266703D01*
X70257Y266926D01*
X70331Y267185D01*
X70479Y267444D01*
X70664Y267666D01*
X70924Y267852D01*
X70960D01*
X70998Y267889D01*
X71146Y267926D01*
X71294Y268000D01*
X71553Y268037D01*
X71849Y268111D01*
X72220Y268148D01*
X72664Y268222D01*
X72738D01*
X72960Y268259D01*
X73257Y268333D01*
X73664Y268444D01*
X74108Y268592D01*
X74553Y268777D01*
X74960Y269037D01*
X75330Y269333D01*
X75405Y269407D01*
X75479Y269555D01*
X75627Y269740D01*
X75849Y270037D01*
X76145Y270481D01*
X76293Y270740D01*
X76478Y271036D01*
X76701Y271370D01*
X76923Y271740D01*
X76886Y271777D01*
X76812Y271851D01*
X76701Y271999D01*
X76553Y272222D01*
X76367Y272444D01*
X76182Y272703D01*
X75701Y273370D01*
X75182Y274110D01*
X74664Y274888D01*
X74182Y275666D01*
X73812Y276406D01*
X73775Y276480D01*
X73701Y276665D01*
X73553Y276962D01*
X73331Y277406D01*
X73034Y277925D01*
X72664Y278517D01*
X72220Y279221D01*
X71701Y279998D01*
X71664Y280035D01*
X71627Y280110D01*
X71516Y280258D01*
X71405Y280406D01*
X71109Y280850D01*
X70738Y281406D01*
X70331Y281961D01*
X69961Y282517D01*
X69627Y283035D01*
X69479Y283257D01*
X69368Y283442D01*
Y283480D01*
X69331Y283517D01*
X69257Y283776D01*
X69146Y284072D01*
X69109Y284405D01*
Y284442D01*
Y284554D01*
X69146Y284665D01*
X69183Y284850D01*
X69257Y285072D01*
X69368Y285294D01*
X69516Y285516D01*
X69701Y285739D01*
X69738Y285776D01*
X69812Y285850D01*
X69924Y285924D01*
X70109Y286035D01*
X70294Y286146D01*
X70553Y286257D01*
X70812Y286294D01*
X71109Y286331D01*
X71257D01*
X71442Y286294D01*
D02*
G37*
G36*
X69516Y258998D02*
X69738D01*
X70034Y258924D01*
X70368Y258887D01*
X70701Y258813D01*
X71479Y258590D01*
X72367Y258257D01*
X72812Y258072D01*
X73256Y257813D01*
X73738Y257553D01*
X74182Y257220D01*
X74219Y257183D01*
X74293Y257146D01*
X74441Y257035D01*
X74589Y256887D01*
X74812Y256665D01*
X75034Y256442D01*
X75552Y255887D01*
X76034Y255183D01*
X76478Y254331D01*
X76626Y253887D01*
X76774Y253406D01*
X76848Y252887D01*
X76885Y252369D01*
Y252332D01*
Y252221D01*
Y252036D01*
X76848Y251776D01*
X76811Y251480D01*
X76737Y251110D01*
X76663Y250739D01*
X76515Y250295D01*
X76367Y249851D01*
X76182Y249406D01*
X75960Y248925D01*
X75700Y248443D01*
X75367Y247962D01*
X74960Y247517D01*
X74552Y247073D01*
X74034Y246666D01*
X73997Y246629D01*
X73923Y246592D01*
X73775Y246481D01*
X73590Y246369D01*
X73330Y246221D01*
X73071Y246073D01*
X72701Y245925D01*
X72330Y245740D01*
X71923Y245555D01*
X71442Y245406D01*
X70442Y245110D01*
X69257Y244888D01*
X68664Y244851D01*
X67997Y244814D01*
X67775D01*
X67627Y244851D01*
X67183D01*
X66849Y244888D01*
Y244851D01*
Y244814D01*
Y244666D01*
Y244518D01*
Y244296D01*
X66812Y244036D01*
Y243703D01*
Y243333D01*
Y242925D01*
Y242444D01*
X66775Y241925D01*
Y241333D01*
Y240703D01*
Y240000D01*
Y239259D01*
Y238444D01*
Y238407D01*
Y238333D01*
X66738Y238185D01*
X66701Y238000D01*
X66627Y237815D01*
X66553Y237593D01*
X66405Y237407D01*
X66220Y237185D01*
X66183Y237148D01*
X66146Y237111D01*
X65998Y237037D01*
X65850Y236926D01*
X65442Y236741D01*
X65220Y236704D01*
X64924Y236667D01*
X64776D01*
X64627Y236704D01*
X64442Y236741D01*
X64035Y236889D01*
X63813Y237000D01*
X63591Y237185D01*
X63554Y237222D01*
X63517Y237296D01*
X63442Y237407D01*
X63331Y237556D01*
X63146Y237926D01*
X63109Y238185D01*
X63072Y238444D01*
Y242370D01*
Y242407D01*
Y242481D01*
Y242592D01*
Y242777D01*
Y242999D01*
Y243296D01*
X63109Y243629D01*
Y243999D01*
Y244444D01*
X63146Y244888D01*
Y245444D01*
X63183Y245999D01*
X63220Y246629D01*
X63257Y247332D01*
X63294Y248036D01*
X63331Y248814D01*
Y248851D01*
Y248999D01*
X63368Y249221D01*
Y249517D01*
X63405Y249888D01*
Y250295D01*
X63442Y250739D01*
X63479Y251258D01*
X63517Y252295D01*
X63554Y253369D01*
X63591Y254369D01*
X63628Y254850D01*
Y255257D01*
Y255294D01*
Y255406D01*
Y255591D01*
X63665Y255813D01*
X63702Y256109D01*
X63739Y256405D01*
X63887Y257072D01*
X64109Y257739D01*
X64294Y258035D01*
X64479Y258294D01*
X64739Y258516D01*
X64998Y258664D01*
X65294Y258776D01*
X65701D01*
X65739Y258813D01*
X65850D01*
X65998Y258850D01*
X66183Y258887D01*
X66405D01*
X66961Y258961D01*
X67109D01*
X67294Y258998D01*
X67849D01*
X68183Y259035D01*
X69294D01*
X69516Y258998D01*
D02*
G37*
G36*
X144064Y259442D02*
X144249Y259405D01*
X144693Y259257D01*
X144916Y259146D01*
X145101Y258961D01*
X145138Y258924D01*
X145175Y258887D01*
X145286Y258776D01*
X145397Y258627D01*
X145582Y258257D01*
X145619Y257998D01*
X145656Y257739D01*
Y242851D01*
Y242814D01*
Y242740D01*
X145619Y242592D01*
X145582Y242407D01*
X145508Y242222D01*
X145434Y242036D01*
X145286Y241814D01*
X145101Y241629D01*
X145064Y241592D01*
X145027Y241555D01*
X144878Y241481D01*
X144730Y241407D01*
X144323Y241222D01*
X144101Y241185D01*
X143805Y241148D01*
X143693D01*
X143545Y241185D01*
X143360Y241222D01*
X142916Y241370D01*
X142731Y241481D01*
X142508Y241629D01*
X142471Y241666D01*
X142434Y241703D01*
X142360Y241814D01*
X142249Y241963D01*
X142064Y242333D01*
X142027Y242592D01*
X141990Y242851D01*
Y242888D01*
Y242962D01*
Y243074D01*
Y243259D01*
Y243481D01*
Y243777D01*
X141953Y244110D01*
Y244481D01*
Y244518D01*
Y244666D01*
Y244851D01*
Y245073D01*
Y245629D01*
Y245888D01*
Y246110D01*
Y246147D01*
Y246184D01*
Y246332D01*
Y246481D01*
Y246666D01*
Y246925D01*
Y247221D01*
Y247554D01*
Y247925D01*
Y248369D01*
Y248851D01*
Y249369D01*
Y249925D01*
Y250517D01*
Y251184D01*
Y251887D01*
Y251924D01*
Y252073D01*
Y252258D01*
Y252517D01*
Y252850D01*
Y253221D01*
Y253628D01*
X141990Y254072D01*
Y255035D01*
Y255998D01*
Y256924D01*
Y257368D01*
Y257739D01*
Y257776D01*
Y257850D01*
X142027Y257998D01*
X142064Y258183D01*
X142212Y258553D01*
X142323Y258776D01*
X142508Y258961D01*
X142545Y258998D01*
X142619Y259035D01*
X142731Y259109D01*
X142879Y259220D01*
X143286Y259405D01*
X143508Y259442D01*
X143805Y259479D01*
X143953D01*
X144064Y259442D01*
D02*
G37*
G36*
X152513Y240350D02*
X152514Y240350D01*
X153080Y240319D01*
X154207Y240184D01*
X155323Y239979D01*
X156424Y239703D01*
X156965Y239531D01*
X156965Y239531D01*
X157154Y239470D01*
X157527Y239336D01*
X157894Y239188D01*
X158256Y239027D01*
X158642Y238839D01*
X159052Y238626D01*
X159458Y238405D01*
X159859Y238174D01*
X160056Y238054D01*
X160056Y238054D01*
X160253Y237934D01*
X160642Y237687D01*
X161025Y237430D01*
X161402Y237165D01*
X161587Y237028D01*
X161587Y237028D01*
X161744Y236912D01*
X162051Y236668D01*
X162348Y236412D01*
X162635Y236146D01*
X162774Y236007D01*
X163346Y235435D01*
X164328Y234149D01*
X165131Y232744D01*
X165741Y231245D01*
X165944Y230462D01*
Y230462D01*
X165944Y230462D01*
X165944Y230461D01*
X165944Y230459D01*
X166167Y229598D01*
X166441Y227839D01*
X166541Y226061D01*
X166480Y224614D01*
X166341Y223402D01*
X166166Y222204D01*
X165707Y220071D01*
X165078Y217899D01*
X164343Y215904D01*
X163833Y214747D01*
X163552Y214123D01*
X163232Y213414D01*
X161946Y210794D01*
X160573Y208216D01*
X159117Y205686D01*
X158347Y204445D01*
X158347Y204445D01*
X158346Y204444D01*
X158346Y204443D01*
X158346Y204443D01*
X157698Y203395D01*
X156417Y201292D01*
X155152Y199178D01*
X153922Y197082D01*
X153905Y197053D01*
X153816Y196899D01*
X153288Y195987D01*
X153286Y195983D01*
X152850Y195217D01*
X152664Y194877D01*
X152004Y193671D01*
X151191Y192108D01*
X150579Y190866D01*
X150412Y190528D01*
X150033Y189726D01*
X149843Y189311D01*
X149732Y189069D01*
X149517Y188570D01*
X149158Y187741D01*
X148623Y186397D01*
X148279Y185461D01*
X148125Y185039D01*
X148083Y184916D01*
X147891Y184355D01*
X147890Y184352D01*
X147890Y184352D01*
X147668Y183672D01*
X147535Y183230D01*
X147255Y182303D01*
X146882Y180923D01*
X146550Y179531D01*
X146400Y178832D01*
X146201Y177834D01*
X145852Y175828D01*
X145568Y173811D01*
X145350Y171787D01*
X145265Y170772D01*
X145265Y170772D01*
X145265Y170770D01*
X145220Y170137D01*
X145149Y168870D01*
X145102Y167603D01*
X145078Y166334D01*
X145075Y165700D01*
X145076Y165297D01*
X145086Y164491D01*
X145104Y163744D01*
X145105Y163685D01*
X145105Y163676D01*
X145134Y162879D01*
X145142Y162687D01*
X145152Y162477D01*
X145218Y161247D01*
X145221Y161208D01*
X145395Y158798D01*
X145632Y156354D01*
X145928Y153916D01*
X146099Y152700D01*
X146338Y151098D01*
X146843Y147898D01*
X147383Y144703D01*
X147957Y141514D01*
X148258Y139922D01*
X148258Y139922D01*
X148478Y138744D01*
X148485Y138706D01*
X148630Y137894D01*
X148635Y137861D01*
X148836Y136674D01*
X148836Y136674D01*
X148972Y135461D01*
X148988Y135141D01*
X148991Y134921D01*
X148993Y134768D01*
X148975Y134463D01*
X148935Y134160D01*
X148872Y133860D01*
X148790Y133572D01*
X148686Y133296D01*
X148560Y133031D01*
X148412Y132776D01*
X148168Y132429D01*
X147828Y131990D01*
X147466Y131569D01*
X147085Y131167D01*
X146884Y130975D01*
X146883Y130974D01*
X146882Y130973D01*
X146882Y130973D01*
X146671Y130772D01*
X146233Y130387D01*
X146040Y130232D01*
X145068Y129512D01*
D01*
X144140Y128946D01*
X143105Y128423D01*
Y128423D01*
X142878Y128322D01*
X142412Y128149D01*
X141936Y128007D01*
X141452Y127896D01*
X140801Y127791D01*
X139980Y127780D01*
X139166Y127891D01*
X138378Y128121D01*
X138005Y128293D01*
X137635Y128463D01*
X136957Y128912D01*
X136356Y129460D01*
X135845Y130093D01*
X135640Y130444D01*
X135455Y130764D01*
X135171Y131446D01*
X134979Y132159D01*
X134882Y132892D01*
X134882Y133307D01*
X134883Y133398D01*
X134886Y133490D01*
X134891Y133581D01*
X134894Y133626D01*
X134922Y134051D01*
X135092Y134884D01*
X135374Y135687D01*
X135763Y136443D01*
X136006Y136791D01*
X136007Y136792D01*
X136008Y136794D01*
X136008D01*
X136124Y136971D01*
X136320Y137346D01*
X136468Y137742D01*
X136564Y138154D01*
X136592Y138365D01*
X136592Y138367D01*
X136617Y138652D01*
X136641Y139223D01*
X136632Y139795D01*
X136590Y140365D01*
X136557Y140649D01*
X136557Y140649D01*
X136557Y140649D01*
X136487Y141158D01*
X136330Y142173D01*
X136152Y143184D01*
X135951Y144192D01*
X135843Y144694D01*
X135567Y145943D01*
X135009Y148440D01*
X134447Y150937D01*
X133880Y153432D01*
X133595Y154679D01*
X133487Y155152D01*
X133271Y156096D01*
X133057Y157041D01*
X133016Y157220D01*
X132737Y158459D01*
Y158459D01*
X132611Y159019D01*
X132459Y159698D01*
X132415Y159895D01*
X132202Y160853D01*
X131990Y161811D01*
X131884Y162290D01*
X131884Y162290D01*
X131884D01*
X131791Y162712D01*
X131606Y163556D01*
X131422Y164401D01*
X131238Y165246D01*
X131147Y165668D01*
X131147Y165669D01*
X131089Y165936D01*
X130976Y166470D01*
X130865Y167005D01*
X130756Y167541D01*
X130702Y167808D01*
X130701Y167812D01*
X130701Y167812D01*
X130662Y168004D01*
X130581Y168388D01*
X130496Y168771D01*
X130407Y169153D01*
X130361Y169343D01*
X130360Y169345D01*
X130319Y169509D01*
X130234Y169833D01*
X130144Y170157D01*
X130047Y170478D01*
X129997Y170638D01*
X129997Y170638D01*
X129996Y170642D01*
X129956Y170768D01*
X129956Y170768D01*
X129871Y171025D01*
X129871Y171026D01*
X129783Y171282D01*
X129783Y171282D01*
X129693Y171538D01*
X129693Y171538D01*
X129649Y171658D01*
X129646Y171667D01*
X129568Y171722D01*
X129568Y171722D01*
X129548Y171723D01*
X128375Y171779D01*
X128132Y171795D01*
X127560Y171847D01*
X127274Y171879D01*
X126575Y171956D01*
X125177Y172114D01*
X123780Y172275D01*
X122896Y172379D01*
X121685Y172522D01*
X121685Y172522D01*
X121587Y172534D01*
X120475Y172667D01*
X119501Y172784D01*
X118046Y172961D01*
X117072Y173080D01*
X115863Y173229D01*
X115203Y173366D01*
X114565Y173512D01*
X114561Y173513D01*
X114399Y173547D01*
X114070Y173523D01*
X113773Y173380D01*
X113548Y173138D01*
X113474Y172990D01*
X113472Y172985D01*
X113325Y172600D01*
X113269Y172451D01*
X112881Y171375D01*
X112521Y170290D01*
X112187Y169196D01*
X112031Y168646D01*
X112031Y168646D01*
X112030Y168645D01*
X112030Y168645D01*
X112030Y168643D01*
X112030Y168643D01*
X112029Y168641D01*
X111777Y167718D01*
X111295Y165867D01*
X110845Y164007D01*
X110478Y162369D01*
X110427Y162141D01*
X110229Y161202D01*
X109988Y160032D01*
X109878Y159495D01*
X109185Y156078D01*
X108502Y152660D01*
X107831Y149239D01*
X107499Y147528D01*
X107499D01*
X107257Y146281D01*
X107016Y145054D01*
X106686Y143406D01*
X106421Y142107D01*
X106179Y140938D01*
X106179D01*
X105934Y139769D01*
X105722Y138777D01*
X105408Y137338D01*
X105086Y135901D01*
X104921Y135184D01*
X104921Y135183D01*
X104921Y135183D01*
X104920Y135182D01*
X104780Y134572D01*
X104497Y133355D01*
X104211Y132138D01*
X104052Y131470D01*
X103776Y130314D01*
X103278Y129250D01*
X103214Y129163D01*
X103042Y128975D01*
X102851Y128807D01*
X102642Y128660D01*
X102602Y128638D01*
X101499Y128235D01*
X100283Y128104D01*
X100131Y128097D01*
X99935Y128097D01*
X99598Y128097D01*
X98923Y128104D01*
X98490Y128112D01*
X97235Y128148D01*
X97235Y128148D01*
X95994Y128218D01*
X95421Y128261D01*
X94216Y128397D01*
X93606Y128489D01*
X92419Y128691D01*
X92419Y128691D01*
X91270Y128982D01*
X91136Y129022D01*
X90316Y129351D01*
X89531Y129758D01*
X89160Y129998D01*
X89160D01*
X88856Y130195D01*
X88307Y130668D01*
X87899Y131132D01*
X87270Y132142D01*
D01*
X87268Y132147D01*
X86844Y133235D01*
X86678Y133960D01*
X86592Y134723D01*
Y134945D01*
X86750Y136143D01*
Y136143D01*
X87342Y137027D01*
X88004Y137547D01*
X88081Y137607D01*
X88126Y137642D01*
X88438Y137800D01*
X89248Y138211D01*
X89502Y138330D01*
X89703Y138419D01*
X89705Y138419D01*
X89706Y138420D01*
Y138420D01*
X92658Y139726D01*
X95216Y147909D01*
X95216Y147910D01*
X95216Y147912D01*
X95555Y149012D01*
X96200Y151223D01*
X96805Y153444D01*
X97368Y155677D01*
X97633Y156797D01*
X97837Y157711D01*
X98197Y159543D01*
X98493Y161387D01*
X98684Y162909D01*
X98725Y163239D01*
X98818Y164168D01*
X98818Y164170D01*
X98818Y164171D01*
X98861Y164715D01*
X98876Y164904D01*
X98900Y165419D01*
X98944Y166372D01*
X98949Y167842D01*
X98910Y168817D01*
X98890Y169311D01*
X98880Y169448D01*
X98836Y170047D01*
X98776Y170593D01*
X98576Y171674D01*
X98269Y172729D01*
X97859Y173749D01*
X97617Y174242D01*
X97404Y174633D01*
X96939Y175392D01*
X96424Y176117D01*
X95861Y176805D01*
X95562Y177134D01*
X95562Y177134D01*
X95061Y177662D01*
X94690Y178043D01*
X94047Y178704D01*
X93014Y179729D01*
X92353Y180364D01*
X92346Y180370D01*
X92344Y180373D01*
X91965Y180736D01*
X91434Y181231D01*
X91434Y181231D01*
X91434Y181231D01*
X91433Y181232D01*
X91432Y181234D01*
X91431Y181234D01*
X90994Y181635D01*
X90887Y181733D01*
X90512Y182068D01*
X90510Y182070D01*
X90495Y182083D01*
X89786Y182715D01*
X88668Y183678D01*
X87532Y184619D01*
X86958Y185082D01*
X86957Y185083D01*
X86955Y185084D01*
X86955Y185084D01*
X86553Y185397D01*
X85724Y185991D01*
X84866Y186542D01*
X83980Y187046D01*
X83527Y187281D01*
X83527Y187281D01*
Y187281D01*
X82371Y187862D01*
X80104Y189110D01*
X77885Y190442D01*
X75718Y191857D01*
X74661Y192604D01*
X74661Y192605D01*
Y192605D01*
X74660Y192605D01*
X73686Y193316D01*
X72319Y194462D01*
X70901Y195863D01*
X69602Y197377D01*
X69017Y198184D01*
X69017Y198184D01*
X69017Y198184D01*
X68525Y198862D01*
X67691Y200315D01*
X67017Y201849D01*
X66612Y203123D01*
X66342Y204266D01*
X66342Y204266D01*
X66144Y205423D01*
X66130Y205518D01*
X66044Y206361D01*
X66002Y207207D01*
X66002Y208058D01*
X66045Y208912D01*
X66132Y209763D01*
X66262Y210608D01*
X66348Y211026D01*
X66473Y211633D01*
X66769Y212836D01*
X67109Y214027D01*
X67293Y214587D01*
X67680Y215700D01*
X67705Y215771D01*
X67710Y215786D01*
X67860Y216120D01*
X68225Y216934D01*
X68257Y216999D01*
X68730Y217749D01*
X69278Y218446D01*
X69587Y218764D01*
Y218764D01*
X69883Y219070D01*
X70542Y219611D01*
X71257Y220076D01*
X72019Y220458D01*
X72420Y220606D01*
X72947Y220800D01*
X74019Y221137D01*
X75106Y221423D01*
X76206Y221656D01*
X76761Y221746D01*
X77198Y221817D01*
X78078Y221924D01*
X78962Y221994D01*
X79847Y222027D01*
X80291Y222025D01*
X80684Y222024D01*
X81469Y221974D01*
X82250Y221878D01*
X83023Y221735D01*
X83405Y221641D01*
X83405Y221641D01*
X83757Y221554D01*
X84447Y221334D01*
X85122Y221069D01*
X85777Y220760D01*
X86406Y220410D01*
X87004Y220021D01*
X87574Y219590D01*
X88113Y219122D01*
X88365Y218869D01*
X88566Y218669D01*
X88914Y218266D01*
X89458Y217457D01*
X89641Y217171D01*
X89889Y216601D01*
X89890Y216600D01*
X90145Y215938D01*
X90342Y215071D01*
X90342Y215071D01*
X90345Y213802D01*
X90344Y213797D01*
X90256Y213293D01*
X90187Y213047D01*
X90116Y212791D01*
X89930Y212292D01*
X89890Y212207D01*
X89284Y211135D01*
X89282Y211131D01*
X88596Y210449D01*
X87905Y209963D01*
X86781Y209612D01*
X86329Y209570D01*
X86095Y209576D01*
X85808Y209583D01*
X85236Y209647D01*
X84986Y209696D01*
X83851Y210021D01*
X83851Y210021D01*
X82767Y210471D01*
X82153Y210762D01*
X81495Y211105D01*
X81173Y211289D01*
X80878Y211456D01*
X80283Y211782D01*
X79864Y212002D01*
X79682Y212097D01*
X79677Y212100D01*
X79075Y212402D01*
X78934Y212470D01*
X78770Y212550D01*
X78767Y212551D01*
X78603Y212625D01*
X78266Y212749D01*
X78265Y212750D01*
X77917Y212841D01*
X77917Y212841D01*
X77562Y212900D01*
X77382Y212916D01*
X77382Y212916D01*
X77263Y212919D01*
X77025Y212893D01*
X77025Y212893D01*
X76797Y212824D01*
X76796Y212824D01*
X76583Y212717D01*
X76568Y212706D01*
X76485Y212649D01*
X76484Y212648D01*
X76483Y212647D01*
X76365Y212553D01*
X76146Y212346D01*
X75951Y212117D01*
X75781Y211868D01*
X75707Y211737D01*
X75707D01*
X75552Y211426D01*
X75303Y210781D01*
X75302Y210779D01*
X75269Y210648D01*
X75269Y210648D01*
X75267Y210637D01*
X75134Y210107D01*
X75049Y209419D01*
X75038Y209072D01*
X75038Y209063D01*
X75047Y208657D01*
X75113Y207848D01*
X75245Y207046D01*
X75440Y206258D01*
X75562Y205870D01*
X75721Y205422D01*
X76083Y204542D01*
X76505Y203689D01*
X76982Y202865D01*
X77107Y202673D01*
X77241Y202466D01*
X77241Y202466D01*
X77242Y202466D01*
X77243Y202463D01*
X77450Y202165D01*
X77547Y202024D01*
X78186Y201169D01*
X78864Y200345D01*
X79582Y199555D01*
X79955Y199172D01*
X79958Y199169D01*
X80277Y198859D01*
X80374Y198765D01*
X81241Y197994D01*
X82151Y197275D01*
X83101Y196610D01*
X83334Y196462D01*
X83591Y196299D01*
X84225Y195915D01*
X84681Y195652D01*
X85505Y195177D01*
X86806Y194476D01*
X87653Y194052D01*
X88127Y193814D01*
X88796Y193497D01*
X88796Y193497D01*
X88798Y193496D01*
X89271Y193279D01*
X89454Y193196D01*
X89941Y192986D01*
X90780Y192625D01*
X92121Y192092D01*
X92972Y191782D01*
X93478Y191598D01*
X93632Y191546D01*
X94161Y191366D01*
X94163Y191366D01*
X94163Y191365D01*
X94163Y191365D01*
X94164Y191365D01*
X94164Y191365D01*
X94167Y191364D01*
X94574Y191237D01*
X94662Y191210D01*
X95667Y190958D01*
X96687Y190780D01*
X97719Y190678D01*
X98236Y190655D01*
X98236Y190655D01*
X98239Y190655D01*
X98345Y190653D01*
X98516Y190649D01*
X99049Y190641D01*
X99068Y190641D01*
X99340Y190640D01*
X99343Y190640D01*
X99423Y190640D01*
X99621Y190639D01*
X99630Y190639D01*
X100067Y190642D01*
X100173Y190643D01*
X100173Y190643D01*
X100449Y190646D01*
X100450Y190646D01*
X100554Y190651D01*
X100554Y190651D01*
X100761Y190678D01*
X100761Y190678D01*
X100963Y190726D01*
X100964Y190727D01*
X101160Y190797D01*
X101194Y190813D01*
X101255Y190841D01*
X101257Y190842D01*
X101320Y190877D01*
X101435Y190966D01*
X101530Y191076D01*
X101601Y191202D01*
X101627Y191269D01*
X101627Y191269D01*
X101670Y191409D01*
X101743Y191682D01*
X101803Y191958D01*
X101849Y192237D01*
X101867Y192377D01*
X101867Y192380D01*
X101867Y192380D01*
X101867Y192381D01*
X101878Y192498D01*
X101880Y192520D01*
X101887Y192796D01*
X101887Y192797D01*
X101868Y193073D01*
Y193074D01*
X101826Y193347D01*
Y193347D01*
X101795Y193482D01*
Y193482D01*
X101795Y193482D01*
X101795Y193483D01*
Y193483D01*
X101795Y193484D01*
Y193484D01*
X101795Y193484D01*
Y193485D01*
X101795Y193485D01*
Y193485D01*
X101794Y193485D01*
X101794Y193486D01*
Y193486D01*
X101794Y193486D01*
Y193486D01*
X101794Y193487D01*
Y193487D01*
X101794Y193487D01*
Y193487D01*
X101754Y193637D01*
X101658Y193930D01*
X101543Y194217D01*
X101409Y194495D01*
X101335Y194631D01*
X101334Y194631D01*
X101334Y194633D01*
X101333Y194633D01*
X101333Y194633D01*
X101225Y194819D01*
X101087Y195038D01*
X100996Y195183D01*
X100994Y195185D01*
X100751Y195538D01*
X100491Y195881D01*
X100356Y196048D01*
X100354Y196050D01*
X100353Y196052D01*
X100353Y196052D01*
X100137Y196311D01*
X99700Y196826D01*
X99257Y197337D01*
X98807Y197841D01*
X98580Y198091D01*
X98580Y198091D01*
X98579Y198092D01*
X98578Y198093D01*
X98252Y198450D01*
X97615Y199179D01*
X96994Y199921D01*
X96389Y200676D01*
X96095Y201060D01*
X96095Y201060D01*
X95898Y201317D01*
X95543Y201857D01*
X95227Y202422D01*
X94953Y203008D01*
X94837Y203310D01*
X94837Y203310D01*
X94837D01*
X94728Y203593D01*
X94559Y204174D01*
X94507Y204424D01*
X94365Y205568D01*
X94353Y205671D01*
X94350Y205862D01*
X94349Y205872D01*
X94349Y205881D01*
X94335Y206943D01*
X94347Y207467D01*
X94375Y208040D01*
X94416Y208611D01*
X94443Y208897D01*
X94444Y208900D01*
X94444D01*
X94483Y209306D01*
X94618Y210112D01*
X94810Y210905D01*
X94825Y210955D01*
X95208Y212066D01*
Y212066D01*
X95209Y212067D01*
X95674Y213144D01*
X95757Y213327D01*
X96177Y214142D01*
X96636Y214935D01*
X97139Y215712D01*
X97683Y216471D01*
X98264Y217203D01*
X98879Y217906D01*
X99203Y218242D01*
X99203Y218242D01*
X99503Y218552D01*
X100139Y219135D01*
X100810Y219678D01*
X101514Y220178D01*
X101880Y220406D01*
Y220406D01*
X101880Y220406D01*
X102089Y220536D01*
X102519Y220779D01*
X102529Y220784D01*
X103634Y221300D01*
X104837Y221684D01*
X105144Y221752D01*
X105366Y221788D01*
Y221788D01*
X105658Y221836D01*
X106243Y221911D01*
X106830Y221966D01*
X107419Y222001D01*
X107714Y222009D01*
Y222009D01*
X107714Y222009D01*
X108243Y222023D01*
X109301Y222043D01*
X110359Y222056D01*
X111417Y222062D01*
X111946Y222061D01*
X111946Y222061D01*
X111946Y222061D01*
X112473Y222061D01*
X113525Y222052D01*
X114578Y222034D01*
X115631Y222009D01*
X116157Y221992D01*
X116157Y221992D01*
X116479Y221981D01*
X117122Y221940D01*
X117763Y221878D01*
X118402Y221795D01*
X118987Y221700D01*
X119518Y221590D01*
X120043Y221457D01*
X120562Y221301D01*
X120817Y221211D01*
X120818Y221211D01*
X121123Y221104D01*
X121728Y220875D01*
X122326Y220631D01*
X122919Y220371D01*
X123421Y220135D01*
X123836Y219933D01*
X124248Y219723D01*
X124657Y219508D01*
X125082Y219276D01*
X125522Y219028D01*
X125960Y218776D01*
X126395Y218518D01*
X126611Y218386D01*
X126611Y218386D01*
X126814Y218263D01*
X127217Y218011D01*
X127617Y217754D01*
X128013Y217493D01*
X128210Y217360D01*
X128360Y217259D01*
X128654Y217049D01*
X128942Y216830D01*
X129224Y216604D01*
X129681Y216218D01*
X130284Y215640D01*
X130850Y215025D01*
X131620Y214037D01*
X132349Y213005D01*
X132928Y212174D01*
X133780Y210919D01*
X134377Y210019D01*
X135024Y209026D01*
X135029Y209019D01*
X135671Y208015D01*
X136319Y206982D01*
X137155Y205610D01*
X137780Y204553D01*
X138371Y203532D01*
X138373Y203529D01*
X138373Y203529D01*
X138949Y202498D01*
X139320Y201814D01*
X139913Y200650D01*
X140477Y199473D01*
X140745Y198877D01*
X140745Y198877D01*
X140862Y198619D01*
X141098Y198104D01*
X141337Y197590D01*
X141515Y197215D01*
X141580Y197078D01*
X141580Y197078D01*
X141703Y196823D01*
X141746Y196738D01*
X141846Y196574D01*
X141960Y196420D01*
X142088Y196278D01*
X142158Y196212D01*
X142158Y196212D01*
X142183Y196192D01*
X142183Y196192D01*
X142241Y196168D01*
X142241Y196168D01*
X142304Y196165D01*
X142304Y196165D01*
X142365Y196184D01*
X142365Y196184D01*
X142392Y196201D01*
X142394Y196202D01*
X142461Y196256D01*
X142588Y196372D01*
X142704Y196500D01*
X142808Y196637D01*
X142855Y196710D01*
X142918Y196812D01*
X142918Y196812D01*
X143044Y197014D01*
X143044Y197014D01*
X143172Y197214D01*
X143302Y197413D01*
X143368Y197512D01*
X143511Y197725D01*
X143796Y198151D01*
X144081Y198577D01*
X144368Y199002D01*
X144511Y199214D01*
X144681Y199467D01*
X145022Y199971D01*
X145364Y200474D01*
X145706Y200977D01*
X145877Y201229D01*
X145878D01*
X145878Y201230D01*
X146061Y201498D01*
X146427Y202033D01*
X146666Y202380D01*
X147346Y203369D01*
X147346Y203369D01*
X148139Y204522D01*
X149719Y206832D01*
X151289Y209149D01*
X152851Y211471D01*
X153628Y212635D01*
X153630Y212637D01*
X153630Y212637D01*
X153630Y212637D01*
X153633Y212642D01*
X153955Y213134D01*
X154576Y214146D01*
X155160Y215180D01*
X155705Y216236D01*
X155964Y216773D01*
X156143Y217171D01*
X156454Y217981D01*
X156705Y218811D01*
X156895Y219657D01*
X156944Y219953D01*
X156967Y220085D01*
X156967Y220088D01*
X156990Y220254D01*
X157043Y220634D01*
X157165Y221730D01*
X157247Y222830D01*
X157287Y223932D01*
X157292Y224483D01*
X157292Y224483D01*
X157291Y224759D01*
X157283Y225304D01*
X157283Y225311D01*
X157267Y225863D01*
X157242Y226414D01*
X157226Y226689D01*
Y226690D01*
X157226Y226692D01*
X157226Y226692D01*
X157214Y226851D01*
X157175Y227168D01*
X157115Y227482D01*
X157036Y227792D01*
X156989Y227945D01*
X156988Y227946D01*
X156988Y227947D01*
X156946Y228067D01*
X156845Y228300D01*
X156724Y228523D01*
X156582Y228734D01*
X156504Y228834D01*
X156504Y228834D01*
X156502Y228836D01*
X156502Y228836D01*
X156401Y228956D01*
X156191Y229185D01*
X156190Y229187D01*
X155966Y229406D01*
X155731Y229613D01*
X155609Y229711D01*
Y229711D01*
X155607Y229713D01*
X155607Y229713D01*
X155507Y229790D01*
X155300Y229936D01*
X155085Y230071D01*
X154864Y230194D01*
X154751Y230252D01*
X154751Y230252D01*
X154749Y230253D01*
X154597Y230327D01*
X154293Y230468D01*
X154289Y230469D01*
X153980Y230604D01*
X153978Y230604D01*
X153665Y230732D01*
X153506Y230793D01*
X153337Y230856D01*
X152996Y230976D01*
X152994Y230977D01*
X152652Y231088D01*
X152647Y231089D01*
X152305Y231192D01*
X152131Y231241D01*
Y231241D01*
X152128Y231242D01*
X152128Y231242D01*
X151968Y231285D01*
X151647Y231363D01*
X151323Y231431D01*
X150997Y231490D01*
X150834Y231516D01*
Y231516D01*
X150831Y231516D01*
X150830Y231517D01*
X150706Y231541D01*
X150397Y231605D01*
X150134Y231661D01*
X149121Y231917D01*
X149550Y231784D01*
X149541Y231785D01*
X149125Y231911D01*
X149068Y231930D01*
X149065Y231931D01*
X149121Y231917D01*
X148994Y231956D01*
X148771Y232035D01*
X147929Y232344D01*
X147220Y232663D01*
X147861Y232369D01*
X147861Y232369D01*
X146990Y232768D01*
X146893Y232818D01*
X146354Y233138D01*
X146095Y233313D01*
X146095Y233313D01*
X145877Y233461D01*
X145461Y233786D01*
X145069Y234140D01*
X144703Y234519D01*
X144403Y234876D01*
X144201Y235226D01*
X144062Y235606D01*
X143992Y236004D01*
Y236106D01*
X143767Y236074D01*
X143619D01*
X143471Y236111D01*
X143286Y236185D01*
X143027Y236296D01*
X142767Y236482D01*
X142508Y236704D01*
X142212Y237000D01*
X142175Y237037D01*
X142101Y237148D01*
X142027Y237296D01*
X141916Y237481D01*
X141694Y237963D01*
X141620Y238222D01*
X141582Y238481D01*
Y238518D01*
Y238592D01*
X141620Y238741D01*
X141657Y238926D01*
X141731Y239111D01*
X141805Y239296D01*
X141953Y239518D01*
X142138Y239704D01*
X142175Y239741D01*
X142249Y239778D01*
X142360Y239852D01*
X142508Y239963D01*
X142916Y240148D01*
X143175Y240185D01*
X143434Y240222D01*
X143582D01*
X143730Y240185D01*
X143953Y240111D01*
X144175Y240000D01*
X144434Y239815D01*
X144730Y239592D01*
X144990Y239296D01*
X145027Y239259D01*
X145101Y239148D01*
X145212Y239000D01*
X145323Y238815D01*
X145394Y238649D01*
X146137Y239129D01*
X146230Y239185D01*
X147010Y239552D01*
X147822Y239841D01*
X148763Y240075D01*
X149825Y240257D01*
X150898Y240358D01*
X151975Y240380D01*
X152513Y240350D01*
D02*
G37*
G36*
X103290Y258516D02*
X103475Y258479D01*
X103698Y258405D01*
X103957Y258331D01*
X104179Y258183D01*
X104401Y257998D01*
X104438Y257961D01*
X104475Y257924D01*
X104586Y257776D01*
X104697Y257628D01*
X104883Y257220D01*
X104920Y256998D01*
X104957Y256702D01*
Y256628D01*
Y256553D01*
Y256405D01*
Y256220D01*
Y255998D01*
Y255702D01*
X104994Y255368D01*
Y254998D01*
Y254554D01*
Y254035D01*
X105031Y253480D01*
Y252813D01*
X105068Y252110D01*
Y251332D01*
X105105Y250480D01*
X105179D01*
X105438Y250554D01*
X105771Y250665D01*
X106216Y250850D01*
X106697Y251110D01*
X107253Y251517D01*
X107512Y251739D01*
X107771Y252036D01*
X108030Y252332D01*
X108290Y252702D01*
Y252739D01*
X108327Y252776D01*
X108475Y252998D01*
X108660Y253369D01*
X108956Y253813D01*
X109253Y254369D01*
X109586Y254961D01*
X109993Y255591D01*
X110364Y256257D01*
Y256294D01*
X110437Y256331D01*
X110623Y256553D01*
X110919Y256850D01*
X111326Y257183D01*
X111845Y257516D01*
X112474Y257813D01*
X113178Y258035D01*
X113585Y258072D01*
X113993Y258109D01*
X114104D01*
X114252Y258072D01*
X114474D01*
X114956Y257924D01*
X115215Y257850D01*
X115511Y257702D01*
X115548Y257665D01*
X115659Y257628D01*
X115807Y257516D01*
X115992Y257405D01*
X116141Y257220D01*
X116289Y257035D01*
X116400Y256813D01*
X116437Y256591D01*
Y256553D01*
Y256479D01*
Y256405D01*
X116400Y256257D01*
X116289Y255924D01*
X116067Y255554D01*
Y255517D01*
X115992Y255480D01*
X115807Y255294D01*
X115511Y255072D01*
X115326Y255035D01*
X115104Y254998D01*
X115067D01*
X114919Y254961D01*
X114696Y254850D01*
X114400Y254665D01*
X114215Y254517D01*
X114030Y254294D01*
X113845Y254072D01*
X113659Y253813D01*
X113437Y253480D01*
X113215Y253109D01*
X112993Y252665D01*
X112771Y252184D01*
Y252147D01*
X112734Y252073D01*
X112660Y251961D01*
X112585Y251813D01*
X112326Y251369D01*
X112030Y250850D01*
X111586Y250295D01*
X111067Y249739D01*
X110475Y249184D01*
X109808Y248739D01*
X109845D01*
X109919Y248666D01*
X110030Y248591D01*
X110215Y248443D01*
X110400Y248295D01*
X110660Y248073D01*
X110919Y247851D01*
X111252Y247554D01*
X111586Y247258D01*
X111956Y246888D01*
X112326Y246481D01*
X112734Y246036D01*
X113141Y245555D01*
X113585Y244999D01*
X114030Y244444D01*
X114474Y243814D01*
X114511Y243777D01*
X114585Y243666D01*
X114696Y243481D01*
X114845Y243259D01*
X115030Y242962D01*
X115252Y242629D01*
X115696Y241888D01*
X116104Y241037D01*
X116511Y240185D01*
X116659Y239778D01*
X116770Y239370D01*
X116844Y239000D01*
X116881Y238629D01*
Y238592D01*
Y238518D01*
X116844Y238370D01*
X116807Y238185D01*
X116733Y237963D01*
X116622Y237741D01*
X116474Y237556D01*
X116252Y237333D01*
X116215Y237296D01*
X116141Y237259D01*
X116030Y237185D01*
X115844Y237111D01*
X115437Y236926D01*
X115178Y236889D01*
X114881Y236852D01*
X114808D01*
X114659Y236889D01*
X114437Y236926D01*
X114141Y237037D01*
X113808Y237185D01*
X113511Y237444D01*
X113215Y237778D01*
X112993Y238259D01*
Y238296D01*
X112956Y238333D01*
X112919Y238444D01*
X112882Y238592D01*
X112771Y238778D01*
X112697Y239000D01*
X112437Y239555D01*
X112067Y240222D01*
X111586Y241037D01*
X111030Y241963D01*
X110326Y242999D01*
X110289Y243036D01*
X110215Y243148D01*
X110067Y243333D01*
X109919Y243592D01*
X109697Y243851D01*
X109438Y244147D01*
X108845Y244851D01*
X108179Y245518D01*
X107845Y245814D01*
X107475Y246110D01*
X107142Y246332D01*
X106808Y246518D01*
X106475Y246629D01*
X106142Y246666D01*
X105142D01*
Y246629D01*
Y246518D01*
Y246369D01*
Y246110D01*
Y245814D01*
Y245406D01*
X105105Y244962D01*
Y244407D01*
Y244333D01*
Y244147D01*
Y243888D01*
Y243555D01*
Y243185D01*
Y242814D01*
Y242407D01*
Y242074D01*
Y242036D01*
Y241888D01*
Y241740D01*
Y241592D01*
X105142Y241407D01*
Y241148D01*
Y241111D01*
Y241037D01*
Y240926D01*
X105179Y240777D01*
Y240407D01*
Y240074D01*
Y240037D01*
Y239926D01*
Y239778D01*
X105142Y239555D01*
X105105Y239296D01*
X105068Y239037D01*
X104920Y238444D01*
X104660Y237815D01*
X104512Y237556D01*
X104290Y237296D01*
X104031Y237074D01*
X103772Y236926D01*
X103438Y236815D01*
X103068Y236778D01*
X102920D01*
X102772Y236815D01*
X102586Y236852D01*
X102142Y237000D01*
X101883Y237111D01*
X101661Y237259D01*
X101624Y237296D01*
X101587Y237370D01*
X101475Y237481D01*
X101401Y237630D01*
X101290Y237815D01*
X101179Y238037D01*
X101142Y238296D01*
X101105Y238592D01*
Y238629D01*
Y238778D01*
Y239000D01*
Y239333D01*
X101142Y239778D01*
Y240296D01*
Y240889D01*
X101179Y241592D01*
Y241629D01*
Y241666D01*
Y241777D01*
X101216Y241925D01*
Y242296D01*
X101253Y242703D01*
Y243222D01*
X101290Y243703D01*
Y244184D01*
Y244592D01*
Y244629D01*
Y244666D01*
Y244777D01*
Y244962D01*
Y245147D01*
Y245369D01*
Y245666D01*
Y245999D01*
X101253Y246369D01*
Y246814D01*
Y247258D01*
X101216Y247777D01*
Y248295D01*
X101179Y248925D01*
Y249554D01*
X101142Y250221D01*
Y250258D01*
Y250406D01*
Y250591D01*
X101105Y250850D01*
Y251147D01*
Y251517D01*
X101068Y251924D01*
Y252332D01*
X101031Y253258D01*
Y254220D01*
X100994Y255109D01*
Y255517D01*
Y255887D01*
Y255924D01*
Y255998D01*
Y256146D01*
X101031Y256294D01*
X101105Y256739D01*
X101253Y257220D01*
X101475Y257702D01*
X101846Y258146D01*
X102068Y258294D01*
X102327Y258442D01*
X102661Y258516D01*
X102994Y258553D01*
X103142D01*
X103290Y258516D01*
D02*
G37*
G36*
X86144Y258220D02*
X86440Y258146D01*
X86773Y257961D01*
X87107Y257665D01*
X87255Y257479D01*
X87403Y257257D01*
X87514Y256998D01*
X87625Y256665D01*
X87662Y256294D01*
X87699Y255887D01*
Y255850D01*
Y255813D01*
Y255702D01*
Y255554D01*
Y255331D01*
Y255109D01*
X87736Y254850D01*
Y254517D01*
Y254183D01*
X87773Y253776D01*
X87810Y252887D01*
X87884Y251850D01*
X87958Y250702D01*
X88218D01*
X88366Y250739D01*
X89551D01*
X89884Y250702D01*
X90254D01*
X90662Y250665D01*
X91143Y250628D01*
X91625Y250591D01*
X92699Y250406D01*
X93773Y250184D01*
X94810Y249851D01*
X95291Y249628D01*
X95698Y249406D01*
X95735Y249369D01*
X95809Y249332D01*
X95958Y249221D01*
X96106Y249073D01*
X96328Y248888D01*
X96550Y248666D01*
X96772Y248369D01*
X97031Y248073D01*
X97291Y247666D01*
X97513Y247258D01*
X97735Y246777D01*
X97957Y246258D01*
X98105Y245666D01*
X98254Y245036D01*
X98328Y244333D01*
X98365Y243592D01*
Y243555D01*
Y243444D01*
Y243259D01*
X98328Y242999D01*
X98291Y242703D01*
X98217Y242370D01*
X98031Y241592D01*
X97920Y241185D01*
X97735Y240740D01*
X97513Y240296D01*
X97291Y239852D01*
X96958Y239444D01*
X96624Y239037D01*
X96217Y238629D01*
X95772Y238296D01*
X95735D01*
X95661Y238222D01*
X95550Y238148D01*
X95365Y238074D01*
X95143Y237963D01*
X94884Y237815D01*
X94587Y237704D01*
X94217Y237556D01*
X93810Y237407D01*
X93365Y237296D01*
X92884Y237148D01*
X92365Y237037D01*
X91773Y236963D01*
X91180Y236889D01*
X90514Y236815D01*
X89366D01*
X89106Y236852D01*
X88440D01*
X88033Y236889D01*
X87810D01*
X87588Y236926D01*
X87292D01*
X86699Y236963D01*
X86181D01*
X86033Y236926D01*
X85848Y236889D01*
X85551D01*
X85292Y236926D01*
X84959Y237037D01*
X84588Y237259D01*
X84403Y237407D01*
X84218Y237593D01*
X84033Y237815D01*
X83885Y238111D01*
X83737Y238407D01*
X83625Y238815D01*
X83588Y239222D01*
X83551Y239741D01*
Y239778D01*
Y239852D01*
Y239963D01*
X83588Y240185D01*
Y240481D01*
X83625Y240926D01*
X83663Y241444D01*
X83737Y242111D01*
Y242148D01*
Y242222D01*
X83774Y242370D01*
Y242555D01*
X83811Y242777D01*
X83848Y243074D01*
X83885Y243703D01*
X83959Y244444D01*
X83996Y245295D01*
X84033Y246147D01*
Y247036D01*
Y247110D01*
Y247295D01*
Y247591D01*
Y248036D01*
X83996Y248554D01*
X83959Y249221D01*
X83922Y249962D01*
X83885Y250776D01*
Y250813D01*
Y250888D01*
Y251036D01*
X83848Y251221D01*
Y251480D01*
X83811Y251739D01*
X83774Y252332D01*
X83737Y252961D01*
X83700Y253591D01*
Y254109D01*
X83663Y254369D01*
Y254554D01*
X82774D01*
X82440Y254517D01*
X80959D01*
X80255Y254480D01*
X79256D01*
X79107Y254517D01*
X78922Y254554D01*
X78441Y254702D01*
X78219Y254813D01*
X77997Y254998D01*
X77959Y255035D01*
X77922Y255109D01*
X77848Y255220D01*
X77737Y255368D01*
X77626Y255554D01*
X77552Y255776D01*
X77515Y256035D01*
X77478Y256331D01*
Y256368D01*
Y256479D01*
X77515Y256591D01*
X77552Y256776D01*
X77700Y257220D01*
X77811Y257442D01*
X77997Y257628D01*
X78033Y257665D01*
X78108Y257702D01*
X78219Y257813D01*
X78367Y257924D01*
X78589Y257998D01*
X78811Y258109D01*
X79107Y258146D01*
X79404Y258183D01*
X81218D01*
X81885Y258220D01*
X83366D01*
X83848Y258257D01*
X85922D01*
X86144Y258220D01*
D02*
G37*
G36*
X58702Y258479D02*
X58998Y258442D01*
X59295Y258331D01*
X59628Y258183D01*
X59961Y257961D01*
X60258Y257628D01*
X60295Y257591D01*
X60332Y257516D01*
X60443Y257331D01*
X60554Y257146D01*
X60628Y256924D01*
X60739Y256628D01*
X60776Y256331D01*
X60813Y255998D01*
Y255961D01*
Y255924D01*
Y255813D01*
Y255628D01*
Y255443D01*
Y255183D01*
Y254887D01*
Y254554D01*
X60850Y254183D01*
Y253776D01*
Y253295D01*
Y252776D01*
X60887Y252221D01*
Y251628D01*
X60924Y250999D01*
Y250295D01*
Y250258D01*
Y250147D01*
Y249925D01*
X60961Y249665D01*
Y249369D01*
Y248999D01*
X60998Y248628D01*
Y248184D01*
X61035Y247295D01*
Y246332D01*
X61072Y245444D01*
Y245036D01*
Y244666D01*
Y244629D01*
Y244481D01*
Y244221D01*
Y243888D01*
Y243444D01*
Y242888D01*
X61109Y242259D01*
Y241518D01*
Y241481D01*
Y241444D01*
Y241333D01*
Y241185D01*
X61146Y240814D01*
Y240370D01*
Y239852D01*
X61183Y239333D01*
Y238852D01*
Y238407D01*
Y238370D01*
Y238259D01*
X61146Y238111D01*
X61109Y237926D01*
X61035Y237704D01*
X60924Y237481D01*
X60776Y237259D01*
X60591Y237037D01*
X60554Y237000D01*
X60480Y236963D01*
X60369Y236889D01*
X60220Y236778D01*
X59998Y236667D01*
X59776Y236593D01*
X59480Y236556D01*
X59184Y236519D01*
X59036D01*
X58887Y236556D01*
X58702Y236593D01*
X58258Y236741D01*
X58036Y236852D01*
X57813Y237037D01*
X57776Y237074D01*
X57739Y237148D01*
X57628Y237259D01*
X57554Y237407D01*
X57443Y237630D01*
X57332Y237852D01*
X57295Y238111D01*
X57258Y238407D01*
Y238444D01*
Y238555D01*
Y238741D01*
Y238963D01*
Y239296D01*
X57221Y239666D01*
Y240148D01*
X57184Y240666D01*
Y240740D01*
Y240926D01*
Y241185D01*
Y241518D01*
X57147Y242259D01*
Y242629D01*
Y242925D01*
X57073D01*
X56925Y242851D01*
X56628Y242740D01*
X56258Y242592D01*
X55777Y242407D01*
X55258Y242185D01*
X54629Y241925D01*
X53962Y241592D01*
X53221Y241185D01*
X52444Y240777D01*
X51629Y240296D01*
X50814Y239741D01*
X49962Y239148D01*
X49074Y238518D01*
X48222Y237815D01*
X47370Y237037D01*
X47333Y237000D01*
X47259Y236963D01*
X47148Y236852D01*
X46963Y236778D01*
X46518Y236556D01*
X46259Y236519D01*
X45963Y236481D01*
X45815D01*
X45666Y236519D01*
X45481Y236556D01*
X45259Y236630D01*
X45037Y236704D01*
X44778Y236852D01*
X44556Y237037D01*
X44518Y237074D01*
X44481Y237148D01*
X44370Y237259D01*
X44296Y237407D01*
X44074Y237852D01*
X44037Y238074D01*
X44000Y238370D01*
Y238407D01*
Y238481D01*
X44037Y238629D01*
X44074Y238778D01*
X44222Y239185D01*
X44333Y239407D01*
X44481Y239629D01*
X44518Y239666D01*
X44556Y239741D01*
X44704Y239852D01*
X44852Y240000D01*
X45074Y240222D01*
X45333Y240444D01*
X45629Y240740D01*
X46000Y241037D01*
X46407Y241370D01*
X46852Y241740D01*
X47370Y242111D01*
X47926Y242518D01*
X48555Y242962D01*
X49222Y243370D01*
X49962Y243851D01*
X50740Y244296D01*
X50666Y244333D01*
X50518Y244370D01*
X50259Y244481D01*
X49925Y244666D01*
X49518Y244851D01*
X49074Y245110D01*
X48592Y245369D01*
X48111Y245703D01*
X47629Y246073D01*
X47148Y246481D01*
X46703Y246925D01*
X46296Y247443D01*
X45963Y247962D01*
X45704Y248554D01*
X45555Y249147D01*
X45481Y249813D01*
Y249851D01*
Y249999D01*
X45518Y250258D01*
X45592Y250554D01*
X45666Y250924D01*
X45815Y251369D01*
X46000Y251887D01*
X46222Y252406D01*
X46555Y252998D01*
X46926Y253591D01*
X47407Y254220D01*
X48000Y254850D01*
X48666Y255480D01*
X49481Y256109D01*
X50407Y256702D01*
X51444Y257294D01*
X51518Y257331D01*
X51703Y257405D01*
X51999Y257516D01*
X52369Y257665D01*
X52851Y257813D01*
X53443Y257961D01*
X54073Y258109D01*
X54777Y258220D01*
X54851D01*
X54999Y258257D01*
X55258D01*
X55443Y258294D01*
X55703D01*
X55962Y258331D01*
X56295Y258368D01*
X56702Y258405D01*
X57147Y258442D01*
X57665Y258479D01*
X58258Y258516D01*
X58480D01*
X58702Y258479D01*
D02*
G37*
G36*
X130584Y258183D02*
X130991Y258146D01*
X131435Y258109D01*
X131954Y258035D01*
X132509Y257924D01*
X133694Y257665D01*
X134324Y257479D01*
X134916Y257257D01*
X135509Y256998D01*
X136102Y256702D01*
X136620Y256368D01*
X137101Y255961D01*
X137139Y255924D01*
X137213Y255850D01*
X137324Y255739D01*
X137472Y255554D01*
X137657Y255294D01*
X137879Y254998D01*
X138101Y254665D01*
X138323Y254258D01*
X138546Y253813D01*
X138768Y253332D01*
X138990Y252776D01*
X139175Y252184D01*
X139323Y251517D01*
X139434Y250813D01*
X139509Y250036D01*
X139546Y249221D01*
Y249184D01*
Y248999D01*
Y248777D01*
X139509Y248406D01*
X139472Y247999D01*
X139397Y247518D01*
X139323Y246962D01*
X139212Y246369D01*
X139064Y245703D01*
X138879Y245036D01*
X138657Y244333D01*
X138361Y243592D01*
X138064Y242851D01*
X137694Y242074D01*
X137250Y241333D01*
X136768Y240592D01*
X136731Y240555D01*
X136620Y240407D01*
X136435Y240185D01*
X136213Y239889D01*
X135879Y239555D01*
X135509Y239185D01*
X135065Y238778D01*
X134546Y238370D01*
X133991Y237963D01*
X133361Y237556D01*
X132695Y237185D01*
X131954Y236852D01*
X131176Y236556D01*
X130324Y236333D01*
X129436Y236185D01*
X128510Y236148D01*
X128102D01*
X127806Y236185D01*
X127473Y236222D01*
X127028Y236259D01*
X126584Y236333D01*
X126066Y236444D01*
X124955Y236741D01*
X124362Y236926D01*
X123770Y237148D01*
X123177Y237407D01*
X122584Y237741D01*
X121992Y238111D01*
X121436Y238518D01*
X121399Y238555D01*
X121288Y238629D01*
X121140Y238778D01*
X120955Y239000D01*
X120733Y239222D01*
X120473Y239555D01*
X120177Y239889D01*
X119918Y240296D01*
X119622Y240740D01*
X119326Y241259D01*
X119066Y241777D01*
X118844Y242370D01*
X118659Y242999D01*
X118511Y243666D01*
X118400Y244370D01*
X118363Y245110D01*
Y245147D01*
Y245333D01*
X118400Y245592D01*
Y245925D01*
X118437Y246332D01*
X118511Y246814D01*
X118622Y247369D01*
X118733Y247962D01*
X118881Y248629D01*
X119103Y249295D01*
X119326Y250036D01*
X119622Y250776D01*
X119955Y251517D01*
X120362Y252295D01*
X120807Y253035D01*
X121325Y253776D01*
X121362Y253813D01*
X121473Y253961D01*
X121659Y254183D01*
X121918Y254480D01*
X122251Y254813D01*
X122659Y255183D01*
X123140Y255591D01*
X123658Y255998D01*
X124214Y256405D01*
X124881Y256813D01*
X125547Y257183D01*
X126325Y257516D01*
X127102Y257813D01*
X127954Y258035D01*
X128843Y258183D01*
X129769Y258220D01*
X130250D01*
X130584Y258183D01*
D02*
G37*
%LPC*%
G36*
X99994Y275036D02*
X98809D01*
X98513Y274999D01*
X98180D01*
X97810Y274962D01*
Y274925D01*
Y274777D01*
Y274555D01*
Y274332D01*
Y274258D01*
Y274147D01*
Y274036D01*
Y273851D01*
Y273629D01*
X97773Y273370D01*
Y273036D01*
Y272666D01*
X97736Y272258D01*
X97698Y271777D01*
Y271259D01*
X97661Y270666D01*
X97624Y270037D01*
X97550Y269333D01*
X97513Y268555D01*
X98254D01*
X98624Y268518D01*
X99846D01*
X100069Y268555D01*
X100365D01*
X100735Y268629D01*
X101105Y268666D01*
X101957Y268888D01*
X102402Y269074D01*
X102809Y269259D01*
X103179Y269518D01*
X103550Y269814D01*
X103846Y270148D01*
X104068Y270555D01*
X104216Y271036D01*
X104253Y271555D01*
Y271592D01*
Y271666D01*
Y271777D01*
Y271888D01*
X104179Y272258D01*
X104105Y272703D01*
X103957Y273184D01*
X103772Y273666D01*
X103476Y274073D01*
X103068Y274406D01*
X103031Y274443D01*
X102883Y274517D01*
X102624Y274592D01*
X102254Y274740D01*
X101772Y274851D01*
X101180Y274925D01*
X100439Y274999D01*
X99994Y275036D01*
D02*
G37*
G36*
X59702D02*
X58517D01*
X58221Y274999D01*
X57888D01*
X57517Y274962D01*
Y274925D01*
Y274777D01*
Y274555D01*
Y274332D01*
Y274258D01*
Y274147D01*
Y274036D01*
Y273851D01*
Y273629D01*
X57480Y273370D01*
Y273036D01*
Y272666D01*
X57443Y272258D01*
X57406Y271777D01*
Y271259D01*
X57369Y270666D01*
X57332Y270037D01*
X57258Y269333D01*
X57221Y268555D01*
X57962D01*
X58332Y268518D01*
X59554D01*
X59777Y268555D01*
X60073D01*
X60443Y268629D01*
X60813Y268666D01*
X61665Y268888D01*
X62110Y269074D01*
X62517Y269259D01*
X62887Y269518D01*
X63258Y269814D01*
X63554Y270148D01*
X63776Y270555D01*
X63924Y271036D01*
X63961Y271555D01*
Y271592D01*
Y271666D01*
Y271777D01*
Y271888D01*
X63887Y272258D01*
X63813Y272703D01*
X63665Y273184D01*
X63480Y273666D01*
X63183Y274073D01*
X62776Y274406D01*
X62739Y274443D01*
X62591Y274517D01*
X62332Y274592D01*
X61961Y274740D01*
X61480Y274851D01*
X60887Y274925D01*
X60147Y274999D01*
X59702Y275036D01*
D02*
G37*
G36*
X68701Y255406D02*
X68183D01*
X67886Y255368D01*
X67516D01*
X67331Y255331D01*
Y255294D01*
Y255220D01*
Y255072D01*
Y254850D01*
Y254591D01*
Y254258D01*
X67294Y253850D01*
Y253369D01*
Y253295D01*
Y253221D01*
Y253072D01*
Y252924D01*
X67257Y252702D01*
Y252443D01*
Y252184D01*
Y251850D01*
X67220Y251517D01*
Y251110D01*
X67183Y250665D01*
X67146Y250184D01*
Y249665D01*
X67109Y249110D01*
X67072Y248517D01*
X67183D01*
X67294Y248480D01*
X67442D01*
X67775Y248443D01*
X67886Y248406D01*
X68368D01*
X68775Y248480D01*
X69257Y248554D01*
X69849Y248666D01*
X70442Y248851D01*
X71071Y249110D01*
X71627Y249443D01*
X71701Y249480D01*
X71886Y249628D01*
X72108Y249888D01*
X72404Y250221D01*
X72701Y250665D01*
X72923Y251147D01*
X73108Y251739D01*
X73182Y252369D01*
Y252406D01*
X73145Y252554D01*
X73108Y252776D01*
X72997Y253072D01*
X72812Y253406D01*
X72553Y253776D01*
X72182Y254109D01*
X71701Y254480D01*
X71627Y254517D01*
X71479Y254628D01*
X71182Y254776D01*
X70812Y254961D01*
X70368Y255109D01*
X69849Y255257D01*
X69294Y255368D01*
X68701Y255406D01*
D02*
G37*
G36*
X104530Y208491D02*
X104367Y208471D01*
X104367Y208471D01*
X104331Y208458D01*
X104331Y208458D01*
X104330Y208457D01*
X104212Y208414D01*
X104212Y208414D01*
X104188Y208398D01*
X104144Y208368D01*
X104144Y208368D01*
X104144Y208368D01*
X104067Y208317D01*
X104067D01*
X103932Y208193D01*
X103932Y208192D01*
X103932Y208192D01*
X103819Y208047D01*
X103819Y208047D01*
X103732Y207885D01*
X103731Y207885D01*
X103701Y207798D01*
X103701Y207798D01*
X103661Y207681D01*
X103661Y207681D01*
X103605Y207440D01*
X103605Y207440D01*
X103595Y207354D01*
X103595Y207354D01*
X103575Y207195D01*
Y207194D01*
X103570Y206947D01*
X103580Y206826D01*
X103580Y206824D01*
X103580Y206824D01*
X103580Y206824D01*
X103592Y206684D01*
X103636Y206406D01*
X103636Y206405D01*
X103699Y206130D01*
X103699Y206130D01*
X103781Y205860D01*
X103781Y205860D01*
X103781Y205860D01*
X103832Y205728D01*
X103832Y205728D01*
X103851Y205679D01*
X103851Y205679D01*
X103853Y205675D01*
X103853Y205675D01*
X103896Y205582D01*
X103896Y205582D01*
X103948Y205489D01*
X103948Y205489D01*
X104007Y205401D01*
X104068Y205321D01*
X104133Y205252D01*
X104133D01*
X104205Y205190D01*
X104283Y205135D01*
X104361Y205092D01*
X104361Y205092D01*
X104438Y205061D01*
X104438Y205061D01*
X104517Y205040D01*
X104517Y205040D01*
X104518Y205040D01*
X104600Y205028D01*
X104600Y205028D01*
X104600Y205028D01*
X104641Y205028D01*
X104641Y205028D01*
X104681Y205027D01*
X104681Y205027D01*
X104759Y205037D01*
X104759Y205037D01*
X104759Y205037D01*
X104835Y205058D01*
X104835Y205058D01*
X104908Y205090D01*
X104941Y205110D01*
X105035Y205169D01*
X105035Y205169D01*
X105201Y205316D01*
X105201Y205316D01*
X105338Y205490D01*
X105338Y205490D01*
X105443Y205686D01*
X105443Y205686D01*
X105451Y205710D01*
X105451Y205710D01*
X105477Y205791D01*
X105478Y205791D01*
X105520Y205922D01*
X105520Y205922D01*
X105582Y206189D01*
X105582Y206190D01*
X105582Y206190D01*
X105584Y206209D01*
X105618Y206463D01*
X105618Y206463D01*
X105630Y206738D01*
X105630Y206738D01*
X105623Y206875D01*
X105623Y206875D01*
X105616Y207009D01*
X105577Y207274D01*
X105513Y207534D01*
X105513Y207534D01*
X105424Y207787D01*
X105424Y207787D01*
X105368Y207908D01*
X105368Y207908D01*
X105368Y207908D01*
X105335Y207980D01*
X105325Y208002D01*
X105325Y208002D01*
X105202Y208170D01*
X105202D01*
X105048Y208309D01*
X105048D01*
X104869Y208414D01*
X104869Y208414D01*
X104771Y208448D01*
X104771Y208448D01*
X104771Y208448D01*
X104693Y208475D01*
X104693Y208475D01*
X104607Y208483D01*
X104607Y208483D01*
X104530Y208491D01*
X104530Y208491D01*
D02*
G37*
G36*
X123999Y206512D02*
X123895Y206508D01*
X123779Y206494D01*
X123664Y206471D01*
X123551Y206438D01*
X123551Y206438D01*
X123438Y206395D01*
X123438D01*
X123329Y206336D01*
X123328Y206336D01*
X123227Y206264D01*
X123227Y206264D01*
X123135Y206181D01*
X123135Y206180D01*
X123135Y206180D01*
X123094Y206133D01*
X123094Y206133D01*
X123094Y206133D01*
X123044Y206074D01*
X123044Y206074D01*
X123043Y206074D01*
X122950Y205950D01*
X122950Y205950D01*
X122865Y205820D01*
X122865Y205819D01*
X122788Y205685D01*
X122755Y205615D01*
X122754Y205615D01*
X122716Y205536D01*
X122649Y205375D01*
X122592Y205210D01*
X122543Y205042D01*
X122524Y204956D01*
Y204956D01*
X122505Y204870D01*
X122476Y204696D01*
X122476Y204695D01*
X122456Y204519D01*
X122456Y204519D01*
X122446Y204342D01*
X122446Y204254D01*
X122446Y204253D01*
Y204186D01*
X122446Y204159D01*
X122446Y204159D01*
X122446Y204133D01*
X122446Y204133D01*
X122450Y203893D01*
X122458Y203654D01*
X122470Y203414D01*
X122481Y203249D01*
X122505Y203160D01*
X122547Y203078D01*
X122604Y203005D01*
X122604D01*
X122668Y202950D01*
X122740Y202921D01*
X122740Y202921D01*
X122817Y202915D01*
X122817Y202915D01*
X122892Y202934D01*
X123000Y203000D01*
X123146Y203097D01*
X123289Y203200D01*
X123428Y203307D01*
X123496Y203363D01*
X123553Y203411D01*
X123660Y203512D01*
X123660Y203512D01*
X123761Y203619D01*
X123761Y203619D01*
X123855Y203733D01*
X123855Y203733D01*
X123898Y203792D01*
X123898Y203792D01*
X123947Y203859D01*
X123947Y203860D01*
X124038Y203997D01*
X124038Y203998D01*
X124123Y204139D01*
X124124Y204140D01*
X124202Y204284D01*
X124238Y204359D01*
X124238D01*
X124238Y204359D01*
X124273Y204432D01*
X124338Y204581D01*
X124338Y204582D01*
X124396Y204734D01*
X124396Y204735D01*
X124447Y204890D01*
X124447Y204890D01*
X124469Y204968D01*
X124469Y204969D01*
X124488Y205037D01*
X124488Y205037D01*
X124517Y205175D01*
X124517Y205175D01*
X124537Y205315D01*
X124537Y205315D01*
X124546Y205456D01*
X124546Y205457D01*
X124546Y205457D01*
X124546Y205472D01*
X124546Y205475D01*
X124546Y205475D01*
X124546Y205527D01*
X124546Y205527D01*
X124546Y205596D01*
X124546Y205596D01*
X124538Y205733D01*
X124522Y205869D01*
X124499Y206004D01*
X124472Y206118D01*
X124435Y206208D01*
X124384Y206291D01*
X124321Y206364D01*
X124321D01*
X124284Y206396D01*
X124284Y206396D01*
X124284D01*
X124250Y206425D01*
X124249Y206425D01*
X124172Y206469D01*
X124172Y206469D01*
X124172Y206469D01*
X124087Y206498D01*
X124087Y206498D01*
X123999Y206512D01*
X123999Y206512D01*
D02*
G37*
G36*
X119874Y205161D02*
X119776Y205147D01*
X119731Y205129D01*
X119731Y205129D01*
X119624Y205086D01*
X119414Y204994D01*
X119207Y204897D01*
X119207D01*
X119002Y204794D01*
X119002Y204794D01*
X118990Y204787D01*
X118901Y204739D01*
X118850Y204712D01*
X118809Y204690D01*
X118628Y204586D01*
X118451Y204476D01*
X118345Y204405D01*
X118278Y204360D01*
X118193Y204299D01*
X118144Y204264D01*
Y204264D01*
X118059Y204180D01*
X118059Y204180D01*
X117987Y204083D01*
X117987Y204083D01*
X117987Y204083D01*
X117931Y203977D01*
X117931Y203977D01*
Y203977D01*
X117922Y203951D01*
Y203951D01*
X117894Y203870D01*
X117894Y203870D01*
X117879Y203764D01*
X117879Y203764D01*
X117886Y203658D01*
X117886Y203658D01*
X117913Y203555D01*
X117927Y203527D01*
X117972Y203434D01*
X118052Y203293D01*
X118139Y203158D01*
Y203157D01*
X118235Y203027D01*
X118287Y202965D01*
X118287Y202965D01*
X118287Y202965D01*
X118382Y202850D01*
X118584Y202633D01*
X118797Y202426D01*
X118797Y202426D01*
X119022Y202231D01*
X119139Y202140D01*
X119139D01*
X119207Y202088D01*
X119365Y202020D01*
X119365Y202020D01*
X119535Y201994D01*
X119706Y202012D01*
X119786Y202043D01*
X119786D01*
X119787Y202043D01*
X119867Y202073D01*
X120010Y202172D01*
X120010D01*
X120123Y202303D01*
X120123Y202303D01*
X120200Y202458D01*
X120200D01*
X120219Y202543D01*
X120219Y202543D01*
X120251Y202690D01*
X120251Y202690D01*
X120265Y202778D01*
X120298Y202986D01*
X120298Y202988D01*
X120330Y203286D01*
X120330Y203287D01*
X120330Y203287D01*
X120332Y203320D01*
X120345Y203571D01*
X120346Y203588D01*
Y203738D01*
X120346Y203758D01*
X120346Y203864D01*
X120346Y203865D01*
X120341Y204116D01*
X120341Y204116D01*
X120341Y204117D01*
Y204117D01*
X120341Y204118D01*
X120330Y204367D01*
X120315Y204618D01*
X120304Y204741D01*
X120304Y204743D01*
X120300Y204795D01*
X120269Y204893D01*
X120218Y204982D01*
X120217Y204982D01*
X120147Y205058D01*
X120147Y205058D01*
X120105Y205088D01*
X120105Y205088D01*
X120064Y205116D01*
X120064Y205116D01*
X119999Y205140D01*
X119999Y205140D01*
X119972Y205150D01*
X119972Y205150D01*
X119921Y205156D01*
X119921Y205156D01*
X119874Y205161D01*
X119874Y205161D01*
X119874Y205161D01*
D02*
G37*
G36*
X107407Y206783D02*
X107407Y206783D01*
X107314Y206766D01*
X107229Y206726D01*
X107158Y206666D01*
X107158Y206666D01*
X107107Y206588D01*
X107078Y206500D01*
X107068Y206286D01*
X107057Y205951D01*
X107050Y205616D01*
X107050Y205616D01*
X107050Y205585D01*
X107046Y205281D01*
Y205024D01*
X107055Y204844D01*
X107072Y204665D01*
X107091Y204531D01*
X107098Y204487D01*
X107098Y204487D01*
X107114Y204399D01*
X107115Y204399D01*
X107129Y204326D01*
X107129Y204325D01*
X107169Y204182D01*
X107169Y204182D01*
X107221Y204042D01*
X107221Y204042D01*
X107285Y203907D01*
X107285Y203907D01*
X107322Y203842D01*
X107322Y203842D01*
X107352Y203790D01*
X107352Y203790D01*
X107423Y203693D01*
X107424Y203692D01*
X107505Y203604D01*
X107506Y203604D01*
X107596Y203525D01*
X107646Y203491D01*
X107646Y203491D01*
X107646Y203491D01*
X107691Y203460D01*
X107789Y203412D01*
X107893Y203380D01*
X108000Y203364D01*
X108055Y203364D01*
X108182Y203364D01*
X108434Y203395D01*
X108681Y203457D01*
X108919Y203549D01*
X109030Y203609D01*
X109031Y203609D01*
X109031Y203609D01*
X109126Y203660D01*
X109291Y203798D01*
X109291Y203798D01*
X109414Y203951D01*
X109426Y203967D01*
X109426Y203967D01*
Y203967D01*
X109525Y204159D01*
X109525Y204159D01*
X109554Y204263D01*
X109554Y204263D01*
X109584Y204370D01*
X109584Y204370D01*
X109602Y204592D01*
X109602Y204592D01*
X109578Y204813D01*
X109512Y205026D01*
X109460Y205124D01*
X109460Y205124D01*
X109460Y205124D01*
X109397Y205241D01*
Y205242D01*
X109247Y205460D01*
X109072Y205661D01*
X108877Y205841D01*
X108770Y205919D01*
X108769Y205920D01*
X108660Y206000D01*
X108629Y206022D01*
X108352Y206221D01*
X108346Y206225D01*
X108062Y206425D01*
X107775Y206621D01*
X107630Y206718D01*
X107630Y206718D01*
X107591Y206745D01*
X107502Y206776D01*
X107409Y206783D01*
X107407Y206783D01*
D02*
G37*
G36*
X90180Y247036D02*
X88995D01*
X88699Y246999D01*
X88366D01*
X87995Y246962D01*
Y246925D01*
Y246777D01*
Y246555D01*
Y246332D01*
Y246258D01*
Y246147D01*
Y246036D01*
Y245851D01*
Y245629D01*
X87958Y245369D01*
Y245036D01*
Y244666D01*
X87921Y244258D01*
X87884Y243777D01*
Y243259D01*
X87847Y242666D01*
X87810Y242036D01*
X87736Y241333D01*
X87699Y240555D01*
X88440D01*
X88810Y240518D01*
X90032D01*
X90254Y240555D01*
X90551D01*
X90921Y240629D01*
X91291Y240666D01*
X92143Y240889D01*
X92587Y241074D01*
X92995Y241259D01*
X93365Y241518D01*
X93736Y241814D01*
X94032Y242148D01*
X94254Y242555D01*
X94402Y243036D01*
X94439Y243555D01*
Y243592D01*
Y243666D01*
Y243777D01*
Y243888D01*
X94365Y244258D01*
X94291Y244703D01*
X94143Y245184D01*
X93958Y245666D01*
X93661Y246073D01*
X93254Y246406D01*
X93217Y246444D01*
X93069Y246518D01*
X92810Y246592D01*
X92439Y246740D01*
X91958Y246851D01*
X91365Y246925D01*
X90625Y246999D01*
X90180Y247036D01*
D02*
G37*
G36*
X56851Y254554D02*
X56628D01*
X56480Y254517D01*
X56258D01*
X55999Y254480D01*
X55703Y254443D01*
X55369Y254406D01*
X55295D01*
X55184Y254369D01*
X54999D01*
X54629Y254258D01*
X54110Y254146D01*
X53481Y253924D01*
X52814Y253665D01*
X52110Y253295D01*
X51370Y252813D01*
X51333D01*
X51295Y252739D01*
X51073Y252554D01*
X50740Y252258D01*
X50407Y251887D01*
X50036Y251443D01*
X49703Y250924D01*
X49481Y250406D01*
X49444Y250110D01*
X49407Y249813D01*
Y249776D01*
X49481Y249591D01*
X49555Y249443D01*
X49666Y249295D01*
X49814Y249110D01*
X49999Y248888D01*
X50036Y248851D01*
X50111Y248777D01*
X50222Y248666D01*
X50370Y248554D01*
X50814Y248221D01*
X51295Y247925D01*
X51333D01*
X51370Y247888D01*
X51481Y247851D01*
X51629Y247777D01*
X51777Y247740D01*
X51999Y247666D01*
X52258Y247591D01*
X52555Y247517D01*
X52888Y247406D01*
X53258Y247332D01*
X53703Y247258D01*
X54147Y247221D01*
X54665Y247147D01*
X55184Y247110D01*
X55777Y247073D01*
X56776D01*
X57073Y247110D01*
Y247147D01*
Y247258D01*
Y247480D01*
X57036Y247814D01*
Y248036D01*
Y248258D01*
X56999Y248554D01*
Y248888D01*
Y249258D01*
X56962Y249702D01*
Y250147D01*
X56925Y250665D01*
Y250702D01*
Y250776D01*
Y250888D01*
Y251036D01*
X56887Y251480D01*
Y251999D01*
X56851Y252628D01*
Y253258D01*
Y253924D01*
Y254554D01*
D02*
G37*
G36*
X130361Y254406D02*
X129621D01*
X129473Y254369D01*
X129250D01*
X128954Y254332D01*
X128658Y254258D01*
X128288Y254146D01*
X127917Y254035D01*
X127510Y253850D01*
X127065Y253665D01*
X126621Y253406D01*
X126177Y253109D01*
X125732Y252776D01*
X125251Y252369D01*
X124844Y251887D01*
X124399Y251369D01*
X124362Y251332D01*
X124325Y251258D01*
X124214Y251073D01*
X124066Y250888D01*
X123918Y250628D01*
X123733Y250295D01*
X123547Y249925D01*
X123362Y249517D01*
X123177Y249073D01*
X122992Y248591D01*
X122659Y247554D01*
X122399Y246369D01*
X122362Y245740D01*
X122325Y245110D01*
Y245073D01*
Y244999D01*
Y244888D01*
X122362Y244740D01*
X122436Y244296D01*
X122547Y243777D01*
X122770Y243148D01*
X123066Y242518D01*
X123510Y241925D01*
X123806Y241629D01*
X124103Y241333D01*
X124140D01*
X124177Y241259D01*
X124288Y241222D01*
X124436Y241111D01*
X124806Y240889D01*
X125325Y240666D01*
X125955Y240407D01*
X126695Y240185D01*
X127547Y240037D01*
X128510Y239963D01*
X128658D01*
X128806Y240000D01*
X129028D01*
X129287Y240074D01*
X129621Y240111D01*
X130324Y240333D01*
X130732Y240481D01*
X131139Y240703D01*
X131546Y240926D01*
X131991Y241222D01*
X132435Y241555D01*
X132843Y241963D01*
X133250Y242444D01*
X133657Y242962D01*
X133694Y242999D01*
X133731Y243074D01*
X133842Y243222D01*
X133954Y243444D01*
X134102Y243703D01*
X134250Y243999D01*
X134435Y244370D01*
X134620Y244777D01*
X134805Y245221D01*
X134991Y245703D01*
X135287Y246777D01*
X135509Y247925D01*
X135546Y248554D01*
X135583Y249221D01*
Y249258D01*
Y249332D01*
Y249517D01*
X135546Y249702D01*
Y249925D01*
X135509Y250221D01*
X135435Y250813D01*
X135250Y251517D01*
X135028Y252184D01*
X134694Y252776D01*
X134472Y253072D01*
X134250Y253295D01*
X134176Y253332D01*
X133991Y253480D01*
X133694Y253665D01*
X133472Y253739D01*
X133213Y253850D01*
X132917Y253961D01*
X132620Y254072D01*
X132250Y254146D01*
X131843Y254221D01*
X131398Y254294D01*
X130880Y254369D01*
X130361Y254406D01*
D02*
G37*
%LPD*%
D10*
X-224000Y-213750D02*
G03*
X-224000Y-213750I-1250J0D01*
G01*
X-293500Y-226250D02*
G03*
X-293500Y-226250I-1250J0D01*
G01*
X-280250Y151750D02*
G03*
X-280250Y151750I-1250J0D01*
G01*
X257000Y132250D02*
G03*
X257000Y132250I-1250J0D01*
G01*
X332500Y4000D02*
G03*
X332500Y4000I-1250J0D01*
G01*
X251250Y1750D02*
G03*
X251250Y1750I-1250J0D01*
G01*
X278000Y-125000D02*
G03*
X278000Y-125000I-1250J0D01*
G01*
X303250Y-160750D02*
G03*
X303250Y-160750I-1250J0D01*
G01*
X263000Y-158250D02*
G03*
X263000Y-158250I-1250J0D01*
G01*
X48250Y-288250D02*
G03*
X48250Y-288250I-1250J0D01*
G01*
D11*
X-207000Y-8250D02*
X-195000D01*
X-207000Y8250D02*
X-195000D01*
X-158000Y-241250D02*
X-146000Y-241250D01*
X-158000Y-224750D02*
X-146000Y-224750D01*
X-205500Y-247500D02*
X-205500Y-240250D01*
X-215500Y-247500D02*
X-205500Y-247500D01*
X-205500Y-217500D02*
X-205500Y-224750D01*
X-215500Y-217500D02*
X-205500D01*
X-270750Y-206500D02*
X-270750Y-218500D01*
X-254250Y-206500D02*
X-254250Y-218500D01*
X-314500Y-199750D02*
X-314500Y-192500D01*
X-304500Y-192500D01*
X-314500Y-222500D02*
Y-215250D01*
Y-222500D02*
X-304500Y-222500D01*
X-305000Y-181250D02*
X-293000Y-181250D01*
X-305000Y-164750D02*
X-293000Y-164750D01*
X-54500Y-239250D02*
X-45500Y-239250D01*
X-54500Y-256750D02*
X-45500Y-256750D01*
X-104500Y-222250D02*
X-92500Y-222250D01*
X-104500Y-205750D02*
X-92500Y-205750D01*
X-101250Y-172500D02*
Y-160500D01*
X-84750Y-172500D02*
Y-160500D01*
X-77250Y-172500D02*
Y-160500D01*
X-60750Y-172500D02*
Y-160500D01*
X-123250Y-172500D02*
Y-160500D01*
X-106750Y-172500D02*
Y-160500D01*
X-250500Y203250D02*
X-245750Y203250D01*
X-250500Y158250D02*
X-245750Y158250D01*
X-284750Y203250D02*
X-280000Y203250D01*
X-284750Y158250D02*
X-280000D01*
X-245750Y203250D02*
X-245750Y158250D01*
X-284750Y158250D02*
X-284750Y203250D01*
X247750Y95000D02*
Y107000D01*
X264250Y95000D02*
Y107000D01*
X236000Y158750D02*
X236000Y166000D01*
X246000Y166000D01*
X236000Y143250D02*
X236000Y136000D01*
X246000D01*
X213000Y43750D02*
X222000Y43750D01*
X213000Y61250D02*
X222000Y61250D01*
X278750Y107000D02*
X278750Y95000D01*
X295250Y107000D02*
X295250Y95000D01*
X304750Y95000D02*
Y107000D01*
X321250Y95000D02*
Y107000D01*
X297500Y-15750D02*
X304750D01*
X297500D02*
X297500Y-5750D01*
X320250Y-15750D02*
X327500Y-15750D01*
X327500Y-5750D01*
X320000Y-69750D02*
X332000Y-69750D01*
X320000Y-86250D02*
X332000Y-86250D01*
X259000Y28250D02*
X271000D01*
X259000Y11750D02*
X271000D01*
X269750Y-32000D02*
Y-24750D01*
X259750Y-32000D02*
X269750D01*
Y-9250D02*
Y-2000D01*
X259750D02*
X269750D01*
X198500Y25750D02*
X210500D01*
X198500Y9250D02*
X210500D01*
X198500Y750D02*
X210500D01*
X198500Y-15750D02*
X210500D01*
X251500Y-64250D02*
X263500D01*
X251500Y-80750D02*
X263500D01*
X200500Y-26250D02*
X209500D01*
X200500Y-43750D02*
X209500D01*
X303250Y-105250D02*
X310500D01*
Y-115250D02*
Y-105250D01*
X280500D02*
X287750D01*
X280500Y-115250D02*
Y-105250D01*
X120000Y-172250D02*
X132000D01*
X120000Y-155750D02*
X132000D01*
X234250Y-121000D02*
Y-109000D01*
X250750Y-121000D02*
Y-109000D01*
X321750Y-194500D02*
Y-187250D01*
X311750Y-194500D02*
X321750Y-194500D01*
Y-171750D02*
Y-164500D01*
X311750D02*
X321750D01*
X228000Y-178000D02*
X235250D01*
X228000D02*
Y-168000D01*
X250750Y-178000D02*
X258000D01*
Y-168000D01*
X269750Y-180500D02*
Y-168500D01*
X286250Y-180500D02*
Y-168500D01*
X219250Y-268500D02*
Y-256500D01*
X235750Y-268500D02*
Y-256500D01*
X246750Y-268500D02*
Y-256500D01*
X263250Y-268500D02*
Y-256500D01*
X78000Y-206250D02*
X87000D01*
X78000Y-223750D02*
X87000D01*
X87500Y-253250D02*
Y-236750D01*
X77500Y-236750D02*
X87500Y-236750D01*
X77500Y-253250D02*
X87500D01*
X-5500Y-289500D02*
X40500Y-289500D01*
X-5500Y-260500D02*
X40500Y-260500D01*
Y-286750D02*
X40500Y-289500D01*
X-5500Y-286750D02*
X-5500Y-289500D01*
X40500Y-260500D02*
X40500Y-263250D01*
X-5500D02*
Y-260500D01*
X76500Y-283250D02*
X88500D01*
X76500Y-266750D02*
X88500D01*
D12*
X-378000Y-39999D02*
X-238000D01*
X-378000D02*
Y100001D01*
X-238000D01*
Y-39999D02*
Y100001D01*
X-245000Y-295000D02*
Y-290000D01*
X-235000Y-305000D02*
X-230000D01*
X-245000Y-320000D02*
Y-315000D01*
X-260000Y-305000D02*
X-255000D01*
X220000D02*
X225000D01*
X235000Y-320000D02*
Y-315000D01*
X245000Y-305000D02*
X250000D01*
X235000Y-295000D02*
Y-290000D01*
X-15000Y290000D02*
X-10000D01*
X0Y275000D02*
Y280000D01*
X10000Y290000D02*
X15000D01*
X0Y300000D02*
Y305000D01*
X-224460Y295246D02*
Y307242D01*
X-220461Y303243D01*
X-216463Y307242D01*
Y295246D01*
X-212464Y307242D02*
X-208465D01*
X-210464D01*
Y295246D01*
X-212464D01*
X-208465D01*
X-202467Y301244D02*
X-194470D01*
X-190471Y305243D02*
X-188472Y307242D01*
X-184473D01*
X-182474Y305243D01*
Y297245D01*
X-184473Y295246D01*
X-188472D01*
X-190471Y297245D01*
Y305243D01*
X-172477Y295246D02*
Y307242D01*
X-178475Y301244D01*
X-170478D01*
X-112496Y307242D02*
X-116495D01*
X-118494Y305243D01*
Y297245D01*
X-116495Y295246D01*
X-112496D01*
X-110497Y297245D01*
Y305243D01*
X-112496Y307242D01*
X-224460Y274755D02*
Y286751D01*
X-220461Y282752D01*
X-216463Y286751D01*
Y274755D01*
X-212464Y286751D02*
X-208465D01*
X-210464D01*
Y274755D01*
X-212464D01*
X-208465D01*
X-202467Y280753D02*
X-194470D01*
X-190471Y284751D02*
X-188472Y286751D01*
X-184473D01*
X-182474Y284751D01*
Y276754D01*
X-184473Y274755D01*
X-188472D01*
X-190471Y276754D01*
Y284751D01*
X-170478Y286751D02*
X-178475D01*
Y280753D01*
X-174476Y282752D01*
X-172477D01*
X-170478Y280753D01*
Y276754D01*
X-172477Y274755D01*
X-176476D01*
X-178475Y276754D01*
X-112496Y286751D02*
X-116495D01*
X-118494Y284751D01*
Y276754D01*
X-116495Y274755D01*
X-112496D01*
X-110497Y276754D01*
Y284751D01*
X-112496Y286751D01*
X-224460Y254263D02*
Y266259D01*
X-220461Y262261D01*
X-216463Y266259D01*
Y254263D01*
X-212464Y266259D02*
X-208465D01*
X-210464D01*
Y254263D01*
X-212464D01*
X-208465D01*
X-202467Y260261D02*
X-194470D01*
X-190471Y264260D02*
X-188472Y266259D01*
X-184473D01*
X-182474Y264260D01*
Y256263D01*
X-184473Y254263D01*
X-188472D01*
X-190471Y256263D01*
Y264260D01*
X-170478Y266259D02*
X-174476Y264260D01*
X-178475Y260261D01*
Y256263D01*
X-176476Y254263D01*
X-172477D01*
X-170478Y256263D01*
Y258262D01*
X-172477Y260261D01*
X-178475D01*
X-112496Y266259D02*
X-116495D01*
X-118494Y264260D01*
Y256263D01*
X-116495Y254263D01*
X-112496D01*
X-110497Y256263D01*
Y264260D01*
X-112496Y266259D01*
X-224460Y233772D02*
Y245768D01*
X-220461Y241769D01*
X-216463Y245768D01*
Y233772D01*
X-212464Y245768D02*
X-208465D01*
X-210464D01*
Y233772D01*
X-212464D01*
X-208465D01*
X-202467Y239770D02*
X-194470D01*
X-190471Y243769D02*
X-188472Y245768D01*
X-184473D01*
X-182474Y243769D01*
Y235771D01*
X-184473Y233772D01*
X-188472D01*
X-190471Y235771D01*
Y243769D01*
X-178475Y245768D02*
X-170478D01*
Y243769D01*
X-178475Y235771D01*
Y233772D01*
X-166479D02*
X-158481Y241769D01*
X-154483Y243769D02*
X-152483Y245768D01*
X-148485D01*
X-146485Y243769D01*
Y235771D01*
X-148485Y233772D01*
X-152483D01*
X-154483Y235771D01*
Y243769D01*
X-142486D02*
X-140487Y245768D01*
X-136489D01*
X-134489Y243769D01*
Y241769D01*
X-136489Y239770D01*
X-134489Y237771D01*
Y235771D01*
X-136489Y233772D01*
X-140487D01*
X-142486Y235771D01*
Y237771D01*
X-140487Y239770D01*
X-142486Y241769D01*
Y243769D01*
X-140487Y239770D02*
X-136489D01*
X-112496Y245768D02*
X-116495D01*
X-118494Y243769D01*
Y235771D01*
X-116495Y233772D01*
X-112496D01*
X-110497Y235771D01*
Y243769D01*
X-112496Y245768D01*
X-222676Y19772D02*
Y29769D01*
X-217678D01*
X-216012Y28103D01*
Y24770D01*
X-217678Y23104D01*
X-222676D01*
X-212679Y19772D02*
X-209347D01*
X-211013D01*
Y29769D01*
X-212679Y28103D01*
X105360Y-260240D02*
X107026D01*
Y-261906D01*
X105360D01*
Y-260240D01*
X352415Y59331D02*
X350748Y60997D01*
X347416D01*
X345750Y59331D01*
Y57664D01*
X347416Y55998D01*
X350748D01*
X352415Y54332D01*
Y52666D01*
X350748Y51000D01*
X347416D01*
X345750Y52666D01*
X355747Y51000D02*
X359079D01*
X357413D01*
Y60997D01*
X355747Y59331D01*
X-55835Y-267169D02*
X-57502Y-265503D01*
X-60834D01*
X-62500Y-267169D01*
Y-273834D01*
X-60834Y-275500D01*
X-57502D01*
X-55835Y-273834D01*
X-45839Y-265503D02*
X-49171Y-267169D01*
X-52503Y-270502D01*
Y-273834D01*
X-50837Y-275500D01*
X-47505D01*
X-45839Y-273834D01*
Y-272168D01*
X-47505Y-270502D01*
X-52503D01*
X-42506Y-265503D02*
X-35842D01*
X-39174D01*
Y-275500D01*
X75665Y-190669D02*
X73998Y-189003D01*
X70666D01*
X69000Y-190669D01*
Y-197334D01*
X70666Y-199000D01*
X73998D01*
X75665Y-197334D01*
X78997Y-189003D02*
X85661D01*
Y-190669D01*
X78997Y-197334D01*
Y-199000D01*
X88994Y-189003D02*
X95658D01*
X92326D01*
Y-199000D01*
X223169Y74415D02*
X221503Y72748D01*
Y69416D01*
X223169Y67750D01*
X229834D01*
X231500Y69416D01*
Y72748D01*
X229834Y74415D01*
X223169Y77747D02*
X221503Y79413D01*
Y82745D01*
X223169Y84411D01*
X224835D01*
X226502Y82745D01*
X228168Y84411D01*
X229834D01*
X231500Y82745D01*
Y79413D01*
X229834Y77747D01*
X228168D01*
X226502Y79413D01*
X224835Y77747D01*
X223169D01*
X226502Y79413D02*
Y82745D01*
X221503Y87744D02*
Y94408D01*
Y91076D01*
X231500D01*
X156664Y-34169D02*
X154998Y-32503D01*
X151666D01*
X150000Y-34169D01*
Y-40834D01*
X151666Y-42500D01*
X154998D01*
X156664Y-40834D01*
X159997D02*
X161663Y-42500D01*
X164995D01*
X166661Y-40834D01*
Y-34169D01*
X164995Y-32503D01*
X161663D01*
X159997Y-34169D01*
Y-35835D01*
X161663Y-37502D01*
X166661D01*
X169994Y-32503D02*
X176658D01*
X173326D01*
Y-42500D01*
X-269000Y120997D02*
Y111000D01*
X-262335D01*
X-252339D02*
X-259003D01*
X-252339Y117664D01*
Y119331D01*
X-254005Y120997D01*
X-257337D01*
X-259003Y119331D01*
X-249006Y120997D02*
X-242342D01*
X-245674D01*
Y111000D01*
X66000Y-300000D02*
Y-290003D01*
X70998D01*
X72664Y-291669D01*
Y-295002D01*
X70998Y-296668D01*
X66000D01*
X69332D02*
X72664Y-300000D01*
X75997D02*
X79329D01*
X77663D01*
Y-290003D01*
X75997Y-291669D01*
X84327D02*
X85994Y-290003D01*
X89326D01*
X90992Y-291669D01*
Y-293335D01*
X89326Y-295002D01*
X90992Y-296668D01*
Y-298334D01*
X89326Y-300000D01*
X85994D01*
X84327Y-298334D01*
Y-296668D01*
X85994Y-295002D01*
X84327Y-293335D01*
Y-291669D01*
X85994Y-295002D02*
X89326D01*
X94324Y-290003D02*
X100989D01*
X97656D01*
Y-300000D01*
X-360000Y-180000D02*
Y-170003D01*
X-355002D01*
X-353335Y-171669D01*
Y-175002D01*
X-355002Y-176668D01*
X-360000D01*
X-356668D02*
X-353335Y-180000D01*
X-350003D02*
X-346671D01*
X-348337D01*
Y-170003D01*
X-350003Y-171669D01*
X-341673Y-178334D02*
X-340006Y-180000D01*
X-336674D01*
X-335008Y-178334D01*
Y-171669D01*
X-336674Y-170003D01*
X-340006D01*
X-341673Y-171669D01*
Y-173335D01*
X-340006Y-175002D01*
X-335008D01*
X-331676Y-170003D02*
X-325011D01*
X-328344D01*
Y-180000D01*
X281000Y-279000D02*
X271003D01*
Y-274002D01*
X272669Y-272335D01*
X276002D01*
X277668Y-274002D01*
Y-279000D01*
Y-275668D02*
X281000Y-272335D01*
Y-262339D02*
Y-269003D01*
X274335Y-262339D01*
X272669D01*
X271003Y-264005D01*
Y-267337D01*
X272669Y-269003D01*
Y-259006D02*
X271003Y-257340D01*
Y-254008D01*
X272669Y-252342D01*
X279334D01*
X281000Y-254008D01*
Y-257340D01*
X279334Y-259006D01*
X272669D01*
X271003Y-249010D02*
Y-242345D01*
Y-245677D01*
X281000D01*
X212500Y-277500D02*
X202503D01*
Y-272502D01*
X204169Y-270835D01*
X207502D01*
X209168Y-272502D01*
Y-277500D01*
Y-274168D02*
X212500Y-270835D01*
Y-260839D02*
Y-267503D01*
X205835Y-260839D01*
X204169D01*
X202503Y-262505D01*
Y-265837D01*
X204169Y-267503D01*
X212500Y-257506D02*
Y-254174D01*
Y-255840D01*
X202503D01*
X204169Y-257506D01*
X202503Y-249176D02*
Y-242511D01*
Y-245844D01*
X212500D01*
X139500Y-15000D02*
Y-5003D01*
X144498D01*
X146165Y-6669D01*
Y-10002D01*
X144498Y-11668D01*
X139500D01*
X142832D02*
X146165Y-15000D01*
X156161D02*
X149497D01*
X156161Y-8335D01*
Y-6669D01*
X154495Y-5003D01*
X151163D01*
X149497Y-6669D01*
X166158Y-15000D02*
X159494D01*
X166158Y-8335D01*
Y-6669D01*
X164492Y-5003D01*
X161160D01*
X159494Y-6669D01*
X169490Y-5003D02*
X176155D01*
X172823D01*
Y-15000D01*
X303000Y129000D02*
X293003D01*
Y133998D01*
X294669Y135665D01*
X298002D01*
X299668Y133998D01*
Y129000D01*
Y132332D02*
X303000Y135665D01*
Y145661D02*
Y138997D01*
X296336Y145661D01*
X294669D01*
X293003Y143995D01*
Y140663D01*
X294669Y138997D01*
Y148994D02*
X293003Y150660D01*
Y153992D01*
X294669Y155658D01*
X296336D01*
X298002Y153992D01*
Y152326D01*
Y153992D01*
X299668Y155658D01*
X301334D01*
X303000Y153992D01*
Y150660D01*
X301334Y148994D01*
X293003Y158990D02*
Y165655D01*
Y162323D01*
X303000D01*
X140000Y12500D02*
Y22497D01*
X144998D01*
X146664Y20831D01*
Y17498D01*
X144998Y15832D01*
X140000D01*
X143332D02*
X146664Y12500D01*
X156661D02*
X149997D01*
X156661Y19165D01*
Y20831D01*
X154995Y22497D01*
X151663D01*
X149997Y20831D01*
X164992Y12500D02*
Y22497D01*
X159994Y17498D01*
X166658D01*
X169990Y22497D02*
X176655D01*
X173323D01*
Y12500D01*
X-239000Y-231000D02*
X-248997D01*
Y-226002D01*
X-247331Y-224335D01*
X-243998D01*
X-242332Y-226002D01*
Y-231000D01*
Y-227668D02*
X-239000Y-224335D01*
Y-214339D02*
Y-221003D01*
X-245665Y-214339D01*
X-247331D01*
X-248997Y-216005D01*
Y-219337D01*
X-247331Y-221003D01*
X-248997Y-204342D02*
Y-211006D01*
X-243998D01*
X-245665Y-207674D01*
Y-206008D01*
X-243998Y-204342D01*
X-240666D01*
X-239000Y-206008D01*
Y-209340D01*
X-240666Y-211006D01*
X-248997Y-201010D02*
Y-194345D01*
Y-197677D01*
X-239000D01*
X247250Y35250D02*
Y45247D01*
X252248D01*
X253915Y43581D01*
Y40248D01*
X252248Y38582D01*
X247250D01*
X250582D02*
X253915Y35250D01*
X263911D02*
X257247D01*
X263911Y41915D01*
Y43581D01*
X262245Y45247D01*
X258913D01*
X257247Y43581D01*
X273908Y45247D02*
X270576Y43581D01*
X267244Y40248D01*
Y36916D01*
X268910Y35250D01*
X272242D01*
X273908Y36916D01*
Y38582D01*
X272242Y40248D01*
X267244D01*
X277240Y45247D02*
X283905D01*
X280573D01*
Y35250D01*
X255000Y-210000D02*
Y-200003D01*
X259998D01*
X261665Y-201669D01*
Y-205002D01*
X259998Y-206668D01*
X255000D01*
X258332D02*
X261665Y-210000D01*
X271661D02*
X264997D01*
X271661Y-203335D01*
Y-201669D01*
X269995Y-200003D01*
X266663D01*
X264997Y-201669D01*
X274994Y-200003D02*
X281658D01*
Y-201669D01*
X274994Y-208334D01*
Y-210000D01*
X284990Y-200003D02*
X291655D01*
X288323D01*
Y-210000D01*
X228250Y-120250D02*
X218253D01*
Y-115252D01*
X219919Y-113586D01*
X223252D01*
X224918Y-115252D01*
Y-120250D01*
Y-116918D02*
X228250Y-113586D01*
Y-103589D02*
Y-110253D01*
X221586Y-103589D01*
X219919D01*
X218253Y-105255D01*
Y-108587D01*
X219919Y-110253D01*
Y-100256D02*
X218253Y-98590D01*
Y-95258D01*
X219919Y-93592D01*
X221586D01*
X223252Y-95258D01*
X224918Y-93592D01*
X226584D01*
X228250Y-95258D01*
Y-98590D01*
X226584Y-100256D01*
X224918D01*
X223252Y-98590D01*
X221586Y-100256D01*
X219919D01*
X223252Y-98590D02*
Y-95258D01*
X218253Y-90260D02*
Y-83595D01*
Y-86927D01*
X228250D01*
X309750Y-63000D02*
Y-53003D01*
X314748D01*
X316415Y-54669D01*
Y-58002D01*
X314748Y-59668D01*
X309750D01*
X313082D02*
X316415Y-63000D01*
X326411D02*
X319747D01*
X326411Y-56336D01*
Y-54669D01*
X324745Y-53003D01*
X321413D01*
X319747Y-54669D01*
X329744Y-61334D02*
X331410Y-63000D01*
X334742D01*
X336408Y-61334D01*
Y-54669D01*
X334742Y-53003D01*
X331410D01*
X329744Y-54669D01*
Y-56336D01*
X331410Y-58002D01*
X336408D01*
X339740Y-53003D02*
X346405D01*
X343073D01*
Y-63000D01*
X-170000Y-259000D02*
Y-249003D01*
X-165002D01*
X-163335Y-250669D01*
Y-254002D01*
X-165002Y-255668D01*
X-170000D01*
X-166668D02*
X-163335Y-259000D01*
X-160003Y-250669D02*
X-158337Y-249003D01*
X-155005D01*
X-153339Y-250669D01*
Y-252335D01*
X-155005Y-254002D01*
X-156671D01*
X-155005D01*
X-153339Y-255668D01*
Y-257334D01*
X-155005Y-259000D01*
X-158337D01*
X-160003Y-257334D01*
X-150006Y-250669D02*
X-148340Y-249003D01*
X-145008D01*
X-143342Y-250669D01*
Y-257334D01*
X-145008Y-259000D01*
X-148340D01*
X-150006Y-257334D01*
Y-250669D01*
X-140010Y-249003D02*
X-133345D01*
X-136677D01*
Y-259000D01*
X280000Y129000D02*
X270003D01*
Y133998D01*
X271669Y135665D01*
X275002D01*
X276668Y133998D01*
Y129000D01*
Y132332D02*
X280000Y135665D01*
X271669Y138997D02*
X270003Y140663D01*
Y143995D01*
X271669Y145661D01*
X273335D01*
X275002Y143995D01*
Y142329D01*
Y143995D01*
X276668Y145661D01*
X278334D01*
X280000Y143995D01*
Y140663D01*
X278334Y138997D01*
X280000Y148994D02*
Y152326D01*
Y150660D01*
X270003D01*
X271669Y148994D01*
X270003Y157324D02*
Y163989D01*
Y160656D01*
X280000D01*
X335000Y130000D02*
X325003D01*
Y134998D01*
X326669Y136664D01*
X330002D01*
X331668Y134998D01*
Y130000D01*
Y133332D02*
X335000Y136664D01*
X326669Y139997D02*
X325003Y141663D01*
Y144995D01*
X326669Y146661D01*
X328335D01*
X330002Y144995D01*
Y143329D01*
Y144995D01*
X331668Y146661D01*
X333334D01*
X335000Y144995D01*
Y141663D01*
X333334Y139997D01*
X335000Y156658D02*
Y149994D01*
X328335Y156658D01*
X326669D01*
X325003Y154992D01*
Y151660D01*
X326669Y149994D01*
X325003Y159990D02*
Y166655D01*
Y163323D01*
X335000D01*
X108500Y-149000D02*
Y-139003D01*
X113498D01*
X115164Y-140669D01*
Y-144002D01*
X113498Y-145668D01*
X108500D01*
X111832D02*
X115164Y-149000D01*
X118497Y-140669D02*
X120163Y-139003D01*
X123495D01*
X125161Y-140669D01*
Y-142336D01*
X123495Y-144002D01*
X121829D01*
X123495D01*
X125161Y-145668D01*
Y-147334D01*
X123495Y-149000D01*
X120163D01*
X118497Y-147334D01*
X128494Y-140669D02*
X130160Y-139003D01*
X133492D01*
X135158Y-140669D01*
Y-142336D01*
X133492Y-144002D01*
X131826D01*
X133492D01*
X135158Y-145668D01*
Y-147334D01*
X133492Y-149000D01*
X130160D01*
X128494Y-147334D01*
X138490Y-139003D02*
X145155D01*
X141823D01*
Y-149000D01*
X-110000Y-141000D02*
X-119997D01*
Y-136002D01*
X-118331Y-134335D01*
X-114998D01*
X-113332Y-136002D01*
Y-141000D01*
Y-137668D02*
X-110000Y-134335D01*
X-118331Y-131003D02*
X-119997Y-129337D01*
Y-126005D01*
X-118331Y-124339D01*
X-116664D01*
X-114998Y-126005D01*
Y-127671D01*
Y-126005D01*
X-113332Y-124339D01*
X-111666D01*
X-110000Y-126005D01*
Y-129337D01*
X-111666Y-131003D01*
X-110000Y-116008D02*
X-119997D01*
X-114998Y-121006D01*
Y-114342D01*
X-119997Y-111010D02*
Y-104345D01*
Y-107677D01*
X-110000D01*
X-88000Y-141000D02*
X-97997D01*
Y-136002D01*
X-96331Y-134335D01*
X-92998D01*
X-91332Y-136002D01*
Y-141000D01*
Y-137668D02*
X-88000Y-134335D01*
X-96331Y-131003D02*
X-97997Y-129337D01*
Y-126005D01*
X-96331Y-124339D01*
X-94664D01*
X-92998Y-126005D01*
Y-127671D01*
Y-126005D01*
X-91332Y-124339D01*
X-89666D01*
X-88000Y-126005D01*
Y-129337D01*
X-89666Y-131003D01*
X-97997Y-114342D02*
Y-121006D01*
X-92998D01*
X-94664Y-117674D01*
Y-116008D01*
X-92998Y-114342D01*
X-89666D01*
X-88000Y-116008D01*
Y-119340D01*
X-89666Y-121006D01*
X-97997Y-111010D02*
Y-104345D01*
Y-107677D01*
X-88000D01*
X-63000Y-140000D02*
X-72997D01*
Y-135002D01*
X-71331Y-133336D01*
X-67998D01*
X-66332Y-135002D01*
Y-140000D01*
Y-136668D02*
X-63000Y-133336D01*
X-71331Y-130003D02*
X-72997Y-128337D01*
Y-125005D01*
X-71331Y-123339D01*
X-69665D01*
X-67998Y-125005D01*
Y-126671D01*
Y-125005D01*
X-66332Y-123339D01*
X-64666D01*
X-63000Y-125005D01*
Y-128337D01*
X-64666Y-130003D01*
X-72997Y-113342D02*
X-71331Y-116674D01*
X-67998Y-120006D01*
X-64666D01*
X-63000Y-118340D01*
Y-115008D01*
X-64666Y-113342D01*
X-66332D01*
X-67998Y-115008D01*
Y-120006D01*
X-72997Y-110010D02*
Y-103345D01*
Y-106677D01*
X-63000D01*
X239750Y-60500D02*
Y-50503D01*
X244748D01*
X246415Y-52169D01*
Y-55502D01*
X244748Y-57168D01*
X239750D01*
X243082D02*
X246415Y-60500D01*
X249747Y-52169D02*
X251413Y-50503D01*
X254745D01*
X256411Y-52169D01*
Y-53836D01*
X254745Y-55502D01*
X253079D01*
X254745D01*
X256411Y-57168D01*
Y-58834D01*
X254745Y-60500D01*
X251413D01*
X249747Y-58834D01*
X259743Y-50503D02*
X266408D01*
Y-52169D01*
X259743Y-58834D01*
Y-60500D01*
X269740Y-50503D02*
X276405D01*
X273073D01*
Y-60500D01*
X-117000Y-238000D02*
Y-228003D01*
X-112002D01*
X-110336Y-229669D01*
Y-233002D01*
X-112002Y-234668D01*
X-117000D01*
X-113668D02*
X-110336Y-238000D01*
X-107003Y-229669D02*
X-105337Y-228003D01*
X-102005D01*
X-100339Y-229669D01*
Y-231336D01*
X-102005Y-233002D01*
X-103671D01*
X-102005D01*
X-100339Y-234668D01*
Y-236334D01*
X-102005Y-238000D01*
X-105337D01*
X-107003Y-236334D01*
X-97006Y-229669D02*
X-95340Y-228003D01*
X-92008D01*
X-90342Y-229669D01*
Y-231336D01*
X-92008Y-233002D01*
X-90342Y-234668D01*
Y-236334D01*
X-92008Y-238000D01*
X-95340D01*
X-97006Y-236334D01*
Y-234668D01*
X-95340Y-233002D01*
X-97006Y-231336D01*
Y-229669D01*
X-95340Y-233002D02*
X-92008D01*
X-87010Y-228003D02*
X-80345D01*
X-83677D01*
Y-238000D01*
X-5500Y-241253D02*
Y-247918D01*
X-2168Y-251250D01*
X1164Y-247918D01*
Y-241253D01*
X4497D02*
Y-251250D01*
X9495D01*
X11161Y-249584D01*
Y-242919D01*
X9495Y-241253D01*
X4497D01*
X14494Y-251250D02*
X17826D01*
X16160D01*
Y-241253D01*
X14494Y-242919D01*
X29489Y-251250D02*
X22824D01*
X29489Y-244585D01*
Y-242919D01*
X27823Y-241253D01*
X24490D01*
X22824Y-242919D01*
X32821Y-241253D02*
X39485D01*
X36153D01*
Y-251250D01*
X-236997Y143000D02*
X-230332D01*
X-227000Y146332D01*
X-230332Y149664D01*
X-236997D01*
Y152997D02*
X-227000D01*
Y157995D01*
X-228666Y159661D01*
X-235331D01*
X-236997Y157995D01*
Y152997D01*
X-227000Y162994D02*
Y166326D01*
Y164660D01*
X-236997D01*
X-235331Y162994D01*
Y171324D02*
X-236997Y172990D01*
Y176323D01*
X-235331Y177989D01*
X-233664D01*
X-231998Y176323D01*
Y174656D01*
Y176323D01*
X-230332Y177989D01*
X-228666D01*
X-227000Y176323D01*
Y172990D01*
X-228666Y171324D01*
X-236997Y181321D02*
Y187985D01*
Y184653D01*
X-227000D01*
X110000Y-226003D02*
Y-232668D01*
X113332Y-236000D01*
X116664Y-232668D01*
Y-226003D01*
X119997D02*
Y-236000D01*
X124995D01*
X126661Y-234334D01*
Y-227669D01*
X124995Y-226003D01*
X119997D01*
X129994Y-236000D02*
X133326D01*
X131660D01*
Y-226003D01*
X129994Y-227669D01*
X144989Y-226003D02*
X141657Y-227669D01*
X138324Y-231002D01*
Y-234334D01*
X139990Y-236000D01*
X143323D01*
X144989Y-234334D01*
Y-232668D01*
X143323Y-231002D01*
X138324D01*
X148321Y-226003D02*
X154986D01*
X151653D01*
Y-236000D01*
X217250Y180997D02*
Y174332D01*
X220582Y171000D01*
X223915Y174332D01*
Y180997D01*
X227247D02*
Y171000D01*
X232245D01*
X233911Y172666D01*
Y179331D01*
X232245Y180997D01*
X227247D01*
X243908Y171000D02*
X237244D01*
X243908Y177665D01*
Y179331D01*
X242242Y180997D01*
X238910D01*
X237244Y179331D01*
X247240Y171000D02*
X250573D01*
X248906D01*
Y180997D01*
X247240Y179331D01*
X255571Y180997D02*
X262236D01*
X258903D01*
Y171000D01*
X315003Y-143000D02*
X321668D01*
X325000Y-139668D01*
X321668Y-136335D01*
X315003D01*
Y-133003D02*
X325000D01*
Y-128005D01*
X323334Y-126339D01*
X316669D01*
X315003Y-128005D01*
Y-133003D01*
X325000Y-116342D02*
Y-123006D01*
X318335Y-116342D01*
X316669D01*
X315003Y-118008D01*
Y-121340D01*
X316669Y-123006D01*
X325000Y-106345D02*
Y-113010D01*
X318335Y-106345D01*
X316669D01*
X315003Y-108011D01*
Y-111343D01*
X316669Y-113010D01*
X315003Y-103013D02*
Y-96348D01*
Y-99681D01*
X325000D01*
X-242747Y-115250D02*
X-236082D01*
X-232750Y-111918D01*
X-236082Y-108586D01*
X-242747D01*
Y-105253D02*
Y-98589D01*
Y-101921D01*
X-232750D01*
X-242747Y-88592D02*
X-241081Y-91924D01*
X-237748Y-95257D01*
X-234416D01*
X-232750Y-93590D01*
Y-90258D01*
X-234416Y-88592D01*
X-236082D01*
X-237748Y-90258D01*
Y-95257D01*
X-242747Y-85260D02*
Y-78595D01*
Y-81927D01*
X-232750D01*
X-322500Y-235003D02*
Y-241668D01*
X-319168Y-245000D01*
X-315835Y-241668D01*
Y-235003D01*
X-312503D02*
X-305839D01*
X-309171D01*
Y-245000D01*
X-302506Y-235003D02*
X-295842D01*
Y-236669D01*
X-302506Y-243334D01*
Y-245000D01*
X-292510Y-235003D02*
X-285845D01*
X-289177D01*
Y-245000D01*
X339003Y-197000D02*
X345668D01*
X349000Y-193668D01*
X345668Y-190336D01*
X339003D01*
Y-187003D02*
Y-180339D01*
Y-183671D01*
X349000D01*
X340669Y-177006D02*
X339003Y-175340D01*
Y-172008D01*
X340669Y-170342D01*
X342336D01*
X344002Y-172008D01*
X345668Y-170342D01*
X347334D01*
X349000Y-172008D01*
Y-175340D01*
X347334Y-177006D01*
X345668D01*
X344002Y-175340D01*
X342336Y-177006D01*
X340669D01*
X344002Y-175340D02*
Y-172008D01*
X339003Y-167010D02*
Y-160345D01*
Y-163677D01*
X349000D01*
X266250Y-34753D02*
Y-41418D01*
X269582Y-44750D01*
X272915Y-41418D01*
Y-34753D01*
X276247D02*
X282911D01*
X279579D01*
Y-44750D01*
X286243Y-43084D02*
X287910Y-44750D01*
X291242D01*
X292908Y-43084D01*
Y-36419D01*
X291242Y-34753D01*
X287910D01*
X286243Y-36419D01*
Y-38085D01*
X287910Y-39752D01*
X292908D01*
X296240Y-34753D02*
X302905D01*
X299573D01*
Y-44750D01*
X-240250Y-254253D02*
Y-260918D01*
X-236918Y-264250D01*
X-233585Y-260918D01*
Y-254253D01*
X-230253D02*
X-223589D01*
X-226921D01*
Y-264250D01*
X-220256D02*
X-216924D01*
X-218590D01*
Y-254253D01*
X-220256Y-255919D01*
X-211926D02*
X-210260Y-254253D01*
X-206927D01*
X-205261Y-255919D01*
Y-262584D01*
X-206927Y-264250D01*
X-210260D01*
X-211926Y-262584D01*
Y-255919D01*
X-201929Y-254253D02*
X-195264D01*
X-198597D01*
Y-264250D01*
X211003Y-191000D02*
X217668D01*
X221000Y-187668D01*
X217668Y-184335D01*
X211003D01*
Y-181003D02*
Y-174339D01*
Y-177671D01*
X221000D01*
Y-171006D02*
Y-167674D01*
Y-169340D01*
X211003D01*
X212669Y-171006D01*
X221000Y-162676D02*
Y-159344D01*
Y-161010D01*
X211003D01*
X212669Y-162676D01*
X211003Y-154345D02*
Y-147681D01*
Y-151013D01*
X221000D01*
X338003Y-34000D02*
X344668D01*
X348000Y-30668D01*
X344668Y-27336D01*
X338003D01*
Y-24003D02*
Y-17339D01*
Y-20671D01*
X348000D01*
Y-14006D02*
Y-10674D01*
Y-12340D01*
X338003D01*
X339669Y-14006D01*
X348000Y989D02*
Y-5676D01*
X341335Y989D01*
X339669D01*
X338003Y-677D01*
Y-4010D01*
X339669Y-5676D01*
X338003Y4321D02*
Y10985D01*
Y7653D01*
X348000D01*
D13*
X-318750Y-75750D02*
X-318750Y-113250D01*
X-318750Y-75750D02*
X-311250D01*
X-261250D02*
X-253750Y-75750D01*
X-253750Y-113250D02*
X-253750Y-75750D01*
D14*
X98000Y308000D02*
X102998D01*
X100499D01*
Y322995D01*
X98000Y320496D01*
X127997Y308000D02*
X118000D01*
X127997Y317997D01*
Y320496D01*
X125498Y322995D01*
X120499D01*
X118000Y320496D01*
X143000D02*
X145499Y322995D01*
X150498D01*
X152997Y320496D01*
Y317997D01*
X150498Y315498D01*
X147998D01*
X150498D01*
X152997Y312998D01*
Y310499D01*
X150498Y308000D01*
X145499D01*
X143000Y310499D01*
D15*
X84750Y-244998D02*
D03*
M02*
