G04*
G04 #@! TF.GenerationSoftware,Altium Limited,Altium Designer,19.1.9 (167)*
G04*
G04 Layer_Color=128*
%FSLAX44Y44*%
%MOMM*%
G71*
G01*
G75*
%ADD105C,0.0508*%
D105*
X-299576Y-239308D02*
X-290576D01*
X-295076Y-243808D02*
Y-234809D01*
X-256576Y-281308D02*
X-247576D01*
X-252076Y-285809D02*
Y-276808D01*
X-284500Y230000D02*
X-275500D01*
X-280000Y225500D02*
Y234500D01*
X-239500Y273000D02*
X-230500D01*
X-235000Y268500D02*
Y277500D01*
X88500Y287000D02*
X97500D01*
X93000Y282500D02*
Y291500D01*
X168500Y287000D02*
X177500D01*
X173000Y282500D02*
Y291500D01*
X-8750Y-178000D02*
X8750D01*
X0Y-186750D02*
Y-169250D01*
X145500Y-88750D02*
X163000D01*
X154250Y-97500D02*
Y-80000D01*
X145250Y89250D02*
X162750D01*
X154000Y80500D02*
Y98000D01*
X-8500Y178000D02*
X9000D01*
X250Y169250D02*
Y186750D01*
X-162831Y89412D02*
X-145331D01*
X-154081Y80662D02*
Y98162D01*
X-163000Y-89250D02*
X-145500D01*
X-154250Y-98000D02*
Y-80500D01*
X-113500Y-259350D02*
X-109500D01*
X-111500Y-261350D02*
Y-257350D01*
X-125500Y-259350D02*
X-121500D01*
X-123500Y-261350D02*
Y-257350D01*
X-119500Y-267350D02*
X-115500D01*
X-117500Y-269350D02*
Y-265350D01*
X-113500Y-275350D02*
X-109500D01*
X-111500Y-277350D02*
Y-273350D01*
X-125500Y-275350D02*
X-121500D01*
X-123500Y-277350D02*
Y-273350D01*
X-119500Y-282350D02*
X-115500D01*
X-117500Y-284350D02*
Y-280350D01*
X-113500Y-289350D02*
X-109500D01*
X-111500Y-291350D02*
Y-287350D01*
X-125500Y-289350D02*
X-121500D01*
X-123500Y-291350D02*
Y-287350D01*
X-198250Y-110000D02*
X-180750D01*
X-189500Y-118750D02*
Y-101250D01*
X-8500Y-218250D02*
X9000D01*
X250Y-227000D02*
Y-209500D01*
X180000Y-109250D02*
X197500D01*
X188750Y-118000D02*
Y-100500D01*
X178500Y108750D02*
X196000D01*
X187250Y100000D02*
Y117500D01*
X-8750Y218500D02*
X8750D01*
X0Y209750D02*
Y227250D01*
X-196750Y108500D02*
X-179250D01*
X-188000Y99750D02*
Y117250D01*
X89000Y56000D02*
X106500D01*
X97750Y47250D02*
Y64750D01*
X88678Y-56250D02*
X106178D01*
X97428Y-65000D02*
Y-47500D01*
X-8750Y-112250D02*
X8750D01*
X0Y-121000D02*
Y-103500D01*
X-106000Y-56147D02*
X-88500D01*
X-97250Y-64897D02*
Y-47397D01*
X-106250Y56500D02*
X-88750D01*
X-97500Y47750D02*
Y65250D01*
X-8750Y112500D02*
X8750D01*
X0Y103750D02*
Y121250D01*
X173500Y-180000D02*
X206500D01*
X190000Y-196500D02*
Y-163500D01*
X343500Y-140000D02*
X376500D01*
X360000Y-156500D02*
Y-123500D01*
X343500Y140000D02*
X376500D01*
X360000Y123500D02*
Y156500D01*
X173500Y180000D02*
X206500D01*
X190000Y163500D02*
Y196500D01*
X-206500Y-180000D02*
X-173500D01*
X-190000Y-196500D02*
Y-163500D01*
X-376500Y-140000D02*
X-343500D01*
X-360000Y-156500D02*
Y-123500D01*
X-376500Y140000D02*
X-343500D01*
X-360000Y123500D02*
Y156500D01*
X-75000Y0D02*
X75000D01*
X0Y-75000D02*
Y75000D01*
X122500Y-255000D02*
X137500D01*
X130000Y-262500D02*
Y-247500D01*
X172500Y-255000D02*
X187500D01*
X180000Y-262500D02*
Y-247500D01*
X338500Y33000D02*
X353500D01*
X346000Y25500D02*
Y40500D01*
X338500Y78000D02*
X353500D01*
X346000Y70500D02*
Y85500D01*
X-206500Y180000D02*
X-173500D01*
X-190000Y163500D02*
Y196500D01*
X-139500Y273500D02*
X-134500D01*
X-137000Y271000D02*
Y276000D01*
X-138750Y211000D02*
X-133750D01*
X-136250Y208500D02*
Y213500D01*
X288500Y153000D02*
X293500D01*
X291000Y150500D02*
Y155500D01*
X266500Y-95000D02*
X271500D01*
X269000Y-97500D02*
Y-92500D01*
X127500Y-135000D02*
X132500D01*
X130000Y-137500D02*
Y-132500D01*
X78500Y-156000D02*
X83500D01*
X81000Y-158500D02*
Y-153500D01*
X79500Y-231000D02*
X84500D01*
X82000Y-233500D02*
Y-228500D01*
X130500Y-211000D02*
X135500D01*
X133000Y-213500D02*
Y-208500D01*
X377500Y-112000D02*
X382500D01*
X380000Y-114500D02*
Y-109500D01*
X357500Y-67000D02*
X362500D01*
X360000Y-69500D02*
Y-64500D01*
X209500Y114000D02*
X214500D01*
X212000Y111500D02*
Y116500D01*
X269500Y135000D02*
X274500D01*
X272000Y132500D02*
Y137500D01*
X276500Y206000D02*
X281500D01*
X279000Y203500D02*
Y208500D01*
X333500Y172000D02*
X338500D01*
X336000Y169500D02*
Y174500D01*
X299500Y133000D02*
X304500D01*
X302000Y130500D02*
Y135500D01*
X-178500Y-25000D02*
X-173500D01*
X-176000Y-27500D02*
Y-22500D01*
X68500Y-98000D02*
X73500D01*
X71000Y-100500D02*
Y-95500D01*
X113500Y1000D02*
X118500D01*
X116000Y-1500D02*
Y3500D01*
X72500Y122000D02*
X77500D01*
X75000Y119500D02*
Y124500D01*
X-235500Y233000D02*
X-230500D01*
X-233000Y230500D02*
Y235500D01*
X-352500Y-218000D02*
X-347500D01*
X-350000Y-220500D02*
Y-215500D01*
X-295500Y-271000D02*
X-290500D01*
X-293000Y-273500D02*
Y-268500D01*
X-272500Y-299000D02*
X-267500D01*
X-270000Y-301500D02*
Y-296500D01*
X-256500Y-241000D02*
X-251500D01*
X-254000Y-243500D02*
Y-238500D01*
X-301500Y-181000D02*
X-296500D01*
X-299000Y-183500D02*
Y-178500D01*
X-241500Y-176000D02*
X-236500D01*
X-239000Y-178500D02*
Y-173500D01*
X-219500Y-147000D02*
X-214500D01*
X-217000Y-149500D02*
Y-144500D01*
X-144500Y-136000D02*
X-139500D01*
X-142000Y-138500D02*
Y-133500D01*
X-69500Y-215000D02*
X-64500D01*
X-67000Y-217500D02*
Y-212500D01*
X-100500Y-198000D02*
X-95500D01*
X-98000Y-200500D02*
Y-195500D01*
X-136500Y-198000D02*
X-131500D01*
X-134000Y-200500D02*
Y-195500D01*
X-185500Y-240000D02*
X-180500D01*
X-183000Y-242500D02*
Y-237500D01*
X-176500Y-274000D02*
X-171500D01*
X-174000Y-276500D02*
Y-271500D01*
X-176500Y-305000D02*
X-171500D01*
X-174000Y-307500D02*
Y-302500D01*
X-65500Y-289000D02*
X-60500D01*
X-63000Y-291500D02*
Y-286500D01*
X44500Y-231000D02*
X49500D01*
X47000Y-233500D02*
Y-228500D01*
X-28500Y-267000D02*
X-23500D01*
X-26000Y-269500D02*
Y-264500D01*
X-12500Y-305000D02*
X-7500D01*
X-10000Y-307500D02*
Y-302500D01*
X-31500Y-305000D02*
X-26500D01*
X-29000Y-307500D02*
Y-302500D01*
X44500Y-317000D02*
X49500D01*
X47000Y-319500D02*
Y-314500D01*
X152500Y-303000D02*
X157500D01*
X155000Y-305500D02*
Y-300500D01*
X205500Y-300000D02*
X210500D01*
X208000Y-302500D02*
Y-297500D01*
X236500Y-264000D02*
X241500D01*
X239000Y-266500D02*
Y-261500D01*
X334500Y-233000D02*
X339500D01*
X337000Y-235500D02*
Y-230500D01*
X367500Y-179000D02*
X372500D01*
X370000Y-181500D02*
Y-176500D01*
X297500Y-153000D02*
X302500D01*
X300000Y-155500D02*
Y-150500D01*
X273500Y-208000D02*
X278500D01*
X276000Y-210500D02*
Y-205500D01*
X156500Y-150000D02*
X161500D01*
X159000Y-152500D02*
Y-147500D01*
X219500Y-128000D02*
X224500D01*
X222000Y-130500D02*
Y-125500D01*
X193500Y-135000D02*
X198500D01*
X196000Y-137500D02*
Y-132500D01*
X255500Y-40000D02*
X260500D01*
X258000Y-42500D02*
Y-37500D01*
X210500Y-62000D02*
X215500D01*
X213000Y-64500D02*
Y-59500D01*
X357500Y-43000D02*
X362500D01*
X360000Y-45500D02*
Y-40500D01*
X355500Y12000D02*
X360500D01*
X358000Y9500D02*
Y14500D01*
X262500Y-8000D02*
X267500D01*
X265000Y-10500D02*
Y-5500D01*
X232500Y-2000D02*
X237500D01*
X235000Y-4500D02*
Y500D01*
X240500Y71000D02*
X245500D01*
X243000Y68500D02*
Y73500D01*
X148500Y181000D02*
X153500D01*
X151000Y178500D02*
Y183500D01*
X92500Y161000D02*
X97500D01*
X95000Y158500D02*
Y163500D01*
X320500Y215000D02*
X325500D01*
X323000Y212500D02*
Y217500D01*
X186500Y321000D02*
X191500D01*
X189000Y318500D02*
Y323500D01*
X230500Y283000D02*
X235500D01*
X233000Y280500D02*
Y285500D01*
X-74500Y291000D02*
X-69500D01*
X-72000Y288500D02*
Y293500D01*
X-12500Y321000D02*
X-7500D01*
X-10000Y318500D02*
Y323500D01*
X117500Y265000D02*
X122500D01*
X120000Y262500D02*
Y267500D01*
X119500Y318000D02*
X124500D01*
X122000Y315500D02*
Y320500D01*
X28500Y273000D02*
X33500D01*
X31000Y270500D02*
Y275500D01*
X-128500Y310000D02*
X-123500D01*
X-126000Y307500D02*
Y312500D01*
X-199500Y307000D02*
X-194500D01*
X-197000Y304500D02*
Y309500D01*
X-177500Y229000D02*
X-172500D01*
X-175000Y226500D02*
Y231500D01*
X-49500Y198000D02*
X-44500D01*
X-47000Y195500D02*
Y200500D01*
X-131500Y180000D02*
X-126500D01*
X-129000Y177500D02*
Y182500D01*
X-219500Y127000D02*
X-214500D01*
X-217000Y124500D02*
Y129500D01*
X-105500Y118000D02*
X-100500D01*
X-103000Y115500D02*
Y120500D01*
X-57500Y99000D02*
X-52500D01*
X-55000Y96500D02*
Y101500D01*
X-159500Y36000D02*
X-154500D01*
X-157000Y33500D02*
Y38500D01*
X-221500Y-29000D02*
X-216500D01*
X-219000Y-31500D02*
Y-26500D01*
X-233500Y-95000D02*
X-228500D01*
X-231000Y-97500D02*
Y-92500D01*
X-301500Y-157000D02*
X-296500D01*
X-299000Y-159500D02*
Y-154500D01*
X-364500Y-189000D02*
X-359500D01*
X-362000Y-191500D02*
Y-186500D01*
X-378500Y-100000D02*
X-373500D01*
X-376000Y-102500D02*
Y-97500D01*
X-366500Y-53000D02*
X-361500D01*
X-364000Y-55500D02*
Y-50500D01*
X-288500Y114000D02*
X-283500D01*
X-286000Y111500D02*
Y116500D01*
X-331500Y166000D02*
X-326500D01*
X-329000Y163500D02*
Y168500D01*
X-311500Y197000D02*
X-306500D01*
X-309000Y194500D02*
Y199500D01*
X-307000Y-8500D02*
X-297000D01*
X-302000Y-13500D02*
Y-3500D01*
X353500Y-10000D02*
X358500D01*
X356000Y-12500D02*
Y-7500D01*
X339500Y-25000D02*
X344500D01*
X342000Y-27500D02*
Y-22500D01*
X-361000Y51000D02*
X-351000D01*
X-356000Y46000D02*
Y56000D01*
X-147500Y-166000D02*
X-142500D01*
X-145000Y-168500D02*
Y-163500D01*
X-118000Y-150500D02*
X-113000D01*
X-115500Y-153000D02*
Y-148000D01*
X115500Y229000D02*
X120500D01*
X118000Y226500D02*
Y231500D01*
X322500Y66000D02*
X327500D01*
X325000Y63500D02*
Y68500D01*
X-237556Y201500D02*
X-230444D01*
X-234000Y197944D02*
Y205056D01*
X-21556Y-135250D02*
X-14444D01*
X-18000Y-138806D02*
Y-131694D01*
X262500Y-116000D02*
X267500D01*
X265000Y-118500D02*
Y-113500D01*
X280500Y62000D02*
X285500D01*
X283000Y59500D02*
Y64500D01*
X295500Y18000D02*
X300500D01*
X298000Y15500D02*
Y20500D01*
X149444Y-26000D02*
X156556D01*
X153000Y-29556D02*
Y-22444D01*
X206500Y139000D02*
X211500D01*
X209000Y136500D02*
Y141500D01*
X14444Y135500D02*
X21556D01*
X18000Y131944D02*
Y139056D01*
X-76500Y-109500D02*
X-71500D01*
X-74000Y-112000D02*
Y-107000D01*
X-166062Y-115098D02*
X-161062D01*
X-163562Y-117598D02*
Y-112598D01*
X28444Y85000D02*
X35556D01*
X32000Y81444D02*
Y88556D01*
X141444Y144000D02*
X148556D01*
X145000Y140444D02*
Y147556D01*
X-21556Y197000D02*
X-14444D01*
X-18000Y193444D02*
Y200556D01*
X14444Y-198000D02*
X21556D01*
X18000Y-201556D02*
Y-194444D01*
X-108954Y169315D02*
X-103954D01*
X-106454Y166815D02*
Y171815D01*
X144694Y-184750D02*
X151806D01*
X148250Y-188306D02*
Y-181194D01*
X224944Y-221500D02*
X232056D01*
X228500Y-225056D02*
Y-217944D01*
X-138750Y-30750D02*
X-133750D01*
X-136250Y-33250D02*
Y-28250D01*
X-183350Y85401D02*
X-178350D01*
X-180850Y82901D02*
Y87901D01*
M02*
