M48
;Layer_Color=9474304
;FILE_FORMAT=4:4
METRIC,LZ
;TYPE=PLATED
T7F00S00C1.7500
;TYPE=NON_PLATED
T8F00S00C1.7500
%
G90
G05
T07
G00X00168625Y-00063852
M15
G01X00139875Y-00113648
M16
G00X00113053Y-00029187
M15
G01X00081803Y-00083313
M16
G00X0003125Y-0011225
M15
G01X-0003125
M16
G00X0002875Y-00178
M15
G01X-0002875
M16
G00X-00081625Y-00083211
M15
G01X-00112875Y-00029084
M16
G00X-00139875Y-00114148
M15
G01X-00168625Y-00064352
M16
G00X-00168456Y00064513
M15
G01X-00139706Y0011431
M16
G00X-00113125Y00029437
M15
G01X-00081875Y00083563
M16
G00X-0003125Y001125
M15
G01X0003125
M16
G00X-000285Y00178
M15
G01X00029
M16
G00X00082125Y00083063
M15
G01X00113375Y00028937
M16
G00X00139625Y00114148
M15
G01X00168375Y00064352
M16
T08
G00X00173125Y-00136313
M15
G01X00204375Y-00082187
M16
G00X000315Y-0021825
M15
G01X-00031
M16
G00X-00205125Y-00082937
M15
G01X-00173875Y-00137063
M16
G00X-00203625Y00081437
M15
G01X-00172375Y00135563
M16
G00X0003125Y002185
M15
G01X-0003125
M16
G00X00171625Y00135813
M15
G01X00202875Y00081687
M16
M17
M30
