G04*
G04 #@! TF.GenerationSoftware,Altium Limited,Altium Designer,19.1.9 (167)*
G04*
G04 Layer_Physical_Order=1*
G04 Layer_Color=255*
%FSLAX44Y44*%
%MOMM*%
G71*
G01*
G75*
%ADD13C,0.5000*%
%ADD16R,1.1500X1.8500*%
G04:AMPARAMS|DCode=17|XSize=4.5mm|YSize=13mm|CornerRadius=1.125mm|HoleSize=0mm|Usage=FLASHONLY|Rotation=0.000|XOffset=0mm|YOffset=0mm|HoleType=Round|Shape=RoundedRectangle|*
%AMROUNDEDRECTD17*
21,1,4.5000,10.7500,0,0,0.0*
21,1,2.2500,13.0000,0,0,0.0*
1,1,2.2500,1.1250,-5.3750*
1,1,2.2500,-1.1250,-5.3750*
1,1,2.2500,-1.1250,5.3750*
1,1,2.2500,1.1250,5.3750*
%
%ADD17ROUNDEDRECTD17*%
%ADD18R,1.1500X0.7500*%
%ADD19R,1.8500X1.1500*%
%ADD20R,1.3500X1.9500*%
%ADD21R,1.2000X2.0000*%
%ADD22R,4.0000X2.0000*%
%ADD23R,2.1500X2.1000*%
%ADD24R,0.7500X1.1500*%
%ADD25R,1.5500X1.8500*%
%ADD26R,2.0000X1.5500*%
%ADD27O,4.0000X2.5000*%
%ADD47C,1.0000*%
%ADD48C,1.0000*%
%ADD49C,0.6000*%
%ADD50C,2.5000*%
%ADD51C,1.5000*%
%ADD52C,0.8000*%
%ADD53C,2.0000*%
%ADD54C,1.5240*%
%ADD55C,0.7000*%
%ADD56C,2.5000*%
%ADD57C,2.0000*%
%ADD58C,1.2700*%
G36*
X123019Y228796D02*
X123080Y228615D01*
X123183Y228406D01*
X123328Y228169D01*
X123514Y227905D01*
X124012Y227295D01*
X124676Y226573D01*
X125071Y226172D01*
X120828Y221929D01*
X120427Y222324D01*
X119095Y223486D01*
X118831Y223672D01*
X118594Y223817D01*
X118385Y223920D01*
X118204Y223981D01*
X118050Y224000D01*
X123000Y228950D01*
X123019Y228796D01*
D02*
G37*
G36*
X261000Y156720D02*
X260581Y156540D01*
X260210Y156240D01*
X259889Y155820D01*
X259617Y155280D01*
X259395Y154620D01*
X259222Y153840D01*
X259099Y152940D01*
X259025Y151920D01*
X259005Y151000D01*
X259025Y150079D01*
X259222Y148160D01*
X259395Y147380D01*
X259617Y146720D01*
X259889Y146180D01*
X260210Y145759D01*
X260581Y145459D01*
X261000Y145280D01*
X261469Y145219D01*
X250030D01*
X250595Y145280D01*
X251099Y145459D01*
X251545Y145759D01*
X251931Y146180D01*
X252258Y146720D01*
X252525Y147380D01*
X252733Y148160D01*
X252881Y149059D01*
X252970Y150079D01*
X252994Y151000D01*
X252970Y151920D01*
X252881Y152940D01*
X252733Y153840D01*
X252525Y154620D01*
X252258Y155280D01*
X251931Y155820D01*
X251545Y156240D01*
X251099Y156540D01*
X250595Y156720D01*
X250030Y156780D01*
X261469D01*
X261000Y156720D01*
D02*
G37*
G36*
X235453Y147220D02*
X234991Y147041D01*
X234583Y146741D01*
X234229Y146320D01*
X233930Y145780D01*
X233685Y145120D01*
X233495Y144340D01*
X233359Y143441D01*
X233277Y142421D01*
X233250Y141280D01*
X227250D01*
X227223Y142421D01*
X227141Y143441D01*
X227005Y144340D01*
X226815Y145120D01*
X226570Y145780D01*
X226271Y146320D01*
X225917Y146741D01*
X225509Y147041D01*
X225047Y147220D01*
X224531Y147281D01*
X235970D01*
X235453Y147220D01*
D02*
G37*
G36*
X201095Y132875D02*
X200586Y133469D01*
X200027Y134000D01*
X199417Y134469D01*
X198758Y134875D01*
X198048Y135219D01*
X197289Y135500D01*
X196479Y135719D01*
X195619Y135875D01*
X194710Y135969D01*
X193750Y136000D01*
Y142000D01*
X194710Y142031D01*
X195619Y142125D01*
X196479Y142281D01*
X197289Y142500D01*
X198048Y142781D01*
X198758Y143125D01*
X199417Y143531D01*
X200027Y144000D01*
X200586Y144531D01*
X201095Y145125D01*
Y132875D01*
D02*
G37*
G36*
X261000Y137720D02*
X260581Y137541D01*
X260210Y137240D01*
X259889Y136820D01*
X259617Y136280D01*
X259395Y135620D01*
X259222Y134840D01*
X259099Y133940D01*
X259025Y132921D01*
X259000Y131781D01*
X253000D01*
X252970Y132921D01*
X252881Y133940D01*
X252733Y134840D01*
X252525Y135620D01*
X252258Y136280D01*
X251931Y136820D01*
X251545Y137240D01*
X251099Y137541D01*
X250595Y137720D01*
X250030Y137781D01*
X261469D01*
X261000Y137720D01*
D02*
G37*
G36*
X259030Y127079D02*
X259120Y126060D01*
X259270Y125160D01*
X259480Y124380D01*
X259750Y123720D01*
X260080Y123180D01*
X260470Y122760D01*
X260920Y122459D01*
X261430Y122280D01*
X262000Y122219D01*
X250000D01*
X250570Y122280D01*
X251080Y122459D01*
X251530Y122760D01*
X251920Y123180D01*
X252250Y123720D01*
X252520Y124380D01*
X252730Y125160D01*
X252880Y126060D01*
X252970Y127079D01*
X253000Y128219D01*
X259000D01*
X259030Y127079D01*
D02*
G37*
G36*
X390922Y166311D02*
Y-195811D01*
X260811Y-325922D01*
X-260811D01*
X-390922Y-195811D01*
Y-65301D01*
X-389652Y-65000D01*
X-340117Y-114534D01*
Y-133993D01*
X-341387Y-134182D01*
X-341897Y-132502D01*
X-343708Y-129114D01*
X-346145Y-126145D01*
X-349114Y-123708D01*
X-352502Y-121897D01*
X-356177Y-120782D01*
X-360000Y-120406D01*
X-363823Y-120782D01*
X-367498Y-121897D01*
X-370886Y-123708D01*
X-373855Y-126145D01*
X-376292Y-129114D01*
X-378103Y-132502D01*
X-379218Y-136177D01*
X-379594Y-140000D01*
X-379218Y-143823D01*
X-378103Y-147498D01*
X-376292Y-150886D01*
X-373855Y-153855D01*
X-370886Y-156292D01*
X-367498Y-158103D01*
X-363823Y-159218D01*
X-360000Y-159594D01*
X-356177Y-159218D01*
X-352502Y-158103D01*
X-349114Y-156292D01*
X-346145Y-153855D01*
X-343708Y-150886D01*
X-341897Y-147498D01*
X-341387Y-145818D01*
X-340117Y-146007D01*
Y-219000D01*
Y-225000D01*
X-339652Y-227341D01*
X-338326Y-229326D01*
X-306326Y-261326D01*
X-304341Y-262652D01*
X-302000Y-263118D01*
X-214000D01*
X-211659Y-262652D01*
X-209674Y-261326D01*
X-195424Y-247076D01*
X-194098Y-245091D01*
X-193633Y-242750D01*
Y-239250D01*
X-191000D01*
Y-225750D01*
X-201354D01*
X-202003Y-224480D01*
X-201741Y-224118D01*
X-185034D01*
X-178380Y-230772D01*
X-177893Y-231328D01*
X-177248Y-232152D01*
X-176751Y-232885D01*
X-176401Y-233508D01*
X-176250Y-233855D01*
Y-235620D01*
X-176278Y-235761D01*
X-176250Y-235905D01*
Y-235984D01*
X-176260Y-236099D01*
X-176250Y-236131D01*
Y-245250D01*
X-158750D01*
Y-220750D01*
X-168088D01*
X-168230Y-220722D01*
X-168373Y-220750D01*
X-170745D01*
X-171028Y-220549D01*
X-172961Y-218888D01*
X-178174Y-213674D01*
X-180159Y-212348D01*
X-182500Y-211882D01*
X-205000D01*
X-207341Y-212348D01*
X-209326Y-213674D01*
X-215238Y-219586D01*
X-215966Y-219406D01*
X-216270Y-219254D01*
X-216500Y-219053D01*
Y-216250D01*
X-218875D01*
X-218885Y-216223D01*
X-219001Y-215748D01*
X-219101Y-215090D01*
X-219132Y-214693D01*
Y-211784D01*
X-217466Y-210117D01*
X-163000D01*
X-160659Y-209652D01*
X-158674Y-208326D01*
X-140674Y-190326D01*
X-139348Y-188341D01*
X-138883Y-186000D01*
Y-171478D01*
X-138846Y-171122D01*
X-138012Y-170035D01*
X-137206Y-168088D01*
X-137079Y-167128D01*
X-135739Y-166673D01*
X-130706Y-171706D01*
X-129035Y-172988D01*
X-127250Y-173727D01*
Y-190750D01*
X-120420D01*
X-120385Y-190836D01*
X-120263Y-191292D01*
X-120157Y-191933D01*
X-120118Y-192380D01*
Y-200193D01*
X-120149Y-200590D01*
X-120249Y-201248D01*
X-120365Y-201723D01*
X-120375Y-201750D01*
X-122750D01*
Y-204638D01*
X-122778Y-204781D01*
X-122750Y-204923D01*
Y-205036D01*
X-122758Y-205133D01*
X-122750Y-205158D01*
Y-206571D01*
X-122860Y-206616D01*
X-123310Y-206737D01*
X-123946Y-206843D01*
X-124388Y-206882D01*
X-126000D01*
X-128341Y-207348D01*
X-130326Y-208674D01*
X-138826Y-217174D01*
X-140152Y-219159D01*
X-140468Y-220750D01*
X-145250D01*
Y-245250D01*
X-127750D01*
Y-223402D01*
X-124020Y-219671D01*
X-122750Y-220198D01*
Y-226250D01*
X-105250D01*
Y-226061D01*
X-104077Y-225575D01*
X-77326Y-252326D01*
X-75341Y-253652D01*
X-74750Y-253769D01*
Y-260750D01*
X-55250D01*
Y-235250D01*
X-74750D01*
Y-235939D01*
X-75923Y-236425D01*
X-85925Y-226423D01*
X-85439Y-225250D01*
X-84500D01*
Y-215500D01*
X-90750D01*
Y-219939D01*
X-91923Y-220425D01*
X-102674Y-209674D01*
X-104659Y-208348D01*
X-105250Y-208230D01*
Y-205158D01*
X-105242Y-205133D01*
X-105250Y-205036D01*
Y-204923D01*
X-105222Y-204781D01*
X-105250Y-204638D01*
Y-201750D01*
X-107625D01*
X-107635Y-201723D01*
X-107751Y-201248D01*
X-107851Y-200590D01*
X-107882Y-200193D01*
Y-192380D01*
X-107843Y-191933D01*
X-107737Y-191292D01*
X-107615Y-190836D01*
X-107580Y-190750D01*
X-106158D01*
X-106133Y-190758D01*
X-106036Y-190750D01*
X-105923D01*
X-105780Y-190778D01*
X-105638Y-190750D01*
X-102362D01*
X-102219Y-190778D01*
X-102077Y-190750D01*
X-101964D01*
X-101867Y-190758D01*
X-101842Y-190750D01*
X-84158D01*
X-84133Y-190758D01*
X-84036Y-190750D01*
X-83923D01*
X-83780Y-190778D01*
X-83638Y-190750D01*
X-78362D01*
X-78219Y-190778D01*
X-78077Y-190750D01*
X-77964D01*
X-77867Y-190758D01*
X-77842Y-190750D01*
X-59069D01*
Y-226000D01*
X-58794Y-228088D01*
X-57988Y-230035D01*
X-56706Y-231706D01*
X-50798Y-237614D01*
X-47318Y-241353D01*
X-46000Y-242989D01*
X-44983Y-244441D01*
X-44750Y-244847D01*
Y-260750D01*
X-25250D01*
Y-255857D01*
X-25238Y-255820D01*
X-25199Y-255441D01*
X-25144Y-255390D01*
X-24895Y-255238D01*
X-24420Y-255044D01*
X-23710Y-254853D01*
X-22774Y-254697D01*
X-21625Y-254595D01*
X-20302Y-254561D01*
X29575D01*
X32940Y-257925D01*
Y-259301D01*
X32905Y-260632D01*
X32803Y-261786D01*
X32647Y-262728D01*
X32455Y-263443D01*
X32260Y-263922D01*
X32107Y-264174D01*
X32055Y-264229D01*
X31860Y-264250D01*
X27000D01*
Y-285750D01*
X49598D01*
X49625Y-285759D01*
X49731Y-285750D01*
X49827D01*
X49970Y-285778D01*
X50112Y-285750D01*
X53000D01*
Y-283092D01*
X53009Y-283064D01*
X53034Y-282843D01*
X53277Y-282705D01*
X53768Y-282518D01*
X54497Y-282336D01*
X55449Y-282188D01*
X55569Y-282178D01*
X55774Y-282197D01*
X56710Y-282353D01*
X57420Y-282544D01*
X57895Y-282738D01*
X58144Y-282890D01*
X58199Y-282941D01*
X58239Y-283320D01*
X58250Y-283357D01*
Y-287250D01*
X75750D01*
Y-262750D01*
X58250D01*
Y-266643D01*
X58239Y-266680D01*
X58199Y-267059D01*
X58144Y-267110D01*
X57895Y-267262D01*
X57420Y-267456D01*
X56710Y-267647D01*
X55774Y-267803D01*
X55569Y-267822D01*
X55449Y-267812D01*
X54496Y-267664D01*
X53768Y-267482D01*
X53277Y-267295D01*
X53034Y-267157D01*
X53009Y-266936D01*
X53000Y-266909D01*
Y-264250D01*
X50112D01*
X49970Y-264222D01*
X49827Y-264250D01*
X49731D01*
X49625Y-264241D01*
X49598Y-264250D01*
X48141D01*
X47945Y-264229D01*
X47894Y-264174D01*
X47740Y-263922D01*
X47545Y-263443D01*
X47353Y-262728D01*
X47197Y-261786D01*
X47095Y-260632D01*
X47060Y-259301D01*
Y-255000D01*
X46820Y-253173D01*
X46115Y-251470D01*
X44992Y-250008D01*
X37492Y-242508D01*
X36030Y-241386D01*
X34327Y-240680D01*
X32500Y-240440D01*
X-20302D01*
X-21625Y-240405D01*
X-22774Y-240303D01*
X-23710Y-240147D01*
X-24420Y-239956D01*
X-24895Y-239762D01*
X-25144Y-239610D01*
X-25199Y-239559D01*
X-25238Y-239180D01*
X-25250Y-239143D01*
Y-238627D01*
X-25237Y-238584D01*
X-25238Y-238573D01*
X-25235Y-238562D01*
X-25250Y-238415D01*
Y-235250D01*
X-27934D01*
X-27978Y-235237D01*
X-28437Y-235191D01*
X-28790Y-235096D01*
X-29332Y-234872D01*
X-30031Y-234502D01*
X-30862Y-233976D01*
X-31759Y-233331D01*
X-34662Y-230826D01*
X-34104Y-229767D01*
X-34018Y-229704D01*
X-31000Y-230101D01*
X31500D01*
X34567Y-229698D01*
X37426Y-228514D01*
X39880Y-226630D01*
X41764Y-224176D01*
X42948Y-221317D01*
X43351Y-218250D01*
X42948Y-215183D01*
X41764Y-212324D01*
X39880Y-209870D01*
X37426Y-207986D01*
X35863Y-207339D01*
X36115Y-206069D01*
X44000D01*
X46088Y-205794D01*
X48035Y-204988D01*
X49706Y-203706D01*
X62706Y-190706D01*
X63988Y-189035D01*
X64794Y-187088D01*
X65069Y-185000D01*
Y-76472D01*
X71051Y-71051D01*
X77673Y-63745D01*
X78922Y-62060D01*
X79986Y-62758D01*
X71539Y-77388D01*
X70355Y-80246D01*
X69952Y-83313D01*
X70355Y-86381D01*
X71539Y-89239D01*
X73423Y-91693D01*
X75877Y-93577D01*
X78735Y-94761D01*
X81803Y-95165D01*
X84870Y-94761D01*
X87729Y-93577D01*
X90183Y-91693D01*
X92066Y-89239D01*
X123316Y-35112D01*
X124500Y-32254D01*
X124904Y-29187D01*
X124500Y-26119D01*
X123316Y-23261D01*
X121433Y-20807D01*
X118979Y-18923D01*
X116120Y-17739D01*
X113053Y-17335D01*
X109986Y-17739D01*
X107127Y-18923D01*
X104673Y-20807D01*
X102789Y-23261D01*
X94446Y-37711D01*
X93289Y-37176D01*
X96154Y-29168D01*
X98550Y-19603D01*
X99997Y-9849D01*
X100481Y0D01*
X99997Y9849D01*
X98550Y19603D01*
X96154Y29168D01*
X92999Y37985D01*
X94157Y38521D01*
X103111Y23011D01*
X104995Y20556D01*
X107449Y18673D01*
X110308Y17489D01*
X113375Y17085D01*
X116442Y17489D01*
X119301Y18673D01*
X121755Y20556D01*
X123639Y23011D01*
X124823Y25869D01*
X125226Y28937D01*
X124823Y32004D01*
X123639Y34862D01*
X92389Y88989D01*
X90505Y91444D01*
X88051Y93327D01*
X85192Y94511D01*
X82125Y94915D01*
X79058Y94511D01*
X76199Y93327D01*
X73745Y91444D01*
X71861Y88989D01*
X70677Y86131D01*
X70274Y83063D01*
X70677Y79996D01*
X71861Y77138D01*
X80788Y61676D01*
X79725Y60978D01*
X77673Y63745D01*
X71051Y71051D01*
X67069Y74660D01*
Y186000D01*
X66794Y188088D01*
X65988Y190035D01*
X64706Y191706D01*
X53706Y202706D01*
X52035Y203988D01*
X50088Y204794D01*
X48000Y205069D01*
X-12591D01*
X-12896Y205379D01*
X-12365Y206649D01*
X31250D01*
X34317Y207052D01*
X37176Y208236D01*
X39630Y210120D01*
X41514Y212574D01*
X42698Y215433D01*
X43101Y218500D01*
X42698Y221567D01*
X41514Y224426D01*
X39630Y226880D01*
X37176Y228764D01*
X34317Y229947D01*
X31250Y230351D01*
X-31250D01*
X-34317Y229947D01*
X-37176Y228764D01*
X-39630Y226880D01*
X-41514Y224426D01*
X-42698Y221567D01*
X-43101Y218500D01*
X-42698Y215433D01*
X-41514Y212574D01*
X-39630Y210120D01*
X-37176Y208236D01*
X-34317Y207052D01*
X-31250Y206649D01*
X-22458D01*
X-22205Y205379D01*
X-22715Y205167D01*
X-24669Y203668D01*
X-26167Y201715D01*
X-27109Y199441D01*
X-27431Y197000D01*
X-27109Y194559D01*
X-26167Y192285D01*
X-25275Y191121D01*
X-25901Y189851D01*
X-28500D01*
X-31567Y189448D01*
X-34426Y188264D01*
X-36880Y186380D01*
X-38764Y183926D01*
X-39948Y181067D01*
X-40351Y178000D01*
X-39948Y174933D01*
X-38764Y172074D01*
X-36880Y169620D01*
X-34426Y167736D01*
X-31567Y166552D01*
X-28500Y166149D01*
X29000D01*
X32067Y166552D01*
X34926Y167736D01*
X37380Y169620D01*
X39264Y172074D01*
X40448Y174933D01*
X40851Y178000D01*
X40448Y181067D01*
X39264Y183926D01*
X37380Y186380D01*
X35711Y187661D01*
X36142Y188931D01*
X44658D01*
X50931Y182658D01*
Y71000D01*
X51206Y68912D01*
X52012Y66965D01*
X53294Y65294D01*
X53904Y64827D01*
X59634Y59634D01*
X65191Y53501D01*
X70122Y46854D01*
X74377Y39755D01*
X77915Y32273D01*
X80703Y24481D01*
X82714Y16453D01*
X83928Y8266D01*
X84335Y0D01*
X83928Y-8266D01*
X82714Y-16453D01*
X80703Y-24481D01*
X77915Y-32273D01*
X74377Y-39755D01*
X70122Y-46854D01*
X65191Y-53501D01*
X59634Y-59634D01*
X53501Y-65191D01*
X52310Y-66075D01*
X52310Y-66075D01*
X51622Y-66709D01*
X51447Y-66938D01*
X50340Y-68380D01*
X50198Y-68723D01*
X50012Y-68966D01*
X49206Y-70912D01*
X48931Y-73000D01*
Y-181658D01*
X40658Y-189931D01*
X33969D01*
X33716Y-188661D01*
X34676Y-188264D01*
X37130Y-186380D01*
X39014Y-183926D01*
X40198Y-181067D01*
X40601Y-178000D01*
X40198Y-174933D01*
X39014Y-172074D01*
X37130Y-169620D01*
X34676Y-167736D01*
X31817Y-166552D01*
X28750Y-166149D01*
X-28750D01*
X-31817Y-166552D01*
X-34676Y-167736D01*
X-37130Y-169620D01*
X-39014Y-172074D01*
X-40198Y-174933D01*
X-40601Y-178000D01*
X-40198Y-181067D01*
X-39014Y-183926D01*
X-37130Y-186380D01*
X-34676Y-188264D01*
X-31817Y-189448D01*
X-28750Y-189851D01*
X11285D01*
X11693Y-191054D01*
X11331Y-191332D01*
X9833Y-193285D01*
X8891Y-195559D01*
X8569Y-198000D01*
X8891Y-200441D01*
X9833Y-202715D01*
X11331Y-204669D01*
X11931Y-205129D01*
X11500Y-206399D01*
X-31000D01*
X-34067Y-206803D01*
X-36926Y-207986D01*
X-39380Y-209870D01*
X-41264Y-212324D01*
X-41661Y-213284D01*
X-42931Y-213031D01*
Y-166000D01*
X-43206Y-163912D01*
X-44012Y-161966D01*
X-45294Y-160294D01*
X-46965Y-159012D01*
X-48912Y-158206D01*
X-51000Y-157931D01*
X-56750D01*
Y-142331D01*
X-55811Y-141450D01*
X-54784Y-142238D01*
X-52838Y-143044D01*
X-50750Y-143319D01*
X-22843D01*
X-22715Y-143417D01*
X-20441Y-144359D01*
X-18000Y-144681D01*
X-15559Y-144359D01*
X-13285Y-143417D01*
X-11331Y-141918D01*
X-9833Y-139965D01*
X-8891Y-137691D01*
X-8569Y-135250D01*
X-8891Y-132809D01*
X-9833Y-130535D01*
X-11331Y-128581D01*
X-13285Y-127083D01*
X-15559Y-126141D01*
X-18000Y-125819D01*
X-20441Y-126141D01*
X-22715Y-127083D01*
X-22843Y-127181D01*
X-47408D01*
X-49931Y-124658D01*
Y-70000D01*
X-50206Y-67912D01*
X-51012Y-65965D01*
X-52294Y-64294D01*
X-58294Y-58294D01*
X-59578Y-57309D01*
X-63952Y-52484D01*
X-68788Y-45963D01*
X-72962Y-38999D01*
X-76433Y-31660D01*
X-79168Y-24015D01*
X-81141Y-16140D01*
X-82332Y-8109D01*
X-82638Y-1896D01*
X-82388Y0D01*
X-82638Y1896D01*
X-82332Y8109D01*
X-81141Y16140D01*
X-79168Y24015D01*
X-76433Y31660D01*
X-72962Y38999D01*
X-68788Y45963D01*
X-63952Y52484D01*
X-58499Y58499D01*
X-52484Y63952D01*
X-45963Y68788D01*
X-38999Y72962D01*
X-31660Y76433D01*
X-24015Y79168D01*
X-16140Y81141D01*
X-8109Y82332D01*
X0Y82731D01*
X8109Y82332D01*
X16140Y81141D01*
X24015Y79168D01*
X24945Y78836D01*
X25331Y78331D01*
X27285Y76833D01*
X29559Y75891D01*
X32000Y75569D01*
X34441Y75891D01*
X36715Y76833D01*
X38668Y78331D01*
X40167Y80285D01*
X41109Y82559D01*
X41431Y85000D01*
X41109Y87441D01*
X40167Y89715D01*
X38668Y91669D01*
X36715Y93167D01*
X34441Y94109D01*
X32000Y94431D01*
X29975Y94164D01*
X28702Y94619D01*
X19290Y96977D01*
X9692Y98401D01*
X0Y98877D01*
X-9692Y98401D01*
X-19290Y96977D01*
X-28702Y94619D01*
X-37839Y91350D01*
X-46610Y87202D01*
X-54933Y82213D01*
X-62727Y76433D01*
X-69917Y69917D01*
X-76433Y62727D01*
X-82213Y54933D01*
X-87202Y46610D01*
X-91350Y37839D01*
X-94619Y28702D01*
X-96977Y19290D01*
X-97893Y13112D01*
X-180000D01*
X-183394Y12665D01*
X-184396Y12250D01*
X-190643D01*
X-191525Y13164D01*
X-191506Y13697D01*
X-190041Y27324D01*
X-187608Y40812D01*
X-184218Y54091D01*
X-181351Y62706D01*
X-180054Y62582D01*
X-179904Y61446D01*
X-178720Y58588D01*
X-176837Y56133D01*
X-174382Y54250D01*
X-171524Y53066D01*
X-168456Y52662D01*
X-165389Y53066D01*
X-162531Y54250D01*
X-160076Y56133D01*
X-158193Y58588D01*
X-129443Y108384D01*
X-128259Y111242D01*
X-127855Y114310D01*
X-128259Y117377D01*
X-129443Y120236D01*
X-131326Y122690D01*
X-133781Y124573D01*
X-136639Y125757D01*
X-139706Y126161D01*
X-142774Y125757D01*
X-143695Y125376D01*
X-144437Y126443D01*
X-135761Y135761D01*
X-125730Y145100D01*
X-115058Y153700D01*
X-103800Y161517D01*
X-102471Y162306D01*
X-102420Y162327D01*
X-102162Y162489D01*
X-102177Y162513D01*
X-100749Y163609D01*
X-99466Y165280D01*
X-98660Y167226D01*
X-98385Y169315D01*
X-98660Y171403D01*
X-99466Y173349D01*
X-100749Y175021D01*
X-102420Y176303D01*
X-104366Y177109D01*
X-106454Y177384D01*
X-108542Y177109D01*
X-110489Y176303D01*
X-110992Y175916D01*
X-115620Y173038D01*
X-126690Y165106D01*
X-137217Y156466D01*
X-147157Y147157D01*
X-156466Y137217D01*
X-159514Y133504D01*
X-160725Y134030D01*
X-160524Y135563D01*
X-160927Y138631D01*
X-162111Y141489D01*
X-163995Y143944D01*
X-166449Y145827D01*
X-169308Y147011D01*
X-172375Y147415D01*
X-175442Y147011D01*
X-178301Y145827D01*
X-180755Y143944D01*
X-182639Y141489D01*
X-213889Y87362D01*
X-215072Y84504D01*
X-215476Y81437D01*
X-215073Y78369D01*
X-213889Y75511D01*
X-212005Y73057D01*
X-209551Y71173D01*
X-206692Y69989D01*
X-203625Y69585D01*
X-200558Y69989D01*
X-197699Y71173D01*
X-196454Y72128D01*
X-195393Y71342D01*
X-197067Y66895D01*
X-201020Y53863D01*
X-204113Y40601D01*
X-206331Y27164D01*
X-207666Y13611D01*
X-207672Y13427D01*
X-207750Y12250D01*
X-207750Y12250D01*
X-215604D01*
X-216606Y12665D01*
X-220000Y13112D01*
X-224988D01*
X-226627Y13155D01*
X-229820Y13437D01*
X-232561Y13893D01*
X-234836Y14504D01*
X-236634Y15239D01*
X-237966Y16051D01*
X-238879Y16898D01*
X-239468Y17780D01*
X-239821Y18779D01*
X-239877Y19303D01*
Y83751D01*
X-240366Y87471D01*
X-241802Y90937D01*
X-244086Y93914D01*
X-247063Y96198D01*
X-250530Y97634D01*
X-254250Y98124D01*
X-276750D01*
X-280470Y97634D01*
X-283936Y96198D01*
X-286913Y93914D01*
X-289197Y90937D01*
X-290633Y87471D01*
X-291123Y83751D01*
Y7665D01*
X-299426Y7075D01*
X-302000D01*
X-305039Y6776D01*
X-307960Y5889D01*
X-310653Y4450D01*
X-313013Y2513D01*
X-314950Y153D01*
X-316389Y-2540D01*
X-317276Y-5462D01*
X-317575Y-8500D01*
X-317276Y-11538D01*
X-316389Y-14460D01*
X-314950Y-17153D01*
X-313013Y-19513D01*
X-310653Y-21450D01*
X-307960Y-22889D01*
X-305039Y-23776D01*
X-302000Y-24075D01*
X-301167D01*
X-294984Y-24191D01*
X-291786Y-24419D01*
X-291021Y-24518D01*
X-290633Y-27469D01*
X-289197Y-30936D01*
X-286913Y-33912D01*
X-283936Y-36196D01*
X-280470Y-37632D01*
X-276750Y-38122D01*
X-254250D01*
X-250530Y-37632D01*
X-247063Y-36196D01*
X-244086Y-33912D01*
X-241802Y-30936D01*
X-240366Y-27469D01*
X-239877Y-23749D01*
Y-19303D01*
X-239821Y-18779D01*
X-239468Y-17780D01*
X-238879Y-16898D01*
X-237966Y-16051D01*
X-236635Y-15239D01*
X-234836Y-14504D01*
X-232561Y-13893D01*
X-229820Y-13437D01*
X-226627Y-13155D01*
X-224988Y-13112D01*
X-220000D01*
X-216606Y-12665D01*
X-215604Y-12250D01*
X-207750D01*
X-207750Y-12250D01*
X-207672Y-13436D01*
X-207666Y-13611D01*
X-206331Y-27164D01*
X-204113Y-40601D01*
X-201020Y-53863D01*
X-197067Y-66895D01*
X-193006Y-77684D01*
X-194158Y-78229D01*
X-194861Y-77011D01*
X-196745Y-74556D01*
X-199199Y-72673D01*
X-202058Y-71489D01*
X-205125Y-71085D01*
X-208192Y-71489D01*
X-211051Y-72673D01*
X-213505Y-74556D01*
X-215389Y-77011D01*
X-216573Y-79869D01*
X-216976Y-82937D01*
X-216572Y-86004D01*
X-215389Y-88862D01*
X-188673Y-135135D01*
X-189681Y-135908D01*
X-198544Y-127044D01*
X-200215Y-125762D01*
X-202162Y-124956D01*
X-204250Y-124681D01*
X-248180D01*
X-249524Y-124649D01*
X-251035Y-124530D01*
X-252296Y-124342D01*
X-253295Y-124102D01*
X-254015Y-123839D01*
X-254454Y-123598D01*
X-254646Y-123439D01*
X-254685Y-123387D01*
X-254689Y-123377D01*
X-254743Y-122923D01*
X-254750Y-122900D01*
Y-120250D01*
X-257635D01*
X-257776Y-120222D01*
X-257919Y-120250D01*
X-258046D01*
X-258138Y-120243D01*
X-258161Y-120250D01*
X-272750D01*
Y-146250D01*
X-269929D01*
X-269884Y-146360D01*
X-269762Y-146810D01*
X-269657Y-147446D01*
X-269618Y-147888D01*
Y-158966D01*
X-273480Y-162829D01*
X-274750Y-162302D01*
Y-160750D01*
X-292250D01*
Y-185250D01*
X-274750D01*
Y-176354D01*
X-274340Y-176248D01*
X-273722Y-176150D01*
X-273342Y-176117D01*
X-272000D01*
X-269659Y-175652D01*
X-267674Y-174326D01*
X-259174Y-165826D01*
X-257848Y-163841D01*
X-257383Y-161500D01*
Y-147807D01*
X-257351Y-147410D01*
X-257251Y-146752D01*
X-257135Y-146277D01*
X-257125Y-146250D01*
X-254750D01*
Y-143362D01*
X-254722Y-143219D01*
X-254750Y-143077D01*
Y-142964D01*
X-254742Y-142867D01*
X-254746Y-142855D01*
X-254706Y-142484D01*
X-254653Y-142334D01*
X-254564Y-142201D01*
X-254350Y-142003D01*
X-253917Y-141740D01*
X-253218Y-141454D01*
X-252244Y-141193D01*
X-251003Y-140987D01*
X-249511Y-140855D01*
X-248130Y-140819D01*
X-207592D01*
X-189246Y-159166D01*
X-189189Y-159209D01*
X-189674Y-160438D01*
X-190000Y-160406D01*
X-193823Y-160782D01*
X-197498Y-161897D01*
X-200886Y-163708D01*
X-203855Y-166145D01*
X-206292Y-169114D01*
X-208103Y-172502D01*
X-209218Y-176177D01*
X-209594Y-180000D01*
X-209218Y-183823D01*
X-208103Y-187498D01*
X-206292Y-190886D01*
X-203855Y-193855D01*
X-200886Y-196292D01*
X-200215Y-196651D01*
X-200524Y-197882D01*
X-220000D01*
X-222341Y-198348D01*
X-224326Y-199674D01*
X-229576Y-204924D01*
X-230902Y-206909D01*
X-231368Y-209250D01*
Y-214693D01*
X-231399Y-215090D01*
X-231499Y-215748D01*
X-231615Y-216223D01*
X-231625Y-216250D01*
X-234000D01*
Y-219138D01*
X-234028Y-219280D01*
X-234000Y-219423D01*
Y-219536D01*
X-234008Y-219633D01*
X-234000Y-219658D01*
Y-229750D01*
X-218118D01*
Y-232466D01*
X-220901Y-235250D01*
X-232099D01*
X-243674Y-223674D01*
X-245659Y-222348D01*
X-248000Y-221882D01*
X-249368D01*
X-249580Y-221866D01*
X-250146Y-221785D01*
X-250250Y-221761D01*
Y-219250D01*
X-274750D01*
Y-236750D01*
X-250250D01*
Y-236061D01*
X-249077Y-235575D01*
X-238326Y-246326D01*
X-236341Y-247652D01*
X-234000Y-248117D01*
X-234000D01*
Y-248750D01*
X-216500D01*
Y-247546D01*
X-214674Y-246326D01*
X-207790Y-239442D01*
X-206834Y-239524D01*
X-206507Y-240245D01*
X-206402Y-240751D01*
X-216534Y-250882D01*
X-299466D01*
X-301766Y-248583D01*
X-300927Y-247626D01*
X-300200Y-248183D01*
X-297729Y-249207D01*
X-297076Y-249293D01*
Y-241308D01*
X-305061D01*
X-304975Y-241961D01*
X-303951Y-244432D01*
X-303393Y-245159D01*
X-304350Y-245998D01*
X-324058Y-226291D01*
X-323572Y-225117D01*
X-308000D01*
X-305659Y-224652D01*
X-304670Y-223991D01*
X-303500Y-223750D01*
X-303500Y-223750D01*
X-303500Y-223750D01*
X-300631D01*
X-300495Y-223778D01*
X-300482Y-223776D01*
X-300469Y-223778D01*
X-300327Y-223750D01*
X-286000D01*
Y-210250D01*
X-300327D01*
X-300469Y-210222D01*
X-300482Y-210224D01*
X-300495Y-210222D01*
X-300631Y-210250D01*
X-303500D01*
Y-210825D01*
X-304320Y-210882D01*
X-306000D01*
X-308341Y-211348D01*
X-310230Y-212610D01*
X-310718Y-212499D01*
X-311500Y-212149D01*
Y-204158D01*
X-311492Y-204133D01*
X-311500Y-204036D01*
Y-203923D01*
X-311472Y-203780D01*
X-311500Y-203638D01*
Y-200750D01*
X-313474D01*
X-313829Y-199480D01*
X-310674Y-196326D01*
X-309348Y-194341D01*
X-308883Y-192000D01*
Y-186882D01*
X-308843Y-186436D01*
X-308737Y-185795D01*
X-308615Y-185340D01*
X-308578Y-185250D01*
X-305750D01*
Y-160750D01*
X-308578D01*
X-308615Y-160660D01*
X-308737Y-160205D01*
X-308843Y-159564D01*
X-308883Y-159118D01*
Y-148034D01*
X-307414Y-146565D01*
X-307069Y-146250D01*
X-299750D01*
Y-120250D01*
X-317750D01*
Y-139532D01*
X-318251Y-140099D01*
X-319326Y-141174D01*
X-320652Y-143159D01*
X-321118Y-145500D01*
Y-159381D01*
X-321135Y-159653D01*
X-321222Y-160354D01*
X-321301Y-160750D01*
X-323250D01*
Y-163632D01*
X-323278Y-163772D01*
X-323250Y-163916D01*
Y-182083D01*
X-323278Y-182228D01*
X-323250Y-182368D01*
Y-185250D01*
X-321301D01*
X-321231Y-185600D01*
X-321118Y-186825D01*
Y-189466D01*
X-324576Y-192924D01*
X-325902Y-194909D01*
X-326367Y-197250D01*
Y-199193D01*
X-326399Y-199590D01*
X-326499Y-200248D01*
X-326615Y-200723D01*
X-326625Y-200750D01*
X-327882D01*
Y-112000D01*
X-328348Y-109659D01*
X-329674Y-107674D01*
X-379422Y-57927D01*
Y132474D01*
X-378152Y132663D01*
X-378103Y132502D01*
X-376292Y129114D01*
X-373855Y126145D01*
X-370886Y123708D01*
X-367498Y121897D01*
X-363823Y120782D01*
X-360000Y120406D01*
X-356177Y120782D01*
X-352502Y121897D01*
X-349114Y123708D01*
X-346145Y126145D01*
X-343708Y129114D01*
X-341897Y132502D01*
X-340782Y136177D01*
X-340406Y140000D01*
X-340782Y143823D01*
X-341897Y147498D01*
X-343708Y150886D01*
X-346145Y153855D01*
X-349114Y156292D01*
X-352502Y158103D01*
X-356177Y159218D01*
X-360000Y159594D01*
X-363823Y159218D01*
X-367498Y158103D01*
X-370886Y156292D01*
X-373855Y153855D01*
X-376292Y150886D01*
X-378103Y147498D01*
X-378152Y147337D01*
X-379422Y147526D01*
Y156927D01*
X-361256Y175093D01*
X-349790D01*
X-347449Y175558D01*
X-345464Y176884D01*
X-291808Y230541D01*
X-291459Y230368D01*
X-290693Y229859D01*
X-290347Y227228D01*
X-289277Y224644D01*
X-287574Y222426D01*
X-285356Y220723D01*
X-282772Y219653D01*
X-280000Y219288D01*
X-277228Y219653D01*
X-274644Y220723D01*
X-272426Y222426D01*
X-270723Y224644D01*
X-269653Y227228D01*
X-269288Y230000D01*
X-269653Y232772D01*
X-270723Y235356D01*
X-272426Y237574D01*
X-274644Y239277D01*
X-277228Y240347D01*
X-279859Y240693D01*
X-280368Y241459D01*
X-280541Y241808D01*
X-277966Y244382D01*
X125094D01*
X127435Y244848D01*
X129420Y246174D01*
X142628Y259382D01*
X182216D01*
X268883Y172716D01*
Y151000D01*
X269348Y148659D01*
X270674Y146674D01*
X280882Y136466D01*
Y125250D01*
X274750D01*
Y107750D01*
X273742Y107118D01*
X269258D01*
X268250Y107750D01*
X268250Y108388D01*
Y125250D01*
X262429D01*
X262384Y125360D01*
X262262Y125810D01*
X262157Y126446D01*
X262118Y126888D01*
Y133279D01*
X262142Y133621D01*
X262236Y134301D01*
X262335Y134750D01*
X264500D01*
Y137638D01*
X264528Y137781D01*
X264500Y137923D01*
Y138116D01*
X264504Y138168D01*
X264500Y138179D01*
Y144821D01*
X264504Y144832D01*
X264500Y144883D01*
Y145077D01*
X264528Y145219D01*
X264500Y145362D01*
Y148250D01*
X262335D01*
X262247Y148649D01*
X262118Y149905D01*
Y152278D01*
X262142Y152621D01*
X262236Y153301D01*
X262335Y153750D01*
X264500D01*
Y156638D01*
X264528Y156780D01*
X264500Y156923D01*
Y157116D01*
X264504Y157168D01*
X264500Y157179D01*
Y167250D01*
X247000D01*
Y157140D01*
X246989Y157104D01*
X247000Y156981D01*
Y156923D01*
X246972Y156780D01*
X247000Y156638D01*
Y153750D01*
X249577D01*
X249618Y153649D01*
X249739Y153196D01*
X249844Y152558D01*
X249883Y152120D01*
Y149880D01*
X249844Y149442D01*
X249739Y148804D01*
X249618Y148351D01*
X249577Y148250D01*
X247000D01*
Y145362D01*
X246972Y145219D01*
X247000Y145077D01*
Y145019D01*
X246989Y144896D01*
X247000Y144860D01*
Y138140D01*
X246989Y138104D01*
X247000Y137981D01*
Y137923D01*
X246972Y137781D01*
X247000Y137638D01*
Y134750D01*
X249577D01*
X249618Y134649D01*
X249739Y134196D01*
X249844Y133558D01*
X249883Y133120D01*
Y126888D01*
X249843Y126446D01*
X249737Y125810D01*
X249616Y125360D01*
X249571Y125250D01*
X243750D01*
Y107750D01*
X260165D01*
X260402Y106480D01*
X258674Y105326D01*
X251674Y98326D01*
X250348Y96341D01*
X249932Y94250D01*
X243750D01*
Y76750D01*
X249580D01*
X249615Y76664D01*
X249737Y76208D01*
X249843Y75567D01*
X249883Y75120D01*
Y58618D01*
X243880D01*
X243433Y58657D01*
X242792Y58763D01*
X242336Y58885D01*
X242250Y58920D01*
Y65250D01*
X226561D01*
X226075Y66423D01*
X231326Y71674D01*
X232652Y73659D01*
X233118Y76000D01*
Y93466D01*
X234576Y94924D01*
X235902Y96909D01*
X236367Y99250D01*
Y142693D01*
X236399Y143090D01*
X236499Y143748D01*
X236615Y144223D01*
X236625Y144250D01*
X239000D01*
Y147138D01*
X239028Y147281D01*
X239000Y147423D01*
Y147536D01*
X239008Y147633D01*
X239000Y147658D01*
Y157750D01*
X221500D01*
Y147658D01*
X221492Y147633D01*
X221500Y147536D01*
Y147423D01*
X221472Y147281D01*
X221500Y147138D01*
Y146071D01*
X220821Y145765D01*
X220230Y145720D01*
X218272Y148272D01*
X215556Y150356D01*
X212394Y151665D01*
X209000Y152112D01*
X205606Y151665D01*
X202444Y150356D01*
X199728Y148272D01*
X199016Y147344D01*
X198932Y147288D01*
X198867Y147189D01*
X198774Y147116D01*
X198366Y146642D01*
X198036Y146327D01*
X197678Y146052D01*
X197285Y145810D01*
X196847Y145598D01*
X196357Y145417D01*
X196064Y145337D01*
X180576Y160826D01*
X178591Y162152D01*
X176250Y162617D01*
X162034D01*
X145618Y179034D01*
Y207500D01*
X145152Y209841D01*
X143826Y211826D01*
X126199Y229452D01*
X125973Y229730D01*
X125794Y231088D01*
X124988Y233034D01*
X123706Y234706D01*
X122035Y235988D01*
X120088Y236794D01*
X118000Y237069D01*
X115912Y236794D01*
X113966Y235988D01*
X112294Y234706D01*
X111012Y233034D01*
X110206Y231088D01*
X109931Y229000D01*
X110206Y226912D01*
X111012Y224965D01*
X112294Y223294D01*
X113966Y222012D01*
X115912Y221206D01*
X117259Y221029D01*
X117740Y220608D01*
X133383Y204966D01*
Y176500D01*
X133848Y174159D01*
X135174Y172174D01*
X155174Y152174D01*
X157159Y150848D01*
X159500Y150382D01*
X173716D01*
X176008Y148091D01*
X175289Y147014D01*
X174692Y147261D01*
X171625Y147665D01*
X168558Y147261D01*
X165699Y146077D01*
X163245Y144193D01*
X161361Y141739D01*
X160177Y138881D01*
X159774Y135813D01*
X160177Y132746D01*
X161361Y129888D01*
X192611Y75761D01*
X194495Y73306D01*
X196949Y71423D01*
X199808Y70239D01*
X202875Y69835D01*
X205942Y70239D01*
X208801Y71423D01*
X211255Y73306D01*
X213139Y75761D01*
X214323Y78619D01*
X214726Y81687D01*
X214322Y84754D01*
X213139Y87612D01*
X183699Y138604D01*
X184715Y139383D01*
X189424Y134674D01*
X191409Y133348D01*
X193750Y132882D01*
X194820D01*
X195189Y132844D01*
X195806Y132732D01*
X196357Y132583D01*
X196847Y132402D01*
X197285Y132190D01*
X197678Y131948D01*
X198036Y131672D01*
X198366Y131359D01*
X198774Y130884D01*
X198867Y130811D01*
X198932Y130712D01*
X199016Y130656D01*
X199728Y129728D01*
X202444Y127645D01*
X205606Y126335D01*
X209000Y125888D01*
X212394Y126335D01*
X215556Y127645D01*
X218272Y129728D01*
X220355Y132444D01*
X221665Y135606D01*
X222112Y139000D01*
X221665Y142394D01*
X221406Y143019D01*
X222271Y144250D01*
X223875D01*
X223885Y144223D01*
X224001Y143748D01*
X224101Y143090D01*
X224132Y142693D01*
Y101784D01*
X222674Y100326D01*
X221348Y98341D01*
X220882Y96000D01*
Y78534D01*
X213174Y70826D01*
X211848Y68841D01*
X211383Y66500D01*
Y65250D01*
X192750D01*
Y58357D01*
X192739Y58320D01*
X192699Y57941D01*
X192644Y57890D01*
X192395Y57738D01*
X191920Y57544D01*
X191210Y57352D01*
X190274Y57196D01*
X189125Y57095D01*
X187801Y57060D01*
X182000D01*
X180173Y56820D01*
X178470Y56114D01*
X178460Y56107D01*
X177554Y57012D01*
X178639Y58426D01*
X179823Y61284D01*
X180226Y64352D01*
X179823Y67419D01*
X178639Y70278D01*
X149889Y120074D01*
X148005Y122528D01*
X145551Y124412D01*
X142692Y125596D01*
X139625Y126000D01*
X136558Y125596D01*
X133699Y124412D01*
X131245Y122528D01*
X129361Y120074D01*
X128177Y117216D01*
X127774Y114148D01*
X128177Y111081D01*
X129361Y108223D01*
X158111Y58426D01*
X159995Y55972D01*
X162449Y54088D01*
X165308Y52904D01*
X168375Y52500D01*
X171442Y52904D01*
X174301Y54088D01*
X174329Y54110D01*
X175168Y53153D01*
X164007Y41992D01*
X162885Y40530D01*
X162180Y38827D01*
X161940Y37000D01*
Y28886D01*
X160670Y28761D01*
X158807Y38126D01*
X155326Y50469D01*
X150887Y62500D01*
X145519Y74145D01*
X139253Y85334D01*
X132128Y95997D01*
X124189Y106067D01*
X119069Y111606D01*
Y125966D01*
X129034Y135931D01*
X140157D01*
X140285Y135833D01*
X142559Y134891D01*
X145000Y134569D01*
X147441Y134891D01*
X149715Y135833D01*
X151669Y137331D01*
X153167Y139285D01*
X154109Y141559D01*
X154431Y144000D01*
X154109Y146441D01*
X153167Y148715D01*
X151669Y150668D01*
X149715Y152167D01*
X147441Y153109D01*
X145000Y153431D01*
X142559Y153109D01*
X140285Y152167D01*
X140157Y152069D01*
X125692D01*
X123603Y151794D01*
X121657Y150988D01*
X119986Y149706D01*
X105294Y135014D01*
X104012Y133343D01*
X103206Y131397D01*
X102931Y129308D01*
Y110777D01*
X102662Y108736D01*
X102937Y106648D01*
X103743Y104702D01*
X104981Y103089D01*
X104980Y103089D01*
X111917Y95586D01*
X119071Y86510D01*
X125492Y76901D01*
X131138Y66818D01*
X135976Y56323D01*
X139976Y45481D01*
X143113Y34358D01*
X145368Y23024D01*
X146726Y11548D01*
X147180Y0D01*
X146726Y-11548D01*
X145709Y-20143D01*
X144833Y-21285D01*
X143891Y-23559D01*
X143569Y-26000D01*
X143891Y-28441D01*
X144833Y-30715D01*
X146332Y-32668D01*
X148285Y-34167D01*
X150559Y-35109D01*
X153000Y-35431D01*
X154621Y-35217D01*
X155396Y-36396D01*
X91440Y-143377D01*
X91419Y-143427D01*
X91385Y-143470D01*
X91053Y-144271D01*
X90709Y-145069D01*
X90701Y-145123D01*
X90680Y-145173D01*
X90567Y-146033D01*
X90440Y-146892D01*
X90447Y-146946D01*
X90440Y-147000D01*
Y-197344D01*
X90416Y-198682D01*
X90343Y-199897D01*
X90228Y-200912D01*
X90081Y-201714D01*
X89932Y-202250D01*
X87750D01*
Y-205138D01*
X87722Y-205280D01*
X87750Y-205423D01*
Y-224315D01*
X87747Y-224323D01*
X87750Y-224360D01*
Y-224577D01*
X87722Y-224720D01*
X87750Y-224862D01*
Y-227750D01*
X90293D01*
X90356Y-227878D01*
X90529Y-228404D01*
X90684Y-229118D01*
X90833Y-230596D01*
X90745Y-231453D01*
X90608Y-232274D01*
X90488Y-232750D01*
X88500D01*
Y-235634D01*
X88472Y-235774D01*
X88500Y-235918D01*
Y-254082D01*
X88472Y-254226D01*
X88500Y-254367D01*
Y-257250D01*
X90488D01*
X90608Y-257726D01*
X90738Y-258509D01*
X90870Y-260218D01*
X90796Y-261603D01*
X90697Y-262459D01*
X90646Y-262750D01*
X89250D01*
Y-265638D01*
X89222Y-265781D01*
X89250Y-265923D01*
Y-287250D01*
X106750D01*
Y-265923D01*
X106778Y-265781D01*
X106750Y-265638D01*
Y-262750D01*
X105354D01*
X105315Y-262525D01*
X105151Y-260237D01*
X105197Y-259716D01*
X105353Y-258776D01*
X105545Y-258062D01*
X105740Y-257582D01*
X105894Y-257329D01*
X105948Y-257271D01*
X106144Y-257250D01*
X110000D01*
Y-235810D01*
X188076D01*
X198940Y-246674D01*
Y-271000D01*
X199180Y-272827D01*
X199886Y-274530D01*
X201007Y-275992D01*
X208008Y-282992D01*
X209470Y-284114D01*
X211173Y-284820D01*
X212921Y-285050D01*
X212961Y-285058D01*
X212988Y-285059D01*
X213000Y-285060D01*
X213109D01*
X213897Y-285070D01*
X215250Y-285152D01*
Y-286750D01*
X236577D01*
X236719Y-286778D01*
X236862Y-286750D01*
X239750D01*
Y-285354D01*
X239975Y-285315D01*
X241556Y-285202D01*
X241603Y-285204D01*
X242459Y-285303D01*
X242750Y-285354D01*
Y-286750D01*
X245638D01*
X245781Y-286778D01*
X245923Y-286750D01*
X267250D01*
Y-280617D01*
X267262Y-280576D01*
X267250Y-280445D01*
Y-280252D01*
X267273Y-280086D01*
X267250Y-279998D01*
Y-277900D01*
X267255Y-277891D01*
X267781Y-277138D01*
X269276Y-275376D01*
X344326Y-200326D01*
X345652Y-198341D01*
X346118Y-196000D01*
Y-158000D01*
X345652Y-155659D01*
X344761Y-154326D01*
X344793Y-154210D01*
X346145Y-153855D01*
X349114Y-156292D01*
X352502Y-158103D01*
X356177Y-159218D01*
X360000Y-159594D01*
X363823Y-159218D01*
X367498Y-158103D01*
X370886Y-156292D01*
X373855Y-153855D01*
X376292Y-150886D01*
X378103Y-147498D01*
X379218Y-143823D01*
X379594Y-140000D01*
X379218Y-136177D01*
X378103Y-132502D01*
X376292Y-129114D01*
X373855Y-126145D01*
X370886Y-123708D01*
X367498Y-121897D01*
X363823Y-120782D01*
X360000Y-120406D01*
X356177Y-120782D01*
X352502Y-121897D01*
X349114Y-123708D01*
X346145Y-126145D01*
X345273Y-127206D01*
X344077Y-126779D01*
Y-116574D01*
X380326Y-80326D01*
X381652Y-78341D01*
X382118Y-76000D01*
Y14404D01*
X382060Y14694D01*
X382090Y14989D01*
X381829Y15856D01*
X381652Y16745D01*
X381487Y16991D01*
X381402Y17275D01*
X380829Y17976D01*
X380326Y18729D01*
X380079Y18894D01*
X379892Y19124D01*
X374974Y23178D01*
X374533Y23600D01*
X374144Y24028D01*
X374200Y24097D01*
X375639Y26790D01*
X376526Y29711D01*
X376825Y32750D01*
X376526Y35789D01*
X375639Y38710D01*
X374200Y41403D01*
X372263Y43763D01*
X369903Y45700D01*
X367210Y47139D01*
X364288Y48026D01*
X361250Y48325D01*
X346250D01*
X343212Y48026D01*
X340716Y47269D01*
X340043Y48392D01*
X341534Y49882D01*
X371000D01*
X373341Y50348D01*
X375326Y51674D01*
X384326Y60674D01*
X385652Y62659D01*
X386118Y65000D01*
Y101000D01*
X385652Y103341D01*
X384326Y105326D01*
X375326Y114326D01*
X373341Y115652D01*
X371000Y116117D01*
X355534D01*
X349693Y121958D01*
X350458Y122989D01*
X352502Y121897D01*
X356177Y120782D01*
X360000Y120406D01*
X363823Y120782D01*
X367498Y121897D01*
X370886Y123708D01*
X373855Y126145D01*
X376292Y129114D01*
X378103Y132502D01*
X379218Y136177D01*
X379594Y140000D01*
X379218Y143823D01*
X378103Y147498D01*
X376292Y150886D01*
X373855Y153855D01*
X370886Y156292D01*
X367498Y158103D01*
X363823Y159218D01*
X360000Y159594D01*
X356177Y159218D01*
X352502Y158103D01*
X349114Y156292D01*
X346145Y153855D01*
X343708Y150886D01*
X341897Y147498D01*
X340782Y143823D01*
X340406Y140000D01*
X340782Y136177D01*
X341897Y132502D01*
X342989Y130458D01*
X341958Y129693D01*
X335326Y136326D01*
X333341Y137652D01*
X331000Y138118D01*
X320440D01*
X302232Y156326D01*
X300247Y157652D01*
X297906Y158118D01*
X297157D01*
X296706Y158706D01*
X295035Y159988D01*
X293088Y160794D01*
X291000Y161069D01*
X288912Y160794D01*
X286966Y159988D01*
X285294Y158706D01*
X284012Y157035D01*
X283206Y155088D01*
X283062Y153997D01*
X281777Y153453D01*
X281117Y153956D01*
Y175250D01*
X280652Y177591D01*
X279326Y179576D01*
X189076Y269826D01*
X187091Y271152D01*
X184750Y271618D01*
X140094D01*
X137753Y271152D01*
X135768Y269826D01*
X122560Y256618D01*
X-280500D01*
X-282841Y256152D01*
X-284826Y254826D01*
X-352324Y187327D01*
X-363790D01*
X-366131Y186862D01*
X-368116Y185536D01*
X-389652Y164000D01*
X-390922Y164301D01*
Y165811D01*
X-228811Y327922D01*
X229311D01*
X390922Y166311D01*
D02*
G37*
G36*
X313580Y127674D02*
X315565Y126348D01*
X317906Y125883D01*
X328466D01*
X348674Y105674D01*
X350659Y104348D01*
X353000Y103883D01*
X368466D01*
X373882Y98466D01*
Y89230D01*
X372687Y88802D01*
X372513Y89013D01*
X370153Y90950D01*
X367460Y92389D01*
X364538Y93276D01*
X361500Y93575D01*
X353830D01*
X353725Y93587D01*
X353581Y93575D01*
X352777D01*
X352418Y93644D01*
X351928Y93800D01*
X351365Y94047D01*
X350734Y94396D01*
X350080Y94829D01*
X348707Y95945D01*
X339326Y105326D01*
X337341Y106652D01*
X335000Y107118D01*
X300258D01*
X299250Y107750D01*
Y125250D01*
X293118D01*
Y139000D01*
X292652Y141341D01*
X291326Y143326D01*
X290912Y143740D01*
X291457Y144991D01*
X293088Y145206D01*
X294722Y145883D01*
X295372D01*
X313580Y127674D01*
D02*
G37*
G36*
X303780Y79781D02*
X303720Y80297D01*
X303540Y80759D01*
X303241Y81167D01*
X302820Y81521D01*
X302281Y81820D01*
X301621Y82065D01*
X300840Y82255D01*
X300000Y82382D01*
X299160Y82255D01*
X298379Y82065D01*
X297719Y81820D01*
X297180Y81521D01*
X296759Y81167D01*
X296460Y80759D01*
X296280Y80297D01*
X296220Y79781D01*
Y91220D01*
X296280Y90703D01*
X296460Y90240D01*
X296759Y89833D01*
X297180Y89479D01*
X297719Y89180D01*
X298379Y88935D01*
X299160Y88745D01*
X300000Y88618D01*
X300840Y88745D01*
X301621Y88935D01*
X302281Y89180D01*
X302820Y89479D01*
X303241Y89833D01*
X303540Y90240D01*
X303720Y90703D01*
X303780Y91220D01*
Y79781D01*
D02*
G37*
G36*
X346439Y93846D02*
X348268Y92360D01*
X349149Y91777D01*
X350008Y91302D01*
X350846Y90935D01*
X351662Y90675D01*
X352455Y90522D01*
X353227Y90477D01*
X353977Y90539D01*
X349415Y89825D01*
X353004Y85137D01*
X340794Y86538D01*
X341278Y86895D01*
X341631Y87294D01*
X341852Y87737D01*
X341942Y88222D01*
X341909Y88650D01*
X339286Y88239D01*
X339930Y88399D01*
X340399Y88650D01*
X340693Y88990D01*
X340812Y89422D01*
X340755Y89944D01*
X340524Y90556D01*
X340117Y91259D01*
X339535Y92053D01*
X338778Y92937D01*
X337845Y93912D01*
X345492Y94751D01*
X346439Y93846D01*
D02*
G37*
G36*
X315525Y79761D02*
X315100Y79610D01*
X314725Y79358D01*
X314400Y79006D01*
X314125Y78553D01*
X313900Y78000D01*
X313725Y77346D01*
X313600Y76592D01*
X313525Y75736D01*
X313500Y74781D01*
X308500D01*
X308475Y75736D01*
X308400Y76592D01*
X308275Y77346D01*
X308100Y78000D01*
X307875Y78553D01*
X307600Y79006D01*
X307275Y79358D01*
X306900Y79610D01*
X306475Y79761D01*
X306000Y79811D01*
X316000D01*
X315525Y79761D01*
D02*
G37*
G36*
X261430Y79751D02*
X260920Y79570D01*
X260470Y79268D01*
X260080Y78846D01*
X259750Y78303D01*
X259480Y77640D01*
X259270Y76856D01*
X259120Y75951D01*
X259030Y74926D01*
X259000Y73780D01*
X253000D01*
X252970Y74926D01*
X252880Y75951D01*
X252730Y76856D01*
X252520Y77640D01*
X252250Y78303D01*
X251920Y78846D01*
X251530Y79268D01*
X251080Y79570D01*
X250570Y79751D01*
X250000Y79811D01*
X262000D01*
X261430Y79751D01*
D02*
G37*
G36*
X336149Y91200D02*
X336154Y89561D01*
X335487Y89013D01*
X333550Y86653D01*
X332111Y83960D01*
X331224Y81039D01*
X330925Y78000D01*
X331224Y74962D01*
X332111Y72040D01*
X332249Y71780D01*
X331178Y71090D01*
X330706Y71706D01*
X329035Y72988D01*
X327088Y73794D01*
X325000Y74069D01*
X322912Y73794D01*
X320965Y72988D01*
X319294Y71706D01*
X318012Y70034D01*
X317878Y69710D01*
X316608Y69963D01*
Y75876D01*
X316637Y76207D01*
X316718Y76699D01*
X316732Y76750D01*
X325250D01*
Y94250D01*
X326258Y94882D01*
X332466D01*
X336149Y91200D01*
D02*
G37*
G36*
X324600Y61016D02*
X324519Y61000D01*
X324402Y60941D01*
X324249Y60839D01*
X324060Y60694D01*
X323574Y60277D01*
X322172Y58929D01*
X317929Y63172D01*
X318330Y63576D01*
X319941Y65402D01*
X320000Y65519D01*
X320016Y65600D01*
X324600Y61016D01*
D02*
G37*
G36*
X293084Y61354D02*
X293437Y59065D01*
X293686Y58029D01*
X293984Y57065D01*
X294331Y56173D01*
X294727Y55353D01*
X295172Y54606D01*
X295665Y53931D01*
X296208Y53328D01*
X292931Y49533D01*
X292301Y50097D01*
X291608Y50592D01*
X290852Y51016D01*
X290033Y51371D01*
X289152Y51656D01*
X288209Y51871D01*
X287202Y52016D01*
X286133Y52091D01*
X285001Y52097D01*
X283807Y52033D01*
X292981Y62607D01*
X293084Y61354D01*
D02*
G37*
G36*
X239249Y57930D02*
X239430Y57420D01*
X239732Y56970D01*
X240154Y56580D01*
X240697Y56250D01*
X241360Y55980D01*
X242144Y55770D01*
X243048Y55620D01*
X244074Y55530D01*
X245219Y55500D01*
Y49500D01*
X244074Y49470D01*
X243048Y49380D01*
X242144Y49230D01*
X241360Y49020D01*
X240697Y48750D01*
X240154Y48420D01*
X239732Y48030D01*
X239430Y47580D01*
X239249Y47070D01*
X239189Y46500D01*
Y58500D01*
X239249Y57930D01*
D02*
G37*
G36*
X195781Y42780D02*
X195700Y43392D01*
X195461Y43939D01*
X195061Y44422D01*
X194501Y44841D01*
X193781Y45195D01*
X192901Y45485D01*
X191861Y45710D01*
X190661Y45871D01*
X189301Y45968D01*
X187780Y46000D01*
Y54000D01*
X189301Y54040D01*
X190661Y54160D01*
X191861Y54360D01*
X192901Y54640D01*
X193781Y55000D01*
X194501Y55440D01*
X195061Y55960D01*
X195461Y56560D01*
X195700Y57240D01*
X195781Y58000D01*
Y42780D01*
D02*
G37*
G36*
X220560Y42860D02*
X220740Y41840D01*
X221040Y40940D01*
X221460Y40160D01*
X222000Y39500D01*
X222660Y38960D01*
X223440Y38540D01*
X224340Y38240D01*
X225360Y38060D01*
X226500Y38000D01*
Y32000D01*
X225360Y31940D01*
X224340Y31760D01*
X223440Y31460D01*
X222660Y31040D01*
X222000Y30500D01*
X221460Y29840D01*
X221040Y29060D01*
X220978Y28873D01*
X220980Y28865D01*
X221250Y28202D01*
X221580Y27659D01*
X221970Y27236D01*
X222420Y26933D01*
X222930Y26751D01*
X223500Y26689D01*
X220537Y26699D01*
X220500Y26000D01*
X220033Y26700D01*
X214280Y26720D01*
X214322Y26779D01*
X214359Y26960D01*
X214392Y27260D01*
X214445Y28219D01*
X214500Y32720D01*
X216020D01*
X214500Y35000D01*
X220500Y44000D01*
X220560Y42860D01*
D02*
G37*
G36*
X355090Y37322D02*
X356780Y34935D01*
X357364Y34211D01*
X359178Y32251D01*
X359803Y31669D01*
X360439Y31123D01*
X359333Y24258D01*
X358571Y24828D01*
X357807Y25282D01*
X357042Y25620D01*
X356275Y25843D01*
X355507Y25949D01*
X354737Y25940D01*
X353965Y25814D01*
X353192Y25573D01*
X352418Y25216D01*
X351642Y24743D01*
X354548Y38189D01*
X355090Y37322D01*
D02*
G37*
G36*
X274750Y94250D02*
Y76750D01*
X295842D01*
X295867Y76742D01*
X295964Y76750D01*
X296077D01*
X296220Y76722D01*
X296362Y76750D01*
X299250D01*
Y77547D01*
X300000Y77991D01*
X300750Y77547D01*
Y76750D01*
X303638D01*
X303780Y76722D01*
X303923Y76750D01*
X304036D01*
X304133Y76742D01*
X305315Y76500D01*
X305363Y76207D01*
X305392Y75876D01*
Y24543D01*
X305100Y24169D01*
X305017Y24106D01*
X304122Y23823D01*
X303723Y24125D01*
X303621Y24284D01*
X303608Y24447D01*
Y48000D01*
X303181Y50146D01*
X301965Y51965D01*
X297972Y55959D01*
X297727Y56294D01*
X297424Y56803D01*
X297138Y57394D01*
X296874Y58073D01*
X296637Y58839D01*
X296440Y59656D01*
X296124Y61713D01*
X296105Y61945D01*
X296112Y62000D01*
X296081Y62236D01*
X296030Y62858D01*
X295973Y63057D01*
X295665Y65394D01*
X294356Y68556D01*
X292272Y71272D01*
X289556Y73355D01*
X286394Y74665D01*
X283000Y75112D01*
X279606Y74665D01*
X276444Y73355D01*
X273728Y71272D01*
X271644Y68556D01*
X270335Y65394D01*
X269888Y62000D01*
X270335Y58606D01*
X271644Y55444D01*
X273728Y52728D01*
X276444Y50644D01*
X279606Y49335D01*
X283000Y48888D01*
X283835Y48998D01*
X283971Y48978D01*
X285076Y49038D01*
X286018Y49033D01*
X286876Y48973D01*
X287650Y48861D01*
X288341Y48704D01*
X288952Y48506D01*
X289491Y48272D01*
X289966Y48006D01*
X290307Y47762D01*
X292392Y45677D01*
Y24371D01*
X292378Y24234D01*
X292337Y23982D01*
X292293Y23791D01*
X292255Y23667D01*
X292244Y23640D01*
X292226Y23616D01*
X292212Y23601D01*
X292207Y23591D01*
X291012Y22034D01*
X290520Y20847D01*
X289250Y21099D01*
Y32250D01*
X285879D01*
X284826Y33826D01*
X262118Y56534D01*
Y75120D01*
X262157Y75567D01*
X262263Y76208D01*
X262385Y76664D01*
X262420Y76750D01*
X268250D01*
Y94250D01*
X269258Y94882D01*
X273742D01*
X274750Y94250D01*
D02*
G37*
G36*
X300510Y24792D02*
X300590Y23825D01*
X300660Y23395D01*
X300750Y23001D01*
X300860Y22643D01*
X300990Y22321D01*
X301140Y22035D01*
X301310Y21785D01*
X301500Y21571D01*
X294500D01*
X294690Y21785D01*
X294860Y22035D01*
X295010Y22321D01*
X295140Y22643D01*
X295250Y23001D01*
X295340Y23395D01*
X295410Y23825D01*
X295460Y24290D01*
X295500Y25330D01*
X300500D01*
X300510Y24792D01*
D02*
G37*
G36*
X371070Y25502D02*
X370727Y25125D01*
X370559Y24681D01*
X370565Y24171D01*
X370747Y23594D01*
X371104Y22950D01*
X371636Y22240D01*
X372342Y21463D01*
X373224Y20620D01*
X374280Y19710D01*
X368464Y16730D01*
X367300Y17651D01*
X365149Y19115D01*
X364163Y19658D01*
X363236Y20075D01*
X362368Y20367D01*
X361559Y20532D01*
X360810Y20571D01*
X360119Y20485D01*
X359488Y20272D01*
X371588Y25813D01*
X371070Y25502D01*
D02*
G37*
G36*
X189160Y42911D02*
X190348Y42827D01*
X191333Y42695D01*
X192096Y42529D01*
X192622Y42356D01*
X192750Y42293D01*
Y39750D01*
X195638D01*
X195781Y39722D01*
X195923Y39750D01*
X196140D01*
X196177Y39748D01*
X196185Y39750D01*
X211383D01*
Y29750D01*
X211250D01*
Y26869D01*
X211222Y26730D01*
X211250Y26585D01*
Y16232D01*
X209980Y15847D01*
X209326Y16826D01*
X204826Y21326D01*
X202841Y22652D01*
X200500Y23118D01*
X199166D01*
X198791Y23149D01*
X198179Y23247D01*
X197750Y23359D01*
Y29750D01*
X180250D01*
Y5250D01*
X180250D01*
Y4750D01*
X180250D01*
Y3048D01*
X178980Y2376D01*
X178675Y2583D01*
X177655Y3399D01*
X176657Y4328D01*
X176060Y4924D01*
Y34076D01*
X184925Y42940D01*
X187824D01*
X189160Y42911D01*
D02*
G37*
G36*
X194777Y22252D02*
X194951Y21779D01*
X195240Y21362D01*
X195644Y21001D01*
X196165Y20695D01*
X196800Y20445D01*
X197552Y20250D01*
X198419Y20111D01*
X199402Y20028D01*
X200500Y20000D01*
Y14000D01*
X199402Y13972D01*
X198419Y13889D01*
X197552Y13750D01*
X196800Y13555D01*
X196165Y13305D01*
X195644Y12999D01*
X195240Y12638D01*
X194951Y12220D01*
X194777Y11748D01*
X194720Y11220D01*
Y22780D01*
X194777Y22252D01*
D02*
G37*
G36*
X255219Y10781D02*
X254798Y10720D01*
X254421Y10540D01*
X254088Y10240D01*
X253799Y9821D01*
X253555Y9280D01*
X253355Y8620D01*
X253200Y7840D01*
X253089Y6941D01*
X253022Y5921D01*
X253000Y4780D01*
X247000D01*
X246970Y5925D01*
X246880Y6949D01*
X246730Y7853D01*
X246520Y8636D01*
X246250Y9299D01*
X245920Y9842D01*
X245530Y10265D01*
X245080Y10567D01*
X244570Y10749D01*
X244000Y10811D01*
X255219Y10781D01*
D02*
G37*
G36*
X299280Y-1720D02*
X299221Y-1488D01*
X299041Y-1280D01*
X298741Y-1098D01*
X298321Y-939D01*
X297780Y-805D01*
X297120Y-695D01*
X296341Y-610D01*
X294421Y-512D01*
X293281Y-500D01*
Y5500D01*
X294425Y5530D01*
X295449Y5620D01*
X296352Y5770D01*
X297136Y5980D01*
X297799Y6250D01*
X298342Y6580D01*
X298764Y6970D01*
X299067Y7420D01*
X299249Y7930D01*
X299311Y8500D01*
X299280Y-1720D01*
D02*
G37*
G36*
X253027Y1080D02*
X253109Y60D01*
X253245Y-840D01*
X253435Y-1620D01*
X253680Y-2280D01*
X253979Y-2821D01*
X254333Y-3241D01*
X254741Y-3541D01*
X255203Y-3720D01*
X255720Y-3780D01*
X244280D01*
X244797Y-3720D01*
X245259Y-3541D01*
X245667Y-3241D01*
X246021Y-2821D01*
X246320Y-2280D01*
X246565Y-1620D01*
X246755Y-840D01*
X246891Y60D01*
X246973Y1080D01*
X247000Y2219D01*
X253000D01*
X253027Y1080D01*
D02*
G37*
G36*
X325624Y6066D02*
X325669Y5718D01*
X325823Y5296D01*
X326086Y4800D01*
X326459Y4231D01*
X326941Y3588D01*
X328233Y2081D01*
X329962Y280D01*
X326629Y-4871D01*
X325792Y-4052D01*
X323735Y-2263D01*
X323200Y-1889D01*
X322741Y-1627D01*
X322357Y-1476D01*
X322049Y-1435D01*
X321816Y-1507D01*
X321659Y-1689D01*
X325689Y6341D01*
X325624Y6066D01*
D02*
G37*
G36*
X359005Y-3563D02*
X359125Y-5327D01*
X359180Y-5645D01*
X359245Y-5915D01*
X359320Y-6135D01*
X359405Y-6307D01*
X359500Y-6429D01*
X352500D01*
X352595Y-6307D01*
X352680Y-6135D01*
X352755Y-5915D01*
X352820Y-5645D01*
X352875Y-5327D01*
X352955Y-4543D01*
X352995Y-3563D01*
X353000Y-3000D01*
X359000D01*
X359005Y-3563D01*
D02*
G37*
G36*
X214311Y-11781D02*
X214268Y-11537D01*
X214139Y-11320D01*
X213923Y-11127D01*
X213621Y-10961D01*
X213233Y-10820D01*
X212759Y-10705D01*
X212199Y-10615D01*
X211552Y-10551D01*
X210000Y-10500D01*
Y-4500D01*
X210819Y-4487D01*
X212199Y-4385D01*
X212759Y-4295D01*
X213233Y-4180D01*
X213621Y-4039D01*
X213923Y-3873D01*
X214139Y-3681D01*
X214268Y-3463D01*
X214311Y-3220D01*
Y-11781D01*
D02*
G37*
G36*
X175655Y1082D02*
X176856Y120D01*
X178105Y-728D01*
X179400Y-1463D01*
X180743Y-2086D01*
X182132Y-2595D01*
X183230Y-2898D01*
X183263Y-2868D01*
X183311Y-2720D01*
Y-2920D01*
X183568Y-2991D01*
X185051Y-3274D01*
X186580Y-3443D01*
X188157Y-3500D01*
Y-11500D01*
X186580Y-11557D01*
X185051Y-11726D01*
X183568Y-12009D01*
X183311Y-12080D01*
Y-12280D01*
X183263Y-12132D01*
X183230Y-12102D01*
X182132Y-12405D01*
X180743Y-12914D01*
X179400Y-13536D01*
X178105Y-14272D01*
X176856Y-15120D01*
X175655Y-16082D01*
X174500Y-17157D01*
X167186Y-13157D01*
X168204Y-12026D01*
X168997Y-10894D01*
X169562Y-9763D01*
X169902Y-8631D01*
X170015Y-7500D01*
X169902Y-6369D01*
X169562Y-5237D01*
X168997Y-4106D01*
X168204Y-2975D01*
X167186Y-1843D01*
X174500Y2157D01*
X175655Y1082D01*
D02*
G37*
G36*
X313525Y-11734D02*
X313600Y-12588D01*
X313725Y-13342D01*
X313900Y-13995D01*
X314125Y-14548D01*
X314400Y-15001D01*
X314725Y-15354D01*
X315100Y-15606D01*
X315525Y-15759D01*
X316000Y-15811D01*
X308780Y-15781D01*
X308727Y-15731D01*
X308680Y-15581D01*
X308637Y-15330D01*
X308601Y-14980D01*
X308525Y-13331D01*
X308500Y-10781D01*
X313500D01*
X313525Y-11734D01*
D02*
G37*
G36*
X199348Y-4841D02*
X200674Y-6826D01*
X205674Y-11826D01*
X207659Y-13152D01*
X210000Y-13618D01*
X211250D01*
Y-19750D01*
X220588D01*
X220730Y-19778D01*
X220873Y-19750D01*
X223245D01*
X223528Y-19951D01*
X224725Y-20980D01*
X224254Y-22250D01*
X210250D01*
Y-47750D01*
X213932D01*
X214348Y-49841D01*
X215674Y-51826D01*
X230906Y-67057D01*
X231891Y-68119D01*
X232597Y-69002D01*
X233137Y-69778D01*
X233250Y-69975D01*
Y-84750D01*
X236078D01*
X236115Y-84840D01*
X236237Y-85295D01*
X236343Y-85936D01*
X236383Y-86382D01*
Y-89112D01*
X236343Y-89554D01*
X236238Y-90190D01*
X236116Y-90640D01*
X236071Y-90750D01*
X230250D01*
Y-108250D01*
X253125D01*
X253687Y-109389D01*
X253645Y-109444D01*
X252335Y-112606D01*
X251888Y-116000D01*
X252335Y-119394D01*
X252873Y-120694D01*
X252168Y-121750D01*
X230250D01*
Y-139250D01*
X241678D01*
X241975Y-139380D01*
X242601Y-139734D01*
X243300Y-140210D01*
X244836Y-141488D01*
X246383Y-143034D01*
Y-149275D01*
X246379Y-149436D01*
X246374Y-149500D01*
X245750D01*
Y-152388D01*
X245722Y-152530D01*
X245728Y-152562D01*
X245722Y-152594D01*
X245750Y-152719D01*
Y-164882D01*
X241229D01*
X240846Y-164585D01*
X240278Y-163969D01*
X240250Y-163827D01*
Y-149500D01*
X226750D01*
Y-163827D01*
X226722Y-163969D01*
X226739Y-164055D01*
X226727Y-164142D01*
X226750Y-164232D01*
Y-167000D01*
X227373D01*
X227383Y-167141D01*
Y-168750D01*
X227848Y-171091D01*
X228012Y-171336D01*
X225174Y-174174D01*
X223848Y-176159D01*
X223382Y-178500D01*
Y-188466D01*
X214716Y-197132D01*
X201864D01*
X201409Y-195863D01*
X203855Y-193855D01*
X206292Y-190886D01*
X208103Y-187498D01*
X209218Y-183823D01*
X209594Y-180000D01*
X209218Y-176177D01*
X208103Y-172502D01*
X206292Y-169114D01*
X203855Y-166145D01*
X200886Y-163708D01*
X197498Y-161897D01*
X193823Y-160782D01*
X190000Y-160406D01*
X186177Y-160782D01*
X182502Y-161897D01*
X179114Y-163708D01*
X176145Y-166145D01*
X173708Y-169114D01*
X171897Y-172502D01*
X170888Y-175830D01*
X169618Y-175641D01*
Y-172500D01*
X169152Y-170159D01*
X167826Y-168174D01*
X158326Y-158674D01*
X156341Y-157348D01*
X154000Y-156882D01*
X150250D01*
Y-151750D01*
X132750D01*
Y-176250D01*
X141882D01*
X142313Y-177520D01*
X141581Y-178081D01*
X140083Y-180035D01*
X139141Y-182309D01*
X138819Y-184750D01*
X139141Y-187191D01*
X140083Y-189465D01*
X140181Y-189593D01*
Y-203000D01*
X140456Y-205088D01*
X141262Y-207034D01*
X142544Y-208706D01*
X154258Y-220420D01*
X153732Y-221690D01*
X107250D01*
Y-205423D01*
X107278Y-205280D01*
X107250Y-205138D01*
Y-202250D01*
X105068D01*
X104919Y-201714D01*
X104780Y-200955D01*
X104584Y-198644D01*
X104560Y-197344D01*
Y-175250D01*
X109000D01*
Y-164000D01*
Y-152750D01*
X104560D01*
Y-148949D01*
X127047Y-111335D01*
X128272Y-111762D01*
X128024Y-113648D01*
X128427Y-116716D01*
X129611Y-119574D01*
X131495Y-122028D01*
X133949Y-123912D01*
X136808Y-125096D01*
X139875Y-125500D01*
X142942Y-125096D01*
X145801Y-123912D01*
X148255Y-122028D01*
X150139Y-119574D01*
X178889Y-69777D01*
X180073Y-66919D01*
X180476Y-63852D01*
X180073Y-60784D01*
X178889Y-57926D01*
X177005Y-55472D01*
X174551Y-53588D01*
X171692Y-52404D01*
X168625Y-52000D01*
X165558Y-52404D01*
X163165Y-53395D01*
X162290Y-52383D01*
X174528Y-31912D01*
X174550Y-31862D01*
X174583Y-31820D01*
X174915Y-31018D01*
X175260Y-30220D01*
X175268Y-30167D01*
X175288Y-30117D01*
X175402Y-29255D01*
X175528Y-28397D01*
X175522Y-28343D01*
X175529Y-28289D01*
Y-20456D01*
X176657Y-19328D01*
X177655Y-18399D01*
X178675Y-17583D01*
X178980Y-17376D01*
X180250Y-18048D01*
Y-19750D01*
X197750D01*
Y-3317D01*
X199020Y-3192D01*
X199348Y-4841D01*
D02*
G37*
G36*
X-242826Y18100D02*
X-242225Y16400D01*
X-241223Y14900D01*
X-239821Y13600D01*
X-238018Y12500D01*
X-235815Y11600D01*
X-233211Y10900D01*
X-230206Y10400D01*
X-226801Y10100D01*
X-222995Y10000D01*
Y-10000D01*
X-226801Y-10100D01*
X-230206Y-10400D01*
X-233211Y-10900D01*
X-235815Y-11600D01*
X-238018Y-12500D01*
X-239821Y-13600D01*
X-241223Y-14900D01*
X-242225Y-16400D01*
X-242826Y-18100D01*
X-243026Y-20000D01*
Y20000D01*
X-242826Y18100D01*
D02*
G37*
G36*
X225538Y-5358D02*
X225490Y-6033D01*
X225578Y-6756D01*
X225800Y-7530D01*
X226157Y-8354D01*
X226649Y-9227D01*
X227275Y-10151D01*
X228036Y-11124D01*
X228932Y-12147D01*
X229962Y-13219D01*
X229219Y-20962D01*
X227832Y-19617D01*
X225415Y-17540D01*
X224387Y-16809D01*
X223479Y-16282D01*
X222690Y-15960D01*
X222021Y-15843D01*
X221472Y-15930D01*
X221043Y-16223D01*
X220734Y-16719D01*
X225720Y-4734D01*
X225538Y-5358D01*
D02*
G37*
G36*
X345005Y-18563D02*
X345125Y-20327D01*
X345180Y-20645D01*
X345245Y-20915D01*
X345320Y-21135D01*
X345405Y-21307D01*
X345500Y-21429D01*
X338500D01*
X338595Y-21307D01*
X338680Y-21135D01*
X338755Y-20915D01*
X338820Y-20645D01*
X338875Y-20327D01*
X338955Y-19543D01*
X338995Y-18563D01*
X339000Y-18000D01*
X345000D01*
X345005Y-18563D01*
D02*
G37*
G36*
X-287973Y-22496D02*
X-288114Y-22212D01*
X-288534Y-21958D01*
X-289236Y-21733D01*
X-290218Y-21539D01*
X-291480Y-21374D01*
X-294846Y-21135D01*
X-302000Y-21000D01*
Y4000D01*
X-299335Y4015D01*
X-289236Y4733D01*
X-288534Y4958D01*
X-288114Y5212D01*
X-287973Y5496D01*
Y-22496D01*
D02*
G37*
G36*
X280703Y-20780D02*
X280240Y-20959D01*
X279833Y-21260D01*
X279479Y-21679D01*
X279180Y-22220D01*
X278935Y-22880D01*
X278745Y-23660D01*
X278609Y-24560D01*
X278527Y-25580D01*
X278500Y-26720D01*
X272500D01*
X272473Y-25580D01*
X272391Y-24560D01*
X272255Y-23660D01*
X272065Y-22880D01*
X271820Y-22220D01*
X271521Y-21679D01*
X271168Y-21260D01*
X270760Y-20959D01*
X270297Y-20780D01*
X269781Y-20719D01*
X281220D01*
X280703Y-20780D01*
D02*
G37*
G36*
X244280Y-30220D02*
X244228Y-30083D01*
X244069Y-29960D01*
X243805Y-29853D01*
X243436Y-29759D01*
X242960Y-29680D01*
X242379Y-29615D01*
X240901Y-29529D01*
X239000Y-29500D01*
Y-23500D01*
X240003Y-23493D01*
X243436Y-23241D01*
X243805Y-23147D01*
X244069Y-23040D01*
X244228Y-22917D01*
X244280Y-22780D01*
Y-30220D01*
D02*
G37*
G36*
X240750Y7750D02*
X243578D01*
X243615Y7660D01*
X243737Y7204D01*
X243843Y6564D01*
X243883Y6118D01*
Y807D01*
X243851Y410D01*
X243751Y-248D01*
X243635Y-723D01*
X243625Y-750D01*
X241250D01*
Y-3638D01*
X241222Y-3780D01*
X241250Y-3923D01*
Y-4036D01*
X241242Y-4133D01*
X241250Y-4158D01*
Y-14250D01*
X258750D01*
Y-4158D01*
X258758Y-4133D01*
X258750Y-4036D01*
Y-3923D01*
X258778Y-3780D01*
X258750Y-3638D01*
Y-750D01*
X256375D01*
X256365Y-723D01*
X256249Y-248D01*
X256149Y410D01*
X256117Y807D01*
Y6381D01*
X256135Y6653D01*
X256222Y7354D01*
X256301Y7750D01*
X258250D01*
X259022Y6800D01*
X259348Y5159D01*
X260674Y3174D01*
X265674Y-1826D01*
X267659Y-3152D01*
X270000Y-3618D01*
X295260D01*
X296096Y-3660D01*
X296250Y-3677D01*
Y-4750D01*
X299131D01*
X299271Y-4778D01*
X299416Y-4750D01*
X305392D01*
Y-20000D01*
X305750Y-21798D01*
Y-30250D01*
X305750D01*
X305418Y-31383D01*
X282534D01*
X281618Y-30466D01*
Y-25307D01*
X281649Y-24910D01*
X281749Y-24252D01*
X281865Y-23777D01*
X281875Y-23750D01*
X284250D01*
Y-20862D01*
X284278Y-20719D01*
X284250Y-20577D01*
Y-20464D01*
X284258Y-20367D01*
X284250Y-20342D01*
Y-10250D01*
X266750D01*
Y-20342D01*
X266742Y-20367D01*
X266750Y-20464D01*
Y-20577D01*
X266722Y-20719D01*
X266750Y-20862D01*
Y-23750D01*
X269125D01*
X269135Y-23777D01*
X269251Y-24252D01*
X269351Y-24910D01*
X269382Y-25307D01*
Y-33000D01*
X269848Y-35341D01*
X271174Y-37326D01*
X275674Y-41826D01*
X277659Y-43152D01*
X280000Y-43618D01*
X304382D01*
Y-64193D01*
X304351Y-64590D01*
X304251Y-65248D01*
X304135Y-65723D01*
X304125Y-65750D01*
X301750D01*
Y-68638D01*
X301722Y-68780D01*
X301750Y-68923D01*
Y-69036D01*
X301742Y-69133D01*
X301750Y-69158D01*
Y-89480D01*
X301750Y-90250D01*
X300687Y-90750D01*
X295816D01*
X295314Y-90395D01*
X293465Y-88814D01*
X284033Y-79382D01*
X282983Y-78254D01*
X282238Y-77330D01*
X281750Y-76636D01*
Y-60250D01*
X264250D01*
Y-84750D01*
X271479D01*
X271785Y-84925D01*
X272520Y-85434D01*
X274199Y-86850D01*
X286718Y-99369D01*
X287243Y-99965D01*
X287931Y-100833D01*
X288451Y-101589D01*
X288750Y-102113D01*
Y-108250D01*
X302250D01*
Y-91520D01*
X302250Y-90750D01*
X303313Y-90250D01*
X319250D01*
Y-69158D01*
X319258Y-69133D01*
X319250Y-69036D01*
Y-68923D01*
X319278Y-68780D01*
X319250Y-68638D01*
Y-65750D01*
X316875D01*
X316865Y-65723D01*
X316749Y-65248D01*
X316649Y-64590D01*
X316618Y-64193D01*
Y-41191D01*
X332683Y-25126D01*
X334004Y-25557D01*
X334206Y-27088D01*
X335012Y-29035D01*
X336294Y-30706D01*
X337966Y-31988D01*
X339912Y-32794D01*
X342000Y-33069D01*
X344088Y-32794D01*
X346035Y-31988D01*
X347706Y-30706D01*
X348988Y-29035D01*
X349794Y-27088D01*
X350069Y-25000D01*
X349794Y-22912D01*
X348988Y-20965D01*
X348161Y-19888D01*
X348117Y-19250D01*
Y-14955D01*
X349388Y-14524D01*
X350294Y-15706D01*
X351965Y-16988D01*
X353912Y-17794D01*
X356000Y-18069D01*
X358088Y-17794D01*
X360034Y-16988D01*
X361706Y-15706D01*
X362988Y-14035D01*
X363794Y-12088D01*
X364069Y-10000D01*
X363794Y-7912D01*
X362988Y-5965D01*
X362161Y-4888D01*
X362118Y-4250D01*
Y-1000D01*
X361652Y1341D01*
X360326Y3326D01*
X347650Y16002D01*
X348136Y17175D01*
X361250D01*
X362034Y17252D01*
X362119Y17224D01*
X362795Y16919D01*
X363547Y16505D01*
X365200Y15380D01*
X369883Y11519D01*
Y-73466D01*
X348791Y-94558D01*
X347617Y-94072D01*
Y-91807D01*
X347649Y-91410D01*
X347749Y-90752D01*
X347865Y-90277D01*
X347875Y-90250D01*
X350250D01*
Y-87362D01*
X350278Y-87219D01*
X350250Y-87077D01*
Y-86964D01*
X350258Y-86867D01*
X350250Y-86842D01*
Y-65750D01*
X332750D01*
Y-86842D01*
X332742Y-86867D01*
X332750Y-86964D01*
Y-87077D01*
X332722Y-87219D01*
X332750Y-87362D01*
Y-90250D01*
X335125D01*
X335135Y-90277D01*
X335251Y-90752D01*
X335351Y-91410D01*
X335382Y-91807D01*
Y-93966D01*
X323424Y-105924D01*
X322098Y-107909D01*
X321632Y-110250D01*
Y-146840D01*
X320363Y-147226D01*
X319326Y-145674D01*
X311117Y-137466D01*
Y-133975D01*
X311121Y-133814D01*
X311126Y-133750D01*
X311750D01*
Y-130862D01*
X311778Y-130719D01*
X311772Y-130688D01*
X311778Y-130656D01*
X311750Y-130531D01*
Y-116250D01*
X301658D01*
X301633Y-116242D01*
X301536Y-116250D01*
X301423D01*
X301280Y-116222D01*
X301138Y-116250D01*
X298250D01*
Y-118625D01*
X298223Y-118635D01*
X297748Y-118751D01*
X297090Y-118851D01*
X296693Y-118883D01*
X294307D01*
X293910Y-118851D01*
X293252Y-118751D01*
X292777Y-118635D01*
X292750Y-118625D01*
Y-116250D01*
X289862D01*
X289720Y-116222D01*
X289577Y-116250D01*
X289464D01*
X289367Y-116242D01*
X289342Y-116250D01*
X279360D01*
X278904Y-116159D01*
X278105Y-115948D01*
X277665Y-112606D01*
X276355Y-109444D01*
X274272Y-106728D01*
X271556Y-104644D01*
X268394Y-103335D01*
X265000Y-102888D01*
X261606Y-103335D01*
X258444Y-104644D01*
X256020Y-106504D01*
X254750Y-106076D01*
Y-90750D01*
X248929D01*
X248884Y-90640D01*
X248762Y-90190D01*
X248657Y-89554D01*
X248617Y-89112D01*
Y-86119D01*
X248635Y-85847D01*
X248722Y-85146D01*
X248801Y-84750D01*
X250750D01*
Y-81868D01*
X250778Y-81728D01*
X250750Y-81583D01*
Y-60250D01*
X241889D01*
X241147Y-59731D01*
X239384Y-58232D01*
X230090Y-48939D01*
X229750Y-47750D01*
X229750D01*
X229750Y-47750D01*
Y-27561D01*
X230923Y-27075D01*
X234674Y-30826D01*
X236659Y-32152D01*
X239000Y-32617D01*
X241250D01*
Y-33250D01*
X244085D01*
X244207Y-33277D01*
X244244Y-33271D01*
X244280Y-33278D01*
X244423Y-33250D01*
X258750D01*
Y-19750D01*
X244423D01*
X244280Y-19722D01*
X244244Y-19729D01*
X244207Y-19723D01*
X244085Y-19750D01*
X241250D01*
X241250Y-19750D01*
Y-19750D01*
X240264Y-19113D01*
X230880Y-9728D01*
X230393Y-9172D01*
X229748Y-8348D01*
X229251Y-7616D01*
X228901Y-6992D01*
X228750Y-6645D01*
Y-4880D01*
X228778Y-4739D01*
X228750Y-4595D01*
Y-4516D01*
X228760Y-4401D01*
X228750Y-4369D01*
Y4750D01*
X228750D01*
Y5250D01*
X228750D01*
Y28883D01*
X240750D01*
Y7750D01*
D02*
G37*
G36*
X313527Y-63920D02*
X313609Y-64941D01*
X313745Y-65841D01*
X313935Y-66620D01*
X314180Y-67281D01*
X314479Y-67821D01*
X314833Y-68240D01*
X315240Y-68541D01*
X315703Y-68720D01*
X316220Y-68780D01*
X304781D01*
X305297Y-68720D01*
X305760Y-68541D01*
X306168Y-68240D01*
X306521Y-67821D01*
X306820Y-67281D01*
X307065Y-66620D01*
X307255Y-65841D01*
X307391Y-64941D01*
X307473Y-63920D01*
X307500Y-62780D01*
X313500D01*
X313527Y-63920D01*
D02*
G37*
G36*
X237036Y-60251D02*
X239276Y-62154D01*
X240260Y-62843D01*
X241154Y-63358D01*
X241957Y-63698D01*
X242670Y-63863D01*
X243292Y-63854D01*
X243824Y-63670D01*
X244266Y-63311D01*
X236311Y-72266D01*
X236625Y-71779D01*
X236774Y-71213D01*
X236759Y-70565D01*
X236578Y-69837D01*
X236233Y-69029D01*
X235724Y-68140D01*
X235049Y-67171D01*
X234210Y-66121D01*
X232038Y-63780D01*
X235781Y-59038D01*
X237036Y-60251D01*
D02*
G37*
G36*
X278308Y-74653D02*
X278106Y-75168D01*
X278084Y-75778D01*
X278242Y-76483D01*
X278580Y-77284D01*
X279097Y-78180D01*
X279794Y-79172D01*
X280670Y-80259D01*
X282962Y-82719D01*
X277719Y-85962D01*
X276531Y-84816D01*
X274381Y-83003D01*
X273419Y-82336D01*
X272533Y-81829D01*
X271722Y-81481D01*
X270987Y-81294D01*
X270327Y-81266D01*
X269743Y-81397D01*
X269234Y-81689D01*
X278689Y-74234D01*
X278308Y-74653D01*
D02*
G37*
G36*
X247719Y-81720D02*
X247298Y-81779D01*
X246921Y-81959D01*
X246588Y-82260D01*
X246299Y-82680D01*
X246055Y-83219D01*
X245855Y-83879D01*
X245700Y-84660D01*
X245589Y-85560D01*
X245522Y-86580D01*
X245500Y-87719D01*
X239500D01*
X239470Y-86575D01*
X239380Y-85551D01*
X239230Y-84647D01*
X239020Y-83864D01*
X238750Y-83201D01*
X238420Y-82658D01*
X238030Y-82235D01*
X237580Y-81933D01*
X237070Y-81751D01*
X236500Y-81689D01*
X247719Y-81720D01*
D02*
G37*
G36*
X346703Y-87280D02*
X346241Y-87459D01*
X345833Y-87760D01*
X345479Y-88180D01*
X345180Y-88720D01*
X344935Y-89380D01*
X344745Y-90160D01*
X344609Y-91060D01*
X344527Y-92079D01*
X344500Y-93219D01*
X338500D01*
X338473Y-92079D01*
X338391Y-91060D01*
X338255Y-90160D01*
X338065Y-89380D01*
X337820Y-88720D01*
X337521Y-88180D01*
X337167Y-87760D01*
X336759Y-87459D01*
X336297Y-87280D01*
X335780Y-87219D01*
X347220D01*
X346703Y-87280D01*
D02*
G37*
G36*
X245530Y-88920D02*
X245620Y-89941D01*
X245770Y-90841D01*
X245980Y-91621D01*
X246250Y-92281D01*
X246580Y-92821D01*
X246970Y-93240D01*
X247420Y-93540D01*
X247930Y-93721D01*
X248500Y-93780D01*
X236500D01*
X237070Y-93721D01*
X237580Y-93540D01*
X238030Y-93240D01*
X238420Y-92821D01*
X238750Y-92281D01*
X239020Y-91621D01*
X239230Y-90841D01*
X239380Y-89941D01*
X239470Y-88920D01*
X239500Y-87781D01*
X245500D01*
X245530Y-88920D01*
D02*
G37*
G36*
X291103Y-90819D02*
X293433Y-92811D01*
X294439Y-93523D01*
X295340Y-94045D01*
X296136Y-94377D01*
X296827Y-94520D01*
X297412Y-94473D01*
X297892Y-94237D01*
X298266Y-93811D01*
X291811Y-104266D01*
X292058Y-103712D01*
X292155Y-103093D01*
X292102Y-102408D01*
X291899Y-101658D01*
X291547Y-100842D01*
X291044Y-99961D01*
X290392Y-99014D01*
X289591Y-98002D01*
X288639Y-96924D01*
X287538Y-95780D01*
X289781Y-89538D01*
X291103Y-90819D01*
D02*
G37*
G36*
X-183394Y-12665D02*
X-180000Y-13112D01*
X-97893D01*
X-96977Y-19290D01*
X-94619Y-28702D01*
X-91350Y-37839D01*
X-87202Y-46610D01*
X-82213Y-54933D01*
X-76433Y-62727D01*
X-69917Y-69917D01*
X-69881Y-69881D01*
X-68372Y-71039D01*
X-66069Y-73342D01*
Y-104608D01*
X-67339Y-105039D01*
X-68294Y-103794D01*
X-69966Y-102512D01*
X-71912Y-101706D01*
X-74000Y-101431D01*
X-76088Y-101706D01*
X-78035Y-102512D01*
X-79706Y-103794D01*
X-80988Y-105465D01*
X-81794Y-107412D01*
X-82069Y-109500D01*
Y-119252D01*
X-82109Y-119556D01*
Y-142250D01*
X-83638D01*
X-83780Y-142222D01*
X-83923Y-142250D01*
X-84036D01*
X-84133Y-142242D01*
X-84158Y-142250D01*
X-101842D01*
X-101867Y-142242D01*
X-101964Y-142250D01*
X-102077D01*
X-102219Y-142222D01*
X-102362Y-142250D01*
X-105638D01*
X-105780Y-142222D01*
X-105923Y-142250D01*
X-106036D01*
X-106133Y-142242D01*
X-106158Y-142250D01*
X-127250D01*
Y-150679D01*
X-128423Y-151165D01*
X-131834Y-147754D01*
X-133505Y-146472D01*
X-135452Y-145666D01*
X-137540Y-145391D01*
X-164019D01*
X-164580Y-144252D01*
X-163611Y-142989D01*
X-162427Y-140131D01*
X-162024Y-137063D01*
X-162428Y-133996D01*
X-163611Y-131138D01*
X-168235Y-123130D01*
X-168123Y-122948D01*
X-167300Y-122209D01*
X-165650Y-122892D01*
X-163562Y-123167D01*
X-161473Y-122892D01*
X-159527Y-122086D01*
X-157856Y-120804D01*
X-156574Y-119133D01*
X-155768Y-117187D01*
X-155493Y-115098D01*
X-155768Y-113010D01*
X-155981Y-112495D01*
X-154839Y-111932D01*
X-150139Y-120074D01*
X-148255Y-122528D01*
X-145801Y-124412D01*
X-142942Y-125596D01*
X-139875Y-126000D01*
X-136808Y-125596D01*
X-133949Y-124412D01*
X-131495Y-122528D01*
X-129611Y-120074D01*
X-128427Y-117216D01*
X-128024Y-114148D01*
X-128427Y-111081D01*
X-129611Y-108223D01*
X-158361Y-58426D01*
X-160245Y-55972D01*
X-162699Y-54088D01*
X-165558Y-52904D01*
X-168625Y-52500D01*
X-171692Y-52904D01*
X-174551Y-54088D01*
X-177005Y-55972D01*
X-178889Y-58426D01*
X-180073Y-61284D01*
X-180190Y-62174D01*
X-181487Y-62298D01*
X-184218Y-54091D01*
X-187608Y-40812D01*
X-190041Y-27324D01*
X-191506Y-13697D01*
X-191525Y-13164D01*
X-190643Y-12250D01*
X-184396D01*
X-183394Y-12665D01*
D02*
G37*
G36*
X301280Y-130719D02*
X308720D01*
X308583Y-130779D01*
X308461Y-130960D01*
X308353Y-131259D01*
X308259Y-131679D01*
X308180Y-132219D01*
X308065Y-133659D01*
X308000Y-136720D01*
X302000D01*
X301993Y-135580D01*
X301741Y-131679D01*
X301647Y-131259D01*
X301539Y-130960D01*
X301417Y-130779D01*
X301280Y-130719D01*
X301220Y-130203D01*
X301040Y-129740D01*
X300741Y-129333D01*
X300320Y-128979D01*
X299781Y-128680D01*
X299121Y-128435D01*
X298340Y-128245D01*
X297440Y-128109D01*
X296420Y-128027D01*
X295500Y-128005D01*
X294580Y-128027D01*
X293559Y-128109D01*
X292659Y-128245D01*
X291880Y-128435D01*
X291220Y-128680D01*
X290679Y-128979D01*
X290259Y-129333D01*
X289960Y-129740D01*
X289779Y-130203D01*
X289720Y-130719D01*
Y-119281D01*
X289779Y-119797D01*
X289960Y-120260D01*
X290259Y-120667D01*
X290679Y-121021D01*
X291220Y-121320D01*
X291880Y-121565D01*
X292659Y-121755D01*
X293559Y-121891D01*
X294580Y-121973D01*
X295500Y-121995D01*
X296420Y-121973D01*
X297440Y-121891D01*
X298340Y-121755D01*
X299121Y-121565D01*
X299781Y-121320D01*
X300320Y-121021D01*
X300741Y-120667D01*
X301040Y-120260D01*
X301220Y-119797D01*
X301280Y-119281D01*
Y-130719D01*
D02*
G37*
G36*
X279250Y-117087D02*
Y-133750D01*
X289342D01*
X289367Y-133758D01*
X289464Y-133750D01*
X289577D01*
X289720Y-133778D01*
X289862Y-133750D01*
X292750D01*
Y-131375D01*
X292777Y-131365D01*
X293252Y-131249D01*
X293910Y-131149D01*
X294307Y-131117D01*
X296693D01*
X297090Y-131149D01*
X297748Y-131249D01*
X298223Y-131365D01*
X298250Y-131375D01*
Y-133750D01*
X298810D01*
X298883Y-134879D01*
Y-140000D01*
X299348Y-142341D01*
X300674Y-144326D01*
X308883Y-152534D01*
Y-163250D01*
X296469D01*
X296344Y-163222D01*
X296312Y-163228D01*
X296280Y-163222D01*
X296138Y-163250D01*
X293250D01*
Y-163810D01*
X292121Y-163883D01*
X290250D01*
Y-150250D01*
X269061D01*
X268980Y-150228D01*
X268907Y-150238D01*
X268836Y-150222D01*
X268682Y-150250D01*
X265750D01*
Y-153000D01*
X265728Y-153081D01*
X265698Y-153544D01*
X265637Y-153865D01*
X265518Y-154253D01*
X265329Y-154708D01*
X265059Y-155225D01*
X264704Y-155800D01*
X264281Y-156394D01*
X263360Y-157489D01*
X260423Y-160425D01*
X259250Y-159939D01*
Y-152719D01*
X259278Y-152594D01*
X259272Y-152562D01*
X259278Y-152530D01*
X259250Y-152388D01*
Y-149500D01*
X258690D01*
X258617Y-148371D01*
Y-140500D01*
X258152Y-138159D01*
X256826Y-136174D01*
X255464Y-134812D01*
X254971Y-134251D01*
X254750Y-133967D01*
Y-125924D01*
X256020Y-125496D01*
X258444Y-127355D01*
X261606Y-128665D01*
X265000Y-129112D01*
X268394Y-128665D01*
X271556Y-127355D01*
X274272Y-125272D01*
X276355Y-122556D01*
X277665Y-119394D01*
X277980Y-117004D01*
X279250Y-117087D01*
D02*
G37*
G36*
X251182Y-131528D02*
X250853Y-131915D01*
X250702Y-132396D01*
X250729Y-132970D01*
X250933Y-133638D01*
X251315Y-134399D01*
X251875Y-135253D01*
X252613Y-136202D01*
X253528Y-137243D01*
X254621Y-138379D01*
X248220Y-140462D01*
X247143Y-139428D01*
X245143Y-137765D01*
X244218Y-137135D01*
X243344Y-136640D01*
X242521Y-136280D01*
X241749Y-136055D01*
X241027Y-135965D01*
X240355Y-136010D01*
X239734Y-136189D01*
X251689Y-131234D01*
X251182Y-131528D01*
D02*
G37*
G36*
X-257681Y-124130D02*
X-257381Y-124889D01*
X-256881Y-125560D01*
X-256181Y-126141D01*
X-255281Y-126633D01*
X-254181Y-127035D01*
X-252881Y-127348D01*
X-251381Y-127571D01*
X-249681Y-127705D01*
X-247781Y-127750D01*
Y-137750D01*
X-249685Y-137800D01*
X-251389Y-137950D01*
X-252893Y-138200D01*
X-254196Y-138550D01*
X-255299Y-139000D01*
X-256202Y-139550D01*
X-256905Y-140200D01*
X-257407Y-140950D01*
X-257709Y-141800D01*
X-257811Y-142750D01*
X-257781Y-123280D01*
X-257681Y-124130D01*
D02*
G37*
G36*
X-102219Y-147849D02*
X-101940Y-147891D01*
X-100920Y-147973D01*
X-99781Y-148000D01*
Y-154000D01*
X-100920Y-154027D01*
X-101940Y-154109D01*
X-102219Y-154151D01*
Y-156720D01*
X-102280Y-156203D01*
X-102459Y-155740D01*
X-102760Y-155333D01*
X-103180Y-154979D01*
X-103720Y-154680D01*
X-104000Y-154576D01*
X-104281Y-154680D01*
X-104820Y-154979D01*
X-105240Y-155333D01*
X-105541Y-155740D01*
X-105721Y-156203D01*
X-105780Y-156720D01*
Y-154151D01*
X-106060Y-154109D01*
X-107079Y-154027D01*
X-108219Y-154000D01*
Y-148392D01*
X-108929Y-154000D01*
X-109496Y-154003D01*
X-111823Y-154166D01*
X-112032Y-154217D01*
X-112190Y-154275D01*
X-112297Y-154340D01*
X-111597Y-147375D01*
X-111473Y-147493D01*
X-111300Y-147600D01*
X-111078Y-147694D01*
X-110808Y-147775D01*
X-110490Y-147844D01*
X-110123Y-147900D01*
X-109243Y-147975D01*
X-108195Y-147999D01*
X-107079Y-147973D01*
X-106060Y-147891D01*
X-105780Y-147849D01*
Y-145281D01*
X-105721Y-145797D01*
X-105541Y-146259D01*
X-105240Y-146667D01*
X-104820Y-147021D01*
X-104281Y-147320D01*
X-104000Y-147424D01*
X-103720Y-147320D01*
X-103180Y-147021D01*
X-102760Y-146667D01*
X-102459Y-146259D01*
X-102280Y-145797D01*
X-102219Y-145281D01*
Y-147849D01*
D02*
G37*
G36*
X-308158Y-143219D02*
X-308245Y-143246D01*
X-308414Y-143361D01*
X-308665Y-143564D01*
X-309910Y-144704D01*
X-312719Y-147462D01*
X-317121Y-143379D01*
X-316624Y-142878D01*
X-314702Y-140702D01*
X-314719Y-140658D01*
X-308158Y-143219D01*
D02*
G37*
G36*
X-68990Y-137181D02*
X-68840Y-138881D01*
X-68590Y-140380D01*
X-68240Y-141680D01*
X-67790Y-142781D01*
X-67240Y-143680D01*
X-66590Y-144381D01*
X-65840Y-144881D01*
X-64990Y-145181D01*
X-64040Y-145281D01*
X-78219D01*
Y-147495D01*
X-77573Y-147462D01*
Y-154538D01*
X-77775Y-154436D01*
X-78164Y-154344D01*
X-78219Y-154336D01*
Y-156720D01*
X-78280Y-156203D01*
X-78460Y-155740D01*
X-78759Y-155333D01*
X-79180Y-154979D01*
X-79720Y-154680D01*
X-80379Y-154435D01*
X-81000Y-154284D01*
X-81621Y-154435D01*
X-82281Y-154680D01*
X-82821Y-154979D01*
X-83240Y-155333D01*
X-83540Y-155740D01*
X-83721Y-156203D01*
X-83780Y-156720D01*
Y-154075D01*
X-88040Y-154000D01*
Y-148000D01*
X-83780Y-147781D01*
Y-145281D01*
X-83721Y-145797D01*
X-83540Y-146259D01*
X-83240Y-146667D01*
X-82821Y-147021D01*
X-82281Y-147320D01*
X-81621Y-147565D01*
X-81264Y-147652D01*
X-80595Y-147618D01*
X-80379Y-147565D01*
X-79720Y-147320D01*
X-79180Y-147021D01*
X-78759Y-146667D01*
X-78460Y-146259D01*
X-78280Y-145797D01*
X-78219Y-145281D01*
X-78375Y-145181D01*
X-78515Y-144881D01*
X-78638Y-144381D01*
X-78745Y-143680D01*
X-78909Y-141680D01*
X-79032Y-137181D01*
X-79040Y-135281D01*
X-69040D01*
X-68990Y-137181D01*
D02*
G37*
G36*
X-260064Y-136485D02*
X-260156Y-136874D01*
X-260236Y-137451D01*
X-260366Y-139169D01*
X-260437Y-143219D01*
X-257781D01*
X-258297Y-143279D01*
X-258760Y-143460D01*
X-259167Y-143759D01*
X-259521Y-144179D01*
X-259820Y-144719D01*
X-260065Y-145379D01*
X-260255Y-146159D01*
X-260391Y-147059D01*
X-260473Y-148080D01*
X-260500Y-149220D01*
X-266500D01*
X-266530Y-148080D01*
X-266620Y-147059D01*
X-266770Y-146159D01*
X-266980Y-145379D01*
X-267250Y-144719D01*
X-267580Y-144179D01*
X-267970Y-143759D01*
X-268420Y-143460D01*
X-268930Y-143279D01*
X-269500Y-143219D01*
X-266681D01*
X-267038Y-136283D01*
X-259962D01*
X-260064Y-136485D01*
D02*
G37*
G36*
X255507Y-147670D02*
X255759Y-151571D01*
X255853Y-151990D01*
X255961Y-152290D01*
X256083Y-152471D01*
X256220Y-152530D01*
X248780D01*
X248917Y-152471D01*
X249039Y-152290D01*
X249147Y-151990D01*
X249241Y-151571D01*
X249320Y-151031D01*
X249435Y-149591D01*
X249500Y-146531D01*
X255500D01*
X255507Y-147670D01*
D02*
G37*
G36*
X-70504Y-147451D02*
X-70351Y-147566D01*
X-70195Y-147668D01*
X-70035Y-147756D01*
X-69872Y-147831D01*
X-69704Y-147892D01*
X-69534Y-147939D01*
X-69359Y-147973D01*
X-69181Y-147993D01*
X-69000Y-148000D01*
Y-154000D01*
X-69181Y-154007D01*
X-69359Y-154027D01*
X-69534Y-154061D01*
X-69704Y-154108D01*
X-69872Y-154169D01*
X-70035Y-154244D01*
X-70195Y-154332D01*
X-70351Y-154434D01*
X-70504Y-154549D01*
X-70653Y-154678D01*
Y-147322D01*
X-70504Y-147451D01*
D02*
G37*
G36*
X-311970Y-158925D02*
X-311880Y-159949D01*
X-311730Y-160853D01*
X-311520Y-161636D01*
X-311250Y-162299D01*
X-310920Y-162842D01*
X-310530Y-163265D01*
X-310080Y-163567D01*
X-309570Y-163749D01*
X-309000Y-163811D01*
X-320219Y-163780D01*
X-319798Y-163720D01*
X-319421Y-163540D01*
X-319088Y-163241D01*
X-318799Y-162820D01*
X-318555Y-162281D01*
X-318355Y-161621D01*
X-318200Y-160840D01*
X-318089Y-159941D01*
X-318022Y-158920D01*
X-318000Y-157781D01*
X-312000D01*
X-311970Y-158925D01*
D02*
G37*
G36*
X273266Y-164689D02*
X272967Y-164188D01*
X272546Y-163892D01*
X272003Y-163804D01*
X271338Y-163922D01*
X270550Y-164246D01*
X269641Y-164776D01*
X268609Y-165513D01*
X267455Y-166456D01*
X264781Y-168962D01*
X264538Y-160720D01*
X265344Y-159881D01*
X266702Y-158268D01*
X267253Y-157493D01*
X267720Y-156738D01*
X268102Y-156005D01*
X268399Y-155293D01*
X268611Y-154601D01*
X268738Y-153930D01*
X268780Y-153280D01*
X273266Y-164689D01*
D02*
G37*
G36*
X237083Y-164017D02*
X236961Y-164161D01*
X236853Y-164400D01*
X236759Y-164734D01*
X236680Y-165165D01*
X236615Y-165690D01*
X236529Y-167029D01*
X236500Y-168750D01*
X230500D01*
X230493Y-167842D01*
X230320Y-165165D01*
X230241Y-164734D01*
X230147Y-164400D01*
X230040Y-164161D01*
X229917Y-164017D01*
X229781Y-163969D01*
X237220D01*
X237083Y-164017D01*
D02*
G37*
G36*
X-141595Y-169693D02*
X-141680Y-169865D01*
X-141755Y-170085D01*
X-141820Y-170355D01*
X-141875Y-170673D01*
X-141955Y-171457D01*
X-141995Y-172437D01*
X-142000Y-173000D01*
X-148000D01*
X-148005Y-172437D01*
X-148125Y-170673D01*
X-148180Y-170355D01*
X-148245Y-170085D01*
X-148320Y-169865D01*
X-148405Y-169693D01*
X-148500Y-169571D01*
X-141500D01*
X-141595Y-169693D01*
D02*
G37*
G36*
X296280Y-173720D02*
X296220Y-173583D01*
X296040Y-173461D01*
X295741Y-173353D01*
X295320Y-173259D01*
X294781Y-173180D01*
X293340Y-173065D01*
X290280Y-173000D01*
Y-167000D01*
X291420Y-166993D01*
X295320Y-166741D01*
X295741Y-166647D01*
X296040Y-166539D01*
X296220Y-166417D01*
X296280Y-166280D01*
Y-173720D01*
D02*
G37*
G36*
X-277753Y-164748D02*
X-277579Y-165221D01*
X-277288Y-165637D01*
X-276881Y-165999D01*
X-276358Y-166305D01*
X-275719Y-166555D01*
X-274964Y-166750D01*
X-274092Y-166889D01*
X-273104Y-166972D01*
X-272000Y-167000D01*
Y-173000D01*
X-273104Y-173028D01*
X-274092Y-173111D01*
X-274964Y-173250D01*
X-275719Y-173445D01*
X-276358Y-173695D01*
X-276881Y-174001D01*
X-277288Y-174362D01*
X-277579Y-174779D01*
X-277753Y-175252D01*
X-277811Y-175781D01*
Y-164219D01*
X-277753Y-164748D01*
D02*
G37*
G36*
X330775Y-170921D02*
X330972Y-172840D01*
X331145Y-173620D01*
X331367Y-174280D01*
X331639Y-174820D01*
X331960Y-175240D01*
X332331Y-175541D01*
X332750Y-175721D01*
X333219Y-175781D01*
X321781D01*
X322345Y-175721D01*
X322850Y-175541D01*
X323295Y-175240D01*
X323681Y-174820D01*
X324008Y-174280D01*
X324275Y-173620D01*
X324483Y-172840D01*
X324631Y-171940D01*
X324720Y-170921D01*
X324750Y-169781D01*
X330750D01*
X330775Y-170921D01*
D02*
G37*
G36*
X-102219Y-178849D02*
X-101940Y-178891D01*
X-100920Y-178973D01*
X-99781Y-179000D01*
Y-185000D01*
X-100920Y-185027D01*
X-101940Y-185109D01*
X-102219Y-185151D01*
Y-187719D01*
X-102280Y-187203D01*
X-102459Y-186740D01*
X-102760Y-186332D01*
X-103180Y-185979D01*
X-103720Y-185680D01*
X-104000Y-185576D01*
X-104281Y-185680D01*
X-104820Y-185979D01*
X-105240Y-186332D01*
X-105541Y-186740D01*
X-105721Y-187203D01*
X-105780Y-187719D01*
Y-185151D01*
X-106060Y-185109D01*
X-107079Y-185027D01*
X-108219Y-185000D01*
Y-179000D01*
X-107079Y-178973D01*
X-106060Y-178891D01*
X-105780Y-178849D01*
Y-176280D01*
X-105721Y-176797D01*
X-105541Y-177260D01*
X-105240Y-177667D01*
X-104820Y-178021D01*
X-104281Y-178320D01*
X-104000Y-178424D01*
X-103720Y-178320D01*
X-103180Y-178021D01*
X-102760Y-177667D01*
X-102459Y-177260D01*
X-102280Y-176797D01*
X-102219Y-176280D01*
Y-178849D01*
D02*
G37*
G36*
X-78219Y-178990D02*
X-77780Y-179000D01*
Y-185000D01*
X-78219Y-185011D01*
Y-187719D01*
X-78280Y-187203D01*
X-78460Y-186740D01*
X-78759Y-186332D01*
X-79180Y-185979D01*
X-79720Y-185680D01*
X-80379Y-185435D01*
X-81000Y-185284D01*
X-81621Y-185435D01*
X-82281Y-185680D01*
X-82821Y-185979D01*
X-83240Y-186332D01*
X-83540Y-186740D01*
X-83721Y-187203D01*
X-83780Y-187719D01*
Y-185011D01*
X-84220Y-185000D01*
Y-179000D01*
X-83780Y-178990D01*
Y-176280D01*
X-83721Y-176797D01*
X-83540Y-177260D01*
X-83240Y-177667D01*
X-82821Y-178021D01*
X-82281Y-178320D01*
X-81621Y-178565D01*
X-81000Y-178716D01*
X-80379Y-178565D01*
X-79720Y-178320D01*
X-79180Y-178021D01*
X-78759Y-177667D01*
X-78460Y-177260D01*
X-78280Y-176797D01*
X-78219Y-176280D01*
Y-178990D01*
D02*
G37*
G36*
X311962Y-186280D02*
X311156Y-187108D01*
X309247Y-189347D01*
X308780Y-190012D01*
X308398Y-190635D01*
X308101Y-191217D01*
X307889Y-191759D01*
X307762Y-192260D01*
X307719Y-192719D01*
X300234Y-185280D01*
X300702Y-185619D01*
X301255Y-185788D01*
X301892Y-185787D01*
X302613Y-185617D01*
X303419Y-185277D01*
X304310Y-184768D01*
X305286Y-184090D01*
X306346Y-183242D01*
X308720Y-181038D01*
X311962Y-186280D01*
D02*
G37*
G36*
X-309570Y-182251D02*
X-310080Y-182433D01*
X-310530Y-182735D01*
X-310920Y-183158D01*
X-311250Y-183701D01*
X-311520Y-184364D01*
X-311730Y-185147D01*
X-311880Y-186051D01*
X-311970Y-187075D01*
X-312000Y-188220D01*
X-318000D01*
X-318022Y-187080D01*
X-318200Y-185159D01*
X-318355Y-184380D01*
X-318555Y-183720D01*
X-318799Y-183179D01*
X-319088Y-182759D01*
X-319421Y-182460D01*
X-319798Y-182279D01*
X-320219Y-182220D01*
X-309000Y-182189D01*
X-309570Y-182251D01*
D02*
G37*
G36*
X246779Y-178405D02*
X246959Y-178739D01*
X247260Y-179035D01*
X247680Y-179291D01*
X248220Y-179508D01*
X248880Y-179685D01*
X249660Y-179823D01*
X250560Y-179921D01*
X252719Y-180000D01*
Y-186000D01*
X251575Y-186030D01*
X250551Y-186120D01*
X249648Y-186270D01*
X248864Y-186480D01*
X248201Y-186750D01*
X247658Y-187080D01*
X247235Y-187470D01*
X246933Y-187920D01*
X246751Y-188430D01*
X246689Y-189000D01*
X246719Y-178030D01*
X246779Y-178405D01*
D02*
G37*
G36*
X287279Y-184607D02*
X287460Y-184900D01*
X287759Y-185157D01*
X288179Y-185381D01*
X288720Y-185570D01*
X289380Y-185725D01*
X290159Y-185845D01*
X291059Y-185931D01*
X291940Y-185959D01*
X295320Y-185741D01*
X295741Y-185647D01*
X296040Y-185539D01*
X296220Y-185417D01*
X296280Y-185280D01*
Y-192719D01*
X296220Y-192583D01*
X296040Y-192460D01*
X295741Y-192353D01*
X295320Y-192259D01*
X294781Y-192180D01*
X293340Y-192065D01*
X292002Y-192036D01*
X291051Y-192120D01*
X290148Y-192270D01*
X289364Y-192480D01*
X288701Y-192750D01*
X288158Y-193080D01*
X287735Y-193470D01*
X287433Y-193920D01*
X287251Y-194430D01*
X287189Y-195000D01*
X287220Y-184280D01*
X287279Y-184607D01*
D02*
G37*
G36*
X-108570Y-187749D02*
X-109080Y-187930D01*
X-109530Y-188232D01*
X-109920Y-188654D01*
X-110250Y-189197D01*
X-110520Y-189860D01*
X-110730Y-190644D01*
X-110880Y-191549D01*
X-110970Y-192574D01*
X-111000Y-193720D01*
X-117000D01*
X-117030Y-192574D01*
X-117120Y-191549D01*
X-117270Y-190644D01*
X-117480Y-189860D01*
X-117750Y-189197D01*
X-118080Y-188654D01*
X-118470Y-188232D01*
X-118920Y-187930D01*
X-119430Y-187749D01*
X-120000Y-187689D01*
X-108000D01*
X-108570Y-187749D01*
D02*
G37*
G36*
X246583Y-189529D02*
X246460Y-189709D01*
X246353Y-190009D01*
X246259Y-190429D01*
X246180Y-190970D01*
X246065Y-192409D01*
X246000Y-195469D01*
X240000D01*
X239993Y-194329D01*
X239741Y-190429D01*
X239647Y-190009D01*
X239540Y-189709D01*
X239417Y-189529D01*
X239280Y-189470D01*
X246719D01*
X246583Y-189529D01*
D02*
G37*
G36*
X-152333Y-162799D02*
X-152794Y-163912D01*
X-153069Y-166000D01*
X-152794Y-168088D01*
X-151988Y-170035D01*
X-151161Y-171112D01*
X-151117Y-171750D01*
Y-183466D01*
X-165534Y-197882D01*
X-179476D01*
X-179785Y-196651D01*
X-179114Y-196292D01*
X-176145Y-193855D01*
X-173708Y-190886D01*
X-171897Y-187498D01*
X-170782Y-183823D01*
X-170406Y-180000D01*
X-170782Y-176177D01*
X-171897Y-172502D01*
X-173708Y-169114D01*
X-176145Y-166145D01*
X-179114Y-163708D01*
X-180814Y-162799D01*
X-180496Y-161529D01*
X-153182D01*
X-152333Y-162799D01*
D02*
G37*
G36*
X-317223Y-198920D02*
X-317141Y-199940D01*
X-317005Y-200840D01*
X-316815Y-201621D01*
X-316570Y-202281D01*
X-316271Y-202820D01*
X-315917Y-203241D01*
X-315509Y-203540D01*
X-315047Y-203720D01*
X-314531Y-203780D01*
X-325970D01*
X-325453Y-203720D01*
X-324991Y-203540D01*
X-324582Y-203241D01*
X-324229Y-202820D01*
X-323930Y-202281D01*
X-323685Y-201621D01*
X-323495Y-200840D01*
X-323359Y-199940D01*
X-323277Y-198920D01*
X-323250Y-197780D01*
X-317250D01*
X-317223Y-198920D01*
D02*
G37*
G36*
X-110973Y-199921D02*
X-110891Y-200940D01*
X-110755Y-201840D01*
X-110565Y-202621D01*
X-110320Y-203281D01*
X-110021Y-203820D01*
X-109667Y-204240D01*
X-109260Y-204541D01*
X-108797Y-204720D01*
X-108280Y-204781D01*
X-119719D01*
X-119203Y-204720D01*
X-118741Y-204541D01*
X-118333Y-204240D01*
X-117979Y-203820D01*
X-117680Y-203281D01*
X-117435Y-202621D01*
X-117245Y-201840D01*
X-117109Y-200940D01*
X-117027Y-199921D01*
X-117000Y-198780D01*
X-111000D01*
X-110973Y-199921D01*
D02*
G37*
G36*
X101527Y-198801D02*
X101745Y-201360D01*
X101935Y-202400D01*
X102180Y-203281D01*
X102479Y-204000D01*
X102833Y-204561D01*
X103240Y-204960D01*
X103703Y-205201D01*
X104220Y-205280D01*
X90780D01*
X91297Y-205201D01*
X91760Y-204960D01*
X92167Y-204561D01*
X92521Y-204000D01*
X92820Y-203281D01*
X93065Y-202400D01*
X93255Y-201360D01*
X93391Y-200161D01*
X93473Y-198801D01*
X93500Y-197281D01*
X101500D01*
X101527Y-198801D01*
D02*
G37*
G36*
X-119719Y-219000D02*
X-119780Y-218430D01*
X-119959Y-217920D01*
X-120260Y-217470D01*
X-120680Y-217080D01*
X-121220Y-216750D01*
X-121880Y-216480D01*
X-122660Y-216270D01*
X-123560Y-216120D01*
X-124579Y-216030D01*
X-125719Y-216000D01*
Y-210000D01*
X-124579Y-209970D01*
X-123560Y-209880D01*
X-122660Y-209730D01*
X-121880Y-209520D01*
X-121220Y-209250D01*
X-120680Y-208920D01*
X-120260Y-208530D01*
X-119959Y-208080D01*
X-119780Y-207570D01*
X-119719Y-207000D01*
Y-219000D01*
D02*
G37*
G36*
X-222223Y-214421D02*
X-222141Y-215441D01*
X-222005Y-216341D01*
X-221815Y-217120D01*
X-221570Y-217780D01*
X-221271Y-218321D01*
X-220917Y-218741D01*
X-220509Y-219041D01*
X-220047Y-219221D01*
X-219531Y-219280D01*
X-230970D01*
X-230453Y-219221D01*
X-229991Y-219041D01*
X-229583Y-218741D01*
X-229229Y-218321D01*
X-228930Y-217780D01*
X-228685Y-217120D01*
X-228495Y-216341D01*
X-228359Y-215441D01*
X-228277Y-214421D01*
X-228250Y-213281D01*
X-222250D01*
X-222223Y-214421D01*
D02*
G37*
G36*
X-300469Y-220720D02*
X-300525Y-220583D01*
X-300691Y-220460D01*
X-300967Y-220353D01*
X-301354Y-220259D01*
X-301852Y-220180D01*
X-303179Y-220065D01*
X-304949Y-220007D01*
X-306000Y-220000D01*
Y-214000D01*
X-304949Y-213993D01*
X-301354Y-213741D01*
X-300967Y-213647D01*
X-300691Y-213540D01*
X-300525Y-213417D01*
X-300469Y-213281D01*
Y-220720D01*
D02*
G37*
G36*
X-253258Y-223153D02*
X-253099Y-223540D01*
X-252833Y-223883D01*
X-252461Y-224179D01*
X-251983Y-224430D01*
X-251399Y-224635D01*
X-250709Y-224795D01*
X-249912Y-224909D01*
X-249009Y-224977D01*
X-248000Y-225000D01*
Y-231000D01*
X-249009Y-231023D01*
X-249912Y-231091D01*
X-250709Y-231205D01*
X-251399Y-231365D01*
X-251983Y-231570D01*
X-252461Y-231821D01*
X-252833Y-232117D01*
X-253099Y-232460D01*
X-253258Y-232847D01*
X-253311Y-233281D01*
Y-222719D01*
X-253258Y-223153D01*
D02*
G37*
G36*
X-175332Y-220883D02*
X-172915Y-222960D01*
X-171887Y-223691D01*
X-170979Y-224218D01*
X-170190Y-224540D01*
X-169521Y-224657D01*
X-168972Y-224570D01*
X-168543Y-224277D01*
X-168234Y-223780D01*
X-173220Y-235766D01*
X-173038Y-235142D01*
X-172990Y-234468D01*
X-173078Y-233744D01*
X-173300Y-232970D01*
X-173657Y-232146D01*
X-174149Y-231273D01*
X-174775Y-230350D01*
X-175536Y-229376D01*
X-176432Y-228353D01*
X-177462Y-227281D01*
X-176719Y-219538D01*
X-175332Y-220883D01*
D02*
G37*
G36*
X103798Y-224799D02*
X103420Y-225040D01*
X103088Y-225439D01*
X102799Y-226000D01*
X102555Y-226719D01*
X102355Y-227600D01*
X102200Y-228640D01*
X102190Y-228750D01*
X103250D01*
X103280Y-230092D01*
X103371Y-231292D01*
X103523Y-232351D01*
X103735Y-233269D01*
X104008Y-234046D01*
X104341Y-234681D01*
X104735Y-235175D01*
X105190Y-235529D01*
X105705Y-235740D01*
X106280Y-235811D01*
X92220D01*
X92452Y-235782D01*
X91531Y-235781D01*
X92000Y-235700D01*
X92420Y-235460D01*
X92790Y-235061D01*
X93111Y-234501D01*
X93383Y-233780D01*
X93605Y-232901D01*
X93778Y-231861D01*
X93901Y-230660D01*
X93904Y-230569D01*
X93710Y-228640D01*
X93485Y-227600D01*
X93195Y-226719D01*
X92841Y-226000D01*
X92422Y-225439D01*
X91939Y-225040D01*
X91392Y-224799D01*
X90780Y-224720D01*
X104220D01*
X103798Y-224799D01*
D02*
G37*
G36*
X265750Y-188570D02*
Y-198750D01*
X290250D01*
Y-195422D01*
X290340Y-195385D01*
X290796Y-195263D01*
X291436Y-195157D01*
X291882Y-195117D01*
X293025D01*
X293186Y-195121D01*
X293250Y-195126D01*
Y-195750D01*
X296138D01*
X296280Y-195778D01*
X296312Y-195772D01*
X296344Y-195778D01*
X296469Y-195750D01*
X306802D01*
X307328Y-197020D01*
X266098Y-238250D01*
X247870D01*
X247493Y-237790D01*
Y-236909D01*
X260326Y-224076D01*
X261652Y-222091D01*
X262118Y-219750D01*
Y-212500D01*
X261652Y-210159D01*
X260326Y-208174D01*
X249118Y-196966D01*
Y-192725D01*
X249121Y-192564D01*
X249126Y-192500D01*
X249750D01*
Y-189612D01*
X249778Y-189470D01*
X250992Y-189152D01*
X251382Y-189118D01*
X261000D01*
X263341Y-188652D01*
X264480Y-187891D01*
X265750Y-188570D01*
D02*
G37*
G36*
X240962Y-242446D02*
X239823Y-243627D01*
X238020Y-245767D01*
X237356Y-246726D01*
X236849Y-247612D01*
X236501Y-248423D01*
X236311Y-249161D01*
X236279Y-249825D01*
X236405Y-250415D01*
X236689Y-250931D01*
X229400Y-241311D01*
X229811Y-241700D01*
X230320Y-241907D01*
X230926Y-241933D01*
X231629Y-241777D01*
X232429Y-241441D01*
X233326Y-240923D01*
X234320Y-240224D01*
X235411Y-239343D01*
X237885Y-237038D01*
X240962Y-242446D01*
D02*
G37*
G36*
X-230939Y-245030D02*
X-230970Y-245025D01*
X-231061Y-245019D01*
X-234000Y-245000D01*
Y-239000D01*
X-230939Y-238969D01*
Y-245030D01*
D02*
G37*
G36*
X-37342Y-232553D02*
X-33655Y-235735D01*
X-32574Y-236513D01*
X-31567Y-237149D01*
X-30635Y-237644D01*
X-29776Y-237998D01*
X-28991Y-238210D01*
X-28280Y-238281D01*
X-41689Y-249423D01*
X-41068Y-248706D01*
X-40743Y-247834D01*
X-40713Y-246808D01*
X-40979Y-245626D01*
X-41542Y-244289D01*
X-42400Y-242798D01*
X-43554Y-241151D01*
X-45003Y-239349D01*
X-48791Y-235280D01*
X-38719Y-231210D01*
X-37342Y-232553D01*
D02*
G37*
G36*
X-28201Y-240260D02*
X-27961Y-240940D01*
X-27561Y-241540D01*
X-27001Y-242060D01*
X-26281Y-242500D01*
X-25401Y-242860D01*
X-24360Y-243140D01*
X-23161Y-243340D01*
X-21800Y-243460D01*
X-20280Y-243500D01*
Y-251500D01*
X-21800Y-251540D01*
X-23161Y-251660D01*
X-24360Y-251860D01*
X-25401Y-252140D01*
X-26281Y-252500D01*
X-27001Y-252940D01*
X-27561Y-253460D01*
X-27961Y-254060D01*
X-28201Y-254740D01*
X-28280Y-255500D01*
Y-239500D01*
X-28201Y-240260D01*
D02*
G37*
G36*
X333882Y-189158D02*
Y-193466D01*
X260053Y-267296D01*
X259413Y-267863D01*
X258508Y-268585D01*
X257735Y-269121D01*
X257509Y-269250D01*
X255221D01*
X255054Y-269227D01*
X254966Y-269250D01*
X245923D01*
X245781Y-269222D01*
X245638Y-269250D01*
X242750D01*
Y-270646D01*
X242525Y-270685D01*
X240944Y-270798D01*
X240897Y-270796D01*
X240041Y-270697D01*
X239750Y-270646D01*
Y-269250D01*
X236862D01*
X236719Y-269222D01*
X236577Y-269250D01*
X215250D01*
Y-269250D01*
X214532Y-269547D01*
X213060Y-268076D01*
Y-243750D01*
X212820Y-241923D01*
X212115Y-240220D01*
X210992Y-238758D01*
X197074Y-224839D01*
X197600Y-223569D01*
X204158D01*
X209544Y-228956D01*
X211215Y-230238D01*
X213162Y-231044D01*
X215250Y-231319D01*
X217338Y-231044D01*
X219284Y-230238D01*
X220156Y-229569D01*
X223657D01*
X223785Y-229667D01*
X226059Y-230609D01*
X228500Y-230931D01*
X230941Y-230609D01*
X233215Y-229667D01*
X235168Y-228169D01*
X236667Y-226215D01*
X237609Y-223941D01*
X237931Y-221500D01*
X237609Y-219059D01*
X236667Y-216785D01*
X235168Y-214832D01*
X233215Y-213333D01*
X230941Y-212391D01*
X228500Y-212069D01*
X226059Y-212391D01*
X223785Y-213333D01*
X223657Y-213431D01*
X217000D01*
X216861Y-213449D01*
X214049Y-210638D01*
X214575Y-209368D01*
X217250D01*
X219591Y-208902D01*
X221576Y-207576D01*
X233826Y-195326D01*
X235152Y-193341D01*
X236446Y-193346D01*
X236879Y-193581D01*
X236882Y-193629D01*
Y-199500D01*
X237348Y-201841D01*
X238674Y-203826D01*
X249883Y-215034D01*
Y-217216D01*
X237049Y-230049D01*
X235723Y-232034D01*
X235257Y-234375D01*
Y-235256D01*
X234540Y-235974D01*
X233405Y-237031D01*
X232478Y-237780D01*
X231809Y-238250D01*
X215250D01*
Y-255750D01*
X239750D01*
Y-248701D01*
X239946Y-248359D01*
X240452Y-247627D01*
X241480Y-246408D01*
X242750Y-246871D01*
Y-255750D01*
X267250D01*
Y-252869D01*
X268341Y-252652D01*
X270326Y-251326D01*
X332076Y-189576D01*
X332612Y-188773D01*
X333882Y-189158D01*
D02*
G37*
G36*
X105240Y-254271D02*
X104560Y-254513D01*
X103960Y-254915D01*
X103440Y-255478D01*
X103000Y-256201D01*
X102640Y-257084D01*
X102360Y-258127D01*
X102160Y-259331D01*
X102083Y-260212D01*
X102275Y-262901D01*
X102430Y-263780D01*
X102619Y-264501D01*
X102843Y-265061D01*
X103101Y-265460D01*
X103393Y-265700D01*
X103720Y-265781D01*
X92281D01*
X92607Y-265700D01*
X92900Y-265460D01*
X93157Y-265061D01*
X93381Y-264501D01*
X93570Y-263780D01*
X93725Y-262901D01*
X93845Y-261861D01*
X93935Y-260183D01*
X93778Y-258139D01*
X93605Y-257099D01*
X93383Y-256220D01*
X93111Y-255499D01*
X92790Y-254939D01*
X92420Y-254540D01*
X92000Y-254300D01*
X91531Y-254219D01*
X106000Y-254189D01*
X105240Y-254271D01*
D02*
G37*
G36*
X44040Y-260806D02*
X44160Y-262171D01*
X44360Y-263376D01*
X44640Y-264420D01*
X45000Y-265303D01*
X45440Y-266026D01*
X45960Y-266588D01*
X46560Y-266990D01*
X47240Y-267231D01*
X48000Y-267311D01*
X32000D01*
X32760Y-267231D01*
X33440Y-266990D01*
X34040Y-266588D01*
X34560Y-266026D01*
X35000Y-265303D01*
X35360Y-264420D01*
X35640Y-263376D01*
X35840Y-262171D01*
X35960Y-260806D01*
X36000Y-259280D01*
X44000D01*
X44040Y-260806D01*
D02*
G37*
G36*
X61280Y-283000D02*
X61200Y-282240D01*
X60960Y-281560D01*
X60560Y-280960D01*
X60001Y-280440D01*
X59281Y-280000D01*
X58401Y-279640D01*
X57361Y-279360D01*
X56160Y-279160D01*
X55579Y-279109D01*
X55090Y-279149D01*
X53889Y-279335D01*
X52849Y-279595D01*
X51969Y-279930D01*
X51249Y-280339D01*
X50690Y-280823D01*
X50290Y-281381D01*
X50050Y-282013D01*
X49970Y-282719D01*
Y-267281D01*
X50050Y-267987D01*
X50290Y-268619D01*
X50690Y-269177D01*
X51249Y-269661D01*
X51969Y-270070D01*
X52849Y-270405D01*
X53889Y-270665D01*
X55090Y-270851D01*
X55579Y-270891D01*
X56160Y-270840D01*
X57361Y-270640D01*
X58401Y-270360D01*
X59281Y-270000D01*
X60001Y-269560D01*
X60560Y-269040D01*
X60960Y-268440D01*
X61200Y-267760D01*
X61280Y-267000D01*
Y-283000D01*
D02*
G37*
G36*
X268462Y-271780D02*
X267252Y-273033D01*
X265355Y-275270D01*
X264669Y-276253D01*
X264157Y-277146D01*
X263820Y-277950D01*
X263658Y-278664D01*
X263670Y-279287D01*
X263858Y-279822D01*
X264219Y-280266D01*
X255234Y-272281D01*
X255723Y-272597D01*
X256292Y-272750D01*
X256941Y-272737D01*
X257670Y-272560D01*
X258479Y-272218D01*
X259367Y-271711D01*
X260336Y-271040D01*
X261384Y-270204D01*
X262512Y-269203D01*
X263720Y-268038D01*
X268462Y-271780D01*
D02*
G37*
G36*
X245781Y-283720D02*
X245700Y-283393D01*
X245460Y-283100D01*
X245061Y-282843D01*
X244501Y-282619D01*
X243780Y-282430D01*
X242901Y-282275D01*
X241861Y-282155D01*
X241528Y-282137D01*
X239599Y-282275D01*
X238720Y-282430D01*
X237999Y-282619D01*
X237439Y-282843D01*
X237040Y-283100D01*
X236800Y-283393D01*
X236719Y-283720D01*
Y-272281D01*
X236800Y-272607D01*
X237040Y-272899D01*
X237439Y-273157D01*
X237999Y-273381D01*
X238720Y-273570D01*
X239599Y-273725D01*
X240639Y-273845D01*
X240972Y-273863D01*
X242901Y-273725D01*
X243780Y-273570D01*
X244501Y-273381D01*
X245061Y-273157D01*
X245460Y-272899D01*
X245700Y-272607D01*
X245781Y-272281D01*
Y-283720D01*
D02*
G37*
G36*
X218311Y-283281D02*
X218258Y-283037D01*
X218099Y-282819D01*
X217833Y-282628D01*
X217461Y-282461D01*
X216983Y-282320D01*
X216399Y-282205D01*
X215709Y-282115D01*
X214009Y-282013D01*
X213000Y-282000D01*
Y-274000D01*
X214009Y-273987D01*
X216399Y-273795D01*
X216983Y-273680D01*
X217461Y-273539D01*
X217833Y-273372D01*
X218099Y-273180D01*
X218258Y-272963D01*
X218311Y-272719D01*
Y-283281D01*
D02*
G37*
%LPC*%
G36*
X0Y298069D02*
X-2088Y297794D01*
X-4035Y296988D01*
X-5706Y295706D01*
X-6988Y294035D01*
X-7794Y292088D01*
X-8069Y290000D01*
X-7794Y287912D01*
X-6988Y285965D01*
X-5706Y284294D01*
X-4035Y283012D01*
X-2088Y282206D01*
X0Y281931D01*
X2088Y282206D01*
X4035Y283012D01*
X5706Y284294D01*
X6988Y285965D01*
X7794Y287912D01*
X8069Y290000D01*
X7794Y292088D01*
X6988Y294035D01*
X5706Y295706D01*
X4035Y296988D01*
X2088Y297794D01*
X0Y298069D01*
D02*
G37*
G36*
X173000Y294565D02*
X171042Y294307D01*
X169218Y293551D01*
X167651Y292349D01*
X166449Y290782D01*
X165693Y288958D01*
X165435Y287000D01*
X165693Y285042D01*
X166449Y283218D01*
X167651Y281651D01*
X169218Y280449D01*
X171042Y279693D01*
X173000Y279435D01*
X174958Y279693D01*
X176782Y280449D01*
X178349Y281651D01*
X179551Y283218D01*
X180307Y285042D01*
X180565Y287000D01*
X180307Y288958D01*
X179551Y290782D01*
X178349Y292349D01*
X176782Y293551D01*
X174958Y294307D01*
X173000Y294565D01*
D02*
G37*
G36*
X93000D02*
X91042Y294307D01*
X89218Y293551D01*
X87651Y292349D01*
X86449Y290782D01*
X85693Y288958D01*
X85435Y287000D01*
X85693Y285042D01*
X86449Y283218D01*
X87651Y281651D01*
X89218Y280449D01*
X91042Y279693D01*
X93000Y279435D01*
X94958Y279693D01*
X96782Y280449D01*
X98349Y281651D01*
X99551Y283218D01*
X100307Y285042D01*
X100565Y287000D01*
X100307Y288958D01*
X99551Y290782D01*
X98349Y292349D01*
X96782Y293551D01*
X94958Y294307D01*
X93000Y294565D01*
D02*
G37*
G36*
X-233000Y282984D02*
Y275000D01*
X-225016D01*
X-225102Y275652D01*
X-226125Y278124D01*
X-227754Y280246D01*
X-229876Y281875D01*
X-232348Y282899D01*
X-233000Y282984D01*
D02*
G37*
G36*
X-237000D02*
X-237652Y282899D01*
X-240124Y281875D01*
X-242246Y280246D01*
X-243875Y278124D01*
X-244898Y275652D01*
X-244984Y275000D01*
X-237000D01*
Y282984D01*
D02*
G37*
G36*
X-225016Y271000D02*
X-233000D01*
Y263016D01*
X-232348Y263102D01*
X-229876Y264125D01*
X-227754Y265754D01*
X-226125Y267876D01*
X-225102Y270348D01*
X-225016Y271000D01*
D02*
G37*
G36*
X-237000D02*
X-244984D01*
X-244898Y270348D01*
X-243875Y267876D01*
X-242246Y265754D01*
X-240124Y264125D01*
X-237652Y263102D01*
X-237000Y263016D01*
Y271000D01*
D02*
G37*
G36*
X-137000Y286612D02*
X-140394Y286165D01*
X-143556Y284855D01*
X-146272Y282772D01*
X-148356Y280056D01*
X-149665Y276894D01*
X-150112Y273500D01*
X-149665Y270106D01*
X-148356Y266944D01*
X-146272Y264228D01*
X-143556Y262145D01*
X-140394Y260835D01*
X-137000Y260388D01*
X-133606Y260835D01*
X-130444Y262145D01*
X-127728Y264228D01*
X-125645Y266944D01*
X-124335Y270106D01*
X-123888Y273500D01*
X-124335Y276894D01*
X-125645Y280056D01*
X-127728Y282772D01*
X-130444Y284855D01*
X-133606Y286165D01*
X-137000Y286612D01*
D02*
G37*
G36*
X-134250Y223385D02*
Y213000D01*
X-123865D01*
X-124033Y214274D01*
X-125296Y217324D01*
X-127306Y219944D01*
X-129926Y221954D01*
X-132976Y223217D01*
X-134250Y223385D01*
D02*
G37*
G36*
X-138250D02*
X-139524Y223217D01*
X-142574Y221954D01*
X-145194Y219944D01*
X-147204Y217324D01*
X-148467Y214274D01*
X-148635Y213000D01*
X-138250D01*
Y223385D01*
D02*
G37*
G36*
X-252500Y216250D02*
X-263750D01*
Y205250D01*
X-252500D01*
Y216250D01*
D02*
G37*
G36*
X-266750D02*
X-278000D01*
Y205250D01*
X-266750D01*
Y216250D01*
D02*
G37*
G36*
X-123865Y209000D02*
X-134250D01*
Y198615D01*
X-132976Y198783D01*
X-129926Y200046D01*
X-127306Y202056D01*
X-125296Y204676D01*
X-124033Y207726D01*
X-123865Y209000D01*
D02*
G37*
G36*
X-138250D02*
X-148635D01*
X-148467Y207726D01*
X-147204Y204676D01*
X-145194Y202056D01*
X-142574Y200046D01*
X-139524Y198783D01*
X-138250Y198615D01*
Y209000D01*
D02*
G37*
G36*
X-252500Y202250D02*
X-263750D01*
Y191250D01*
X-252500D01*
Y202250D01*
D02*
G37*
G36*
X-266750D02*
X-278000D01*
Y191250D01*
X-266750D01*
Y202250D01*
D02*
G37*
G36*
X-234000Y212091D02*
X-236741Y211730D01*
X-239295Y210672D01*
X-241489Y208989D01*
X-243172Y206795D01*
X-244230Y204241D01*
X-244591Y201500D01*
Y180637D01*
X-253977Y171250D01*
X-275827D01*
X-275970Y171278D01*
X-276112Y171250D01*
X-279000D01*
Y168648D01*
X-279023Y168521D01*
X-279102Y168450D01*
X-279641Y168151D01*
X-280608Y167799D01*
X-281975Y167466D01*
X-283676Y167193D01*
X-288257Y166852D01*
X-288965Y166841D01*
X-293750D01*
X-296491Y166480D01*
X-299045Y165422D01*
X-301239Y163739D01*
X-301239Y163739D01*
X-347489Y117489D01*
X-349172Y115295D01*
X-350230Y112741D01*
X-350591Y110000D01*
X-350591Y110000D01*
Y108688D01*
X-350631Y106984D01*
X-350840Y104378D01*
X-351175Y102202D01*
X-351614Y100479D01*
X-352112Y99232D01*
X-352594Y98463D01*
X-352943Y98124D01*
X-361750D01*
X-365470Y97634D01*
X-368936Y96198D01*
X-371913Y93914D01*
X-374197Y90937D01*
X-375633Y87471D01*
X-376123Y83751D01*
Y-23749D01*
X-375633Y-27469D01*
X-374197Y-30936D01*
X-371913Y-33912D01*
X-368936Y-36196D01*
X-365470Y-37632D01*
X-361750Y-38122D01*
X-351893D01*
X-351078Y-38355D01*
X-349798Y-38899D01*
X-348325Y-39705D01*
X-346679Y-40780D01*
X-344903Y-42105D01*
X-340820Y-45645D01*
X-339078Y-47333D01*
X-315304Y-71108D01*
X-313054Y-73529D01*
X-312108Y-74693D01*
X-311291Y-75812D01*
X-310623Y-76857D01*
X-310100Y-77820D01*
X-309717Y-78692D01*
X-309464Y-79467D01*
X-309327Y-80140D01*
X-309270Y-80936D01*
X-309250Y-81011D01*
Y-83750D01*
X-306362D01*
X-306220Y-83778D01*
X-306112Y-83757D01*
X-306003Y-83771D01*
X-305928Y-83750D01*
X-301195D01*
X-301089Y-83794D01*
X-299000Y-84069D01*
X-295575D01*
X-295503Y-84147D01*
X-295240Y-84579D01*
X-294955Y-85278D01*
X-294693Y-86253D01*
X-294487Y-87493D01*
X-294355Y-88988D01*
X-294319Y-90370D01*
Y-113853D01*
X-294394Y-118256D01*
X-294523Y-120250D01*
X-295250D01*
Y-123138D01*
X-295278Y-123280D01*
X-295250Y-123423D01*
Y-123474D01*
X-295262Y-123600D01*
X-295250Y-123637D01*
Y-146250D01*
X-277250D01*
Y-123637D01*
X-277239Y-123600D01*
X-277250Y-123474D01*
Y-123423D01*
X-277222Y-123280D01*
X-277250Y-123138D01*
Y-120250D01*
X-277847D01*
X-278181Y-115090D01*
Y-90370D01*
X-278145Y-88988D01*
X-278013Y-87494D01*
X-277807Y-86253D01*
X-277545Y-85278D01*
X-277260Y-84579D01*
X-276997Y-84147D01*
X-276800Y-83934D01*
X-276668Y-83846D01*
X-276520Y-83793D01*
X-276110Y-83750D01*
X-263250D01*
Y-57750D01*
X-305328D01*
X-309967Y-53622D01*
X-325239Y-38350D01*
X-326508Y-37028D01*
X-327775Y-35567D01*
X-328706Y-34332D01*
X-329018Y-33823D01*
X-327863Y-32318D01*
X-327806Y-32262D01*
X-327788Y-32220D01*
X-326802Y-30936D01*
X-325366Y-27469D01*
X-324877Y-23749D01*
Y83751D01*
X-325366Y87471D01*
X-326493Y90191D01*
X-326531Y90315D01*
X-326587Y90418D01*
X-326802Y90937D01*
X-327025Y91227D01*
X-327085Y91339D01*
X-327538Y92408D01*
X-327945Y93631D01*
X-328673Y96822D01*
X-328933Y98561D01*
X-329409Y105239D01*
Y105613D01*
X-289363Y145659D01*
X-289156D01*
X-283446Y145561D01*
X-280001Y145336D01*
X-279000Y145216D01*
Y144250D01*
X-276112D01*
X-275970Y144222D01*
X-275827Y144250D01*
X-275797D01*
X-275663Y144237D01*
X-275621Y144250D01*
X-251500D01*
Y145989D01*
X-251259Y146020D01*
X-248705Y147078D01*
X-246511Y148761D01*
X-226511Y168761D01*
X-226511Y168761D01*
X-224828Y170955D01*
X-223770Y173509D01*
X-223409Y176250D01*
X-223409Y176250D01*
Y201500D01*
X-223770Y204241D01*
X-224828Y206795D01*
X-226511Y208989D01*
X-228705Y210672D01*
X-231259Y211730D01*
X-234000Y212091D01*
D02*
G37*
G36*
X190000Y199594D02*
X186177Y199218D01*
X182502Y198103D01*
X179114Y196292D01*
X176145Y193855D01*
X173708Y190886D01*
X171897Y187498D01*
X170782Y183823D01*
X170406Y180000D01*
X170782Y176177D01*
X171897Y172502D01*
X173708Y169114D01*
X176145Y166145D01*
X179114Y163708D01*
X182502Y161897D01*
X186177Y160782D01*
X190000Y160406D01*
X193823Y160782D01*
X197498Y161897D01*
X200886Y163708D01*
X203855Y166145D01*
X206292Y169114D01*
X208103Y172502D01*
X209218Y176177D01*
X209594Y180000D01*
X209218Y183823D01*
X208103Y187498D01*
X206292Y190886D01*
X203855Y193855D01*
X200886Y196292D01*
X197498Y198103D01*
X193823Y199218D01*
X190000Y199594D01*
D02*
G37*
G36*
X-190000D02*
X-193823Y199218D01*
X-197498Y198103D01*
X-200886Y196292D01*
X-203855Y193855D01*
X-206292Y190886D01*
X-208103Y187498D01*
X-209218Y183823D01*
X-209594Y180000D01*
X-209218Y176177D01*
X-208103Y172502D01*
X-206292Y169114D01*
X-203855Y166145D01*
X-200886Y163708D01*
X-197498Y161897D01*
X-193823Y160782D01*
X-190000Y160406D01*
X-186177Y160782D01*
X-182502Y161897D01*
X-179114Y163708D01*
X-176145Y166145D01*
X-173708Y169114D01*
X-171897Y172502D01*
X-170782Y176177D01*
X-170406Y180000D01*
X-170782Y183823D01*
X-171897Y187498D01*
X-173708Y190886D01*
X-176145Y193855D01*
X-179114Y196292D01*
X-182502Y198103D01*
X-186177Y199218D01*
X-190000Y199594D01*
D02*
G37*
G36*
X18000Y144931D02*
X15559Y144609D01*
X13285Y143667D01*
X11331Y142169D01*
X9833Y140215D01*
X8891Y137941D01*
X8569Y135500D01*
X8891Y133059D01*
X9833Y130785D01*
X11331Y128832D01*
X13285Y127333D01*
X15559Y126391D01*
X18000Y126069D01*
X20441Y126391D01*
X22715Y127333D01*
X24669Y128832D01*
X26167Y130785D01*
X27109Y133059D01*
X27431Y135500D01*
X27109Y137941D01*
X26167Y140215D01*
X24669Y142169D01*
X22715Y143667D01*
X20441Y144609D01*
X18000Y144931D01*
D02*
G37*
G36*
X31250Y124351D02*
X-31250D01*
X-34317Y123948D01*
X-37176Y122764D01*
X-39630Y120880D01*
X-41514Y118426D01*
X-42698Y115567D01*
X-43101Y112500D01*
X-42698Y109433D01*
X-41514Y106574D01*
X-39630Y104120D01*
X-37176Y102236D01*
X-34317Y101053D01*
X-31250Y100649D01*
X31250D01*
X34317Y101053D01*
X37176Y102236D01*
X39630Y104120D01*
X41514Y106574D01*
X42698Y109433D01*
X43101Y112500D01*
X42698Y115567D01*
X41514Y118426D01*
X39630Y120880D01*
X37176Y122764D01*
X34317Y123948D01*
X31250Y124351D01*
D02*
G37*
G36*
X-81875Y95415D02*
X-84942Y95011D01*
X-87801Y93827D01*
X-90255Y91944D01*
X-92139Y89489D01*
X-123389Y35362D01*
X-124572Y32504D01*
X-124976Y29437D01*
X-124573Y26369D01*
X-123389Y23511D01*
X-121505Y21056D01*
X-119051Y19173D01*
X-116192Y17989D01*
X-113125Y17585D01*
X-110058Y17989D01*
X-107199Y19173D01*
X-104745Y21056D01*
X-102861Y23511D01*
X-71611Y77638D01*
X-70427Y80496D01*
X-70024Y83563D01*
X-70427Y86631D01*
X-71611Y89489D01*
X-73495Y91944D01*
X-75949Y93827D01*
X-78808Y95011D01*
X-81875Y95415D01*
D02*
G37*
G36*
X0Y78123D02*
X-8747Y77632D01*
X-17384Y76164D01*
X-25802Y73739D01*
X-33896Y70386D01*
X-41564Y66149D01*
X-48709Y61079D01*
X-55241Y55241D01*
X-61079Y48709D01*
X-66149Y41564D01*
X-70386Y33896D01*
X-73739Y25802D01*
X-76164Y17384D01*
X-77632Y8747D01*
X-78123Y0D01*
X-77632Y-8747D01*
X-76164Y-17384D01*
X-73739Y-25802D01*
X-70386Y-33896D01*
X-66149Y-41564D01*
X-61079Y-48709D01*
X-55241Y-55241D01*
X-48709Y-61079D01*
X-41564Y-66149D01*
X-33896Y-70386D01*
X-25802Y-73739D01*
X-17384Y-76164D01*
X-8747Y-77632D01*
X0Y-78123D01*
X8747Y-77632D01*
X17384Y-76164D01*
X25802Y-73739D01*
X33896Y-70386D01*
X41564Y-66149D01*
X48709Y-61079D01*
X55241Y-55241D01*
X61079Y-48709D01*
X66149Y-41564D01*
X70386Y-33896D01*
X73739Y-25802D01*
X76164Y-17384D01*
X77632Y-8747D01*
X78123Y0D01*
X77632Y8747D01*
X76164Y17384D01*
X73739Y25802D01*
X70386Y33896D01*
X66149Y41564D01*
X61079Y48709D01*
X55241Y55241D01*
X48709Y61079D01*
X41564Y66149D01*
X33896Y70386D01*
X25802Y73739D01*
X17384Y76164D01*
X8747Y77632D01*
X0Y78123D01*
D02*
G37*
G36*
X31250Y-100399D02*
X-31250D01*
X-34317Y-100802D01*
X-37176Y-101986D01*
X-39630Y-103870D01*
X-41514Y-106324D01*
X-42698Y-109183D01*
X-43101Y-112250D01*
X-42698Y-115317D01*
X-41514Y-118176D01*
X-39630Y-120630D01*
X-37176Y-122514D01*
X-34317Y-123698D01*
X-31250Y-124101D01*
X31250D01*
X34317Y-123698D01*
X37176Y-122514D01*
X39630Y-120630D01*
X41514Y-118176D01*
X42698Y-115317D01*
X43101Y-112250D01*
X42698Y-109183D01*
X41514Y-106324D01*
X39630Y-103870D01*
X37176Y-101986D01*
X34317Y-100802D01*
X31250Y-100399D01*
D02*
G37*
G36*
X-250250Y-188250D02*
X-274750D01*
Y-191578D01*
X-274841Y-191615D01*
X-275296Y-191737D01*
X-275936Y-191843D01*
X-276382Y-191882D01*
X-285775D01*
X-285936Y-191879D01*
X-286000Y-191874D01*
Y-191250D01*
X-288888D01*
X-289030Y-191222D01*
X-289062Y-191228D01*
X-289094Y-191222D01*
X-289219Y-191250D01*
X-303500D01*
Y-204750D01*
X-289219D01*
X-289094Y-204778D01*
X-289062Y-204772D01*
X-289030Y-204778D01*
X-288888Y-204750D01*
X-286000D01*
Y-204191D01*
X-284871Y-204118D01*
X-275923D01*
X-275754Y-204123D01*
X-275039Y-204191D01*
X-274750Y-204236D01*
Y-205750D01*
X-271868D01*
X-271728Y-205778D01*
X-271584Y-205750D01*
X-250250D01*
Y-188250D01*
D02*
G37*
G36*
X-75250Y-202750D02*
X-81500D01*
Y-212500D01*
X-75250D01*
Y-202750D01*
D02*
G37*
G36*
X-84500D02*
X-90750D01*
Y-212500D01*
X-84500D01*
Y-202750D01*
D02*
G37*
G36*
X76250Y-203250D02*
X69000D01*
Y-213500D01*
X76250D01*
Y-203250D01*
D02*
G37*
G36*
X66000D02*
X58750D01*
Y-213500D01*
X66000D01*
Y-203250D01*
D02*
G37*
G36*
X-75250Y-215500D02*
X-81500D01*
Y-225250D01*
X-75250D01*
Y-215500D01*
D02*
G37*
G36*
X76250Y-216500D02*
X69000D01*
Y-226750D01*
X76250D01*
Y-216500D01*
D02*
G37*
G36*
X66000D02*
X58750D01*
Y-226750D01*
X66000D01*
Y-216500D01*
D02*
G37*
G36*
X-293076Y-229324D02*
Y-237309D01*
X-285092D01*
X-285178Y-236656D01*
X-286201Y-234185D01*
X-287830Y-232062D01*
X-289952Y-230434D01*
X-292424Y-229410D01*
X-293076Y-229324D01*
D02*
G37*
G36*
X-297076D02*
X-297729Y-229410D01*
X-300200Y-230434D01*
X-302323Y-232062D01*
X-303951Y-234185D01*
X-304975Y-236656D01*
X-305061Y-237309D01*
X-297076D01*
Y-229324D01*
D02*
G37*
G36*
X75500Y-233750D02*
X67250D01*
Y-243500D01*
X75500D01*
Y-233750D01*
D02*
G37*
G36*
X64250D02*
X56000D01*
Y-243500D01*
X64250D01*
Y-233750D01*
D02*
G37*
G36*
X-285092Y-241308D02*
X-293076D01*
Y-249293D01*
X-292424Y-249207D01*
X-289952Y-248183D01*
X-287830Y-246555D01*
X-286201Y-244432D01*
X-285178Y-241961D01*
X-285092Y-241308D01*
D02*
G37*
G36*
X182000Y-240084D02*
Y-253000D01*
X194916D01*
X194822Y-252052D01*
X193962Y-249217D01*
X192566Y-246604D01*
X190686Y-244314D01*
X188396Y-242434D01*
X185783Y-241038D01*
X182948Y-240178D01*
X182000Y-240084D01*
D02*
G37*
G36*
X178000D02*
X177052Y-240178D01*
X174217Y-241038D01*
X171604Y-242434D01*
X169314Y-244314D01*
X167434Y-246604D01*
X166038Y-249217D01*
X165178Y-252052D01*
X165084Y-253000D01*
X178000D01*
Y-240084D01*
D02*
G37*
G36*
X75500Y-246500D02*
X67250D01*
Y-256250D01*
X75500D01*
Y-246500D01*
D02*
G37*
G36*
X64250D02*
X56000D01*
Y-256250D01*
X64250D01*
Y-246500D01*
D02*
G37*
G36*
X-125500Y-253589D02*
X-125857Y-253660D01*
X-127855Y-254995D01*
X-129190Y-256993D01*
X-129260Y-257350D01*
X-125500D01*
Y-253589D01*
D02*
G37*
G36*
X-109500Y-253590D02*
Y-257350D01*
X-105739D01*
X-105810Y-256993D01*
X-107145Y-254995D01*
X-109143Y-253661D01*
X-109500Y-253590D01*
D02*
G37*
G36*
X-121500Y-253589D02*
Y-259350D01*
X-123500D01*
Y-261350D01*
X-129261D01*
X-129190Y-261707D01*
X-127855Y-263705D01*
X-125857Y-265040D01*
X-124545Y-265300D01*
X-124510Y-265350D01*
X-117500D01*
X-110490D01*
X-110455Y-265300D01*
X-109143Y-265040D01*
X-107145Y-263705D01*
X-105810Y-261707D01*
X-105739Y-261350D01*
X-111500D01*
Y-259350D01*
X-113500D01*
Y-253589D01*
X-113857Y-253661D01*
X-115855Y-254995D01*
X-116746Y-256330D01*
X-118254Y-256330D01*
X-119145Y-254995D01*
X-121143Y-253660D01*
X-121500Y-253589D01*
D02*
G37*
G36*
X194916Y-257000D02*
X182000D01*
Y-269916D01*
X182948Y-269822D01*
X185783Y-268962D01*
X188396Y-267566D01*
X190686Y-265686D01*
X192566Y-263396D01*
X193962Y-260783D01*
X194822Y-257948D01*
X194916Y-257000D01*
D02*
G37*
G36*
X178000D02*
X165084D01*
X165178Y-257948D01*
X166038Y-260783D01*
X167434Y-263396D01*
X169314Y-265686D01*
X171604Y-267566D01*
X174217Y-268962D01*
X177052Y-269822D01*
X178000Y-269916D01*
Y-257000D01*
D02*
G37*
G36*
X130000Y-239425D02*
X126961Y-239724D01*
X124040Y-240611D01*
X121347Y-242050D01*
X118987Y-243987D01*
X117050Y-246347D01*
X115611Y-249040D01*
X114724Y-251961D01*
X114425Y-255000D01*
X114724Y-258039D01*
X115611Y-260960D01*
X117050Y-263653D01*
X118987Y-266013D01*
X119101Y-266106D01*
X119636Y-266679D01*
X120106Y-267281D01*
X120521Y-267922D01*
X120884Y-268608D01*
X121195Y-269345D01*
X121456Y-270140D01*
X121663Y-270995D01*
X121815Y-271915D01*
X121908Y-272903D01*
X121931Y-273662D01*
Y-278408D01*
X110658Y-289681D01*
X7842D01*
X5085Y-286923D01*
X5571Y-285750D01*
X8000D01*
Y-264250D01*
X-18000D01*
Y-285750D01*
X-13162D01*
X-13069Y-287213D01*
Y-288250D01*
X-12794Y-290338D01*
X-11988Y-292285D01*
X-10706Y-293956D01*
X-1206Y-303456D01*
X465Y-304738D01*
X2412Y-305544D01*
X4500Y-305819D01*
X114000D01*
X116088Y-305544D01*
X118034Y-304738D01*
X119706Y-303456D01*
X135706Y-287456D01*
X136988Y-285784D01*
X137794Y-283838D01*
X138069Y-281750D01*
Y-273662D01*
X138092Y-272903D01*
X138185Y-271915D01*
X138337Y-270995D01*
X138544Y-270140D01*
X138805Y-269345D01*
X139116Y-268608D01*
X139479Y-267922D01*
X139894Y-267281D01*
X140364Y-266679D01*
X140899Y-266106D01*
X141013Y-266013D01*
X142950Y-263653D01*
X144389Y-260960D01*
X145276Y-258039D01*
X145575Y-255000D01*
X145276Y-251961D01*
X144389Y-249040D01*
X142950Y-246347D01*
X141013Y-243987D01*
X138653Y-242050D01*
X135960Y-240611D01*
X133039Y-239724D01*
X130000Y-239425D01*
D02*
G37*
G36*
X-252076Y-270597D02*
X-254849Y-270962D01*
X-257432Y-272032D01*
X-259651Y-273734D01*
X-261353Y-275953D01*
X-262423Y-278536D01*
X-262788Y-281308D01*
X-262423Y-284081D01*
X-261353Y-286664D01*
X-259651Y-288883D01*
X-257432Y-290585D01*
X-254849Y-291655D01*
X-252076Y-292020D01*
X-249304Y-291655D01*
X-246721Y-290585D01*
X-244502Y-288883D01*
X-242800Y-286664D01*
X-241730Y-284081D01*
X-241365Y-281308D01*
X-241730Y-278536D01*
X-242800Y-275953D01*
X-244502Y-273734D01*
X-246721Y-272032D01*
X-249304Y-270962D01*
X-252076Y-270597D01*
D02*
G37*
G36*
X-110490Y-269350D02*
X-117500D01*
X-124510D01*
X-124545Y-269400D01*
X-125857Y-269660D01*
X-127855Y-270995D01*
X-129190Y-272993D01*
X-129261Y-273350D01*
X-123500D01*
Y-277350D01*
X-129261D01*
X-129190Y-277707D01*
X-127855Y-279705D01*
X-125857Y-281040D01*
X-124707Y-281268D01*
X-124209Y-281782D01*
X-124080Y-282372D01*
X-124902Y-283471D01*
X-125857Y-283661D01*
X-127855Y-284995D01*
X-129190Y-286993D01*
X-129260Y-287350D01*
X-123500D01*
Y-289350D01*
X-121500D01*
Y-295110D01*
X-121143Y-295040D01*
X-119145Y-293705D01*
X-118254Y-292370D01*
X-116746D01*
X-115855Y-293705D01*
X-113857Y-295040D01*
X-113500Y-295110D01*
Y-289350D01*
X-111500D01*
Y-287350D01*
X-105739D01*
X-105810Y-286993D01*
X-107145Y-284995D01*
X-109143Y-283661D01*
X-110472Y-283396D01*
X-111342Y-282350D01*
X-110293Y-281268D01*
X-109143Y-281040D01*
X-107145Y-279705D01*
X-105810Y-277707D01*
X-105739Y-277350D01*
X-111500D01*
Y-273350D01*
X-105739D01*
X-105810Y-272993D01*
X-107145Y-270995D01*
X-109143Y-269660D01*
X-110455Y-269400D01*
X-110490Y-269350D01*
D02*
G37*
G36*
X-105739Y-291350D02*
X-109500D01*
Y-295111D01*
X-109143Y-295040D01*
X-107145Y-293705D01*
X-105810Y-291707D01*
X-105739Y-291350D01*
D02*
G37*
G36*
X-125500D02*
X-129261D01*
X-129190Y-291707D01*
X-127855Y-293705D01*
X-125857Y-295040D01*
X-125500Y-295111D01*
Y-291350D01*
D02*
G37*
G36*
X235000Y-296931D02*
X232912Y-297206D01*
X230965Y-298012D01*
X229294Y-299294D01*
X228012Y-300965D01*
X227206Y-302912D01*
X226931Y-305000D01*
X227206Y-307088D01*
X228012Y-309035D01*
X229294Y-310706D01*
X230965Y-311988D01*
X232912Y-312794D01*
X235000Y-313069D01*
X237088Y-312794D01*
X239035Y-311988D01*
X240706Y-310706D01*
X241988Y-309035D01*
X242794Y-307088D01*
X243069Y-305000D01*
X242794Y-302912D01*
X241988Y-300965D01*
X240706Y-299294D01*
X239035Y-298012D01*
X237088Y-297206D01*
X235000Y-296931D01*
D02*
G37*
G36*
X-245000D02*
X-247088Y-297206D01*
X-249035Y-298012D01*
X-250706Y-299294D01*
X-251988Y-300965D01*
X-252794Y-302912D01*
X-253069Y-305000D01*
X-252794Y-307088D01*
X-251988Y-309035D01*
X-250706Y-310706D01*
X-249035Y-311988D01*
X-247088Y-312794D01*
X-245000Y-313069D01*
X-242912Y-312794D01*
X-240965Y-311988D01*
X-239294Y-310706D01*
X-238012Y-309035D01*
X-237206Y-307088D01*
X-236931Y-305000D01*
X-237206Y-302912D01*
X-238012Y-300965D01*
X-239294Y-299294D01*
X-240965Y-298012D01*
X-242912Y-297206D01*
X-245000Y-296931D01*
D02*
G37*
%LPD*%
G36*
X-275970Y147281D02*
X-276119Y147560D01*
X-276569Y147809D01*
X-277320Y148030D01*
X-278370Y148221D01*
X-279720Y148383D01*
X-283319Y148618D01*
X-290970Y148750D01*
Y163750D01*
X-288120Y163795D01*
X-283319Y164152D01*
X-281369Y164465D01*
X-279720Y164867D01*
X-278370Y165359D01*
X-277320Y165940D01*
X-276569Y166611D01*
X-276119Y167370D01*
X-275970Y168220D01*
Y147281D01*
D02*
G37*
G36*
X-332500Y107741D02*
X-332467Y105116D01*
X-331976Y98225D01*
X-331680Y96255D01*
X-330894Y92806D01*
X-330402Y91327D01*
X-329845Y90012D01*
X-329222Y88860D01*
X-354995Y94975D01*
X-353571Y94805D01*
X-352297Y95007D01*
X-351172Y95580D01*
X-350198Y96525D01*
X-349374Y97842D01*
X-348699Y99530D01*
X-348175Y101590D01*
X-347800Y104022D01*
X-347575Y106825D01*
X-347500Y110000D01*
X-332500Y107741D01*
D02*
G37*
G36*
X-331368Y-30836D02*
X-332105Y-31301D01*
X-332538Y-31928D01*
X-332668Y-32717D01*
X-332494Y-33668D01*
X-332018Y-34781D01*
X-331237Y-36055D01*
X-330154Y-37492D01*
X-328768Y-39091D01*
X-327078Y-40851D01*
X-336461Y-45610D01*
X-338752Y-43390D01*
X-342984Y-39720D01*
X-344926Y-38271D01*
X-346752Y-37079D01*
X-348462Y-36144D01*
X-350056Y-35466D01*
X-351533Y-35044D01*
X-352894Y-34880D01*
X-354139Y-34973D01*
X-330329Y-30533D01*
X-331368Y-30836D01*
D02*
G37*
G36*
X-312114Y-55805D02*
X-306800Y-60535D01*
X-306457Y-60719D01*
X-306220Y-60780D01*
Y-80719D01*
X-306290Y-79724D01*
X-306502Y-78684D01*
X-306856Y-77600D01*
X-307351Y-76473D01*
X-307987Y-75301D01*
X-308765Y-74085D01*
X-309684Y-72825D01*
X-310745Y-71521D01*
X-313291Y-68780D01*
Y-54638D01*
X-312114Y-55805D01*
D02*
G37*
G36*
X-277200Y-80789D02*
X-278050Y-81090D01*
X-278800Y-81592D01*
X-279450Y-82294D01*
X-280000Y-83197D01*
X-280450Y-84300D01*
X-280800Y-85604D01*
X-281050Y-87108D01*
X-281200Y-88814D01*
X-281250Y-90719D01*
X-291250D01*
X-291300Y-88814D01*
X-291450Y-87108D01*
X-291700Y-85604D01*
X-292050Y-84300D01*
X-292500Y-83197D01*
X-293050Y-82294D01*
X-293700Y-81592D01*
X-294450Y-81090D01*
X-295300Y-80789D01*
X-296250Y-80689D01*
X-276250D01*
X-277200Y-80789D01*
D02*
G37*
G36*
X-281240Y-115180D02*
X-280775Y-122381D01*
X-280630Y-122880D01*
X-280465Y-123180D01*
X-280280Y-123280D01*
X-292220D01*
X-292035Y-123180D01*
X-291870Y-122880D01*
X-291725Y-122381D01*
X-291599Y-121680D01*
X-291492Y-120780D01*
X-291337Y-118380D01*
X-291250Y-113280D01*
X-281250D01*
X-281240Y-115180D01*
D02*
G37*
G36*
X-288971Y-194417D02*
X-288790Y-194540D01*
X-288491Y-194648D01*
X-288071Y-194741D01*
X-287530Y-194820D01*
X-286091Y-194935D01*
X-283030Y-195000D01*
Y-201000D01*
X-284170Y-201007D01*
X-288071Y-201259D01*
X-288491Y-201353D01*
X-288790Y-201460D01*
X-288971Y-201583D01*
X-289030Y-201720D01*
Y-194280D01*
X-288971Y-194417D01*
D02*
G37*
G36*
X-271719Y-202719D02*
X-271779Y-202393D01*
X-271959Y-202101D01*
X-272260Y-201843D01*
X-272680Y-201619D01*
X-273220Y-201430D01*
X-273880Y-201275D01*
X-274660Y-201155D01*
X-275560Y-201069D01*
X-277719Y-201000D01*
Y-195000D01*
X-276575Y-194970D01*
X-275551Y-194880D01*
X-274648Y-194730D01*
X-273864Y-194520D01*
X-273201Y-194250D01*
X-272658Y-193920D01*
X-272235Y-193530D01*
X-271933Y-193080D01*
X-271751Y-192570D01*
X-271689Y-192000D01*
X-271719Y-202719D01*
D02*
G37*
G36*
X138038Y-264689D02*
X137400Y-265504D01*
X136838Y-266373D01*
X136350Y-267296D01*
X135938Y-268272D01*
X135600Y-269302D01*
X135337Y-270385D01*
X135150Y-271522D01*
X135037Y-272712D01*
X135000Y-273956D01*
X125000D01*
X124963Y-272712D01*
X124850Y-271522D01*
X124663Y-270385D01*
X124400Y-269302D01*
X124062Y-268272D01*
X123650Y-267296D01*
X123162Y-266373D01*
X122600Y-265504D01*
X121962Y-264689D01*
X121250Y-263927D01*
X138750D01*
X138038Y-264689D01*
D02*
G37*
G36*
X430Y-282745D02*
X339Y-282911D01*
X260Y-283190D01*
X191Y-283579D01*
X132Y-284079D01*
X48Y-285414D01*
X-0Y-288250D01*
X-10000D01*
X-10005Y-287193D01*
X-10260Y-283190D01*
X-10339Y-282911D01*
X-10430Y-282745D01*
X-10531Y-282689D01*
X530D01*
X430Y-282745D01*
D02*
G37*
%LPC*%
G36*
X324250Y124250D02*
X314500D01*
Y118000D01*
X324250D01*
Y124250D01*
D02*
G37*
G36*
X311500D02*
X301750D01*
Y118000D01*
X311500D01*
Y124250D01*
D02*
G37*
G36*
X324250Y115000D02*
X314500D01*
Y108750D01*
X324250D01*
Y115000D01*
D02*
G37*
G36*
X311500D02*
X301750D01*
Y108750D01*
X311500D01*
Y115000D01*
D02*
G37*
G36*
X198750Y-23250D02*
X191500D01*
Y-33500D01*
X198750D01*
Y-23250D01*
D02*
G37*
G36*
X188500D02*
X181250D01*
Y-33500D01*
X188500D01*
Y-23250D01*
D02*
G37*
G36*
X198750Y-36500D02*
X191500D01*
Y-46750D01*
X198750D01*
Y-36500D01*
D02*
G37*
G36*
X188500D02*
X181250D01*
Y-46750D01*
X188500D01*
Y-36500D01*
D02*
G37*
G36*
X204375Y-70335D02*
X201308Y-70739D01*
X198449Y-71923D01*
X195995Y-73807D01*
X194111Y-76261D01*
X162861Y-130388D01*
X161677Y-133246D01*
X161274Y-136313D01*
X161677Y-139381D01*
X162861Y-142239D01*
X164745Y-144693D01*
X167199Y-146577D01*
X170058Y-147761D01*
X173125Y-148165D01*
X176192Y-147761D01*
X179051Y-146577D01*
X181505Y-144693D01*
X183389Y-142239D01*
X214639Y-88112D01*
X215823Y-85254D01*
X216226Y-82187D01*
X215823Y-79119D01*
X214639Y-76261D01*
X212755Y-73807D01*
X210301Y-71923D01*
X207442Y-70739D01*
X204375Y-70335D01*
D02*
G37*
G36*
X118250Y-152750D02*
X112000D01*
Y-162500D01*
X118250D01*
Y-152750D01*
D02*
G37*
G36*
Y-165500D02*
X112000D01*
Y-175250D01*
X118250D01*
Y-165500D01*
D02*
G37*
G36*
X-136250Y-22681D02*
X-138338Y-22956D01*
X-140285Y-23762D01*
X-141956Y-25044D01*
X-143238Y-26716D01*
X-144044Y-28662D01*
X-144319Y-30750D01*
X-144044Y-32838D01*
X-143238Y-34785D01*
X-141956Y-36456D01*
X-140285Y-37738D01*
X-138338Y-38544D01*
X-136250Y-38819D01*
X-134162Y-38544D01*
X-132215Y-37738D01*
X-130544Y-36456D01*
X-129262Y-34785D01*
X-128456Y-32838D01*
X-128181Y-30750D01*
X-128456Y-28662D01*
X-129262Y-26716D01*
X-130544Y-25044D01*
X-132215Y-23762D01*
X-134162Y-22956D01*
X-136250Y-22681D01*
D02*
G37*
G36*
X-112875Y-17233D02*
X-115942Y-17636D01*
X-118801Y-18820D01*
X-121255Y-20704D01*
X-123139Y-23158D01*
X-124323Y-26017D01*
X-124726Y-29084D01*
X-124323Y-32151D01*
X-123139Y-35010D01*
X-91889Y-89136D01*
X-90005Y-91591D01*
X-87551Y-93474D01*
X-84692Y-94658D01*
X-81625Y-95062D01*
X-78558Y-94658D01*
X-75699Y-93474D01*
X-73245Y-91591D01*
X-71361Y-89136D01*
X-70177Y-86278D01*
X-69774Y-83211D01*
X-70177Y-80143D01*
X-71361Y-77285D01*
X-102611Y-23158D01*
X-104495Y-20704D01*
X-106949Y-18820D01*
X-109808Y-17636D01*
X-112875Y-17233D01*
D02*
G37*
%LPD*%
D13*
X311000Y-20000D02*
Y85500D01*
Y-20000D02*
X312500Y-21500D01*
X285000Y61000D02*
X298000Y48000D01*
Y18000D02*
Y48000D01*
D16*
X-185500Y0D02*
D03*
X-216500D02*
D03*
X-136500Y-233000D02*
D03*
X-167500D02*
D03*
X-283500Y-173000D02*
D03*
X-314500D02*
D03*
X-83000Y-214000D02*
D03*
X-114000D02*
D03*
X310500Y-78000D02*
D03*
X341500D02*
D03*
X249500Y20000D02*
D03*
X280500D02*
D03*
X189000Y17500D02*
D03*
X220000D02*
D03*
X189000Y-7500D02*
D03*
X220000D02*
D03*
X242000Y-72500D02*
D03*
X273000D02*
D03*
X141500Y-164000D02*
D03*
X110500D02*
D03*
X98000Y-275000D02*
D03*
X67000D02*
D03*
D17*
X-265500Y30001D02*
D03*
X-350500D02*
D03*
D18*
X-199750Y-232500D02*
D03*
X-225250Y-242000D02*
D03*
X-225250Y-223000D02*
D03*
X-320250Y-207500D02*
D03*
X-294750Y-198000D02*
D03*
Y-217000D02*
D03*
X230250Y151000D02*
D03*
X255750Y160500D02*
D03*
X255750Y141500D02*
D03*
X275500Y-17000D02*
D03*
X250000Y-26500D02*
D03*
Y-7500D02*
D03*
X327500Y-179500D02*
D03*
X302000Y-189000D02*
D03*
X302000Y-170000D02*
D03*
D19*
X-262500Y-228000D02*
D03*
Y-197000D02*
D03*
X-93000Y-182000D02*
D03*
Y-151000D02*
D03*
X-69000Y-182000D02*
D03*
Y-151000D02*
D03*
X-115000Y-182000D02*
D03*
Y-151000D02*
D03*
X256000Y85500D02*
D03*
Y116500D02*
D03*
X287000Y85500D02*
D03*
Y116500D02*
D03*
X313000Y85500D02*
D03*
Y116500D02*
D03*
X242500Y-130500D02*
D03*
Y-99500D02*
D03*
X278000Y-190000D02*
D03*
Y-159000D02*
D03*
X227500Y-278000D02*
D03*
Y-247000D02*
D03*
X255000Y-278000D02*
D03*
Y-247000D02*
D03*
D20*
X-65000Y-248000D02*
D03*
X-35000Y-248000D02*
D03*
X232500Y52500D02*
D03*
X202500Y52500D02*
D03*
X190000Y-35000D02*
D03*
X220000D02*
D03*
X67500Y-215000D02*
D03*
X97500Y-215000D02*
D03*
D21*
X-308750Y-133250D02*
D03*
X-286250D02*
D03*
X-263750D02*
D03*
D22*
X-286250Y-70750D02*
D03*
D23*
X-265250Y203750D02*
D03*
X-265250Y157750D02*
D03*
D24*
X312500Y-21500D02*
D03*
X303000Y4000D02*
D03*
X322000Y4000D02*
D03*
X295500Y-99500D02*
D03*
X305000Y-125000D02*
D03*
X286000D02*
D03*
X243000Y-183750D02*
D03*
X233500Y-158250D02*
D03*
X252500D02*
D03*
D25*
X65750Y-245000D02*
D03*
X99250Y-245000D02*
D03*
D26*
X40000Y-275000D02*
D03*
X-5000D02*
D03*
D27*
X354000Y78000D02*
D03*
X353750Y32750D02*
D03*
D47*
X153000Y-25999D02*
G03*
X110731Y108736I-153000J25999D01*
G01*
X57328Y-72414D02*
G03*
X59029Y71035I-57328J72414D01*
G01*
X-180850Y85401D02*
G03*
X-163562Y-115098I180850J-85401D01*
G01*
X-106454Y169315D02*
G03*
X-180850Y85401I106454J-169315D01*
G01*
X-90758Y0D02*
G03*
X-64176Y-64176I90758J0D01*
G01*
X29001Y86000D02*
G03*
X-90758Y0I-29001J-86000D01*
G01*
X-286250Y-136750D02*
Y-76000D01*
X-74040Y-151000D02*
Y-119556D01*
X-137540Y-153460D02*
X-125000Y-166000D01*
X-183540Y-153460D02*
X-137540D01*
X-204250Y-132750D02*
X-183540Y-153460D01*
X-125000Y-166000D02*
X-51000D01*
Y-226000D02*
Y-166000D01*
X-263500Y-132750D02*
X-204250D01*
X-64000Y-64000D02*
X-58000Y-70000D01*
Y-128000D02*
Y-70000D01*
Y-128000D02*
X-50750Y-135250D01*
X-18000D01*
X-51000Y-226000D02*
X-32000Y-245000D01*
X111000Y129308D02*
X125692Y144000D01*
X145000D01*
X111000Y109000D02*
Y129308D01*
X-18000Y197000D02*
X48000D01*
X59000Y186000D01*
Y71000D02*
Y186000D01*
X18000Y-198000D02*
X44000D01*
X57000Y-185000D01*
Y-73000D01*
X148250Y-203000D02*
Y-184750D01*
Y-203000D02*
X160750Y-215500D01*
X207500D01*
X215250Y-223250D01*
X217000Y-221500D01*
X228500D01*
X4500Y-297750D02*
X114000D01*
X130000Y-281750D01*
Y-255000D01*
X-5000Y-288250D02*
X4500Y-297750D01*
X-5000Y-288250D02*
Y-275000D01*
X-340000Y-35000D02*
X-299000Y-76000D01*
X-286250D01*
X-74040Y-119556D02*
X-74000Y-119516D01*
Y-109500D01*
D48*
X-245000Y-305000D02*
D03*
X235000D02*
D03*
X0Y290000D02*
D03*
X291000Y153000D02*
D03*
X269000Y-95000D02*
D03*
X130000Y-135000D02*
D03*
X81000Y-156000D02*
D03*
X82000Y-231000D02*
D03*
X133000Y-211000D02*
D03*
X380000Y-112000D02*
D03*
X360000Y-67000D02*
D03*
X212000Y114000D02*
D03*
X272000Y135000D02*
D03*
X279000Y206000D02*
D03*
X336000Y172000D02*
D03*
X302000Y133000D02*
D03*
X-176000Y-25000D02*
D03*
X71000Y-98000D02*
D03*
X116000Y1000D02*
D03*
X75000Y122000D02*
D03*
X-233000Y233000D02*
D03*
X-350000Y-218000D02*
D03*
X-293000Y-271000D02*
D03*
X-270000Y-299000D02*
D03*
X-254000Y-241000D02*
D03*
X-299000Y-181000D02*
D03*
X-239000Y-176000D02*
D03*
X-217000Y-147000D02*
D03*
X-142000Y-136000D02*
D03*
X-67000Y-215000D02*
D03*
X-98000Y-198000D02*
D03*
X-134000D02*
D03*
X-183000Y-240000D02*
D03*
X-174000Y-274000D02*
D03*
Y-305000D02*
D03*
X-63000Y-289000D02*
D03*
X47000Y-231000D02*
D03*
X-26000Y-267000D02*
D03*
X-10000Y-305000D02*
D03*
X-29000D02*
D03*
X47000Y-317000D02*
D03*
X155000Y-303000D02*
D03*
X208000Y-300000D02*
D03*
X239000Y-264000D02*
D03*
X337000Y-233000D02*
D03*
X370000Y-179000D02*
D03*
X300000Y-153000D02*
D03*
X276000Y-208000D02*
D03*
X159000Y-150000D02*
D03*
X222000Y-128000D02*
D03*
X196000Y-135000D02*
D03*
X258000Y-40000D02*
D03*
X213000Y-62000D02*
D03*
X360000Y-43000D02*
D03*
X358000Y12000D02*
D03*
X265000Y-8000D02*
D03*
X235000Y-2000D02*
D03*
X243000Y71000D02*
D03*
X151000Y181000D02*
D03*
X95000Y161000D02*
D03*
X323000Y215000D02*
D03*
X189000Y321000D02*
D03*
X233000Y283000D02*
D03*
X-72000Y291000D02*
D03*
X-10000Y321000D02*
D03*
X120000Y265000D02*
D03*
X122000Y318000D02*
D03*
X31000Y273000D02*
D03*
X-126000Y310000D02*
D03*
X-197000Y307000D02*
D03*
X-175000Y229000D02*
D03*
X-47000Y198000D02*
D03*
X-129000Y180000D02*
D03*
X-217000Y127000D02*
D03*
X-103000Y118000D02*
D03*
X-55000Y99000D02*
D03*
X-157000Y36000D02*
D03*
X-219000Y-29000D02*
D03*
X-231000Y-95000D02*
D03*
X-299000Y-157000D02*
D03*
X-362000Y-189000D02*
D03*
X-376000Y-100000D02*
D03*
X-364000Y-53000D02*
D03*
X-286000Y114000D02*
D03*
X-329000Y166000D02*
D03*
X-309000Y197000D02*
D03*
X356000Y-10000D02*
D03*
X342000Y-25000D02*
D03*
X-145000Y-166000D02*
D03*
X-115500Y-150500D02*
D03*
X118000Y229000D02*
D03*
X325000Y66000D02*
D03*
X298000Y18000D02*
D03*
X-74000Y-109500D02*
D03*
X-163562Y-115098D02*
D03*
X-106454Y169315D02*
D03*
X-136250Y-30750D02*
D03*
X-180850Y85401D02*
D03*
D49*
X-117500Y-282350D02*
Y-275350D01*
X-123500Y-289350D02*
Y-275350D01*
X-124000Y-299000D02*
X-123691Y-298691D01*
Y-289541D01*
X-123500Y-289350D01*
X-111500D02*
Y-275350D01*
X-112000Y-298000D02*
X-111691Y-297691D01*
Y-289541D01*
X-111500Y-289350D01*
X-123500Y-275350D02*
Y-259350D01*
X-124000Y-249000D02*
X-123691Y-249309D01*
Y-259159D02*
Y-249309D01*
Y-259159D02*
X-123500Y-259350D01*
X-111500Y-275350D02*
Y-259350D01*
X-117500Y-275350D02*
Y-267350D01*
X-123500Y-259350D02*
Y-259350D01*
X-123500Y-275350D02*
X-123500D01*
X-111500Y-259350D02*
Y-249000D01*
X-117500Y-275350D02*
X-111500D01*
X294500Y152000D02*
X297906D01*
X317906Y132000D01*
X331000D01*
X353000Y110000D01*
X287000Y116500D02*
Y139000D01*
X275000Y151000D02*
X287000Y139000D01*
X275000Y151000D02*
Y175250D01*
X184750Y265500D02*
X275000Y175250D01*
X-357750Y40000D02*
X-350000Y47750D01*
X-214000Y-257000D02*
X-199750Y-242750D01*
X-302000Y-257000D02*
X-214000D01*
X-334000Y-225000D02*
X-302000Y-257000D01*
X-334000Y-225000D02*
Y-219000D01*
X-308000D02*
X-306000Y-217000D01*
X-334000Y-219000D02*
X-308000D01*
X-334000D02*
Y-112000D01*
X-306000Y-217000D02*
X-294750D01*
X-199750Y-242750D02*
Y-232500D01*
X353750Y32750D02*
X376000Y14404D01*
Y-76000D02*
Y14404D01*
X337960Y-114040D02*
X376000Y-76000D01*
X-260000Y-750D02*
X-259250Y0D01*
X356000Y-10000D02*
Y-1000D01*
X329000Y26000D02*
X356000Y-1000D01*
X329000Y26000D02*
Y46000D01*
X339000Y56000D01*
X371000D01*
X380000Y65000D01*
Y101000D01*
X371000Y110000D02*
X380000Y101000D01*
X353000Y110000D02*
X371000D01*
X319500Y60500D02*
X325000Y66000D01*
X319500Y21657D02*
Y60500D01*
Y21657D02*
X342000Y-843D01*
X287000Y85500D02*
X311000D01*
X342000Y-25000D02*
Y-843D01*
X322000Y4000D02*
X328750Y-2750D01*
Y-20407D02*
Y-2750D01*
X311657Y-37500D02*
X328750Y-20407D01*
X309000Y-37500D02*
X311657D01*
X-93000Y-182000D02*
X-69000D01*
X-115000D02*
X-93000D01*
X-120000Y-151000D02*
X-115000D01*
X-74040D02*
X-69000D01*
X-93000D02*
X-74040D01*
X-115000D02*
X-93000D01*
X-145000Y-186000D02*
Y-166000D01*
X-163000Y-204000D02*
X-145000Y-186000D01*
X-220000Y-204000D02*
X-163000D01*
X-263500Y-161500D02*
Y-132750D01*
X-283500Y-170000D02*
X-272000D01*
X-225250Y-209250D02*
X-220000Y-204000D01*
X-114000Y-209000D02*
Y-185000D01*
X-126000Y-213000D02*
X-117000D01*
X-134500Y-221500D02*
X-126000Y-213000D01*
X-134500Y-235000D02*
Y-221500D01*
X-73000Y-248000D02*
X-65000D01*
X-107000Y-214000D02*
X-73000Y-248000D01*
X-114000Y-214000D02*
X-107000D01*
X118000Y229000D02*
X139500Y207500D01*
Y176500D02*
Y207500D01*
Y176500D02*
X159500Y156500D01*
X337960Y-155960D02*
Y-114040D01*
Y-155960D02*
X340000Y-158000D01*
Y-196000D02*
Y-158000D01*
X258000Y-278000D02*
X340000Y-196000D01*
X255000Y-278000D02*
X258000D01*
X327750Y-185250D02*
Y-110250D01*
X266000Y-247000D02*
X327750Y-185250D01*
X255000Y-247000D02*
X266000D01*
X-182500Y-218000D02*
X-167500Y-233000D01*
X-205000Y-218000D02*
X-182500D01*
X-212000Y-225000D02*
X-205000Y-218000D01*
X286000Y-125000D02*
X305000D01*
X278000Y-190000D02*
X279000Y-189000D01*
X302000D01*
X235750Y-171000D02*
X236375Y-171625D01*
X233500Y-168750D02*
X235750Y-171000D01*
X229500Y-178500D02*
X236375Y-171625D01*
X229500Y-191000D02*
Y-178500D01*
X233500Y-168750D02*
Y-158250D01*
X-225250Y-223000D02*
Y-209250D01*
X-212000Y-235000D02*
Y-225000D01*
X-219000Y-242000D02*
X-212000Y-235000D01*
X-225250Y-242000D02*
X-219000D01*
X-234000D02*
X-225250D01*
X-248000Y-228000D02*
X-234000Y-242000D01*
X-262500Y-228000D02*
X-248000D01*
X-263500Y-198000D02*
X-262500Y-197000D01*
X-294750Y-198000D02*
X-263500D01*
X217500Y35000D02*
Y66500D01*
Y25000D02*
Y35000D01*
X341500Y-78000D02*
Y-75000D01*
Y-96500D02*
Y-78000D01*
X263000Y101000D02*
X335000D01*
X256000Y94000D02*
X263000Y101000D01*
X256000Y85500D02*
Y94000D01*
X280500Y20000D02*
Y29500D01*
X257500Y52500D02*
X280500Y29500D01*
X255000Y52500D02*
X257500D01*
X232500D02*
X255000D01*
X256000Y53500D01*
Y85500D01*
X270000Y2500D02*
X301500D01*
X227000Y76000D02*
Y96000D01*
X217500Y66500D02*
X227000Y76000D01*
X280000Y-37500D02*
X309000D01*
X310500Y-39000D01*
Y-75000D02*
Y-39000D01*
X260000Y35000D02*
X265000Y30000D01*
X217500Y35000D02*
X260000D01*
X249500Y20000D02*
X250000Y19500D01*
X265000Y7500D02*
Y30000D01*
Y7500D02*
X270000Y2500D01*
X275500Y-33000D02*
Y-17000D01*
Y-33000D02*
X280000Y-37500D01*
X194500Y17000D02*
X200500D01*
X205000Y12500D01*
Y-2500D02*
Y12500D01*
X189000Y17500D02*
X191500Y20000D01*
X239000Y-26500D02*
X250000D01*
X220000Y-7500D02*
X239000Y-26500D01*
X210000Y-7500D02*
X220000D01*
X205000Y-2500D02*
X210000Y-7500D01*
X273000Y-77000D02*
Y-72500D01*
Y-77000D02*
X295500Y-99500D01*
X305000Y-140000D02*
Y-125000D01*
Y-140000D02*
X315000Y-150000D01*
X220000Y-47500D02*
Y-35000D01*
Y-47500D02*
X242000Y-69500D01*
Y-72500D02*
Y-69500D01*
Y-72500D02*
X242500Y-73000D01*
Y-99500D02*
Y-73000D01*
X148000Y-163000D02*
X154000D01*
X305500Y-188500D02*
X315000Y-179000D01*
Y-150000D01*
X285000Y-175000D02*
X290000Y-170000D01*
X302000D01*
X269000Y-175000D02*
X285000D01*
X242500Y-130500D02*
X252500Y-140500D01*
Y-158250D02*
Y-140500D01*
X258500Y-171000D02*
X272500Y-157000D01*
X227000Y96000D02*
X230250Y99250D01*
Y151000D01*
X255750Y160500D02*
X256000Y160250D01*
X-138750Y-230750D02*
X-136500Y-233000D01*
X-134500Y-235000D01*
X-320250Y-207500D02*
Y-197250D01*
X-315000Y-192000D01*
X154000Y-163000D02*
X163500Y-172500D01*
Y-190750D02*
Y-172500D01*
Y-190750D02*
X176000Y-203250D01*
X261000Y-183000D02*
X269000Y-175000D01*
X243000Y-183750D02*
Y-183000D01*
X235750Y-171000D02*
X258500D01*
X176000Y-203250D02*
X217250D01*
X229500Y-191000D01*
X327750Y-110250D02*
X341500Y-96500D01*
X302000Y-170000D02*
X302250D01*
X243000Y-199500D02*
Y-183750D01*
Y-199500D02*
X256000Y-212500D01*
Y-219750D02*
Y-212500D01*
X241375Y-234375D02*
X256000Y-219750D01*
X227500Y-247000D02*
X232165D01*
X241375Y-237790D01*
Y-234375D01*
X-272000Y-170000D02*
X-263500Y-161500D01*
X-315000Y-145500D02*
X-308000Y-138500D01*
X-363790Y181210D02*
X-349790D01*
X-350000Y1000D02*
Y15500D01*
X-385539Y-60461D02*
X-334000Y-112000D01*
X-385539Y159461D02*
X-363790Y181210D01*
X-385539Y-60461D02*
Y159461D01*
X-263500Y-8500D02*
X-260000Y-5000D01*
Y-750D01*
X250000Y-7500D02*
Y19500D01*
X193750Y139000D02*
X209000D01*
X176250Y156500D02*
X193750Y139000D01*
X159500Y156500D02*
X176250D01*
X140094Y265500D02*
X184750D01*
X-349790Y181210D02*
X-280500Y250500D01*
X125094D01*
X140094Y265500D01*
X-315000Y-192000D02*
Y-145500D01*
X354000Y78000D02*
Y82000D01*
X335000Y101000D02*
X354000Y82000D01*
X191500Y20000D02*
X194500Y17000D01*
X243000Y-183000D02*
X261000D01*
X256000Y116500D02*
Y160250D01*
D50*
X-302000Y-8500D02*
X-263500D01*
D51*
X-293750Y156250D02*
X-254000D01*
X-234000Y176250D02*
Y201500D01*
X-254000Y156250D02*
X-234000Y176250D01*
X-340000Y110000D02*
X-293750Y156250D01*
X-340000Y83750D02*
Y110000D01*
D52*
X182000Y50000D02*
X202500D01*
X98000Y-275000D02*
Y-215500D01*
X227500Y-278000D02*
X255000D01*
X97500Y-215000D02*
X98000Y-215500D01*
X67000Y-275000D02*
X67000Y-275000D01*
X40000Y-275000D02*
X67000D01*
X40000D02*
Y-255000D01*
X32500Y-247500D02*
X40000Y-255000D01*
X-32500Y-247500D02*
X32500D01*
X178500Y-7500D02*
X189000D01*
X169000Y2000D02*
X178500Y-7500D01*
X169000Y2000D02*
Y37000D01*
X182000Y50000D01*
X168468Y-17532D02*
X178500Y-7500D01*
X168468Y-28289D02*
Y-17532D01*
X97500Y-215000D02*
Y-147000D01*
X168468Y-28289D01*
X206000Y-271000D02*
X213000Y-278000D01*
X227500D01*
X99250Y-245000D02*
Y-228750D01*
X191000D01*
X206000Y-243750D01*
Y-271000D02*
Y-243750D01*
D53*
X-259250Y0D02*
X-220000D01*
X-180000D02*
X-95500D01*
D54*
X-295076Y-239308D02*
D03*
X-252076Y-281308D02*
D03*
X-280000Y230000D02*
D03*
X-235000Y273000D02*
D03*
D55*
X-111500Y-259350D02*
D03*
X-123500Y-259350D02*
D03*
X-117500Y-267350D02*
D03*
X-111500Y-275350D02*
D03*
X-123500Y-275350D02*
D03*
X-117500Y-282350D02*
D03*
X-111500Y-289350D02*
D03*
X-123500D02*
D03*
D56*
X130000Y-255000D02*
D03*
X180000D02*
D03*
D57*
X346000Y33000D02*
D03*
Y78000D02*
D03*
X-137000Y273500D02*
D03*
X-136250Y211000D02*
D03*
X-302000Y-8500D02*
D03*
X-356000Y51000D02*
D03*
X265000Y-116000D02*
D03*
X283000Y62000D02*
D03*
X209000Y139000D02*
D03*
D58*
X-234000Y201500D02*
D03*
X-18000Y-135250D02*
D03*
X153000Y-26000D02*
D03*
X18000Y135500D02*
D03*
X32000Y85000D02*
D03*
X145000Y144000D02*
D03*
X-18000Y197000D02*
D03*
X18000Y-198000D02*
D03*
X148250Y-184750D02*
D03*
X228500Y-221500D02*
D03*
M02*
