G04*
G04 #@! TF.GenerationSoftware,Altium Limited,Altium Designer,19.1.9 (167)*
G04*
G04 Layer_Color=255*
%FSLAX44Y44*%
%MOMM*%
G71*
G01*
G75*
%ADD16R,1.1500X1.8500*%
G04:AMPARAMS|DCode=17|XSize=4.5mm|YSize=13mm|CornerRadius=1.125mm|HoleSize=0mm|Usage=FLASHONLY|Rotation=0.000|XOffset=0mm|YOffset=0mm|HoleType=Round|Shape=RoundedRectangle|*
%AMROUNDEDRECTD17*
21,1,4.5000,10.7500,0,0,0.0*
21,1,2.2500,13.0000,0,0,0.0*
1,1,2.2500,1.1250,-5.3750*
1,1,2.2500,-1.1250,-5.3750*
1,1,2.2500,-1.1250,5.3750*
1,1,2.2500,1.1250,5.3750*
%
%ADD17ROUNDEDRECTD17*%
%ADD18R,1.1500X0.7500*%
%ADD19R,1.8500X1.1500*%
%ADD20R,1.3500X1.9500*%
%ADD21R,1.2000X2.0000*%
%ADD22R,4.0000X2.0000*%
%ADD23R,2.1500X2.1000*%
%ADD24R,0.7500X1.1500*%
%ADD25R,1.5500X1.8500*%
%ADD26R,2.0000X1.5500*%
%ADD27O,4.0000X2.5000*%
%ADD48C,1.0000*%
%ADD54C,1.5240*%
%ADD55C,0.7000*%
%ADD56C,2.5000*%
%ADD57C,2.0000*%
D16*
X-185500Y0D02*
D03*
X-216500D02*
D03*
X-136500Y-233000D02*
D03*
X-167500D02*
D03*
X-283500Y-173000D02*
D03*
X-314500D02*
D03*
X-83000Y-214000D02*
D03*
X-114000D02*
D03*
X310500Y-78000D02*
D03*
X341500D02*
D03*
X249500Y20000D02*
D03*
X280500D02*
D03*
X189000Y17500D02*
D03*
X220000D02*
D03*
X189000Y-7500D02*
D03*
X220000D02*
D03*
X242000Y-72500D02*
D03*
X273000D02*
D03*
X141500Y-164000D02*
D03*
X110500D02*
D03*
X98000Y-275000D02*
D03*
X67000D02*
D03*
D17*
X-265500Y30001D02*
D03*
X-350500D02*
D03*
D18*
X-199750Y-232500D02*
D03*
X-225250Y-242000D02*
D03*
X-225250Y-223000D02*
D03*
X-320250Y-207500D02*
D03*
X-294750Y-198000D02*
D03*
Y-217000D02*
D03*
X230250Y151000D02*
D03*
X255750Y160500D02*
D03*
X255750Y141500D02*
D03*
X275500Y-17000D02*
D03*
X250000Y-26500D02*
D03*
Y-7500D02*
D03*
X327500Y-179500D02*
D03*
X302000Y-189000D02*
D03*
X302000Y-170000D02*
D03*
D19*
X-262500Y-228000D02*
D03*
Y-197000D02*
D03*
X-93000Y-182000D02*
D03*
Y-151000D02*
D03*
X-69000Y-182000D02*
D03*
Y-151000D02*
D03*
X-115000Y-182000D02*
D03*
Y-151000D02*
D03*
X256000Y85500D02*
D03*
Y116500D02*
D03*
X287000Y85500D02*
D03*
Y116500D02*
D03*
X313000Y85500D02*
D03*
Y116500D02*
D03*
X242500Y-130500D02*
D03*
Y-99500D02*
D03*
X278000Y-190000D02*
D03*
Y-159000D02*
D03*
X227500Y-278000D02*
D03*
Y-247000D02*
D03*
X255000Y-278000D02*
D03*
Y-247000D02*
D03*
D20*
X-65000Y-248000D02*
D03*
X-35000Y-248000D02*
D03*
X232500Y52500D02*
D03*
X202500Y52500D02*
D03*
X190000Y-35000D02*
D03*
X220000D02*
D03*
X67500Y-215000D02*
D03*
X97500Y-215000D02*
D03*
D21*
X-308750Y-133250D02*
D03*
X-286250D02*
D03*
X-263750D02*
D03*
D22*
X-286250Y-70750D02*
D03*
D23*
X-265250Y203750D02*
D03*
X-265250Y157750D02*
D03*
D24*
X312500Y-21500D02*
D03*
X303000Y4000D02*
D03*
X322000Y4000D02*
D03*
X295500Y-99500D02*
D03*
X305000Y-125000D02*
D03*
X286000D02*
D03*
X243000Y-183750D02*
D03*
X233500Y-158250D02*
D03*
X252500D02*
D03*
D25*
X65750Y-245000D02*
D03*
X99250Y-245000D02*
D03*
D26*
X40000Y-275000D02*
D03*
X-5000D02*
D03*
D27*
X354000Y78000D02*
D03*
X353750Y32750D02*
D03*
D48*
X-245000Y-305000D02*
D03*
X235000D02*
D03*
X0Y290000D02*
D03*
D54*
X-295076Y-239308D02*
D03*
X-252076Y-281308D02*
D03*
X-280000Y230000D02*
D03*
X-235000Y273000D02*
D03*
D55*
X-111500Y-259350D02*
D03*
X-123500Y-259350D02*
D03*
X-117500Y-267350D02*
D03*
X-111500Y-275350D02*
D03*
X-123500Y-275350D02*
D03*
X-117500Y-282350D02*
D03*
X-111500Y-289350D02*
D03*
X-123500D02*
D03*
D56*
X130000Y-255000D02*
D03*
X180000D02*
D03*
D57*
X346000Y33000D02*
D03*
Y78000D02*
D03*
X-137000Y273500D02*
D03*
X-136250Y211000D02*
D03*
M02*
