G04*
G04 #@! TF.GenerationSoftware,Altium Limited,Altium Designer,19.1.9 (167)*
G04*
G04 Layer_Physical_Order=2*
G04 Layer_Color=16711680*
%FSLAX44Y44*%
%MOMM*%
G71*
G01*
G75*
%ADD13C,0.5000*%
%ADD14C,0.4000*%
%ADD16R,1.1500X1.8500*%
%ADD18R,1.1500X0.7500*%
%ADD19R,1.8500X1.1500*%
%ADD20R,1.3500X1.9500*%
%ADD24R,0.7500X1.1500*%
%ADD25R,1.5500X1.8500*%
%ADD47C,1.0000*%
%ADD48C,1.0000*%
%ADD49C,0.6000*%
%ADD51C,1.5000*%
%ADD53C,2.0000*%
%ADD54C,1.5240*%
%ADD55C,0.7000*%
%ADD56C,2.5000*%
%ADD57C,2.0000*%
%ADD58C,1.2700*%
G04:AMPARAMS|DCode=59|XSize=2.2mm|YSize=4.15mm|CornerRadius=0mm|HoleSize=0mm|Usage=FLASHONLY|Rotation=45.000|XOffset=0mm|YOffset=0mm|HoleType=Round|Shape=Rectangle|*
%AMROTATEDRECTD59*
4,1,4,0.6894,-2.2451,-2.2451,0.6894,-0.6894,2.2451,2.2451,-0.6894,0.6894,-2.2451,0.0*
%
%ADD59ROTATEDRECTD59*%

G04:AMPARAMS|DCode=60|XSize=2.2mm|YSize=4.15mm|CornerRadius=0mm|HoleSize=0mm|Usage=FLASHONLY|Rotation=315.000|XOffset=0mm|YOffset=0mm|HoleType=Round|Shape=Rectangle|*
%AMROTATEDRECTD60*
4,1,4,-2.2451,-0.6894,0.6894,2.2451,2.2451,0.6894,-0.6894,-2.2451,-2.2451,-0.6894,0.0*
%
%ADD60ROTATEDRECTD60*%

G04:AMPARAMS|DCode=61|XSize=1.25mm|YSize=2.75mm|CornerRadius=0mm|HoleSize=0mm|Usage=FLASHONLY|Rotation=45.000|XOffset=0mm|YOffset=0mm|HoleType=Round|Shape=Rectangle|*
%AMROTATEDRECTD61*
4,1,4,0.5303,-1.4142,-1.4142,0.5303,-0.5303,1.4142,1.4142,-0.5303,0.5303,-1.4142,0.0*
%
%ADD61ROTATEDRECTD61*%

G04:AMPARAMS|DCode=62|XSize=5.55mm|YSize=7mm|CornerRadius=0mm|HoleSize=0mm|Usage=FLASHONLY|Rotation=45.000|XOffset=0mm|YOffset=0mm|HoleType=Round|Shape=Rectangle|*
%AMROTATEDRECTD62*
4,1,4,0.5127,-4.4371,-4.4371,0.5127,-0.5127,4.4371,4.4371,-0.5127,0.5127,-4.4371,0.0*
%
%ADD62ROTATEDRECTD62*%

%ADD63R,1.8500X1.5500*%
%ADD64R,1.2000X2.0000*%
%ADD65R,1.9500X1.3500*%
G04:AMPARAMS|DCode=66|XSize=2.5mm|YSize=1.8mm|CornerRadius=0.45mm|HoleSize=0mm|Usage=FLASHONLY|Rotation=180.000|XOffset=0mm|YOffset=0mm|HoleType=Round|Shape=RoundedRectangle|*
%AMROUNDEDRECTD66*
21,1,2.5000,0.9000,0,0,180.0*
21,1,1.6000,1.8000,0,0,180.0*
1,1,0.9000,-0.8000,0.4500*
1,1,0.9000,0.8000,0.4500*
1,1,0.9000,0.8000,-0.4500*
1,1,0.9000,-0.8000,-0.4500*
%
%ADD66ROUNDEDRECTD66*%
G04:AMPARAMS|DCode=67|XSize=2.5mm|YSize=1.8mm|CornerRadius=0.45mm|HoleSize=0mm|Usage=FLASHONLY|Rotation=240.000|XOffset=0mm|YOffset=0mm|HoleType=Round|Shape=RoundedRectangle|*
%AMROUNDEDRECTD67*
21,1,2.5000,0.9000,0,0,240.0*
21,1,1.6000,1.8000,0,0,240.0*
1,1,0.9000,-0.7897,-0.4678*
1,1,0.9000,0.0103,0.9178*
1,1,0.9000,0.7897,0.4678*
1,1,0.9000,-0.0103,-0.9178*
%
%ADD67ROUNDEDRECTD67*%
G04:AMPARAMS|DCode=68|XSize=2.5mm|YSize=1.8mm|CornerRadius=0.45mm|HoleSize=0mm|Usage=FLASHONLY|Rotation=300.000|XOffset=0mm|YOffset=0mm|HoleType=Round|Shape=RoundedRectangle|*
%AMROUNDEDRECTD68*
21,1,2.5000,0.9000,0,0,300.0*
21,1,1.6000,1.8000,0,0,300.0*
1,1,0.9000,0.0103,-0.9178*
1,1,0.9000,-0.7897,0.4678*
1,1,0.9000,-0.0103,0.9178*
1,1,0.9000,0.7897,-0.4678*
%
%ADD68ROUNDEDRECTD68*%
G04:AMPARAMS|DCode=69|XSize=1.85mm|YSize=1.15mm|CornerRadius=0mm|HoleSize=0mm|Usage=FLASHONLY|Rotation=315.000|XOffset=0mm|YOffset=0mm|HoleType=Round|Shape=Rectangle|*
%AMROTATEDRECTD69*
4,1,4,-1.0607,0.2475,-0.2475,1.0607,1.0607,-0.2475,0.2475,-1.0607,-1.0607,0.2475,0.0*
%
%ADD69ROTATEDRECTD69*%

%ADD70O,1.7000X0.6000*%
%ADD71R,2.0000X4.0000*%
G04:AMPARAMS|DCode=72|XSize=4.5mm|YSize=13mm|CornerRadius=1.125mm|HoleSize=0mm|Usage=FLASHONLY|Rotation=225.000|XOffset=0mm|YOffset=0mm|HoleType=Round|Shape=RoundedRectangle|*
%AMROUNDEDRECTD72*
21,1,4.5000,10.7500,0,0,225.0*
21,1,2.2500,13.0000,0,0,225.0*
1,1,2.2500,-4.5962,3.0052*
1,1,2.2500,-3.0052,4.5962*
1,1,2.2500,4.5962,-3.0052*
1,1,2.2500,3.0052,-4.5962*
%
%ADD72ROUNDEDRECTD72*%
G04:AMPARAMS|DCode=73|XSize=2.5mm|YSize=2.5mm|CornerRadius=0.625mm|HoleSize=0mm|Usage=FLASHONLY|Rotation=300.000|XOffset=0mm|YOffset=0mm|HoleType=Round|Shape=RoundedRectangle|*
%AMROUNDEDRECTD73*
21,1,2.5000,1.2500,0,0,300.0*
21,1,1.2500,2.5000,0,0,300.0*
1,1,1.2500,-0.2288,-0.8538*
1,1,1.2500,-0.8538,0.2288*
1,1,1.2500,0.2288,0.8538*
1,1,1.2500,0.8538,-0.2288*
%
%ADD73ROUNDEDRECTD73*%
G04:AMPARAMS|DCode=74|XSize=2.5mm|YSize=2.5mm|CornerRadius=0.625mm|HoleSize=0mm|Usage=FLASHONLY|Rotation=240.000|XOffset=0mm|YOffset=0mm|HoleType=Round|Shape=RoundedRectangle|*
%AMROUNDEDRECTD74*
21,1,2.5000,1.2500,0,0,240.0*
21,1,1.2500,2.5000,0,0,240.0*
1,1,1.2500,-0.8538,-0.2288*
1,1,1.2500,-0.2288,0.8538*
1,1,1.2500,0.8538,0.2288*
1,1,1.2500,0.2288,-0.8538*
%
%ADD74ROUNDEDRECTD74*%
G04:AMPARAMS|DCode=75|XSize=2.5mm|YSize=2.5mm|CornerRadius=0.625mm|HoleSize=0mm|Usage=FLASHONLY|Rotation=180.000|XOffset=0mm|YOffset=0mm|HoleType=Round|Shape=RoundedRectangle|*
%AMROUNDEDRECTD75*
21,1,2.5000,1.2500,0,0,180.0*
21,1,1.2500,2.5000,0,0,180.0*
1,1,1.2500,-0.6250,0.6250*
1,1,1.2500,0.6250,0.6250*
1,1,1.2500,0.6250,-0.6250*
1,1,1.2500,-0.6250,-0.6250*
%
%ADD75ROUNDEDRECTD75*%
G04:AMPARAMS|DCode=76|XSize=2.15mm|YSize=2.1mm|CornerRadius=0mm|HoleSize=0mm|Usage=FLASHONLY|Rotation=315.000|XOffset=0mm|YOffset=0mm|HoleType=Round|Shape=Rectangle|*
%AMROTATEDRECTD76*
4,1,4,-1.5026,0.0177,-0.0177,1.5026,1.5026,-0.0177,0.0177,-1.5026,-1.5026,0.0177,0.0*
%
%ADD76ROTATEDRECTD76*%

%ADD77R,2.1000X2.1500*%
G04:AMPARAMS|DCode=78|XSize=1.85mm|YSize=1.15mm|CornerRadius=0mm|HoleSize=0mm|Usage=FLASHONLY|Rotation=300.000|XOffset=0mm|YOffset=0mm|HoleType=Round|Shape=Rectangle|*
%AMROTATEDRECTD78*
4,1,4,-0.9605,0.5136,0.0355,1.0886,0.9605,-0.5136,-0.0355,-1.0886,-0.9605,0.5136,0.0*
%
%ADD78ROTATEDRECTD78*%

G04:AMPARAMS|DCode=79|XSize=1.85mm|YSize=1.15mm|CornerRadius=0mm|HoleSize=0mm|Usage=FLASHONLY|Rotation=60.000|XOffset=0mm|YOffset=0mm|HoleType=Round|Shape=Rectangle|*
%AMROTATEDRECTD79*
4,1,4,0.0355,-1.0886,-0.9605,-0.5136,-0.0355,1.0886,0.9605,0.5136,0.0355,-1.0886,0.0*
%
%ADD79ROTATEDRECTD79*%

%ADD80O,3.0000X6.0000*%
%ADD81C,5.0000*%
G36*
X390922Y166311D02*
Y-195811D01*
X322876Y-263856D01*
X321721Y-263349D01*
X321666Y-263270D01*
X322118Y-261000D01*
Y-251000D01*
X321652Y-248659D01*
X320326Y-246674D01*
X317988Y-244336D01*
X328889Y-233435D01*
X311565Y-216111D01*
X299191Y-228485D01*
X303307Y-232602D01*
X303261Y-232711D01*
X303028Y-233115D01*
X302654Y-233640D01*
X302369Y-233980D01*
X300674Y-235674D01*
X300674Y-235674D01*
X298480Y-237868D01*
X298139Y-238154D01*
X297615Y-238528D01*
X297211Y-238761D01*
X297101Y-238807D01*
X292485Y-234191D01*
X280111Y-246565D01*
X297435Y-263889D01*
X308836Y-252488D01*
X309883Y-253534D01*
Y-258466D01*
X259466Y-308883D01*
X85534D01*
X80118Y-303466D01*
Y-277000D01*
X79652Y-274659D01*
X78326Y-272674D01*
X57326Y-251674D01*
X55341Y-250348D01*
X53000Y-249883D01*
X-30000D01*
X-32341Y-250348D01*
X-34326Y-251674D01*
X-47980Y-265329D01*
X-49250Y-264840D01*
Y-258250D01*
X-74750D01*
Y-266686D01*
X-74770Y-266758D01*
X-74750Y-266920D01*
Y-267102D01*
X-74766Y-267254D01*
X-74750Y-267310D01*
Y-269364D01*
X-75253Y-270084D01*
X-76762Y-271861D01*
X-79484Y-274583D01*
X-94500D01*
X-96841Y-275048D01*
X-98826Y-276374D01*
X-100152Y-278359D01*
X-100618Y-280700D01*
X-100152Y-283041D01*
X-98826Y-285026D01*
X-96841Y-286352D01*
X-94500Y-286818D01*
X-76950D01*
X-74609Y-286352D01*
X-72624Y-285026D01*
X-67318Y-279719D01*
X-66685Y-279158D01*
X-65787Y-278443D01*
X-65017Y-277910D01*
X-64736Y-277750D01*
X-62366D01*
X-62215Y-277766D01*
X-62159Y-277750D01*
X-50118D01*
Y-292466D01*
X-58534Y-300882D01*
X-134466D01*
X-136335Y-299014D01*
X-136210Y-297750D01*
X-136174Y-297726D01*
X-134848Y-295741D01*
X-134382Y-293400D01*
X-134848Y-291059D01*
X-136174Y-289074D01*
X-138159Y-287748D01*
X-138414Y-287697D01*
Y-286403D01*
X-138159Y-286352D01*
X-136174Y-285026D01*
X-134848Y-283041D01*
X-134382Y-280700D01*
X-134848Y-278359D01*
X-136174Y-276374D01*
X-138159Y-275048D01*
X-138414Y-274997D01*
Y-273703D01*
X-138159Y-273652D01*
X-136174Y-272326D01*
X-134848Y-270341D01*
X-134382Y-268000D01*
X-134848Y-265659D01*
X-136174Y-263674D01*
X-138159Y-262348D01*
X-138414Y-262297D01*
Y-261003D01*
X-138159Y-260952D01*
X-136174Y-259626D01*
X-134848Y-257641D01*
X-134382Y-255300D01*
X-134848Y-252959D01*
X-134969Y-252778D01*
X-135183Y-249249D01*
Y-246117D01*
X-126839D01*
X-124498Y-245652D01*
X-122513Y-244326D01*
X-117788Y-239600D01*
X-116733Y-238622D01*
X-116102Y-238118D01*
X-115700D01*
X-114278Y-239320D01*
X-109272Y-244326D01*
X-107287Y-245652D01*
X-104946Y-246117D01*
X-96534D01*
X-95118Y-247534D01*
Y-247663D01*
X-95157Y-248120D01*
X-95264Y-248774D01*
X-95388Y-249241D01*
X-95440Y-249369D01*
X-96841Y-249648D01*
X-98826Y-250974D01*
X-100152Y-252959D01*
X-100618Y-255300D01*
X-100152Y-257641D01*
X-98826Y-259626D01*
X-96841Y-260952D01*
X-94500Y-261418D01*
X-83500D01*
X-81159Y-260952D01*
X-79174Y-259626D01*
X-77848Y-257641D01*
X-77382Y-255300D01*
X-77848Y-252959D01*
X-79174Y-250974D01*
X-81159Y-249648D01*
X-82560Y-249369D01*
X-82612Y-249241D01*
X-82736Y-248774D01*
X-82843Y-248120D01*
X-82882Y-247663D01*
Y-245000D01*
X-83348Y-242659D01*
X-84674Y-240674D01*
X-89674Y-235674D01*
X-91659Y-234348D01*
X-94000Y-233883D01*
X-102412D01*
X-104945Y-231350D01*
X-105971Y-230247D01*
X-106701Y-229339D01*
X-107250Y-228554D01*
Y-212750D01*
X-124750D01*
Y-228780D01*
X-125252Y-229496D01*
X-126759Y-231269D01*
X-129373Y-233883D01*
X-137785D01*
X-138250Y-233501D01*
Y-212750D01*
X-155750D01*
Y-218571D01*
X-155860Y-218616D01*
X-156310Y-218738D01*
X-156946Y-218843D01*
X-157388Y-218883D01*
X-198466D01*
X-208481Y-208868D01*
X-207689Y-207863D01*
X-205028Y-209494D01*
X-200229Y-211482D01*
X-195178Y-212694D01*
X-190000Y-213102D01*
X-184822Y-212694D01*
X-179771Y-211482D01*
X-174972Y-209494D01*
X-170543Y-206780D01*
X-166593Y-203407D01*
X-163220Y-199457D01*
X-160506Y-195028D01*
X-158518Y-190229D01*
X-157305Y-185178D01*
X-156898Y-180000D01*
X-157305Y-174822D01*
X-158518Y-169771D01*
X-160506Y-164972D01*
X-163220Y-160543D01*
X-166593Y-156593D01*
X-170543Y-153220D01*
X-174972Y-150506D01*
X-176581Y-149839D01*
X-176250Y-148602D01*
X-173875Y-148915D01*
X-170808Y-148511D01*
X-167949Y-147327D01*
X-165495Y-145443D01*
X-163611Y-142989D01*
X-162427Y-140131D01*
X-162024Y-137063D01*
X-162428Y-133996D01*
X-163123Y-132316D01*
X-162231Y-131152D01*
X-161818Y-131206D01*
X-159860Y-130949D01*
X-158036Y-130193D01*
X-150242Y-125693D01*
X-148675Y-124491D01*
X-147572Y-123053D01*
X-145801Y-124412D01*
X-142942Y-125596D01*
X-139875Y-126000D01*
X-136808Y-125596D01*
X-133949Y-124412D01*
X-131495Y-122528D01*
X-129611Y-120074D01*
X-128427Y-117216D01*
X-128024Y-114148D01*
X-128427Y-111081D01*
X-128565Y-110750D01*
X-127461Y-110095D01*
X-127295Y-110302D01*
X-119102Y-119102D01*
X-110302Y-127295D01*
X-100939Y-134839D01*
X-91063Y-141697D01*
X-80722Y-147832D01*
X-69970Y-153214D01*
X-68204Y-153946D01*
X-68212Y-154054D01*
X-68391Y-155328D01*
X-68621Y-156340D01*
X-68874Y-157074D01*
X-69105Y-157521D01*
X-69246Y-157701D01*
X-69598Y-157745D01*
X-69612Y-157750D01*
X-72250D01*
Y-160638D01*
X-72278Y-160781D01*
X-72250Y-160923D01*
Y-161093D01*
X-72255Y-161159D01*
X-72250Y-161173D01*
Y-175250D01*
X-47750D01*
Y-162847D01*
X-46480Y-161861D01*
X-35803Y-164586D01*
X-32079Y-165258D01*
X-31844Y-166469D01*
X-31890Y-166582D01*
X-34676Y-167736D01*
X-37130Y-169620D01*
X-39014Y-172074D01*
X-40198Y-174933D01*
X-40601Y-178000D01*
X-40198Y-181067D01*
X-39014Y-183926D01*
X-37130Y-186380D01*
X-35703Y-187475D01*
X-36031Y-188825D01*
X-36508Y-188911D01*
X-39106Y-189160D01*
X-40021Y-189181D01*
X-42737D01*
X-44324Y-189173D01*
X-47750Y-189065D01*
Y-188750D01*
X-50638D01*
X-50781Y-188722D01*
X-50867Y-188739D01*
X-50955Y-188727D01*
X-51045Y-188750D01*
X-72250D01*
Y-206250D01*
X-51137D01*
X-51100Y-206262D01*
X-50974Y-206250D01*
X-50923D01*
X-50781Y-206278D01*
X-50638Y-206250D01*
X-47750D01*
Y-205653D01*
X-42590Y-205319D01*
X-40290D01*
X-37731Y-205436D01*
X-36548Y-205582D01*
X-35407Y-205788D01*
X-35112Y-205860D01*
X-35010Y-207193D01*
X-36926Y-207986D01*
X-39380Y-209870D01*
X-41264Y-212324D01*
X-42448Y-215183D01*
X-42851Y-218250D01*
X-42448Y-221317D01*
X-41264Y-224176D01*
X-39380Y-226630D01*
X-36926Y-228514D01*
X-34067Y-229698D01*
X-31000Y-230101D01*
X31500D01*
X34567Y-229698D01*
X37426Y-228514D01*
X39880Y-226630D01*
X41764Y-224176D01*
X42948Y-221317D01*
X43351Y-218250D01*
X42948Y-215183D01*
X41764Y-212324D01*
X39880Y-209870D01*
X37426Y-207986D01*
X35324Y-207116D01*
X35407Y-205788D01*
X36508Y-205589D01*
X39106Y-205340D01*
X40021Y-205319D01*
X56821D01*
X62543Y-205422D01*
X63250Y-205473D01*
Y-206000D01*
X66138D01*
X66280Y-206028D01*
X66423Y-206000D01*
X76750D01*
Y-188500D01*
X66423D01*
X66280Y-188472D01*
X66138Y-188500D01*
X63250D01*
Y-188880D01*
X58142Y-189181D01*
X40290D01*
X37731Y-189064D01*
X36548Y-188918D01*
X36031Y-188825D01*
X35703Y-187475D01*
X37130Y-186380D01*
X39014Y-183926D01*
X40198Y-181067D01*
X40601Y-178000D01*
X40198Y-174933D01*
X39014Y-172074D01*
X37130Y-169620D01*
X34676Y-167736D01*
X31890Y-166582D01*
X31844Y-166469D01*
X32079Y-165258D01*
X35803Y-164586D01*
X47454Y-161612D01*
X58862Y-157815D01*
X69970Y-153214D01*
X80722Y-147832D01*
X85916Y-144750D01*
X94701D01*
X96115Y-144782D01*
X97862Y-144902D01*
X101351Y-145399D01*
X102450Y-145643D01*
X102557Y-145897D01*
X102884Y-146960D01*
X103152Y-148206D01*
X103352Y-149633D01*
X103475Y-151236D01*
X103508Y-152612D01*
Y-166827D01*
X103783Y-168915D01*
X104589Y-170861D01*
X105871Y-172532D01*
X117794Y-184456D01*
X117826Y-184480D01*
X117395Y-185750D01*
X103750D01*
Y-188578D01*
X103660Y-188615D01*
X103204Y-188737D01*
X102564Y-188843D01*
X102118Y-188883D01*
X95750D01*
Y-188500D01*
X92869D01*
X92729Y-188472D01*
X92585Y-188500D01*
X82250D01*
Y-206000D01*
X95750D01*
Y-201422D01*
X95841Y-201385D01*
X96296Y-201263D01*
X96937Y-201157D01*
X97382Y-201117D01*
X102381D01*
X102653Y-201135D01*
X103354Y-201222D01*
X103750Y-201301D01*
Y-203250D01*
X106632D01*
X106772Y-203278D01*
X106917Y-203250D01*
X125084D01*
X125228Y-203278D01*
X125368Y-203250D01*
X128250D01*
Y-201301D01*
X128600Y-201231D01*
X129825Y-201117D01*
X139151D01*
X162859Y-224826D01*
X164844Y-226152D01*
X167185Y-226618D01*
X205000D01*
X207341Y-226152D01*
X209326Y-224826D01*
X234576Y-199576D01*
X235902Y-197591D01*
X236367Y-195250D01*
Y-164750D01*
X235902Y-162409D01*
X234576Y-160424D01*
X216868Y-142716D01*
Y-118284D01*
X237034Y-98118D01*
X240452D01*
X240537Y-98213D01*
X240961Y-99388D01*
X228924Y-111424D01*
X227598Y-113409D01*
X227132Y-115750D01*
Y-136250D01*
X227598Y-138591D01*
X228924Y-140576D01*
X241675Y-153327D01*
X241189Y-154500D01*
X239750D01*
Y-158905D01*
X239512Y-159215D01*
X238706Y-161161D01*
X238431Y-163250D01*
Y-208908D01*
X233908Y-213431D01*
X233343D01*
X233215Y-213333D01*
X230941Y-212391D01*
X228500Y-212069D01*
X226059Y-212391D01*
X223785Y-213333D01*
X221831Y-214832D01*
X220333Y-216785D01*
X219391Y-219059D01*
X219069Y-221500D01*
X219391Y-223941D01*
X220333Y-226215D01*
X221831Y-228169D01*
X223785Y-229667D01*
X226059Y-230609D01*
X228500Y-230931D01*
X230941Y-230609D01*
X233215Y-229667D01*
X233343Y-229569D01*
X237250D01*
X239338Y-229294D01*
X241285Y-228488D01*
X242956Y-227206D01*
X252206Y-217956D01*
X253488Y-216285D01*
X254294Y-214338D01*
X254569Y-212250D01*
Y-163250D01*
X254344Y-161542D01*
X255497Y-160898D01*
X256774Y-162175D01*
X257325Y-162797D01*
X258037Y-163691D01*
X258570Y-164460D01*
X258750Y-164774D01*
Y-172000D01*
X267182D01*
X267409Y-172152D01*
X269750Y-172617D01*
X281618D01*
X282064Y-172657D01*
X282704Y-172763D01*
X283159Y-172885D01*
X283250Y-172922D01*
Y-176500D01*
X307750D01*
Y-159000D01*
X286416D01*
X286272Y-158972D01*
X286132Y-159000D01*
X283250D01*
Y-160267D01*
X281836Y-160382D01*
X272284D01*
X272250Y-160348D01*
Y-157782D01*
X272274Y-157685D01*
X272250Y-157519D01*
Y-157231D01*
X272255Y-157157D01*
X272250Y-157141D01*
Y-154500D01*
X269471D01*
X269374Y-154476D01*
X268687Y-154441D01*
X268143Y-154359D01*
X267582Y-154217D01*
X266996Y-154011D01*
X266384Y-153734D01*
X265745Y-153380D01*
X265079Y-152946D01*
X264388Y-152426D01*
X263982Y-152080D01*
X260665Y-148764D01*
X261151Y-147591D01*
X320750D01*
X320750Y-147591D01*
X322463Y-147365D01*
X327368Y-152269D01*
Y-197023D01*
X327313Y-198500D01*
X327188Y-199642D01*
X327021Y-200582D01*
X326994Y-200682D01*
X321111Y-206565D01*
X338435Y-223889D01*
X350809Y-211515D01*
X339977Y-200682D01*
X339950Y-200582D01*
X339790Y-199683D01*
X339603Y-197416D01*
Y-149735D01*
X339137Y-147394D01*
X337811Y-145409D01*
X332564Y-140163D01*
X340393Y-132334D01*
X340609Y-132374D01*
X341494Y-133831D01*
X340782Y-136177D01*
X340406Y-140000D01*
X340782Y-143823D01*
X341897Y-147498D01*
X343708Y-150886D01*
X346145Y-153855D01*
X349114Y-156292D01*
X352502Y-158103D01*
X356177Y-159218D01*
X360000Y-159594D01*
X363823Y-159218D01*
X367498Y-158103D01*
X370886Y-156292D01*
X373855Y-153855D01*
X376292Y-150886D01*
X378103Y-147498D01*
X379218Y-143823D01*
X379594Y-140000D01*
X379218Y-136177D01*
X378103Y-132502D01*
X376292Y-129114D01*
X373855Y-126145D01*
X370886Y-123708D01*
X367498Y-121897D01*
X363823Y-120782D01*
X360000Y-120406D01*
X356177Y-120782D01*
X353831Y-121494D01*
X352374Y-120609D01*
X352334Y-120393D01*
X385739Y-86989D01*
X387422Y-84795D01*
X388480Y-82241D01*
X388841Y-79500D01*
X388841Y-79500D01*
Y-15750D01*
Y54500D01*
Y81000D01*
X388480Y83741D01*
X387422Y86295D01*
X385739Y88489D01*
X385739Y88489D01*
X363739Y110489D01*
X361545Y112172D01*
X358991Y113230D01*
X356250Y113591D01*
X356250Y113591D01*
X273387D01*
X254711Y132267D01*
Y142750D01*
X254750D01*
Y167250D01*
X254711D01*
Y209880D01*
X254350Y212621D01*
X253292Y215175D01*
X251609Y217369D01*
X251609Y217369D01*
X230489Y238489D01*
X228295Y240172D01*
X225741Y241230D01*
X223000Y241591D01*
X223000Y241591D01*
X161000D01*
X161000Y241591D01*
X158259Y241230D01*
X155705Y240172D01*
X153511Y238489D01*
X130113Y215091D01*
X105328D01*
X78592Y241827D01*
X79078Y243000D01*
X92000D01*
Y269000D01*
X81886D01*
X81856Y269009D01*
X81748Y269000D01*
X81535D01*
X81369Y269025D01*
X81270Y269000D01*
X78982D01*
X78777Y269146D01*
X76817Y270835D01*
X52326Y295326D01*
X51897Y295613D01*
X52282Y296882D01*
X55466D01*
X59674Y292674D01*
X61659Y291348D01*
X64000Y290882D01*
X85116D01*
X85964Y289612D01*
X85693Y288958D01*
X85435Y287000D01*
X85693Y285042D01*
X86449Y283218D01*
X87651Y281651D01*
X89218Y280449D01*
X91042Y279693D01*
X93000Y279435D01*
X94958Y279693D01*
X96782Y280449D01*
X98349Y281651D01*
X99551Y283218D01*
X100307Y285042D01*
X100565Y287000D01*
X100307Y288958D01*
X100019Y289653D01*
X100868Y290923D01*
X165132D01*
X165981Y289653D01*
X165693Y288958D01*
X165435Y287000D01*
X165693Y285042D01*
X166378Y283388D01*
X165889Y282118D01*
X149534D01*
X147326Y284326D01*
X145341Y285652D01*
X143000Y286117D01*
X109000D01*
X106659Y285652D01*
X104674Y284326D01*
X99674Y279326D01*
X98348Y277341D01*
X97882Y275000D01*
Y270632D01*
X97843Y270186D01*
X97737Y269546D01*
X97615Y269090D01*
X97578Y269000D01*
X94000D01*
Y243000D01*
X112000D01*
Y265834D01*
X112028Y265978D01*
X112000Y266118D01*
Y269000D01*
X110267D01*
X110214Y269302D01*
X110118Y270479D01*
Y272466D01*
X111534Y273883D01*
X140466D01*
X142674Y271674D01*
X144659Y270348D01*
X145052Y270270D01*
X144927Y269000D01*
X134000D01*
Y254658D01*
X133972Y254516D01*
X134000Y254373D01*
Y252196D01*
X133933Y252078D01*
X133414Y251332D01*
X131947Y249598D01*
X119262Y236914D01*
X119250Y236904D01*
X118000Y237069D01*
X115912Y236794D01*
X113966Y235988D01*
X112294Y234706D01*
X111012Y233034D01*
X110206Y231088D01*
X109931Y229000D01*
X110206Y226912D01*
X111012Y224965D01*
X112294Y223294D01*
X113966Y222012D01*
X115912Y221206D01*
X118000Y220931D01*
X120088Y221206D01*
X122035Y222012D01*
X123706Y223294D01*
X124988Y224965D01*
X125250Y225599D01*
X140316Y240665D01*
X141405Y241676D01*
X142298Y242390D01*
X143078Y242933D01*
X143196Y243000D01*
X145373D01*
X145516Y242972D01*
X145658Y243000D01*
X152000D01*
Y268612D01*
X152000Y269000D01*
X152905Y269883D01*
X153096D01*
X154000Y269000D01*
X154000Y268612D01*
Y243000D01*
X172000D01*
Y249580D01*
X172086Y249615D01*
X172542Y249737D01*
X173183Y249843D01*
X173630Y249883D01*
X226466D01*
X227245Y249104D01*
X227250Y249037D01*
Y248923D01*
X227222Y248780D01*
X227250Y248638D01*
Y245750D01*
X229903D01*
X229927Y245742D01*
X229998Y245734D01*
X230130Y245674D01*
X230429Y245502D01*
X230761Y245279D01*
X232867Y243482D01*
X242174Y234174D01*
X244159Y232848D01*
X246500Y232383D01*
X257750D01*
Y211750D01*
X282250D01*
Y233250D01*
X276300D01*
X276096Y233556D01*
X266826Y242826D01*
X264841Y244152D01*
X263192Y244480D01*
X263317Y245750D01*
X272577D01*
X272719Y245722D01*
X272862Y245750D01*
X275750D01*
Y247699D01*
X276101Y247769D01*
X277325Y247882D01*
X282466D01*
X284883Y245466D01*
Y167250D01*
X268250D01*
Y142750D01*
X285750D01*
Y145344D01*
X286966Y146012D01*
X288912Y145206D01*
X291000Y144931D01*
X293088Y145206D01*
X295035Y146012D01*
X295480Y146354D01*
X296750Y145728D01*
Y143750D01*
X321250D01*
Y165250D01*
X297118D01*
Y177242D01*
X297750Y178250D01*
X298388Y178250D01*
X307500D01*
Y188000D01*
Y197750D01*
X298388D01*
X297750Y197750D01*
X297118Y198758D01*
Y248000D01*
X296652Y250341D01*
X295326Y252326D01*
X289326Y258326D01*
X287341Y259652D01*
X285000Y260117D01*
X277388D01*
X276946Y260157D01*
X276310Y260263D01*
X275860Y260384D01*
X275750Y260429D01*
Y266860D01*
X275761Y266896D01*
X275750Y267019D01*
Y267077D01*
X275778Y267220D01*
X275750Y267362D01*
Y270250D01*
X273173D01*
X273132Y270351D01*
X273011Y270804D01*
X272906Y271442D01*
X272868Y271880D01*
Y276250D01*
X272402Y278591D01*
X271076Y280576D01*
X240826Y310826D01*
X238841Y312152D01*
X236500Y312617D01*
X224807D01*
X224410Y312649D01*
X223752Y312749D01*
X223277Y312865D01*
X223250Y312875D01*
Y315250D01*
X220362D01*
X220219Y315278D01*
X220077Y315250D01*
X219964D01*
X219867Y315258D01*
X219842Y315250D01*
X198750D01*
Y312252D01*
X198660Y312215D01*
X198204Y312093D01*
X197564Y311987D01*
X197118Y311948D01*
X192750D01*
X190409Y311482D01*
X188424Y310156D01*
X181426Y303158D01*
X88841D01*
X88640Y303118D01*
X66534D01*
X62326Y307326D01*
X60341Y308652D01*
X58000Y309118D01*
X-81000D01*
X-83341Y308652D01*
X-85326Y307326D01*
X-97826Y294826D01*
X-99152Y292841D01*
X-99618Y290500D01*
Y283250D01*
X-102250D01*
Y279929D01*
X-102360Y279884D01*
X-102810Y279762D01*
X-103446Y279657D01*
X-103888Y279618D01*
X-122280D01*
X-122677Y279672D01*
X-123277Y279810D01*
X-123877Y280006D01*
X-124484Y280264D01*
X-125100Y280590D01*
X-125728Y280986D01*
X-126367Y281459D01*
X-127016Y282010D01*
X-127503Y282479D01*
X-127728Y282772D01*
X-130444Y284855D01*
X-133606Y286165D01*
X-137000Y286612D01*
X-140394Y286165D01*
X-143556Y284855D01*
X-146272Y282772D01*
X-148356Y280056D01*
X-149665Y276894D01*
X-150112Y273500D01*
X-149665Y270106D01*
X-148356Y266944D01*
X-146272Y264228D01*
X-143556Y262145D01*
X-142967Y261901D01*
X-143220Y260631D01*
X-186960D01*
X-186960Y260631D01*
X-189701Y260270D01*
X-192163Y259250D01*
X-193000D01*
Y258640D01*
X-194449Y257529D01*
X-238500Y213477D01*
X-256612Y231589D01*
X-249277Y238924D01*
X-269076Y258723D01*
X-302664Y225135D01*
X-291591Y214062D01*
Y204000D01*
X-291591Y204000D01*
X-291230Y201259D01*
X-290172Y198705D01*
X-288489Y196511D01*
X-281989Y190011D01*
X-258591Y166613D01*
Y139454D01*
X-259764Y138968D01*
X-264837Y144042D01*
X-272615Y136263D01*
X-264660Y128308D01*
X-259764Y133205D01*
X-258591Y132719D01*
Y94750D01*
X-274073Y79267D01*
X-276357Y76291D01*
X-277793Y72824D01*
X-278283Y69104D01*
X-277793Y65384D01*
X-276357Y61918D01*
X-274073Y58941D01*
X-198059Y-17073D01*
X-195082Y-19357D01*
X-191616Y-20793D01*
X-187896Y-21283D01*
X-184176Y-20793D01*
X-180709Y-19357D01*
X-177733Y-17073D01*
X-161823Y-1163D01*
X-159539Y1813D01*
X-158103Y5280D01*
X-157613Y9000D01*
X-158103Y12720D01*
X-159539Y16186D01*
X-161823Y19163D01*
X-237409Y94750D01*
Y171000D01*
X-237770Y173741D01*
X-238828Y176295D01*
X-240511Y178489D01*
X-267011Y204989D01*
X-270409Y208387D01*
Y213773D01*
X-269236Y214259D01*
X-248989Y194011D01*
X-246795Y192328D01*
X-244241Y191270D01*
X-241500Y190909D01*
X-241500Y190909D01*
X-235500D01*
X-235500Y190909D01*
X-232759Y191270D01*
X-230205Y192328D01*
X-228011Y194011D01*
X-182573Y239449D01*
X-65111D01*
X-64625Y238276D01*
X-67597Y235305D01*
X-68719Y234261D01*
X-69632Y233527D01*
X-70386Y233000D01*
X-72440D01*
X-72497Y233016D01*
X-72648Y233000D01*
X-72830D01*
X-72992Y233020D01*
X-73064Y233000D01*
X-79500D01*
Y211667D01*
X-79528Y211522D01*
X-79500Y211382D01*
Y208500D01*
X-77551D01*
X-77481Y208150D01*
X-77368Y206925D01*
Y203807D01*
X-77399Y203410D01*
X-77499Y202752D01*
X-77615Y202277D01*
X-77625Y202250D01*
X-80000D01*
Y199362D01*
X-80028Y199219D01*
X-80000Y199077D01*
Y198964D01*
X-80008Y198867D01*
X-80000Y198842D01*
Y188750D01*
X-62500D01*
Y198842D01*
X-62492Y198867D01*
X-62500Y198964D01*
Y199077D01*
X-62472Y199219D01*
X-62500Y199362D01*
Y202250D01*
X-64875D01*
X-64885Y202277D01*
X-65001Y202752D01*
X-65101Y203410D01*
X-65132Y203807D01*
Y206868D01*
X-65093Y207314D01*
X-64987Y207955D01*
X-64865Y208410D01*
X-64828Y208500D01*
X-62000D01*
Y220409D01*
X-61984Y220465D01*
X-62000Y220616D01*
Y222986D01*
X-61840Y223267D01*
X-61331Y224002D01*
X-59905Y225693D01*
X-54716Y230882D01*
X-35379D01*
X-35126Y229613D01*
X-37176Y228764D01*
X-39630Y226880D01*
X-41514Y224426D01*
X-42698Y221567D01*
X-43101Y218500D01*
X-42698Y215433D01*
X-41514Y212574D01*
X-39630Y210120D01*
X-37176Y208236D01*
X-34317Y207052D01*
X-32686Y206838D01*
X-32200Y205664D01*
X-32301Y205532D01*
X-33057Y203708D01*
X-33315Y201750D01*
Y192750D01*
X-33057Y190792D01*
X-32707Y189947D01*
X-33193Y188774D01*
X-34426Y188264D01*
X-36880Y186380D01*
X-38764Y183926D01*
X-39948Y181067D01*
X-40351Y178000D01*
X-39948Y174933D01*
X-38764Y172074D01*
X-36880Y169620D01*
X-34426Y167736D01*
X-31567Y166552D01*
X-30783Y166449D01*
X-30752Y165164D01*
X-35734Y164265D01*
X-47361Y161298D01*
X-58747Y157508D01*
X-69834Y152916D01*
X-80565Y147544D01*
X-82112Y146626D01*
X-97016D01*
X-100434Y146752D01*
X-102043Y146910D01*
X-105205Y147439D01*
X-106583Y147780D01*
X-107910Y148187D01*
X-109152Y148652D01*
X-110311Y149171D01*
X-111484Y149795D01*
X-111595Y149828D01*
X-114029Y151234D01*
X-115344Y148957D01*
X-115351Y148951D01*
X-115371Y148911D01*
X-115517Y148657D01*
X-115621Y148530D01*
X-115654Y148420D01*
X-126279Y130016D01*
X-111124Y121266D01*
X-106389Y129468D01*
X-105349Y129793D01*
X-103946Y130078D01*
X-99929Y130451D01*
X-98027Y130488D01*
X-80012D01*
X-77923Y130763D01*
X-75977Y131569D01*
X-75977Y131569D01*
X-75954Y131531D01*
X-69002Y135424D01*
X-58164Y140421D01*
X-46968Y144551D01*
X-35481Y147791D01*
X-32406Y148403D01*
X-31689Y147250D01*
X-32330Y146415D01*
X-33262Y144165D01*
X-33475Y142546D01*
X-33645Y142332D01*
X-34195Y141840D01*
X-35014Y141286D01*
X-36107Y140704D01*
X-37470Y140118D01*
X-39095Y139545D01*
X-41041Y138975D01*
X-41207Y138889D01*
X-41391Y138849D01*
X-41446Y138811D01*
X-44796Y137867D01*
X-55475Y133927D01*
X-65811Y129162D01*
X-75742Y123600D01*
X-85206Y117276D01*
X-94145Y110230D01*
X-99322Y105444D01*
X-99412Y105401D01*
X-99539Y105261D01*
X-99699Y105160D01*
X-101179Y103750D01*
X-102497Y102623D01*
X-103691Y101733D01*
X-104741Y101080D01*
X-105623Y100654D01*
X-106307Y100433D01*
X-106518Y100403D01*
X-108292Y101138D01*
X-110706Y101456D01*
X-113121Y101138D01*
X-115371Y100206D01*
X-117303Y98723D01*
X-118786Y96791D01*
X-125036Y85966D01*
X-125968Y83715D01*
X-126286Y81301D01*
X-125968Y78886D01*
X-125036Y76636D01*
X-123553Y74704D01*
X-121621Y73221D01*
X-110796Y66971D01*
X-108546Y66039D01*
X-107243Y65867D01*
X-106567Y64497D01*
X-108960Y60354D01*
X-110484Y60254D01*
X-111284Y61296D01*
X-113216Y62779D01*
X-124041Y69029D01*
X-126292Y69961D01*
X-128706Y70279D01*
X-131121Y69961D01*
X-133371Y69029D01*
X-135303Y67546D01*
X-136786Y65614D01*
X-143036Y54789D01*
X-143968Y52539D01*
X-144286Y50124D01*
X-143968Y47709D01*
X-143036Y45459D01*
X-141553Y43527D01*
X-140103Y42413D01*
X-140024Y42217D01*
X-139875Y41511D01*
X-139805Y40533D01*
X-139850Y39296D01*
X-140027Y37818D01*
X-140348Y36114D01*
X-140551Y35289D01*
X-140959Y33841D01*
X-143180Y22677D01*
X-144517Y11374D01*
X-144964Y0D01*
X-144517Y-11374D01*
X-143180Y-22677D01*
X-142554Y-25824D01*
X-143238Y-26716D01*
X-143616Y-27628D01*
X-145029Y-27720D01*
X-153374Y-13266D01*
X-162022Y-18259D01*
X-162341Y-18391D01*
X-162614Y-18601D01*
X-166081Y-20603D01*
X-166192Y-20654D01*
X-166201Y-20664D01*
X-166214Y-20670D01*
X-166231Y-20689D01*
X-168529Y-22016D01*
X-167277Y-24185D01*
X-165169Y-32570D01*
X-164586Y-35803D01*
X-161612Y-47454D01*
X-160856Y-49724D01*
X-160788Y-49995D01*
X-160752Y-50071D01*
X-160744Y-50155D01*
X-160665Y-50300D01*
X-158879Y-55665D01*
X-160017Y-56269D01*
X-160245Y-55972D01*
X-162699Y-54088D01*
X-165558Y-52904D01*
X-168625Y-52500D01*
X-170133Y-52699D01*
X-170550Y-51473D01*
X-167971Y-49984D01*
X-180221Y-28766D01*
X-192453Y-35828D01*
X-192498Y-35839D01*
X-192610Y-35919D01*
X-192628Y-35930D01*
X-192766Y-35977D01*
X-192875Y-36072D01*
X-195376Y-37516D01*
X-194034Y-39842D01*
X-194023Y-39887D01*
X-193762Y-40463D01*
X-193674Y-40836D01*
X-193648Y-41333D01*
X-193715Y-41987D01*
X-193908Y-42802D01*
X-194250Y-43769D01*
X-194735Y-44831D01*
X-196301Y-47490D01*
X-197050Y-48557D01*
X-200783Y-53633D01*
X-200998Y-54024D01*
X-201270Y-54378D01*
X-201504Y-54943D01*
X-201798Y-55478D01*
X-201905Y-55912D01*
X-202076Y-56325D01*
X-202156Y-56930D01*
X-202302Y-57523D01*
X-202292Y-57970D01*
X-202351Y-58413D01*
X-202271Y-59019D01*
X-202259Y-59630D01*
X-202134Y-60059D01*
X-202076Y-60501D01*
X-201842Y-61066D01*
X-201672Y-61653D01*
X-201441Y-62035D01*
X-201270Y-62448D01*
X-198054Y-68018D01*
X-196876Y-70292D01*
X-196411Y-71389D01*
X-196019Y-72480D01*
X-195713Y-73531D01*
X-195648Y-73823D01*
X-196662Y-74494D01*
X-196795Y-74518D01*
X-199199Y-72673D01*
X-202058Y-71489D01*
X-205125Y-71085D01*
X-208192Y-71489D01*
X-211051Y-72673D01*
X-213505Y-74556D01*
X-215389Y-77011D01*
X-216573Y-79869D01*
X-216976Y-82937D01*
X-216572Y-86004D01*
X-215389Y-88862D01*
X-184139Y-142989D01*
X-182255Y-145443D01*
X-180032Y-147149D01*
X-180591Y-148321D01*
X-184822Y-147305D01*
X-190000Y-146898D01*
X-195178Y-147305D01*
X-200229Y-148518D01*
X-205028Y-150506D01*
X-209457Y-153220D01*
X-213407Y-156593D01*
X-216780Y-160543D01*
X-219494Y-164972D01*
X-219637Y-165317D01*
X-220882Y-165069D01*
Y-151809D01*
X-221348Y-149468D01*
X-222674Y-147484D01*
X-225763Y-144395D01*
X-226050Y-144052D01*
X-226428Y-143524D01*
X-226664Y-143116D01*
X-226702Y-143026D01*
X-224191Y-140515D01*
X-232922Y-131783D01*
Y-119960D01*
X-233388Y-117619D01*
X-234714Y-115634D01*
X-236278Y-114070D01*
X-233441Y-111233D01*
X-257129Y-87545D01*
X-270211Y-100627D01*
X-246523Y-124315D01*
X-246331Y-124123D01*
X-245157Y-124609D01*
Y-126833D01*
X-253889Y-135565D01*
X-238804Y-150650D01*
X-238722Y-150772D01*
X-238602Y-150852D01*
X-236565Y-152889D01*
X-235652Y-151976D01*
X-234558Y-152903D01*
X-233118Y-154343D01*
Y-199000D01*
X-232652Y-201341D01*
X-231326Y-203326D01*
X-205326Y-229326D01*
X-203341Y-230652D01*
X-201000Y-231117D01*
X-157388D01*
X-156946Y-231157D01*
X-156310Y-231262D01*
X-155860Y-231384D01*
X-155750Y-231429D01*
Y-237250D01*
X-145346D01*
X-144860Y-238423D01*
X-145626Y-239189D01*
X-146952Y-241174D01*
X-147418Y-243515D01*
Y-247758D01*
X-147459Y-248261D01*
X-147568Y-248955D01*
X-147627Y-249182D01*
X-151500D01*
X-153841Y-249648D01*
X-155826Y-250974D01*
X-157152Y-252959D01*
X-157618Y-255300D01*
X-157152Y-257641D01*
X-155826Y-259626D01*
X-154349Y-260613D01*
X-154734Y-261882D01*
X-160438D01*
X-160666Y-261640D01*
X-161346Y-260820D01*
X-161750Y-260270D01*
Y-249750D01*
X-174928D01*
X-176215Y-248762D01*
X-178162Y-247956D01*
X-180250Y-247681D01*
X-191908D01*
X-245931Y-193658D01*
Y-170000D01*
X-246007Y-169421D01*
X-246015Y-168836D01*
X-246144Y-168381D01*
X-246206Y-167912D01*
X-246430Y-167372D01*
X-246588Y-166810D01*
X-246831Y-166403D01*
X-247012Y-165965D01*
X-247368Y-165502D01*
X-247667Y-165000D01*
X-248112Y-164436D01*
X-246111Y-162435D01*
X-263435Y-145111D01*
X-264456Y-146132D01*
X-266398Y-144190D01*
X-265685Y-143477D01*
X-289373Y-119789D01*
X-302455Y-132871D01*
X-278767Y-156559D01*
X-277810Y-155602D01*
X-267540Y-165871D01*
X-262069Y-172801D01*
Y-197000D01*
X-261794Y-199088D01*
X-260988Y-201035D01*
X-259706Y-202706D01*
X-200956Y-261456D01*
X-199284Y-262738D01*
X-197338Y-263544D01*
X-195250Y-263819D01*
X-192687D01*
X-191441Y-263842D01*
X-189889Y-263937D01*
X-188577Y-264089D01*
X-187519Y-264286D01*
X-186738Y-264508D01*
X-186255Y-264713D01*
X-186250Y-264716D01*
Y-267250D01*
X-183362D01*
X-183220Y-267278D01*
X-183077Y-267250D01*
X-173058D01*
X-172908Y-267325D01*
X-172337Y-267682D01*
X-171668Y-268172D01*
X-170293Y-269359D01*
X-167326Y-272326D01*
X-165341Y-273652D01*
X-164356Y-273848D01*
X-164203Y-274432D01*
X-164222Y-275169D01*
X-166026Y-276374D01*
X-168813Y-279161D01*
X-170166Y-280317D01*
X-170649Y-280673D01*
X-170771Y-280750D01*
X-170799D01*
X-170941Y-280722D01*
X-171084Y-280750D01*
X-174839D01*
X-181294Y-274294D01*
X-182966Y-273012D01*
X-184912Y-272206D01*
X-187000Y-271931D01*
X-214000D01*
X-216088Y-272206D01*
X-218034Y-273012D01*
X-219706Y-274294D01*
X-222223Y-276811D01*
X-235774D01*
X-263832Y-248754D01*
X-283631Y-268553D01*
X-250043Y-302140D01*
X-236949Y-289046D01*
X-225008D01*
X-224901Y-289168D01*
Y-295168D01*
X-224626Y-297257D01*
X-223820Y-299203D01*
X-222537Y-300874D01*
X-199706Y-323706D01*
X-198473Y-324652D01*
X-198904Y-325922D01*
X-260811D01*
X-390922Y-195811D01*
Y165811D01*
X-228811Y327922D01*
X74000D01*
Y305000D01*
X92000D01*
Y327922D01*
X94000D01*
Y305000D01*
X112000D01*
Y327922D01*
X134000D01*
Y305000D01*
X152000D01*
Y327922D01*
X154000D01*
Y305000D01*
X172000D01*
Y327922D01*
X229311D01*
X390922Y166311D01*
D02*
G37*
G36*
X220280Y311703D02*
X220459Y311241D01*
X220760Y310833D01*
X221180Y310479D01*
X221719Y310180D01*
X222379Y309935D01*
X223160Y309745D01*
X224060Y309609D01*
X225079Y309527D01*
X226220Y309500D01*
Y303500D01*
X225079Y303473D01*
X224060Y303391D01*
X223160Y303255D01*
X222379Y303065D01*
X221719Y302820D01*
X221180Y302521D01*
X220760Y302167D01*
X220459Y301759D01*
X220280Y301297D01*
X220219Y300780D01*
Y312220D01*
X220280Y311703D01*
D02*
G37*
G36*
X201780Y300780D02*
X201721Y301170D01*
X201541Y301518D01*
X201241Y301826D01*
X200821Y302092D01*
X200280Y302318D01*
X199620Y302502D01*
X198841Y302646D01*
X197941Y302748D01*
X196921Y302810D01*
X195781Y302830D01*
Y308830D01*
X196925Y308860D01*
X197949Y308950D01*
X198853Y309100D01*
X199636Y309310D01*
X200299Y309580D01*
X200842Y309910D01*
X201265Y310300D01*
X201567Y310750D01*
X201749Y311260D01*
X201811Y311830D01*
X201780Y300780D01*
D02*
G37*
G36*
X260632Y273716D02*
Y271721D01*
X260608Y271378D01*
X260514Y270699D01*
X260415Y270250D01*
X258250D01*
Y267362D01*
X258222Y267220D01*
X258250Y267077D01*
Y266884D01*
X258246Y266832D01*
X258250Y266821D01*
Y245888D01*
X258250Y245750D01*
X257918Y244618D01*
X249034D01*
X245701Y247951D01*
X245191Y248552D01*
X244972Y248848D01*
X244811Y249091D01*
X244750Y249199D01*
Y270250D01*
X227250D01*
Y262118D01*
X173630D01*
X173183Y262157D01*
X172542Y262263D01*
X172086Y262385D01*
X172000Y262420D01*
Y268612D01*
X172000Y269000D01*
X172904Y269883D01*
X197118D01*
X197564Y269843D01*
X198205Y269737D01*
X198660Y269615D01*
X198750Y269578D01*
Y266750D01*
X223250D01*
Y284250D01*
X201917D01*
X201772Y284278D01*
X201632Y284250D01*
X198750D01*
Y282301D01*
X198400Y282231D01*
X197175Y282118D01*
X180110D01*
X179622Y283388D01*
X180307Y285042D01*
X180565Y287000D01*
X180307Y288958D01*
X180019Y289653D01*
X180868Y290923D01*
X183960D01*
X186301Y291388D01*
X188286Y292714D01*
X195284Y299713D01*
X197463D01*
X197675Y299700D01*
X198390Y299618D01*
X198750Y299552D01*
Y297750D01*
X201632D01*
X201772Y297722D01*
X201916Y297750D01*
X219842D01*
X219867Y297742D01*
X219964Y297750D01*
X220077D01*
X220219Y297722D01*
X220362Y297750D01*
X223250D01*
Y300125D01*
X223277Y300135D01*
X223752Y300251D01*
X224410Y300351D01*
X224807Y300382D01*
X233966D01*
X260632Y273716D01*
D02*
G37*
G36*
X-36970Y285324D02*
X-36880Y284298D01*
X-36730Y283394D01*
X-36520Y282610D01*
X-36250Y281947D01*
X-35920Y281404D01*
X-35530Y280982D01*
X-35080Y280680D01*
X-34570Y280499D01*
X-34000Y280439D01*
X-46000D01*
X-45430Y280499D01*
X-44920Y280680D01*
X-44470Y280982D01*
X-44080Y281404D01*
X-43750Y281947D01*
X-43480Y282610D01*
X-43270Y283394D01*
X-43120Y284298D01*
X-43030Y285324D01*
X-43000Y286469D01*
X-37000D01*
X-36970Y285324D01*
D02*
G37*
G36*
X-39897Y295613D02*
X-40326Y295326D01*
X-44326Y291326D01*
X-45652Y289341D01*
X-46118Y287000D01*
Y285130D01*
X-46157Y284683D01*
X-46263Y284042D01*
X-46385Y283586D01*
X-46420Y283500D01*
X-50750D01*
Y277420D01*
X-50836Y277385D01*
X-51292Y277263D01*
X-51933Y277157D01*
X-52250Y277129D01*
X-52567Y277157D01*
X-53208Y277263D01*
X-53664Y277385D01*
X-53750Y277420D01*
Y283250D01*
X-71250D01*
Y260631D01*
X-84750D01*
Y283250D01*
X-87382D01*
Y287966D01*
X-78466Y296882D01*
X-40282D01*
X-39897Y295613D01*
D02*
G37*
G36*
X-47689Y265000D02*
X-47749Y265570D01*
X-47930Y266080D01*
X-48232Y266530D01*
X-48654Y266920D01*
X-49197Y267250D01*
X-49860Y267520D01*
X-50644Y267730D01*
X-51549Y267880D01*
X-52250Y267942D01*
X-52951Y267880D01*
X-53856Y267730D01*
X-54640Y267520D01*
X-55303Y267250D01*
X-55846Y266920D01*
X-56268Y266530D01*
X-56570Y266080D01*
X-56751Y265570D01*
X-56811Y265000D01*
Y277000D01*
X-56751Y276430D01*
X-56570Y275920D01*
X-56268Y275470D01*
X-55846Y275080D01*
X-55303Y274750D01*
X-54640Y274480D01*
X-53856Y274270D01*
X-52951Y274120D01*
X-52250Y274058D01*
X-51549Y274120D01*
X-50644Y274270D01*
X-49860Y274480D01*
X-49197Y274750D01*
X-48654Y275080D01*
X-48232Y275470D01*
X-47930Y275920D01*
X-47749Y276430D01*
X-47689Y277000D01*
Y265000D01*
D02*
G37*
G36*
X201811Y270000D02*
X201749Y270570D01*
X201567Y271080D01*
X201265Y271530D01*
X200842Y271920D01*
X200299Y272250D01*
X199636Y272520D01*
X198853Y272730D01*
X197949Y272880D01*
X196925Y272970D01*
X195781Y273000D01*
Y279000D01*
X196921Y279022D01*
X198841Y279200D01*
X199620Y279355D01*
X200280Y279555D01*
X200821Y279799D01*
X201241Y280088D01*
X201541Y280420D01*
X201721Y280798D01*
X201780Y281220D01*
X201811Y270000D01*
D02*
G37*
G36*
X-99220Y267500D02*
X-99279Y268070D01*
X-99459Y268580D01*
X-99760Y269030D01*
X-100180Y269420D01*
X-100719Y269750D01*
X-101379Y270020D01*
X-102160Y270230D01*
X-103060Y270380D01*
X-104079Y270470D01*
X-105219Y270500D01*
Y276500D01*
X-104079Y276530D01*
X-103060Y276620D01*
X-102160Y276770D01*
X-101379Y276980D01*
X-100719Y277250D01*
X-100180Y277580D01*
X-99760Y277970D01*
X-99459Y278420D01*
X-99279Y278930D01*
X-99220Y279500D01*
Y267500D01*
D02*
G37*
G36*
X269780Y272080D02*
X269869Y271059D01*
X270017Y270159D01*
X270225Y269380D01*
X270492Y268720D01*
X270819Y268179D01*
X271205Y267759D01*
X271651Y267460D01*
X272155Y267279D01*
X272719Y267220D01*
X261280D01*
X261750Y267279D01*
X262169Y267460D01*
X262540Y267759D01*
X262861Y268179D01*
X263133Y268720D01*
X263355Y269380D01*
X263528Y270159D01*
X263651Y271059D01*
X263725Y272080D01*
X263750Y273220D01*
X269750D01*
X269780Y272080D01*
D02*
G37*
G36*
X-129069Y279740D02*
X-128268Y279060D01*
X-127456Y278460D01*
X-126633Y277940D01*
X-125799Y277500D01*
X-124953Y277140D01*
X-124097Y276860D01*
X-123229Y276660D01*
X-122351Y276540D01*
X-121461Y276500D01*
Y270500D01*
X-122351Y270460D01*
X-123229Y270340D01*
X-124097Y270140D01*
X-124953Y269860D01*
X-125799Y269500D01*
X-126633Y269060D01*
X-127456Y268540D01*
X-128268Y267940D01*
X-129069Y267260D01*
X-129859Y266500D01*
Y280500D01*
X-129069Y279740D01*
D02*
G37*
G36*
X107020Y270830D02*
X107177Y268909D01*
X107315Y268130D01*
X107492Y267470D01*
X107709Y266929D01*
X107965Y266510D01*
X108260Y266210D01*
X108595Y266029D01*
X108969Y265970D01*
X98000Y265939D01*
X98570Y266001D01*
X99080Y266183D01*
X99530Y266485D01*
X99920Y266908D01*
X100250Y267451D01*
X100520Y268114D01*
X100730Y268897D01*
X100880Y269801D01*
X100970Y270825D01*
X101000Y271970D01*
X107000D01*
X107020Y270830D01*
D02*
G37*
G36*
X-103446Y267344D02*
X-102810Y267237D01*
X-102360Y267116D01*
X-102250Y267071D01*
Y260631D01*
X-130780D01*
X-131033Y261901D01*
X-130444Y262145D01*
X-127728Y264228D01*
X-127503Y264521D01*
X-127016Y264990D01*
X-126367Y265541D01*
X-125728Y266014D01*
X-125100Y266410D01*
X-124484Y266735D01*
X-123877Y266994D01*
X-123277Y267190D01*
X-122678Y267328D01*
X-122280Y267383D01*
X-103888D01*
X-103446Y267344D01*
D02*
G37*
G36*
X74441Y268844D02*
X76887Y266737D01*
X77923Y265999D01*
X78834Y265469D01*
X79620Y265150D01*
X80281Y265040D01*
X80817Y265140D01*
X81229Y265450D01*
X81516Y265970D01*
X77031Y253484D01*
X77190Y254131D01*
X77220Y254823D01*
X77120Y255559D01*
X76890Y256340D01*
X76530Y257166D01*
X76041Y258037D01*
X75423Y258953D01*
X74674Y259914D01*
X73796Y260919D01*
X72788Y261970D01*
X73031Y270212D01*
X74441Y268844D01*
D02*
G37*
G36*
X168999Y261430D02*
X169180Y260920D01*
X169482Y260470D01*
X169904Y260080D01*
X170447Y259750D01*
X171110Y259480D01*
X171894Y259270D01*
X172799Y259120D01*
X173824Y259030D01*
X174970Y259000D01*
Y253000D01*
X173824Y252970D01*
X172799Y252880D01*
X171894Y252730D01*
X171110Y252520D01*
X170447Y252250D01*
X169904Y251920D01*
X169482Y251530D01*
X169180Y251080D01*
X168999Y250570D01*
X168939Y250000D01*
Y262000D01*
X168999Y261430D01*
D02*
G37*
G36*
X272780Y259430D02*
X272959Y258920D01*
X273260Y258470D01*
X273680Y258080D01*
X274219Y257750D01*
X274879Y257480D01*
X275660Y257270D01*
X276560Y257120D01*
X277579Y257030D01*
X278720Y257000D01*
Y251000D01*
X277579Y250978D01*
X275660Y250800D01*
X274879Y250645D01*
X274219Y250445D01*
X273680Y250201D01*
X273260Y249912D01*
X272959Y249580D01*
X272780Y249202D01*
X272719Y248780D01*
Y260000D01*
X272780Y259430D01*
D02*
G37*
G36*
X71841Y258508D02*
X72314Y257966D01*
X72946Y257155D01*
X73436Y256429D01*
X73788Y255804D01*
X74000Y255315D01*
Y253504D01*
X73975Y253338D01*
X74000Y253239D01*
Y248078D01*
X72827Y247592D01*
X62890Y257529D01*
X60697Y259212D01*
X58142Y260270D01*
X55401Y260631D01*
X55401Y260631D01*
X3250D01*
Y269750D01*
X-6500D01*
X-16250D01*
Y260631D01*
X-29250D01*
Y283500D01*
X-32264D01*
X-32360Y283612D01*
X-32308Y283914D01*
X-31500Y284883D01*
X45466D01*
X71841Y258508D01*
D02*
G37*
G36*
X145516Y246031D02*
X145049Y246370D01*
X144497Y246540D01*
X143861D01*
X143140Y246370D01*
X142334Y246031D01*
X141443Y245521D01*
X140467Y244843D01*
X139406Y243994D01*
X137030Y241788D01*
X132788Y246031D01*
X133976Y247261D01*
X135843Y249467D01*
X136521Y250443D01*
X137030Y251334D01*
X137370Y252140D01*
X137540Y252861D01*
Y253498D01*
X137370Y254049D01*
X137030Y254516D01*
X145516Y246031D01*
D02*
G37*
G36*
X241749Y248512D02*
X241839Y248208D01*
X241988Y247871D01*
X242197Y247498D01*
X242466Y247091D01*
X242794Y246650D01*
X243630Y245663D01*
X244705Y244538D01*
X236220D01*
X235396Y245344D01*
X232614Y247720D01*
X232045Y248102D01*
X231528Y248399D01*
X231061Y248611D01*
X230645Y248738D01*
X230280Y248780D01*
X241720D01*
X241749Y248512D01*
D02*
G37*
G36*
X126634Y231391D02*
X122810Y227634D01*
X119462Y233781D01*
X119639Y233754D01*
X119842Y233773D01*
X120069Y233839D01*
X120320Y233951D01*
X120597Y234109D01*
X120899Y234314D01*
X121225Y234564D01*
X121952Y235206D01*
X122353Y235596D01*
X126634Y231391D01*
D02*
G37*
G36*
X-60788Y229219D02*
X-61942Y228023D01*
X-63764Y225862D01*
X-64431Y224897D01*
X-64937Y224010D01*
X-65280Y223200D01*
X-65461Y222468D01*
X-65480Y221812D01*
X-65336Y221235D01*
X-65030Y220734D01*
X-72766Y229970D01*
X-72333Y229596D01*
X-71807Y229400D01*
X-71190Y229382D01*
X-70480Y229540D01*
X-69678Y229876D01*
X-68783Y230389D01*
X-67796Y231079D01*
X-66716Y231946D01*
X-64281Y234212D01*
X-60788Y229219D01*
D02*
G37*
G36*
X66561Y223903D02*
X65935Y222733D01*
X64000Y223118D01*
X56534D01*
X41375Y238276D01*
X41861Y239449D01*
X51015D01*
X66561Y223903D01*
D02*
G37*
G36*
X-65820Y211499D02*
X-66330Y211317D01*
X-66780Y211015D01*
X-67170Y210592D01*
X-67500Y210049D01*
X-67770Y209386D01*
X-67980Y208603D01*
X-68130Y207699D01*
X-68220Y206675D01*
X-68250Y205530D01*
X-74250D01*
X-74272Y206670D01*
X-74450Y208591D01*
X-74605Y209370D01*
X-74805Y210030D01*
X-75049Y210571D01*
X-75338Y210991D01*
X-75670Y211290D01*
X-76048Y211471D01*
X-76469Y211530D01*
X-65250Y211561D01*
X-65820Y211499D01*
D02*
G37*
G36*
X45781Y195781D02*
X40697Y195066D01*
X40758Y194375D01*
X39272Y194327D01*
X37864Y194182D01*
X36536Y193942D01*
X35286Y193605D01*
X34114Y193172D01*
X33022Y192642D01*
X32008Y192017D01*
X31072Y191295D01*
X30216Y190477D01*
X29438Y189562D01*
X28504Y205654D01*
X28918Y205411D01*
X29492Y205194D01*
X30227Y205002D01*
X31123Y204835D01*
X33396Y204580D01*
X36311Y204426D01*
X37716Y204406D01*
X40880Y204631D01*
X42181Y204830D01*
X43281Y205086D01*
X44180Y205399D01*
X44880Y205769D01*
X45381Y206196D01*
X45680Y206679D01*
X45781Y207220D01*
Y195781D01*
D02*
G37*
G36*
X-68223Y204079D02*
X-68141Y203060D01*
X-68005Y202160D01*
X-67815Y201380D01*
X-67570Y200720D01*
X-67271Y200180D01*
X-66917Y199760D01*
X-66509Y199459D01*
X-66047Y199279D01*
X-65531Y199219D01*
X-76969D01*
X-76453Y199279D01*
X-75991Y199459D01*
X-75583Y199760D01*
X-75229Y200180D01*
X-74930Y200720D01*
X-74685Y201380D01*
X-74495Y202160D01*
X-74359Y203060D01*
X-74277Y204079D01*
X-74250Y205219D01*
X-68250D01*
X-68223Y204079D01*
D02*
G37*
G36*
X165067Y201619D02*
X163220Y199457D01*
X160506Y195028D01*
X158518Y190229D01*
X157305Y185178D01*
X156898Y180000D01*
X157305Y174822D01*
X158518Y169771D01*
X160506Y164972D01*
X163220Y160543D01*
X166593Y156593D01*
X170543Y153220D01*
X174972Y150506D01*
X179771Y148518D01*
X184822Y147305D01*
X190000Y146898D01*
X195178Y147305D01*
X197885Y147955D01*
X198618Y146825D01*
X197645Y145556D01*
X196335Y142394D01*
X195888Y139000D01*
X196335Y135606D01*
X197645Y132444D01*
X199728Y129728D01*
X202444Y127645D01*
X205606Y126335D01*
X209000Y125888D01*
X212394Y126335D01*
X212832Y126516D01*
X216423Y122926D01*
Y36460D01*
X216888Y34119D01*
X218214Y32134D01*
X227086Y23262D01*
X226906Y22534D01*
X226754Y22230D01*
X226552Y22000D01*
X223750D01*
Y21620D01*
X218642Y21319D01*
X188630D01*
X188040Y22374D01*
X187848Y22767D01*
X188279Y23016D01*
X186835Y25518D01*
X186789Y25655D01*
X186693Y25764D01*
X176029Y44234D01*
X164930Y37826D01*
X163654Y38381D01*
X163568Y38506D01*
X163477Y38815D01*
X163421Y39238D01*
X163290Y39557D01*
X161298Y47361D01*
X158461Y55885D01*
X159598Y56488D01*
X159995Y55972D01*
X162449Y54088D01*
X165308Y52904D01*
X168375Y52500D01*
X171442Y52904D01*
X174301Y54088D01*
X176755Y55972D01*
X178639Y58426D01*
X179823Y61284D01*
X179964Y62358D01*
X181284Y62653D01*
X182435Y60859D01*
X182896Y60030D01*
X193311Y40437D01*
X194534Y38723D01*
X195041Y38304D01*
X199971Y29766D01*
X215126Y38516D01*
X204463Y56986D01*
X204416Y57123D01*
X204360Y57187D01*
X204329Y57265D01*
X204262Y57333D01*
X202876Y59734D01*
X201981Y59217D01*
X199316Y63531D01*
X199071Y63982D01*
X197118Y67657D01*
X196719Y68458D01*
X196246Y69558D01*
X195849Y70651D01*
X195843Y70671D01*
X196944Y71427D01*
X196949Y71423D01*
X199808Y70239D01*
X202875Y69835D01*
X205942Y70239D01*
X208801Y71423D01*
X211255Y73306D01*
X213139Y75761D01*
X214323Y78619D01*
X214726Y81687D01*
X214322Y84754D01*
X213139Y87612D01*
X181889Y141739D01*
X180005Y144193D01*
X177551Y146077D01*
X174692Y147261D01*
X171625Y147665D01*
X168558Y147261D01*
X165699Y146077D01*
X163245Y144193D01*
X161361Y141739D01*
X160177Y138881D01*
X159903Y136799D01*
X158580Y136479D01*
X158347Y136816D01*
X157874Y137614D01*
X154400Y143765D01*
X154431Y144000D01*
X154109Y146441D01*
X153167Y148715D01*
X151669Y150668D01*
X149715Y152167D01*
X147441Y153109D01*
X145000Y153431D01*
X142559Y153109D01*
X140285Y152167D01*
X138331Y150668D01*
X136833Y148715D01*
X135891Y146441D01*
X135569Y144000D01*
X135891Y141559D01*
X136833Y139285D01*
X138331Y137331D01*
X140285Y135833D01*
X140364Y135800D01*
X143827Y129669D01*
X144270Y128840D01*
X144812Y127689D01*
X145268Y126569D01*
X145533Y125794D01*
X145003Y125128D01*
X144496Y124849D01*
X142692Y125596D01*
X139625Y126000D01*
X136558Y125596D01*
X133699Y124412D01*
X131245Y122528D01*
X129361Y120074D01*
X128177Y117216D01*
X127774Y114148D01*
X128177Y111081D01*
X128495Y110313D01*
X127392Y109658D01*
X127047Y110087D01*
X118870Y118870D01*
X110087Y127047D01*
X100743Y134577D01*
X90886Y141421D01*
X80565Y147544D01*
X69834Y152916D01*
X64079Y155299D01*
X64182Y158162D01*
X64321Y159456D01*
X64506Y160528D01*
X64717Y161328D01*
X64883Y161750D01*
X67250D01*
Y164638D01*
X67278Y164781D01*
X67250Y164923D01*
Y179250D01*
X42750D01*
Y163510D01*
X41747Y162731D01*
X35734Y164265D01*
X30963Y165126D01*
X30993Y166411D01*
X32067Y166552D01*
X34926Y167736D01*
X37380Y169620D01*
X39264Y172074D01*
X40448Y174933D01*
X40851Y178000D01*
X40448Y181067D01*
X39264Y183926D01*
X37380Y186380D01*
X34926Y188264D01*
X34473Y188451D01*
X34358Y189873D01*
X34495Y189958D01*
X35314Y190354D01*
X36216Y190688D01*
X37208Y190955D01*
X38294Y191152D01*
X39478Y191273D01*
X40491Y191306D01*
X52875D01*
X54963Y191581D01*
X56909Y192387D01*
X57382Y192750D01*
X67250D01*
Y196439D01*
X68423Y196925D01*
X81674Y183674D01*
X83659Y182348D01*
X86000Y181882D01*
X141000D01*
X143341Y182348D01*
X145326Y183674D01*
X164133Y202482D01*
X165067Y201619D01*
D02*
G37*
G36*
X63608Y164681D02*
X63060Y164380D01*
X62578Y163881D01*
X62159Y163181D01*
X61805Y162281D01*
X61515Y161180D01*
X61290Y159881D01*
X61129Y158380D01*
X61000Y154781D01*
X51000D01*
X50950Y156680D01*
X50800Y158380D01*
X50550Y159881D01*
X50200Y161180D01*
X49750Y162281D01*
X49200Y163181D01*
X48550Y163881D01*
X47800Y164380D01*
X46950Y164681D01*
X46000Y164781D01*
X64219D01*
X63608Y164681D01*
D02*
G37*
G36*
X224963Y192386D02*
Y133348D01*
X223789Y132862D01*
X221484Y135168D01*
X221665Y135606D01*
X222112Y139000D01*
X221665Y142394D01*
X220355Y145556D01*
X218272Y148272D01*
X215556Y150356D01*
X212394Y151665D01*
X209889Y151995D01*
X209582Y152865D01*
X209572Y153318D01*
X213407Y156593D01*
X216780Y160543D01*
X219494Y164972D01*
X221482Y169771D01*
X222694Y174822D01*
X223102Y180000D01*
X222694Y185178D01*
X221482Y190229D01*
X219494Y195028D01*
X217863Y197689D01*
X218868Y198481D01*
X224963Y192386D01*
D02*
G37*
G36*
X-111656Y146422D02*
X-110315Y145821D01*
X-108896Y145290D01*
X-107399Y144831D01*
X-105826Y144441D01*
X-102445Y143876D01*
X-100639Y143699D01*
X-96794Y143557D01*
X-97527Y133557D01*
X-100101Y133507D01*
X-104393Y133109D01*
X-106112Y132760D01*
X-107546Y132311D01*
X-108694Y131763D01*
X-109558Y131115D01*
X-110137Y130367D01*
X-110431Y129520D01*
X-110440Y128572D01*
X-112920Y147094D01*
X-111656Y146422D01*
D02*
G37*
G36*
X29308Y144534D02*
X29647Y143688D01*
X30212Y142941D01*
X31003Y142293D01*
X32021Y141745D01*
X33265Y141297D01*
X34734Y140948D01*
X36430Y140699D01*
X38352Y140550D01*
X40500Y140500D01*
Y130500D01*
X38352Y130450D01*
X36430Y130301D01*
X34734Y130052D01*
X33265Y129703D01*
X32021Y129255D01*
X31003Y128707D01*
X30212Y128060D01*
X29647Y127312D01*
X29308Y126466D01*
X29195Y125519D01*
Y145481D01*
X29308Y144534D01*
D02*
G37*
G36*
X8204Y151668D02*
X8432Y150388D01*
X7085Y149830D01*
X5153Y148347D01*
X3670Y146415D01*
X2738Y144165D01*
X2420Y141750D01*
Y129250D01*
X2738Y126835D01*
X3241Y125621D01*
X2392Y124351D01*
X-2392D01*
X-3241Y125621D01*
X-2738Y126835D01*
X-2420Y129250D01*
Y141750D01*
X-2738Y144165D01*
X-3670Y146415D01*
X-5153Y148347D01*
X-7085Y149830D01*
X-8432Y150388D01*
X-8204Y151668D01*
X0Y151990D01*
X8204Y151668D01*
D02*
G37*
G36*
X-27722Y124054D02*
X-28650Y124730D01*
X-29645Y125290D01*
X-30708Y125736D01*
X-31838Y126066D01*
X-33036Y126280D01*
X-34302Y126380D01*
X-35635Y126364D01*
X-37036Y126232D01*
X-38504Y125985D01*
X-40039Y125624D01*
X-40182Y136040D01*
X-38156Y136633D01*
X-36356Y137267D01*
X-34782Y137944D01*
X-33433Y138662D01*
X-32310Y139423D01*
X-31413Y140225D01*
X-30741Y141069D01*
X-30295Y141955D01*
X-30075Y142883D01*
X-30080Y143853D01*
X-27722Y124054D01*
D02*
G37*
G36*
X155771Y135163D02*
X157414Y132791D01*
X158267Y131750D01*
X159140Y130807D01*
X160035Y129960D01*
X160950Y129211D01*
X161887Y128559D01*
X162844Y128004D01*
X163822Y127546D01*
X149266Y119142D01*
X149373Y120308D01*
X149391Y121489D01*
X149319Y122687D01*
X149158Y123902D01*
X148906Y125132D01*
X148565Y126378D01*
X148135Y127640D01*
X147614Y128919D01*
X147004Y130213D01*
X146304Y131524D01*
X154981Y136495D01*
X155771Y135163D01*
D02*
G37*
G36*
X58164Y140421D02*
X69002Y135424D01*
X79415Y129593D01*
X89338Y122963D01*
X98710Y115574D01*
X107473Y107473D01*
X112502Y102033D01*
X111881Y100834D01*
X110956Y100956D01*
X109996Y100829D01*
X109942Y100833D01*
X109887Y100815D01*
X108541Y100638D01*
X107306Y100126D01*
X107161Y100148D01*
X106439Y100388D01*
X105532Y100829D01*
X104466Y101494D01*
X103263Y102391D01*
X101942Y103521D01*
X100806Y104605D01*
X96706Y108706D01*
X95035Y109988D01*
X93088Y110794D01*
X91000Y111069D01*
X71000D01*
X68912Y110794D01*
X66965Y109988D01*
X65294Y108706D01*
X62162Y105574D01*
X61069Y106276D01*
Y129000D01*
X60794Y131088D01*
X59988Y133034D01*
X58706Y134706D01*
X52206Y141206D01*
X52056Y141320D01*
X52677Y142445D01*
X58164Y140421D01*
D02*
G37*
G36*
X-88653Y97596D02*
X-90307Y95876D01*
X-92848Y92783D01*
X-93735Y91410D01*
X-94368Y90153D01*
X-94744Y89012D01*
X-94866Y87987D01*
X-94732Y87078D01*
X-94342Y86285D01*
X-93697Y85608D01*
X-109364Y98168D01*
X-108548Y97656D01*
X-107652Y97365D01*
X-106676Y97293D01*
X-105619Y97441D01*
X-104482Y97809D01*
X-103264Y98396D01*
X-101966Y99204D01*
X-100588Y100231D01*
X-99129Y101479D01*
X-97589Y102946D01*
X-88653Y97596D01*
D02*
G37*
G36*
X261511Y95511D02*
X261511Y95511D01*
X263705Y93828D01*
X266259Y92770D01*
X269000Y92409D01*
X269000Y92409D01*
X351863D01*
X355824Y88449D01*
X354985Y87492D01*
X354585Y87799D01*
X352556Y89355D01*
X349394Y90665D01*
X346000Y91112D01*
X342606Y90665D01*
X339444Y89355D01*
X336728Y87272D01*
X334645Y84556D01*
X333335Y81394D01*
X332888Y78000D01*
X333335Y74606D01*
X334645Y71444D01*
X336728Y68728D01*
X339444Y66645D01*
X342606Y65335D01*
X346000Y64888D01*
X349394Y65335D01*
X352556Y66645D01*
X355272Y68728D01*
X357355Y71444D01*
X358665Y74606D01*
X359112Y78000D01*
X358665Y81394D01*
X357355Y84556D01*
X355798Y86585D01*
X355492Y86985D01*
X356449Y87824D01*
X367659Y76613D01*
Y73647D01*
X367598Y71883D01*
X367330Y69612D01*
X366906Y67702D01*
X366351Y66157D01*
X365700Y64963D01*
X364980Y64079D01*
X364186Y63438D01*
X363263Y62976D01*
X362134Y62677D01*
X361651Y62639D01*
X358141Y62569D01*
X334484D01*
X333562Y62448D01*
X332670Y63611D01*
X332794Y63912D01*
X333069Y66000D01*
X332794Y68088D01*
X331988Y70034D01*
X330706Y71706D01*
X329035Y72988D01*
X327088Y73794D01*
X325132Y74052D01*
X325129Y74054D01*
X324869Y74282D01*
X312826Y86326D01*
X310841Y87652D01*
X308500Y88118D01*
X260034D01*
X237197Y110954D01*
Y118166D01*
X238371Y118652D01*
X261511Y95511D01*
D02*
G37*
G36*
X99890Y101251D02*
X101353Y100000D01*
X102739Y98966D01*
X104049Y98149D01*
X105283Y97548D01*
X106442Y97164D01*
X107524Y96997D01*
X108530Y97047D01*
X109461Y97314D01*
X110315Y97797D01*
X93950Y85933D01*
X94640Y86582D01*
X95076Y87343D01*
X95259Y88217D01*
X95188Y89205D01*
X94863Y90305D01*
X94284Y91518D01*
X93451Y92844D01*
X92365Y94282D01*
X91025Y95834D01*
X89431Y97498D01*
X98352Y102719D01*
X99890Y101251D01*
D02*
G37*
G36*
X129593Y79415D02*
X135424Y69002D01*
X135607Y68606D01*
X134585Y67790D01*
X133621Y68529D01*
X131371Y69461D01*
X128956Y69779D01*
X126542Y69461D01*
X124291Y68529D01*
X113466Y62279D01*
X111534Y60796D01*
X110734Y59754D01*
X109210Y59854D01*
X106817Y63998D01*
X107493Y65367D01*
X108796Y65539D01*
X111046Y66471D01*
X121871Y72721D01*
X123803Y74204D01*
X125286Y76136D01*
X126218Y78386D01*
X126536Y80801D01*
X126388Y81925D01*
X127608Y82385D01*
X129593Y79415D01*
D02*
G37*
G36*
X322152Y72599D02*
X323200Y71677D01*
X323498Y71455D01*
X323769Y71275D01*
X324015Y71138D01*
X324235Y71044D01*
X324429Y70992D01*
X324597Y70984D01*
X320009Y65696D01*
X319982Y65829D01*
X319913Y65991D01*
X319803Y66184D01*
X319652Y66406D01*
X319460Y66659D01*
X318953Y67254D01*
X317885Y68372D01*
X321750Y72992D01*
X322152Y72599D01*
D02*
G37*
G36*
X191949Y77326D02*
X191906Y76047D01*
X191946Y74771D01*
X192069Y73497D01*
X192277Y72227D01*
X192568Y70959D01*
X192943Y69693D01*
X193401Y68431D01*
X193943Y67171D01*
X194568Y65915D01*
X185849Y61013D01*
X185061Y62430D01*
X183456Y64932D01*
X182638Y66017D01*
X181810Y66992D01*
X180972Y67856D01*
X180124Y68609D01*
X179266Y69251D01*
X178398Y69783D01*
X177520Y70204D01*
X192076Y78608D01*
X191949Y77326D01*
D02*
G37*
G36*
X253174Y77674D02*
X255159Y76348D01*
X257500Y75882D01*
X279368D01*
X279606Y74665D01*
X276444Y73355D01*
X273728Y71272D01*
X271644Y68556D01*
X270335Y65394D01*
X269888Y62000D01*
X270335Y58606D01*
X271644Y55444D01*
X273728Y52728D01*
X275303Y51520D01*
X274872Y50250D01*
X265923D01*
X265780Y50278D01*
X265638Y50250D01*
X262750D01*
Y49870D01*
X257642Y49569D01*
X253250D01*
X251161Y49294D01*
X249215Y48488D01*
X247998Y47554D01*
X246750Y47500D01*
X246750Y47500D01*
X246750Y47500D01*
X243862D01*
X243720Y47528D01*
X243617Y47508D01*
X243513Y47521D01*
X243434Y47500D01*
X233250D01*
Y43095D01*
X233012Y42785D01*
X232206Y40838D01*
X231931Y38750D01*
X232118Y37330D01*
X230915Y36736D01*
X228658Y38994D01*
Y100532D01*
X229831Y101018D01*
X253174Y77674D01*
D02*
G37*
G36*
X196668Y61997D02*
X199611Y57234D01*
X200177Y56523D01*
X200676Y56003D01*
X201108Y55675D01*
X201471Y55539D01*
X201767Y55594D01*
X191860Y49875D01*
X191800Y49957D01*
X191644Y50220D01*
X187015Y58819D01*
X195763Y63668D01*
X196668Y61997D01*
D02*
G37*
G36*
X316896Y64953D02*
X317076Y64741D01*
X317101Y64708D01*
X317206Y63912D01*
X318012Y61965D01*
X319294Y60294D01*
X320965Y59012D01*
X322912Y58206D01*
X324742Y57965D01*
X325395Y56822D01*
X318142Y49569D01*
X293677D01*
X290302Y49630D01*
X289898Y50907D01*
X292272Y52728D01*
X294356Y55444D01*
X295665Y58606D01*
X296112Y62000D01*
X295665Y65394D01*
X294356Y68556D01*
X292272Y71272D01*
X289556Y73355D01*
X286394Y74665D01*
X286632Y75882D01*
X305966D01*
X316896Y64953D01*
D02*
G37*
G36*
X-120906Y38591D02*
X-121814Y38817D01*
X-122694Y38765D01*
X-123548Y38435D01*
X-124375Y37827D01*
X-125175Y36940D01*
X-125948Y35775D01*
X-126694Y34332D01*
X-127414Y32611D01*
X-128107Y30611D01*
X-128772Y28333D01*
X-137864Y33402D01*
X-137358Y35466D01*
X-137002Y37352D01*
X-136797Y39059D01*
X-136743Y40587D01*
X-136839Y41936D01*
X-137086Y43107D01*
X-137483Y44099D01*
X-138030Y44913D01*
X-138728Y45548D01*
X-139577Y46004D01*
X-120906Y38591D01*
D02*
G37*
G36*
X284319Y47083D02*
X284619Y46960D01*
X285119Y46852D01*
X285819Y46759D01*
X287819Y46615D01*
X294219Y46500D01*
Y36500D01*
X292320Y36493D01*
X284619Y36039D01*
X284319Y35917D01*
X284219Y35780D01*
Y47219D01*
X284319Y47083D01*
D02*
G37*
G36*
X265780Y35780D02*
X265680Y35917D01*
X265380Y36039D01*
X264880Y36147D01*
X264180Y36241D01*
X262180Y36385D01*
X255780Y36500D01*
Y46500D01*
X257680Y46507D01*
X265380Y46960D01*
X265680Y47083D01*
X265780Y47219D01*
Y35780D01*
D02*
G37*
G36*
X385750Y54500D02*
X370750Y34500D01*
X370650Y37350D01*
X370350Y39900D01*
X369850Y42150D01*
X369150Y44100D01*
X368250Y45750D01*
X367150Y47100D01*
X365850Y48150D01*
X364350Y48900D01*
X362650Y49350D01*
X361132Y49470D01*
X357660Y49500D01*
Y59500D01*
X361802Y59583D01*
X362650Y59650D01*
X364350Y60100D01*
X365850Y60850D01*
X367150Y61900D01*
X368250Y63250D01*
X369150Y64900D01*
X369850Y66850D01*
X370350Y69100D01*
X370650Y71650D01*
X370750Y74500D01*
X385750Y54500D01*
D02*
G37*
G36*
X243787Y44333D02*
X243991Y44211D01*
X244330Y44103D01*
X244804Y44009D01*
X245415Y43930D01*
X247042Y43815D01*
X250500Y43750D01*
Y33750D01*
X249212Y33743D01*
X244330Y33397D01*
X243991Y33289D01*
X243787Y33167D01*
X243720Y33031D01*
Y44469D01*
X243787Y44333D01*
D02*
G37*
G36*
X138946Y45018D02*
X138245Y44385D01*
X137694Y43573D01*
X137294Y42582D01*
X137042Y41412D01*
X136941Y40062D01*
X136990Y38532D01*
X137188Y36823D01*
X137536Y34935D01*
X138034Y32868D01*
X128930Y27799D01*
X128272Y30087D01*
X126871Y33827D01*
X126130Y35278D01*
X125360Y36451D01*
X124563Y37344D01*
X123738Y37959D01*
X122885Y38294D01*
X122005Y38351D01*
X121097Y38128D01*
X139796Y45471D01*
X138946Y45018D01*
D02*
G37*
G36*
X170953Y24148D02*
X170903Y24108D01*
X170716Y24050D01*
X170394Y23974D01*
X166740Y23322D01*
X164325Y22935D01*
X162769Y32813D01*
X165763Y33137D01*
X170953Y24148D01*
D02*
G37*
G36*
X360998Y46412D02*
X362134Y46322D01*
X363263Y46024D01*
X364186Y45562D01*
X364980Y44921D01*
X365700Y44037D01*
X366351Y42843D01*
X366906Y41298D01*
X367330Y39388D01*
X367598Y37117D01*
X367659Y35353D01*
Y-15750D01*
Y-75113D01*
X326923Y-115849D01*
X325750Y-115363D01*
Y-92250D01*
X321172D01*
X321135Y-92160D01*
X321013Y-91705D01*
X320907Y-91064D01*
X320868Y-90618D01*
Y-86834D01*
X321025Y-86677D01*
X321586Y-86228D01*
X322321Y-85728D01*
X323076Y-85300D01*
X323854Y-84939D01*
X324658Y-84644D01*
X325495Y-84413D01*
X326369Y-84247D01*
X327082Y-84167D01*
X346000D01*
X348341Y-83702D01*
X350326Y-82376D01*
X351652Y-80391D01*
X352118Y-78050D01*
X351652Y-75709D01*
X350326Y-73724D01*
X348341Y-72398D01*
X346000Y-71933D01*
X327082D01*
X326369Y-71853D01*
X325495Y-71687D01*
X324658Y-71456D01*
X323854Y-71161D01*
X323076Y-70800D01*
X322321Y-70372D01*
X321585Y-69872D01*
X321025Y-69424D01*
X316117Y-64516D01*
Y-54565D01*
X317388Y-54039D01*
X320324Y-56976D01*
X322309Y-58302D01*
X324650Y-58767D01*
X346000D01*
X348341Y-58302D01*
X350326Y-56976D01*
X351652Y-54991D01*
X352118Y-52650D01*
X351652Y-50309D01*
X350326Y-48324D01*
X348341Y-46998D01*
X348087Y-46947D01*
Y-45652D01*
X348341Y-45602D01*
X350326Y-44276D01*
X351652Y-42291D01*
X352118Y-39950D01*
X351652Y-37609D01*
X350326Y-35624D01*
X348413Y-34346D01*
X348413Y-34345D01*
X348274Y-33765D01*
X348160Y-32998D01*
X348117Y-32459D01*
Y-30478D01*
X348154Y-30122D01*
X348988Y-29035D01*
X349794Y-27088D01*
X350069Y-25000D01*
X349794Y-22912D01*
X348988Y-20965D01*
X347706Y-19294D01*
X346035Y-18012D01*
X344527Y-17387D01*
X344780Y-16118D01*
X350522D01*
X350878Y-16154D01*
X351965Y-16988D01*
X353912Y-17794D01*
X356000Y-18069D01*
X358088Y-17794D01*
X360034Y-16988D01*
X361706Y-15706D01*
X362988Y-14035D01*
X363794Y-12088D01*
X364069Y-10000D01*
X363794Y-7912D01*
X362988Y-5965D01*
X361706Y-4294D01*
X360034Y-3012D01*
X358088Y-2206D01*
X356000Y-1931D01*
X353912Y-2206D01*
X351965Y-3012D01*
X350888Y-3839D01*
X350250Y-3882D01*
X330475D01*
X330314Y-3879D01*
X330250Y-3874D01*
Y-3250D01*
X327369D01*
X327229Y-3222D01*
X327193Y-3229D01*
X327156Y-3222D01*
X327031Y-3250D01*
X314406D01*
X313727Y-1980D01*
X314652Y-596D01*
X315117Y1745D01*
Y23000D01*
X314652Y25341D01*
X313326Y27326D01*
X308394Y32257D01*
X308880Y33431D01*
X321484D01*
X323573Y33706D01*
X325519Y34512D01*
X327190Y35794D01*
X337827Y46431D01*
X341136D01*
X341389Y45161D01*
X339444Y44356D01*
X336728Y42272D01*
X334645Y39556D01*
X333335Y36394D01*
X332888Y33000D01*
X333335Y29606D01*
X334645Y26444D01*
X336728Y23728D01*
X339444Y21644D01*
X342606Y20335D01*
X346000Y19888D01*
X349394Y20335D01*
X352556Y21644D01*
X355272Y23728D01*
X357355Y26444D01*
X358665Y29606D01*
X359112Y33000D01*
X358665Y36394D01*
X357355Y39556D01*
X355272Y42272D01*
X352556Y44356D01*
X350611Y45161D01*
X350864Y46431D01*
X358828D01*
X360998Y46412D01*
D02*
G37*
G36*
X-39049Y121326D02*
X-39630Y120880D01*
X-41514Y118426D01*
X-42698Y115567D01*
X-43101Y112500D01*
X-42698Y109433D01*
X-41514Y106574D01*
X-39630Y104120D01*
X-37176Y102236D01*
X-34317Y101053D01*
X-31250Y100649D01*
X31250D01*
X34317Y101053D01*
X35218Y101426D01*
X35938Y100349D01*
X29719Y94130D01*
X29559Y94109D01*
X27285Y93167D01*
X25331Y91669D01*
X23833Y89715D01*
X22891Y87441D01*
X22569Y85000D01*
X22891Y82559D01*
X23833Y80285D01*
X25331Y78331D01*
X27285Y76833D01*
X29559Y75891D01*
X32000Y75569D01*
X34441Y75891D01*
X36715Y76833D01*
X38668Y78331D01*
X40167Y80285D01*
X41109Y82559D01*
X41130Y82719D01*
X45837Y87426D01*
X46931Y86724D01*
Y75000D01*
X47035Y74209D01*
X47024Y74126D01*
X47299Y72038D01*
X48105Y70092D01*
X49388Y68421D01*
X50321Y67705D01*
X50245Y67604D01*
X53500Y65190D01*
X59632Y59632D01*
X65190Y53500D01*
X70120Y46853D01*
X74375Y39754D01*
X77913Y32273D01*
X80701Y24481D01*
X82712Y16452D01*
X83926Y8266D01*
X84333Y0D01*
X83926Y-8266D01*
X82712Y-16452D01*
X80701Y-24481D01*
X77913Y-32273D01*
X74375Y-39754D01*
X70120Y-46853D01*
X65190Y-53500D01*
X59632Y-59632D01*
X53500Y-65190D01*
X46853Y-70120D01*
X39754Y-74375D01*
X32273Y-77913D01*
X24481Y-80701D01*
X16452Y-82712D01*
X8266Y-83926D01*
X0Y-84333D01*
X-8266Y-83926D01*
X-16452Y-82712D01*
X-24481Y-80701D01*
X-31939Y-78033D01*
X-31965Y-78012D01*
X-33912Y-77206D01*
X-36000Y-76931D01*
X-49118D01*
X-51206Y-77206D01*
X-53152Y-78012D01*
X-54823Y-79294D01*
X-76460Y-100931D01*
X-84658D01*
X-89122Y-96466D01*
X-90193Y-95343D01*
X-91267Y-94080D01*
X-92063Y-92990D01*
X-92581Y-92107D01*
X-92633Y-91982D01*
X-91887Y-90923D01*
X-90529Y-90908D01*
X-90005Y-91591D01*
X-87551Y-93474D01*
X-84692Y-94658D01*
X-81625Y-95062D01*
X-78558Y-94658D01*
X-75699Y-93474D01*
X-73245Y-91591D01*
X-71361Y-89136D01*
X-70177Y-86278D01*
X-69774Y-83211D01*
X-70177Y-80143D01*
X-71361Y-77285D01*
X-102611Y-23158D01*
X-104495Y-20704D01*
X-106949Y-18820D01*
X-109808Y-17636D01*
X-112875Y-17233D01*
X-115942Y-17636D01*
X-118801Y-18820D01*
X-121255Y-20704D01*
X-123139Y-23158D01*
X-124323Y-26017D01*
X-124494Y-27318D01*
X-125782Y-27374D01*
X-126891Y-22374D01*
X-128358Y-11230D01*
X-128848Y0D01*
X-128358Y11230D01*
X-126891Y22374D01*
X-125910Y26798D01*
X-124622Y26742D01*
X-124573Y26369D01*
X-123389Y23511D01*
X-121505Y21056D01*
X-119051Y19173D01*
X-116192Y17989D01*
X-113125Y17585D01*
X-110058Y17989D01*
X-107199Y19173D01*
X-104745Y21056D01*
X-102861Y23511D01*
X-71611Y77638D01*
X-70427Y80496D01*
X-70024Y83563D01*
X-70427Y86631D01*
X-71611Y89489D01*
X-73495Y91944D01*
X-75949Y93827D01*
X-78808Y95011D01*
X-81875Y95415D01*
X-84942Y95011D01*
X-84989Y94991D01*
X-85682Y96079D01*
X-82820Y98701D01*
X-73903Y105544D01*
X-64423Y111584D01*
X-54453Y116774D01*
X-44068Y121075D01*
X-39645Y122470D01*
X-39049Y121326D01*
D02*
G37*
G36*
X291455Y22613D02*
X291012Y22034D01*
X290206Y20088D01*
X289950Y18143D01*
X289947Y18132D01*
X289946Y18111D01*
X289942Y18082D01*
X289931Y18056D01*
X289869Y17940D01*
X289765Y17775D01*
X289638Y17598D01*
X289476Y17407D01*
X288520Y16450D01*
X287250Y16976D01*
Y19250D01*
X262750D01*
Y18973D01*
X261630Y18375D01*
X260841Y18902D01*
X258500Y19368D01*
X257132D01*
X256921Y19384D01*
X256354Y19465D01*
X256250Y19489D01*
Y20943D01*
X259190Y23883D01*
X290829D01*
X291455Y22613D01*
D02*
G37*
G36*
X297950Y13000D02*
X297664Y12983D01*
X297367Y12927D01*
X297059Y12830D01*
X296739Y12695D01*
X296409Y12519D01*
X296066Y12305D01*
X295713Y12050D01*
X295348Y11756D01*
X294585Y11049D01*
X291049Y14585D01*
X291422Y14972D01*
X292050Y15713D01*
X292304Y16066D01*
X292519Y16408D01*
X292695Y16739D01*
X292831Y17059D01*
X292927Y17367D01*
X292983Y17664D01*
X293000Y17950D01*
X297950Y13000D01*
D02*
G37*
G36*
X184075Y23981D02*
X184115Y23683D01*
X184261Y23231D01*
X184512Y22626D01*
X185330Y20954D01*
X188228Y15769D01*
X179590Y10731D01*
X178691Y12257D01*
X174658Y18221D01*
X174405Y18398D01*
X174233Y18406D01*
X184140Y24125D01*
X184075Y23981D01*
D02*
G37*
G36*
X253242Y18097D02*
X253402Y17709D01*
X253667Y17367D01*
X254039Y17071D01*
X254517Y16820D01*
X255101Y16615D01*
X255791Y16455D01*
X256588Y16341D01*
X257491Y16273D01*
X258500Y16250D01*
Y10250D01*
X257491Y10227D01*
X256588Y10159D01*
X255791Y10045D01*
X255101Y9885D01*
X254517Y9680D01*
X254039Y9429D01*
X253667Y9133D01*
X253402Y8791D01*
X253242Y8403D01*
X253189Y7969D01*
Y18530D01*
X253242Y18097D01*
D02*
G37*
G36*
X226780Y7531D02*
X226680Y7667D01*
X226380Y7789D01*
X225880Y7897D01*
X225180Y7991D01*
X223181Y8135D01*
X216780Y8250D01*
Y18250D01*
X218680Y18257D01*
X226380Y18711D01*
X226680Y18833D01*
X226780Y18970D01*
Y7531D01*
D02*
G37*
G36*
X265811Y5970D02*
X265765Y6260D01*
X265628Y6521D01*
X265400Y6750D01*
X265081Y6949D01*
X264671Y7117D01*
X264169Y7255D01*
X263576Y7362D01*
X262892Y7439D01*
X261250Y7500D01*
Y13500D01*
X262117Y13515D01*
X263576Y13638D01*
X264169Y13745D01*
X264671Y13882D01*
X265081Y14051D01*
X265400Y14250D01*
X265628Y14479D01*
X265765Y14740D01*
X265811Y15030D01*
Y5970D01*
D02*
G37*
G36*
X284239Y14525D02*
X284390Y14100D01*
X284642Y13725D01*
X284994Y13400D01*
X285446Y13125D01*
X286000Y12900D01*
X286654Y12725D01*
X287408Y12600D01*
X288264Y12525D01*
X289219Y12500D01*
Y7500D01*
X288264Y7475D01*
X287408Y7400D01*
X286654Y7275D01*
X286000Y7100D01*
X285446Y6875D01*
X284994Y6600D01*
X284642Y6275D01*
X284390Y5900D01*
X284239Y5475D01*
X284189Y5000D01*
Y15000D01*
X284239Y14525D01*
D02*
G37*
G36*
X302882Y10201D02*
Y4279D01*
X300674Y2071D01*
X299348Y87D01*
X298883Y-2255D01*
Y-4250D01*
X292000D01*
Y-16000D01*
Y-27750D01*
X298883D01*
Y-42000D01*
X299348Y-44341D01*
X300674Y-46326D01*
X303883Y-49534D01*
Y-52293D01*
X302709Y-52779D01*
X298615Y-48685D01*
X296796Y-47469D01*
X294650Y-47042D01*
X291407D01*
X291341Y-46998D01*
X291086Y-46947D01*
Y-45653D01*
X291341Y-45602D01*
X293326Y-44276D01*
X294652Y-42291D01*
X295117Y-39950D01*
X294652Y-37609D01*
X293326Y-35624D01*
X291341Y-34298D01*
X289000Y-33832D01*
X277484D01*
X255618Y-11966D01*
Y4275D01*
X255621Y4436D01*
X255626Y4500D01*
X256250D01*
Y5097D01*
X257520Y5776D01*
X258909Y4848D01*
X261250Y4382D01*
X262700D01*
X262750Y4377D01*
Y1750D01*
X287250D01*
Y4268D01*
X287301Y4282D01*
X287793Y4363D01*
X288124Y4392D01*
X290000D01*
X292146Y4819D01*
X293965Y6035D01*
X297461Y9530D01*
X297568Y9616D01*
X297775Y9766D01*
X297940Y9869D01*
X298056Y9931D01*
X298082Y9942D01*
X298111Y9946D01*
X298132Y9947D01*
X298143Y9950D01*
X300088Y10206D01*
X301612Y10837D01*
X302882Y10201D01*
D02*
G37*
G36*
X253083Y7470D02*
X252960Y7290D01*
X252853Y6991D01*
X252759Y6571D01*
X252680Y6030D01*
X252565Y4590D01*
X252500Y1531D01*
X246500D01*
X246493Y2670D01*
X246241Y6571D01*
X246147Y6991D01*
X246040Y7290D01*
X245917Y7470D01*
X245781Y7531D01*
X253220D01*
X253083Y7470D01*
D02*
G37*
G36*
X352429Y-13500D02*
X352307Y-13405D01*
X352135Y-13320D01*
X351915Y-13245D01*
X351645Y-13180D01*
X351327Y-13125D01*
X350543Y-13045D01*
X349563Y-13005D01*
X349000Y-13000D01*
Y-7000D01*
X349563Y-6995D01*
X351327Y-6875D01*
X351645Y-6820D01*
X351915Y-6755D01*
X352135Y-6680D01*
X352307Y-6595D01*
X352429Y-6500D01*
Y-13500D01*
D02*
G37*
G36*
X327280Y-6417D02*
X327460Y-6539D01*
X327760Y-6647D01*
X328180Y-6741D01*
X328720Y-6820D01*
X330160Y-6935D01*
X333220Y-7000D01*
Y-13000D01*
X332076Y-13030D01*
X331052Y-13120D01*
X330148Y-13270D01*
X329365Y-13480D01*
X328701Y-13750D01*
X328158Y-14080D01*
X327736Y-14470D01*
X327433Y-14920D01*
X327251Y-15430D01*
X327189Y-16000D01*
X327220Y-6281D01*
X327280Y-6417D01*
D02*
G37*
G36*
X103111Y23011D02*
X104995Y20556D01*
X107449Y18673D01*
X110308Y17489D01*
X113375Y17085D01*
X116442Y17489D01*
X119301Y18673D01*
X121755Y20556D01*
X123639Y23011D01*
X124823Y25869D01*
X124835Y25966D01*
X126124Y26022D01*
X126931Y22381D01*
X128398Y11233D01*
X128889Y0D01*
X128398Y-11233D01*
X126931Y-22381D01*
X125901Y-27027D01*
X124613Y-26971D01*
X124500Y-26119D01*
X123316Y-23261D01*
X121433Y-20807D01*
X118979Y-18923D01*
X116120Y-17739D01*
X113053Y-17335D01*
X109986Y-17739D01*
X107127Y-18923D01*
X104673Y-20807D01*
X102789Y-23261D01*
X94441Y-37721D01*
X93284Y-37185D01*
X96152Y-29167D01*
X98548Y-19603D01*
X99995Y-9849D01*
X100479Y0D01*
X99995Y9849D01*
X98548Y19603D01*
X96152Y29167D01*
X92994Y37995D01*
X94151Y38531D01*
X103111Y23011D01*
D02*
G37*
G36*
X325930Y-25749D02*
X325420Y-25930D01*
X324970Y-26232D01*
X324580Y-26654D01*
X324250Y-27197D01*
X323980Y-27860D01*
X323770Y-28644D01*
X323620Y-29548D01*
X323530Y-30574D01*
X323500Y-31720D01*
X317500D01*
X317470Y-30574D01*
X317380Y-29548D01*
X317230Y-28644D01*
X317020Y-27860D01*
X316750Y-27197D01*
X316420Y-26654D01*
X316030Y-26232D01*
X315580Y-25930D01*
X315070Y-25749D01*
X314500Y-25689D01*
X326500D01*
X325930Y-25749D01*
D02*
G37*
G36*
X-146493Y-34049D02*
X-147634Y-33486D01*
X-148561Y-33319D01*
X-149274Y-33550D01*
X-149773Y-34178D01*
X-150058Y-35204D01*
X-150129Y-36626D01*
X-149986Y-38446D01*
X-149628Y-40663D01*
X-149056Y-43277D01*
X-148271Y-46288D01*
X-157822Y-49249D01*
X-164390Y-23125D01*
X-146493Y-34049D01*
D02*
G37*
G36*
X222279Y-26452D02*
X222460Y-26830D01*
X222759Y-27162D01*
X223179Y-27451D01*
X223720Y-27695D01*
X224380Y-27895D01*
X225159Y-28050D01*
X226059Y-28161D01*
X227080Y-28228D01*
X228220Y-28250D01*
Y-34250D01*
X227075Y-34280D01*
X226051Y-34370D01*
X225147Y-34520D01*
X224364Y-34730D01*
X223701Y-35000D01*
X223158Y-35330D01*
X222735Y-35720D01*
X222433Y-36170D01*
X222251Y-36680D01*
X222189Y-37250D01*
X222220Y-26030D01*
X222279Y-26452D01*
D02*
G37*
G36*
X345405Y-28693D02*
X345320Y-28865D01*
X345245Y-29085D01*
X345180Y-29355D01*
X345125Y-29673D01*
X345045Y-30457D01*
X345009Y-31337D01*
X345030Y-32214D01*
X345119Y-33345D01*
X345268Y-34347D01*
X345477Y-35221D01*
X345745Y-35966D01*
X346073Y-36583D01*
X346461Y-37071D01*
X346908Y-37431D01*
X347415Y-37663D01*
X347981Y-37766D01*
X336000Y-36985D01*
X336570Y-36960D01*
X337080Y-36807D01*
X337530Y-36525D01*
X337920Y-36114D01*
X338250Y-35575D01*
X338520Y-34908D01*
X338730Y-34113D01*
X338880Y-33188D01*
X338970Y-32136D01*
X338990Y-31359D01*
X338875Y-29673D01*
X338820Y-29355D01*
X338755Y-29085D01*
X338680Y-28865D01*
X338595Y-28693D01*
X338500Y-28571D01*
X345500D01*
X345405Y-28693D01*
D02*
G37*
G36*
X198569Y-50754D02*
X187146Y-61008D01*
X195628Y-65978D01*
X194879Y-67354D01*
X193659Y-69997D01*
X193189Y-71264D01*
X192812Y-72495D01*
X192528Y-73690D01*
X192338Y-74849D01*
X192241Y-75971D01*
X192237Y-77058D01*
X192326Y-78108D01*
X177770Y-69704D01*
X178855Y-69205D01*
X179905Y-68622D01*
X180918Y-67954D01*
X181895Y-67202D01*
X182836Y-66366D01*
X183741Y-65446D01*
X184610Y-64441D01*
X185443Y-63353D01*
X186239Y-62180D01*
X186819Y-61221D01*
X187600Y-59670D01*
X188181Y-58050D01*
X188487Y-56506D01*
X188519Y-55040D01*
X188276Y-53651D01*
X187759Y-52340D01*
X186967Y-51105D01*
X185900Y-49949D01*
X184560Y-48869D01*
X182945Y-47866D01*
X184807Y-37478D01*
X186472Y-38307D01*
X187962Y-38868D01*
X189276Y-39160D01*
X190415Y-39184D01*
X191379Y-38938D01*
X192167Y-38424D01*
X192781Y-37641D01*
X193219Y-36590D01*
X193482Y-35270D01*
X193569Y-33681D01*
X198569Y-50754D01*
D02*
G37*
G36*
X238030Y-38921D02*
X238120Y-39941D01*
X238270Y-40841D01*
X238480Y-41620D01*
X238750Y-42281D01*
X239080Y-42821D01*
X239470Y-43240D01*
X239920Y-43541D01*
X240430Y-43720D01*
X241000Y-43780D01*
X229000D01*
X229570Y-43720D01*
X230080Y-43541D01*
X230530Y-43240D01*
X230920Y-42821D01*
X231250Y-42281D01*
X231520Y-41620D01*
X231730Y-40841D01*
X231880Y-39941D01*
X231970Y-38921D01*
X232000Y-37780D01*
X238000D01*
X238030Y-38921D01*
D02*
G37*
G36*
X137944Y-33244D02*
X137444Y-35296D01*
X137093Y-37174D01*
X136891Y-38877D01*
X136838Y-40406D01*
X136935Y-41760D01*
X137180Y-42940D01*
X137575Y-43945D01*
X138119Y-44776D01*
X138812Y-45432D01*
X139654Y-45913D01*
X121295Y-38019D01*
X122353Y-37550D01*
X123345Y-36967D01*
X124269Y-36268D01*
X125125Y-35454D01*
X125915Y-34525D01*
X126637Y-33481D01*
X127292Y-32322D01*
X127880Y-31048D01*
X128400Y-29659D01*
X128853Y-28155D01*
X137944Y-33244D01*
D02*
G37*
G36*
X-128372Y-29597D02*
X-127852Y-30966D01*
X-127261Y-32223D01*
X-126598Y-33370D01*
X-125864Y-34405D01*
X-125057Y-35329D01*
X-124180Y-36142D01*
X-123230Y-36845D01*
X-122209Y-37436D01*
X-121117Y-37916D01*
X-139604Y-45947D01*
X-138763Y-45461D01*
X-138071Y-44801D01*
X-137528Y-43966D01*
X-137135Y-42956D01*
X-136890Y-41771D01*
X-136795Y-40411D01*
X-136849Y-38877D01*
X-137053Y-37167D01*
X-137405Y-35282D01*
X-137907Y-33223D01*
X-128820Y-28118D01*
X-128372Y-29597D01*
D02*
G37*
G36*
X144933Y45615D02*
X147655Y35963D01*
X147657Y35894D01*
X148282Y31928D01*
X148878Y29907D01*
X149977Y28110D01*
X151504Y26659D01*
X158799Y21350D01*
X160649Y20343D01*
X162697Y19850D01*
X164803Y19903D01*
X169447Y20635D01*
X171538Y17014D01*
X171584Y16876D01*
X171680Y16767D01*
X173124Y14266D01*
X173495Y14481D01*
X176078Y10661D01*
X176940Y9184D01*
X177574Y8366D01*
X178204Y7544D01*
X178218Y7533D01*
X178229Y7519D01*
X179054Y6892D01*
X179875Y6262D01*
X179892Y6255D01*
X179906Y6244D01*
X180865Y5852D01*
X181821Y5456D01*
X181839Y5454D01*
X181856Y5447D01*
X182883Y5316D01*
X183909Y5181D01*
X217323D01*
X223043Y5078D01*
X223750Y5027D01*
Y4500D01*
X226638D01*
X226780Y4472D01*
X226923Y4500D01*
X237250D01*
Y18882D01*
X242750D01*
Y7719D01*
X242722Y7594D01*
X242728Y7562D01*
X242722Y7531D01*
X242750Y7388D01*
Y4500D01*
X243309D01*
X243382Y3371D01*
Y-14500D01*
X243848Y-16841D01*
X245174Y-18826D01*
X270624Y-44276D01*
X272101Y-45262D01*
X271716Y-46532D01*
X254184D01*
X252826Y-45174D01*
X250841Y-43848D01*
X248500Y-43383D01*
X247250D01*
Y-40750D01*
X241429D01*
X241384Y-40640D01*
X241262Y-40190D01*
X241157Y-39554D01*
X241118Y-39112D01*
Y-36000D01*
X240652Y-33659D01*
X239326Y-31674D01*
X234576Y-26924D01*
X232591Y-25598D01*
X230250Y-25133D01*
X226619D01*
X226347Y-25115D01*
X225646Y-25028D01*
X225250Y-24949D01*
Y-23000D01*
X222368D01*
X222228Y-22972D01*
X222083Y-23000D01*
X211750D01*
Y-30659D01*
X211632Y-31250D01*
X211750Y-31841D01*
Y-40500D01*
X221584D01*
X222750Y-40750D01*
Y-58250D01*
X247250D01*
Y-58250D01*
X248520Y-57775D01*
X249309Y-58302D01*
X251650Y-58767D01*
X260666D01*
X261051Y-60037D01*
X259574Y-61024D01*
X251424Y-69174D01*
X250098Y-71159D01*
X249632Y-73500D01*
Y-78716D01*
X247423Y-80925D01*
X246250Y-80439D01*
Y-72750D01*
X236500D01*
Y-80500D01*
X235000D01*
Y-82000D01*
X223750D01*
Y-88250D01*
X227939D01*
X228425Y-89423D01*
X206424Y-111424D01*
X205098Y-113409D01*
X204632Y-115750D01*
Y-145250D01*
X205098Y-147591D01*
X206424Y-149576D01*
X207189Y-150341D01*
X206398Y-151345D01*
X205028Y-150506D01*
X200229Y-148518D01*
X195178Y-147305D01*
X190000Y-146898D01*
X184822Y-147305D01*
X179771Y-148518D01*
X174972Y-150506D01*
X170543Y-153220D01*
X166593Y-156593D01*
X163220Y-160543D01*
X160506Y-164972D01*
X158518Y-169771D01*
X157305Y-174822D01*
X157000Y-178708D01*
X155695Y-179094D01*
X154918Y-178081D01*
X152965Y-176583D01*
X150880Y-175719D01*
X148206Y-173044D01*
X146535Y-171762D01*
X144588Y-170956D01*
X142500Y-170681D01*
X126842D01*
X119646Y-163484D01*
Y-147619D01*
X119678Y-146193D01*
X119802Y-144442D01*
X120316Y-140924D01*
X120682Y-139309D01*
X121139Y-137698D01*
X121678Y-136129D01*
X122299Y-134600D01*
X123003Y-133109D01*
X123830Y-131581D01*
X123866Y-131465D01*
X125279Y-129016D01*
X122720Y-127539D01*
X122596Y-127436D01*
X122479Y-127399D01*
X110124Y-120266D01*
X105920Y-127548D01*
X105851Y-127581D01*
X104775Y-127918D01*
X103381Y-128203D01*
X99405Y-128575D01*
X97525Y-128612D01*
X83805D01*
X81716Y-128887D01*
X79770Y-129693D01*
X79770Y-129693D01*
X79770D01*
X79600Y-129824D01*
X78514Y-130473D01*
X69151Y-135716D01*
X58290Y-140724D01*
X47069Y-144863D01*
X35558Y-148110D01*
X31876Y-148842D01*
X31160Y-147690D01*
X32330Y-146165D01*
X33262Y-143915D01*
X33504Y-142077D01*
X33635Y-141909D01*
X34172Y-141426D01*
X34984Y-140874D01*
X36077Y-140291D01*
X37445Y-139703D01*
X39080Y-139126D01*
X41041Y-138551D01*
X41209Y-138463D01*
X41393Y-138423D01*
X41443Y-138389D01*
X44670Y-137479D01*
X55318Y-133551D01*
X65626Y-128799D01*
X75529Y-123252D01*
X84967Y-116947D01*
X93880Y-109920D01*
X99087Y-105107D01*
X99169Y-105068D01*
X99302Y-104923D01*
X99468Y-104818D01*
X100948Y-103406D01*
X102265Y-102279D01*
X103455Y-101391D01*
X104501Y-100740D01*
X105374Y-100320D01*
X106047Y-100104D01*
X106258Y-100076D01*
X108219Y-100888D01*
X110634Y-101206D01*
X113049Y-100888D01*
X115299Y-99956D01*
X117231Y-98473D01*
X118714Y-96541D01*
X124964Y-85716D01*
X125896Y-83465D01*
X126214Y-81051D01*
X125896Y-78636D01*
X124964Y-76386D01*
X123481Y-74454D01*
X121549Y-72971D01*
X110724Y-66721D01*
X108474Y-65789D01*
X107171Y-65617D01*
X106495Y-64247D01*
X108888Y-60104D01*
X110412Y-60004D01*
X111212Y-61046D01*
X113144Y-62529D01*
X123969Y-68779D01*
X126219Y-69711D01*
X128634Y-70029D01*
X131049Y-69711D01*
X133299Y-68779D01*
X135231Y-67296D01*
X136714Y-65364D01*
X142964Y-54539D01*
X143896Y-52289D01*
X144214Y-49874D01*
X143896Y-47459D01*
X142964Y-45209D01*
X142083Y-44061D01*
X142073Y-44041D01*
X142057Y-44027D01*
X141481Y-43277D01*
X140218Y-42308D01*
X140122Y-42063D01*
X139971Y-41338D01*
X139901Y-40350D01*
X139944Y-39110D01*
X140118Y-37636D01*
X140435Y-35940D01*
X140600Y-35263D01*
X140998Y-33851D01*
X142397Y-26822D01*
X143683Y-26864D01*
X143891Y-28441D01*
X144833Y-30715D01*
X146332Y-32668D01*
X148285Y-34167D01*
X150559Y-35109D01*
X153000Y-35431D01*
X153781Y-35328D01*
X181566Y-50610D01*
X182787Y-51369D01*
X183805Y-52188D01*
X184536Y-52982D01*
X185023Y-53740D01*
X185316Y-54485D01*
X185454Y-55273D01*
X185435Y-56173D01*
X185225Y-57232D01*
X184784Y-58462D01*
X184141Y-59739D01*
X183664Y-60528D01*
X182961Y-61563D01*
X182236Y-62510D01*
X181667Y-63168D01*
X180984Y-63096D01*
X180330Y-62741D01*
X180073Y-60784D01*
X178889Y-57926D01*
X177005Y-55472D01*
X174551Y-53588D01*
X171692Y-52404D01*
X168625Y-52000D01*
X165558Y-52404D01*
X162699Y-53588D01*
X160245Y-55472D01*
X158361Y-57926D01*
X129611Y-107723D01*
X128427Y-110581D01*
X128024Y-113648D01*
X128427Y-116716D01*
X129611Y-119574D01*
X131495Y-122028D01*
X133949Y-123912D01*
X136808Y-125096D01*
X139875Y-125500D01*
X142942Y-125096D01*
X143943Y-124681D01*
X144858Y-125677D01*
X143880Y-127570D01*
X143392Y-128385D01*
X141729Y-131046D01*
X140164Y-133461D01*
X138619Y-135619D01*
X138031Y-136350D01*
X138014Y-136369D01*
X136971Y-135766D01*
X135583Y-138169D01*
X135515Y-138239D01*
X135485Y-138315D01*
X135431Y-138377D01*
X135384Y-138514D01*
X124721Y-156984D01*
X139876Y-165734D01*
X149524Y-149023D01*
X157109Y-136888D01*
X157603Y-136142D01*
X158320Y-135181D01*
X159067Y-134292D01*
X159846Y-133471D01*
X160504Y-132859D01*
X161023Y-133030D01*
X161637Y-133556D01*
X161274Y-136313D01*
X161677Y-139381D01*
X162861Y-142239D01*
X164745Y-144693D01*
X167199Y-146577D01*
X170058Y-147761D01*
X173125Y-148165D01*
X176192Y-147761D01*
X179051Y-146577D01*
X181505Y-144693D01*
X183389Y-142239D01*
X214639Y-88112D01*
X215823Y-85254D01*
X216226Y-82187D01*
X215823Y-79119D01*
X214639Y-76261D01*
X212755Y-73807D01*
X210301Y-71923D01*
X207442Y-70739D01*
X204375Y-70335D01*
X201308Y-70739D01*
X198449Y-71923D01*
X197567Y-72600D01*
X197333Y-72535D01*
X196588Y-71336D01*
X196560Y-71009D01*
X197613Y-68728D01*
X198055Y-67917D01*
X205575Y-54757D01*
X205600Y-54696D01*
X205639Y-54643D01*
X205992Y-53738D01*
X206363Y-52842D01*
X206366Y-52824D01*
X206373Y-52808D01*
X206381Y-52742D01*
X206405Y-52680D01*
X206512Y-51715D01*
X206638Y-50754D01*
Y-33681D01*
X206363Y-31592D01*
X206250Y-31319D01*
Y-23000D01*
X192750D01*
Y-28123D01*
X191581Y-29646D01*
X190775Y-31592D01*
X190555Y-33268D01*
X190528Y-33352D01*
X190534Y-33421D01*
X190530Y-33454D01*
X190515Y-33512D01*
X190510Y-33607D01*
X190500Y-33681D01*
Y-33783D01*
X190439Y-34885D01*
X190378Y-35191D01*
X189142Y-35997D01*
X188836Y-35929D01*
X187696Y-35500D01*
X186453Y-34880D01*
X160753Y-20744D01*
X159669Y-19332D01*
X157715Y-17833D01*
X155441Y-16891D01*
X153000Y-16569D01*
X150559Y-16891D01*
X148285Y-17833D01*
X146332Y-19332D01*
X144833Y-21285D01*
X144597Y-21855D01*
X143356Y-21531D01*
X144558Y-11377D01*
X145005Y0D01*
X144558Y11377D01*
X143220Y22684D01*
X140998Y33851D01*
X140622Y35186D01*
X140529Y35571D01*
X140215Y37278D01*
X140043Y38758D01*
X140003Y39996D01*
X140077Y40974D01*
X140229Y41681D01*
X140309Y41880D01*
X141803Y43027D01*
X143286Y44959D01*
X143591Y45694D01*
X144933Y45615D01*
D02*
G37*
G36*
X244232Y-45463D02*
X244361Y-45680D01*
X244577Y-45873D01*
X244879Y-46039D01*
X245267Y-46180D01*
X245741Y-46295D01*
X246301Y-46385D01*
X246948Y-46449D01*
X248500Y-46500D01*
Y-52500D01*
X247681Y-52513D01*
X246301Y-52615D01*
X245741Y-52705D01*
X245267Y-52820D01*
X244879Y-52961D01*
X244577Y-53127D01*
X244361Y-53320D01*
X244232Y-53537D01*
X244189Y-53780D01*
Y-45219D01*
X244232Y-45463D01*
D02*
G37*
G36*
X-182017Y-54594D02*
X-182348Y-54204D01*
X-182768Y-54025D01*
X-183279Y-54056D01*
X-183880Y-54298D01*
X-184570Y-54751D01*
X-185350Y-55414D01*
X-186221Y-56288D01*
X-187181Y-57373D01*
X-189371Y-60174D01*
X-194830Y-50718D01*
X-193728Y-49147D01*
X-192018Y-46246D01*
X-191411Y-44917D01*
X-190970Y-43667D01*
X-190693Y-42498D01*
X-190581Y-41409D01*
X-190634Y-40401D01*
X-190853Y-39473D01*
X-191236Y-38625D01*
X-182017Y-54594D01*
D02*
G37*
G36*
X290561Y-50074D02*
X290703Y-50090D01*
X291221Y-50116D01*
X294650Y-50150D01*
Y-55150D01*
X290498Y-55244D01*
Y-50056D01*
X290561Y-50074D01*
D02*
G37*
G36*
X-108710Y-60001D02*
X-106317Y-64145D01*
X-106993Y-65515D01*
X-108296Y-65686D01*
X-110546Y-66618D01*
X-121371Y-72868D01*
X-123303Y-74351D01*
X-124786Y-76283D01*
X-125718Y-78533D01*
X-126036Y-80948D01*
X-125718Y-83363D01*
X-125549Y-83770D01*
X-126675Y-84372D01*
X-129873Y-79586D01*
X-135716Y-69151D01*
X-136566Y-67309D01*
X-135472Y-66649D01*
X-135053Y-67194D01*
X-133121Y-68676D01*
X-130871Y-69608D01*
X-128456Y-69926D01*
X-126041Y-69608D01*
X-123791Y-68676D01*
X-112966Y-62426D01*
X-111034Y-60944D01*
X-110234Y-59901D01*
X-108710Y-60001D01*
D02*
G37*
G36*
X-186024Y-62648D02*
X-184370Y-64967D01*
X-183505Y-65990D01*
X-182614Y-66921D01*
X-181696Y-67761D01*
X-180753Y-68509D01*
X-179785Y-69165D01*
X-178790Y-69731D01*
X-177770Y-70204D01*
X-192326Y-78608D01*
X-192226Y-77488D01*
X-192218Y-76344D01*
X-192303Y-75177D01*
X-192479Y-73986D01*
X-192748Y-72772D01*
X-193108Y-71535D01*
X-193561Y-70274D01*
X-194106Y-68990D01*
X-195472Y-66351D01*
X-186812Y-61351D01*
X-186024Y-62648D01*
D02*
G37*
G36*
X318866Y-71613D02*
X319767Y-72335D01*
X320704Y-72971D01*
X321675Y-73523D01*
X322682Y-73989D01*
X323724Y-74371D01*
X324801Y-74668D01*
X325913Y-74880D01*
X327060Y-75008D01*
X328243Y-75050D01*
Y-81050D01*
X327060Y-81092D01*
X325913Y-81220D01*
X324801Y-81432D01*
X323724Y-81729D01*
X322682Y-82111D01*
X321675Y-82577D01*
X320704Y-83129D01*
X319767Y-83765D01*
X318866Y-84487D01*
X318000Y-85293D01*
X312629Y-82179D01*
X313371Y-81352D01*
X313945Y-80523D01*
X314352Y-79691D01*
X314592Y-78857D01*
X314664Y-78021D01*
X314569Y-77183D01*
X314307Y-76343D01*
X313877Y-75500D01*
X313279Y-74655D01*
X312515Y-73807D01*
X318000Y-70807D01*
X318866Y-71613D01*
D02*
G37*
G36*
X-105161Y-83512D02*
X-105136Y-83780D01*
X-105096Y-84038D01*
X-105039Y-84288D01*
X-104967Y-84528D01*
X-104878Y-84758D01*
X-104773Y-84980D01*
X-104652Y-85193D01*
X-104515Y-85396D01*
X-104361Y-85590D01*
X-111976D01*
X-111823Y-85396D01*
X-111685Y-85193D01*
X-111564Y-84980D01*
X-111459Y-84758D01*
X-111370Y-84528D01*
X-111298Y-84288D01*
X-111241Y-84038D01*
X-111201Y-83780D01*
X-111177Y-83512D01*
X-111169Y-83236D01*
X-105169D01*
X-105161Y-83512D01*
D02*
G37*
G36*
X317780Y-90425D02*
X317870Y-91449D01*
X318020Y-92353D01*
X318230Y-93136D01*
X318500Y-93799D01*
X318830Y-94342D01*
X319220Y-94765D01*
X319670Y-95067D01*
X320180Y-95249D01*
X320750Y-95311D01*
X309280Y-95281D01*
X309750Y-95220D01*
X310170Y-95041D01*
X310540Y-94740D01*
X310861Y-94320D01*
X311133Y-93780D01*
X311355Y-93120D01*
X311528Y-92340D01*
X311651Y-91440D01*
X311725Y-90421D01*
X311750Y-89281D01*
X317750D01*
X317780Y-90425D01*
D02*
G37*
G36*
X109080Y-97869D02*
X108275Y-97347D01*
X107388Y-97046D01*
X106420Y-96967D01*
X105370Y-97109D01*
X104238Y-97472D01*
X103025Y-98056D01*
X101730Y-98862D01*
X100354Y-99888D01*
X98896Y-101136D01*
X97356Y-102605D01*
X88456Y-97225D01*
X90126Y-95486D01*
X92697Y-92360D01*
X93599Y-90971D01*
X94244Y-89700D01*
X94634Y-88545D01*
X94768Y-87506D01*
X94646Y-86584D01*
X94268Y-85779D01*
X93634Y-85090D01*
X109080Y-97869D01*
D02*
G37*
G36*
X-95066Y-89143D02*
X-95620Y-89789D01*
X-95924Y-90545D01*
X-95976Y-91411D01*
X-95776Y-92387D01*
X-95326Y-93473D01*
X-94624Y-94669D01*
X-93671Y-95975D01*
X-92467Y-97391D01*
X-91012Y-98917D01*
X-99978Y-104094D01*
X-101023Y-103107D01*
X-102104Y-102199D01*
X-103223Y-101372D01*
X-104377Y-100624D01*
X-105569Y-99956D01*
X-106797Y-99367D01*
X-108061Y-98858D01*
X-109362Y-98429D01*
X-110700Y-98080D01*
X-112074Y-97810D01*
X-94261Y-88607D01*
X-95066Y-89143D01*
D02*
G37*
G36*
X295392Y-81569D02*
Y-92246D01*
X294750Y-93250D01*
X287500D01*
Y-105000D01*
X286000D01*
Y-106500D01*
X277250D01*
Y-108524D01*
X275980Y-108955D01*
X274272Y-106728D01*
X271556Y-104644D01*
X268394Y-103335D01*
X265000Y-102888D01*
X261606Y-103335D01*
X258444Y-104644D01*
X255728Y-106728D01*
X253645Y-109444D01*
X252335Y-112606D01*
X251888Y-116000D01*
X252335Y-119394D01*
X253645Y-122556D01*
X255728Y-125272D01*
X256010Y-125488D01*
X255681Y-126715D01*
X255259Y-126770D01*
X252705Y-127828D01*
X251178Y-129000D01*
X249250D01*
Y-131155D01*
X248828Y-131705D01*
X247770Y-134259D01*
X247409Y-137000D01*
X247770Y-139741D01*
X248182Y-140734D01*
X247105Y-141453D01*
X239368Y-133716D01*
Y-118284D01*
X251286Y-106366D01*
X251824Y-105560D01*
X252863Y-104866D01*
X268616Y-89113D01*
X269942Y-87128D01*
X269984Y-86918D01*
X272734Y-84168D01*
X289000D01*
X291341Y-83702D01*
X293326Y-82376D01*
X294122Y-81184D01*
X295392Y-81569D01*
D02*
G37*
G36*
X-29167Y-96152D02*
X-19603Y-98548D01*
X-15691Y-99129D01*
X-15784Y-100399D01*
X-31250D01*
X-34317Y-100802D01*
X-37176Y-101986D01*
X-39630Y-103870D01*
X-41514Y-106324D01*
X-42698Y-109183D01*
X-43101Y-112250D01*
X-42698Y-115317D01*
X-41514Y-118176D01*
X-39630Y-120630D01*
X-37176Y-122514D01*
X-34317Y-123698D01*
X-33464Y-123810D01*
X-32685Y-125193D01*
X-33262Y-126585D01*
X-33580Y-129000D01*
Y-141500D01*
X-33262Y-143915D01*
X-32330Y-146165D01*
X-31160Y-147690D01*
X-31876Y-148842D01*
X-35558Y-148110D01*
X-47069Y-144863D01*
X-56035Y-141556D01*
X-57211Y-141121D01*
X-58400Y-140673D01*
X-69151Y-135716D01*
X-79586Y-129873D01*
X-89530Y-123228D01*
X-98923Y-115824D01*
X-107705Y-107705D01*
X-112924Y-102059D01*
X-112878Y-101850D01*
X-112278Y-100887D01*
X-111381Y-101063D01*
X-110228Y-101364D01*
X-109112Y-101733D01*
X-108030Y-102168D01*
X-106979Y-102671D01*
X-105958Y-103244D01*
X-104965Y-103887D01*
X-103999Y-104602D01*
X-103057Y-105392D01*
X-102370Y-106041D01*
X-93706Y-114706D01*
X-92035Y-115988D01*
X-90088Y-116794D01*
X-88000Y-117069D01*
X-76632D01*
X-76088Y-117294D01*
X-74000Y-117569D01*
X-71912Y-117294D01*
X-69966Y-116488D01*
X-69584Y-116196D01*
X-69083Y-115988D01*
X-67412Y-114706D01*
X-45775Y-93069D01*
X-37785D01*
X-29167Y-96152D01*
D02*
G37*
G36*
X79995Y-62743D02*
X71539Y-77388D01*
X70355Y-80246D01*
X69952Y-83313D01*
X70355Y-86381D01*
X71539Y-89239D01*
X73423Y-91693D01*
X75877Y-93577D01*
X78735Y-94761D01*
X81803Y-95165D01*
X84599Y-94797D01*
X85116Y-95546D01*
X85237Y-95934D01*
X82558Y-98389D01*
X73669Y-105210D01*
X64219Y-111230D01*
X54280Y-116404D01*
X43928Y-120692D01*
X40037Y-121919D01*
X39441Y-120775D01*
X39630Y-120630D01*
X41514Y-118176D01*
X42698Y-115317D01*
X43101Y-112250D01*
X42698Y-109183D01*
X41514Y-106324D01*
X39630Y-103870D01*
X37176Y-101986D01*
X34317Y-100802D01*
X31250Y-100399D01*
X15784D01*
X15691Y-99129D01*
X19603Y-98548D01*
X29167Y-96152D01*
X38452Y-92830D01*
X47365Y-88615D01*
X55823Y-83545D01*
X63743Y-77671D01*
X71049Y-71049D01*
X77671Y-63743D01*
X78931Y-62045D01*
X79995Y-62743D01*
D02*
G37*
G36*
X275049Y-116855D02*
X275197Y-117620D01*
X275444Y-118295D01*
X275789Y-118880D01*
X276233Y-119375D01*
X276775Y-119780D01*
X277416Y-120095D01*
X278155Y-120320D01*
X278993Y-120455D01*
X279930Y-120500D01*
X278141Y-125500D01*
X266582Y-125874D01*
X275000Y-116000D01*
X275049Y-116855D01*
D02*
G37*
G36*
X164072Y-127046D02*
X162898Y-127577D01*
X161769Y-128179D01*
X160684Y-128851D01*
X159643Y-129595D01*
X158646Y-130410D01*
X157693Y-131296D01*
X156785Y-132254D01*
X155921Y-133282D01*
X155101Y-134381D01*
X154325Y-135551D01*
X145720Y-130451D01*
X146554Y-129060D01*
X147918Y-126418D01*
X148449Y-125167D01*
X148879Y-123963D01*
X149208Y-122805D01*
X149436Y-121694D01*
X149564Y-120630D01*
X149590Y-119613D01*
X149516Y-118642D01*
X164072Y-127046D01*
D02*
G37*
G36*
X152776Y-138029D02*
X147986Y-145625D01*
X138080Y-139906D01*
X138375Y-139961D01*
X138750Y-139831D01*
X139206Y-139517D01*
X139742Y-139019D01*
X140359Y-138337D01*
X141056Y-137470D01*
X142693Y-135184D01*
X144652Y-132160D01*
X152776Y-138029D01*
D02*
G37*
G36*
X27444Y-124449D02*
X27931Y-125185D01*
X28646Y-125757D01*
X29588Y-126167D01*
X30758Y-126413D01*
X32155Y-126497D01*
X33780Y-126417D01*
X35633Y-126175D01*
X37713Y-125770D01*
X40021Y-125202D01*
X40180Y-135616D01*
X38140Y-136214D01*
X36330Y-136853D01*
X34750Y-137532D01*
X33400Y-138252D01*
X32281Y-139012D01*
X31391Y-139813D01*
X30732Y-140655D01*
X30303Y-141537D01*
X30103Y-142459D01*
X30134Y-143422D01*
X27185Y-123551D01*
X27444Y-124449D01*
D02*
G37*
G36*
X-229524Y-141607D02*
X-229756Y-142096D01*
X-229860Y-142628D01*
X-229837Y-143203D01*
X-229686Y-143820D01*
X-229408Y-144480D01*
X-229003Y-145182D01*
X-228470Y-145927D01*
X-227809Y-146715D01*
X-227022Y-147545D01*
X-231264Y-151788D01*
X-232081Y-150992D01*
X-234149Y-149242D01*
X-234711Y-148870D01*
X-235209Y-148605D01*
X-235644Y-148446D01*
X-236014Y-148392D01*
X-236322Y-148445D01*
X-236565Y-148603D01*
X-229164Y-141160D01*
X-229524Y-141607D01*
D02*
G37*
G36*
X3241Y-125371D02*
X2738Y-126585D01*
X2420Y-129000D01*
Y-141500D01*
X2738Y-143915D01*
X3670Y-146165D01*
X5153Y-148097D01*
X7085Y-149580D01*
X9335Y-150512D01*
X10321Y-150642D01*
X10263Y-151915D01*
X0Y-152318D01*
X-10263Y-151915D01*
X-10321Y-150642D01*
X-9335Y-150512D01*
X-7085Y-149580D01*
X-5153Y-148097D01*
X-3670Y-146165D01*
X-2738Y-143915D01*
X-2420Y-141500D01*
Y-129000D01*
X-2738Y-126585D01*
X-3241Y-125371D01*
X-2392Y-124101D01*
X2392D01*
X3241Y-125371D01*
D02*
G37*
G36*
X110856Y-135636D02*
X121140Y-130125D01*
X120273Y-131727D01*
X119497Y-133371D01*
X118813Y-135056D01*
X118219Y-136784D01*
X117717Y-138553D01*
X117307Y-140364D01*
X116759Y-144113D01*
X116622Y-146050D01*
X116577Y-148029D01*
X106577Y-153009D01*
X106531Y-151083D01*
X106394Y-149304D01*
X106166Y-147672D01*
X105847Y-146187D01*
X105436Y-144850D01*
X104934Y-143661D01*
X104576Y-143032D01*
X103688Y-142785D01*
X101900Y-142387D01*
X98183Y-141858D01*
X96253Y-141725D01*
X94277Y-141681D01*
X97033Y-131681D01*
X99578Y-131631D01*
X103832Y-131233D01*
X105541Y-130884D01*
X106971Y-130435D01*
X108123Y-129887D01*
X108997Y-129239D01*
X109592Y-128491D01*
X109908Y-127644D01*
X109946Y-126697D01*
X110856Y-135636D01*
D02*
G37*
G36*
X-54958Y-152681D02*
X-54620Y-155880D01*
X-54325Y-157181D01*
X-53945Y-158280D01*
X-53481Y-159180D01*
X-52932Y-159881D01*
X-52299Y-160380D01*
X-51582Y-160681D01*
X-50781Y-160781D01*
X-69219D01*
X-68418Y-160681D01*
X-67701Y-160380D01*
X-67068Y-159881D01*
X-66519Y-159180D01*
X-66055Y-158280D01*
X-65675Y-157181D01*
X-65380Y-155880D01*
X-65169Y-154381D01*
X-65042Y-152681D01*
X-65000Y-150780D01*
X-55000D01*
X-54958Y-152681D01*
D02*
G37*
G36*
X261628Y-154094D02*
X262476Y-154815D01*
X263322Y-155452D01*
X264167Y-156003D01*
X265012Y-156470D01*
X265855Y-156852D01*
X266698Y-157149D01*
X267539Y-157361D01*
X268380Y-157488D01*
X269219Y-157530D01*
X261811Y-167016D01*
X262101Y-166505D01*
X262231Y-165919D01*
X262202Y-165259D01*
X262014Y-164523D01*
X261666Y-163712D01*
X261159Y-162826D01*
X260493Y-161865D01*
X259667Y-160828D01*
X258682Y-159717D01*
X257538Y-158531D01*
X260781Y-153288D01*
X261628Y-154094D01*
D02*
G37*
G36*
X286311Y-172500D02*
X286249Y-171930D01*
X286067Y-171420D01*
X285765Y-170970D01*
X285342Y-170580D01*
X284799Y-170250D01*
X284136Y-169980D01*
X283352Y-169770D01*
X282449Y-169620D01*
X281425Y-169530D01*
X280280Y-169500D01*
Y-163500D01*
X281420Y-163485D01*
X284121Y-163265D01*
X284781Y-163133D01*
X285320Y-162971D01*
X285741Y-162780D01*
X286040Y-162560D01*
X286220Y-162310D01*
X286280Y-162031D01*
X286311Y-172500D01*
D02*
G37*
G36*
X125251Y-189570D02*
X125433Y-190080D01*
X125735Y-190530D01*
X126158Y-190920D01*
X126701Y-191250D01*
X127364Y-191520D01*
X128147Y-191730D01*
X129051Y-191880D01*
X130075Y-191970D01*
X131220Y-192000D01*
Y-198000D01*
X130079Y-198022D01*
X128160Y-198200D01*
X127380Y-198355D01*
X126720Y-198555D01*
X126180Y-198799D01*
X125759Y-199088D01*
X125459Y-199421D01*
X125280Y-199798D01*
X125219Y-200219D01*
X125189Y-189000D01*
X125251Y-189570D01*
D02*
G37*
G36*
X106781Y-200219D02*
X106721Y-199798D01*
X106540Y-199421D01*
X106241Y-199088D01*
X105821Y-198799D01*
X105281Y-198555D01*
X104621Y-198355D01*
X103841Y-198200D01*
X102941Y-198089D01*
X101920Y-198022D01*
X100780Y-198000D01*
Y-192000D01*
X101925Y-191970D01*
X102949Y-191880D01*
X103853Y-191730D01*
X104636Y-191520D01*
X105299Y-191250D01*
X105842Y-190920D01*
X106265Y-190530D01*
X106567Y-190080D01*
X106749Y-189570D01*
X106811Y-189000D01*
X106781Y-200219D01*
D02*
G37*
G36*
X92780Y-191620D02*
X92959Y-191700D01*
X93259Y-191770D01*
X93680Y-191831D01*
X94880Y-191925D01*
X98720Y-192000D01*
Y-198000D01*
X97576Y-198030D01*
X96552Y-198120D01*
X95648Y-198270D01*
X94865Y-198480D01*
X94201Y-198750D01*
X93659Y-199080D01*
X93236Y-199470D01*
X92933Y-199920D01*
X92751Y-200430D01*
X92689Y-201000D01*
X92719Y-191530D01*
X92780Y-191620D01*
D02*
G37*
G36*
X66280Y-202969D02*
X66180Y-202833D01*
X65880Y-202710D01*
X65380Y-202603D01*
X64680Y-202509D01*
X62680Y-202365D01*
X56280Y-202250D01*
Y-192250D01*
X58180Y-192243D01*
X65880Y-191789D01*
X66180Y-191667D01*
X66280Y-191530D01*
Y-202969D01*
D02*
G37*
G36*
X-50680Y-191870D02*
X-50381Y-191950D01*
X-49880Y-192020D01*
X-49180Y-192081D01*
X-44380Y-192231D01*
X-40781Y-192250D01*
Y-202250D01*
X-42681Y-202260D01*
X-49880Y-202725D01*
X-50381Y-202871D01*
X-50680Y-203035D01*
X-50781Y-203220D01*
Y-191780D01*
X-50680Y-191870D01*
D02*
G37*
G36*
X336515Y-197190D02*
X336753Y-200077D01*
X336962Y-201250D01*
X337230Y-202243D01*
X337557Y-203054D01*
X337945Y-203686D01*
X338391Y-204137D01*
X338898Y-204408D01*
X339464Y-204498D01*
X327507D01*
X328073Y-204408D01*
X328579Y-204137D01*
X329026Y-203686D01*
X329413Y-203054D01*
X329741Y-202243D01*
X330009Y-201250D01*
X330217Y-200077D01*
X330366Y-198724D01*
X330485Y-195476D01*
X336485D01*
X336515Y-197190D01*
D02*
G37*
G36*
X29174Y-189493D02*
X30161Y-190071D01*
X31214Y-190582D01*
X32334Y-191024D01*
X33519Y-191399D01*
X34771Y-191705D01*
X36089Y-191944D01*
X37474Y-192114D01*
X40442Y-192250D01*
Y-202250D01*
X38925Y-202284D01*
X36089Y-202556D01*
X34771Y-202795D01*
X33519Y-203101D01*
X32334Y-203475D01*
X31214Y-203918D01*
X30161Y-204429D01*
X29174Y-205007D01*
X28254Y-205654D01*
Y-188846D01*
X29174Y-189493D01*
D02*
G37*
G36*
X-28254Y-205654D02*
X-29174Y-205007D01*
X-30161Y-204429D01*
X-31214Y-203918D01*
X-32334Y-203475D01*
X-33519Y-203101D01*
X-34771Y-202795D01*
X-36089Y-202556D01*
X-37474Y-202386D01*
X-40442Y-202250D01*
Y-192250D01*
X-38925Y-192216D01*
X-36089Y-191944D01*
X-34771Y-191705D01*
X-33519Y-191399D01*
X-32334Y-191024D01*
X-31214Y-190582D01*
X-30161Y-190071D01*
X-29174Y-189493D01*
X-28254Y-188846D01*
Y-205654D01*
D02*
G37*
G36*
X158135Y-188636D02*
X158518Y-190229D01*
X160506Y-195028D01*
X163220Y-199457D01*
X166593Y-203407D01*
X170543Y-206780D01*
X174972Y-209494D01*
X179771Y-211482D01*
X184822Y-212694D01*
X190000Y-213102D01*
X195178Y-212694D01*
X200229Y-211482D01*
X205028Y-209494D01*
X206398Y-208655D01*
X207189Y-209659D01*
X202466Y-214382D01*
X169719D01*
X150369Y-195033D01*
X150904Y-193771D01*
X152965Y-192917D01*
X154918Y-191418D01*
X156417Y-189465D01*
X156804Y-188531D01*
X158135Y-188636D01*
D02*
G37*
G36*
X-152719Y-231000D02*
X-152780Y-230430D01*
X-152959Y-229920D01*
X-153259Y-229470D01*
X-153680Y-229080D01*
X-154220Y-228750D01*
X-154880Y-228480D01*
X-155660Y-228270D01*
X-156559Y-228120D01*
X-157579Y-228030D01*
X-158720Y-228000D01*
Y-222000D01*
X-157579Y-221970D01*
X-156559Y-221880D01*
X-155660Y-221730D01*
X-154880Y-221520D01*
X-154220Y-221250D01*
X-153680Y-220920D01*
X-153259Y-220530D01*
X-152959Y-220080D01*
X-152780Y-219570D01*
X-152719Y-219000D01*
Y-231000D01*
D02*
G37*
G36*
X-110667Y-226625D02*
X-110850Y-227158D01*
X-110858Y-227782D01*
X-110691Y-228496D01*
X-110351Y-229299D01*
X-109837Y-230193D01*
X-109148Y-231176D01*
X-108286Y-232250D01*
X-106038Y-234666D01*
X-110727Y-238462D01*
X-111940Y-237291D01*
X-114123Y-235445D01*
X-115093Y-234770D01*
X-115883Y-234317D01*
X-116718Y-234795D01*
X-117685Y-235467D01*
X-118730Y-236303D01*
X-121059Y-238462D01*
X-125962Y-234881D01*
X-124741Y-233618D01*
X-122829Y-231368D01*
X-122137Y-230382D01*
X-121622Y-229487D01*
X-121283Y-228685D01*
X-121120Y-227974D01*
X-121133Y-227356D01*
X-121323Y-226830D01*
X-121689Y-226395D01*
X-115977Y-231279D01*
X-110311Y-226181D01*
X-110667Y-226625D01*
D02*
G37*
G36*
X314238Y-239247D02*
X313793Y-238887D01*
X313305Y-238653D01*
X312775Y-238547D01*
X312202Y-238568D01*
X311586Y-238717D01*
X310929Y-238993D01*
X310229Y-239396D01*
X309486Y-239926D01*
X308701Y-240583D01*
X307874Y-241368D01*
X303632Y-237126D01*
X304417Y-236299D01*
X305074Y-235514D01*
X305604Y-234771D01*
X306007Y-234071D01*
X306283Y-233414D01*
X306432Y-232798D01*
X306453Y-232225D01*
X306347Y-231695D01*
X306113Y-231207D01*
X305753Y-230762D01*
X314238Y-239247D01*
D02*
G37*
G36*
X305868Y-243374D02*
X305084Y-244202D01*
X304426Y-244986D01*
X303896Y-245729D01*
X303493Y-246429D01*
X303217Y-247087D01*
X303068Y-247702D01*
X303047Y-248274D01*
X303153Y-248805D01*
X303386Y-249293D01*
X303747Y-249738D01*
X295262Y-241253D01*
X295707Y-241614D01*
X296195Y-241847D01*
X296726Y-241953D01*
X297298Y-241932D01*
X297913Y-241783D01*
X298571Y-241507D01*
X299271Y-241104D01*
X300014Y-240574D01*
X300798Y-239916D01*
X301626Y-239132D01*
X305868Y-243374D01*
D02*
G37*
G36*
X-138300Y-247289D02*
X-138296Y-248434D01*
X-137981Y-253645D01*
X-137906Y-253803D01*
X-147300Y-252335D01*
X-146730Y-252359D01*
X-146220Y-252244D01*
X-145770Y-251989D01*
X-145380Y-251595D01*
X-145050Y-251062D01*
X-144780Y-250389D01*
X-144570Y-249577D01*
X-144420Y-248626D01*
X-144330Y-247535D01*
X-144300Y-246305D01*
X-138300Y-247289D01*
D02*
G37*
G36*
X-85970Y-247463D02*
X-85880Y-248500D01*
X-85730Y-249414D01*
X-85521Y-250206D01*
X-85251Y-250877D01*
X-84921Y-251426D01*
X-84532Y-251852D01*
X-84083Y-252157D01*
X-83573Y-252340D01*
X-83004Y-252401D01*
X-94996D01*
X-94427Y-252340D01*
X-93917Y-252157D01*
X-93468Y-251852D01*
X-93079Y-251426D01*
X-92749Y-250877D01*
X-92479Y-250206D01*
X-92270Y-249414D01*
X-92120Y-248500D01*
X-92030Y-247463D01*
X-92000Y-246305D01*
X-86000D01*
X-85970Y-247463D01*
D02*
G37*
G36*
X-183220Y-252780D02*
Y-264219D01*
X-183319Y-263560D01*
X-183619Y-262971D01*
X-184119Y-262450D01*
X-184820Y-261999D01*
X-185720Y-261617D01*
X-186819Y-261305D01*
X-188120Y-261062D01*
X-189620Y-260889D01*
X-191320Y-260785D01*
X-193220Y-260750D01*
Y-250750D01*
X-183220Y-252780D01*
D02*
G37*
G36*
X-165146Y-258948D02*
X-165319Y-259334D01*
X-165331Y-259816D01*
X-165180Y-260393D01*
X-164868Y-261067D01*
X-164394Y-261837D01*
X-163758Y-262703D01*
X-162960Y-263666D01*
X-160879Y-265879D01*
X-166780Y-268462D01*
X-167843Y-267433D01*
X-169763Y-265776D01*
X-170621Y-265148D01*
X-171411Y-264654D01*
X-172133Y-264293D01*
X-172787Y-264067D01*
X-173373Y-263974D01*
X-173891Y-264014D01*
X-174341Y-264189D01*
X-164811Y-258659D01*
X-165146Y-258948D01*
D02*
G37*
G36*
X61425Y-273077D02*
X60939Y-274250D01*
X39899D01*
X39869Y-274241D01*
X39759Y-274250D01*
X39669D01*
X39526Y-274222D01*
X39385Y-274250D01*
X36500D01*
Y-276809D01*
X36139Y-277121D01*
X35296Y-277553D01*
X35279Y-277546D01*
X34551Y-277061D01*
X34511Y-276680D01*
X34500Y-276643D01*
Y-273250D01*
X7500D01*
Y-300750D01*
X10860D01*
X11269Y-300793D01*
X11418Y-300846D01*
X11550Y-300934D01*
X11747Y-301147D01*
X12010Y-301579D01*
X12295Y-302278D01*
X12557Y-303253D01*
X12763Y-304494D01*
X12790Y-304799D01*
X7658Y-309931D01*
X-48620D01*
X-49106Y-308758D01*
X-39674Y-299326D01*
X-38770Y-297973D01*
X-37500Y-298358D01*
Y-299750D01*
X-26500D01*
Y-287000D01*
Y-274250D01*
X-36612D01*
X-37500Y-274250D01*
X-37882Y-273138D01*
Y-272534D01*
X-27466Y-262118D01*
X50466D01*
X61425Y-273077D01*
D02*
G37*
G36*
X-62484Y-274720D02*
X-62985Y-274414D01*
X-63562Y-274270D01*
X-64218Y-274289D01*
X-64950Y-274470D01*
X-65760Y-274813D01*
X-66647Y-275319D01*
X-67612Y-275986D01*
X-68654Y-276816D01*
X-69773Y-277808D01*
X-70970Y-278962D01*
X-75962Y-275470D01*
X-74741Y-274205D01*
X-72829Y-271954D01*
X-72139Y-270967D01*
X-71626Y-270072D01*
X-71290Y-269270D01*
X-71132Y-268560D01*
X-71150Y-267943D01*
X-71346Y-267417D01*
X-71719Y-266984D01*
X-62484Y-274720D01*
D02*
G37*
G36*
X-160538Y-283780D02*
X-161517Y-284778D01*
X-164199Y-287922D01*
X-164562Y-288495D01*
X-164802Y-288984D01*
X-164918Y-289388D01*
X-164911Y-289707D01*
X-164781Y-289941D01*
X-170941Y-283780D01*
X-170707Y-283911D01*
X-170388Y-283918D01*
X-169984Y-283801D01*
X-169495Y-283562D01*
X-168922Y-283199D01*
X-168263Y-282714D01*
X-166691Y-281372D01*
X-164781Y-279538D01*
X-160538Y-283780D01*
D02*
G37*
G36*
X31569Y-277950D02*
X31869Y-278800D01*
X32369Y-279550D01*
X33069Y-280200D01*
X33969Y-280750D01*
X35069Y-281200D01*
X35573Y-281336D01*
X35931Y-281245D01*
X37030Y-280820D01*
X37931Y-280301D01*
X38630Y-279688D01*
X39130Y-278979D01*
X39430Y-278177D01*
X39530Y-277281D01*
X39538Y-281947D01*
X39569Y-281950D01*
X41469Y-282000D01*
Y-292000D01*
X39569Y-292050D01*
X39553Y-292051D01*
X39561Y-297000D01*
X39459Y-296050D01*
X39157Y-295200D01*
X38655Y-294450D01*
X37952Y-293800D01*
X37050Y-293250D01*
X35946Y-292800D01*
X35507Y-292682D01*
X35069Y-292800D01*
X33969Y-293250D01*
X33069Y-293800D01*
X32369Y-294450D01*
X31869Y-295200D01*
X31569Y-296050D01*
X31469Y-297000D01*
Y-292053D01*
X31435Y-292050D01*
X29530Y-292000D01*
Y-282000D01*
X31430Y-281953D01*
X31469Y-281950D01*
Y-277000D01*
X31569Y-277950D01*
D02*
G37*
G36*
X-154349Y-288088D02*
X-155826Y-289074D01*
X-157152Y-291059D01*
X-157618Y-293400D01*
X-157152Y-295741D01*
X-155826Y-297726D01*
X-153841Y-299052D01*
X-151829Y-299452D01*
X-151652Y-300341D01*
X-150326Y-302326D01*
X-143894Y-308758D01*
X-144380Y-309931D01*
X-190658D01*
X-208763Y-291826D01*
Y-289168D01*
X-208782Y-289024D01*
X-207944Y-288069D01*
X-190342D01*
X-186250Y-292161D01*
Y-298250D01*
X-161750D01*
Y-290084D01*
X-161722Y-289941D01*
X-161750Y-289799D01*
Y-289771D01*
X-161731Y-289741D01*
X-159641Y-287292D01*
X-159166Y-286818D01*
X-154734D01*
X-154349Y-288088D01*
D02*
G37*
G36*
X67882Y-279534D02*
Y-306000D01*
X68348Y-308341D01*
X69674Y-310326D01*
X78674Y-319326D01*
X80659Y-320652D01*
X83000Y-321118D01*
X262000D01*
X264270Y-320666D01*
X264349Y-320721D01*
X264856Y-321876D01*
X260811Y-325922D01*
X15904D01*
X15473Y-324652D01*
X16706Y-323706D01*
X26705Y-313706D01*
X27988Y-312035D01*
X28794Y-310089D01*
X29069Y-308000D01*
Y-307370D01*
X29105Y-305988D01*
X29237Y-304494D01*
X29443Y-303253D01*
X29704Y-302278D01*
X29989Y-301579D01*
X30252Y-301147D01*
X30450Y-300934D01*
X30582Y-300846D01*
X30730Y-300793D01*
X31140Y-300750D01*
X34500D01*
Y-297357D01*
X34511Y-297320D01*
X34542Y-297026D01*
X35521Y-296493D01*
X36486Y-297013D01*
X36500Y-297143D01*
Y-301750D01*
X63500D01*
Y-276811D01*
X64673Y-276325D01*
X67882Y-279534D01*
D02*
G37*
G36*
X30050Y-297789D02*
X29200Y-298090D01*
X28450Y-298592D01*
X27800Y-299294D01*
X27250Y-300197D01*
X26800Y-301300D01*
X26450Y-302604D01*
X26200Y-304109D01*
X26050Y-305814D01*
X26000Y-307719D01*
X16000D01*
X15950Y-305814D01*
X15800Y-304109D01*
X15550Y-302604D01*
X15200Y-301300D01*
X14750Y-300197D01*
X14200Y-299294D01*
X13550Y-298592D01*
X12800Y-298090D01*
X11950Y-297789D01*
X11000Y-297689D01*
X31000D01*
X30050Y-297789D01*
D02*
G37*
%LPC*%
G36*
X-168500Y288250D02*
X-178750D01*
Y281000D01*
X-168500D01*
Y288250D01*
D02*
G37*
G36*
X-181750D02*
X-192000D01*
Y281000D01*
X-181750D01*
Y288250D01*
D02*
G37*
G36*
X-168500Y278000D02*
X-178750D01*
Y270750D01*
X-168500D01*
Y278000D01*
D02*
G37*
G36*
X-181750D02*
X-192000D01*
Y270750D01*
X-181750D01*
Y278000D01*
D02*
G37*
G36*
X-235135Y291250D02*
X-250161Y276224D01*
X-242029Y268092D01*
X-227003Y283118D01*
X-235135Y291250D01*
D02*
G37*
G36*
X-224882Y280997D02*
X-239908Y265971D01*
X-231776Y257839D01*
X-216750Y272865D01*
X-224882Y280997D01*
D02*
G37*
G36*
X-252283Y274102D02*
X-267309Y259076D01*
X-259177Y250945D01*
X-244151Y265971D01*
X-252283Y274102D01*
D02*
G37*
G36*
X-242029Y263849D02*
X-257055Y248823D01*
X-248924Y240692D01*
X-233898Y255718D01*
X-242029Y263849D01*
D02*
G37*
G36*
X-94000Y232000D02*
X-100250D01*
Y222250D01*
X-94000D01*
Y232000D01*
D02*
G37*
G36*
X-103250D02*
X-109500D01*
Y222250D01*
X-103250D01*
Y232000D01*
D02*
G37*
G36*
X-134250Y223385D02*
Y213000D01*
X-123865D01*
X-124033Y214274D01*
X-125296Y217324D01*
X-127306Y219944D01*
X-129926Y221954D01*
X-132976Y223217D01*
X-134250Y223385D01*
D02*
G37*
G36*
X-138250D02*
X-139524Y223217D01*
X-142574Y221954D01*
X-145194Y219944D01*
X-147204Y217324D01*
X-148467Y214274D01*
X-148635Y213000D01*
X-138250D01*
Y223385D01*
D02*
G37*
G36*
X-94000Y219250D02*
X-100250D01*
Y209500D01*
X-94000D01*
Y219250D01*
D02*
G37*
G36*
X-103250D02*
X-109500D01*
Y209500D01*
X-103250D01*
Y219250D01*
D02*
G37*
G36*
X-123865Y209000D02*
X-134250D01*
Y198615D01*
X-132976Y198783D01*
X-129926Y200046D01*
X-127306Y202056D01*
X-125296Y204676D01*
X-124033Y207726D01*
X-123865Y209000D01*
D02*
G37*
G36*
X-138250D02*
X-148635D01*
X-148467Y207726D01*
X-147204Y204676D01*
X-145194Y202056D01*
X-142574Y200046D01*
X-139524Y198783D01*
X-138250Y198615D01*
Y209000D01*
D02*
G37*
G36*
X281250Y198750D02*
X271500D01*
Y190500D01*
X281250D01*
Y198750D01*
D02*
G37*
G36*
X268500D02*
X258750D01*
Y190500D01*
X268500D01*
Y198750D01*
D02*
G37*
G36*
X310500Y197750D02*
Y189500D01*
X320250D01*
Y197750D01*
X310500D01*
D02*
G37*
G36*
X-89000Y191750D02*
X-95250D01*
Y187500D01*
X-89000D01*
Y191750D01*
D02*
G37*
G36*
X-98250D02*
X-104500D01*
Y187500D01*
X-98250D01*
Y191750D01*
D02*
G37*
G36*
X-336000Y201069D02*
X-338088Y200794D01*
X-340034Y199988D01*
X-341706Y198706D01*
X-342988Y197034D01*
X-343794Y195088D01*
X-344069Y193000D01*
X-343794Y190912D01*
X-342988Y188965D01*
X-341706Y187294D01*
X-340034Y186012D01*
X-338088Y185206D01*
X-336000Y184931D01*
X-333912Y185206D01*
X-331965Y186012D01*
X-330294Y187294D01*
X-329012Y188965D01*
X-328206Y190912D01*
X-327931Y193000D01*
X-328206Y195088D01*
X-329012Y197034D01*
X-330294Y198706D01*
X-331965Y199988D01*
X-333912Y200794D01*
X-336000Y201069D01*
D02*
G37*
G36*
X-89000Y184500D02*
X-95250D01*
Y180250D01*
X-89000D01*
Y184500D01*
D02*
G37*
G36*
X-98250D02*
X-104500D01*
Y180250D01*
X-98250D01*
Y184500D01*
D02*
G37*
G36*
X281250Y187500D02*
X271500D01*
Y179250D01*
X281250D01*
Y187500D01*
D02*
G37*
G36*
X268500D02*
X258750D01*
Y179250D01*
X268500D01*
Y187500D01*
D02*
G37*
G36*
X320250Y186500D02*
X310500D01*
Y178250D01*
X320250D01*
Y186500D01*
D02*
G37*
G36*
X351000Y190069D02*
X348912Y189794D01*
X346965Y188988D01*
X345294Y187706D01*
X344012Y186035D01*
X343206Y184088D01*
X342931Y182000D01*
X343206Y179912D01*
X344012Y177966D01*
X345294Y176294D01*
X346965Y175012D01*
X348912Y174206D01*
X351000Y173931D01*
X353088Y174206D01*
X355034Y175012D01*
X356706Y176294D01*
X357988Y177966D01*
X358794Y179912D01*
X359069Y182000D01*
X358794Y184088D01*
X357988Y186035D01*
X356706Y187706D01*
X355034Y188988D01*
X353088Y189794D01*
X351000Y190069D01*
D02*
G37*
G36*
X-69000Y184569D02*
X-74500D01*
X-76588Y184294D01*
X-78534Y183488D01*
X-78845Y183250D01*
X-80000D01*
Y182363D01*
X-80206Y182206D01*
X-85027Y177384D01*
X-106454D01*
X-108542Y177109D01*
X-110489Y176303D01*
X-112160Y175021D01*
X-113442Y173349D01*
X-114248Y171403D01*
X-114523Y169315D01*
X-114248Y167226D01*
X-113442Y165280D01*
X-112160Y163609D01*
X-110489Y162327D01*
X-108542Y161521D01*
X-106454Y161246D01*
X-81685D01*
X-79597Y161521D01*
X-77651Y162327D01*
X-75979Y163609D01*
X-75541Y164048D01*
X-73092Y166420D01*
X-70819Y168431D01*
X-69000D01*
X-66912Y168706D01*
X-64966Y169512D01*
X-64655Y169750D01*
X-62500D01*
Y171830D01*
X-62012Y172465D01*
X-61206Y174412D01*
X-60931Y176500D01*
X-61206Y178588D01*
X-62012Y180534D01*
X-62500Y181171D01*
Y183250D01*
X-64655D01*
X-64966Y183488D01*
X-66912Y184294D01*
X-69000Y184569D01*
D02*
G37*
G36*
X-190000Y213102D02*
X-195178Y212694D01*
X-200229Y211482D01*
X-205028Y209494D01*
X-209457Y206780D01*
X-213407Y203407D01*
X-216780Y199457D01*
X-219494Y195028D01*
X-221482Y190229D01*
X-222694Y185178D01*
X-223102Y180000D01*
X-222694Y174822D01*
X-221482Y169771D01*
X-219494Y164972D01*
X-216780Y160543D01*
X-213407Y156593D01*
X-209457Y153220D01*
X-205028Y150506D01*
X-200229Y148518D01*
X-195178Y147305D01*
X-190000Y146898D01*
X-184822Y147305D01*
X-179771Y148518D01*
X-174972Y150506D01*
X-170543Y153220D01*
X-166593Y156593D01*
X-163220Y160543D01*
X-160506Y164972D01*
X-158518Y169771D01*
X-157305Y174822D01*
X-156898Y180000D01*
X-157305Y185178D01*
X-158518Y190229D01*
X-160506Y195028D01*
X-163220Y199457D01*
X-166593Y203407D01*
X-170543Y206780D01*
X-174972Y209494D01*
X-179771Y211482D01*
X-184822Y212694D01*
X-190000Y213102D01*
D02*
G37*
G36*
X-274913Y154118D02*
X-282691Y146340D01*
X-274736Y138385D01*
X-266958Y146163D01*
X-274913Y154118D01*
D02*
G37*
G36*
X-140876Y166734D02*
X-151488Y148353D01*
X-151560Y148279D01*
X-151587Y148210D01*
X-151635Y148155D01*
X-151682Y148018D01*
X-153126Y145516D01*
X-152538Y145177D01*
X-154954Y140728D01*
X-154999Y140655D01*
X-156940Y137549D01*
X-157435Y136803D01*
X-158151Y135843D01*
X-158898Y134954D01*
X-159391Y134434D01*
X-160588Y135005D01*
X-160596Y135013D01*
X-160524Y135563D01*
X-160927Y138631D01*
X-162111Y141489D01*
X-163995Y143944D01*
X-166449Y145827D01*
X-169308Y147011D01*
X-172375Y147415D01*
X-175442Y147011D01*
X-178301Y145827D01*
X-180755Y143944D01*
X-182639Y141489D01*
X-213889Y87362D01*
X-215072Y84504D01*
X-215476Y81437D01*
X-215073Y78369D01*
X-213889Y75511D01*
X-212005Y73057D01*
X-209551Y71173D01*
X-206692Y69989D01*
X-203625Y69585D01*
X-200558Y69989D01*
X-197699Y71173D01*
X-195245Y73057D01*
X-194617Y73875D01*
X-193347D01*
X-192999Y73421D01*
X-191432Y72219D01*
X-183638Y67719D01*
X-181813Y66963D01*
X-180907Y66844D01*
X-180134Y65836D01*
X-180308Y64513D01*
X-179904Y61446D01*
X-178720Y58588D01*
X-176837Y56133D01*
X-174382Y54250D01*
X-171524Y53066D01*
X-168456Y52662D01*
X-165389Y53066D01*
X-162531Y54250D01*
X-160076Y56133D01*
X-158193Y58588D01*
X-129443Y108384D01*
X-128259Y111242D01*
X-127855Y114310D01*
X-128259Y117377D01*
X-129443Y120236D01*
X-131326Y122690D01*
X-133781Y124573D01*
X-136639Y125757D01*
X-139706Y126161D01*
X-142774Y125757D01*
X-143774Y125343D01*
X-144690Y126338D01*
X-143712Y128232D01*
X-143224Y129047D01*
X-141310Y132108D01*
X-138646Y136300D01*
X-138230Y136916D01*
X-137971Y136766D01*
X-136526Y139268D01*
X-136431Y139376D01*
X-136384Y139514D01*
X-125721Y157984D01*
X-140876Y166734D01*
D02*
G37*
G36*
X-284813Y144218D02*
X-292591Y136440D01*
X-284636Y128485D01*
X-276858Y136263D01*
X-284813Y144218D01*
D02*
G37*
G36*
X360000Y159594D02*
X356177Y159218D01*
X352502Y158103D01*
X349114Y156292D01*
X346145Y153855D01*
X343708Y150886D01*
X341897Y147498D01*
X340782Y143823D01*
X340406Y140000D01*
X340782Y136177D01*
X341897Y132502D01*
X343708Y129114D01*
X346145Y126145D01*
X349114Y123708D01*
X352502Y121897D01*
X356177Y120782D01*
X360000Y120406D01*
X363823Y120782D01*
X367498Y121897D01*
X370886Y123708D01*
X373855Y126145D01*
X376292Y129114D01*
X378103Y132502D01*
X379218Y136177D01*
X379594Y140000D01*
X379218Y143823D01*
X378103Y147498D01*
X376292Y150886D01*
X373855Y153855D01*
X370886Y156292D01*
X367498Y158103D01*
X363823Y159218D01*
X360000Y159594D01*
D02*
G37*
G36*
X-360000D02*
X-363823Y159218D01*
X-367498Y158103D01*
X-370886Y156292D01*
X-373855Y153855D01*
X-376292Y150886D01*
X-378103Y147498D01*
X-379218Y143823D01*
X-379594Y140000D01*
X-379218Y136177D01*
X-378103Y132502D01*
X-376292Y129114D01*
X-373855Y126145D01*
X-370886Y123708D01*
X-367498Y121897D01*
X-363823Y120782D01*
X-360000Y120406D01*
X-356177Y120782D01*
X-352502Y121897D01*
X-349114Y123708D01*
X-346145Y126145D01*
X-343708Y129114D01*
X-341897Y132502D01*
X-340782Y136177D01*
X-340406Y140000D01*
X-340782Y143823D01*
X-341897Y147498D01*
X-343708Y150886D01*
X-346145Y153855D01*
X-349114Y156292D01*
X-352502Y158103D01*
X-356177Y159218D01*
X-360000Y159594D01*
D02*
G37*
G36*
X-274736Y134142D02*
X-282515Y126364D01*
X-274560Y118409D01*
X-266782Y126187D01*
X-274736Y134142D01*
D02*
G37*
G36*
X-307440Y123005D02*
X-326532Y103913D01*
X-326081Y103462D01*
X-335272Y94272D01*
X-337355Y91556D01*
X-338665Y88394D01*
X-339112Y85000D01*
X-339112Y85000D01*
Y43000D01*
X-339112Y43000D01*
X-338665Y39606D01*
X-337355Y36444D01*
X-335272Y33728D01*
X-327442Y25898D01*
X-334177Y19163D01*
X-336461Y16186D01*
X-337897Y12720D01*
X-338387Y9000D01*
X-337897Y5280D01*
X-336461Y1813D01*
X-334177Y-1163D01*
X-310530Y-24810D01*
X-316117Y-30396D01*
X-319291Y-27222D01*
X-362778Y-70709D01*
X-341226Y-92261D01*
X-339860Y-93860D01*
X-338261Y-95226D01*
X-309038Y-124449D01*
X-265551Y-80962D01*
X-276396Y-70117D01*
X-270810Y-64530D01*
X-258163Y-77177D01*
X-255187Y-79461D01*
X-251720Y-80897D01*
X-248000Y-81387D01*
X-244280Y-80897D01*
X-240814Y-79461D01*
X-237837Y-77177D01*
X-221927Y-61267D01*
X-219643Y-58291D01*
X-218207Y-54824D01*
X-217717Y-51104D01*
X-218207Y-47384D01*
X-219643Y-43918D01*
X-221927Y-40941D01*
X-297941Y35073D01*
X-300918Y37357D01*
X-302447Y37991D01*
X-312888Y48431D01*
Y79569D01*
X-307538Y84919D01*
X-307087Y84468D01*
X-287995Y103560D01*
X-307440Y123005D01*
D02*
G37*
G36*
X-356000Y64112D02*
X-359394Y63665D01*
X-362556Y62355D01*
X-365272Y60272D01*
X-367355Y57556D01*
X-368665Y54394D01*
X-369112Y51000D01*
X-368665Y47606D01*
X-367355Y44444D01*
X-365272Y41728D01*
X-362556Y39644D01*
X-359394Y38335D01*
X-356000Y37888D01*
X-352606Y38335D01*
X-349444Y39644D01*
X-346728Y41728D01*
X-344645Y44444D01*
X-343335Y47606D01*
X-342888Y51000D01*
X-343335Y54394D01*
X-344645Y57556D01*
X-346728Y60272D01*
X-349444Y62355D01*
X-352606Y63665D01*
X-356000Y64112D01*
D02*
G37*
G36*
X-360000Y-120406D02*
X-363823Y-120782D01*
X-367498Y-121897D01*
X-370886Y-123708D01*
X-373855Y-126145D01*
X-376292Y-129114D01*
X-378103Y-132502D01*
X-379218Y-136177D01*
X-379594Y-140000D01*
X-379218Y-143823D01*
X-378103Y-147498D01*
X-376292Y-150886D01*
X-373855Y-153855D01*
X-370886Y-156292D01*
X-367498Y-158103D01*
X-363823Y-159218D01*
X-360000Y-159594D01*
X-356177Y-159218D01*
X-352502Y-158103D01*
X-349114Y-156292D01*
X-346145Y-153855D01*
X-343708Y-150886D01*
X-341897Y-147498D01*
X-340782Y-143823D01*
X-340406Y-140000D01*
X-340782Y-136177D01*
X-341897Y-132502D01*
X-343708Y-129114D01*
X-346145Y-126145D01*
X-349114Y-123708D01*
X-352502Y-121897D01*
X-356177Y-120782D01*
X-360000Y-120406D01*
D02*
G37*
G36*
X-115500Y-142431D02*
X-117588Y-142706D01*
X-119535Y-143512D01*
X-121206Y-144794D01*
X-122488Y-146466D01*
X-123294Y-148412D01*
X-123471Y-149759D01*
X-123892Y-150240D01*
X-133534Y-159882D01*
X-139522D01*
X-139879Y-159846D01*
X-140965Y-159012D01*
X-142912Y-158206D01*
X-145000Y-157931D01*
X-147088Y-158206D01*
X-149035Y-159012D01*
X-150706Y-160294D01*
X-151988Y-161966D01*
X-152794Y-163912D01*
X-153069Y-166000D01*
X-152794Y-168088D01*
X-151988Y-170035D01*
X-150706Y-171706D01*
X-149035Y-172988D01*
X-147088Y-173794D01*
X-145000Y-174069D01*
X-142912Y-173794D01*
X-140965Y-172988D01*
X-139888Y-172161D01*
X-139250Y-172118D01*
X-131000D01*
X-128659Y-171652D01*
X-126674Y-170326D01*
X-115048Y-158699D01*
X-114770Y-158473D01*
X-113412Y-158294D01*
X-111466Y-157488D01*
X-109794Y-156206D01*
X-108512Y-154535D01*
X-107706Y-152588D01*
X-107431Y-150500D01*
X-107706Y-148412D01*
X-108512Y-146466D01*
X-109794Y-144794D01*
X-111466Y-143512D01*
X-113412Y-142706D01*
X-115500Y-142431D01*
D02*
G37*
G36*
X85250Y-164000D02*
X81000D01*
Y-170250D01*
X85250D01*
Y-164000D01*
D02*
G37*
G36*
X78000D02*
X73750D01*
Y-170250D01*
X78000D01*
Y-164000D01*
D02*
G37*
G36*
X85250Y-173250D02*
X81000D01*
Y-179500D01*
X85250D01*
Y-173250D01*
D02*
G37*
G36*
X78000D02*
X73750D01*
Y-179500D01*
X78000D01*
Y-173250D01*
D02*
G37*
G36*
X-108000Y-173931D02*
X-110088Y-174206D01*
X-112035Y-175012D01*
X-113706Y-176294D01*
X-114988Y-177966D01*
X-115794Y-179912D01*
X-116069Y-182000D01*
X-115794Y-184088D01*
X-114988Y-186035D01*
X-113706Y-187706D01*
X-112035Y-188988D01*
X-110088Y-189794D01*
X-108000Y-190069D01*
X-105912Y-189794D01*
X-103966Y-188988D01*
X-102294Y-187706D01*
X-101012Y-186035D01*
X-100206Y-184088D01*
X-99931Y-182000D01*
X-100206Y-179912D01*
X-101012Y-177966D01*
X-102294Y-176294D01*
X-103966Y-175012D01*
X-105912Y-174206D01*
X-108000Y-173931D01*
D02*
G37*
G36*
X127250Y-217750D02*
X117500D01*
Y-224000D01*
X127250D01*
Y-217750D01*
D02*
G37*
G36*
X114500D02*
X104750D01*
Y-224000D01*
X114500D01*
Y-217750D01*
D02*
G37*
G36*
X127250Y-227000D02*
X117500D01*
Y-233250D01*
X127250D01*
Y-227000D01*
D02*
G37*
G36*
X114500D02*
X104750D01*
Y-233250D01*
X114500D01*
Y-227000D01*
D02*
G37*
G36*
X-50250Y-229250D02*
X-60500D01*
Y-236500D01*
X-50250D01*
Y-229250D01*
D02*
G37*
G36*
X-63500D02*
X-73750D01*
Y-236500D01*
X-63500D01*
Y-229250D01*
D02*
G37*
G36*
X-297773Y-216227D02*
X-305905Y-224359D01*
X-290879Y-239385D01*
X-282747Y-231253D01*
X-297773Y-216227D01*
D02*
G37*
G36*
X-50250Y-239500D02*
X-60500D01*
Y-246750D01*
X-50250D01*
Y-239500D01*
D02*
G37*
G36*
X-63500D02*
X-73750D01*
Y-246750D01*
X-63500D01*
Y-239500D01*
D02*
G37*
G36*
X-308026Y-226480D02*
X-316158Y-234612D01*
X-301132Y-249638D01*
X-293000Y-241506D01*
X-308026Y-226480D01*
D02*
G37*
G36*
X-280626Y-233374D02*
X-288757Y-241506D01*
X-273731Y-256532D01*
X-265600Y-248400D01*
X-280626Y-233374D01*
D02*
G37*
G36*
X-83500Y-262902D02*
X-87500D01*
Y-266500D01*
X-78700D01*
X-78790Y-266049D01*
X-79895Y-264395D01*
X-81549Y-263290D01*
X-83500Y-262902D01*
D02*
G37*
G36*
X-90500D02*
X-94500D01*
X-96451Y-263290D01*
X-98105Y-264395D01*
X-99210Y-266049D01*
X-99300Y-266500D01*
X-90500D01*
Y-262902D01*
D02*
G37*
G36*
X-290879Y-243627D02*
X-299011Y-251759D01*
X-283984Y-266785D01*
X-275853Y-258653D01*
X-290879Y-243627D01*
D02*
G37*
G36*
X181500Y-238065D02*
Y-268500D01*
X197082D01*
Y-262003D01*
X222329D01*
Y-248003D01*
X195536D01*
X194203Y-245510D01*
X192079Y-242921D01*
X189490Y-240797D01*
X186537Y-239218D01*
X183333Y-238246D01*
X181500Y-238065D01*
D02*
G37*
G36*
X178500D02*
X176667Y-238246D01*
X173463Y-239218D01*
X170510Y-240797D01*
X167921Y-242921D01*
X165797Y-245510D01*
X164218Y-248463D01*
X163246Y-251667D01*
X162918Y-255000D01*
Y-268500D01*
X178500D01*
Y-238065D01*
D02*
G37*
G36*
X270565Y-257525D02*
X266145Y-261945D01*
X273040Y-268839D01*
X277459Y-264419D01*
X270565Y-257525D01*
D02*
G37*
G36*
X-105500Y-252350D02*
X-116000D01*
Y-272850D01*
X-105500D01*
Y-261350D01*
X-111500D01*
Y-257350D01*
X-105500D01*
Y-252350D01*
D02*
G37*
G36*
X-119000D02*
X-129500D01*
Y-257350D01*
X-123500D01*
Y-261350D01*
X-129500D01*
Y-272850D01*
X-119000D01*
Y-252350D01*
D02*
G37*
G36*
X-78700Y-269500D02*
X-87500D01*
Y-273098D01*
X-83500D01*
X-81549Y-272710D01*
X-79895Y-271605D01*
X-78790Y-269951D01*
X-78700Y-269500D01*
D02*
G37*
G36*
X-90500D02*
X-99300D01*
X-99210Y-269951D01*
X-98105Y-271605D01*
X-96451Y-272710D01*
X-94500Y-273098D01*
X-90500D01*
Y-269500D01*
D02*
G37*
G36*
X264024Y-264066D02*
X259605Y-268485D01*
X266499Y-275380D01*
X270919Y-270960D01*
X264024Y-264066D01*
D02*
G37*
G36*
X279581Y-266541D02*
X275161Y-270960D01*
X282055Y-277854D01*
X286475Y-273435D01*
X279581Y-266541D01*
D02*
G37*
G36*
X115329Y-235339D02*
X88000D01*
Y-262668D01*
X111913D01*
Y-278417D01*
X111748Y-278585D01*
X110673Y-279142D01*
X110355Y-279012D01*
X109926Y-278750D01*
X109715Y-278554D01*
X109627Y-278421D01*
X109574Y-278272D01*
X109511Y-277680D01*
X109500Y-277643D01*
Y-274250D01*
X82500D01*
Y-301750D01*
X109500D01*
Y-298357D01*
X109511Y-298320D01*
X109574Y-297728D01*
X109627Y-297579D01*
X109715Y-297446D01*
X109926Y-297250D01*
X110355Y-296988D01*
X111050Y-296704D01*
X112020Y-296443D01*
X112679Y-296333D01*
X113863Y-296473D01*
X115507Y-296780D01*
X116635Y-297088D01*
X117211Y-297789D01*
X119951Y-300039D01*
X123078Y-301710D01*
X126471Y-302740D01*
X130000Y-303087D01*
X133529Y-302740D01*
X136922Y-301710D01*
X140049Y-300039D01*
X142789Y-297789D01*
X145039Y-295049D01*
X146710Y-291922D01*
X147739Y-288529D01*
X148087Y-285000D01*
Y-255000D01*
X147739Y-251471D01*
X146710Y-248078D01*
X145039Y-244951D01*
X142789Y-242211D01*
X140049Y-239961D01*
X136922Y-238290D01*
X133529Y-237260D01*
X130000Y-236913D01*
X126471Y-237260D01*
X123078Y-238290D01*
X119951Y-239961D01*
X117211Y-242211D01*
X116525Y-243046D01*
X115329Y-242618D01*
Y-235339D01*
D02*
G37*
G36*
X273040Y-273081D02*
X268620Y-277501D01*
X275515Y-284395D01*
X279934Y-279976D01*
X273040Y-273081D01*
D02*
G37*
G36*
X-83500Y-288302D02*
X-87500D01*
Y-291900D01*
X-78700D01*
X-78790Y-291449D01*
X-79895Y-289795D01*
X-81549Y-288690D01*
X-83500Y-288302D01*
D02*
G37*
G36*
X-90500D02*
X-94500D01*
X-96451Y-288690D01*
X-98105Y-289795D01*
X-99210Y-291449D01*
X-99299Y-291900D01*
X-90500D01*
Y-288302D01*
D02*
G37*
G36*
X-111500Y-275850D02*
X-116000D01*
Y-296350D01*
X-105500D01*
Y-291350D01*
X-111500D01*
Y-287350D01*
X-105500D01*
Y-277350D01*
X-111500D01*
Y-275850D01*
D02*
G37*
G36*
X-119000D02*
X-123500D01*
Y-277350D01*
X-129500D01*
Y-287350D01*
X-123500D01*
Y-291350D01*
X-129500D01*
Y-296350D01*
X-119000D01*
Y-275850D01*
D02*
G37*
G36*
X-78700Y-294900D02*
X-87500D01*
Y-298498D01*
X-83500D01*
X-81549Y-298110D01*
X-79895Y-297005D01*
X-78790Y-295351D01*
X-78700Y-294900D01*
D02*
G37*
G36*
X-90500D02*
X-99299D01*
X-99210Y-295351D01*
X-98105Y-297005D01*
X-96451Y-298110D01*
X-94500Y-298498D01*
X-90500D01*
Y-294900D01*
D02*
G37*
G36*
X197082Y-271500D02*
X181500D01*
Y-301935D01*
X183333Y-301754D01*
X186537Y-300782D01*
X189490Y-299203D01*
X192079Y-297079D01*
X194203Y-294490D01*
X195782Y-291537D01*
X196754Y-288333D01*
X197082Y-285000D01*
Y-271500D01*
D02*
G37*
G36*
X178500D02*
X162918D01*
Y-285000D01*
X163246Y-288333D01*
X164218Y-291537D01*
X165797Y-294490D01*
X167921Y-297079D01*
X170510Y-299203D01*
X173463Y-300782D01*
X176667Y-301754D01*
X178500Y-301935D01*
Y-271500D01*
D02*
G37*
%LPD*%
G36*
X-76969Y180220D02*
X-68788Y172811D01*
X-69102Y172940D01*
X-69554Y172884D01*
X-70144Y172643D01*
X-70873Y172217D01*
X-71740Y171607D01*
X-72745Y170811D01*
X-75171Y168665D01*
X-78150Y165779D01*
X-85221Y172850D01*
X-83653Y174409D01*
X-77052Y180305D01*
X-76969Y180220D01*
D02*
G37*
G36*
X-139080Y140906D02*
X-139182Y140849D01*
X-139385Y140620D01*
X-139688Y140219D01*
X-141204Y137978D01*
X-144638Y132575D01*
X-153303Y137578D01*
X-152306Y139195D01*
X-149205Y144905D01*
X-148962Y145573D01*
X-148844Y146082D01*
X-148853Y146433D01*
X-148986Y146625D01*
X-139080Y140906D01*
D02*
G37*
G36*
X-145552Y131112D02*
X-146385Y129721D01*
X-147749Y127080D01*
X-148280Y125829D01*
X-148710Y124624D01*
X-149039Y123467D01*
X-149268Y122356D01*
X-149395Y121292D01*
X-149422Y120274D01*
X-149347Y119303D01*
X-163904Y127707D01*
X-162730Y128238D01*
X-161600Y128840D01*
X-160515Y129513D01*
X-159474Y130257D01*
X-158477Y131072D01*
X-157525Y131958D01*
X-156616Y132915D01*
X-155752Y133943D01*
X-154932Y135042D01*
X-154156Y136213D01*
X-145552Y131112D01*
D02*
G37*
G36*
X-158745Y119629D02*
X-158723Y119423D01*
X-158687Y119222D01*
X-158636Y119026D01*
X-158571Y118835D01*
X-158491Y118650D01*
X-158397Y118470D01*
X-158288Y118295D01*
X-158165Y118125D01*
X-158027Y117961D01*
X-165477D01*
X-165340Y118125D01*
X-165216Y118295D01*
X-165108Y118470D01*
X-165013Y118650D01*
X-164934Y118835D01*
X-164868Y119026D01*
X-164818Y119222D01*
X-164781Y119423D01*
X-164760Y119629D01*
X-164752Y119840D01*
X-158752D01*
X-158745Y119629D01*
D02*
G37*
G36*
X-115550Y-155500D02*
X-115704Y-155519D01*
X-115885Y-155580D01*
X-116094Y-155683D01*
X-116331Y-155828D01*
X-116595Y-156014D01*
X-117205Y-156512D01*
X-117927Y-157176D01*
X-118329Y-157571D01*
X-122571Y-153328D01*
X-122176Y-152927D01*
X-121014Y-151595D01*
X-120828Y-151331D01*
X-120683Y-151094D01*
X-120580Y-150885D01*
X-120519Y-150704D01*
X-120500Y-150550D01*
X-115550Y-155500D01*
D02*
G37*
G36*
X-141307Y-162595D02*
X-141135Y-162680D01*
X-140915Y-162755D01*
X-140645Y-162820D01*
X-140327Y-162875D01*
X-139543Y-162955D01*
X-138563Y-162995D01*
X-138000Y-163000D01*
Y-169000D01*
X-138563Y-169005D01*
X-140327Y-169125D01*
X-140645Y-169180D01*
X-140915Y-169245D01*
X-141135Y-169320D01*
X-141307Y-169405D01*
X-141429Y-169500D01*
Y-162500D01*
X-141307Y-162595D01*
D02*
G37*
G36*
X122580Y-297974D02*
X122089Y-297029D01*
X121368Y-296183D01*
X120418Y-295437D01*
X119238Y-294791D01*
X117830Y-294244D01*
X116192Y-293796D01*
X114324Y-293448D01*
X112606Y-293244D01*
X111369Y-293450D01*
X110070Y-293800D01*
X108969Y-294250D01*
X108069Y-294800D01*
X107369Y-295450D01*
X106869Y-296200D01*
X106569Y-297050D01*
X106469Y-298000D01*
Y-289290D01*
X104984Y-283000D01*
X106469Y-282967D01*
Y-278000D01*
X106569Y-278950D01*
X106869Y-279800D01*
X107369Y-280550D01*
X108069Y-281200D01*
X108969Y-281750D01*
X110070Y-282200D01*
X111143Y-282489D01*
X112313Y-282200D01*
X113454Y-281750D01*
X114319Y-281200D01*
X114907Y-280550D01*
X115219Y-279800D01*
X115255Y-278950D01*
X115015Y-278000D01*
X122580Y-297974D01*
D02*
G37*
%LPC*%
G36*
X3250Y282500D02*
X-5000D01*
Y272750D01*
X3250D01*
Y282500D01*
D02*
G37*
G36*
X-8000D02*
X-16250D01*
Y272750D01*
X-8000D01*
Y282500D01*
D02*
G37*
G36*
X346000Y-60252D02*
X342000D01*
Y-63850D01*
X350800D01*
X350710Y-63399D01*
X349605Y-61745D01*
X347951Y-60640D01*
X346000Y-60252D01*
D02*
G37*
G36*
X339000D02*
X335000D01*
X333049Y-60640D01*
X331395Y-61745D01*
X330290Y-63399D01*
X330200Y-63850D01*
X339000D01*
Y-60252D01*
D02*
G37*
G36*
X350800Y-66850D02*
X342000D01*
Y-70448D01*
X346000D01*
X347951Y-70060D01*
X349605Y-68955D01*
X350710Y-67301D01*
X350800Y-66850D01*
D02*
G37*
G36*
X339000D02*
X330200D01*
X330290Y-67301D01*
X331395Y-68955D01*
X333049Y-70060D01*
X335000Y-70448D01*
X339000D01*
Y-66850D01*
D02*
G37*
G36*
X0Y78123D02*
X-8747Y77632D01*
X-17384Y76164D01*
X-25802Y73739D01*
X-33896Y70386D01*
X-41564Y66149D01*
X-48709Y61079D01*
X-55241Y55241D01*
X-61079Y48709D01*
X-66149Y41564D01*
X-70386Y33896D01*
X-73739Y25802D01*
X-76164Y17384D01*
X-77632Y8747D01*
X-78123Y0D01*
X-77632Y-8747D01*
X-76164Y-17384D01*
X-73739Y-25802D01*
X-70386Y-33896D01*
X-66149Y-41564D01*
X-61079Y-48709D01*
X-55241Y-55241D01*
X-48709Y-61079D01*
X-41564Y-66149D01*
X-33896Y-70386D01*
X-25802Y-73739D01*
X-17384Y-76164D01*
X-8747Y-77632D01*
X0Y-78123D01*
X8747Y-77632D01*
X17384Y-76164D01*
X25802Y-73739D01*
X33896Y-70386D01*
X41564Y-66149D01*
X48709Y-61079D01*
X55241Y-55241D01*
X61079Y-48709D01*
X66149Y-41564D01*
X70386Y-33896D01*
X73739Y-25802D01*
X76164Y-17384D01*
X77632Y-8747D01*
X78123Y0D01*
X77632Y8747D01*
X76164Y17384D01*
X73739Y25802D01*
X70386Y33896D01*
X66149Y41564D01*
X61079Y48709D01*
X55241Y55241D01*
X48709Y61079D01*
X41564Y66149D01*
X33896Y70386D01*
X25802Y73739D01*
X17384Y76164D01*
X8747Y77632D01*
X0Y78123D01*
D02*
G37*
G36*
X289000Y-4250D02*
X281750D01*
Y-14500D01*
X289000D01*
Y-4250D01*
D02*
G37*
G36*
Y-17500D02*
X281750D01*
Y-27750D01*
X289000D01*
Y-17500D01*
D02*
G37*
G36*
X214750Y1500D02*
X210500D01*
Y-4750D01*
X214750D01*
Y1500D01*
D02*
G37*
G36*
X207500D02*
X203250D01*
Y-4750D01*
X207500D01*
Y1500D01*
D02*
G37*
G36*
X214750Y-7750D02*
X210500D01*
Y-14000D01*
X214750D01*
Y-7750D01*
D02*
G37*
G36*
X207500D02*
X203250D01*
Y-14000D01*
X207500D01*
Y-7750D01*
D02*
G37*
G36*
X233500Y-72750D02*
X223750D01*
Y-79000D01*
X233500D01*
Y-72750D01*
D02*
G37*
G36*
X284500Y-93250D02*
X277250D01*
Y-103500D01*
X284500D01*
Y-93250D01*
D02*
G37*
G36*
X-23500Y-274250D02*
Y-285500D01*
X-12500D01*
Y-274250D01*
X-23500D01*
D02*
G37*
G36*
X-12500Y-288500D02*
X-23500D01*
Y-299750D01*
X-12500D01*
Y-288500D01*
D02*
G37*
%LPD*%
D13*
X264000Y-116000D02*
X271000Y-123000D01*
X290000Y10000D02*
X298000Y18000D01*
X284000Y10000D02*
X290000D01*
X301000Y-116000D02*
Y-59000D01*
X294000Y-123000D02*
X301000Y-116000D01*
X294650Y-52650D02*
X301000Y-59000D01*
X271000Y-123000D02*
X294000D01*
X283500Y-52650D02*
X294650D01*
D14*
X95000Y-249003D02*
X108329D01*
X101664Y-242339D02*
Y-255668D01*
X202000Y-255003D02*
X215329D01*
D16*
X246000Y155000D02*
D03*
X277000D02*
D03*
X-116000Y-225000D02*
D03*
X-147000D02*
D03*
X-70750Y220750D02*
D03*
X-101750D02*
D03*
X-93500Y271000D02*
D03*
X-62500D02*
D03*
X267000Y258000D02*
D03*
X236000D02*
D03*
D18*
X-96750Y186000D02*
D03*
X-71250Y176500D02*
D03*
Y195500D02*
D03*
D19*
X116000Y-194500D02*
D03*
Y-225500D02*
D03*
X295500Y-167750D02*
D03*
Y-136750D02*
D03*
X-174000Y-258500D02*
D03*
Y-289500D02*
D03*
X55000Y170500D02*
D03*
Y201500D02*
D03*
X-60000Y-197500D02*
D03*
Y-166500D02*
D03*
X275000Y10500D02*
D03*
X275000Y41500D02*
D03*
X235000Y-49500D02*
D03*
Y-80500D02*
D03*
X211000Y306500D02*
D03*
Y275500D02*
D03*
D20*
X290500Y-16000D02*
D03*
X320500Y-16000D02*
D03*
X316000Y-105000D02*
D03*
X286000D02*
D03*
D24*
X209000Y-6250D02*
D03*
X199500Y-31750D02*
D03*
X218500D02*
D03*
X240000Y38750D02*
D03*
X230500Y13250D02*
D03*
X249500Y13250D02*
D03*
X256000Y-137750D02*
D03*
X246500Y-163250D02*
D03*
X265500Y-163250D02*
D03*
X79500Y-171750D02*
D03*
X70000Y-197250D02*
D03*
X89000Y-197250D02*
D03*
D25*
X-40000Y271250D02*
D03*
X-6500D02*
D03*
D47*
X-35165Y-85401D02*
G03*
X55093Y74126I35165J85401D01*
G01*
X18001Y-135250D02*
G03*
X108150Y-83188I-18001J135250D01*
G01*
X126534Y-52239D02*
G03*
X126669Y51912I-126534J52239D01*
G01*
X-126419Y52411D02*
G03*
X-126507Y-52199I126419J-52411D01*
G01*
X-19627Y135435D02*
G03*
X-108380Y83557I19627J-135435D01*
G01*
X-165000Y180000D02*
G03*
X-165000Y180000I-25000J0D01*
G01*
X215000D02*
G03*
X215000Y180000I-25000J0D01*
G01*
Y-180000D02*
G03*
X215000Y-180000I-25000J0D01*
G01*
X-165000D02*
G03*
X-165000Y-180000I-25000J0D01*
G01*
X-158306Y-25379D02*
G03*
X-60236Y-148582I158306J25379D01*
G01*
X-60236Y-148582D02*
G03*
X83804Y-136681I60236J148582D01*
G01*
X155627Y37150D02*
G03*
X-80012Y138557I-155627J-37150D01*
G01*
X-261500Y-160500D02*
X-254000Y-170000D01*
X23000Y-287000D02*
X53000D01*
X22000Y-286000D02*
X23000Y-287000D01*
X21000Y-285000D02*
X22000Y-286000D01*
X-286500Y-135500D02*
X-261500Y-160500D01*
X-254000Y-197000D02*
Y-170000D01*
Y-197000D02*
X-195250Y-255750D01*
X-180250D01*
X-187000Y-280000D02*
X-177500Y-289500D01*
X-214000Y-280000D02*
X-187000D01*
X-216929Y-282929D02*
X-214000Y-280000D01*
X11000Y-318000D02*
X21000Y-308000D01*
X-194000Y-318000D02*
X11000D01*
X-216832Y-295168D02*
X-194000Y-318000D01*
X96000Y-288000D02*
X117914D01*
X20375Y199375D02*
X52875D01*
X-216832Y-295168D02*
Y-289168D01*
X21000Y-308000D02*
Y-287000D01*
X23244Y-288047D02*
X24179Y-290616D01*
X23000Y-287000D02*
X23500Y-287500D01*
X22000Y-287000D02*
X23000D01*
X23244Y-288047D02*
X23500Y-287500D01*
X117914Y-288000D02*
X130000Y-275914D01*
Y-270000D01*
X-182271Y-42080D02*
X-182250Y-42000D01*
X198569Y-50754D02*
Y-33681D01*
X250500Y38750D02*
X253250Y41500D01*
X240000Y38750D02*
X250500D01*
X253250Y41500D02*
X275000D01*
X71000Y103000D02*
X91000D01*
X55000Y87000D02*
X71000Y103000D01*
X55000Y75000D02*
Y87000D01*
X46500Y135500D02*
X53000Y129000D01*
X18000Y135500D02*
X46500D01*
X-49118Y-85000D02*
X-36000D01*
X-73118Y-109000D02*
X-49118Y-85000D01*
X-88000Y-109000D02*
X-73118D01*
X91000Y103000D02*
X108669Y85331D01*
X56000Y150000D02*
Y169000D01*
X-108169Y-88831D02*
X-88000Y-109000D01*
X-60000Y-166500D02*
Y-148818D01*
X-111577Y139250D02*
X-110884Y138557D01*
X-161752Y114625D02*
X-139749Y149830D01*
X110145Y-136681D02*
X111577Y-135250D01*
X156252Y33183D02*
X163547Y27874D01*
X-59750Y-197250D02*
X-18000D01*
X154321Y-26416D02*
X198569Y-50754D01*
X32000Y85000D02*
X53000Y106000D01*
Y129000D01*
X-106454Y169315D02*
X-81685D01*
X-74500Y176500D01*
X174577Y29250D02*
X183909Y13250D01*
X228250D01*
X111577Y-166827D02*
Y-135250D01*
X275000Y41500D02*
X321484D01*
X334484Y54500D01*
X378250D01*
X111577Y-166827D02*
X123500Y-178750D01*
X142500D01*
X148250Y-184500D01*
X228500Y-221500D02*
X237250D01*
X246500Y-212250D01*
Y-163250D01*
X-74500Y176500D02*
X-71250D01*
X-69000D01*
X-194282Y-58413D02*
X-179921Y-83287D01*
X-194282Y-58413D02*
X-182859Y-42878D01*
X-182271Y-42080D01*
X83805Y-136681D02*
X110145D01*
X155627Y37150D02*
X156252Y33183D01*
X-110884Y138557D02*
X-80012D01*
X155627Y37150D02*
Y37150D01*
X163547Y27874D02*
X174521Y29603D01*
X179671Y83287D02*
X200436Y44225D01*
X18000Y-197250D02*
X68500D01*
X137938Y-152336D02*
X138787Y-150977D01*
X161921Y-113963D01*
X145000Y144000D02*
X161679Y114468D01*
X179000Y-85000D02*
X180180Y-82935D01*
X198569Y-50754D01*
X161679Y114468D02*
X162171Y113597D01*
D48*
X-108000Y-182000D02*
D03*
X-336000Y193000D02*
D03*
X351000Y182000D02*
D03*
X291000Y153000D02*
D03*
X269000Y-95000D02*
D03*
X130000Y-135000D02*
D03*
X81000Y-156000D02*
D03*
X82000Y-231000D02*
D03*
X133000Y-211000D02*
D03*
X380000Y-112000D02*
D03*
X360000Y-67000D02*
D03*
X212000Y114000D02*
D03*
X272000Y135000D02*
D03*
X279000Y206000D02*
D03*
X336000Y172000D02*
D03*
X302000Y133000D02*
D03*
X-176000Y-25000D02*
D03*
X71000Y-98000D02*
D03*
X116000Y1000D02*
D03*
X75000Y122000D02*
D03*
X-233000Y233000D02*
D03*
X-350000Y-218000D02*
D03*
X-293000Y-271000D02*
D03*
X-270000Y-299000D02*
D03*
X-254000Y-241000D02*
D03*
X-299000Y-181000D02*
D03*
X-239000Y-176000D02*
D03*
X-217000Y-147000D02*
D03*
X-142000Y-136000D02*
D03*
X-67000Y-215000D02*
D03*
X-98000Y-198000D02*
D03*
X-134000D02*
D03*
X-183000Y-240000D02*
D03*
X-174000Y-274000D02*
D03*
Y-305000D02*
D03*
X-63000Y-289000D02*
D03*
X47000Y-231000D02*
D03*
X-26000Y-267000D02*
D03*
X-10000Y-305000D02*
D03*
X-29000D02*
D03*
X47000Y-317000D02*
D03*
X155000Y-303000D02*
D03*
X208000Y-300000D02*
D03*
X239000Y-264000D02*
D03*
X337000Y-233000D02*
D03*
X370000Y-179000D02*
D03*
X300000Y-153000D02*
D03*
X276000Y-208000D02*
D03*
X159000Y-150000D02*
D03*
X222000Y-128000D02*
D03*
X196000Y-135000D02*
D03*
X258000Y-40000D02*
D03*
X213000Y-62000D02*
D03*
X360000Y-43000D02*
D03*
X358000Y12000D02*
D03*
X265000Y-8000D02*
D03*
X235000Y-2000D02*
D03*
X243000Y71000D02*
D03*
X151000Y181000D02*
D03*
X95000Y161000D02*
D03*
X323000Y215000D02*
D03*
X189000Y321000D02*
D03*
X233000Y283000D02*
D03*
X-72000Y291000D02*
D03*
X-10000Y321000D02*
D03*
X120000Y265000D02*
D03*
X122000Y318000D02*
D03*
X31000Y273000D02*
D03*
X-126000Y310000D02*
D03*
X-197000Y307000D02*
D03*
X-175000Y229000D02*
D03*
X-47000Y198000D02*
D03*
X-129000Y180000D02*
D03*
X-217000Y127000D02*
D03*
X-103000Y118000D02*
D03*
X-55000Y99000D02*
D03*
X-157000Y36000D02*
D03*
X-219000Y-29000D02*
D03*
X-231000Y-95000D02*
D03*
X-299000Y-157000D02*
D03*
X-362000Y-189000D02*
D03*
X-376000Y-100000D02*
D03*
X-364000Y-53000D02*
D03*
X-286000Y114000D02*
D03*
X-329000Y166000D02*
D03*
X-309000Y197000D02*
D03*
X356000Y-10000D02*
D03*
X342000Y-25000D02*
D03*
X-145000Y-166000D02*
D03*
X-115500Y-150500D02*
D03*
X118000Y229000D02*
D03*
X325000Y66000D02*
D03*
X298000Y18000D02*
D03*
X-74000Y-109500D02*
D03*
X-163562Y-115098D02*
D03*
X-106454Y169315D02*
D03*
X-136250Y-30750D02*
D03*
X-180850Y85401D02*
D03*
D49*
X-250070Y-108930D02*
X-239040Y-119960D01*
Y-138040D02*
Y-119960D01*
X-302070Y-8570D02*
X-286570Y-24070D01*
X-316250Y5610D02*
X-302070Y-8570D01*
X-278052Y-32052D02*
Y-21052D01*
X266750Y257000D02*
Y276250D01*
X307500Y153000D02*
X309000Y154500D01*
X291000Y153000D02*
X307500D01*
X291000D02*
Y248000D01*
X277000Y155000D02*
X279000Y153000D01*
X291000D01*
X285000Y254000D02*
X291000Y248000D01*
X-93500Y271000D02*
Y290500D01*
X229000Y256000D02*
X246500Y238500D01*
X271770Y222700D02*
Y229230D01*
X262500Y238500D02*
X271770Y229230D01*
X246500Y238500D02*
X262500D01*
X-285000Y223000D02*
X-281981Y219981D01*
X210254Y215746D02*
X231080Y194920D01*
Y108420D02*
Y194920D01*
Y108420D02*
X257500Y82000D01*
X314750Y-105500D02*
Y-84300D01*
X209000Y139000D02*
X222540Y125460D01*
Y36460D02*
Y125460D01*
Y36460D02*
X234000Y25000D01*
X21000Y-286000D02*
X22000Y-287000D01*
X-238256Y-282929D02*
X-216929D01*
X-285000Y223000D02*
X-281981Y226019D01*
X253540Y-150290D02*
X269750Y-166500D01*
X264290Y-84787D02*
Y-83960D01*
X248537Y-100540D02*
X264290Y-84787D01*
X247710Y-100540D02*
X248537D01*
X246960Y-101290D02*
X247710Y-100540D01*
X246960Y-102040D02*
Y-101290D01*
X91250Y-195000D02*
X141685D01*
X255750Y-81250D02*
Y-73500D01*
X245000Y-92000D02*
X255750Y-81250D01*
X234500Y-92000D02*
X245000D01*
X217750Y-31250D02*
X230250D01*
X251650Y-52650D02*
X283500D01*
X248500Y-49500D02*
X251650Y-52650D01*
X235000Y-49500D02*
X248500D01*
X324250Y-10000D02*
X356000D01*
X320500Y-13750D02*
X324250Y-10000D01*
X320500Y-16000D02*
Y-13750D01*
X340500Y-39950D02*
X342950D01*
X342000Y-39000D02*
X342950Y-39950D01*
X342000Y-39000D02*
Y-25000D01*
X269750Y254000D02*
X285000D01*
X266750Y257000D02*
X269750Y254000D01*
X-96000Y273500D02*
X-93500Y271000D01*
X-137000Y273500D02*
X-96000D01*
X308500Y82000D02*
X324500Y66000D01*
X257500Y82000D02*
X308500D01*
X-248000Y69104D02*
X-217948Y39052D01*
X-278052Y-21052D02*
Y-4948D01*
X-227000Y-199000D02*
Y-151809D01*
X-239040Y-139769D02*
X-227000Y-151809D01*
X-239040Y-139769D02*
Y-138040D01*
X-227000Y-199000D02*
X-201000Y-225000D01*
X-147000D01*
X-118839Y-232000D02*
X-112946D01*
X-141300Y-255300D02*
Y-243515D01*
X-112946Y-232000D02*
X-104946Y-240000D01*
X-126839D02*
X-118839Y-232000D01*
X-104946Y-240000D02*
X-94000D01*
X-137785D02*
X-126839D01*
X-141300Y-243515D02*
X-137785Y-240000D01*
X-94000D02*
X-89000Y-245000D01*
Y-255300D02*
Y-245000D01*
X-146000Y-255300D02*
X-141300D01*
X-170500Y-260500D02*
Y-258500D01*
X-180250Y-255750D02*
X-177500Y-258500D01*
X-174000D01*
X-76950Y-280700D02*
X-64250Y-268000D01*
X-89000Y-280700D02*
X-76950D01*
X-64250Y-268000D02*
X-62000D01*
X-146000Y-298000D02*
Y-293400D01*
Y-298000D02*
X-137000Y-307000D01*
X-56000D01*
X-44000Y-295000D01*
Y-270000D01*
X-30000Y-256000D01*
X53000D01*
X74000Y-277000D01*
Y-306000D02*
Y-277000D01*
Y-306000D02*
X83000Y-315000D01*
X262000D01*
X316000Y-261000D01*
Y-251000D01*
X305000Y-240000D02*
X316000Y-251000D01*
X305000Y-240000D02*
X314040Y-230960D01*
X295960Y-249040D02*
X305000Y-240000D01*
X294960Y-249040D02*
X295960D01*
X320750Y-137000D02*
X333485Y-149735D01*
Y-206565D02*
Y-149735D01*
Y-206565D02*
X335960Y-209040D01*
X141685Y-195000D02*
X167185Y-220500D01*
X89000Y-197250D02*
X91250Y-195000D01*
X-170500Y-260500D02*
X-163000Y-268000D01*
X-174000Y-258500D02*
X-170500D01*
X-163000Y-268000D02*
X-146000D01*
X-177500Y-289500D02*
X-174000D01*
X-170500D01*
X-161700Y-280700D01*
X-146000D01*
X-131000Y-166000D02*
X-115500Y-150500D01*
X-145000Y-166000D02*
X-131000D01*
X53750Y201250D02*
X55000Y202500D01*
X52875Y199375D02*
X55000Y201500D01*
X18250Y197250D02*
X20375Y199375D01*
X21000Y-287000D02*
X22000D01*
X118000Y229000D02*
X118765Y229765D01*
X120765D01*
X143000Y252000D01*
Y256000D01*
X324500Y66000D02*
X325000D01*
X208500Y276000D02*
X210000Y274500D01*
X147000Y276000D02*
X208500D01*
X143000Y280000D02*
X147000Y276000D01*
X109000Y280000D02*
X143000D01*
X104000Y275000D02*
X109000Y280000D01*
X104000Y257000D02*
Y275000D01*
X103000Y256000D02*
X104000Y257000D01*
X183960Y297040D02*
X192750Y305830D01*
X210330D01*
X211000Y306500D01*
X88841Y297040D02*
X183960D01*
X88801Y297000D02*
X88841Y297040D01*
X64000Y297000D02*
X88801D01*
X58000Y303000D02*
X64000Y297000D01*
X-81000Y303000D02*
X58000D01*
X-93500Y290500D02*
X-81000Y303000D01*
X211000Y306500D02*
X236500D01*
X266750Y276250D01*
X320500Y-48500D02*
Y-16000D01*
Y-48500D02*
X324650Y-52650D01*
X340500D01*
X305000Y-2255D02*
X309000Y1745D01*
X302000Y30000D02*
X309000Y23000D01*
Y1745D02*
Y23000D01*
X256656Y30000D02*
X302000D01*
X305000Y-42000D02*
Y-2255D01*
Y-42000D02*
X310000Y-47000D01*
Y-67050D02*
Y-47000D01*
Y-67050D02*
X321000Y-78050D01*
X163000Y256000D02*
X229000D01*
X168746Y215746D02*
X210254D01*
X48000Y291000D02*
X83000Y256000D01*
X70000Y204000D02*
Y211000D01*
X64000Y217000D02*
X70000Y211000D01*
X54000Y217000D02*
X64000D01*
X34000Y237000D02*
X54000Y217000D01*
X-57250Y237000D02*
X34000D01*
X70000Y204000D02*
X86000Y188000D01*
X141000D01*
X-249750Y66389D02*
X-222931Y39570D01*
X264000Y-116000D02*
X265000D01*
X234000Y25000D02*
X251656D01*
X256656Y30000D01*
X-108169Y-88831D02*
Y-83236D01*
X108669Y83088D02*
Y85331D01*
X-161752Y114625D02*
Y119840D01*
X-60000Y-197500D02*
X-59750Y-197250D01*
X-71250Y195500D02*
Y220250D01*
X-70750Y220750D01*
Y223500D01*
X230250Y-31250D02*
X235000Y-36000D01*
Y-49500D02*
Y-36000D01*
X263900Y-65350D02*
X283500D01*
X378000Y-16000D02*
X378250Y-15750D01*
X233250Y-115750D02*
X246960Y-102040D01*
X249500Y13250D02*
X258500D01*
X261250Y10500D01*
X275000D01*
X233250Y-136250D02*
Y-115750D01*
Y-136250D02*
X247290Y-150290D01*
X253540D01*
X269750Y-166500D02*
X287000D01*
X314750Y-84300D02*
X321000Y-78050D01*
X340500D01*
X167185Y-220500D02*
X205000D01*
X230250Y-195250D01*
Y-164750D01*
X-140423Y152750D02*
X-140154Y151581D01*
X210750Y-145250D02*
X230250Y-164750D01*
X210750Y-145250D02*
Y-115750D01*
X234500Y-92000D01*
X255750Y-73500D02*
X263900Y-65350D01*
X270200Y-78050D02*
X283500D01*
X264290Y-83960D02*
X270200Y-78050D01*
X-70750Y223500D02*
X-57250Y237000D01*
X-95000Y250040D02*
X-93500Y251540D01*
X-62500Y271000D02*
X-40250D01*
X-40000Y271250D01*
Y287000D01*
X-36000Y291000D01*
X210000Y274500D02*
X211000Y275500D01*
X-36000Y291000D02*
X48000D01*
X141000Y188000D02*
X168746Y215746D01*
X249500Y-14500D02*
Y13250D01*
Y-14500D02*
X274950Y-39950D01*
X283500D01*
X-60236Y-148582D02*
X-60236Y-148582D01*
X-60000Y-148818D01*
X-140154Y151581D02*
X-139749Y149830D01*
X69250Y-198000D02*
X70000D01*
D51*
X244120Y127880D02*
Y209880D01*
X258000Y-137000D02*
X320750D01*
X-186960Y250040D02*
X-95000D01*
X-235500Y201500D02*
X-186960Y250040D01*
X269000Y103000D02*
X356250D01*
X244120Y127880D02*
X269000Y103000D01*
X223000Y231000D02*
X244120Y209880D01*
X-271465Y231465D02*
X-241500Y201500D01*
X-281000Y204000D02*
Y215981D01*
Y204000D02*
X-274500Y197500D01*
X-248000Y171000D01*
Y69104D02*
Y171000D01*
X-241500Y201500D02*
X-235500D01*
X100941Y204500D02*
X134500D01*
X161000Y231000D01*
X223000D01*
X378250Y-79500D02*
Y-15750D01*
X320750Y-137000D02*
X378250Y-79500D01*
Y-15750D02*
Y54500D01*
X356250Y103000D02*
X378250Y81000D01*
Y54500D02*
Y81000D01*
X-95000Y250040D02*
X55401D01*
X100941Y204500D01*
D53*
X-326000Y43000D02*
X-278052Y-4948D01*
X-307440Y103560D02*
X-307087D01*
X-326000Y85000D02*
X-307440Y103560D01*
X-326000Y43000D02*
Y85000D01*
D54*
X-295076Y-239308D02*
D03*
X-252076Y-281308D02*
D03*
X-280000Y230000D02*
D03*
X-235000Y273000D02*
D03*
D55*
X-111500Y-259350D02*
D03*
X-123500Y-259350D02*
D03*
X-117500Y-267350D02*
D03*
X-111500Y-275350D02*
D03*
X-123500Y-275350D02*
D03*
X-117500Y-282350D02*
D03*
X-111500Y-289350D02*
D03*
X-123500D02*
D03*
D56*
X130000Y-255000D02*
D03*
X180000D02*
D03*
D57*
X346000Y33000D02*
D03*
Y78000D02*
D03*
X-137000Y273500D02*
D03*
X-136250Y211000D02*
D03*
X-302000Y-8500D02*
D03*
X-356000Y51000D02*
D03*
X265000Y-116000D02*
D03*
X283000Y62000D02*
D03*
X209000Y139000D02*
D03*
D58*
X-234000Y201500D02*
D03*
X-18000Y-135250D02*
D03*
X153000Y-26000D02*
D03*
X18000Y135500D02*
D03*
X32000Y85000D02*
D03*
X145000Y144000D02*
D03*
X-18000Y197000D02*
D03*
X18000Y-198000D02*
D03*
X148250Y-184750D02*
D03*
X228500Y-221500D02*
D03*
D59*
X-290879Y-241506D02*
D03*
X-256938Y-275447D02*
D03*
D60*
X-242029Y265971D02*
D03*
X-275970Y232029D02*
D03*
D61*
X-251826Y-105930D02*
D03*
X-284070Y-138174D02*
D03*
D62*
X-314164Y-75835D02*
D03*
D63*
X309000Y154500D02*
D03*
Y188000D02*
D03*
X270000Y222500D02*
D03*
Y189000D02*
D03*
D64*
X103000Y256000D02*
D03*
X143000D02*
D03*
X83000D02*
D03*
X163000D02*
D03*
X83000Y318000D02*
D03*
X163000D02*
D03*
X103000D02*
D03*
X143000D02*
D03*
D65*
X-62000Y-238000D02*
D03*
Y-268000D02*
D03*
X-180250Y249500D02*
D03*
X-180250Y279500D02*
D03*
D66*
X18000Y-197250D02*
D03*
X-18000D02*
D03*
X-17750Y197250D02*
D03*
X18250D02*
D03*
D67*
X179921Y-82787D02*
D03*
X161921Y-113963D02*
D03*
X-179752Y83448D02*
D03*
X-161752Y114625D02*
D03*
D68*
X161671Y114463D02*
D03*
X179671Y83287D02*
D03*
X-161921Y-114463D02*
D03*
X-179921Y-83287D02*
D03*
D69*
X-239040Y-138040D02*
D03*
X-260960Y-159960D02*
D03*
X314040Y-230960D02*
D03*
X335960Y-209040D02*
D03*
X294960Y-249040D02*
D03*
X273040Y-270960D02*
D03*
D70*
X-89000Y-255300D02*
D03*
Y-268000D02*
D03*
Y-280700D02*
D03*
X-89000Y-293400D02*
D03*
X-146000Y-255300D02*
D03*
Y-268000D02*
D03*
Y-280700D02*
D03*
Y-293400D02*
D03*
X283500Y-78050D02*
D03*
Y-65350D02*
D03*
X283500Y-52650D02*
D03*
Y-39950D02*
D03*
X340500Y-78050D02*
D03*
Y-65350D02*
D03*
X340500Y-52650D02*
D03*
Y-39950D02*
D03*
D71*
X-117500Y-274350D02*
D03*
D72*
X-278052Y-21052D02*
D03*
X-217948Y39052D02*
D03*
D73*
X126669Y51912D02*
D03*
X108669Y83088D02*
D03*
X-126169Y-52059D02*
D03*
X-108169Y-83236D02*
D03*
D74*
X108347Y-83338D02*
D03*
X126347Y-52162D02*
D03*
X-108419Y83588D02*
D03*
X-126419Y52412D02*
D03*
D75*
X-18000Y-135250D02*
D03*
X18000D02*
D03*
Y135500D02*
D03*
X-18000D02*
D03*
D76*
X-307264Y103736D02*
D03*
X-274737Y136264D02*
D03*
D77*
X96000Y-288000D02*
D03*
X50000D02*
D03*
X21000Y-287000D02*
D03*
X-25000Y-287000D02*
D03*
D78*
X174577Y29250D02*
D03*
X201423Y44750D02*
D03*
X-181673Y-43750D02*
D03*
X-154827Y-28250D02*
D03*
D79*
X-112577Y136250D02*
D03*
X-139423Y151750D02*
D03*
X138423Y-150750D02*
D03*
X111577Y-135250D02*
D03*
D80*
X130000Y-270000D02*
D03*
X180000D02*
D03*
D81*
X-320000Y-74000D02*
X-278052Y-32052D01*
M02*
