G04*
G04 #@! TF.GenerationSoftware,Altium Limited,Altium Designer,19.1.9 (167)*
G04*
G04 Layer_Color=2752767*
%FSLAX44Y44*%
%MOMM*%
G71*
G01*
G75*
%ADD105C,0.0508*%
%ADD106C,0.0677*%
%ADD107C,0.0339*%
D105*
X-297108Y-241341D02*
Y-237276D01*
X-293044D01*
Y-241341D01*
X-297108D01*
X-254108Y-283340D02*
Y-279277D01*
X-250044D01*
Y-283340D01*
X-254108D01*
X-282032Y227968D02*
Y232032D01*
X-277968D01*
Y227968D01*
X-282032D01*
X-237032Y270968D02*
Y275032D01*
X-232968D01*
Y270968D01*
X-237032D01*
X90968Y284968D02*
Y289032D01*
X95032D01*
Y284968D01*
X90968D01*
X170968D02*
Y289032D01*
X175032D01*
Y284968D01*
X170968D01*
X-111500Y-261382D02*
X-113532Y-257318D01*
X-109468D01*
X-111500Y-261382D01*
X-123500Y-261382D02*
X-125532Y-257318D01*
X-121468D01*
X-123500Y-261382D01*
X-117500Y-269382D02*
X-119532Y-265318D01*
X-115468D01*
X-117500Y-269382D01*
X-111500Y-277382D02*
X-113532Y-273318D01*
X-109468D01*
X-111500Y-277382D01*
X-123500Y-277382D02*
X-125532Y-273318D01*
X-121468D01*
X-123500Y-277382D01*
X-117500Y-284382D02*
X-119532Y-280318D01*
X-115468D01*
X-117500Y-284382D01*
X-111500Y-291382D02*
X-113532Y-287318D01*
X-109468D01*
X-111500Y-291382D01*
X-123500D02*
X-125532Y-287318D01*
X-121468D01*
X-123500Y-291382D01*
X-189500Y-112032D02*
X-188484Y-111016D01*
X-187468D01*
X-188484Y-110000D01*
X-187468Y-108984D01*
X-188484D01*
X-189500Y-107968D01*
X-190516Y-108984D01*
X-191532D01*
X-190516Y-110000D01*
X-191532Y-111016D01*
X-190516D01*
X-189500Y-112032D01*
X250Y-220282D02*
X1266Y-219266D01*
X2282D01*
X1266Y-218250D01*
X2282Y-217234D01*
X1266D01*
X250Y-216218D01*
X-766Y-217234D01*
X-1782D01*
X-766Y-218250D01*
X-1782Y-219266D01*
X-766D01*
X250Y-220282D01*
X188750Y-111282D02*
X189766Y-110266D01*
X190782D01*
X189766Y-109250D01*
X190782Y-108234D01*
X189766D01*
X188750Y-107218D01*
X187734Y-108234D01*
X186718D01*
X187734Y-109250D01*
X186718Y-110266D01*
X187734D01*
X188750Y-111282D01*
X187250Y106718D02*
X188266Y107734D01*
X189282D01*
X188266Y108750D01*
X189282Y109766D01*
X188266D01*
X187250Y110782D01*
X186234Y109766D01*
X185218D01*
X186234Y108750D01*
X185218Y107734D01*
X186234D01*
X187250Y106718D01*
X0Y216468D02*
X1016Y217484D01*
X2032D01*
X1016Y218500D01*
X2032Y219516D01*
X1016D01*
X0Y220532D01*
X-1016Y219516D01*
X-2032D01*
X-1016Y218500D01*
X-2032Y217484D01*
X-1016D01*
X0Y216468D01*
X-188000Y106468D02*
X-186984Y107484D01*
X-185968D01*
X-186984Y108500D01*
X-185968Y109516D01*
X-186984D01*
X-188000Y110532D01*
X-189016Y109516D01*
X-190032D01*
X-189016Y108500D01*
X-190032Y107484D01*
X-189016D01*
X-188000Y106468D01*
X95718Y53968D02*
X96734Y56000D01*
X95718Y58032D01*
X97750Y57016D01*
X99782Y58032D01*
X98766Y56000D01*
X99782Y53968D01*
X97750Y54984D01*
X95718Y53968D01*
X95396Y-58282D02*
X96412Y-56250D01*
X95396Y-54218D01*
X97428Y-55234D01*
X99460Y-54218D01*
X98444Y-56250D01*
X99460Y-58282D01*
X97428Y-57266D01*
X95396Y-58282D01*
X-2032Y-114282D02*
X-1016Y-112250D01*
X-2032Y-110218D01*
X0Y-111234D01*
X2032Y-110218D01*
X1016Y-112250D01*
X2032Y-114282D01*
X0Y-113266D01*
X-2032Y-114282D01*
X-99282Y-58179D02*
X-98266Y-56147D01*
X-99282Y-54115D01*
X-97250Y-55131D01*
X-95218Y-54115D01*
X-96234Y-56147D01*
X-95218Y-58179D01*
X-97250Y-57163D01*
X-99282Y-58179D01*
X-99532Y54468D02*
X-98516Y56500D01*
X-99532Y58532D01*
X-97500Y57516D01*
X-95468Y58532D01*
X-96484Y56500D01*
X-95468Y54468D01*
X-97500Y55484D01*
X-99532Y54468D01*
X-2032Y110468D02*
X-1016Y112500D01*
X-2032Y114532D01*
X0Y113516D01*
X2032Y114532D01*
X1016Y112500D01*
X2032Y110468D01*
X0Y111484D01*
X-2032Y110468D01*
X188984Y-181016D02*
Y-182032D01*
X191016D01*
Y-181016D01*
X192032D01*
Y-178984D01*
X191016D01*
Y-177968D01*
X188984D01*
Y-178984D01*
X187968D01*
Y-181016D01*
X188984D01*
X358984Y-141016D02*
Y-142032D01*
X361016D01*
Y-141016D01*
X362032D01*
Y-138984D01*
X361016D01*
Y-137968D01*
X358984D01*
Y-138984D01*
X357968D01*
Y-141016D01*
X358984D01*
Y138984D02*
Y137968D01*
X361016D01*
Y138984D01*
X362032D01*
Y141016D01*
X361016D01*
Y142032D01*
X358984D01*
Y141016D01*
X357968D01*
Y138984D01*
X358984D01*
X188984Y178984D02*
Y177968D01*
X191016D01*
Y178984D01*
X192032D01*
Y181016D01*
X191016D01*
Y182032D01*
X188984D01*
Y181016D01*
X187968D01*
Y178984D01*
X188984D01*
X-191016Y-181016D02*
Y-182032D01*
X-188984D01*
Y-181016D01*
X-187968D01*
Y-178984D01*
X-188984D01*
Y-177968D01*
X-191016D01*
Y-178984D01*
X-192032D01*
Y-181016D01*
X-191016D01*
X-361016Y-141016D02*
Y-142032D01*
X-358984D01*
Y-141016D01*
X-357968D01*
Y-138984D01*
X-358984D01*
Y-137968D01*
X-361016D01*
Y-138984D01*
X-362032D01*
Y-141016D01*
X-361016D01*
Y138984D02*
Y137968D01*
X-358984D01*
Y138984D01*
X-357968D01*
Y141016D01*
X-358984D01*
Y142032D01*
X-361016D01*
Y141016D01*
X-362032D01*
Y138984D01*
X-361016D01*
X-2032Y-2032D02*
X-1016D01*
X0Y-1016D01*
X1016Y-2032D01*
X2032D01*
Y-1016D01*
X1016Y0D01*
X2032Y1016D01*
Y2032D01*
X1016D01*
X0Y1016D01*
X-1016Y2032D01*
X-2032D01*
Y1016D01*
X-1016Y0D01*
X-2032Y-1016D01*
Y-2032D01*
X127968Y-255000D02*
X130000Y-252968D01*
X132032Y-255000D01*
X130000Y-257032D01*
X127968Y-255000D01*
X177968D02*
X180000Y-252968D01*
X182032Y-255000D01*
X180000Y-257032D01*
X177968Y-255000D01*
X343968Y33000D02*
X346000Y35032D01*
X348032Y33000D01*
X346000Y30968D01*
X343968Y33000D01*
Y78000D02*
X346000Y80032D01*
X348032Y78000D01*
X346000Y75968D01*
X343968Y78000D01*
X-191016Y178984D02*
Y177968D01*
X-188984D01*
Y178984D01*
X-187968D01*
Y181016D01*
X-188984D01*
Y182032D01*
X-191016D01*
Y181016D01*
X-192032D01*
Y178984D01*
X-191016D01*
X-139032Y271468D02*
Y275532D01*
X-134968D01*
Y271468D01*
X-139032D01*
X-138016Y272484D02*
Y274516D01*
X-135984D01*
Y272484D01*
X-138016D01*
X-138282Y208968D02*
Y213032D01*
X-134218D01*
Y208968D01*
X-138282D01*
X-137266Y209984D02*
Y212016D01*
X-135234D01*
Y209984D01*
X-137266D01*
X288968Y150968D02*
Y155032D01*
X293032D01*
Y150968D01*
X288968D01*
X289984Y151984D02*
Y154016D01*
X292016D01*
Y151984D01*
X289984D01*
X266968Y-97032D02*
Y-92968D01*
X271032D01*
Y-97032D01*
X266968D01*
X267984Y-96016D02*
Y-93984D01*
X270016D01*
Y-96016D01*
X267984D01*
X127968Y-137032D02*
Y-132968D01*
X132032D01*
Y-137032D01*
X127968D01*
X128984Y-136016D02*
Y-133984D01*
X131016D01*
Y-136016D01*
X128984D01*
X78968Y-158032D02*
Y-153968D01*
X83032D01*
Y-158032D01*
X78968D01*
X79984Y-157016D02*
Y-154984D01*
X82016D01*
Y-157016D01*
X79984D01*
X79968Y-233032D02*
Y-228968D01*
X84032D01*
Y-233032D01*
X79968D01*
X80984Y-232016D02*
Y-229984D01*
X83016D01*
Y-232016D01*
X80984D01*
X130968Y-213032D02*
Y-208968D01*
X135032D01*
Y-213032D01*
X130968D01*
X131984Y-212016D02*
Y-209984D01*
X134016D01*
Y-212016D01*
X131984D01*
X377968Y-114032D02*
Y-109968D01*
X382032D01*
Y-114032D01*
X377968D01*
X378984Y-113016D02*
Y-110984D01*
X381016D01*
Y-113016D01*
X378984D01*
X357968Y-69032D02*
Y-64968D01*
X362032D01*
Y-69032D01*
X357968D01*
X358984Y-68016D02*
Y-65984D01*
X361016D01*
Y-68016D01*
X358984D01*
X209968Y111968D02*
Y116032D01*
X214032D01*
Y111968D01*
X209968D01*
X210984Y112984D02*
Y115016D01*
X213016D01*
Y112984D01*
X210984D01*
X269968Y132968D02*
Y137032D01*
X274032D01*
Y132968D01*
X269968D01*
X270984Y133984D02*
Y136016D01*
X273016D01*
Y133984D01*
X270984D01*
X276968Y203968D02*
Y208032D01*
X281032D01*
Y203968D01*
X276968D01*
X277984Y204984D02*
Y207016D01*
X280016D01*
Y204984D01*
X277984D01*
X333968Y169968D02*
Y174032D01*
X338032D01*
Y169968D01*
X333968D01*
X334984Y170984D02*
Y173016D01*
X337016D01*
Y170984D01*
X334984D01*
X299968Y130968D02*
Y135032D01*
X304032D01*
Y130968D01*
X299968D01*
X300984Y131984D02*
Y134016D01*
X303016D01*
Y131984D01*
X300984D01*
X-178032Y-27032D02*
Y-22968D01*
X-173968D01*
Y-27032D01*
X-178032D01*
X-177016Y-26016D02*
Y-23984D01*
X-174984D01*
Y-26016D01*
X-177016D01*
X68968Y-100032D02*
Y-95968D01*
X73032D01*
Y-100032D01*
X68968D01*
X69984Y-99016D02*
Y-96984D01*
X72016D01*
Y-99016D01*
X69984D01*
X113968Y-1032D02*
Y3032D01*
X118032D01*
Y-1032D01*
X113968D01*
X114984Y-16D02*
Y2016D01*
X117016D01*
Y-16D01*
X114984D01*
X72968Y119968D02*
Y124032D01*
X77032D01*
Y119968D01*
X72968D01*
X73984Y120984D02*
Y123016D01*
X76016D01*
Y120984D01*
X73984D01*
X-235032Y230968D02*
Y235032D01*
X-230968D01*
Y230968D01*
X-235032D01*
X-234016Y231984D02*
Y234016D01*
X-231984D01*
Y231984D01*
X-234016D01*
X-352032Y-220032D02*
Y-215968D01*
X-347968D01*
Y-220032D01*
X-352032D01*
X-351016Y-219016D02*
Y-216984D01*
X-348984D01*
Y-219016D01*
X-351016D01*
X-295032Y-273032D02*
Y-268968D01*
X-290968D01*
Y-273032D01*
X-295032D01*
X-294016Y-272016D02*
Y-269984D01*
X-291984D01*
Y-272016D01*
X-294016D01*
X-272032Y-301032D02*
Y-296968D01*
X-267968D01*
Y-301032D01*
X-272032D01*
X-271016Y-300016D02*
Y-297984D01*
X-268984D01*
Y-300016D01*
X-271016D01*
X-256032Y-243032D02*
Y-238968D01*
X-251968D01*
Y-243032D01*
X-256032D01*
X-255016Y-242016D02*
Y-239984D01*
X-252984D01*
Y-242016D01*
X-255016D01*
X-301032Y-183032D02*
Y-178968D01*
X-296968D01*
Y-183032D01*
X-301032D01*
X-300016Y-182016D02*
Y-179984D01*
X-297984D01*
Y-182016D01*
X-300016D01*
X-241032Y-178032D02*
Y-173968D01*
X-236968D01*
Y-178032D01*
X-241032D01*
X-240016Y-177016D02*
Y-174984D01*
X-237984D01*
Y-177016D01*
X-240016D01*
X-219032Y-149032D02*
Y-144968D01*
X-214968D01*
Y-149032D01*
X-219032D01*
X-218016Y-148016D02*
Y-145984D01*
X-215984D01*
Y-148016D01*
X-218016D01*
X-144032Y-138032D02*
Y-133968D01*
X-139968D01*
Y-138032D01*
X-144032D01*
X-143016Y-137016D02*
Y-134984D01*
X-140984D01*
Y-137016D01*
X-143016D01*
X-69032Y-217032D02*
Y-212968D01*
X-64968D01*
Y-217032D01*
X-69032D01*
X-68016Y-216016D02*
Y-213984D01*
X-65984D01*
Y-216016D01*
X-68016D01*
X-100032Y-200032D02*
Y-195968D01*
X-95968D01*
Y-200032D01*
X-100032D01*
X-99016Y-199016D02*
Y-196984D01*
X-96984D01*
Y-199016D01*
X-99016D01*
X-136032Y-200032D02*
Y-195968D01*
X-131968D01*
Y-200032D01*
X-136032D01*
X-135016Y-199016D02*
Y-196984D01*
X-132984D01*
Y-199016D01*
X-135016D01*
X-185032Y-242032D02*
Y-237968D01*
X-180968D01*
Y-242032D01*
X-185032D01*
X-184016Y-241016D02*
Y-238984D01*
X-181984D01*
Y-241016D01*
X-184016D01*
X-176032Y-276032D02*
Y-271968D01*
X-171968D01*
Y-276032D01*
X-176032D01*
X-175016Y-275016D02*
Y-272984D01*
X-172984D01*
Y-275016D01*
X-175016D01*
X-176032Y-307032D02*
Y-302968D01*
X-171968D01*
Y-307032D01*
X-176032D01*
X-175016Y-306016D02*
Y-303984D01*
X-172984D01*
Y-306016D01*
X-175016D01*
X-65032Y-291032D02*
Y-286968D01*
X-60968D01*
Y-291032D01*
X-65032D01*
X-64016Y-290016D02*
Y-287984D01*
X-61984D01*
Y-290016D01*
X-64016D01*
X44968Y-233032D02*
Y-228968D01*
X49032D01*
Y-233032D01*
X44968D01*
X45984Y-232016D02*
Y-229984D01*
X48016D01*
Y-232016D01*
X45984D01*
X-28032Y-269032D02*
Y-264968D01*
X-23968D01*
Y-269032D01*
X-28032D01*
X-27016Y-268016D02*
Y-265984D01*
X-24984D01*
Y-268016D01*
X-27016D01*
X-12032Y-307032D02*
Y-302968D01*
X-7968D01*
Y-307032D01*
X-12032D01*
X-11016Y-306016D02*
Y-303984D01*
X-8984D01*
Y-306016D01*
X-11016D01*
X-31032Y-307032D02*
Y-302968D01*
X-26968D01*
Y-307032D01*
X-31032D01*
X-30016Y-306016D02*
Y-303984D01*
X-27984D01*
Y-306016D01*
X-30016D01*
X44968Y-319032D02*
Y-314968D01*
X49032D01*
Y-319032D01*
X44968D01*
X45984Y-318016D02*
Y-315984D01*
X48016D01*
Y-318016D01*
X45984D01*
X152968Y-305032D02*
Y-300968D01*
X157032D01*
Y-305032D01*
X152968D01*
X153984Y-304016D02*
Y-301984D01*
X156016D01*
Y-304016D01*
X153984D01*
X205968Y-302032D02*
Y-297968D01*
X210032D01*
Y-302032D01*
X205968D01*
X206984Y-301016D02*
Y-298984D01*
X209016D01*
Y-301016D01*
X206984D01*
X236968Y-266032D02*
Y-261968D01*
X241032D01*
Y-266032D01*
X236968D01*
X237984Y-265016D02*
Y-262984D01*
X240016D01*
Y-265016D01*
X237984D01*
X334968Y-235032D02*
Y-230968D01*
X339032D01*
Y-235032D01*
X334968D01*
X335984Y-234016D02*
Y-231984D01*
X338016D01*
Y-234016D01*
X335984D01*
X367968Y-181032D02*
Y-176968D01*
X372032D01*
Y-181032D01*
X367968D01*
X368984Y-180016D02*
Y-177984D01*
X371016D01*
Y-180016D01*
X368984D01*
X297968Y-155032D02*
Y-150968D01*
X302032D01*
Y-155032D01*
X297968D01*
X298984Y-154016D02*
Y-151984D01*
X301016D01*
Y-154016D01*
X298984D01*
X273968Y-210032D02*
Y-205968D01*
X278032D01*
Y-210032D01*
X273968D01*
X274984Y-209016D02*
Y-206984D01*
X277016D01*
Y-209016D01*
X274984D01*
X156968Y-152032D02*
Y-147968D01*
X161032D01*
Y-152032D01*
X156968D01*
X157984Y-151016D02*
Y-148984D01*
X160016D01*
Y-151016D01*
X157984D01*
X219968Y-130032D02*
Y-125968D01*
X224032D01*
Y-130032D01*
X219968D01*
X220984Y-129016D02*
Y-126984D01*
X223016D01*
Y-129016D01*
X220984D01*
X193968Y-137032D02*
Y-132968D01*
X198032D01*
Y-137032D01*
X193968D01*
X194984Y-136016D02*
Y-133984D01*
X197016D01*
Y-136016D01*
X194984D01*
X255968Y-42032D02*
Y-37968D01*
X260032D01*
Y-42032D01*
X255968D01*
X256984Y-41016D02*
Y-38984D01*
X259016D01*
Y-41016D01*
X256984D01*
X210968Y-64032D02*
Y-59968D01*
X215032D01*
Y-64032D01*
X210968D01*
X211984Y-63016D02*
Y-60984D01*
X214016D01*
Y-63016D01*
X211984D01*
X357968Y-45032D02*
Y-40968D01*
X362032D01*
Y-45032D01*
X357968D01*
X358984Y-44016D02*
Y-41984D01*
X361016D01*
Y-44016D01*
X358984D01*
X355968Y9968D02*
Y14032D01*
X360032D01*
Y9968D01*
X355968D01*
X356984Y10984D02*
Y13016D01*
X359016D01*
Y10984D01*
X356984D01*
X262968Y-10032D02*
Y-5968D01*
X267032D01*
Y-10032D01*
X262968D01*
X263984Y-9016D02*
Y-6984D01*
X266016D01*
Y-9016D01*
X263984D01*
X232968Y-4032D02*
Y32D01*
X237032D01*
Y-4032D01*
X232968D01*
X233984Y-3016D02*
Y-984D01*
X236016D01*
Y-3016D01*
X233984D01*
X240968Y68968D02*
Y73032D01*
X245032D01*
Y68968D01*
X240968D01*
X241984Y69984D02*
Y72016D01*
X244016D01*
Y69984D01*
X241984D01*
X148968Y178968D02*
Y183032D01*
X153032D01*
Y178968D01*
X148968D01*
X149984Y179984D02*
Y182016D01*
X152016D01*
Y179984D01*
X149984D01*
X92968Y158968D02*
Y163032D01*
X97032D01*
Y158968D01*
X92968D01*
X93984Y159984D02*
Y162016D01*
X96016D01*
Y159984D01*
X93984D01*
X320968Y212968D02*
Y217032D01*
X325032D01*
Y212968D01*
X320968D01*
X321984Y213984D02*
Y216016D01*
X324016D01*
Y213984D01*
X321984D01*
X186968Y318968D02*
Y323032D01*
X191032D01*
Y318968D01*
X186968D01*
X187984Y319984D02*
Y322016D01*
X190016D01*
Y319984D01*
X187984D01*
X230968Y280968D02*
Y285032D01*
X235032D01*
Y280968D01*
X230968D01*
X231984Y281984D02*
Y284016D01*
X234016D01*
Y281984D01*
X231984D01*
X-74032Y288968D02*
Y293032D01*
X-69968D01*
Y288968D01*
X-74032D01*
X-73016Y289984D02*
Y292016D01*
X-70984D01*
Y289984D01*
X-73016D01*
X-12032Y318968D02*
Y323032D01*
X-7968D01*
Y318968D01*
X-12032D01*
X-11016Y319984D02*
Y322016D01*
X-8984D01*
Y319984D01*
X-11016D01*
X117968Y262968D02*
Y267032D01*
X122032D01*
Y262968D01*
X117968D01*
X118984Y263984D02*
Y266016D01*
X121016D01*
Y263984D01*
X118984D01*
X119968Y315968D02*
Y320032D01*
X124032D01*
Y315968D01*
X119968D01*
X120984Y316984D02*
Y319016D01*
X123016D01*
Y316984D01*
X120984D01*
X28968Y270968D02*
Y275032D01*
X33032D01*
Y270968D01*
X28968D01*
X29984Y271984D02*
Y274016D01*
X32016D01*
Y271984D01*
X29984D01*
X-128032Y307968D02*
Y312032D01*
X-123968D01*
Y307968D01*
X-128032D01*
X-127016Y308984D02*
Y311016D01*
X-124984D01*
Y308984D01*
X-127016D01*
X-199032Y304968D02*
Y309032D01*
X-194968D01*
Y304968D01*
X-199032D01*
X-198016Y305984D02*
Y308016D01*
X-195984D01*
Y305984D01*
X-198016D01*
X-177032Y226968D02*
Y231032D01*
X-172968D01*
Y226968D01*
X-177032D01*
X-176016Y227984D02*
Y230016D01*
X-173984D01*
Y227984D01*
X-176016D01*
X-49032Y195968D02*
Y200032D01*
X-44968D01*
Y195968D01*
X-49032D01*
X-48016Y196984D02*
Y199016D01*
X-45984D01*
Y196984D01*
X-48016D01*
X-131032Y177968D02*
Y182032D01*
X-126968D01*
Y177968D01*
X-131032D01*
X-130016Y178984D02*
Y181016D01*
X-127984D01*
Y178984D01*
X-130016D01*
X-219032Y124968D02*
Y129032D01*
X-214968D01*
Y124968D01*
X-219032D01*
X-218016Y125984D02*
Y128016D01*
X-215984D01*
Y125984D01*
X-218016D01*
X-105032Y115968D02*
Y120032D01*
X-100968D01*
Y115968D01*
X-105032D01*
X-104016Y116984D02*
Y119016D01*
X-101984D01*
Y116984D01*
X-104016D01*
X-57032Y96968D02*
Y101032D01*
X-52968D01*
Y96968D01*
X-57032D01*
X-56016Y97984D02*
Y100016D01*
X-53984D01*
Y97984D01*
X-56016D01*
X-159032Y33968D02*
Y38032D01*
X-154968D01*
Y33968D01*
X-159032D01*
X-158016Y34984D02*
Y37016D01*
X-155984D01*
Y34984D01*
X-158016D01*
X-221032Y-31032D02*
Y-26968D01*
X-216968D01*
Y-31032D01*
X-221032D01*
X-220016Y-30016D02*
Y-27984D01*
X-217984D01*
Y-30016D01*
X-220016D01*
X-233032Y-97032D02*
Y-92968D01*
X-228968D01*
Y-97032D01*
X-233032D01*
X-232016Y-96016D02*
Y-93984D01*
X-229984D01*
Y-96016D01*
X-232016D01*
X-301032Y-159032D02*
Y-154968D01*
X-296968D01*
Y-159032D01*
X-301032D01*
X-300016Y-158016D02*
Y-155984D01*
X-297984D01*
Y-158016D01*
X-300016D01*
X-364032Y-191032D02*
Y-186968D01*
X-359968D01*
Y-191032D01*
X-364032D01*
X-363016Y-190016D02*
Y-187984D01*
X-360984D01*
Y-190016D01*
X-363016D01*
X-378032Y-102032D02*
Y-97968D01*
X-373968D01*
Y-102032D01*
X-378032D01*
X-377016Y-101016D02*
Y-98984D01*
X-374984D01*
Y-101016D01*
X-377016D01*
X-366032Y-55032D02*
Y-50968D01*
X-361968D01*
Y-55032D01*
X-366032D01*
X-365016Y-54016D02*
Y-51984D01*
X-362984D01*
Y-54016D01*
X-365016D01*
X-288032Y111968D02*
Y116032D01*
X-283968D01*
Y111968D01*
X-288032D01*
X-287016Y112984D02*
Y115016D01*
X-284984D01*
Y112984D01*
X-287016D01*
X-331032Y163968D02*
Y168032D01*
X-326968D01*
Y163968D01*
X-331032D01*
X-330016Y164984D02*
Y167016D01*
X-327984D01*
Y164984D01*
X-330016D01*
X-311032Y194968D02*
Y199032D01*
X-306968D01*
Y194968D01*
X-311032D01*
X-310016Y195984D02*
Y198016D01*
X-307984D01*
Y195984D01*
X-310016D01*
X353968Y-12032D02*
Y-7968D01*
X358032D01*
Y-12032D01*
X353968D01*
X354984Y-11016D02*
Y-8984D01*
X357016D01*
Y-11016D01*
X354984D01*
X339968Y-27032D02*
Y-22968D01*
X344032D01*
Y-27032D01*
X339968D01*
X340984Y-26016D02*
Y-23984D01*
X343016D01*
Y-26016D01*
X340984D01*
X-147032Y-168032D02*
Y-163968D01*
X-142968D01*
Y-168032D01*
X-147032D01*
X-146016Y-167016D02*
Y-164984D01*
X-143984D01*
Y-167016D01*
X-146016D01*
X-117532Y-152532D02*
Y-148468D01*
X-113468D01*
Y-152532D01*
X-117532D01*
X-116516Y-151516D02*
Y-149484D01*
X-114484D01*
Y-151516D01*
X-116516D01*
X115968Y226968D02*
Y231032D01*
X120032D01*
Y226968D01*
X115968D01*
X116984Y227984D02*
Y230016D01*
X119016D01*
Y227984D01*
X116984D01*
X322968Y63968D02*
Y68032D01*
X327032D01*
Y63968D01*
X322968D01*
X323984Y64984D02*
Y67016D01*
X326016D01*
Y64984D01*
X323984D01*
X-234000Y199468D02*
X-236032Y203532D01*
X-231968D01*
X-234000Y199468D01*
Y200484D02*
X-235016Y202516D01*
X-232984D01*
X-234000Y200484D01*
X-18000Y-137282D02*
X-20032Y-133218D01*
X-15968D01*
X-18000Y-137282D01*
Y-136266D02*
X-19016Y-134234D01*
X-16984D01*
X-18000Y-136266D01*
X262968Y-118032D02*
Y-113968D01*
X267032D01*
Y-118032D01*
X262968D01*
X263984Y-117016D02*
Y-114984D01*
X266016D01*
Y-117016D01*
X263984D01*
X280968Y59968D02*
Y64032D01*
X285032D01*
Y59968D01*
X280968D01*
X281984Y60984D02*
Y63016D01*
X284016D01*
Y60984D01*
X281984D01*
X295968Y15968D02*
Y20032D01*
X300032D01*
Y15968D01*
X295968D01*
X296984Y16984D02*
Y19016D01*
X299016D01*
Y16984D01*
X296984D01*
X153000Y-28032D02*
X150968Y-23968D01*
X155032D01*
X153000Y-28032D01*
Y-27016D02*
X151984Y-24984D01*
X154016D01*
X153000Y-27016D01*
X206968Y136968D02*
Y141032D01*
X211032D01*
Y136968D01*
X206968D01*
X207984Y137984D02*
Y140016D01*
X210016D01*
Y137984D01*
X207984D01*
X18000Y133468D02*
X15968Y137532D01*
X20032D01*
X18000Y133468D01*
Y134484D02*
X16984Y136516D01*
X19016D01*
X18000Y134484D01*
X-76032Y-111532D02*
Y-107468D01*
X-71968D01*
Y-111532D01*
X-76032D01*
X-75016Y-110516D02*
Y-108484D01*
X-72984D01*
Y-110516D01*
X-75016D01*
X-165594Y-117130D02*
Y-113066D01*
X-161530D01*
Y-117130D01*
X-165594D01*
X-164578Y-116114D02*
Y-114082D01*
X-162546D01*
Y-116114D01*
X-164578D01*
X32000Y82968D02*
X29968Y87032D01*
X34032D01*
X32000Y82968D01*
Y83984D02*
X30984Y86016D01*
X33016D01*
X32000Y83984D01*
X145000Y141968D02*
X142968Y146032D01*
X147032D01*
X145000Y141968D01*
Y142984D02*
X143984Y145016D01*
X146016D01*
X145000Y142984D01*
X-18000Y194968D02*
X-20032Y199032D01*
X-15968D01*
X-18000Y194968D01*
Y195984D02*
X-19016Y198016D01*
X-16984D01*
X-18000Y195984D01*
X18000Y-200032D02*
X15968Y-195968D01*
X20032D01*
X18000Y-200032D01*
Y-199016D02*
X16984Y-196984D01*
X19016D01*
X18000Y-199016D01*
X-108486Y167283D02*
Y171347D01*
X-104422D01*
Y167283D01*
X-108486D01*
X-107470Y168299D02*
Y170331D01*
X-105438D01*
Y168299D01*
X-107470D01*
X148250Y-186782D02*
X146218Y-182718D01*
X150282D01*
X148250Y-186782D01*
Y-185766D02*
X147234Y-183734D01*
X149266D01*
X148250Y-185766D01*
X228500Y-223532D02*
X226468Y-219468D01*
X230532D01*
X228500Y-223532D01*
Y-222516D02*
X227484Y-220484D01*
X229516D01*
X228500Y-222516D01*
X-138282Y-32782D02*
Y-28718D01*
X-134218D01*
Y-32782D01*
X-138282D01*
X-137266Y-31766D02*
Y-29734D01*
X-135234D01*
Y-31766D01*
X-137266D01*
X-182882Y83369D02*
Y87433D01*
X-178818D01*
Y83369D01*
X-182882D01*
X-181866Y84385D02*
Y86417D01*
X-179834D01*
Y84385D01*
X-181866D01*
D106*
X2032Y-178000D02*
G03*
X2032Y-178000I-2032J0D01*
G01*
X156282Y-88750D02*
G03*
X156282Y-88750I-2032J0D01*
G01*
X156032Y89250D02*
G03*
X156032Y89250I-2032J0D01*
G01*
X2282Y178000D02*
G03*
X2282Y178000I-2032J0D01*
G01*
X-152049Y89412D02*
G03*
X-152049Y89412I-2032J0D01*
G01*
X-152218Y-89250D02*
G03*
X-152218Y-89250I-2032J0D01*
G01*
X-299968Y-8500D02*
G03*
X-299968Y-8500I-2032J0D01*
G01*
X-353968Y51000D02*
G03*
X-353968Y51000I-2032J0D01*
G01*
D107*
X-300984Y-8500D02*
G03*
X-300984Y-8500I-1016J0D01*
G01*
X-354984Y51000D02*
G03*
X-354984Y51000I-1016J0D01*
G01*
M02*
