G04*
G04 #@! TF.GenerationSoftware,Altium Limited,Altium Designer,19.1.9 (167)*
G04*
G04 Layer_Color=16711935*
%FSLAX44Y44*%
%MOMM*%
G71*
G01*
G75*
%ADD12C,0.2540*%
%ADD13C,0.5000*%
%ADD28R,1.3532X2.0532*%
%ADD30R,1.3532X0.9532*%
%ADD31R,2.0532X1.3532*%
%ADD32R,1.5532X2.1532*%
%ADD36R,0.9532X1.3532*%
%ADD37R,1.7532X2.0532*%
%ADD40C,1.2032*%
%ADD41C,1.7272*%
%ADD42C,0.2032*%
%ADD43C,0.9032*%
%ADD44C,2.7032*%
%ADD45C,2.2032*%
%ADD46C,1.4732*%
%ADD47C,1.0000*%
G04:AMPARAMS|DCode=82|XSize=2.4032mm|YSize=4.3532mm|CornerRadius=0mm|HoleSize=0mm|Usage=FLASHONLY|Rotation=45.000|XOffset=0mm|YOffset=0mm|HoleType=Round|Shape=Rectangle|*
%AMROTATEDRECTD82*
4,1,4,0.6894,-2.3888,-2.3888,0.6894,-0.6894,2.3888,2.3888,-0.6894,0.6894,-2.3888,0.0*
%
%ADD82ROTATEDRECTD82*%

G04:AMPARAMS|DCode=83|XSize=2.4032mm|YSize=4.3532mm|CornerRadius=0mm|HoleSize=0mm|Usage=FLASHONLY|Rotation=315.000|XOffset=0mm|YOffset=0mm|HoleType=Round|Shape=Rectangle|*
%AMROTATEDRECTD83*
4,1,4,-2.3888,-0.6894,0.6894,2.3888,2.3888,0.6894,-0.6894,-2.3888,-2.3888,-0.6894,0.0*
%
%ADD83ROTATEDRECTD83*%

G04:AMPARAMS|DCode=84|XSize=1.4532mm|YSize=2.9532mm|CornerRadius=0mm|HoleSize=0mm|Usage=FLASHONLY|Rotation=45.000|XOffset=0mm|YOffset=0mm|HoleType=Round|Shape=Rectangle|*
%AMROTATEDRECTD84*
4,1,4,0.5303,-1.5579,-1.5579,0.5303,-0.5303,1.5579,1.5579,-0.5303,0.5303,-1.5579,0.0*
%
%ADD84ROTATEDRECTD84*%

G04:AMPARAMS|DCode=85|XSize=5.7532mm|YSize=7.2032mm|CornerRadius=0mm|HoleSize=0mm|Usage=FLASHONLY|Rotation=45.000|XOffset=0mm|YOffset=0mm|HoleType=Round|Shape=Rectangle|*
%AMROTATEDRECTD85*
4,1,4,0.5127,-4.5808,-4.5808,0.5127,-0.5127,4.5808,4.5808,-0.5127,0.5127,-4.5808,0.0*
%
%ADD85ROTATEDRECTD85*%

%ADD86R,2.0532X1.7532*%
%ADD87R,1.4032X2.2032*%
%ADD88R,2.1532X1.5532*%
G04:AMPARAMS|DCode=89|XSize=2.7032mm|YSize=2.0032mm|CornerRadius=0.5516mm|HoleSize=0mm|Usage=FLASHONLY|Rotation=180.000|XOffset=0mm|YOffset=0mm|HoleType=Round|Shape=RoundedRectangle|*
%AMROUNDEDRECTD89*
21,1,2.7032,0.9000,0,0,180.0*
21,1,1.6000,2.0032,0,0,180.0*
1,1,1.1032,-0.8000,0.4500*
1,1,1.1032,0.8000,0.4500*
1,1,1.1032,0.8000,-0.4500*
1,1,1.1032,-0.8000,-0.4500*
%
%ADD89ROUNDEDRECTD89*%
G04:AMPARAMS|DCode=90|XSize=2.7032mm|YSize=2.0032mm|CornerRadius=0.5516mm|HoleSize=0mm|Usage=FLASHONLY|Rotation=240.000|XOffset=0mm|YOffset=0mm|HoleType=Round|Shape=RoundedRectangle|*
%AMROUNDEDRECTD90*
21,1,2.7032,0.9000,0,0,240.0*
21,1,1.6000,2.0032,0,0,240.0*
1,1,1.1032,-0.7897,-0.4678*
1,1,1.1032,0.0103,0.9178*
1,1,1.1032,0.7897,0.4678*
1,1,1.1032,-0.0103,-0.9178*
%
%ADD90ROUNDEDRECTD90*%
G04:AMPARAMS|DCode=91|XSize=2.7032mm|YSize=2.0032mm|CornerRadius=0.5516mm|HoleSize=0mm|Usage=FLASHONLY|Rotation=300.000|XOffset=0mm|YOffset=0mm|HoleType=Round|Shape=RoundedRectangle|*
%AMROUNDEDRECTD91*
21,1,2.7032,0.9000,0,0,300.0*
21,1,1.6000,2.0032,0,0,300.0*
1,1,1.1032,0.0103,-0.9178*
1,1,1.1032,-0.7897,0.4678*
1,1,1.1032,-0.0103,0.9178*
1,1,1.1032,0.7897,-0.4678*
%
%ADD91ROUNDEDRECTD91*%
G04:AMPARAMS|DCode=92|XSize=2.0532mm|YSize=1.3532mm|CornerRadius=0mm|HoleSize=0mm|Usage=FLASHONLY|Rotation=315.000|XOffset=0mm|YOffset=0mm|HoleType=Round|Shape=Rectangle|*
%AMROTATEDRECTD92*
4,1,4,-1.2043,0.2475,-0.2475,1.2043,1.2043,-0.2475,0.2475,-1.2043,-1.2043,0.2475,0.0*
%
%ADD92ROTATEDRECTD92*%

%ADD93O,1.9032X0.8032*%
%ADD94R,2.2032X4.2032*%
G04:AMPARAMS|DCode=95|XSize=4.7032mm|YSize=13.2032mm|CornerRadius=1.2266mm|HoleSize=0mm|Usage=FLASHONLY|Rotation=225.000|XOffset=0mm|YOffset=0mm|HoleType=Round|Shape=RoundedRectangle|*
%AMROUNDEDRECTD95*
21,1,4.7032,10.7500,0,0,225.0*
21,1,2.2500,13.2032,0,0,225.0*
1,1,2.4532,-4.5962,3.0052*
1,1,2.4532,-3.0052,4.5962*
1,1,2.4532,4.5962,-3.0052*
1,1,2.4532,3.0052,-4.5962*
%
%ADD95ROUNDEDRECTD95*%
G04:AMPARAMS|DCode=96|XSize=2.7032mm|YSize=2.7032mm|CornerRadius=0.7266mm|HoleSize=0mm|Usage=FLASHONLY|Rotation=300.000|XOffset=0mm|YOffset=0mm|HoleType=Round|Shape=RoundedRectangle|*
%AMROUNDEDRECTD96*
21,1,2.7032,1.2500,0,0,300.0*
21,1,1.2500,2.7032,0,0,300.0*
1,1,1.4532,-0.2288,-0.8538*
1,1,1.4532,-0.8538,0.2288*
1,1,1.4532,0.2288,0.8538*
1,1,1.4532,0.8538,-0.2288*
%
%ADD96ROUNDEDRECTD96*%
G04:AMPARAMS|DCode=97|XSize=2.7032mm|YSize=2.7032mm|CornerRadius=0.7266mm|HoleSize=0mm|Usage=FLASHONLY|Rotation=240.000|XOffset=0mm|YOffset=0mm|HoleType=Round|Shape=RoundedRectangle|*
%AMROUNDEDRECTD97*
21,1,2.7032,1.2500,0,0,240.0*
21,1,1.2500,2.7032,0,0,240.0*
1,1,1.4532,-0.8538,-0.2288*
1,1,1.4532,-0.2288,0.8538*
1,1,1.4532,0.8538,0.2288*
1,1,1.4532,0.2288,-0.8538*
%
%ADD97ROUNDEDRECTD97*%
G04:AMPARAMS|DCode=98|XSize=2.7032mm|YSize=2.7032mm|CornerRadius=0.7266mm|HoleSize=0mm|Usage=FLASHONLY|Rotation=180.000|XOffset=0mm|YOffset=0mm|HoleType=Round|Shape=RoundedRectangle|*
%AMROUNDEDRECTD98*
21,1,2.7032,1.2500,0,0,180.0*
21,1,1.2500,2.7032,0,0,180.0*
1,1,1.4532,-0.6250,0.6250*
1,1,1.4532,0.6250,0.6250*
1,1,1.4532,0.6250,-0.6250*
1,1,1.4532,-0.6250,-0.6250*
%
%ADD98ROUNDEDRECTD98*%
G04:AMPARAMS|DCode=99|XSize=2.3532mm|YSize=2.3032mm|CornerRadius=0mm|HoleSize=0mm|Usage=FLASHONLY|Rotation=315.000|XOffset=0mm|YOffset=0mm|HoleType=Round|Shape=Rectangle|*
%AMROTATEDRECTD99*
4,1,4,-1.6463,0.0177,-0.0177,1.6463,1.6463,-0.0177,0.0177,-1.6463,-1.6463,0.0177,0.0*
%
%ADD99ROTATEDRECTD99*%

%ADD100R,2.3032X2.3532*%
G04:AMPARAMS|DCode=101|XSize=2.0532mm|YSize=1.3532mm|CornerRadius=0mm|HoleSize=0mm|Usage=FLASHONLY|Rotation=300.000|XOffset=0mm|YOffset=0mm|HoleType=Round|Shape=Rectangle|*
%AMROTATEDRECTD101*
4,1,4,-1.0993,0.5508,0.0727,1.2274,1.0993,-0.5508,-0.0727,-1.2274,-1.0993,0.5508,0.0*
%
%ADD101ROTATEDRECTD101*%

G04:AMPARAMS|DCode=102|XSize=2.0532mm|YSize=1.3532mm|CornerRadius=0mm|HoleSize=0mm|Usage=FLASHONLY|Rotation=60.000|XOffset=0mm|YOffset=0mm|HoleType=Round|Shape=Rectangle|*
%AMROTATEDRECTD102*
4,1,4,0.0727,-1.2274,-1.0993,-0.5508,-0.0727,1.2274,1.0993,0.5508,0.0727,-1.2274,0.0*
%
%ADD102ROTATEDRECTD102*%

%ADD103O,3.2032X6.2032*%
D12*
X-78000Y310000D02*
Y325235D01*
X-85618D01*
X-88157Y322696D01*
Y317617D01*
X-85618Y315078D01*
X-78000D01*
X-83078D02*
X-88157Y310000D01*
X-100853D02*
X-95774D01*
X-93235Y312539D01*
Y317617D01*
X-95774Y320157D01*
X-100853D01*
X-103392Y317617D01*
Y315078D01*
X-93235D01*
X-108470Y320157D02*
X-113548Y310000D01*
X-118627Y320157D01*
X-146558Y310000D02*
Y325235D01*
X-138940Y317617D01*
X-149097D01*
X-154175Y310000D02*
Y312539D01*
X-156714D01*
Y310000D01*
X-154175D01*
X-166871D02*
X-171950D01*
X-169410D01*
Y325235D01*
X-166871Y322696D01*
D13*
X95000Y-249003D02*
X108329D01*
X101664Y-242339D02*
Y-255668D01*
X202000Y-255003D02*
X215329D01*
D28*
X246000Y155000D02*
D03*
X277000D02*
D03*
X-116000Y-225000D02*
D03*
X-147000D02*
D03*
X-70750Y220750D02*
D03*
X-101750D02*
D03*
X-93500Y271000D02*
D03*
X-62500D02*
D03*
X267000Y258000D02*
D03*
X236000D02*
D03*
D30*
X-96750Y186000D02*
D03*
X-71250Y176500D02*
D03*
Y195500D02*
D03*
D31*
X116000Y-194500D02*
D03*
Y-225500D02*
D03*
X295500Y-167750D02*
D03*
Y-136750D02*
D03*
X-174000Y-258500D02*
D03*
Y-289500D02*
D03*
X55000Y170500D02*
D03*
Y201500D02*
D03*
X-60000Y-197500D02*
D03*
Y-166500D02*
D03*
X275000Y10500D02*
D03*
X275000Y41500D02*
D03*
X235000Y-49500D02*
D03*
Y-80500D02*
D03*
X211000Y306500D02*
D03*
Y275500D02*
D03*
D32*
X290500Y-16000D02*
D03*
X320500Y-16000D02*
D03*
X316000Y-105000D02*
D03*
X286000D02*
D03*
D36*
X209000Y-6250D02*
D03*
X199500Y-31750D02*
D03*
X218500D02*
D03*
X240000Y38750D02*
D03*
X230500Y13250D02*
D03*
X249500Y13250D02*
D03*
X256000Y-137750D02*
D03*
X246500Y-163250D02*
D03*
X265500Y-163250D02*
D03*
X79500Y-171750D02*
D03*
X70000Y-197250D02*
D03*
X89000Y-197250D02*
D03*
D37*
X-40000Y271250D02*
D03*
X-6500D02*
D03*
D40*
X-108000Y-182000D02*
D03*
X-336000Y193000D02*
D03*
X351000Y182000D02*
D03*
D41*
X-295076Y-239308D02*
D03*
X-252076Y-281308D02*
D03*
X-280000Y230000D02*
D03*
X-235000Y273000D02*
D03*
D42*
X93000Y287000D02*
D03*
X173000D02*
D03*
X0Y-178000D02*
D03*
X154250Y-88750D02*
D03*
X154000Y89250D02*
D03*
X250Y178000D02*
D03*
X-154081Y89412D02*
D03*
X-154250Y-89250D02*
D03*
X97750Y56000D02*
D03*
X97428Y-56250D02*
D03*
X0Y-112250D02*
D03*
X-97250Y-56147D02*
D03*
X-97500Y56500D02*
D03*
X0Y112500D02*
D03*
Y0D02*
D03*
D43*
X-111500Y-259350D02*
D03*
X-123500Y-259350D02*
D03*
X-117500Y-267350D02*
D03*
X-111500Y-275350D02*
D03*
X-123500Y-275350D02*
D03*
X-117500Y-282350D02*
D03*
X-111500Y-289350D02*
D03*
X-123500D02*
D03*
D44*
X130000Y-255000D02*
D03*
X180000D02*
D03*
D45*
X346000Y33000D02*
D03*
Y78000D02*
D03*
X-137000Y273500D02*
D03*
X-136250Y211000D02*
D03*
X-302000Y-8500D02*
D03*
X-356000Y51000D02*
D03*
X265000Y-116000D02*
D03*
X283000Y62000D02*
D03*
X209000Y139000D02*
D03*
D46*
X-234000Y201500D02*
D03*
D47*
X-191781Y155063D02*
G03*
X-167746Y168608I1781J24936D01*
G01*
X-211326Y193046D02*
G03*
X-211071Y166545I21326J-13046D01*
G01*
X-167844Y191581D02*
G03*
X-192416Y204883I-22156J-11581D01*
G01*
X188219Y155063D02*
G03*
X212254Y168608I1781J24936D01*
G01*
X168674Y193046D02*
G03*
X168929Y166545I21326J-13046D01*
G01*
X212156Y191581D02*
G03*
X187584Y204883I-22156J-11581D01*
G01*
X188219Y-204936D02*
G03*
X212254Y-191392I1781J24936D01*
G01*
X168674Y-166954D02*
G03*
X168929Y-193455I21326J-13046D01*
G01*
X212156Y-168419D02*
G03*
X187584Y-155117I-22156J-11581D01*
G01*
X-191781Y-204936D02*
G03*
X-167746Y-191392I1781J24936D01*
G01*
X-211326Y-166954D02*
G03*
X-211071Y-193455I21326J-13046D01*
G01*
X-167844Y-168419D02*
G03*
X-192416Y-155117I-22156J-11581D01*
G01*
D82*
X-290879Y-241506D02*
D03*
X-256938Y-275447D02*
D03*
D83*
X-242029Y265971D02*
D03*
X-275970Y232029D02*
D03*
D84*
X-251826Y-105930D02*
D03*
X-284070Y-138174D02*
D03*
D85*
X-314164Y-75835D02*
D03*
D86*
X309000Y154500D02*
D03*
Y188000D02*
D03*
X270000Y222500D02*
D03*
Y189000D02*
D03*
D87*
X103000Y256000D02*
D03*
X143000D02*
D03*
X83000D02*
D03*
X163000D02*
D03*
X83000Y318000D02*
D03*
X163000D02*
D03*
X103000D02*
D03*
X143000D02*
D03*
D88*
X-62000Y-238000D02*
D03*
Y-268000D02*
D03*
X-180250Y249500D02*
D03*
X-180250Y279500D02*
D03*
D89*
X18000Y-197250D02*
D03*
X-18000D02*
D03*
X-17750Y197250D02*
D03*
X18250D02*
D03*
D90*
X179921Y-82787D02*
D03*
X161921Y-113963D02*
D03*
X-179752Y83448D02*
D03*
X-161752Y114625D02*
D03*
D91*
X161671Y114463D02*
D03*
X179671Y83287D02*
D03*
X-161921Y-114463D02*
D03*
X-179921Y-83287D02*
D03*
D92*
X-239040Y-138040D02*
D03*
X-260960Y-159960D02*
D03*
X314040Y-230960D02*
D03*
X335960Y-209040D02*
D03*
X294960Y-249040D02*
D03*
X273040Y-270960D02*
D03*
D93*
X-89000Y-255300D02*
D03*
Y-268000D02*
D03*
Y-280700D02*
D03*
X-89000Y-293400D02*
D03*
X-146000Y-255300D02*
D03*
Y-268000D02*
D03*
Y-280700D02*
D03*
Y-293400D02*
D03*
X283500Y-78050D02*
D03*
Y-65350D02*
D03*
X283500Y-52650D02*
D03*
Y-39950D02*
D03*
X340500Y-78050D02*
D03*
Y-65350D02*
D03*
X340500Y-52650D02*
D03*
Y-39950D02*
D03*
D94*
X-117500Y-274350D02*
D03*
D95*
X-278052Y-21052D02*
D03*
X-217948Y39052D02*
D03*
D96*
X126669Y51912D02*
D03*
X108669Y83088D02*
D03*
X-126169Y-52059D02*
D03*
X-108169Y-83236D02*
D03*
D97*
X108347Y-83338D02*
D03*
X126347Y-52162D02*
D03*
X-108419Y83588D02*
D03*
X-126419Y52412D02*
D03*
D98*
X-18000Y-135250D02*
D03*
X18000D02*
D03*
Y135500D02*
D03*
X-18000D02*
D03*
D99*
X-307264Y103736D02*
D03*
X-274737Y136264D02*
D03*
D100*
X96000Y-288000D02*
D03*
X50000D02*
D03*
X21000Y-287000D02*
D03*
X-25000Y-287000D02*
D03*
D101*
X174577Y29250D02*
D03*
X201423Y44750D02*
D03*
X-181673Y-43750D02*
D03*
X-154827Y-28250D02*
D03*
D102*
X-112577Y136250D02*
D03*
X-139423Y151750D02*
D03*
X138423Y-150750D02*
D03*
X111577Y-135250D02*
D03*
D103*
X130000Y-270000D02*
D03*
X180000D02*
D03*
M02*
