G04 Layer_Physical_Order=1*
G04 Layer_Color=255*
%FSLAX44Y44*%
%MOMM*%
G71*
G01*
G75*
%ADD10C,1.0000*%
%ADD11C,1.0000*%
%ADD12R,1.1500X1.8500*%
%ADD13O,4.0000X2.5000*%
%ADD14R,2.0000X1.5500*%
%ADD15R,1.5500X1.8500*%
%ADD16R,1.3500X1.9500*%
%ADD17R,1.8500X1.1500*%
%ADD18R,0.7500X1.1500*%
%ADD19R,1.1500X0.7500*%
%ADD20R,2.1500X2.1000*%
%ADD21R,4.0000X2.0000*%
%ADD22R,1.2000X2.0000*%
G04:AMPARAMS|DCode=23|XSize=4.5mm|YSize=13mm|CornerRadius=1.125mm|HoleSize=0mm|Usage=FLASHONLY|Rotation=180.000|XOffset=0mm|YOffset=0mm|HoleType=Round|Shape=RoundedRectangle|*
%AMROUNDEDRECTD23*
21,1,4.5000,10.7500,0,0,180.0*
21,1,2.2500,13.0000,0,0,180.0*
1,1,2.2500,-1.1250,5.3750*
1,1,2.2500,1.1250,5.3750*
1,1,2.2500,1.1250,-5.3750*
1,1,2.2500,-1.1250,-5.3750*
%
%ADD23ROUNDEDRECTD23*%
%ADD24C,1.5000*%
%ADD25C,2.5000*%
%ADD26C,0.6000*%
%ADD27C,0.8000*%
%ADD28C,2.0000*%
%ADD29C,0.5000*%
%ADD30C,2.0000*%
%ADD31C,2.5000*%
%ADD32C,1.2700*%
G36*
X-311970Y-158927D02*
X-311880Y-159951D01*
X-311730Y-160855D01*
X-311520Y-161639D01*
X-311250Y-162302D01*
X-310920Y-162845D01*
X-310530Y-163267D01*
X-310080Y-163570D01*
X-309570Y-163752D01*
X-309000Y-163813D01*
X-320217Y-163783D01*
X-319796Y-163723D01*
X-319419Y-163543D01*
X-319086Y-163243D01*
X-318798Y-162823D01*
X-318554Y-162283D01*
X-318355Y-161623D01*
X-318200Y-160843D01*
X-318089Y-159943D01*
X-318022Y-158923D01*
X-318000Y-157783D01*
X-312000D01*
X-311970Y-158927D01*
D02*
G37*
G36*
X273268Y-164687D02*
X272969Y-164185D01*
X272548Y-163890D01*
X272005Y-163801D01*
X271340Y-163919D01*
X270552Y-164243D01*
X269643Y-164774D01*
X268611Y-165511D01*
X267457Y-166454D01*
X264783Y-168960D01*
X264540Y-160717D01*
X265347Y-159879D01*
X266704Y-158266D01*
X267256Y-157491D01*
X267722Y-156737D01*
X268104Y-156004D01*
X268401Y-155293D01*
X268613Y-154602D01*
X268741Y-153932D01*
X268783Y-153283D01*
X273268Y-164687D01*
D02*
G37*
G36*
X237081Y-164015D02*
X236959Y-164158D01*
X236851Y-164398D01*
X236758Y-164732D01*
X236679Y-165163D01*
X236615Y-165689D01*
X236529Y-167028D01*
X236500Y-168750D01*
X230500D01*
X230493Y-167841D01*
X230321Y-165163D01*
X230242Y-164732D01*
X230149Y-164398D01*
X230041Y-164158D01*
X229919Y-164015D01*
X229783Y-163967D01*
X237217D01*
X237081Y-164015D01*
D02*
G37*
G36*
X-111797Y-147095D02*
X-111595Y-147180D01*
X-111325Y-147255D01*
X-110985Y-147320D01*
X-110577Y-147375D01*
X-109553Y-147455D01*
X-107500Y-147500D01*
Y-153500D01*
X-108253Y-153505D01*
X-110985Y-153680D01*
X-111325Y-153745D01*
X-111595Y-153820D01*
X-111797Y-153905D01*
X-111929Y-154000D01*
Y-147000D01*
X-111797Y-147095D01*
D02*
G37*
G36*
X-308151Y-143217D02*
X-308239Y-143243D01*
X-308408Y-143358D01*
X-308660Y-143561D01*
X-309906Y-144701D01*
X-312717Y-147460D01*
X-317121Y-143379D01*
X-316623Y-142877D01*
X-314699Y-140695D01*
X-314717Y-140651D01*
X-308151Y-143217D01*
D02*
G37*
G36*
X-260064Y-136485D02*
X-260156Y-136874D01*
X-260236Y-137451D01*
X-260366Y-139169D01*
X-260437Y-143217D01*
X-257783D01*
X-258299Y-143277D01*
X-258761Y-143457D01*
X-259169Y-143757D01*
X-259522Y-144177D01*
X-259821Y-144717D01*
X-260065Y-145377D01*
X-260256Y-146157D01*
X-260391Y-147057D01*
X-260473Y-148077D01*
X-260500Y-149217D01*
X-266500D01*
X-266530Y-148077D01*
X-266620Y-147057D01*
X-266770Y-146157D01*
X-266980Y-145377D01*
X-267250Y-144717D01*
X-267580Y-144177D01*
X-267970Y-143757D01*
X-268420Y-143457D01*
X-268930Y-143277D01*
X-269500Y-143217D01*
X-266681D01*
X-267038Y-136283D01*
X-259962D01*
X-260064Y-136485D01*
D02*
G37*
G36*
X255507Y-147673D02*
X255758Y-151573D01*
X255851Y-151993D01*
X255959Y-152293D01*
X256081Y-152473D01*
X256217Y-152533D01*
X248783D01*
X248919Y-152473D01*
X249041Y-152293D01*
X249149Y-151993D01*
X249242Y-151573D01*
X249321Y-151033D01*
X249436Y-149593D01*
X249500Y-146533D01*
X255500D01*
X255507Y-147673D01*
D02*
G37*
G36*
X296283Y-173717D02*
X296223Y-173581D01*
X296043Y-173459D01*
X295743Y-173351D01*
X295323Y-173258D01*
X294783Y-173179D01*
X293343Y-173065D01*
X290283Y-173000D01*
Y-167000D01*
X291423Y-166993D01*
X295323Y-166742D01*
X295743Y-166649D01*
X296043Y-166541D01*
X296223Y-166419D01*
X296283Y-166283D01*
Y-173717D01*
D02*
G37*
G36*
X311960Y-186283D02*
X311154Y-187111D01*
X309244Y-189349D01*
X308778Y-190013D01*
X308396Y-190636D01*
X308099Y-191218D01*
X307887Y-191758D01*
X307759Y-192258D01*
X307717Y-192717D01*
X300232Y-185313D01*
X300698Y-185648D01*
X301249Y-185813D01*
X301885Y-185809D01*
X302606Y-185635D01*
X303412Y-185292D01*
X304303Y-184781D01*
X305279Y-184099D01*
X306340Y-183249D01*
X308717Y-181040D01*
X311960Y-186283D01*
D02*
G37*
G36*
X-309570Y-182277D02*
X-310080Y-182457D01*
X-310530Y-182757D01*
X-310920Y-183177D01*
X-311250Y-183717D01*
X-311520Y-184377D01*
X-311730Y-185157D01*
X-311880Y-186057D01*
X-311970Y-187077D01*
X-312000Y-188217D01*
X-318000D01*
X-318022Y-187077D01*
X-318200Y-185157D01*
X-318355Y-184377D01*
X-318554Y-183717D01*
X-318798Y-183177D01*
X-319086Y-182757D01*
X-319419Y-182457D01*
X-319796Y-182277D01*
X-320217Y-182217D01*
X-309000D01*
X-309570Y-182277D01*
D02*
G37*
G36*
X246777Y-178407D02*
X246957Y-178741D01*
X247257Y-179036D01*
X247677Y-179292D01*
X248217Y-179508D01*
X248877Y-179685D01*
X249657Y-179823D01*
X250557Y-179921D01*
X252717Y-180000D01*
Y-186000D01*
X251573Y-186030D01*
X250549Y-186120D01*
X249645Y-186270D01*
X248862Y-186480D01*
X248198Y-186750D01*
X247655Y-187080D01*
X247233Y-187470D01*
X246930Y-187920D01*
X246748Y-188430D01*
X246686Y-189000D01*
X246717Y-178033D01*
X246777Y-178407D01*
D02*
G37*
G36*
X-119717Y-187217D02*
X-108000D01*
X-108570Y-187277D01*
X-109080Y-187457D01*
X-109530Y-187757D01*
X-109920Y-188177D01*
X-110250Y-188717D01*
X-110520Y-189377D01*
X-110730Y-190157D01*
X-110880Y-191057D01*
X-110970Y-192077D01*
X-111000Y-193217D01*
X-117000D01*
X-117027Y-192077D01*
X-117109Y-191057D01*
X-117245Y-190157D01*
X-117435Y-189377D01*
X-117679Y-188717D01*
X-117978Y-188177D01*
X-118331Y-187757D01*
X-118739Y-187457D01*
X-119201Y-187277D01*
X-119717Y-187217D01*
X-119777Y-186701D01*
X-119957Y-186239D01*
X-120257Y-185831D01*
X-120677Y-185478D01*
X-121217Y-185179D01*
X-121877Y-184935D01*
X-122657Y-184744D01*
X-123557Y-184609D01*
X-124250Y-184553D01*
X-124943Y-184609D01*
X-125843Y-184744D01*
X-126623Y-184935D01*
X-127283Y-185179D01*
X-127823Y-185478D01*
X-128243Y-185831D01*
X-128543Y-186239D01*
X-128723Y-186701D01*
X-128783Y-187217D01*
Y-175783D01*
X-128723Y-176299D01*
X-128543Y-176761D01*
X-128243Y-177169D01*
X-127823Y-177522D01*
X-127283Y-177821D01*
X-126623Y-178065D01*
X-125843Y-178256D01*
X-124943Y-178391D01*
X-124250Y-178447D01*
X-123557Y-178391D01*
X-122657Y-178256D01*
X-121877Y-178065D01*
X-121217Y-177821D01*
X-120677Y-177522D01*
X-120257Y-177169D01*
X-119957Y-176761D01*
X-119777Y-176299D01*
X-119717Y-175783D01*
Y-187217D01*
D02*
G37*
G36*
X-277755Y-164746D02*
X-277581Y-165219D01*
X-277290Y-165636D01*
X-276883Y-165998D01*
X-276360Y-166304D01*
X-275721Y-166555D01*
X-274965Y-166749D01*
X-274093Y-166889D01*
X-273105Y-166972D01*
X-272000Y-167000D01*
Y-173000D01*
X-273105Y-173028D01*
X-274093Y-173111D01*
X-274965Y-173251D01*
X-275721Y-173445D01*
X-276360Y-173696D01*
X-276883Y-174002D01*
X-277290Y-174364D01*
X-277581Y-174781D01*
X-277755Y-175254D01*
X-277813Y-175783D01*
Y-164217D01*
X-277755Y-164746D01*
D02*
G37*
G36*
X330775Y-170923D02*
X330972Y-172843D01*
X331145Y-173623D01*
X331367Y-174283D01*
X331638Y-174823D01*
X331959Y-175243D01*
X332329Y-175543D01*
X332748Y-175723D01*
X333217Y-175783D01*
X321783D01*
X322347Y-175723D01*
X322851Y-175543D01*
X323296Y-175243D01*
X323682Y-174823D01*
X324008Y-174283D01*
X324275Y-173623D01*
X324483Y-172843D01*
X324631Y-171943D01*
X324720Y-170923D01*
X324750Y-169783D01*
X330750D01*
X330775Y-170923D01*
D02*
G37*
G36*
X-92217Y-187217D02*
X-92277Y-186701D01*
X-92457Y-186239D01*
X-92757Y-185831D01*
X-93177Y-185478D01*
X-93717Y-185179D01*
X-94377Y-184935D01*
X-95157Y-184744D01*
X-96057Y-184609D01*
X-96750Y-184553D01*
X-97443Y-184609D01*
X-98343Y-184744D01*
X-99123Y-184935D01*
X-99783Y-185179D01*
X-100323Y-185478D01*
X-100743Y-185831D01*
X-101043Y-186239D01*
X-101223Y-186701D01*
X-101283Y-187217D01*
Y-175783D01*
X-101223Y-176299D01*
X-101043Y-176761D01*
X-100743Y-177169D01*
X-100323Y-177522D01*
X-99783Y-177821D01*
X-99123Y-178065D01*
X-98343Y-178256D01*
X-97443Y-178391D01*
X-96750Y-178447D01*
X-96057Y-178391D01*
X-95157Y-178256D01*
X-94377Y-178065D01*
X-93717Y-177821D01*
X-93177Y-177522D01*
X-92757Y-177169D01*
X-92457Y-176761D01*
X-92277Y-176299D01*
X-92217Y-175783D01*
Y-187217D01*
D02*
G37*
G36*
X-119717Y-147287D02*
X-119585Y-147255D01*
X-119365Y-147180D01*
X-119193Y-147095D01*
X-119071Y-147000D01*
Y-154000D01*
X-119193Y-153905D01*
X-119365Y-153820D01*
X-119585Y-153745D01*
X-119717Y-153713D01*
Y-156217D01*
X-119777Y-155701D01*
X-119957Y-155239D01*
X-120257Y-154831D01*
X-120677Y-154478D01*
X-121217Y-154179D01*
X-121877Y-153935D01*
X-122657Y-153744D01*
X-123557Y-153609D01*
X-124250Y-153553D01*
X-124943Y-153609D01*
X-125843Y-153744D01*
X-126623Y-153935D01*
X-127283Y-154179D01*
X-127823Y-154478D01*
X-128243Y-154831D01*
X-128543Y-155239D01*
X-128723Y-155701D01*
X-128783Y-156217D01*
Y-144783D01*
X-128723Y-145299D01*
X-128543Y-145761D01*
X-128243Y-146169D01*
X-127823Y-146522D01*
X-127283Y-146821D01*
X-126623Y-147065D01*
X-125843Y-147255D01*
X-124943Y-147391D01*
X-124250Y-147447D01*
X-123557Y-147391D01*
X-122657Y-147255D01*
X-121877Y-147065D01*
X-121217Y-146821D01*
X-120677Y-146522D01*
X-120257Y-146169D01*
X-119957Y-145761D01*
X-119777Y-145299D01*
X-119717Y-144783D01*
Y-147287D01*
D02*
G37*
G36*
X240691Y10750D02*
X240924Y9579D01*
X241587Y8587D01*
X242579Y7924D01*
X243583Y7724D01*
X243616Y7642D01*
X243738Y7192D01*
X243843Y6557D01*
X243883Y6115D01*
Y803D01*
X243851Y408D01*
X243751Y-251D01*
X243636Y-726D01*
X243601Y-820D01*
X243079Y-924D01*
X242805Y-1108D01*
X242794Y-1111D01*
X242774Y-1128D01*
X242087Y-1587D01*
X241894Y-1877D01*
X241885Y-1884D01*
X241873Y-1908D01*
X241424Y-2580D01*
X241358Y-2914D01*
X241341Y-2946D01*
X241334Y-3033D01*
X241191Y-3750D01*
Y-11250D01*
X241424Y-12421D01*
X242087Y-13413D01*
X243079Y-14076D01*
X244250Y-14309D01*
X255750D01*
X256921Y-14076D01*
X257913Y-13413D01*
X258576Y-12421D01*
X258809Y-11250D01*
Y-3750D01*
X258666Y-3033D01*
X258659Y-2946D01*
X258643Y-2914D01*
X258576Y-2580D01*
X258127Y-1908D01*
X258115Y-1884D01*
X258106Y-1877D01*
X257913Y-1587D01*
X257226Y-1128D01*
X257206Y-1111D01*
X257195Y-1108D01*
X256921Y-924D01*
X256399Y-820D01*
X256364Y-726D01*
X256249Y-251D01*
X256149Y408D01*
X256117Y803D01*
Y6385D01*
X256135Y6657D01*
X256222Y7357D01*
X256326Y7880D01*
X256334Y7907D01*
X256420Y7924D01*
X256742Y8139D01*
X256774Y8150D01*
X256819Y8190D01*
X257413Y8587D01*
X257612Y8886D01*
X257734Y8913D01*
X257964Y8885D01*
X258883Y8501D01*
Y7500D01*
X259348Y5159D01*
X260674Y3174D01*
X265674Y-1826D01*
X267659Y-3152D01*
X270000Y-3618D01*
X295265D01*
X296099Y-3660D01*
X296707Y-3726D01*
X296994Y-3774D01*
X297087Y-3913D01*
X297690Y-4315D01*
X297733Y-4354D01*
X297763Y-4364D01*
X298079Y-4576D01*
X298758Y-4711D01*
X298860Y-4746D01*
X298919Y-4743D01*
X299250Y-4809D01*
X306750D01*
X306892Y-4925D01*
Y-12245D01*
X306844Y-13041D01*
X306790Y-13452D01*
X306587Y-13587D01*
X306261Y-14076D01*
X306212Y-14126D01*
X306190Y-14182D01*
X305924Y-14579D01*
X305814Y-15135D01*
X305774Y-15236D01*
X305775Y-15329D01*
X305691Y-15750D01*
Y-27250D01*
X305924Y-28421D01*
X306587Y-29413D01*
X307579Y-30076D01*
X307763Y-30113D01*
X307638Y-31383D01*
X282534D01*
X281618Y-30466D01*
Y-25303D01*
X281649Y-24908D01*
X281749Y-24249D01*
X281864Y-23774D01*
X281899Y-23680D01*
X282421Y-23576D01*
X282695Y-23392D01*
X282706Y-23389D01*
X282726Y-23372D01*
X283413Y-22913D01*
X283606Y-22623D01*
X283615Y-22616D01*
X283627Y-22592D01*
X284076Y-21921D01*
X284142Y-21586D01*
X284159Y-21553D01*
X284166Y-21467D01*
X284309Y-20750D01*
Y-13250D01*
X284076Y-12079D01*
X283413Y-11087D01*
X282421Y-10424D01*
X281250Y-10191D01*
X269750D01*
X268580Y-10424D01*
X267587Y-11087D01*
X266924Y-12079D01*
X266691Y-13250D01*
Y-20750D01*
X266834Y-21467D01*
X266841Y-21553D01*
X266858Y-21586D01*
X266924Y-21921D01*
X267373Y-22592D01*
X267385Y-22616D01*
X267393Y-22623D01*
X267587Y-22913D01*
X268274Y-23372D01*
X268294Y-23389D01*
X268305Y-23392D01*
X268580Y-23576D01*
X269101Y-23680D01*
X269136Y-23774D01*
X269251Y-24249D01*
X269351Y-24908D01*
X269382Y-25303D01*
Y-33000D01*
X269848Y-35341D01*
X271174Y-37326D01*
X275674Y-41826D01*
X277659Y-43152D01*
X280000Y-43618D01*
X304382D01*
Y-64197D01*
X304351Y-64592D01*
X304251Y-65251D01*
X304136Y-65726D01*
X304101Y-65820D01*
X303580Y-65924D01*
X303305Y-66108D01*
X303294Y-66111D01*
X303274Y-66128D01*
X302587Y-66587D01*
X302393Y-66877D01*
X302385Y-66884D01*
X302373Y-66908D01*
X301924Y-67579D01*
X301858Y-67914D01*
X301841Y-67947D01*
X301834Y-68033D01*
X301691Y-68750D01*
Y-87250D01*
X301924Y-88420D01*
X302587Y-89413D01*
X303580Y-90076D01*
X304750Y-90309D01*
X316250D01*
X317421Y-90076D01*
X318413Y-89413D01*
X319076Y-88420D01*
X319309Y-87250D01*
Y-68750D01*
X319166Y-68033D01*
X319159Y-67947D01*
X319142Y-67914D01*
X319076Y-67579D01*
X318627Y-66908D01*
X318615Y-66884D01*
X318607Y-66877D01*
X318413Y-66587D01*
X317726Y-66128D01*
X317706Y-66111D01*
X317695Y-66108D01*
X317421Y-65924D01*
X316899Y-65820D01*
X316864Y-65726D01*
X316749Y-65251D01*
X316649Y-64592D01*
X316618Y-64197D01*
Y-43618D01*
X326500D01*
X328841Y-43152D01*
X330826Y-41826D01*
X336326Y-36326D01*
X337652Y-34341D01*
X338117Y-32000D01*
Y-6000D01*
X337652Y-3659D01*
X336326Y-1674D01*
X330780Y3872D01*
X330254Y4467D01*
X329566Y5336D01*
X329046Y6091D01*
X328809Y6508D01*
Y9750D01*
X328576Y10920D01*
X328463Y11089D01*
X329450Y11899D01*
X351133Y-9784D01*
Y-24259D01*
X351113Y-24492D01*
X351044Y-24544D01*
X349762Y-26216D01*
X348956Y-28162D01*
X348681Y-30250D01*
X348956Y-32338D01*
X349762Y-34285D01*
X351044Y-35956D01*
X352715Y-37238D01*
X354662Y-38044D01*
X356750Y-38319D01*
X356904Y-38299D01*
X357250Y-38368D01*
X359591Y-37902D01*
X360259Y-37456D01*
X360612Y-37309D01*
X361883Y-37799D01*
Y-91466D01*
X335041Y-118308D01*
X333867Y-117822D01*
Y-112784D01*
X345826Y-100826D01*
X347152Y-98841D01*
X347617Y-96500D01*
Y-91804D01*
X347649Y-91407D01*
X347749Y-90749D01*
X347864Y-90274D01*
X347899Y-90180D01*
X348420Y-90076D01*
X348695Y-89892D01*
X348706Y-89889D01*
X348726Y-89872D01*
X349413Y-89413D01*
X349607Y-89123D01*
X349615Y-89116D01*
X349627Y-89092D01*
X350076Y-88420D01*
X350143Y-88086D01*
X350159Y-88054D01*
X350166Y-87967D01*
X350309Y-87250D01*
Y-68750D01*
X350076Y-67579D01*
X349413Y-66587D01*
X348420Y-65924D01*
X347250Y-65691D01*
X335750D01*
X334580Y-65924D01*
X333587Y-66587D01*
X332924Y-67579D01*
X332691Y-68750D01*
Y-87250D01*
X332834Y-87967D01*
X332841Y-88054D01*
X332858Y-88086D01*
X332924Y-88420D01*
X333373Y-89092D01*
X333385Y-89116D01*
X333394Y-89123D01*
X333587Y-89413D01*
X334274Y-89872D01*
X334294Y-89889D01*
X334305Y-89892D01*
X334580Y-90076D01*
X335101Y-90180D01*
X335136Y-90274D01*
X335251Y-90749D01*
X335351Y-91407D01*
X335382Y-91804D01*
Y-93966D01*
X323424Y-105924D01*
X322098Y-107909D01*
X321632Y-110250D01*
Y-146840D01*
X320363Y-147226D01*
X319326Y-145674D01*
X311117Y-137466D01*
Y-133962D01*
X311121Y-133811D01*
X311220Y-132560D01*
X311240Y-132423D01*
X311576Y-131920D01*
X311809Y-130750D01*
Y-119250D01*
X311576Y-118080D01*
X310913Y-117087D01*
X309921Y-116424D01*
X308750Y-116191D01*
X301250D01*
X300533Y-116334D01*
X300446Y-116341D01*
X300414Y-116358D01*
X300079Y-116424D01*
X299408Y-116873D01*
X299384Y-116885D01*
X299377Y-116894D01*
X299087Y-117087D01*
X298628Y-117774D01*
X298611Y-117794D01*
X298608Y-117805D01*
X298424Y-118080D01*
X298320Y-118601D01*
X298226Y-118636D01*
X297751Y-118751D01*
X297092Y-118851D01*
X296696Y-118883D01*
X294303D01*
X293908Y-118851D01*
X293249Y-118751D01*
X292774Y-118636D01*
X292680Y-118601D01*
X292576Y-118080D01*
X292392Y-117805D01*
X292389Y-117794D01*
X292372Y-117774D01*
X291913Y-117087D01*
X291623Y-116894D01*
X291616Y-116885D01*
X291592Y-116873D01*
X290921Y-116424D01*
X290586Y-116358D01*
X290553Y-116341D01*
X290467Y-116334D01*
X289750Y-116191D01*
X282250D01*
X281080Y-116424D01*
X280087Y-117087D01*
X279424Y-118080D01*
X279191Y-119250D01*
Y-130750D01*
X279424Y-131920D01*
X280087Y-132913D01*
X281080Y-133576D01*
X282250Y-133809D01*
X289750D01*
X290467Y-133666D01*
X290553Y-133659D01*
X290586Y-133643D01*
X290921Y-133576D01*
X291592Y-133127D01*
X291616Y-133115D01*
X291623Y-133106D01*
X291913Y-132913D01*
X292372Y-132226D01*
X292389Y-132206D01*
X292392Y-132195D01*
X292576Y-131920D01*
X292680Y-131399D01*
X292774Y-131364D01*
X293249Y-131249D01*
X293908Y-131149D01*
X294303Y-131117D01*
X296696D01*
X297092Y-131149D01*
X297751Y-131249D01*
X298226Y-131364D01*
X298320Y-131399D01*
X298424Y-131920D01*
X298608Y-132195D01*
X298611Y-132206D01*
X298628Y-132226D01*
X298721Y-132365D01*
X298883Y-134873D01*
Y-140000D01*
X299348Y-142341D01*
X300674Y-144326D01*
X308883Y-152534D01*
Y-162416D01*
X307901Y-163221D01*
X307750Y-163191D01*
X296250D01*
X295079Y-163424D01*
X294635Y-163721D01*
X292127Y-163883D01*
X290309D01*
Y-153250D01*
X290076Y-152079D01*
X289413Y-151087D01*
X288421Y-150424D01*
X287250Y-150191D01*
X268750D01*
X267579Y-150424D01*
X266587Y-151087D01*
X265924Y-152079D01*
X265691Y-153250D01*
Y-153594D01*
X265640Y-153865D01*
X265521Y-154252D01*
X265331Y-154706D01*
X265062Y-155224D01*
X264707Y-155798D01*
X264284Y-156391D01*
X263363Y-157486D01*
X260482Y-160366D01*
X259309Y-159880D01*
Y-152500D01*
X259076Y-151329D01*
X258779Y-150885D01*
X258617Y-148377D01*
Y-140500D01*
X258152Y-138159D01*
X256826Y-136174D01*
X255471Y-134820D01*
X254977Y-134256D01*
X254809Y-134040D01*
Y-126096D01*
X254945Y-125974D01*
X256079Y-125541D01*
X258444Y-127355D01*
X261606Y-128665D01*
X265000Y-129112D01*
X268394Y-128665D01*
X271556Y-127355D01*
X274272Y-125272D01*
X276355Y-122556D01*
X277665Y-119394D01*
X278112Y-116000D01*
X277665Y-112606D01*
X276355Y-109444D01*
X274272Y-106728D01*
X271556Y-104644D01*
X268394Y-103335D01*
X265000Y-102888D01*
X261606Y-103335D01*
X258444Y-104644D01*
X255824Y-106655D01*
X255479Y-106571D01*
X254650Y-106047D01*
X254809Y-105250D01*
Y-93750D01*
X254576Y-92579D01*
X253913Y-91587D01*
X252920Y-90924D01*
X251750Y-90691D01*
X248895D01*
X248885Y-90667D01*
X248763Y-90211D01*
X248657Y-89570D01*
X248617Y-89122D01*
Y-86115D01*
X248635Y-85843D01*
X248722Y-85143D01*
X248826Y-84620D01*
X248834Y-84593D01*
X248920Y-84576D01*
X249242Y-84361D01*
X249274Y-84350D01*
X249319Y-84310D01*
X249913Y-83913D01*
X250138Y-83576D01*
X250163Y-83553D01*
X250189Y-83500D01*
X250576Y-82921D01*
X250653Y-82533D01*
X250680Y-82477D01*
X250686Y-82369D01*
X250809Y-81750D01*
Y-63250D01*
X250576Y-62080D01*
X249913Y-61087D01*
X248920Y-60424D01*
X247750Y-60191D01*
X241804D01*
X241150Y-59733D01*
X239386Y-58235D01*
X228837Y-47685D01*
X228913Y-46913D01*
X229576Y-45921D01*
X229809Y-44750D01*
Y-27620D01*
X230982Y-27134D01*
X234674Y-30826D01*
X236659Y-32152D01*
X239000Y-32617D01*
X241330D01*
X242123Y-32664D01*
X242530Y-32709D01*
X243079Y-33076D01*
X244250Y-33309D01*
X255750D01*
X256921Y-33076D01*
X257913Y-32413D01*
X258576Y-31421D01*
X258809Y-30250D01*
Y-22750D01*
X258576Y-21579D01*
X257913Y-20587D01*
X256921Y-19924D01*
X255750Y-19691D01*
X244250D01*
X243079Y-19924D01*
X242614Y-20235D01*
X241470Y-20319D01*
X230868Y-9716D01*
X230382Y-9162D01*
X229732Y-8334D01*
X229232Y-7599D01*
X228877Y-6972D01*
X228809Y-6816D01*
Y1750D01*
X228576Y2921D01*
X227913Y3913D01*
X227342Y4294D01*
X227322Y4347D01*
Y5653D01*
X227342Y5706D01*
X227913Y6087D01*
X228576Y7079D01*
X228809Y8250D01*
Y26750D01*
X228637Y27612D01*
X229344Y28883D01*
X240691D01*
Y10750D01*
D02*
G37*
G36*
X313527Y-63923D02*
X313609Y-64943D01*
X313745Y-65843D01*
X313935Y-66623D01*
X314179Y-67283D01*
X314478Y-67823D01*
X314831Y-68243D01*
X315239Y-68543D01*
X315701Y-68723D01*
X316217Y-68783D01*
X304783D01*
X305299Y-68723D01*
X305761Y-68543D01*
X306169Y-68243D01*
X306522Y-67823D01*
X306821Y-67283D01*
X307065Y-66623D01*
X307255Y-65843D01*
X307391Y-64943D01*
X307473Y-63923D01*
X307500Y-62783D01*
X313500D01*
X313527Y-63923D01*
D02*
G37*
G36*
X237038Y-60254D02*
X239278Y-62157D01*
X240263Y-62846D01*
X241156Y-63361D01*
X241959Y-63700D01*
X242672Y-63866D01*
X243295Y-63856D01*
X243827Y-63672D01*
X244268Y-63313D01*
X236313Y-72268D01*
X236627Y-71782D01*
X236777Y-71215D01*
X236761Y-70568D01*
X236581Y-69840D01*
X236236Y-69032D01*
X235726Y-68143D01*
X235052Y-67174D01*
X234213Y-66124D01*
X232040Y-63783D01*
X235783Y-59040D01*
X237038Y-60254D01*
D02*
G37*
G36*
X322184Y-5103D02*
X324032Y-6684D01*
X325882Y-8534D01*
Y-29466D01*
X323966Y-31383D01*
X317362D01*
X317237Y-30113D01*
X317421Y-30076D01*
X318413Y-29413D01*
X319076Y-28421D01*
X319309Y-27250D01*
Y-15750D01*
X319225Y-15329D01*
X319226Y-15236D01*
X319186Y-15135D01*
X319076Y-14579D01*
X318810Y-14182D01*
X318788Y-14126D01*
X318739Y-14076D01*
X318413Y-13587D01*
X318221Y-13459D01*
X318108Y-12063D01*
Y-4925D01*
X318250Y-4809D01*
X321768D01*
X322184Y-5103D01*
D02*
G37*
G36*
X280701Y-20777D02*
X280239Y-20957D01*
X279831Y-21257D01*
X279478Y-21677D01*
X279179Y-22217D01*
X278935Y-22877D01*
X278745Y-23657D01*
X278609Y-24557D01*
X278527Y-25577D01*
X278500Y-26717D01*
X272500D01*
X272473Y-25577D01*
X272391Y-24557D01*
X272255Y-23657D01*
X272065Y-22877D01*
X271821Y-22217D01*
X271522Y-21677D01*
X271169Y-21257D01*
X270761Y-20957D01*
X270299Y-20777D01*
X269783Y-20717D01*
X281217D01*
X280701Y-20777D01*
D02*
G37*
G36*
X360250Y-23679D02*
X360253Y-24246D01*
X360416Y-26573D01*
X360467Y-26782D01*
X360525Y-26940D01*
X360590Y-27047D01*
X353625Y-26347D01*
X353743Y-26223D01*
X353850Y-26050D01*
X353944Y-25828D01*
X354025Y-25558D01*
X354094Y-25240D01*
X354150Y-24873D01*
X354225Y-23993D01*
X354250Y-22920D01*
X360250Y-23679D01*
D02*
G37*
G36*
X244283Y-30217D02*
X244230Y-30081D01*
X244072Y-29959D01*
X243808Y-29851D01*
X243438Y-29758D01*
X242962Y-29679D01*
X242381Y-29615D01*
X240902Y-29529D01*
X239000Y-29500D01*
Y-23500D01*
X240004Y-23493D01*
X243438Y-23242D01*
X243808Y-23149D01*
X244072Y-23041D01*
X244230Y-22919D01*
X244283Y-22783D01*
Y-30217D01*
D02*
G37*
G36*
X247296Y-81777D02*
X246919Y-81957D01*
X246586Y-82257D01*
X246298Y-82677D01*
X246054Y-83217D01*
X245855Y-83877D01*
X245700Y-84657D01*
X245589Y-85557D01*
X245522Y-86577D01*
X245500Y-87717D01*
X239500D01*
X239470Y-86577D01*
X239380Y-85557D01*
X239230Y-84657D01*
X239020Y-83877D01*
X238750Y-83217D01*
X238420Y-82677D01*
X238030Y-82257D01*
X237580Y-81957D01*
X237070Y-81777D01*
X236500Y-81717D01*
X247717D01*
X247296Y-81777D01*
D02*
G37*
G36*
X-257683Y-124132D02*
X-257383Y-124891D01*
X-256883Y-125561D01*
X-256183Y-126142D01*
X-255283Y-126633D01*
X-254183Y-127035D01*
X-252883Y-127348D01*
X-251383Y-127571D01*
X-249683Y-127705D01*
X-247783Y-127750D01*
Y-137750D01*
X-249688Y-137800D01*
X-251392Y-137950D01*
X-252895Y-138200D01*
X-254199Y-138550D01*
X-255302Y-139000D01*
X-256205Y-139550D01*
X-256908Y-140200D01*
X-257410Y-140950D01*
X-257712Y-141800D01*
X-257814Y-142750D01*
X-257783Y-123283D01*
X-257683Y-124132D01*
D02*
G37*
G36*
X-82990Y-136687D02*
X-82840Y-138391D01*
X-82590Y-139894D01*
X-82240Y-141197D01*
X-81790Y-142301D01*
X-81240Y-143203D01*
X-80590Y-143906D01*
X-79840Y-144409D01*
X-78990Y-144711D01*
X-78040Y-144813D01*
X-92217Y-144783D01*
X-93040Y-134783D01*
X-83040D01*
X-82990Y-136687D01*
D02*
G37*
G36*
X-92217Y-146995D02*
X-91573Y-146962D01*
Y-154038D01*
X-91775Y-153936D01*
X-92164Y-153844D01*
X-92217Y-153837D01*
Y-156217D01*
X-92277Y-155701D01*
X-92457Y-155239D01*
X-92757Y-154831D01*
X-93177Y-154478D01*
X-93717Y-154179D01*
X-94377Y-153935D01*
X-95157Y-153744D01*
X-96057Y-153609D01*
X-96098Y-153605D01*
X-97165Y-153587D01*
X-97443Y-153609D01*
X-98343Y-153744D01*
X-99123Y-153935D01*
X-99783Y-154179D01*
X-100323Y-154478D01*
X-100743Y-154831D01*
X-101043Y-155239D01*
X-101223Y-155701D01*
X-101283Y-156217D01*
Y-153513D01*
X-102040Y-153500D01*
Y-147500D01*
X-101283Y-147461D01*
Y-144783D01*
X-101223Y-145299D01*
X-101043Y-145761D01*
X-100743Y-146169D01*
X-100323Y-146522D01*
X-99783Y-146821D01*
X-99123Y-147065D01*
X-98343Y-147255D01*
X-98073Y-147296D01*
X-94590Y-147117D01*
X-94377Y-147065D01*
X-93717Y-146821D01*
X-93177Y-146522D01*
X-92757Y-146169D01*
X-92457Y-145761D01*
X-92277Y-145299D01*
X-92217Y-144783D01*
Y-146995D01*
D02*
G37*
G36*
X251207Y-131528D02*
X250874Y-131916D01*
X250720Y-132398D01*
X250744Y-132973D01*
X250945Y-133642D01*
X251324Y-134403D01*
X251882Y-135257D01*
X252617Y-136205D01*
X253530Y-137245D01*
X254621Y-138379D01*
X248217Y-140460D01*
X247144Y-139429D01*
X245148Y-137772D01*
X244225Y-137146D01*
X243351Y-136655D01*
X242528Y-136298D01*
X241754Y-136075D01*
X241030Y-135988D01*
X240356Y-136035D01*
X239732Y-136217D01*
X251717Y-131232D01*
X251207Y-131528D01*
D02*
G37*
G36*
X346701Y-87277D02*
X346239Y-87457D01*
X345831Y-87757D01*
X345478Y-88177D01*
X345179Y-88717D01*
X344935Y-89377D01*
X344744Y-90157D01*
X344609Y-91057D01*
X344527Y-92077D01*
X344500Y-93217D01*
X338500D01*
X338473Y-92077D01*
X338391Y-91057D01*
X338256Y-90157D01*
X338065Y-89377D01*
X337821Y-88717D01*
X337522Y-88177D01*
X337169Y-87757D01*
X336761Y-87457D01*
X336299Y-87277D01*
X335783Y-87217D01*
X347217D01*
X346701Y-87277D01*
D02*
G37*
G36*
X245530Y-88929D02*
X245620Y-89954D01*
X245770Y-90858D01*
X245980Y-91643D01*
X246250Y-92306D01*
X246580Y-92849D01*
X246970Y-93271D01*
X247420Y-93572D01*
X247930Y-93753D01*
X248500Y-93813D01*
X236500D01*
X237070Y-93753D01*
X237580Y-93572D01*
X238030Y-93271D01*
X238420Y-92849D01*
X238750Y-92306D01*
X239020Y-91643D01*
X239230Y-90858D01*
X239380Y-89954D01*
X239470Y-88929D01*
X239500Y-87783D01*
X245500D01*
X245530Y-88929D01*
D02*
G37*
G36*
X301283Y-130717D02*
X308717D01*
X308581Y-130777D01*
X308459Y-130957D01*
X308351Y-131257D01*
X308258Y-131677D01*
X308179Y-132217D01*
X308064Y-133657D01*
X308000Y-136717D01*
X302000D01*
X301993Y-135577D01*
X301742Y-131677D01*
X301649Y-131257D01*
X301541Y-130957D01*
X301419Y-130777D01*
X301283Y-130717D01*
X301223Y-130201D01*
X301043Y-129739D01*
X300743Y-129331D01*
X300323Y-128978D01*
X299783Y-128679D01*
X299123Y-128435D01*
X298343Y-128244D01*
X297443Y-128109D01*
X296423Y-128027D01*
X295500Y-128005D01*
X294577Y-128027D01*
X293557Y-128109D01*
X292657Y-128244D01*
X291877Y-128435D01*
X291217Y-128679D01*
X290677Y-128978D01*
X290257Y-129331D01*
X289957Y-129739D01*
X289777Y-130201D01*
X289717Y-130717D01*
Y-119283D01*
X289777Y-119799D01*
X289957Y-120261D01*
X290257Y-120669D01*
X290677Y-121022D01*
X291217Y-121321D01*
X291877Y-121565D01*
X292657Y-121756D01*
X293557Y-121891D01*
X294577Y-121973D01*
X295500Y-121995D01*
X296423Y-121973D01*
X297443Y-121891D01*
X298343Y-121756D01*
X299123Y-121565D01*
X299783Y-121321D01*
X300323Y-121022D01*
X300743Y-120669D01*
X301043Y-120261D01*
X301223Y-119799D01*
X301283Y-119283D01*
Y-130717D01*
D02*
G37*
G36*
X-37340Y-232556D02*
X-33653Y-235737D01*
X-32573Y-236515D01*
X-31567Y-237152D01*
X-30635Y-237647D01*
X-29776Y-238000D01*
X-28993Y-238212D01*
X-28283Y-238283D01*
X-41687Y-249425D01*
X-41066Y-248708D01*
X-40740Y-247837D01*
X-40711Y-246810D01*
X-40977Y-245628D01*
X-41540Y-244292D01*
X-42398Y-242800D01*
X-43552Y-241153D01*
X-45001Y-239352D01*
X-48788Y-235283D01*
X-38717Y-231212D01*
X-37340Y-232556D01*
D02*
G37*
G36*
X264277Y-241799D02*
X264457Y-242261D01*
X264757Y-242669D01*
X265177Y-243022D01*
X265717Y-243321D01*
X266377Y-243565D01*
X267157Y-243755D01*
X268057Y-243891D01*
X269077Y-243973D01*
X270217Y-244000D01*
Y-250000D01*
X269077Y-250027D01*
X268057Y-250109D01*
X267157Y-250245D01*
X266377Y-250435D01*
X265717Y-250679D01*
X265177Y-250978D01*
X264757Y-251331D01*
X264457Y-251739D01*
X264277Y-252201D01*
X264217Y-252717D01*
Y-241283D01*
X264277Y-241799D01*
D02*
G37*
G36*
X-71686Y-254000D02*
X-71747Y-253430D01*
X-71928Y-252920D01*
X-72229Y-252470D01*
X-72651Y-252080D01*
X-73194Y-251750D01*
X-73857Y-251480D01*
X-74641Y-251270D01*
X-75546Y-251120D01*
X-76571Y-251030D01*
X-77717Y-251000D01*
Y-245000D01*
X-76571Y-244970D01*
X-75546Y-244880D01*
X-74641Y-244730D01*
X-73857Y-244520D01*
X-73194Y-244250D01*
X-72651Y-243920D01*
X-72229Y-243530D01*
X-71928Y-243080D01*
X-71747Y-242570D01*
X-71686Y-242000D01*
Y-254000D01*
D02*
G37*
G36*
X-230937Y-245033D02*
X-230967Y-245027D01*
X-231059Y-245021D01*
X-234000Y-245000D01*
Y-239000D01*
X-230937Y-238967D01*
Y-245033D01*
D02*
G37*
G36*
X240960Y-242448D02*
X239821Y-243629D01*
X238018Y-245769D01*
X237353Y-246729D01*
X236847Y-247614D01*
X236499Y-248426D01*
X236308Y-249163D01*
X236276Y-249827D01*
X236402Y-250417D01*
X236686Y-250933D01*
X229397Y-241313D01*
X229809Y-241702D01*
X230317Y-241909D01*
X230923Y-241935D01*
X231626Y-241780D01*
X232426Y-241443D01*
X233323Y-240925D01*
X234317Y-240226D01*
X235409Y-239345D01*
X237882Y-237040D01*
X240960Y-242448D01*
D02*
G37*
G36*
X-194549Y-236277D02*
X-195011Y-236457D01*
X-195419Y-236757D01*
X-195772Y-237177D01*
X-196071Y-237717D01*
X-196315Y-238377D01*
X-196506Y-239157D01*
X-196641Y-240057D01*
X-196723Y-241077D01*
X-196750Y-242217D01*
X-202750D01*
X-202777Y-241077D01*
X-202859Y-240057D01*
X-202994Y-239157D01*
X-203185Y-238377D01*
X-203429Y-237717D01*
X-203728Y-237177D01*
X-204081Y-236757D01*
X-204489Y-236457D01*
X-204951Y-236277D01*
X-205467Y-236217D01*
X-194033D01*
X-194549Y-236277D01*
D02*
G37*
G36*
X-108799Y-223277D02*
X-109261Y-223457D01*
X-109669Y-223757D01*
X-110022Y-224177D01*
X-110321Y-224717D01*
X-110565Y-225377D01*
X-110756Y-226157D01*
X-110891Y-227057D01*
X-110973Y-228077D01*
X-110979Y-228340D01*
X-110958Y-228940D01*
X-110830Y-230087D01*
X-110618Y-231199D01*
X-110321Y-232276D01*
X-109939Y-233318D01*
X-109473Y-234325D01*
X-108921Y-235296D01*
X-108285Y-236233D01*
X-107563Y-237134D01*
X-106757Y-238000D01*
X-111000Y-242243D01*
X-111866Y-241437D01*
X-112767Y-240715D01*
X-113704Y-240079D01*
X-114675Y-239527D01*
X-115682Y-239061D01*
X-116724Y-238679D01*
X-117801Y-238382D01*
X-118913Y-238170D01*
X-120060Y-238042D01*
X-121243Y-238000D01*
X-123000Y-232000D01*
X-121860Y-231940D01*
X-120840Y-231760D01*
X-119940Y-231460D01*
X-119160Y-231040D01*
X-118500Y-230500D01*
X-117960Y-229840D01*
X-117540Y-229060D01*
X-117240Y-228160D01*
X-117089Y-227304D01*
X-117109Y-227057D01*
X-117245Y-226157D01*
X-117435Y-225377D01*
X-117679Y-224717D01*
X-117978Y-224177D01*
X-118331Y-223757D01*
X-118739Y-223457D01*
X-119201Y-223277D01*
X-119717Y-223217D01*
X-108283D01*
X-108799Y-223277D01*
D02*
G37*
G36*
X-28233Y-240260D02*
X-27992Y-240940D01*
X-27591Y-241540D01*
X-27029Y-242060D01*
X-26306Y-242500D01*
X-25422Y-242860D01*
X-24378Y-243140D01*
X-23174Y-243340D01*
X-21809Y-243460D01*
X-20283Y-243500D01*
Y-251500D01*
X-21809Y-251540D01*
X-23174Y-251660D01*
X-24378Y-251860D01*
X-25422Y-252140D01*
X-26306Y-252500D01*
X-27029Y-252940D01*
X-27591Y-253460D01*
X-27992Y-254060D01*
X-28233Y-254740D01*
X-28314Y-255500D01*
Y-239500D01*
X-28233Y-240260D01*
D02*
G37*
G36*
X245783Y-283717D02*
X245703Y-283391D01*
X245463Y-283099D01*
X245063Y-282841D01*
X244503Y-282618D01*
X243783Y-282429D01*
X242903Y-282275D01*
X241863Y-282155D01*
X241528Y-282136D01*
X239597Y-282275D01*
X238717Y-282429D01*
X237997Y-282618D01*
X237437Y-282841D01*
X237037Y-283099D01*
X236797Y-283391D01*
X236717Y-283717D01*
Y-272283D01*
X236797Y-272609D01*
X237037Y-272901D01*
X237437Y-273159D01*
X237997Y-273382D01*
X238717Y-273571D01*
X239597Y-273725D01*
X240637Y-273846D01*
X240972Y-273863D01*
X242903Y-273725D01*
X243783Y-273571D01*
X244503Y-273382D01*
X245063Y-273159D01*
X245463Y-272901D01*
X245703Y-272609D01*
X245783Y-272283D01*
Y-283717D01*
D02*
G37*
G36*
X218314Y-283283D02*
X218260Y-283039D01*
X218101Y-282821D01*
X217835Y-282629D01*
X217463Y-282462D01*
X216985Y-282321D01*
X216401Y-282205D01*
X215710Y-282115D01*
X214010Y-282013D01*
X213000Y-282000D01*
Y-274000D01*
X214010Y-273987D01*
X216401Y-273795D01*
X216985Y-273679D01*
X217463Y-273538D01*
X217835Y-273371D01*
X218101Y-273179D01*
X218260Y-272961D01*
X218314Y-272717D01*
Y-283283D01*
D02*
G37*
G36*
X264277Y-272799D02*
X264457Y-273261D01*
X264757Y-273669D01*
X265177Y-274022D01*
X265717Y-274321D01*
X266377Y-274565D01*
X267157Y-274755D01*
X268057Y-274891D01*
X269077Y-274973D01*
X270217Y-275000D01*
Y-281000D01*
X269077Y-281027D01*
X268057Y-281109D01*
X267157Y-281245D01*
X266377Y-281435D01*
X265717Y-281679D01*
X265177Y-281978D01*
X264757Y-282331D01*
X264457Y-282739D01*
X264277Y-283201D01*
X264217Y-283717D01*
Y-272283D01*
X264277Y-272799D01*
D02*
G37*
G36*
X61314Y-283000D02*
X61233Y-282240D01*
X60992Y-281560D01*
X60591Y-280960D01*
X60029Y-280440D01*
X59306Y-280000D01*
X58422Y-279640D01*
X57379Y-279360D01*
X56174Y-279160D01*
X55583Y-279108D01*
X55087Y-279149D01*
X53887Y-279335D01*
X52847Y-279595D01*
X51967Y-279929D01*
X51247Y-280338D01*
X50687Y-280821D01*
X50287Y-281379D01*
X50047Y-282011D01*
X49967Y-282717D01*
Y-267283D01*
X50047Y-267989D01*
X50287Y-268621D01*
X50687Y-269179D01*
X51247Y-269662D01*
X51967Y-270071D01*
X52847Y-270405D01*
X53887Y-270665D01*
X55087Y-270851D01*
X55583Y-270892D01*
X56174Y-270840D01*
X57379Y-270640D01*
X58422Y-270360D01*
X59306Y-270000D01*
X60029Y-269560D01*
X60591Y-269040D01*
X60992Y-268440D01*
X61233Y-267760D01*
X61314Y-267000D01*
Y-283000D01*
D02*
G37*
G36*
X340882Y-167534D02*
Y-209466D01*
X278466Y-271882D01*
X268804D01*
X268407Y-271851D01*
X267749Y-271751D01*
X267274Y-271635D01*
X267180Y-271601D01*
X267076Y-271079D01*
X266892Y-270805D01*
X266889Y-270794D01*
X266872Y-270774D01*
X266413Y-270087D01*
X266123Y-269893D01*
X266116Y-269885D01*
X266092Y-269873D01*
X265421Y-269424D01*
X265086Y-269357D01*
X265054Y-269341D01*
X264967Y-269334D01*
X264250Y-269191D01*
X245750D01*
X245391Y-269263D01*
X245319Y-269260D01*
X245214Y-269298D01*
X244580Y-269424D01*
X244237Y-269653D01*
X244198Y-269667D01*
X244149Y-269712D01*
X243587Y-270087D01*
X243348Y-270445D01*
X243317Y-270473D01*
X243289Y-270533D01*
X243285Y-270539D01*
X243129Y-270580D01*
X242528Y-270686D01*
X240945Y-270799D01*
X240895Y-270796D01*
X240037Y-270697D01*
X239371Y-270580D01*
X239215Y-270539D01*
X239211Y-270533D01*
X239183Y-270473D01*
X239152Y-270445D01*
X238913Y-270087D01*
X238351Y-269712D01*
X238302Y-269667D01*
X238263Y-269653D01*
X237921Y-269424D01*
X237286Y-269298D01*
X237181Y-269260D01*
X237110Y-269263D01*
X236750Y-269191D01*
X218250D01*
X217080Y-269424D01*
X216087Y-270087D01*
X215163Y-270178D01*
X213060Y-268076D01*
Y-243750D01*
X212820Y-241923D01*
X212115Y-240220D01*
X210992Y-238758D01*
X197074Y-224839D01*
X197600Y-223569D01*
X204158D01*
X209544Y-228956D01*
X211215Y-230238D01*
X213162Y-231044D01*
X215250Y-231319D01*
X217338Y-231044D01*
X219284Y-230238D01*
X220156Y-229569D01*
X223657D01*
X223785Y-229667D01*
X226059Y-230609D01*
X228500Y-230931D01*
X230941Y-230609D01*
X233215Y-229667D01*
X235168Y-228169D01*
X236667Y-226215D01*
X237609Y-223941D01*
X237931Y-221500D01*
X237609Y-219059D01*
X236667Y-216785D01*
X235168Y-214832D01*
X233215Y-213333D01*
X230941Y-212391D01*
X228500Y-212069D01*
X226059Y-212391D01*
X223785Y-213333D01*
X223657Y-213431D01*
X217000D01*
X216861Y-213449D01*
X214049Y-210638D01*
X214575Y-209368D01*
X217250D01*
X219591Y-208902D01*
X221576Y-207576D01*
X233826Y-195326D01*
X235152Y-193341D01*
X235484Y-191670D01*
X236762Y-191755D01*
X236882Y-193623D01*
Y-199500D01*
X237348Y-201841D01*
X238674Y-203826D01*
X249883Y-215034D01*
Y-217216D01*
X237049Y-230049D01*
X235723Y-232034D01*
X235257Y-234375D01*
Y-235256D01*
X234537Y-235977D01*
X233403Y-237034D01*
X232475Y-237782D01*
X231894Y-238191D01*
X218250D01*
X217080Y-238424D01*
X216087Y-239087D01*
X215424Y-240079D01*
X215191Y-241250D01*
Y-252750D01*
X215424Y-253920D01*
X216087Y-254913D01*
X217080Y-255576D01*
X218250Y-255809D01*
X236750D01*
X237921Y-255576D01*
X238913Y-254913D01*
X239576Y-253920D01*
X239809Y-252750D01*
Y-248596D01*
X239943Y-248362D01*
X240450Y-247630D01*
X241421Y-246477D01*
X242691Y-246941D01*
Y-252750D01*
X242924Y-253920D01*
X243587Y-254913D01*
X244580Y-255576D01*
X245750Y-255809D01*
X264250D01*
X264967Y-255666D01*
X265054Y-255659D01*
X265086Y-255642D01*
X265421Y-255576D01*
X266092Y-255127D01*
X266116Y-255115D01*
X266123Y-255107D01*
X266413Y-254913D01*
X266872Y-254226D01*
X266889Y-254206D01*
X266892Y-254195D01*
X267076Y-253920D01*
X267180Y-253399D01*
X267274Y-253364D01*
X267749Y-253249D01*
X268407Y-253149D01*
X268804Y-253118D01*
X273000D01*
X275341Y-252652D01*
X277326Y-251326D01*
X332076Y-196576D01*
X333402Y-194591D01*
X333867Y-192250D01*
Y-187718D01*
X333892Y-187376D01*
X333985Y-186696D01*
X334096Y-186198D01*
X334117Y-186136D01*
X334421Y-186076D01*
X334716Y-185878D01*
X334737Y-185872D01*
X334771Y-185842D01*
X335413Y-185413D01*
X335620Y-185102D01*
X335637Y-185088D01*
X335657Y-185047D01*
X336076Y-184421D01*
X336147Y-184063D01*
X336169Y-184019D01*
X336175Y-183920D01*
X336309Y-183250D01*
Y-175750D01*
X336176Y-175081D01*
X336169Y-174981D01*
X336147Y-174937D01*
X336076Y-174580D01*
X335657Y-173953D01*
X335637Y-173912D01*
X335620Y-173898D01*
X335413Y-173587D01*
X334771Y-173158D01*
X334737Y-173129D01*
X334716Y-173122D01*
X334421Y-172924D01*
X334117Y-172864D01*
X334096Y-172803D01*
X333997Y-172354D01*
X333867Y-171098D01*
Y-162178D01*
X335041Y-161692D01*
X340882Y-167534D01*
D02*
G37*
G36*
X105240Y-254297D02*
X104560Y-254537D01*
X103960Y-254937D01*
X103440Y-255497D01*
X103000Y-256217D01*
X102640Y-257097D01*
X102360Y-258137D01*
X102160Y-259337D01*
X102083Y-260216D01*
X102275Y-262903D01*
X102429Y-263783D01*
X102618Y-264503D01*
X102841Y-265063D01*
X103099Y-265463D01*
X103391Y-265703D01*
X103717Y-265783D01*
X92283D01*
X92609Y-265703D01*
X92901Y-265463D01*
X93159Y-265063D01*
X93382Y-264503D01*
X93571Y-263783D01*
X93725Y-262903D01*
X93846Y-261863D01*
X93936Y-260182D01*
X93778Y-258137D01*
X93605Y-257097D01*
X93383Y-256217D01*
X93112Y-255497D01*
X92791Y-254937D01*
X92421Y-254537D01*
X92002Y-254297D01*
X91533Y-254217D01*
X106000D01*
X105240Y-254297D01*
D02*
G37*
G36*
X44040Y-260809D02*
X44160Y-262174D01*
X44360Y-263379D01*
X44640Y-264422D01*
X45000Y-265306D01*
X45440Y-266029D01*
X45960Y-266591D01*
X46560Y-266992D01*
X47240Y-267233D01*
X48000Y-267313D01*
X32000D01*
X32760Y-267233D01*
X33440Y-266992D01*
X34040Y-266591D01*
X34560Y-266029D01*
X35000Y-265306D01*
X35360Y-264422D01*
X35640Y-263379D01*
X35840Y-262174D01*
X35960Y-260809D01*
X36000Y-259283D01*
X44000D01*
X44040Y-260809D01*
D02*
G37*
G36*
X-130753Y-229570D02*
X-130572Y-230080D01*
X-130271Y-230530D01*
X-129849Y-230920D01*
X-129306Y-231250D01*
X-128643Y-231520D01*
X-127859Y-231730D01*
X-126954Y-231880D01*
X-125929Y-231970D01*
X-124783Y-232000D01*
Y-238000D01*
X-125929Y-238030D01*
X-126954Y-238120D01*
X-127859Y-238270D01*
X-128643Y-238480D01*
X-129306Y-238750D01*
X-129849Y-239080D01*
X-130271Y-239470D01*
X-130572Y-239920D01*
X-130753Y-240430D01*
X-130814Y-241000D01*
Y-229000D01*
X-130753Y-229570D01*
D02*
G37*
G36*
X-170706Y-171706D02*
X-169035Y-172988D01*
X-167088Y-173794D01*
X-165000Y-174069D01*
X-151146D01*
X-150227Y-175339D01*
X-150309Y-175750D01*
Y-187250D01*
X-150076Y-188421D01*
X-149413Y-189413D01*
X-148420Y-190076D01*
X-147250Y-190309D01*
X-136378D01*
X-135776Y-191078D01*
X-135689Y-191579D01*
X-136011Y-191882D01*
X-153000D01*
X-155341Y-192348D01*
X-157326Y-193674D01*
X-161534Y-197882D01*
X-179351D01*
X-179660Y-196651D01*
X-179347Y-196483D01*
X-179114Y-196292D01*
X-178848Y-196150D01*
X-176336Y-194088D01*
X-176145Y-193855D01*
X-175912Y-193664D01*
X-173850Y-191152D01*
X-173708Y-190886D01*
X-173517Y-190653D01*
X-171985Y-187787D01*
X-171897Y-187498D01*
X-171755Y-187233D01*
X-170812Y-184123D01*
X-170782Y-183823D01*
X-170695Y-183534D01*
X-170376Y-180300D01*
X-170406Y-180000D01*
X-170376Y-179700D01*
X-170695Y-176466D01*
X-170782Y-176177D01*
X-170812Y-175877D01*
X-171755Y-172767D01*
X-171897Y-172502D01*
X-171985Y-172213D01*
X-170943Y-171469D01*
X-170706Y-171706D01*
D02*
G37*
G36*
X-133571Y-201500D02*
X-133693Y-201405D01*
X-133865Y-201320D01*
X-134085Y-201245D01*
X-134355Y-201180D01*
X-134673Y-201125D01*
X-135457Y-201045D01*
X-136437Y-201005D01*
X-137000Y-201000D01*
Y-195000D01*
X-136437Y-194995D01*
X-134673Y-194875D01*
X-134355Y-194820D01*
X-134085Y-194755D01*
X-133865Y-194680D01*
X-133693Y-194595D01*
X-133571Y-194500D01*
Y-201500D01*
D02*
G37*
G36*
X-317223Y-198923D02*
X-317141Y-199943D01*
X-317006Y-200843D01*
X-316815Y-201623D01*
X-316571Y-202283D01*
X-316272Y-202823D01*
X-315919Y-203243D01*
X-315511Y-203543D01*
X-315049Y-203723D01*
X-314533Y-203783D01*
X-325967D01*
X-325451Y-203723D01*
X-324989Y-203543D01*
X-324581Y-203243D01*
X-324228Y-202823D01*
X-323929Y-202283D01*
X-323685Y-201623D01*
X-323494Y-200843D01*
X-323359Y-199943D01*
X-323277Y-198923D01*
X-323250Y-197783D01*
X-317250D01*
X-317223Y-198923D01*
D02*
G37*
G36*
X319366Y-185082D02*
X319401Y-185134D01*
X319403Y-185139D01*
X319405Y-185140D01*
X319587Y-185413D01*
X320316Y-185900D01*
X320320Y-185903D01*
X320322Y-185904D01*
X320579Y-186076D01*
X321318Y-186223D01*
X321368Y-186348D01*
X321489Y-186801D01*
X321594Y-187439D01*
X321632Y-187877D01*
Y-189716D01*
X270466Y-240882D01*
X268804D01*
X268407Y-240851D01*
X267749Y-240751D01*
X267274Y-240636D01*
X267180Y-240601D01*
X267076Y-240079D01*
X266892Y-239805D01*
X266889Y-239794D01*
X266872Y-239774D01*
X266413Y-239087D01*
X266123Y-238894D01*
X266116Y-238885D01*
X266092Y-238873D01*
X265421Y-238424D01*
X265086Y-238358D01*
X265054Y-238341D01*
X264967Y-238334D01*
X264250Y-238191D01*
X247822D01*
X247493Y-237790D01*
Y-236909D01*
X260326Y-224076D01*
X261652Y-222091D01*
X262118Y-219750D01*
Y-212500D01*
X261652Y-210159D01*
X260326Y-208174D01*
X249118Y-196966D01*
Y-192712D01*
X249121Y-192561D01*
X249220Y-191310D01*
X249240Y-191173D01*
X249576Y-190671D01*
X249809Y-189500D01*
Y-189397D01*
X249838Y-189385D01*
X250293Y-189263D01*
X250933Y-189157D01*
X251380Y-189118D01*
X261000D01*
X263341Y-188652D01*
X264421Y-187930D01*
X265691Y-188609D01*
Y-195750D01*
X265924Y-196921D01*
X266587Y-197913D01*
X267579Y-198576D01*
X268750Y-198809D01*
X287250D01*
X288421Y-198576D01*
X289413Y-197913D01*
X290076Y-196921D01*
X290309Y-195750D01*
Y-195397D01*
X290338Y-195385D01*
X290793Y-195263D01*
X291433Y-195157D01*
X291880Y-195117D01*
X293038D01*
X293189Y-195121D01*
X294440Y-195220D01*
X294577Y-195240D01*
X295079Y-195576D01*
X296250Y-195809D01*
X307750D01*
X308586Y-195643D01*
X308622Y-195639D01*
X308633Y-195633D01*
X308920Y-195576D01*
X309913Y-194913D01*
X310576Y-193920D01*
X310752Y-193034D01*
X310763Y-192999D01*
X310766Y-192966D01*
X310809Y-192750D01*
Y-192685D01*
X310891Y-192474D01*
X311066Y-192133D01*
X311335Y-191693D01*
X311664Y-191225D01*
X313047Y-189605D01*
X317801Y-184851D01*
X317824Y-184842D01*
X319366Y-185082D01*
D02*
G37*
G36*
X332748Y-183277D02*
X332329Y-183457D01*
X331959Y-183757D01*
X331638Y-184177D01*
X331367Y-184717D01*
X331145Y-185377D01*
X330972Y-186157D01*
X330849Y-187057D01*
X330775Y-188077D01*
X330750Y-189217D01*
X324750D01*
X324720Y-188077D01*
X324631Y-187057D01*
X324483Y-186157D01*
X324275Y-185377D01*
X324008Y-184717D01*
X323682Y-184177D01*
X323296Y-183757D01*
X322851Y-183457D01*
X322347Y-183277D01*
X321783Y-183217D01*
X333217D01*
X332748Y-183277D01*
D02*
G37*
G36*
X287277Y-184609D02*
X287457Y-184901D01*
X287757Y-185159D01*
X288177Y-185382D01*
X288717Y-185571D01*
X289377Y-185725D01*
X290157Y-185846D01*
X291057Y-185931D01*
X291942Y-185959D01*
X295323Y-185742D01*
X295743Y-185649D01*
X296043Y-185541D01*
X296223Y-185419D01*
X296283Y-185283D01*
Y-192717D01*
X296223Y-192581D01*
X296043Y-192459D01*
X295743Y-192351D01*
X295323Y-192258D01*
X294783Y-192179D01*
X293343Y-192064D01*
X292002Y-192036D01*
X291049Y-192120D01*
X290145Y-192270D01*
X289362Y-192480D01*
X288698Y-192750D01*
X288155Y-193080D01*
X287733Y-193470D01*
X287430Y-193920D01*
X287248Y-194430D01*
X287187Y-195000D01*
X287217Y-184283D01*
X287277Y-184609D01*
D02*
G37*
G36*
X246581Y-189527D02*
X246459Y-189707D01*
X246351Y-190007D01*
X246258Y-190427D01*
X246179Y-190967D01*
X246064Y-192407D01*
X246000Y-195467D01*
X240000D01*
X239993Y-194327D01*
X239742Y-190427D01*
X239649Y-190007D01*
X239541Y-189707D01*
X239419Y-189527D01*
X239283Y-189467D01*
X246717D01*
X246581Y-189527D01*
D02*
G37*
G36*
X-110973Y-199923D02*
X-110891Y-200943D01*
X-110756Y-201843D01*
X-110565Y-202623D01*
X-110321Y-203283D01*
X-110022Y-203823D01*
X-109669Y-204243D01*
X-109261Y-204543D01*
X-108799Y-204723D01*
X-108283Y-204783D01*
X-119717D01*
X-119201Y-204723D01*
X-118739Y-204543D01*
X-118331Y-204243D01*
X-117978Y-203823D01*
X-117679Y-203283D01*
X-117435Y-202623D01*
X-117245Y-201843D01*
X-117109Y-200943D01*
X-117027Y-199923D01*
X-117000Y-198783D01*
X-111000D01*
X-110973Y-199923D01*
D02*
G37*
G36*
X-253260Y-223151D02*
X-253101Y-223539D01*
X-252835Y-223881D01*
X-252463Y-224178D01*
X-251985Y-224429D01*
X-251401Y-224635D01*
X-250710Y-224795D01*
X-249913Y-224909D01*
X-249010Y-224977D01*
X-248000Y-225000D01*
Y-231000D01*
X-249010Y-231023D01*
X-249913Y-231091D01*
X-250710Y-231206D01*
X-251401Y-231365D01*
X-251985Y-231571D01*
X-252463Y-231822D01*
X-252835Y-232119D01*
X-253101Y-232461D01*
X-253260Y-232849D01*
X-253314Y-233283D01*
Y-222717D01*
X-253260Y-223151D01*
D02*
G37*
G36*
X-175327Y-220888D02*
X-172908Y-222970D01*
X-171879Y-223705D01*
X-170970Y-224234D01*
X-170182Y-224559D01*
X-169514Y-224680D01*
X-168966Y-224596D01*
X-168539Y-224307D01*
X-168232Y-223813D01*
X-173186Y-235768D01*
X-173007Y-235147D01*
X-172962Y-234476D01*
X-173053Y-233754D01*
X-173278Y-232981D01*
X-173638Y-232158D01*
X-174132Y-231284D01*
X-174762Y-230360D01*
X-175526Y-229385D01*
X-176426Y-228359D01*
X-177460Y-227283D01*
X-176717Y-219540D01*
X-175327Y-220888D01*
D02*
G37*
G36*
X103796Y-224797D02*
X103419Y-225037D01*
X103086Y-225437D01*
X102798Y-225997D01*
X102554Y-226717D01*
X102355Y-227597D01*
X102199Y-228637D01*
X102189Y-228750D01*
X103250D01*
X103280Y-230092D01*
X103371Y-231293D01*
X103523Y-232352D01*
X103735Y-233271D01*
X104008Y-234048D01*
X104342Y-234683D01*
X104736Y-235178D01*
X105191Y-235531D01*
X105707Y-235743D01*
X106283Y-235814D01*
X92217D01*
X92450Y-235785D01*
X91533Y-235783D01*
X92002Y-235703D01*
X92421Y-235463D01*
X92791Y-235063D01*
X93112Y-234503D01*
X93383Y-233783D01*
X93605Y-232903D01*
X93778Y-231863D01*
X93901Y-230663D01*
X93905Y-230568D01*
X93710Y-228637D01*
X93485Y-227597D01*
X93196Y-226717D01*
X92842Y-225997D01*
X92424Y-225437D01*
X91941Y-225037D01*
X91394Y-224797D01*
X90783Y-224717D01*
X104217D01*
X103796Y-224797D01*
D02*
G37*
G36*
X-289549Y-220777D02*
X-290011Y-220957D01*
X-290419Y-221257D01*
X-290772Y-221677D01*
X-291071Y-222217D01*
X-291315Y-222877D01*
X-291506Y-223657D01*
X-291641Y-224557D01*
X-291723Y-225577D01*
X-291750Y-226717D01*
X-297750D01*
X-297777Y-225577D01*
X-297859Y-224557D01*
X-297994Y-223657D01*
X-298185Y-222877D01*
X-298429Y-222217D01*
X-298728Y-221677D01*
X-299081Y-221257D01*
X-299489Y-220957D01*
X-299951Y-220777D01*
X-300467Y-220717D01*
X-289033D01*
X-289549Y-220777D01*
D02*
G37*
G36*
X101527Y-198803D02*
X101744Y-201363D01*
X101935Y-202403D01*
X102179Y-203283D01*
X102478Y-204003D01*
X102831Y-204563D01*
X103239Y-204963D01*
X103701Y-205203D01*
X104217Y-205283D01*
X90783D01*
X91299Y-205203D01*
X91761Y-204963D01*
X92169Y-204563D01*
X92522Y-204003D01*
X92821Y-203283D01*
X93065Y-202403D01*
X93255Y-201363D01*
X93391Y-200163D01*
X93473Y-198803D01*
X93500Y-197283D01*
X101500D01*
X101527Y-198803D01*
D02*
G37*
G36*
X-41497Y-183916D02*
X-41320Y-184275D01*
X-39917Y-186103D01*
X-39616Y-186367D01*
X-39353Y-186667D01*
X-37525Y-188070D01*
X-37166Y-188247D01*
X-36833Y-188469D01*
X-34705Y-189351D01*
X-34312Y-189429D01*
X-33933Y-189557D01*
X-31649Y-189858D01*
X-31448Y-189845D01*
X-31250Y-189884D01*
X11242D01*
X11650Y-191087D01*
X11331Y-191332D01*
X9833Y-193285D01*
X8891Y-195559D01*
X8569Y-198000D01*
X8891Y-200441D01*
X9833Y-202715D01*
X11331Y-204669D01*
X11888Y-205096D01*
X11457Y-206366D01*
X-31000D01*
X-31198Y-206405D01*
X-31399Y-206392D01*
X-33683Y-206693D01*
X-34062Y-206821D01*
X-34455Y-206899D01*
X-36583Y-207781D01*
X-36916Y-208003D01*
X-37275Y-208180D01*
X-39103Y-209583D01*
X-39366Y-209883D01*
X-39667Y-210147D01*
X-41070Y-211975D01*
X-41247Y-212334D01*
X-41469Y-212667D01*
X-41661Y-213130D01*
X-42931Y-212878D01*
Y-184000D01*
X-42936Y-183965D01*
X-41719Y-183583D01*
X-41497Y-183916D01*
D02*
G37*
G36*
X-222223Y-214423D02*
X-222141Y-215443D01*
X-222006Y-216343D01*
X-221815Y-217123D01*
X-221571Y-217783D01*
X-221272Y-218323D01*
X-220919Y-218743D01*
X-220511Y-219043D01*
X-220049Y-219223D01*
X-219533Y-219283D01*
X-230967D01*
X-230451Y-219223D01*
X-229989Y-219043D01*
X-229581Y-218743D01*
X-229228Y-218323D01*
X-228929Y-217783D01*
X-228685Y-217123D01*
X-228494Y-216343D01*
X-228359Y-215443D01*
X-228277Y-214423D01*
X-228250Y-213283D01*
X-222250D01*
X-222223Y-214423D01*
D02*
G37*
G36*
X355090Y37322D02*
X356780Y34935D01*
X357364Y34211D01*
X359178Y32251D01*
X359803Y31669D01*
X360439Y31123D01*
X359333Y24258D01*
X358571Y24828D01*
X357807Y25282D01*
X357042Y25620D01*
X356275Y25843D01*
X355507Y25949D01*
X354737Y25940D01*
X353965Y25814D01*
X353192Y25573D01*
X352418Y25216D01*
X351642Y24743D01*
X354548Y38189D01*
X355090Y37322D01*
D02*
G37*
G36*
X300510Y24792D02*
X300590Y23825D01*
X300660Y23395D01*
X300750Y23001D01*
X300860Y22643D01*
X300990Y22321D01*
X301140Y22035D01*
X301310Y21785D01*
X301500Y21571D01*
X294500D01*
X294690Y21785D01*
X294860Y22035D01*
X295010Y22321D01*
X295140Y22643D01*
X295250Y23001D01*
X295340Y23395D01*
X295410Y23825D01*
X295460Y24290D01*
X295500Y25330D01*
X300500D01*
X300510Y24792D01*
D02*
G37*
G36*
X220560Y42860D02*
X220740Y41840D01*
X221040Y40940D01*
X221460Y40160D01*
X222000Y39500D01*
X222660Y38960D01*
X223440Y38540D01*
X224340Y38240D01*
X225360Y38060D01*
X226500Y38000D01*
Y32000D01*
X225360Y31940D01*
X224340Y31760D01*
X223440Y31460D01*
X222660Y31040D01*
X222000Y30500D01*
X221460Y29840D01*
X221040Y29060D01*
X220977Y28872D01*
X220980Y28862D01*
X221250Y28199D01*
X221580Y27656D01*
X221970Y27233D01*
X222420Y26931D01*
X222930Y26749D01*
X223500Y26686D01*
X220537Y26696D01*
X220500Y26000D01*
X220035Y26698D01*
X214283Y26717D01*
X214324Y26777D01*
X214361Y26957D01*
X214394Y27257D01*
X214446Y28217D01*
X214500Y32717D01*
X216022D01*
X214500Y35000D01*
X220500Y44000D01*
X220560Y42860D01*
D02*
G37*
G36*
X239247Y57930D02*
X239428Y57420D01*
X239729Y56970D01*
X240151Y56580D01*
X240694Y56250D01*
X241357Y55980D01*
X242141Y55770D01*
X243046Y55620D01*
X244071Y55530D01*
X245217Y55500D01*
Y49500D01*
X244071Y49470D01*
X243046Y49380D01*
X242141Y49230D01*
X241357Y49020D01*
X240694Y48750D01*
X240151Y48420D01*
X239729Y48030D01*
X239428Y47580D01*
X239247Y47070D01*
X239186Y46500D01*
Y58500D01*
X239247Y57930D01*
D02*
G37*
G36*
X195783Y42783D02*
X195703Y43394D01*
X195463Y43941D01*
X195063Y44424D01*
X194503Y44842D01*
X193783Y45196D01*
X192903Y45485D01*
X191863Y45710D01*
X190663Y45871D01*
X189303Y45968D01*
X187783Y46000D01*
Y54000D01*
X189307Y54040D01*
X190672Y54160D01*
X191875Y54360D01*
X192919Y54640D01*
X193802Y55000D01*
X194525Y55440D01*
X195087Y55960D01*
X195490Y56560D01*
X195732Y57240D01*
X195814Y58000D01*
X195783Y42783D01*
D02*
G37*
G36*
X275886Y93612D02*
X275587Y93413D01*
X274924Y92421D01*
X274691Y91250D01*
Y79750D01*
X274924Y78580D01*
X275587Y77587D01*
X276579Y76924D01*
X277750Y76691D01*
X296250D01*
X296967Y76834D01*
X297054Y76841D01*
X297086Y76858D01*
X297421Y76924D01*
X298092Y77373D01*
X298116Y77385D01*
X298123Y77393D01*
X298413Y77587D01*
X298872Y78274D01*
X298889Y78294D01*
X298892Y78305D01*
X299076Y78579D01*
X300000Y78919D01*
X300924Y78579D01*
X301108Y78305D01*
X301111Y78294D01*
X301128Y78274D01*
X301587Y77587D01*
X301877Y77393D01*
X301884Y77385D01*
X301908Y77373D01*
X302579Y76924D01*
X302914Y76858D01*
X302946Y76841D01*
X303033Y76834D01*
X303750Y76691D01*
X306780D01*
X306782Y76683D01*
X306863Y76197D01*
X306892Y75870D01*
Y20756D01*
X305622Y20503D01*
X304988Y22034D01*
X303793Y23591D01*
X303788Y23601D01*
X303774Y23616D01*
X303756Y23640D01*
X303745Y23667D01*
X303707Y23791D01*
X303664Y23982D01*
X303628Y24197D01*
X303608Y24447D01*
Y48000D01*
X303181Y50146D01*
X301965Y51965D01*
X297972Y55959D01*
X297727Y56294D01*
X297424Y56803D01*
X297138Y57394D01*
X296874Y58073D01*
X296637Y58839D01*
X296440Y59656D01*
X296124Y61713D01*
X296105Y61945D01*
X296112Y62000D01*
X296081Y62236D01*
X296030Y62858D01*
X295973Y63057D01*
X295665Y65394D01*
X294356Y68556D01*
X292272Y71272D01*
X289556Y73355D01*
X286394Y74665D01*
X283000Y75112D01*
X279606Y74665D01*
X276444Y73355D01*
X273728Y71272D01*
X271644Y68556D01*
X270335Y65394D01*
X269888Y62000D01*
X270335Y58606D01*
X271644Y55444D01*
X273728Y52728D01*
X276444Y50644D01*
X279606Y49335D01*
X283000Y48888D01*
X283835Y48998D01*
X283971Y48978D01*
X285076Y49038D01*
X286018Y49033D01*
X286876Y48973D01*
X287650Y48861D01*
X288341Y48704D01*
X288952Y48506D01*
X289491Y48272D01*
X289966Y48006D01*
X290307Y47762D01*
X292392Y45677D01*
Y24371D01*
X292378Y24234D01*
X292337Y23982D01*
X292293Y23791D01*
X292255Y23667D01*
X292244Y23640D01*
X292226Y23616D01*
X292212Y23601D01*
X292207Y23591D01*
X291012Y22034D01*
X290579Y20989D01*
X289309Y21241D01*
Y29250D01*
X289076Y30420D01*
X288413Y31413D01*
X287421Y32076D01*
X286250Y32309D01*
X285839D01*
X284826Y33826D01*
X262118Y56534D01*
Y75114D01*
X262157Y75557D01*
X262262Y76192D01*
X262384Y76642D01*
X262404Y76691D01*
X265250D01*
X266420Y76924D01*
X267413Y77587D01*
X268076Y78580D01*
X268309Y79750D01*
Y91250D01*
X268076Y92421D01*
X267413Y93413D01*
X267114Y93612D01*
X267499Y94882D01*
X275501D01*
X275886Y93612D01*
D02*
G37*
G36*
X299283Y-1717D02*
X299223Y-1486D01*
X299043Y-1279D01*
X298743Y-1096D01*
X298323Y-938D01*
X297783Y-804D01*
X297123Y-695D01*
X296343Y-609D01*
X294423Y-512D01*
X293283Y-500D01*
Y5500D01*
X294427Y5530D01*
X295451Y5620D01*
X296355Y5770D01*
X297138Y5980D01*
X297801Y6250D01*
X298344Y6580D01*
X298767Y6970D01*
X299069Y7420D01*
X299252Y7930D01*
X299314Y8500D01*
X299283Y-1717D01*
D02*
G37*
G36*
X343212Y17474D02*
X346250Y17175D01*
X361250D01*
X361883Y16602D01*
Y-1435D01*
X360612Y-1961D01*
X342139Y16512D01*
X342792Y17601D01*
X343212Y17474D01*
D02*
G37*
G36*
X254796Y10723D02*
X254419Y10543D01*
X254086Y10243D01*
X253798Y9823D01*
X253554Y9283D01*
X253355Y8623D01*
X253200Y7843D01*
X253089Y6943D01*
X253022Y5923D01*
X253000Y4783D01*
X247000D01*
X246970Y5923D01*
X246880Y6943D01*
X246730Y7843D01*
X246520Y8623D01*
X246250Y9283D01*
X245920Y9823D01*
X245530Y10243D01*
X245080Y10543D01*
X244570Y10723D01*
X244000Y10783D01*
X255217D01*
X254796Y10723D01*
D02*
G37*
G36*
X189162Y42911D02*
X190351Y42827D01*
X191336Y42695D01*
X192099Y42530D01*
X192625Y42357D01*
X192785Y42278D01*
X192924Y41579D01*
X193125Y41279D01*
X193133Y41255D01*
X193165Y41219D01*
X193587Y40587D01*
X193903Y40376D01*
X193919Y40358D01*
X193963Y40336D01*
X194580Y39924D01*
X194943Y39852D01*
X194989Y39829D01*
X195091Y39822D01*
X195750Y39691D01*
X209250D01*
X210112Y39863D01*
X211383Y39155D01*
Y28217D01*
X211345Y27522D01*
X211329Y27440D01*
X211291Y27353D01*
X211290Y27245D01*
X211191Y26750D01*
Y16320D01*
X209921Y15935D01*
X209326Y16826D01*
X204826Y21326D01*
X202841Y22652D01*
X200500Y23118D01*
X199158D01*
X198777Y23150D01*
X198159Y23248D01*
X197809Y23339D01*
Y26750D01*
X197576Y27920D01*
X196913Y28913D01*
X195921Y29576D01*
X194750Y29809D01*
X183250D01*
X182080Y29576D01*
X181087Y28913D01*
X180424Y27920D01*
X180191Y26750D01*
Y8250D01*
X180424Y7079D01*
X181087Y6087D01*
X181658Y5706D01*
X181678Y5653D01*
Y4347D01*
X181658Y4294D01*
X181087Y3913D01*
X180428Y2927D01*
X180424Y2921D01*
X179016Y2351D01*
X178675Y2583D01*
X177655Y3399D01*
X176657Y4328D01*
X176060Y4924D01*
Y34076D01*
X184925Y42940D01*
X187826D01*
X189162Y42911D01*
D02*
G37*
G36*
X194745Y22254D02*
X194919Y21781D01*
X195210Y21364D01*
X195617Y21002D01*
X196140Y20696D01*
X196779Y20445D01*
X197535Y20250D01*
X198407Y20111D01*
X199395Y20028D01*
X200500Y20000D01*
Y14000D01*
X199395Y13972D01*
X198407Y13889D01*
X197535Y13750D01*
X196779Y13555D01*
X196140Y13304D01*
X195617Y12998D01*
X195210Y12636D01*
X194919Y12219D01*
X194745Y11746D01*
X194687Y11217D01*
Y22783D01*
X194745Y22254D01*
D02*
G37*
G36*
X293084Y61354D02*
X293437Y59065D01*
X293686Y58029D01*
X293984Y57065D01*
X294331Y56173D01*
X294727Y55353D01*
X295172Y54606D01*
X295665Y53931D01*
X296208Y53328D01*
X292931Y49533D01*
X292301Y50097D01*
X291608Y50592D01*
X290852Y51016D01*
X290033Y51371D01*
X289152Y51656D01*
X288209Y51871D01*
X287202Y52016D01*
X286133Y52091D01*
X285001Y52097D01*
X283807Y52033D01*
X292981Y62607D01*
X293084Y61354D01*
D02*
G37*
G36*
X260998Y137723D02*
X260579Y137543D01*
X260209Y137243D01*
X259888Y136823D01*
X259617Y136283D01*
X259395Y135623D01*
X259222Y134843D01*
X259099Y133943D01*
X259025Y132923D01*
X259000Y131783D01*
X253000D01*
X252970Y132923D01*
X252881Y133943D01*
X252733Y134843D01*
X252525Y135623D01*
X252258Y136283D01*
X251932Y136823D01*
X251546Y137243D01*
X251101Y137543D01*
X250597Y137723D01*
X250033Y137783D01*
X261467D01*
X260998Y137723D01*
D02*
G37*
G36*
X290030Y127071D02*
X290120Y126046D01*
X290270Y125141D01*
X290480Y124358D01*
X290750Y123694D01*
X291080Y123151D01*
X291470Y122729D01*
X291920Y122428D01*
X292430Y122247D01*
X293000Y122186D01*
X281000D01*
X281570Y122247D01*
X282080Y122428D01*
X282530Y122729D01*
X282920Y123151D01*
X283250Y123694D01*
X283520Y124358D01*
X283730Y125141D01*
X283880Y126046D01*
X283970Y127071D01*
X284000Y128217D01*
X290000D01*
X290030Y127071D01*
D02*
G37*
G36*
X201095Y132875D02*
X200586Y133469D01*
X200027Y134000D01*
X199417Y134469D01*
X198758Y134875D01*
X198048Y135219D01*
X197289Y135500D01*
X196479Y135719D01*
X195619Y135875D01*
X194710Y135969D01*
X193750Y136000D01*
Y142000D01*
X194710Y142031D01*
X195619Y142125D01*
X196479Y142281D01*
X197289Y142500D01*
X198048Y142781D01*
X198758Y143125D01*
X199417Y143531D01*
X200027Y144000D01*
X200586Y144531D01*
X201095Y145125D01*
Y132875D01*
D02*
G37*
G36*
X235451Y147223D02*
X234989Y147043D01*
X234581Y146743D01*
X234228Y146323D01*
X233929Y145783D01*
X233685Y145123D01*
X233494Y144343D01*
X233359Y143443D01*
X233277Y142423D01*
X233250Y141283D01*
X227250D01*
X227223Y142423D01*
X227141Y143443D01*
X227006Y144343D01*
X226815Y145123D01*
X226571Y145783D01*
X226272Y146323D01*
X225919Y146743D01*
X225511Y147043D01*
X225049Y147223D01*
X224533Y147283D01*
X235967D01*
X235451Y147223D01*
D02*
G37*
G36*
X260998Y156723D02*
X260579Y156543D01*
X260209Y156243D01*
X259888Y155823D01*
X259617Y155283D01*
X259395Y154623D01*
X259222Y153843D01*
X259099Y152943D01*
X259025Y151923D01*
X259005Y151000D01*
X259025Y150077D01*
X259222Y148157D01*
X259395Y147377D01*
X259617Y146717D01*
X259888Y146177D01*
X260209Y145757D01*
X260579Y145457D01*
X260998Y145277D01*
X261467Y145217D01*
X250033D01*
X250597Y145277D01*
X251101Y145457D01*
X251546Y145757D01*
X251932Y146177D01*
X252258Y146717D01*
X252525Y147377D01*
X252733Y148157D01*
X252881Y149057D01*
X252970Y150077D01*
X252994Y151000D01*
X252970Y151923D01*
X252881Y152943D01*
X252733Y153843D01*
X252525Y154623D01*
X252258Y155283D01*
X251932Y155823D01*
X251546Y156243D01*
X251101Y156543D01*
X250597Y156723D01*
X250033Y156783D01*
X261467D01*
X260998Y156723D01*
D02*
G37*
G36*
X259030Y127071D02*
X259120Y126046D01*
X259270Y125141D01*
X259480Y124358D01*
X259750Y123694D01*
X260080Y123151D01*
X260470Y122729D01*
X260920Y122428D01*
X261430Y122247D01*
X262000Y122186D01*
X250000D01*
X250570Y122247D01*
X251080Y122428D01*
X251530Y122729D01*
X251920Y123151D01*
X252250Y123694D01*
X252520Y124358D01*
X252730Y125141D01*
X252880Y126046D01*
X252970Y127071D01*
X253000Y128217D01*
X259000D01*
X259030Y127071D01*
D02*
G37*
G36*
X261430Y79723D02*
X260920Y79543D01*
X260470Y79243D01*
X260080Y78823D01*
X259750Y78283D01*
X259480Y77623D01*
X259270Y76843D01*
X259120Y75943D01*
X259030Y74923D01*
X259000Y73783D01*
X253000D01*
X252970Y74923D01*
X252880Y75943D01*
X252730Y76843D01*
X252520Y77623D01*
X252250Y78283D01*
X251920Y78823D01*
X251530Y79243D01*
X251080Y79543D01*
X250570Y79723D01*
X250000Y79783D01*
X262000D01*
X261430Y79723D01*
D02*
G37*
G36*
X326905Y63307D02*
X326820Y63135D01*
X326745Y62915D01*
X326680Y62645D01*
X326625Y62327D01*
X326545Y61543D01*
X326505Y60563D01*
X326500Y60000D01*
X320500D01*
X320495Y60563D01*
X320375Y62327D01*
X320320Y62645D01*
X320255Y62915D01*
X320180Y63135D01*
X320095Y63307D01*
X320000Y63429D01*
X327000D01*
X326905Y63307D01*
D02*
G37*
G36*
X317025Y79733D02*
X316600Y79583D01*
X316225Y79333D01*
X315900Y78983D01*
X315625Y78533D01*
X315400Y77983D01*
X315225Y77333D01*
X315100Y76583D01*
X315025Y75733D01*
X315000Y74783D01*
X310000D01*
X309975Y75733D01*
X309900Y76583D01*
X309775Y77333D01*
X309600Y77983D01*
X309375Y78533D01*
X309100Y78983D01*
X308775Y79333D01*
X308400Y79583D01*
X307975Y79733D01*
X307500Y79783D01*
X317500D01*
X317025Y79733D01*
D02*
G37*
G36*
X303783Y79783D02*
X303723Y80299D01*
X303543Y80761D01*
X303243Y81169D01*
X302823Y81522D01*
X302283Y81821D01*
X301623Y82065D01*
X300843Y82255D01*
X300000Y82383D01*
X299157Y82255D01*
X298377Y82065D01*
X297717Y81821D01*
X297177Y81522D01*
X296757Y81169D01*
X296457Y80761D01*
X296277Y80299D01*
X296217Y79783D01*
Y91217D01*
X296277Y90701D01*
X296457Y90239D01*
X296757Y89831D01*
X297177Y89478D01*
X297717Y89179D01*
X298377Y88935D01*
X299157Y88744D01*
X300000Y88617D01*
X300843Y88744D01*
X301623Y88935D01*
X302283Y89179D01*
X302823Y89478D01*
X303243Y89831D01*
X303543Y90239D01*
X303723Y90701D01*
X303783Y91217D01*
Y79783D01*
D02*
G37*
G36*
X346439Y93846D02*
X348268Y92360D01*
X349149Y91777D01*
X350008Y91302D01*
X350846Y90935D01*
X351662Y90675D01*
X352455Y90522D01*
X353227Y90477D01*
X353977Y90539D01*
X349415Y89825D01*
X353004Y85137D01*
X340794Y86538D01*
X341278Y86895D01*
X341631Y87294D01*
X341852Y87737D01*
X341942Y88222D01*
X341909Y88650D01*
X339286Y88239D01*
X339930Y88399D01*
X340399Y88650D01*
X340693Y88990D01*
X340812Y89422D01*
X340755Y89944D01*
X340524Y90556D01*
X340117Y91259D01*
X339535Y92053D01*
X338778Y92937D01*
X337845Y93912D01*
X345492Y94751D01*
X346439Y93846D01*
D02*
G37*
G36*
X390922Y166311D02*
Y-195811D01*
X260811Y-325922D01*
X-260811D01*
X-390922Y-195811D01*
Y-65301D01*
X-389652Y-65000D01*
X-340117Y-114534D01*
Y-133791D01*
X-341387Y-133979D01*
X-341755Y-132767D01*
X-341897Y-132502D01*
X-341985Y-132213D01*
X-343517Y-129347D01*
X-343708Y-129114D01*
X-343850Y-128848D01*
X-345912Y-126336D01*
X-346145Y-126145D01*
X-346336Y-125912D01*
X-348848Y-123850D01*
X-349114Y-123708D01*
X-349347Y-123517D01*
X-352213Y-121985D01*
X-352502Y-121897D01*
X-352767Y-121755D01*
X-355877Y-120812D01*
X-356177Y-120782D01*
X-356466Y-120695D01*
X-359700Y-120376D01*
X-359851Y-120391D01*
X-360000Y-120361D01*
X-360149Y-120391D01*
X-360300Y-120376D01*
X-363534Y-120695D01*
X-363823Y-120782D01*
X-364123Y-120812D01*
X-367233Y-121755D01*
X-367498Y-121897D01*
X-367787Y-121985D01*
X-370653Y-123517D01*
X-370886Y-123708D01*
X-371152Y-123850D01*
X-373664Y-125912D01*
X-373855Y-126145D01*
X-374088Y-126336D01*
X-376150Y-128848D01*
X-376292Y-129114D01*
X-376483Y-129347D01*
X-378015Y-132213D01*
X-378103Y-132502D01*
X-378245Y-132767D01*
X-379188Y-135878D01*
X-379218Y-136177D01*
X-379305Y-136466D01*
X-379624Y-139700D01*
X-379594Y-140000D01*
X-379624Y-140300D01*
X-379305Y-143534D01*
X-379218Y-143823D01*
X-379188Y-144122D01*
X-378245Y-147233D01*
X-378103Y-147498D01*
X-378015Y-147787D01*
X-376483Y-150653D01*
X-376292Y-150886D01*
X-376150Y-151152D01*
X-374088Y-153664D01*
X-373855Y-153855D01*
X-373664Y-154088D01*
X-371152Y-156150D01*
X-370886Y-156292D01*
X-370653Y-156483D01*
X-367787Y-158015D01*
X-367498Y-158103D01*
X-367233Y-158245D01*
X-364123Y-159188D01*
X-363823Y-159218D01*
X-363534Y-159305D01*
X-360300Y-159624D01*
X-360149Y-159609D01*
X-360000Y-159639D01*
X-359851Y-159609D01*
X-359700Y-159624D01*
X-356466Y-159305D01*
X-356177Y-159218D01*
X-355877Y-159188D01*
X-352767Y-158245D01*
X-352502Y-158103D01*
X-352213Y-158015D01*
X-349347Y-156483D01*
X-349114Y-156292D01*
X-348848Y-156150D01*
X-346336Y-154088D01*
X-346145Y-153855D01*
X-345912Y-153664D01*
X-343850Y-151152D01*
X-343708Y-150886D01*
X-343517Y-150653D01*
X-341985Y-147787D01*
X-341897Y-147498D01*
X-341755Y-147233D01*
X-341387Y-146021D01*
X-340117Y-146209D01*
Y-229000D01*
X-339652Y-231341D01*
X-338326Y-233326D01*
X-323326Y-248326D01*
X-321341Y-249652D01*
X-319000Y-250117D01*
X-300534D01*
X-274326Y-276326D01*
X-272341Y-277652D01*
X-270000Y-278118D01*
X-208000D01*
X-205659Y-277652D01*
X-203674Y-276326D01*
X-195424Y-268076D01*
X-194098Y-266091D01*
X-193633Y-263750D01*
Y-240804D01*
X-193601Y-240408D01*
X-193501Y-239749D01*
X-193386Y-239274D01*
X-193351Y-239180D01*
X-192829Y-239076D01*
X-192555Y-238892D01*
X-192544Y-238889D01*
X-192524Y-238872D01*
X-191837Y-238413D01*
X-191644Y-238123D01*
X-191635Y-238116D01*
X-191623Y-238092D01*
X-191174Y-237421D01*
X-191108Y-237086D01*
X-191091Y-237054D01*
X-191084Y-236967D01*
X-190941Y-236250D01*
Y-228750D01*
X-191174Y-227579D01*
X-191837Y-226587D01*
X-192829Y-225924D01*
X-194000Y-225691D01*
X-201197D01*
X-201866Y-224421D01*
X-201658Y-224118D01*
X-185034D01*
X-178368Y-230784D01*
X-177882Y-231338D01*
X-177232Y-232166D01*
X-176732Y-232901D01*
X-176377Y-233528D01*
X-176309Y-233684D01*
Y-242250D01*
X-176076Y-243421D01*
X-175413Y-244413D01*
X-174421Y-245076D01*
X-173250Y-245309D01*
X-161750D01*
X-160579Y-245076D01*
X-159587Y-244413D01*
X-158924Y-243421D01*
X-158691Y-242250D01*
Y-223750D01*
X-158924Y-222579D01*
X-159587Y-221587D01*
X-160579Y-220924D01*
X-161750Y-220691D01*
X-170836D01*
X-171018Y-220561D01*
X-172951Y-218898D01*
X-178174Y-213674D01*
X-180159Y-212348D01*
X-182500Y-211882D01*
X-205000D01*
X-207341Y-212348D01*
X-209326Y-213674D01*
X-215171Y-219520D01*
X-215890Y-219367D01*
X-216484Y-219036D01*
X-216584Y-218533D01*
X-216591Y-218447D01*
X-216608Y-218414D01*
X-216674Y-218079D01*
X-217123Y-217408D01*
X-217135Y-217384D01*
X-217143Y-217377D01*
X-217337Y-217087D01*
X-218024Y-216628D01*
X-218044Y-216611D01*
X-218055Y-216608D01*
X-218330Y-216424D01*
X-218851Y-216320D01*
X-218886Y-216226D01*
X-219001Y-215751D01*
X-219101Y-215093D01*
X-219132Y-214697D01*
Y-211784D01*
X-217466Y-210117D01*
X-159000D01*
X-156659Y-209652D01*
X-154674Y-208326D01*
X-150466Y-204118D01*
X-135478D01*
X-135121Y-204154D01*
X-134035Y-204988D01*
X-132088Y-205794D01*
X-130000Y-206069D01*
X-127912Y-205794D01*
X-125965Y-204988D01*
X-124294Y-203706D01*
X-123469Y-202630D01*
X-122436Y-203370D01*
X-122576Y-203580D01*
X-122642Y-203914D01*
X-122659Y-203946D01*
X-122666Y-204033D01*
X-122809Y-204750D01*
Y-223250D01*
X-122666Y-223967D01*
X-122659Y-224053D01*
X-122642Y-224086D01*
X-122576Y-224421D01*
X-122127Y-225092D01*
X-122115Y-225116D01*
X-122107Y-225123D01*
X-121913Y-225413D01*
X-121226Y-225872D01*
X-121206Y-225889D01*
X-121195Y-225892D01*
X-120920Y-226076D01*
X-120399Y-226180D01*
X-120365Y-226274D01*
X-120249Y-226749D01*
X-120179Y-227212D01*
X-120213Y-227407D01*
X-120358Y-227842D01*
X-120514Y-228131D01*
X-120674Y-228326D01*
X-120869Y-228486D01*
X-121158Y-228642D01*
X-121594Y-228787D01*
X-122135Y-228883D01*
X-126123D01*
X-126570Y-228843D01*
X-127211Y-228737D01*
X-127666Y-228615D01*
X-127691Y-228605D01*
Y-223750D01*
X-127924Y-222579D01*
X-128587Y-221587D01*
X-129579Y-220924D01*
X-130750Y-220691D01*
X-142250D01*
X-143421Y-220924D01*
X-144413Y-221587D01*
X-145076Y-222579D01*
X-145309Y-223750D01*
Y-242250D01*
X-145076Y-243421D01*
X-144413Y-244413D01*
X-143421Y-245076D01*
X-142250Y-245309D01*
X-130750D01*
X-129579Y-245076D01*
X-128587Y-244413D01*
X-127924Y-243421D01*
X-127691Y-242250D01*
Y-241395D01*
X-127667Y-241385D01*
X-127211Y-241263D01*
X-126570Y-241157D01*
X-126123Y-241118D01*
X-120082D01*
X-119369Y-241197D01*
X-118495Y-241363D01*
X-117658Y-241594D01*
X-116854Y-241889D01*
X-116076Y-242250D01*
X-115321Y-242678D01*
X-114585Y-243178D01*
X-114025Y-243626D01*
X-105326Y-252326D01*
X-103341Y-253652D01*
X-101000Y-254118D01*
X-76377D01*
X-75930Y-254157D01*
X-75289Y-254263D01*
X-74833Y-254385D01*
X-74809Y-254395D01*
Y-257750D01*
X-74576Y-258921D01*
X-73913Y-259913D01*
X-72920Y-260576D01*
X-71750Y-260809D01*
X-58250D01*
X-57079Y-260576D01*
X-56087Y-259913D01*
X-55424Y-258921D01*
X-55191Y-257750D01*
Y-238250D01*
X-55424Y-237080D01*
X-56087Y-236087D01*
X-57079Y-235424D01*
X-58250Y-235191D01*
X-71750D01*
X-72920Y-235424D01*
X-73913Y-236087D01*
X-74576Y-237080D01*
X-74809Y-238250D01*
Y-241605D01*
X-74833Y-241615D01*
X-75289Y-241737D01*
X-75930Y-241843D01*
X-76377Y-241882D01*
X-98466D01*
X-105373Y-234975D01*
X-105822Y-234415D01*
X-106322Y-233679D01*
X-106750Y-232924D01*
X-107111Y-232146D01*
X-107406Y-231342D01*
X-107637Y-230505D01*
X-107803Y-229631D01*
X-107882Y-228918D01*
Y-227803D01*
X-107851Y-227407D01*
X-107751Y-226749D01*
X-107635Y-226274D01*
X-107601Y-226180D01*
X-107079Y-226076D01*
X-106805Y-225892D01*
X-106794Y-225889D01*
X-106774Y-225872D01*
X-106087Y-225413D01*
X-105893Y-225123D01*
X-105885Y-225116D01*
X-105873Y-225092D01*
X-105424Y-224421D01*
X-105358Y-224086D01*
X-105341Y-224053D01*
X-105334Y-223967D01*
X-105191Y-223250D01*
Y-204750D01*
X-105334Y-204033D01*
X-105341Y-203946D01*
X-105358Y-203914D01*
X-105424Y-203580D01*
X-105873Y-202908D01*
X-105885Y-202884D01*
X-105893Y-202877D01*
X-106087Y-202587D01*
X-106774Y-202128D01*
X-106794Y-202111D01*
X-106805Y-202108D01*
X-107079Y-201924D01*
X-107601Y-201820D01*
X-107635Y-201726D01*
X-107751Y-201251D01*
X-107851Y-200592D01*
X-107882Y-200196D01*
Y-191886D01*
X-107843Y-191443D01*
X-107738Y-190808D01*
X-107616Y-190357D01*
X-107596Y-190309D01*
X-101250D01*
X-100533Y-190166D01*
X-100447Y-190159D01*
X-100414Y-190142D01*
X-100079Y-190076D01*
X-99408Y-189627D01*
X-99384Y-189615D01*
X-99377Y-189606D01*
X-99087Y-189413D01*
X-98628Y-188726D01*
X-98611Y-188706D01*
X-98608Y-188695D01*
X-98424Y-188421D01*
X-98320Y-187899D01*
X-98226Y-187864D01*
X-97751Y-187749D01*
X-97093Y-187649D01*
X-96750Y-187622D01*
X-96407Y-187649D01*
X-95749Y-187749D01*
X-95274Y-187864D01*
X-95180Y-187899D01*
X-95076Y-188421D01*
X-94892Y-188695D01*
X-94889Y-188706D01*
X-94872Y-188726D01*
X-94413Y-189413D01*
X-94123Y-189606D01*
X-94116Y-189615D01*
X-94092Y-189627D01*
X-93420Y-190076D01*
X-93086Y-190142D01*
X-93054Y-190159D01*
X-92967Y-190166D01*
X-92250Y-190309D01*
X-73750D01*
X-72579Y-190076D01*
X-71587Y-189413D01*
X-70924Y-188421D01*
X-70691Y-187250D01*
Y-177516D01*
X-69421Y-176990D01*
X-59069Y-187342D01*
Y-226000D01*
X-58794Y-228088D01*
X-57988Y-230035D01*
X-56706Y-231706D01*
X-50795Y-237616D01*
X-47315Y-241355D01*
X-45998Y-242992D01*
X-44981Y-244443D01*
X-44809Y-244743D01*
Y-257750D01*
X-44576Y-258921D01*
X-43913Y-259913D01*
X-42920Y-260576D01*
X-41750Y-260809D01*
X-28250D01*
X-27080Y-260576D01*
X-26087Y-259913D01*
X-25424Y-258921D01*
X-25191Y-257750D01*
Y-255407D01*
X-25176Y-255394D01*
X-24924Y-255240D01*
X-24445Y-255045D01*
X-23730Y-254853D01*
X-22789Y-254697D01*
X-21635Y-254595D01*
X-20305Y-254561D01*
X29575D01*
X32940Y-257925D01*
Y-259304D01*
X32905Y-260635D01*
X32803Y-261789D01*
X32647Y-262730D01*
X32455Y-263445D01*
X32260Y-263925D01*
X32107Y-264176D01*
X32093Y-264191D01*
X30000D01*
X28830Y-264424D01*
X27837Y-265087D01*
X27174Y-266080D01*
X26941Y-267250D01*
Y-282750D01*
X27174Y-283920D01*
X27837Y-284913D01*
X28830Y-285576D01*
X30000Y-285809D01*
X50000D01*
X50729Y-285664D01*
X50812Y-285657D01*
X50842Y-285641D01*
X51171Y-285576D01*
X51854Y-285119D01*
X51873Y-285110D01*
X51878Y-285103D01*
X52163Y-284913D01*
X52630Y-284214D01*
X52643Y-284198D01*
X52646Y-284190D01*
X52826Y-283920D01*
X52981Y-283140D01*
X53006Y-283061D01*
X53019Y-282950D01*
X53042Y-282837D01*
X53273Y-282705D01*
X53765Y-282518D01*
X54493Y-282336D01*
X55447Y-282188D01*
X55574Y-282178D01*
X55789Y-282197D01*
X56730Y-282353D01*
X57445Y-282545D01*
X57925Y-282740D01*
X58176Y-282893D01*
X58191Y-282907D01*
Y-284250D01*
X58424Y-285420D01*
X59087Y-286413D01*
X60079Y-287076D01*
X61250Y-287309D01*
X72750D01*
X73921Y-287076D01*
X74913Y-286413D01*
X75576Y-285420D01*
X75809Y-284250D01*
Y-265750D01*
X75576Y-264580D01*
X74913Y-263587D01*
X73921Y-262924D01*
X72750Y-262691D01*
X61250D01*
X60079Y-262924D01*
X59087Y-263587D01*
X58424Y-264580D01*
X58191Y-265750D01*
Y-267093D01*
X58176Y-267107D01*
X57924Y-267260D01*
X57445Y-267455D01*
X56730Y-267647D01*
X55789Y-267803D01*
X55574Y-267822D01*
X55447Y-267812D01*
X54493Y-267664D01*
X53765Y-267482D01*
X53273Y-267295D01*
X53042Y-267163D01*
X53019Y-267050D01*
X53006Y-266939D01*
X52981Y-266860D01*
X52826Y-266080D01*
X52646Y-265810D01*
X52643Y-265802D01*
X52630Y-265786D01*
X52163Y-265087D01*
X51878Y-264897D01*
X51873Y-264890D01*
X51854Y-264881D01*
X51171Y-264424D01*
X50842Y-264359D01*
X50812Y-264343D01*
X50729Y-264336D01*
X50000Y-264191D01*
X47907D01*
X47894Y-264177D01*
X47740Y-263925D01*
X47545Y-263445D01*
X47353Y-262730D01*
X47197Y-261789D01*
X47095Y-260635D01*
X47060Y-259304D01*
Y-255000D01*
X46820Y-253173D01*
X46115Y-251470D01*
X44992Y-250008D01*
X37492Y-242508D01*
X36030Y-241386D01*
X34327Y-240680D01*
X32500Y-240440D01*
X-20305D01*
X-21635Y-240405D01*
X-22789Y-240303D01*
X-23730Y-240147D01*
X-24445Y-239955D01*
X-24925Y-239760D01*
X-25176Y-239607D01*
X-25191Y-239593D01*
Y-238250D01*
X-25350Y-237454D01*
X-25355Y-237398D01*
X-25360Y-237388D01*
X-25362Y-237377D01*
X-25367Y-237367D01*
X-25424Y-237080D01*
X-26087Y-236087D01*
X-27080Y-235424D01*
X-27926Y-235256D01*
X-27980Y-235239D01*
X-28037Y-235234D01*
X-28250Y-235191D01*
X-28447D01*
X-28790Y-235098D01*
X-29331Y-234875D01*
X-30030Y-234505D01*
X-30860Y-233979D01*
X-31757Y-233334D01*
X-34620Y-230863D01*
X-34062Y-229679D01*
X-33683Y-229807D01*
X-31399Y-230108D01*
X-31198Y-230095D01*
X-31000Y-230134D01*
X31500D01*
X31698Y-230095D01*
X31899Y-230108D01*
X34183Y-229807D01*
X34562Y-229679D01*
X34955Y-229601D01*
X37083Y-228719D01*
X37416Y-228497D01*
X37775Y-228320D01*
X39603Y-226917D01*
X39866Y-226616D01*
X40167Y-226353D01*
X41570Y-224525D01*
X41747Y-224166D01*
X41969Y-223833D01*
X42851Y-221705D01*
X42929Y-221312D01*
X43057Y-220933D01*
X43358Y-218649D01*
X43332Y-218250D01*
X43358Y-217851D01*
X43057Y-215567D01*
X42929Y-215188D01*
X42851Y-214795D01*
X41969Y-212667D01*
X41747Y-212334D01*
X41570Y-211975D01*
X40167Y-210147D01*
X39866Y-209883D01*
X39603Y-209583D01*
X37775Y-208180D01*
X37416Y-208003D01*
X37083Y-207781D01*
X36016Y-207339D01*
X36269Y-206069D01*
X44000D01*
X46088Y-205794D01*
X48035Y-204988D01*
X49706Y-203706D01*
X62706Y-190706D01*
X63988Y-189035D01*
X64794Y-187088D01*
X65069Y-185000D01*
Y-76472D01*
X71051Y-71051D01*
X77673Y-63745D01*
X78751Y-62291D01*
X79814Y-62989D01*
X71511Y-77371D01*
X71446Y-77562D01*
X71334Y-77730D01*
X70452Y-79858D01*
X70374Y-80251D01*
X70245Y-80630D01*
X69945Y-82914D01*
X69971Y-83313D01*
X69945Y-83713D01*
X70245Y-85997D01*
X70374Y-86376D01*
X70452Y-86768D01*
X71334Y-88897D01*
X71556Y-89229D01*
X71733Y-89588D01*
X73136Y-91416D01*
X73436Y-91680D01*
X73700Y-91981D01*
X75528Y-93383D01*
X75887Y-93560D01*
X76220Y-93782D01*
X78348Y-94664D01*
X78741Y-94742D01*
X79119Y-94871D01*
X81404Y-95171D01*
X81803Y-95145D01*
X82202Y-95171D01*
X84486Y-94871D01*
X84865Y-94742D01*
X85258Y-94664D01*
X87386Y-93782D01*
X87719Y-93560D01*
X88078Y-93383D01*
X89906Y-91981D01*
X90169Y-91680D01*
X90470Y-91416D01*
X91873Y-89588D01*
X91962Y-89407D01*
X92095Y-89255D01*
X123345Y-35129D01*
X123410Y-34938D01*
X123522Y-34770D01*
X124404Y-32641D01*
X124482Y-32249D01*
X124610Y-31870D01*
X124911Y-29586D01*
X124885Y-29187D01*
X124911Y-28788D01*
X124610Y-26503D01*
X124482Y-26124D01*
X124404Y-25732D01*
X123522Y-23603D01*
X123300Y-23271D01*
X123123Y-22912D01*
X121720Y-21084D01*
X121419Y-20820D01*
X121156Y-20519D01*
X119328Y-19117D01*
X118969Y-18940D01*
X118636Y-18718D01*
X116508Y-17836D01*
X116115Y-17758D01*
X115736Y-17629D01*
X113452Y-17329D01*
X113053Y-17355D01*
X112654Y-17329D01*
X110369Y-17629D01*
X109991Y-17758D01*
X109598Y-17836D01*
X107470Y-18718D01*
X107137Y-18940D01*
X106778Y-19117D01*
X104950Y-20519D01*
X104686Y-20820D01*
X104386Y-21084D01*
X102983Y-22912D01*
X102894Y-23093D01*
X102761Y-23245D01*
X94508Y-37538D01*
X93351Y-37003D01*
X96154Y-29168D01*
X98550Y-19603D01*
X99997Y-9849D01*
X100481Y0D01*
X99997Y9849D01*
X98550Y19603D01*
X96154Y29168D01*
X93061Y37812D01*
X94219Y38348D01*
X103083Y22994D01*
X103216Y22843D01*
X103305Y22662D01*
X104708Y20834D01*
X105009Y20570D01*
X105272Y20269D01*
X107100Y18867D01*
X107459Y18690D01*
X107792Y18468D01*
X109920Y17586D01*
X110313Y17508D01*
X110691Y17379D01*
X112976Y17079D01*
X113375Y17105D01*
X113774Y17079D01*
X116058Y17379D01*
X116437Y17508D01*
X116830Y17586D01*
X118958Y18468D01*
X119291Y18690D01*
X119650Y18867D01*
X121478Y20269D01*
X121741Y20570D01*
X122042Y20834D01*
X123445Y22662D01*
X123622Y23021D01*
X123844Y23353D01*
X124726Y25482D01*
X124804Y25874D01*
X124932Y26253D01*
X125233Y28537D01*
X125207Y28937D01*
X125233Y29336D01*
X124932Y31620D01*
X124804Y31999D01*
X124726Y32392D01*
X123844Y34520D01*
X123732Y34688D01*
X123667Y34879D01*
X92417Y89005D01*
X92284Y89157D01*
X92195Y89338D01*
X90792Y91166D01*
X90491Y91430D01*
X90228Y91731D01*
X88400Y93133D01*
X88041Y93310D01*
X87708Y93532D01*
X85580Y94414D01*
X85187Y94492D01*
X84808Y94621D01*
X82524Y94921D01*
X82125Y94895D01*
X81726Y94921D01*
X79441Y94621D01*
X79063Y94492D01*
X78670Y94414D01*
X76542Y93532D01*
X76209Y93310D01*
X75850Y93133D01*
X74022Y91731D01*
X73759Y91430D01*
X73458Y91166D01*
X72055Y89338D01*
X71878Y88979D01*
X71656Y88647D01*
X70774Y86518D01*
X70696Y86126D01*
X70568Y85747D01*
X70267Y83462D01*
X70293Y83063D01*
X70267Y82664D01*
X70568Y80380D01*
X70696Y80001D01*
X70774Y79608D01*
X71656Y77480D01*
X71768Y77312D01*
X71833Y77121D01*
X80617Y61907D01*
X79553Y61209D01*
X77673Y63745D01*
X71051Y71051D01*
X67069Y74660D01*
Y186000D01*
X66794Y188088D01*
X65988Y190035D01*
X64706Y191706D01*
X53706Y202706D01*
X52035Y203988D01*
X50088Y204794D01*
X48000Y205069D01*
X-12489D01*
X-12754Y205346D01*
X-12213Y206616D01*
X31250D01*
X31448Y206655D01*
X31649Y206642D01*
X33933Y206943D01*
X34312Y207071D01*
X34705Y207149D01*
X36833Y208031D01*
X37166Y208253D01*
X37525Y208430D01*
X39353Y209833D01*
X39616Y210133D01*
X39917Y210397D01*
X41320Y212225D01*
X41497Y212584D01*
X41719Y212917D01*
X42601Y215045D01*
X42679Y215438D01*
X42807Y215816D01*
X43108Y218101D01*
X43082Y218500D01*
X43108Y218899D01*
X42807Y221183D01*
X42679Y221562D01*
X42601Y221955D01*
X41719Y224083D01*
X41497Y224416D01*
X41320Y224775D01*
X39917Y226603D01*
X39616Y226866D01*
X39353Y227167D01*
X37525Y228570D01*
X37166Y228747D01*
X36833Y228969D01*
X34705Y229851D01*
X34312Y229929D01*
X33933Y230057D01*
X31649Y230358D01*
X31448Y230345D01*
X31250Y230384D01*
X-31250D01*
X-31448Y230345D01*
X-31649Y230358D01*
X-33933Y230057D01*
X-34312Y229929D01*
X-34705Y229851D01*
X-36833Y228969D01*
X-37166Y228747D01*
X-37525Y228570D01*
X-39353Y227167D01*
X-39616Y226866D01*
X-39917Y226603D01*
X-41320Y224775D01*
X-41497Y224416D01*
X-41719Y224083D01*
X-42601Y221955D01*
X-42679Y221562D01*
X-42807Y221183D01*
X-43108Y218899D01*
X-43082Y218500D01*
X-43108Y218101D01*
X-42807Y215816D01*
X-42679Y215438D01*
X-42601Y215045D01*
X-41719Y212917D01*
X-41497Y212584D01*
X-41320Y212225D01*
X-39917Y210397D01*
X-39616Y210133D01*
X-39353Y209833D01*
X-37525Y208430D01*
X-37166Y208253D01*
X-36833Y208031D01*
X-34705Y207149D01*
X-34312Y207071D01*
X-33933Y206943D01*
X-31649Y206642D01*
X-31448Y206655D01*
X-31250Y206616D01*
X-22537D01*
X-22284Y205346D01*
X-22715Y205167D01*
X-24669Y203668D01*
X-26167Y201715D01*
X-27109Y199441D01*
X-27431Y197000D01*
X-27109Y194559D01*
X-26167Y192285D01*
X-25300Y191154D01*
X-25926Y189884D01*
X-31000D01*
X-31198Y189845D01*
X-31399Y189858D01*
X-33683Y189557D01*
X-34062Y189429D01*
X-34455Y189351D01*
X-36583Y188469D01*
X-36916Y188247D01*
X-37275Y188070D01*
X-39103Y186667D01*
X-39366Y186367D01*
X-39667Y186103D01*
X-41070Y184275D01*
X-41247Y183916D01*
X-41469Y183583D01*
X-42351Y181455D01*
X-42429Y181062D01*
X-42557Y180683D01*
X-42858Y178399D01*
X-42832Y178000D01*
X-42858Y177601D01*
X-42557Y175317D01*
X-42429Y174938D01*
X-42351Y174545D01*
X-41469Y172417D01*
X-41247Y172084D01*
X-41070Y171725D01*
X-39667Y169897D01*
X-39366Y169634D01*
X-39103Y169333D01*
X-37275Y167930D01*
X-36916Y167753D01*
X-36583Y167531D01*
X-34455Y166649D01*
X-34062Y166571D01*
X-33683Y166443D01*
X-31399Y166142D01*
X-31198Y166155D01*
X-31000Y166116D01*
X31500D01*
X31698Y166155D01*
X31899Y166142D01*
X34183Y166443D01*
X34562Y166571D01*
X34955Y166649D01*
X37083Y167531D01*
X37416Y167753D01*
X37775Y167930D01*
X39603Y169333D01*
X39866Y169634D01*
X40167Y169897D01*
X41570Y171725D01*
X41747Y172084D01*
X41969Y172417D01*
X42851Y174545D01*
X42929Y174938D01*
X43057Y175317D01*
X43358Y177601D01*
X43332Y178000D01*
X43358Y178399D01*
X43057Y180683D01*
X42929Y181062D01*
X42851Y181455D01*
X41969Y183583D01*
X41747Y183916D01*
X41570Y184275D01*
X40167Y186103D01*
X39866Y186367D01*
X39603Y186667D01*
X38308Y187661D01*
X38739Y188931D01*
X44658D01*
X50931Y182658D01*
Y71000D01*
X51206Y68912D01*
X52012Y66965D01*
X53294Y65294D01*
X53904Y64827D01*
X59634Y59634D01*
X65191Y53501D01*
X70122Y46854D01*
X74377Y39755D01*
X77915Y32273D01*
X80703Y24481D01*
X82714Y16453D01*
X83928Y8266D01*
X84335Y0D01*
X83928Y-8266D01*
X82714Y-16453D01*
X80703Y-24481D01*
X77915Y-32273D01*
X74377Y-39755D01*
X70122Y-46854D01*
X65191Y-53501D01*
X59634Y-59634D01*
X53501Y-65191D01*
X52310Y-66075D01*
X52310Y-66075D01*
X51622Y-66709D01*
X51447Y-66938D01*
X50340Y-68380D01*
X50198Y-68723D01*
X50012Y-68966D01*
X49206Y-70912D01*
X48931Y-73000D01*
Y-181658D01*
X40658Y-189931D01*
X36623D01*
X36370Y-188661D01*
X36833Y-188469D01*
X37166Y-188247D01*
X37525Y-188070D01*
X39353Y-186667D01*
X39616Y-186367D01*
X39917Y-186103D01*
X41320Y-184275D01*
X41497Y-183916D01*
X41719Y-183583D01*
X42601Y-181455D01*
X42679Y-181062D01*
X42807Y-180683D01*
X43108Y-178399D01*
X43082Y-178000D01*
X43108Y-177601D01*
X42807Y-175317D01*
X42679Y-174938D01*
X42601Y-174545D01*
X41719Y-172417D01*
X41497Y-172084D01*
X41320Y-171725D01*
X39917Y-169897D01*
X39616Y-169634D01*
X39353Y-169333D01*
X37525Y-167930D01*
X37166Y-167753D01*
X36833Y-167531D01*
X34705Y-166649D01*
X34312Y-166571D01*
X33933Y-166443D01*
X31649Y-166142D01*
X31448Y-166155D01*
X31250Y-166116D01*
X-31250D01*
X-31448Y-166155D01*
X-31649Y-166142D01*
X-33933Y-166443D01*
X-34312Y-166571D01*
X-34705Y-166649D01*
X-36833Y-167531D01*
X-37166Y-167753D01*
X-37525Y-167930D01*
X-39353Y-169333D01*
X-39616Y-169634D01*
X-39917Y-169897D01*
X-41320Y-171725D01*
X-41497Y-172084D01*
X-41719Y-172417D01*
X-42601Y-174545D01*
X-42679Y-174938D01*
X-42807Y-175317D01*
X-43108Y-177601D01*
X-43082Y-178000D01*
X-43108Y-178399D01*
X-43003Y-179198D01*
X-44218Y-179697D01*
X-45294Y-178294D01*
X-63294Y-160294D01*
X-64966Y-159012D01*
X-66912Y-158206D01*
X-69000Y-157931D01*
X-69854D01*
X-70773Y-156661D01*
X-70691Y-156250D01*
Y-144750D01*
X-70924Y-143580D01*
X-71587Y-142587D01*
X-72579Y-141924D01*
X-73750Y-141691D01*
X-78353D01*
X-78455Y-141655D01*
X-78589Y-141565D01*
X-78787Y-141351D01*
X-79050Y-140919D01*
X-79336Y-140219D01*
X-79597Y-139245D01*
X-79803Y-138005D01*
X-79935Y-136512D01*
X-79971Y-135132D01*
Y-119320D01*
X-79931Y-119016D01*
Y-109000D01*
X-80206Y-106912D01*
X-81012Y-104965D01*
X-82294Y-103294D01*
X-83966Y-102012D01*
X-85912Y-101206D01*
X-88000Y-100931D01*
X-90088Y-101206D01*
X-92035Y-102012D01*
X-93706Y-103294D01*
X-94988Y-104965D01*
X-95794Y-106912D01*
X-96069Y-109000D01*
Y-118752D01*
X-96109Y-119056D01*
Y-144132D01*
X-97868Y-144223D01*
X-98226Y-144136D01*
X-98320Y-144101D01*
X-98424Y-143580D01*
X-98608Y-143305D01*
X-98611Y-143294D01*
X-98628Y-143274D01*
X-99087Y-142587D01*
X-99377Y-142394D01*
X-99384Y-142385D01*
X-99408Y-142373D01*
X-100079Y-141924D01*
X-100414Y-141858D01*
X-100447Y-141841D01*
X-100533Y-141834D01*
X-101250Y-141691D01*
X-119750D01*
X-120467Y-141834D01*
X-120554Y-141841D01*
X-120586Y-141858D01*
X-120920Y-141924D01*
X-121592Y-142373D01*
X-121616Y-142385D01*
X-121623Y-142394D01*
X-121913Y-142587D01*
X-122372Y-143274D01*
X-122389Y-143294D01*
X-122392Y-143305D01*
X-122576Y-143580D01*
X-122680Y-144101D01*
X-122774Y-144136D01*
X-123249Y-144251D01*
X-123907Y-144351D01*
X-124250Y-144378D01*
X-124593Y-144351D01*
X-125251Y-144251D01*
X-125726Y-144136D01*
X-125820Y-144101D01*
X-125924Y-143580D01*
X-126108Y-143305D01*
X-126111Y-143294D01*
X-126128Y-143274D01*
X-126587Y-142587D01*
X-126877Y-142394D01*
X-126884Y-142385D01*
X-126908Y-142373D01*
X-127579Y-141924D01*
X-127914Y-141858D01*
X-127947Y-141841D01*
X-128033Y-141834D01*
X-128750Y-141691D01*
X-147250D01*
X-148420Y-141924D01*
X-149413Y-142587D01*
X-150076Y-143580D01*
X-150309Y-144750D01*
Y-156250D01*
X-150227Y-156661D01*
X-151146Y-157931D01*
X-161658D01*
X-170001Y-149587D01*
X-169684Y-148109D01*
X-168292Y-147532D01*
X-167959Y-147310D01*
X-167600Y-147133D01*
X-165772Y-145731D01*
X-165509Y-145430D01*
X-165208Y-145166D01*
X-163805Y-143338D01*
X-163628Y-142979D01*
X-163406Y-142647D01*
X-162524Y-140518D01*
X-162446Y-140126D01*
X-162318Y-139747D01*
X-162017Y-137463D01*
X-162043Y-137063D01*
X-162017Y-136664D01*
X-162318Y-134380D01*
X-162446Y-134001D01*
X-162524Y-133609D01*
X-163406Y-131480D01*
X-163518Y-131312D01*
X-163583Y-131121D01*
X-168176Y-123166D01*
X-167250Y-122229D01*
X-165650Y-122892D01*
X-163562Y-123167D01*
X-161473Y-122892D01*
X-159527Y-122086D01*
X-157856Y-120804D01*
X-156574Y-119133D01*
X-155768Y-117187D01*
X-155493Y-115098D01*
X-155768Y-113010D01*
X-155884Y-112728D01*
X-154743Y-112165D01*
X-148917Y-122255D01*
X-148784Y-122407D01*
X-148695Y-122588D01*
X-147292Y-124416D01*
X-146992Y-124680D01*
X-146728Y-124981D01*
X-144900Y-126383D01*
X-144541Y-126560D01*
X-144208Y-126782D01*
X-142080Y-127664D01*
X-141687Y-127742D01*
X-141308Y-127871D01*
X-139024Y-128171D01*
X-138625Y-128145D01*
X-138226Y-128171D01*
X-135942Y-127871D01*
X-135563Y-127742D01*
X-135170Y-127664D01*
X-133042Y-126782D01*
X-132709Y-126560D01*
X-132350Y-126383D01*
X-130522Y-124980D01*
X-130259Y-124680D01*
X-129958Y-124416D01*
X-128555Y-122588D01*
X-128378Y-122229D01*
X-128156Y-121897D01*
X-127274Y-119768D01*
X-127196Y-119376D01*
X-127068Y-118997D01*
X-126767Y-116713D01*
X-126793Y-116313D01*
X-126767Y-115914D01*
X-127068Y-113630D01*
X-127196Y-113251D01*
X-127274Y-112858D01*
X-128156Y-110730D01*
X-128268Y-110562D01*
X-128333Y-110371D01*
X-159583Y-56245D01*
X-159716Y-56093D01*
X-159805Y-55912D01*
X-161208Y-54084D01*
X-161509Y-53820D01*
X-161772Y-53519D01*
X-163600Y-52117D01*
X-163959Y-51940D01*
X-164292Y-51718D01*
X-166420Y-50836D01*
X-166813Y-50758D01*
X-167192Y-50629D01*
X-169476Y-50329D01*
X-169875Y-50355D01*
X-170274Y-50329D01*
X-172558Y-50629D01*
X-172937Y-50758D01*
X-173330Y-50836D01*
X-175458Y-51718D01*
X-175791Y-51940D01*
X-176150Y-52117D01*
X-177978Y-53519D01*
X-178242Y-53820D01*
X-178542Y-54084D01*
X-179945Y-55912D01*
X-180122Y-56271D01*
X-180344Y-56603D01*
X-181226Y-58732D01*
X-182501Y-58635D01*
X-182732Y-58557D01*
X-184218Y-54091D01*
X-187608Y-40812D01*
X-190041Y-27324D01*
X-191506Y-13697D01*
X-191546Y-12569D01*
X-190307Y-11698D01*
X-189750Y-11809D01*
X-185462D01*
X-183394Y-12665D01*
X-180000Y-13112D01*
X-97893D01*
X-96977Y-19290D01*
X-94619Y-28702D01*
X-91350Y-37839D01*
X-87202Y-46610D01*
X-82213Y-54933D01*
X-76433Y-62727D01*
X-69917Y-69917D01*
X-69881Y-69881D01*
X-68372Y-71039D01*
X-66069Y-73342D01*
Y-128000D01*
X-65794Y-130088D01*
X-64988Y-132035D01*
X-63706Y-133706D01*
X-56456Y-140956D01*
X-54784Y-142238D01*
X-52838Y-143044D01*
X-50750Y-143319D01*
X-22843D01*
X-22715Y-143417D01*
X-20441Y-144359D01*
X-18000Y-144681D01*
X-15559Y-144359D01*
X-13285Y-143417D01*
X-11331Y-141918D01*
X-9833Y-139965D01*
X-8891Y-137691D01*
X-8569Y-135250D01*
X-8891Y-132809D01*
X-9833Y-130535D01*
X-11331Y-128581D01*
X-13285Y-127083D01*
X-15559Y-126141D01*
X-18000Y-125819D01*
X-20441Y-126141D01*
X-22715Y-127083D01*
X-22843Y-127181D01*
X-47408D01*
X-49931Y-124658D01*
Y-70000D01*
X-50206Y-67912D01*
X-51012Y-65965D01*
X-52294Y-64294D01*
X-58294Y-58294D01*
X-59578Y-57309D01*
X-63952Y-52484D01*
X-68788Y-45963D01*
X-72962Y-38999D01*
X-76433Y-31660D01*
X-79168Y-24015D01*
X-81141Y-16140D01*
X-82332Y-8109D01*
X-82638Y-1896D01*
X-82388Y0D01*
X-82638Y1896D01*
X-82332Y8109D01*
X-81141Y16140D01*
X-79168Y24015D01*
X-76433Y31660D01*
X-72962Y38999D01*
X-68788Y45963D01*
X-63952Y52484D01*
X-58499Y58499D01*
X-52484Y63952D01*
X-45963Y68788D01*
X-38999Y72962D01*
X-31660Y76433D01*
X-24015Y79168D01*
X-16140Y81141D01*
X-8109Y82332D01*
X0Y82731D01*
X8109Y82332D01*
X16140Y81141D01*
X24015Y79168D01*
X24945Y78836D01*
X25331Y78331D01*
X27285Y76833D01*
X29559Y75891D01*
X32000Y75569D01*
X34441Y75891D01*
X36715Y76833D01*
X38668Y78331D01*
X40167Y80285D01*
X41109Y82559D01*
X41431Y85000D01*
X41109Y87441D01*
X40167Y89715D01*
X38668Y91669D01*
X36715Y93167D01*
X34441Y94109D01*
X32000Y94431D01*
X29975Y94164D01*
X28702Y94619D01*
X19290Y96977D01*
X9692Y98401D01*
X0Y98877D01*
X-9692Y98401D01*
X-19290Y96977D01*
X-28702Y94619D01*
X-37839Y91350D01*
X-46610Y87202D01*
X-54933Y82213D01*
X-62727Y76433D01*
X-69917Y69917D01*
X-76433Y62727D01*
X-82213Y54933D01*
X-87202Y46610D01*
X-91350Y37839D01*
X-94619Y28702D01*
X-96977Y19290D01*
X-97893Y13112D01*
X-180000D01*
X-182305Y12809D01*
X-189750D01*
X-190271Y12705D01*
X-191510Y13593D01*
X-191506Y13697D01*
X-190041Y27324D01*
X-187608Y40812D01*
X-184218Y54091D01*
X-182458Y59379D01*
X-181143Y59309D01*
X-181135Y59286D01*
X-181057Y58893D01*
X-180175Y56765D01*
X-179953Y56432D01*
X-179776Y56073D01*
X-178374Y54246D01*
X-178073Y53982D01*
X-177809Y53681D01*
X-175981Y52278D01*
X-175622Y52101D01*
X-175290Y51879D01*
X-173161Y50998D01*
X-172769Y50919D01*
X-172390Y50791D01*
X-170106Y50490D01*
X-169706Y50516D01*
X-169307Y50490D01*
X-167023Y50791D01*
X-166644Y50919D01*
X-166252Y50998D01*
X-164123Y51879D01*
X-163790Y52101D01*
X-163432Y52278D01*
X-161604Y53681D01*
X-161340Y53982D01*
X-161039Y54246D01*
X-159637Y56073D01*
X-159547Y56254D01*
X-159414Y56406D01*
X-128164Y110533D01*
X-128099Y110724D01*
X-127987Y110892D01*
X-127106Y113020D01*
X-127028Y113413D01*
X-126899Y113791D01*
X-126598Y116076D01*
X-126624Y116475D01*
X-126598Y116874D01*
X-126899Y119158D01*
X-127028Y119537D01*
X-127106Y119930D01*
X-127987Y122058D01*
X-128210Y122391D01*
X-128387Y122750D01*
X-129789Y124578D01*
X-130090Y124841D01*
X-130354Y125142D01*
X-132182Y126545D01*
X-132540Y126722D01*
X-132873Y126944D01*
X-135002Y127826D01*
X-135394Y127904D01*
X-135773Y128032D01*
X-138057Y128333D01*
X-138456Y128307D01*
X-138856Y128333D01*
X-141140Y128032D01*
X-141260Y127992D01*
X-141758Y128573D01*
X-141951Y129113D01*
X-135761Y135761D01*
X-125730Y145100D01*
X-115058Y153700D01*
X-103800Y161517D01*
X-102471Y162306D01*
X-102420Y162327D01*
X-102162Y162489D01*
X-102177Y162513D01*
X-100749Y163609D01*
X-99466Y165280D01*
X-98660Y167226D01*
X-98385Y169315D01*
X-98660Y171403D01*
X-99466Y173349D01*
X-100749Y175021D01*
X-102420Y176303D01*
X-104366Y177109D01*
X-106454Y177384D01*
X-108542Y177109D01*
X-110489Y176303D01*
X-110992Y175916D01*
X-115620Y173038D01*
X-126690Y165106D01*
X-137217Y156466D01*
X-147157Y147157D01*
X-156466Y137217D01*
X-159443Y133590D01*
X-160655Y134116D01*
X-160517Y135164D01*
X-160543Y135563D01*
X-160517Y135962D01*
X-160818Y138247D01*
X-160946Y138626D01*
X-161024Y139018D01*
X-161906Y141147D01*
X-162128Y141479D01*
X-162305Y141838D01*
X-163708Y143666D01*
X-164009Y143930D01*
X-164272Y144231D01*
X-166100Y145633D01*
X-166459Y145810D01*
X-166792Y146032D01*
X-168920Y146914D01*
X-169313Y146992D01*
X-169692Y147121D01*
X-171976Y147421D01*
X-172375Y147395D01*
X-172774Y147421D01*
X-175058Y147121D01*
X-175437Y146992D01*
X-175830Y146914D01*
X-177958Y146032D01*
X-178291Y145810D01*
X-178650Y145633D01*
X-180478Y144231D01*
X-180741Y143930D01*
X-181042Y143666D01*
X-182445Y141838D01*
X-182534Y141657D01*
X-182667Y141505D01*
X-213917Y87379D01*
X-213982Y87188D01*
X-214094Y87020D01*
X-214976Y84892D01*
X-215054Y84499D01*
X-215182Y84120D01*
X-215483Y81836D01*
X-215457Y81437D01*
X-215483Y81038D01*
X-215182Y78753D01*
X-215054Y78374D01*
X-214976Y77982D01*
X-214094Y75853D01*
X-213872Y75521D01*
X-213695Y75162D01*
X-212292Y73334D01*
X-211991Y73070D01*
X-211728Y72769D01*
X-209900Y71367D01*
X-209541Y71190D01*
X-209208Y70968D01*
X-207080Y70086D01*
X-206687Y70008D01*
X-206308Y69879D01*
X-204024Y69579D01*
X-203625Y69605D01*
X-203226Y69579D01*
X-200942Y69879D01*
X-200563Y70008D01*
X-200170Y70086D01*
X-198042Y70968D01*
X-197709Y71190D01*
X-197350Y71367D01*
X-196493Y72024D01*
X-195433Y71237D01*
X-197067Y66895D01*
X-201020Y53863D01*
X-204113Y40601D01*
X-206331Y27164D01*
X-207657Y13705D01*
X-207742Y13561D01*
X-208965Y12752D01*
X-209250Y12809D01*
X-216945D01*
X-219250Y13112D01*
X-224988D01*
X-226627Y13155D01*
X-229820Y13437D01*
X-232561Y13893D01*
X-234836Y14504D01*
X-236634Y15239D01*
X-237966Y16051D01*
X-238879Y16898D01*
X-239468Y17780D01*
X-239821Y18779D01*
X-239877Y19303D01*
Y83751D01*
X-240366Y87471D01*
X-241802Y90937D01*
X-244086Y93914D01*
X-247063Y96198D01*
X-250530Y97634D01*
X-254250Y98124D01*
X-276750D01*
X-280470Y97634D01*
X-283936Y96198D01*
X-286913Y93914D01*
X-289197Y90937D01*
X-290633Y87471D01*
X-291123Y83751D01*
Y7665D01*
X-299426Y7075D01*
X-302000D01*
X-305039Y6776D01*
X-307960Y5889D01*
X-310653Y4450D01*
X-313013Y2513D01*
X-314950Y153D01*
X-316389Y-2540D01*
X-317276Y-5462D01*
X-317575Y-8500D01*
X-317276Y-11538D01*
X-316389Y-14460D01*
X-314950Y-17153D01*
X-313013Y-19513D01*
X-310653Y-21450D01*
X-307960Y-22889D01*
X-305039Y-23776D01*
X-302000Y-24075D01*
X-301167D01*
X-294984Y-24191D01*
X-291786Y-24419D01*
X-291021Y-24518D01*
X-290633Y-27469D01*
X-289197Y-30936D01*
X-286913Y-33912D01*
X-283936Y-36196D01*
X-280470Y-37632D01*
X-276750Y-38122D01*
X-254250D01*
X-250530Y-37632D01*
X-247063Y-36196D01*
X-244086Y-33912D01*
X-241802Y-30936D01*
X-240366Y-27469D01*
X-239877Y-23749D01*
Y-19303D01*
X-239821Y-18779D01*
X-239468Y-17780D01*
X-238879Y-16898D01*
X-237966Y-16051D01*
X-236635Y-15239D01*
X-234836Y-14504D01*
X-232561Y-13893D01*
X-229820Y-13437D01*
X-226627Y-13155D01*
X-224988Y-13112D01*
X-219250D01*
X-215856Y-12665D01*
X-213788Y-11809D01*
X-209250D01*
X-208997Y-11759D01*
X-207695Y-12730D01*
X-207666Y-13611D01*
X-206331Y-27164D01*
X-204113Y-40601D01*
X-201020Y-53863D01*
X-197067Y-66895D01*
X-193077Y-77495D01*
X-194229Y-78040D01*
X-194833Y-76995D01*
X-194966Y-76843D01*
X-195055Y-76662D01*
X-196458Y-74834D01*
X-196759Y-74570D01*
X-197022Y-74269D01*
X-198850Y-72867D01*
X-199209Y-72690D01*
X-199542Y-72468D01*
X-201670Y-71586D01*
X-202063Y-71508D01*
X-202442Y-71379D01*
X-204726Y-71079D01*
X-205125Y-71105D01*
X-205524Y-71079D01*
X-207808Y-71379D01*
X-208187Y-71508D01*
X-208580Y-71586D01*
X-210708Y-72468D01*
X-211041Y-72690D01*
X-211400Y-72867D01*
X-213228Y-74269D01*
X-213491Y-74570D01*
X-213792Y-74834D01*
X-215195Y-76662D01*
X-215372Y-77021D01*
X-215594Y-77353D01*
X-216476Y-79482D01*
X-216554Y-79874D01*
X-216682Y-80253D01*
X-216983Y-82537D01*
X-216957Y-82937D01*
X-216983Y-83336D01*
X-216682Y-85620D01*
X-216554Y-85999D01*
X-216476Y-86391D01*
X-215594Y-88520D01*
X-215482Y-88688D01*
X-215417Y-88879D01*
X-184167Y-143006D01*
X-184034Y-143157D01*
X-183945Y-143338D01*
X-182930Y-144661D01*
X-183556Y-145931D01*
X-201658D01*
X-220544Y-127044D01*
X-222215Y-125762D01*
X-224162Y-124956D01*
X-226250Y-124681D01*
X-248182D01*
X-249527Y-124649D01*
X-251037Y-124530D01*
X-252299Y-124342D01*
X-253298Y-124102D01*
X-254018Y-123839D01*
X-254458Y-123599D01*
X-254650Y-123440D01*
X-254688Y-123388D01*
X-254691Y-123380D01*
Y-123250D01*
X-254730Y-123056D01*
X-254745Y-122925D01*
X-254773Y-122840D01*
X-254924Y-122079D01*
X-255110Y-121802D01*
X-255114Y-121790D01*
X-255133Y-121767D01*
X-255587Y-121087D01*
X-255880Y-120892D01*
X-255888Y-120882D01*
X-255914Y-120868D01*
X-256579Y-120424D01*
X-256917Y-120357D01*
X-256951Y-120339D01*
X-257040Y-120332D01*
X-257750Y-120191D01*
X-269750D01*
X-270921Y-120424D01*
X-271913Y-121087D01*
X-272576Y-122079D01*
X-272809Y-123250D01*
Y-143250D01*
X-272576Y-144420D01*
X-271913Y-145413D01*
X-270921Y-146076D01*
X-269917Y-146276D01*
X-269884Y-146358D01*
X-269762Y-146808D01*
X-269657Y-147443D01*
X-269618Y-147886D01*
Y-158966D01*
X-273563Y-162912D01*
X-274900Y-162585D01*
X-274965Y-162518D01*
X-275587Y-161587D01*
X-276579Y-160924D01*
X-277750Y-160691D01*
X-289250D01*
X-290421Y-160924D01*
X-291413Y-161587D01*
X-292076Y-162579D01*
X-292309Y-163750D01*
Y-182250D01*
X-292076Y-183421D01*
X-291413Y-184413D01*
X-290421Y-185076D01*
X-289250Y-185309D01*
X-277750D01*
X-276579Y-185076D01*
X-275587Y-184413D01*
X-274924Y-183421D01*
X-274691Y-182250D01*
Y-176339D01*
X-274341Y-176248D01*
X-273723Y-176150D01*
X-273342Y-176117D01*
X-272000D01*
X-269659Y-175652D01*
X-267674Y-174326D01*
X-259174Y-165826D01*
X-257848Y-163841D01*
X-257383Y-161500D01*
Y-147803D01*
X-257351Y-147408D01*
X-257251Y-146749D01*
X-257136Y-146274D01*
X-257101Y-146180D01*
X-256579Y-146076D01*
X-256305Y-145892D01*
X-256294Y-145889D01*
X-256274Y-145872D01*
X-255587Y-145413D01*
X-255394Y-145123D01*
X-255385Y-145116D01*
X-255373Y-145092D01*
X-254924Y-144420D01*
X-254858Y-144086D01*
X-254841Y-144053D01*
X-254834Y-143967D01*
X-254691Y-143250D01*
Y-142435D01*
X-254656Y-142334D01*
X-254566Y-142201D01*
X-254352Y-142003D01*
X-253920Y-141740D01*
X-253221Y-141454D01*
X-252246Y-141193D01*
X-251006Y-140987D01*
X-249513Y-140855D01*
X-248132Y-140819D01*
X-229592D01*
X-210706Y-159706D01*
X-209035Y-160988D01*
X-207088Y-161794D01*
X-205000Y-162069D01*
X-200558D01*
X-200249Y-163301D01*
X-200653Y-163517D01*
X-200886Y-163708D01*
X-201152Y-163850D01*
X-203664Y-165912D01*
X-203855Y-166145D01*
X-204088Y-166336D01*
X-206150Y-168848D01*
X-206292Y-169114D01*
X-206483Y-169347D01*
X-208015Y-172213D01*
X-208103Y-172502D01*
X-208245Y-172767D01*
X-209188Y-175877D01*
X-209218Y-176177D01*
X-209305Y-176466D01*
X-209624Y-179700D01*
X-209594Y-180000D01*
X-209624Y-180300D01*
X-209305Y-183534D01*
X-209218Y-183823D01*
X-209188Y-184123D01*
X-208245Y-187233D01*
X-208103Y-187498D01*
X-208015Y-187787D01*
X-206483Y-190653D01*
X-206292Y-190886D01*
X-206150Y-191152D01*
X-204088Y-193664D01*
X-203855Y-193855D01*
X-203664Y-194088D01*
X-201152Y-196150D01*
X-200886Y-196292D01*
X-200653Y-196483D01*
X-200340Y-196651D01*
X-200649Y-197882D01*
X-220000D01*
X-222341Y-198348D01*
X-224326Y-199674D01*
X-229576Y-204924D01*
X-230902Y-206909D01*
X-231368Y-209250D01*
Y-214697D01*
X-231399Y-215093D01*
X-231499Y-215751D01*
X-231614Y-216226D01*
X-231649Y-216320D01*
X-232171Y-216424D01*
X-232445Y-216608D01*
X-232456Y-216611D01*
X-232476Y-216628D01*
X-233163Y-217087D01*
X-233357Y-217377D01*
X-233365Y-217384D01*
X-233377Y-217408D01*
X-233826Y-218079D01*
X-233892Y-218414D01*
X-233909Y-218447D01*
X-233916Y-218533D01*
X-234059Y-219250D01*
Y-226750D01*
X-233826Y-227920D01*
X-233163Y-228913D01*
X-232171Y-229576D01*
X-231000Y-229809D01*
X-219500D01*
X-219388Y-229786D01*
X-218118Y-230829D01*
Y-232466D01*
X-220843Y-235191D01*
X-231000D01*
X-231965Y-235383D01*
X-243674Y-223674D01*
X-245659Y-222348D01*
X-248000Y-221882D01*
X-249368D01*
X-249580Y-221866D01*
X-250147Y-221785D01*
X-250290Y-221752D01*
X-250424Y-221080D01*
X-251087Y-220087D01*
X-252080Y-219424D01*
X-253250Y-219191D01*
X-271750D01*
X-272920Y-219424D01*
X-273913Y-220087D01*
X-274576Y-221080D01*
X-274809Y-222250D01*
Y-233750D01*
X-274576Y-234921D01*
X-273913Y-235913D01*
X-272920Y-236576D01*
X-271750Y-236809D01*
X-253250D01*
X-252080Y-236576D01*
X-251087Y-235913D01*
X-250866Y-235582D01*
X-249311Y-235340D01*
X-238326Y-246326D01*
X-236341Y-247652D01*
X-234000Y-248117D01*
X-232857D01*
X-232171Y-248576D01*
X-231000Y-248809D01*
X-219500D01*
X-218330Y-248576D01*
X-217337Y-247913D01*
X-217240Y-247767D01*
X-216659Y-247652D01*
X-214674Y-246326D01*
X-207674Y-239326D01*
X-207321Y-239111D01*
X-207148Y-239134D01*
X-206032Y-239613D01*
X-205999Y-239749D01*
X-205899Y-240408D01*
X-205868Y-240804D01*
Y-261216D01*
X-210534Y-265882D01*
X-267466D01*
X-289562Y-243786D01*
X-289098Y-243091D01*
X-288632Y-240750D01*
Y-225303D01*
X-288601Y-224907D01*
X-288501Y-224249D01*
X-288386Y-223774D01*
X-288351Y-223680D01*
X-287829Y-223576D01*
X-287555Y-223392D01*
X-287544Y-223389D01*
X-287524Y-223372D01*
X-286837Y-222913D01*
X-286643Y-222623D01*
X-286635Y-222616D01*
X-286623Y-222592D01*
X-286174Y-221921D01*
X-286108Y-221586D01*
X-286091Y-221553D01*
X-286084Y-221467D01*
X-285941Y-220750D01*
Y-213250D01*
X-286174Y-212080D01*
X-286837Y-211087D01*
X-287829Y-210424D01*
X-289000Y-210191D01*
X-300500D01*
X-301670Y-210424D01*
X-302663Y-211087D01*
X-303326Y-212080D01*
X-303559Y-213250D01*
Y-220750D01*
X-303416Y-221467D01*
X-303409Y-221553D01*
X-303392Y-221586D01*
X-303326Y-221921D01*
X-302877Y-222592D01*
X-302865Y-222616D01*
X-302857Y-222623D01*
X-302663Y-222913D01*
X-301976Y-223372D01*
X-301956Y-223389D01*
X-301945Y-223392D01*
X-301670Y-223576D01*
X-301149Y-223680D01*
X-301114Y-223774D01*
X-300999Y-224249D01*
X-300899Y-224907D01*
X-300868Y-225303D01*
Y-237882D01*
X-316466D01*
X-327882Y-226466D01*
Y-215011D01*
X-326612Y-214187D01*
X-326000Y-214309D01*
X-314500D01*
X-313329Y-214076D01*
X-312337Y-213413D01*
X-311674Y-212421D01*
X-311441Y-211250D01*
Y-203750D01*
X-311584Y-203033D01*
X-311591Y-202946D01*
X-311607Y-202914D01*
X-311674Y-202579D01*
X-312123Y-201908D01*
X-312135Y-201884D01*
X-312143Y-201877D01*
X-312337Y-201587D01*
X-313024Y-201128D01*
X-313044Y-201111D01*
X-313055Y-201108D01*
X-313329Y-200924D01*
X-313710Y-200848D01*
X-314003Y-199654D01*
X-310674Y-196326D01*
X-309348Y-194341D01*
X-308883Y-192000D01*
Y-186886D01*
X-308843Y-186443D01*
X-308738Y-185808D01*
X-308616Y-185357D01*
X-308583Y-185275D01*
X-307579Y-185076D01*
X-306587Y-184413D01*
X-305924Y-183421D01*
X-305691Y-182250D01*
Y-163750D01*
X-305924Y-162579D01*
X-306587Y-161587D01*
X-307579Y-160924D01*
X-308590Y-160723D01*
X-308615Y-160662D01*
X-308737Y-160207D01*
X-308843Y-159566D01*
X-308883Y-159121D01*
Y-148034D01*
X-307425Y-146577D01*
X-307132Y-146309D01*
X-302750D01*
X-301579Y-146076D01*
X-300587Y-145413D01*
X-299924Y-144420D01*
X-299691Y-143250D01*
Y-123250D01*
X-299924Y-122079D01*
X-300587Y-121087D01*
X-301579Y-120424D01*
X-302750Y-120191D01*
X-314750D01*
X-315921Y-120424D01*
X-316913Y-121087D01*
X-317576Y-122079D01*
X-317809Y-123250D01*
Y-139597D01*
X-318260Y-140108D01*
X-319326Y-141174D01*
X-320652Y-143159D01*
X-321118Y-145500D01*
Y-159385D01*
X-321135Y-159656D01*
X-321222Y-160357D01*
X-321326Y-160880D01*
X-321334Y-160907D01*
X-321421Y-160924D01*
X-321743Y-161139D01*
X-321774Y-161150D01*
X-321819Y-161190D01*
X-322413Y-161587D01*
X-322638Y-161924D01*
X-322663Y-161947D01*
X-322689Y-162001D01*
X-323076Y-162579D01*
X-323153Y-162967D01*
X-323180Y-163023D01*
X-323186Y-163131D01*
X-323309Y-163750D01*
Y-182250D01*
X-323186Y-182869D01*
X-323180Y-182977D01*
X-323153Y-183033D01*
X-323076Y-183421D01*
X-322689Y-184000D01*
X-322663Y-184053D01*
X-322638Y-184076D01*
X-322413Y-184413D01*
X-321819Y-184810D01*
X-321774Y-184850D01*
X-321743Y-184861D01*
X-321421Y-185076D01*
X-321334Y-185093D01*
X-321326Y-185120D01*
X-321231Y-185597D01*
X-321118Y-186822D01*
Y-189466D01*
X-324576Y-192924D01*
X-325902Y-194909D01*
X-326367Y-197250D01*
Y-199196D01*
X-326389Y-199464D01*
X-326613Y-199653D01*
X-326713Y-199641D01*
X-327882Y-198786D01*
Y-112000D01*
X-328348Y-109659D01*
X-329674Y-107674D01*
X-379422Y-57927D01*
Y131389D01*
X-378827Y131877D01*
X-377707Y131636D01*
X-376483Y129347D01*
X-376292Y129114D01*
X-376150Y128848D01*
X-374088Y126336D01*
X-373855Y126145D01*
X-373664Y125912D01*
X-371152Y123850D01*
X-370886Y123708D01*
X-370653Y123517D01*
X-367787Y121985D01*
X-367498Y121897D01*
X-367233Y121755D01*
X-364123Y120812D01*
X-363823Y120782D01*
X-363534Y120695D01*
X-360300Y120376D01*
X-360149Y120391D01*
X-360000Y120361D01*
X-359851Y120391D01*
X-359700Y120376D01*
X-356466Y120695D01*
X-356177Y120782D01*
X-355877Y120812D01*
X-352767Y121755D01*
X-352502Y121897D01*
X-352213Y121985D01*
X-349347Y123517D01*
X-349114Y123708D01*
X-348848Y123850D01*
X-346336Y125912D01*
X-346145Y126145D01*
X-345912Y126336D01*
X-343850Y128848D01*
X-343708Y129114D01*
X-343517Y129347D01*
X-341985Y132213D01*
X-341897Y132502D01*
X-341755Y132767D01*
X-340812Y135878D01*
X-340782Y136177D01*
X-340695Y136466D01*
X-340376Y139700D01*
X-340406Y140000D01*
X-340376Y140300D01*
X-340695Y143534D01*
X-340782Y143823D01*
X-340812Y144122D01*
X-341755Y147233D01*
X-341897Y147498D01*
X-341985Y147787D01*
X-343517Y150653D01*
X-343708Y150886D01*
X-343850Y151152D01*
X-345912Y153664D01*
X-346145Y153855D01*
X-346336Y154088D01*
X-348848Y156150D01*
X-349114Y156292D01*
X-349347Y156483D01*
X-352213Y158015D01*
X-352502Y158103D01*
X-352767Y158245D01*
X-355877Y159188D01*
X-356177Y159218D01*
X-356466Y159305D01*
X-359700Y159624D01*
X-359851Y159609D01*
X-360000Y159639D01*
X-360149Y159609D01*
X-360300Y159624D01*
X-363534Y159305D01*
X-363823Y159218D01*
X-364123Y159188D01*
X-367233Y158245D01*
X-367498Y158103D01*
X-367787Y158015D01*
X-370653Y156483D01*
X-370886Y156292D01*
X-371152Y156150D01*
X-373664Y154088D01*
X-373855Y153855D01*
X-374088Y153664D01*
X-376150Y151152D01*
X-376292Y150886D01*
X-376483Y150653D01*
X-377707Y148364D01*
X-378827Y148123D01*
X-379422Y148611D01*
Y156927D01*
X-361256Y175093D01*
X-349790D01*
X-347449Y175558D01*
X-345464Y176884D01*
X-277966Y244382D01*
X125094D01*
X127435Y244848D01*
X129420Y246174D01*
X130573Y247327D01*
X132071Y247030D01*
X132512Y245965D01*
X133339Y244888D01*
X133383Y244250D01*
Y176500D01*
X133848Y174159D01*
X135174Y172174D01*
X155174Y152174D01*
X157159Y150848D01*
X159500Y150382D01*
X173716D01*
X175899Y148199D01*
X175180Y147122D01*
X175080Y147164D01*
X174687Y147242D01*
X174308Y147371D01*
X172024Y147671D01*
X171625Y147645D01*
X171226Y147671D01*
X168941Y147371D01*
X168563Y147242D01*
X168170Y147164D01*
X166042Y146282D01*
X165709Y146060D01*
X165350Y145883D01*
X163522Y144481D01*
X163259Y144180D01*
X162958Y143916D01*
X161555Y142088D01*
X161378Y141729D01*
X161156Y141397D01*
X160274Y139268D01*
X160196Y138876D01*
X160068Y138497D01*
X159767Y136213D01*
X159793Y135813D01*
X159767Y135414D01*
X160068Y133130D01*
X160196Y132751D01*
X160274Y132359D01*
X161156Y130230D01*
X161268Y130062D01*
X161333Y129871D01*
X192583Y75745D01*
X192716Y75593D01*
X192805Y75412D01*
X194208Y73584D01*
X194509Y73320D01*
X194772Y73019D01*
X196600Y71617D01*
X196959Y71440D01*
X197292Y71218D01*
X199420Y70336D01*
X199813Y70258D01*
X200191Y70129D01*
X202476Y69829D01*
X202875Y69855D01*
X203274Y69829D01*
X205558Y70129D01*
X205937Y70258D01*
X206330Y70336D01*
X208458Y71218D01*
X208791Y71440D01*
X209150Y71617D01*
X210978Y73019D01*
X211241Y73320D01*
X211542Y73584D01*
X212945Y75412D01*
X213122Y75771D01*
X213344Y76103D01*
X214226Y78232D01*
X214304Y78624D01*
X214432Y79003D01*
X214733Y81287D01*
X214707Y81687D01*
X214733Y82086D01*
X214432Y84370D01*
X214304Y84749D01*
X214226Y85141D01*
X213344Y87270D01*
X213232Y87438D01*
X213167Y87629D01*
X183789Y138514D01*
X184805Y139294D01*
X189424Y134674D01*
X191409Y133348D01*
X193750Y132882D01*
X194820D01*
X195189Y132844D01*
X195806Y132732D01*
X196357Y132583D01*
X196847Y132402D01*
X197285Y132190D01*
X197678Y131948D01*
X198036Y131672D01*
X198366Y131359D01*
X198774Y130884D01*
X198867Y130811D01*
X198932Y130712D01*
X199016Y130656D01*
X199728Y129728D01*
X202444Y127645D01*
X205606Y126335D01*
X209000Y125888D01*
X212394Y126335D01*
X215556Y127645D01*
X218272Y129728D01*
X220355Y132444D01*
X221665Y135606D01*
X222112Y139000D01*
X221665Y142394D01*
X220355Y145556D01*
X218272Y148272D01*
X215556Y150356D01*
X212394Y151665D01*
X209000Y152112D01*
X205606Y151665D01*
X202444Y150356D01*
X199728Y148272D01*
X199016Y147344D01*
X198932Y147288D01*
X198867Y147189D01*
X198774Y147116D01*
X198366Y146642D01*
X198036Y146327D01*
X197678Y146052D01*
X197285Y145810D01*
X196847Y145598D01*
X196357Y145417D01*
X196064Y145337D01*
X180576Y160826D01*
X178591Y162152D01*
X176250Y162617D01*
X162034D01*
X145618Y179034D01*
Y244522D01*
X145654Y244879D01*
X146488Y245965D01*
X147294Y247912D01*
X147569Y250000D01*
X147294Y252088D01*
X146488Y254035D01*
X145206Y255706D01*
X143534Y256988D01*
X142923Y257241D01*
X142613Y258602D01*
X143279Y259382D01*
X182216D01*
X280882Y160716D01*
Y126877D01*
X280843Y126430D01*
X280737Y125789D01*
X280615Y125334D01*
X280605Y125309D01*
X277750D01*
X276579Y125076D01*
X275587Y124413D01*
X274924Y123420D01*
X274691Y122250D01*
Y110750D01*
X274924Y109579D01*
X275587Y108587D01*
X275886Y108387D01*
X275501Y107118D01*
X267499D01*
X267114Y108387D01*
X267413Y108587D01*
X268076Y109579D01*
X268309Y110750D01*
Y122250D01*
X268076Y123420D01*
X267413Y124413D01*
X266420Y125076D01*
X265250Y125309D01*
X262395D01*
X262385Y125333D01*
X262263Y125789D01*
X262157Y126430D01*
X262118Y126877D01*
Y133282D01*
X262142Y133624D01*
X262236Y134304D01*
X262346Y134802D01*
X262367Y134864D01*
X262670Y134924D01*
X262966Y135122D01*
X262987Y135128D01*
X263021Y135158D01*
X263663Y135587D01*
X263871Y135898D01*
X263887Y135912D01*
X263907Y135953D01*
X264326Y136580D01*
X264397Y136937D01*
X264419Y136981D01*
X264426Y137080D01*
X264559Y137750D01*
Y145250D01*
X264426Y145920D01*
X264419Y146019D01*
X264397Y146063D01*
X264326Y146420D01*
X263907Y147047D01*
X263887Y147088D01*
X263871Y147102D01*
X263663Y147413D01*
X263021Y147842D01*
X262987Y147872D01*
X262966Y147878D01*
X262670Y148076D01*
X262366Y148136D01*
X262346Y148197D01*
X262247Y148646D01*
X262118Y149902D01*
Y152282D01*
X262142Y152624D01*
X262236Y153304D01*
X262346Y153802D01*
X262367Y153863D01*
X262670Y153924D01*
X262966Y154122D01*
X262987Y154128D01*
X263021Y154158D01*
X263663Y154587D01*
X263871Y154898D01*
X263887Y154912D01*
X263907Y154952D01*
X264326Y155579D01*
X264397Y155937D01*
X264419Y155981D01*
X264426Y156080D01*
X264559Y156750D01*
Y164250D01*
X264326Y165420D01*
X263663Y166413D01*
X262670Y167076D01*
X261500Y167309D01*
X250000D01*
X248829Y167076D01*
X247837Y166413D01*
X247174Y165420D01*
X246941Y164250D01*
Y156750D01*
X247093Y155989D01*
X247099Y155918D01*
X247111Y155894D01*
X247174Y155579D01*
X247651Y154866D01*
X247653Y154861D01*
X247655Y154860D01*
X247837Y154587D01*
X248566Y154100D01*
X248570Y154097D01*
X248572Y154096D01*
X248829Y153924D01*
X249568Y153777D01*
X249618Y153652D01*
X249739Y153199D01*
X249844Y152561D01*
X249883Y152123D01*
Y149877D01*
X249844Y149439D01*
X249739Y148801D01*
X249618Y148348D01*
X249568Y148223D01*
X248829Y148076D01*
X248572Y147904D01*
X248570Y147903D01*
X248566Y147900D01*
X247837Y147413D01*
X247655Y147140D01*
X247653Y147139D01*
X247651Y147134D01*
X247174Y146420D01*
X247111Y146105D01*
X247099Y146082D01*
X247093Y146011D01*
X246941Y145250D01*
Y137750D01*
X247093Y136989D01*
X247099Y136918D01*
X247111Y136895D01*
X247174Y136580D01*
X247651Y135866D01*
X247653Y135861D01*
X247655Y135860D01*
X247837Y135587D01*
X248566Y135100D01*
X248570Y135097D01*
X248572Y135096D01*
X248829Y134924D01*
X249568Y134777D01*
X249618Y134652D01*
X249739Y134199D01*
X249844Y133561D01*
X249883Y133123D01*
Y126877D01*
X249843Y126430D01*
X249737Y125789D01*
X249615Y125334D01*
X249605Y125309D01*
X246750D01*
X245579Y125076D01*
X244587Y124413D01*
X243924Y123420D01*
X243691Y122250D01*
Y110750D01*
X243924Y109579D01*
X244587Y108587D01*
X245579Y107924D01*
X246750Y107691D01*
X259928D01*
X260314Y106421D01*
X258674Y105326D01*
X251674Y98326D01*
X250348Y96341D01*
X249944Y94309D01*
X246750D01*
X245579Y94076D01*
X244587Y93413D01*
X243924Y92421D01*
X243691Y91250D01*
Y79750D01*
X243924Y78580D01*
X244587Y77587D01*
X245579Y76924D01*
X246750Y76691D01*
X249596D01*
X249616Y76642D01*
X249737Y76192D01*
X249843Y75557D01*
X249883Y75114D01*
Y58618D01*
X243877D01*
X243430Y58657D01*
X242789Y58763D01*
X242334Y58885D01*
X242309Y58895D01*
Y62250D01*
X242076Y63421D01*
X241413Y64413D01*
X240420Y65076D01*
X239250Y65309D01*
X226756D01*
X226230Y66579D01*
X231326Y71674D01*
X232652Y73659D01*
X233118Y76000D01*
Y93466D01*
X234576Y94924D01*
X235902Y96909D01*
X236367Y99250D01*
Y142697D01*
X236399Y143092D01*
X236499Y143751D01*
X236614Y144226D01*
X236649Y144320D01*
X237171Y144424D01*
X237445Y144608D01*
X237456Y144611D01*
X237476Y144628D01*
X238163Y145087D01*
X238356Y145377D01*
X238365Y145384D01*
X238377Y145408D01*
X238826Y146080D01*
X238892Y146414D01*
X238909Y146447D01*
X238916Y146533D01*
X239059Y147250D01*
Y154750D01*
X238826Y155920D01*
X238163Y156913D01*
X237171Y157576D01*
X236000Y157809D01*
X224500D01*
X223330Y157576D01*
X222337Y156913D01*
X221674Y155920D01*
X221441Y154750D01*
Y147250D01*
X221584Y146533D01*
X221591Y146447D01*
X221608Y146414D01*
X221674Y146080D01*
X222123Y145408D01*
X222135Y145384D01*
X222143Y145377D01*
X222337Y145087D01*
X223024Y144628D01*
X223044Y144611D01*
X223055Y144608D01*
X223330Y144424D01*
X223851Y144320D01*
X223886Y144226D01*
X224001Y143751D01*
X224101Y143092D01*
X224132Y142697D01*
Y101784D01*
X222674Y100326D01*
X221348Y98341D01*
X220882Y96000D01*
Y78534D01*
X213174Y70826D01*
X211848Y68841D01*
X211383Y66500D01*
Y65844D01*
X210112Y65137D01*
X209250Y65309D01*
X195750D01*
X194580Y65076D01*
X193587Y64413D01*
X192924Y63421D01*
X192691Y62250D01*
Y57910D01*
X192673Y57894D01*
X192421Y57740D01*
X191941Y57545D01*
X191227Y57353D01*
X190286Y57197D01*
X189133Y57095D01*
X187804Y57060D01*
X182000D01*
X181444Y56987D01*
X180670Y57995D01*
X180976Y58732D01*
X181054Y59124D01*
X181182Y59503D01*
X181483Y61787D01*
X181457Y62187D01*
X181483Y62586D01*
X181182Y64870D01*
X181054Y65249D01*
X180976Y65641D01*
X180094Y67770D01*
X179982Y67938D01*
X179917Y68129D01*
X148667Y122255D01*
X148534Y122407D01*
X148445Y122588D01*
X147042Y124416D01*
X146741Y124680D01*
X146478Y124981D01*
X144650Y126383D01*
X144291Y126560D01*
X143958Y126782D01*
X141830Y127664D01*
X141437Y127742D01*
X141058Y127871D01*
X138774Y128171D01*
X138375Y128145D01*
X137976Y128171D01*
X135691Y127871D01*
X135313Y127742D01*
X134920Y127664D01*
X132792Y126782D01*
X132459Y126560D01*
X132100Y126383D01*
X130272Y124981D01*
X130009Y124680D01*
X129708Y124416D01*
X128305Y122588D01*
X128128Y122229D01*
X127906Y121897D01*
X127024Y119768D01*
X126946Y119376D01*
X126818Y118997D01*
X126517Y116713D01*
X126543Y116313D01*
X126517Y115914D01*
X126818Y113630D01*
X126946Y113251D01*
X127024Y112858D01*
X127906Y110730D01*
X128018Y110562D01*
X128083Y110371D01*
X159333Y56245D01*
X159466Y56093D01*
X159555Y55912D01*
X160958Y54084D01*
X161259Y53820D01*
X161522Y53519D01*
X163350Y52117D01*
X163709Y51940D01*
X164042Y51718D01*
X166170Y50836D01*
X166563Y50758D01*
X166942Y50629D01*
X169226Y50329D01*
X169625Y50355D01*
X170024Y50329D01*
X170627Y50408D01*
X171220Y49205D01*
X164007Y41992D01*
X162885Y40530D01*
X162180Y38827D01*
X161940Y37000D01*
Y28886D01*
X160670Y28761D01*
X158807Y38126D01*
X155326Y50469D01*
X150887Y62500D01*
X145519Y74145D01*
X139253Y85334D01*
X132128Y95997D01*
X124189Y106067D01*
X119069Y111606D01*
Y125966D01*
X129034Y135931D01*
X140157D01*
X140285Y135833D01*
X142559Y134891D01*
X145000Y134569D01*
X147441Y134891D01*
X149715Y135833D01*
X151669Y137331D01*
X153167Y139285D01*
X154109Y141559D01*
X154431Y144000D01*
X154109Y146441D01*
X153167Y148715D01*
X151669Y150668D01*
X149715Y152167D01*
X147441Y153109D01*
X145000Y153431D01*
X142559Y153109D01*
X140285Y152167D01*
X140157Y152069D01*
X125692D01*
X123603Y151794D01*
X121657Y150988D01*
X119986Y149706D01*
X105294Y135014D01*
X104012Y133343D01*
X103206Y131397D01*
X102931Y129308D01*
Y110777D01*
X102662Y108736D01*
X102937Y106648D01*
X103743Y104702D01*
X104981Y103089D01*
X104980Y103089D01*
X111917Y95586D01*
X119071Y86510D01*
X125492Y76901D01*
X131138Y66818D01*
X135976Y56323D01*
X139976Y45481D01*
X143113Y34358D01*
X145368Y23024D01*
X146726Y11548D01*
X147180Y0D01*
X146726Y-11548D01*
X145709Y-20143D01*
X144833Y-21285D01*
X143891Y-23559D01*
X143569Y-26000D01*
X143891Y-28441D01*
X144833Y-30715D01*
X146332Y-32668D01*
X148285Y-34167D01*
X150559Y-35109D01*
X153000Y-35431D01*
X154621Y-35217D01*
X155396Y-36396D01*
X91440Y-143377D01*
X91419Y-143427D01*
X91385Y-143470D01*
X91053Y-144271D01*
X90709Y-145069D01*
X90701Y-145123D01*
X90680Y-145173D01*
X90567Y-146033D01*
X90440Y-146892D01*
X90447Y-146946D01*
X90440Y-147000D01*
Y-197346D01*
X90416Y-198684D01*
X90343Y-199899D01*
X90228Y-200915D01*
X90081Y-201717D01*
X89924Y-202283D01*
X89891Y-202362D01*
X89579Y-202424D01*
X89234Y-202655D01*
X89193Y-202670D01*
X89144Y-202715D01*
X88587Y-203087D01*
X88346Y-203448D01*
X88314Y-203477D01*
X88286Y-203538D01*
X87924Y-204079D01*
X87842Y-204493D01*
X87811Y-204559D01*
X87806Y-204671D01*
X87691Y-205250D01*
Y-224750D01*
X87822Y-225409D01*
X87829Y-225511D01*
X87852Y-225557D01*
X87924Y-225921D01*
X88336Y-226537D01*
X88358Y-226581D01*
X88376Y-226597D01*
X88587Y-226913D01*
X89219Y-227335D01*
X89256Y-227367D01*
X89279Y-227375D01*
X89579Y-227576D01*
X90278Y-227715D01*
X90357Y-227875D01*
X90530Y-228401D01*
X90684Y-229115D01*
X90833Y-230596D01*
X90745Y-231456D01*
X90609Y-232277D01*
X90460Y-232867D01*
X90447Y-232901D01*
X90330Y-232924D01*
X89954Y-233175D01*
X89904Y-233194D01*
X89853Y-233243D01*
X89337Y-233587D01*
X89076Y-233978D01*
X89037Y-234015D01*
X89008Y-234079D01*
X88674Y-234580D01*
X88585Y-235027D01*
X88550Y-235105D01*
X88547Y-235217D01*
X88441Y-235750D01*
Y-254250D01*
X88547Y-254783D01*
X88550Y-254895D01*
X88585Y-254973D01*
X88674Y-255420D01*
X89008Y-255921D01*
X89037Y-255985D01*
X89076Y-256022D01*
X89337Y-256413D01*
X89853Y-256757D01*
X89904Y-256806D01*
X89954Y-256825D01*
X90330Y-257076D01*
X90447Y-257099D01*
X90460Y-257134D01*
X90609Y-257723D01*
X90738Y-258506D01*
X90871Y-260218D01*
X90796Y-261605D01*
X90697Y-262463D01*
X90580Y-263129D01*
X90539Y-263285D01*
X90533Y-263289D01*
X90473Y-263317D01*
X90445Y-263348D01*
X90087Y-263587D01*
X89712Y-264149D01*
X89667Y-264198D01*
X89653Y-264237D01*
X89424Y-264580D01*
X89298Y-265214D01*
X89260Y-265319D01*
X89263Y-265391D01*
X89191Y-265750D01*
Y-284250D01*
X89424Y-285420D01*
X90087Y-286413D01*
X91080Y-287076D01*
X92250Y-287309D01*
X103750D01*
X104921Y-287076D01*
X105913Y-286413D01*
X106576Y-285420D01*
X106809Y-284250D01*
Y-265750D01*
X106737Y-265391D01*
X106740Y-265319D01*
X106702Y-265214D01*
X106576Y-264580D01*
X106347Y-264237D01*
X106333Y-264198D01*
X106288Y-264149D01*
X105913Y-263587D01*
X105555Y-263348D01*
X105527Y-263317D01*
X105467Y-263289D01*
X105461Y-263285D01*
X105420Y-263129D01*
X105315Y-262528D01*
X105151Y-260241D01*
X105197Y-259723D01*
X105353Y-258787D01*
X105544Y-258077D01*
X105738Y-257603D01*
X105890Y-257354D01*
X105932Y-257309D01*
X107000D01*
X108170Y-257076D01*
X109163Y-256413D01*
X109826Y-255420D01*
X110059Y-254250D01*
Y-235810D01*
X188076D01*
X198940Y-246674D01*
Y-271000D01*
X199180Y-272827D01*
X199886Y-274530D01*
X201007Y-275992D01*
X208008Y-282992D01*
X209470Y-284114D01*
X211173Y-284820D01*
X212921Y-285050D01*
X212961Y-285058D01*
X212988Y-285059D01*
X213000Y-285060D01*
X213109D01*
X213898Y-285070D01*
X215420Y-285162D01*
X215601Y-285186D01*
X216087Y-285913D01*
X217080Y-286576D01*
X218250Y-286809D01*
X236750D01*
X237110Y-286737D01*
X237181Y-286740D01*
X237286Y-286702D01*
X237921Y-286576D01*
X238263Y-286347D01*
X238302Y-286333D01*
X238351Y-286288D01*
X238913Y-285913D01*
X239152Y-285555D01*
X239183Y-285527D01*
X239211Y-285467D01*
X239215Y-285461D01*
X239371Y-285420D01*
X239972Y-285315D01*
X241556Y-285201D01*
X241605Y-285204D01*
X242463Y-285303D01*
X243129Y-285420D01*
X243285Y-285461D01*
X243289Y-285467D01*
X243317Y-285527D01*
X243348Y-285555D01*
X243587Y-285913D01*
X244149Y-286288D01*
X244198Y-286333D01*
X244237Y-286347D01*
X244580Y-286576D01*
X245214Y-286702D01*
X245319Y-286740D01*
X245391Y-286737D01*
X245750Y-286809D01*
X264250D01*
X264967Y-286666D01*
X265054Y-286659D01*
X265086Y-286642D01*
X265421Y-286576D01*
X266092Y-286127D01*
X266116Y-286115D01*
X266123Y-286106D01*
X266413Y-285913D01*
X266872Y-285226D01*
X266889Y-285206D01*
X266892Y-285195D01*
X267076Y-284921D01*
X267180Y-284399D01*
X267274Y-284364D01*
X267749Y-284249D01*
X268407Y-284149D01*
X268804Y-284118D01*
X281000D01*
X283341Y-283652D01*
X285326Y-282326D01*
X351326Y-216326D01*
X352652Y-214341D01*
X353117Y-212000D01*
Y-165000D01*
X352652Y-162659D01*
X351326Y-160674D01*
X346597Y-155945D01*
X347451Y-155003D01*
X348848Y-156150D01*
X349114Y-156292D01*
X349347Y-156483D01*
X352213Y-158015D01*
X352502Y-158103D01*
X352767Y-158245D01*
X355877Y-159188D01*
X356177Y-159218D01*
X356466Y-159305D01*
X359700Y-159624D01*
X359851Y-159609D01*
X360000Y-159639D01*
X360149Y-159609D01*
X360300Y-159624D01*
X363534Y-159305D01*
X363823Y-159218D01*
X364123Y-159188D01*
X367233Y-158245D01*
X367498Y-158103D01*
X367787Y-158015D01*
X370653Y-156483D01*
X370886Y-156292D01*
X371152Y-156150D01*
X373664Y-154088D01*
X373855Y-153855D01*
X374088Y-153664D01*
X376150Y-151152D01*
X376292Y-150886D01*
X376483Y-150653D01*
X378015Y-147787D01*
X378103Y-147498D01*
X378245Y-147233D01*
X379188Y-144122D01*
X379218Y-143823D01*
X379305Y-143534D01*
X379624Y-140300D01*
X379594Y-140000D01*
X379624Y-139700D01*
X379305Y-136466D01*
X379218Y-136177D01*
X379188Y-135878D01*
X378245Y-132767D01*
X378103Y-132502D01*
X378015Y-132213D01*
X376483Y-129347D01*
X376292Y-129114D01*
X376150Y-128848D01*
X374088Y-126336D01*
X373855Y-126145D01*
X373664Y-125912D01*
X371152Y-123850D01*
X370886Y-123708D01*
X370653Y-123517D01*
X367787Y-121985D01*
X367498Y-121897D01*
X367233Y-121755D01*
X364123Y-120812D01*
X363823Y-120782D01*
X363534Y-120695D01*
X360300Y-120376D01*
X360149Y-120391D01*
X360000Y-120361D01*
X359851Y-120391D01*
X359700Y-120376D01*
X356466Y-120695D01*
X356177Y-120782D01*
X355877Y-120812D01*
X352767Y-121755D01*
X352502Y-121897D01*
X352213Y-121985D01*
X349347Y-123517D01*
X349114Y-123708D01*
X348848Y-123850D01*
X347450Y-124997D01*
X346596Y-124055D01*
X372326Y-98326D01*
X373652Y-96341D01*
X374118Y-94000D01*
Y21000D01*
X374060Y21291D01*
X374089Y21586D01*
X373829Y22453D01*
X373652Y23341D01*
X373619Y23389D01*
X374200Y24097D01*
X375639Y26790D01*
X376526Y29711D01*
X376825Y32750D01*
X376526Y35789D01*
X375639Y38710D01*
X374200Y41403D01*
X372263Y43763D01*
X369903Y45700D01*
X367210Y47139D01*
X364288Y48026D01*
X361250Y48325D01*
X346250D01*
X343212Y48026D01*
X340290Y47139D01*
X337597Y45700D01*
X335237Y43763D01*
X333300Y41403D01*
X331861Y38710D01*
X330974Y35789D01*
X330887Y34908D01*
X329618Y34970D01*
Y61522D01*
X329654Y61878D01*
X330488Y62965D01*
X331294Y64912D01*
X331569Y67000D01*
X331294Y69088D01*
X330488Y71034D01*
X329206Y72706D01*
X327534Y73988D01*
X325588Y74794D01*
X323500Y75069D01*
X321412Y74794D01*
X319466Y73988D01*
X319247Y73820D01*
X318108Y74382D01*
Y75870D01*
X318137Y76197D01*
X318218Y76683D01*
X318220Y76691D01*
X322250D01*
X323420Y76924D01*
X324413Y77587D01*
X325076Y78580D01*
X325309Y79750D01*
Y91250D01*
X325076Y92421D01*
X324413Y93413D01*
X324114Y93612D01*
X324499Y94882D01*
X332466D01*
X336149Y91200D01*
X336154Y89561D01*
X335487Y89013D01*
X333550Y86653D01*
X332111Y83960D01*
X331224Y81039D01*
X330925Y78000D01*
X331224Y74962D01*
X332111Y72040D01*
X333550Y69347D01*
X335487Y66987D01*
X337847Y65050D01*
X340540Y63611D01*
X343461Y62724D01*
X346500Y62425D01*
X361500D01*
X364538Y62724D01*
X367460Y63611D01*
X370153Y65050D01*
X372513Y66987D01*
X374450Y69347D01*
X375889Y72040D01*
X376776Y74962D01*
X377075Y78000D01*
X376776Y81039D01*
X375889Y83960D01*
X374450Y86653D01*
X372513Y89013D01*
X370153Y90950D01*
X367460Y92389D01*
X364538Y93276D01*
X361500Y93575D01*
X353830D01*
X353725Y93587D01*
X353581Y93575D01*
X352777D01*
X352418Y93644D01*
X351928Y93800D01*
X351365Y94047D01*
X350734Y94396D01*
X350080Y94829D01*
X348707Y95945D01*
X339326Y105326D01*
X337341Y106652D01*
X335000Y107118D01*
X298499D01*
X298114Y108387D01*
X298413Y108587D01*
X299076Y109579D01*
X299309Y110750D01*
Y122250D01*
X299076Y123420D01*
X298413Y124413D01*
X297421Y125076D01*
X296250Y125309D01*
X293395D01*
X293385Y125333D01*
X293263Y125789D01*
X293157Y126430D01*
X293118Y126877D01*
Y163250D01*
X292652Y165591D01*
X291326Y167576D01*
X189076Y269826D01*
X187091Y271152D01*
X184750Y271618D01*
X140094D01*
X137753Y271152D01*
X135768Y269826D01*
X122560Y256618D01*
X-280500D01*
X-282841Y256152D01*
X-284826Y254826D01*
X-352324Y187327D01*
X-363790D01*
X-366131Y186862D01*
X-368116Y185536D01*
X-389652Y164000D01*
X-390922Y164301D01*
Y165811D01*
X-245811Y310922D01*
X83311D01*
X92116Y302116D01*
X92116Y302116D01*
X93439Y301232D01*
X95000Y300922D01*
X180000D01*
X180000Y300922D01*
X181561Y301232D01*
X182884Y302116D01*
X191689Y310922D01*
X246311D01*
X390922Y166311D01*
D02*
G37*
G36*
X315012Y-11733D02*
X315195Y-13983D01*
X315304Y-14533D01*
X315438Y-14983D01*
X315596Y-15333D01*
X315779Y-15583D01*
X315986Y-15733D01*
X316217Y-15783D01*
X308783D01*
X309014Y-15733D01*
X309221Y-15583D01*
X309404Y-15333D01*
X309562Y-14983D01*
X309696Y-14533D01*
X309805Y-13983D01*
X309890Y-13333D01*
X309988Y-11733D01*
X310000Y-10783D01*
X315000D01*
X315012Y-11733D01*
D02*
G37*
G36*
X175655Y1082D02*
X176856Y120D01*
X178105Y-728D01*
X179400Y-1463D01*
X180743Y-2086D01*
X182132Y-2595D01*
X183230Y-2898D01*
X183265Y-2866D01*
X183314Y-2717D01*
Y-2921D01*
X183568Y-2991D01*
X185051Y-3274D01*
X186580Y-3443D01*
X188157Y-3500D01*
Y-11500D01*
X186580Y-11557D01*
X185051Y-11726D01*
X183568Y-12009D01*
X183314Y-12079D01*
Y-12283D01*
X183265Y-12134D01*
X183230Y-12102D01*
X182132Y-12405D01*
X180743Y-12914D01*
X179400Y-13536D01*
X178105Y-14272D01*
X176856Y-15120D01*
X175655Y-16082D01*
X174500Y-17157D01*
X167186Y-13157D01*
X168204Y-12026D01*
X168997Y-10894D01*
X169562Y-9763D01*
X169902Y-8631D01*
X170015Y-7500D01*
X169902Y-6369D01*
X169562Y-5237D01*
X168997Y-4106D01*
X168204Y-2975D01*
X167186Y-1843D01*
X174500Y2157D01*
X175655Y1082D01*
D02*
G37*
G36*
X199348Y-4841D02*
X200674Y-6826D01*
X205674Y-11826D01*
X207659Y-13152D01*
X210000Y-13618D01*
X211191D01*
Y-16750D01*
X211424Y-17921D01*
X212087Y-18913D01*
X213079Y-19576D01*
X214250Y-19809D01*
X223336D01*
X223518Y-19939D01*
X224660Y-20921D01*
X224188Y-22191D01*
X213250D01*
X212080Y-22424D01*
X211087Y-23087D01*
X210424Y-24079D01*
X210191Y-25250D01*
Y-44750D01*
X210424Y-45921D01*
X211087Y-46913D01*
X212080Y-47576D01*
X213250Y-47809D01*
X213944D01*
X214348Y-49841D01*
X215674Y-51826D01*
X230909Y-67060D01*
X231894Y-68122D01*
X232599Y-69004D01*
X233139Y-69780D01*
X233191Y-69871D01*
Y-81750D01*
X233424Y-82921D01*
X234087Y-83913D01*
X235079Y-84576D01*
X236083Y-84775D01*
X236116Y-84858D01*
X236238Y-85308D01*
X236343Y-85943D01*
X236383Y-86385D01*
Y-89123D01*
X236343Y-89570D01*
X236237Y-90211D01*
X236115Y-90666D01*
X236105Y-90691D01*
X233250D01*
X232080Y-90924D01*
X231087Y-91587D01*
X230424Y-92579D01*
X230191Y-93750D01*
Y-105250D01*
X230424Y-106420D01*
X231087Y-107413D01*
X232080Y-108076D01*
X233250Y-108309D01*
X251750D01*
X252920Y-108076D01*
X253275Y-107839D01*
X254155Y-108778D01*
X253645Y-109444D01*
X252335Y-112606D01*
X251888Y-116000D01*
X252335Y-119394D01*
X252840Y-120613D01*
X251926Y-121726D01*
X251750Y-121691D01*
X233250D01*
X232080Y-121924D01*
X231087Y-122587D01*
X230424Y-123580D01*
X230191Y-124750D01*
Y-136250D01*
X230424Y-137421D01*
X231087Y-138413D01*
X232080Y-139076D01*
X233250Y-139309D01*
X241784D01*
X241989Y-139398D01*
X242613Y-139749D01*
X243309Y-140221D01*
X244842Y-141494D01*
X246383Y-143034D01*
Y-149288D01*
X246379Y-149439D01*
X246280Y-150690D01*
X246260Y-150827D01*
X245924Y-151329D01*
X245691Y-152500D01*
Y-164000D01*
X244967Y-164882D01*
X241033D01*
X240309Y-164000D01*
Y-152500D01*
X240076Y-151329D01*
X239413Y-150337D01*
X238421Y-149674D01*
X237250Y-149441D01*
X229750D01*
X228580Y-149674D01*
X227587Y-150337D01*
X226924Y-151329D01*
X226691Y-152500D01*
Y-164000D01*
X226924Y-165170D01*
X227292Y-165721D01*
X227383Y-167136D01*
Y-168750D01*
X227848Y-171091D01*
X228012Y-171336D01*
X225174Y-174174D01*
X223848Y-176159D01*
X223382Y-178500D01*
Y-188466D01*
X214716Y-197132D01*
X201955D01*
X201502Y-195863D01*
X203664Y-194088D01*
X203855Y-193855D01*
X204088Y-193664D01*
X206150Y-191152D01*
X206292Y-190886D01*
X206483Y-190653D01*
X208015Y-187787D01*
X208103Y-187498D01*
X208245Y-187233D01*
X209188Y-184123D01*
X209218Y-183823D01*
X209305Y-183534D01*
X209624Y-180300D01*
X209594Y-180000D01*
X209624Y-179700D01*
X209305Y-176466D01*
X209218Y-176177D01*
X209188Y-175877D01*
X208245Y-172767D01*
X208103Y-172502D01*
X208015Y-172213D01*
X206483Y-169347D01*
X206292Y-169114D01*
X206150Y-168848D01*
X204088Y-166336D01*
X203855Y-166145D01*
X203664Y-165912D01*
X201152Y-163850D01*
X200886Y-163708D01*
X200653Y-163517D01*
X197787Y-161985D01*
X197498Y-161897D01*
X197233Y-161755D01*
X194123Y-160812D01*
X193823Y-160782D01*
X193534Y-160695D01*
X190300Y-160376D01*
X190149Y-160391D01*
X190000Y-160361D01*
X189851Y-160391D01*
X189700Y-160376D01*
X186466Y-160695D01*
X186177Y-160782D01*
X185877Y-160812D01*
X182767Y-161755D01*
X182502Y-161897D01*
X182213Y-161985D01*
X179347Y-163517D01*
X179114Y-163708D01*
X178848Y-163850D01*
X176336Y-165912D01*
X176145Y-166145D01*
X175912Y-166336D01*
X173850Y-168848D01*
X173708Y-169114D01*
X173517Y-169347D01*
X171985Y-172213D01*
X171897Y-172502D01*
X171755Y-172767D01*
X170888Y-175627D01*
X169618Y-175439D01*
Y-172500D01*
X169152Y-170159D01*
X167826Y-168174D01*
X158326Y-158674D01*
X156341Y-157348D01*
X154000Y-156882D01*
X150309D01*
Y-154750D01*
X150076Y-153580D01*
X149413Y-152587D01*
X148420Y-151924D01*
X147250Y-151691D01*
X135750D01*
X134579Y-151924D01*
X133587Y-152587D01*
X132924Y-153580D01*
X132691Y-154750D01*
Y-173250D01*
X132924Y-174421D01*
X133587Y-175413D01*
X134579Y-176076D01*
X135750Y-176309D01*
X141806D01*
X142237Y-177579D01*
X141581Y-178081D01*
X140083Y-180035D01*
X139141Y-182309D01*
X138819Y-184750D01*
X139141Y-187191D01*
X140083Y-189465D01*
X140181Y-189593D01*
Y-203000D01*
X140456Y-205088D01*
X141262Y-207034D01*
X142544Y-208706D01*
X154258Y-220420D01*
X153732Y-221690D01*
X107309D01*
Y-205250D01*
X107194Y-204671D01*
X107189Y-204559D01*
X107158Y-204493D01*
X107076Y-204079D01*
X106714Y-203538D01*
X106686Y-203477D01*
X106654Y-203448D01*
X106413Y-203087D01*
X105856Y-202715D01*
X105807Y-202670D01*
X105766Y-202655D01*
X105421Y-202424D01*
X105109Y-202362D01*
X105076Y-202283D01*
X104919Y-201717D01*
X104780Y-200957D01*
X104584Y-198646D01*
X104560Y-197346D01*
Y-175445D01*
X104750Y-175289D01*
X109000D01*
Y-164000D01*
Y-152711D01*
X104750D01*
X104560Y-152555D01*
Y-148949D01*
X125734Y-113532D01*
X126959Y-113959D01*
X126767Y-115414D01*
X126793Y-115813D01*
X126767Y-116213D01*
X127068Y-118497D01*
X127196Y-118876D01*
X127274Y-119268D01*
X128156Y-121397D01*
X128378Y-121729D01*
X128555Y-122088D01*
X129958Y-123916D01*
X130259Y-124180D01*
X130522Y-124480D01*
X132350Y-125883D01*
X132709Y-126060D01*
X133042Y-126282D01*
X135170Y-127164D01*
X135563Y-127242D01*
X135942Y-127371D01*
X138226Y-127671D01*
X138625Y-127645D01*
X139024Y-127671D01*
X141308Y-127371D01*
X141687Y-127242D01*
X142080Y-127164D01*
X144208Y-126282D01*
X144541Y-126060D01*
X144900Y-125883D01*
X146728Y-124481D01*
X146992Y-124180D01*
X147292Y-123916D01*
X148695Y-122088D01*
X148784Y-121907D01*
X148917Y-121755D01*
X180167Y-67629D01*
X180232Y-67438D01*
X180344Y-67270D01*
X181226Y-65141D01*
X181304Y-64749D01*
X181432Y-64370D01*
X181733Y-62086D01*
X181707Y-61687D01*
X181733Y-61287D01*
X181432Y-59003D01*
X181304Y-58624D01*
X181226Y-58232D01*
X180344Y-56103D01*
X180122Y-55771D01*
X179945Y-55412D01*
X178542Y-53584D01*
X178242Y-53320D01*
X177978Y-53019D01*
X176150Y-51617D01*
X175791Y-51440D01*
X175458Y-51218D01*
X173330Y-50336D01*
X172937Y-50258D01*
X172558Y-50129D01*
X170274Y-49829D01*
X169875Y-49855D01*
X169476Y-49829D01*
X167192Y-50129D01*
X166813Y-50258D01*
X166420Y-50336D01*
X164524Y-51121D01*
X163950Y-50675D01*
X163623Y-50154D01*
X174528Y-31912D01*
X174550Y-31862D01*
X174583Y-31820D01*
X174915Y-31018D01*
X175260Y-30220D01*
X175268Y-30167D01*
X175288Y-30117D01*
X175402Y-29255D01*
X175528Y-28397D01*
X175522Y-28343D01*
X175529Y-28289D01*
Y-20456D01*
X176657Y-19328D01*
X177655Y-18399D01*
X178675Y-17583D01*
X179016Y-17351D01*
X180424Y-17921D01*
X180428Y-17927D01*
X181087Y-18913D01*
X182080Y-19576D01*
X183250Y-19809D01*
X194750D01*
X195921Y-19576D01*
X196913Y-18913D01*
X197576Y-17921D01*
X197809Y-16750D01*
Y-3612D01*
X199079Y-3487D01*
X199348Y-4841D01*
D02*
G37*
G36*
X-287973Y-22496D02*
X-288114Y-22212D01*
X-288534Y-21958D01*
X-289236Y-21733D01*
X-290218Y-21539D01*
X-291480Y-21374D01*
X-294846Y-21135D01*
X-302000Y-21000D01*
Y4000D01*
X-299335Y4015D01*
X-289236Y4733D01*
X-288534Y4958D01*
X-288114Y5212D01*
X-287973Y5496D01*
Y-22496D01*
D02*
G37*
G36*
X225507Y-5353D02*
X225462Y-6024D01*
X225553Y-6746D01*
X225778Y-7519D01*
X226138Y-8342D01*
X226632Y-9216D01*
X227262Y-10140D01*
X228026Y-11115D01*
X228926Y-12141D01*
X229960Y-13217D01*
X229217Y-20960D01*
X227827Y-19612D01*
X225408Y-17530D01*
X224379Y-16795D01*
X223470Y-16266D01*
X222682Y-15941D01*
X222014Y-15820D01*
X221466Y-15905D01*
X221039Y-16193D01*
X220732Y-16687D01*
X225686Y-4732D01*
X225507Y-5353D01*
D02*
G37*
G36*
X-242826Y18100D02*
X-242225Y16400D01*
X-241223Y14900D01*
X-239821Y13600D01*
X-238018Y12500D01*
X-235815Y11600D01*
X-233211Y10900D01*
X-230206Y10400D01*
X-226801Y10100D01*
X-222995Y10000D01*
Y-10000D01*
X-226801Y-10100D01*
X-230206Y-10400D01*
X-233211Y-10900D01*
X-235815Y-11600D01*
X-238018Y-12500D01*
X-239821Y-13600D01*
X-241223Y-14900D01*
X-242225Y-16400D01*
X-242826Y-18100D01*
X-243026Y-20000D01*
Y20000D01*
X-242826Y18100D01*
D02*
G37*
G36*
X214314Y-11783D02*
X214270Y-11539D01*
X214141Y-11321D01*
X213925Y-11129D01*
X213623Y-10962D01*
X213235Y-10821D01*
X212761Y-10705D01*
X212200Y-10616D01*
X211553Y-10551D01*
X210000Y-10500D01*
Y-4500D01*
X210820Y-4487D01*
X212200Y-4385D01*
X212761Y-4295D01*
X213235Y-4179D01*
X213623Y-4038D01*
X213925Y-3871D01*
X214141Y-3679D01*
X214270Y-3461D01*
X214314Y-3217D01*
Y-11783D01*
D02*
G37*
G36*
X142905Y246307D02*
X142820Y246135D01*
X142745Y245915D01*
X142680Y245645D01*
X142625Y245327D01*
X142545Y244543D01*
X142505Y243563D01*
X142500Y243000D01*
X136500D01*
X136495Y243563D01*
X136375Y245327D01*
X136320Y245645D01*
X136255Y245915D01*
X136180Y246135D01*
X136095Y246307D01*
X136000Y246429D01*
X143000D01*
X142905Y246307D01*
D02*
G37*
G36*
X325440Y8215D02*
X325343Y7595D01*
X325396Y6911D01*
X325598Y6161D01*
X325951Y5345D01*
X326453Y4464D01*
X327105Y3517D01*
X327907Y2504D01*
X328858Y1426D01*
X329960Y283D01*
X327717Y-5960D01*
X326394Y-4679D01*
X324065Y-2687D01*
X323058Y-1975D01*
X322157Y-1453D01*
X321361Y-1120D01*
X320671Y-977D01*
X320086Y-1024D01*
X319606Y-1260D01*
X319232Y-1687D01*
X325686Y8768D01*
X325440Y8215D01*
D02*
G37*
G36*
X253027Y1077D02*
X253109Y57D01*
X253244Y-843D01*
X253435Y-1623D01*
X253679Y-2283D01*
X253978Y-2823D01*
X254331Y-3243D01*
X254739Y-3543D01*
X255201Y-3723D01*
X255717Y-3783D01*
X244283D01*
X244799Y-3723D01*
X245261Y-3543D01*
X245669Y-3243D01*
X246022Y-2823D01*
X246321Y-2283D01*
X246565Y-1623D01*
X246756Y-843D01*
X246891Y57D01*
X246973Y1077D01*
X247000Y2217D01*
X253000D01*
X253027Y1077D01*
D02*
G37*
%LPC*%
G36*
X278750Y-60191D02*
X267250D01*
X266080Y-60424D01*
X265087Y-61087D01*
X264424Y-62080D01*
X264191Y-63250D01*
Y-81750D01*
X264424Y-82921D01*
X265087Y-83913D01*
X266080Y-84576D01*
X267250Y-84809D01*
X271568D01*
X271796Y-84938D01*
X272527Y-85444D01*
X274204Y-86856D01*
X286720Y-99372D01*
X287246Y-99967D01*
X287934Y-100836D01*
X288454Y-101591D01*
X288691Y-102008D01*
Y-105250D01*
X288924Y-106420D01*
X289587Y-107413D01*
X290579Y-108076D01*
X291750Y-108309D01*
X299250D01*
X300421Y-108076D01*
X301413Y-107413D01*
X302076Y-106420D01*
X302309Y-105250D01*
Y-93750D01*
X302076Y-92579D01*
X301413Y-91587D01*
X300421Y-90924D01*
X299250Y-90691D01*
X295732D01*
X295316Y-90397D01*
X293468Y-88816D01*
X284042Y-79390D01*
X282987Y-78258D01*
X282247Y-77337D01*
X281809Y-76712D01*
Y-63250D01*
X281576Y-62080D01*
X280913Y-61087D01*
X279921Y-60424D01*
X278750Y-60191D01*
D02*
G37*
%LPD*%
G36*
X291106Y-90821D02*
X293435Y-92814D01*
X294442Y-93525D01*
X295343Y-94047D01*
X296139Y-94380D01*
X296829Y-94523D01*
X297414Y-94476D01*
X297894Y-94240D01*
X298268Y-93813D01*
X291814Y-104268D01*
X292060Y-103715D01*
X292157Y-103096D01*
X292104Y-102411D01*
X291902Y-101661D01*
X291549Y-100845D01*
X291047Y-99964D01*
X290395Y-99017D01*
X289593Y-98004D01*
X288642Y-96926D01*
X287540Y-95783D01*
X289783Y-89540D01*
X291106Y-90821D01*
D02*
G37*
G36*
X278333Y-74653D02*
X278128Y-75170D01*
X278103Y-75781D01*
X278258Y-76488D01*
X278592Y-77289D01*
X279106Y-78185D01*
X279800Y-79176D01*
X280674Y-80261D01*
X282960Y-82717D01*
X277717Y-85960D01*
X276532Y-84817D01*
X274386Y-83010D01*
X273425Y-82346D01*
X272539Y-81842D01*
X271728Y-81498D01*
X270991Y-81313D01*
X270330Y-81288D01*
X269743Y-81423D01*
X269232Y-81717D01*
X278717Y-74232D01*
X278333Y-74653D01*
D02*
G37*
%LPC*%
G36*
X-138250Y209000D02*
X-148635D01*
X-148467Y207726D01*
X-147204Y204676D01*
X-145194Y202056D01*
X-142574Y200046D01*
X-139524Y198783D01*
X-138250Y198615D01*
Y209000D01*
D02*
G37*
G36*
X-234000Y214612D02*
X-237394Y214165D01*
X-240556Y212855D01*
X-243272Y210772D01*
X-245355Y208056D01*
X-246665Y204894D01*
X-247112Y201500D01*
X-246665Y198106D01*
X-245355Y194944D01*
X-244591Y193947D01*
Y180637D01*
X-254015Y171212D01*
X-254500Y171309D01*
X-276000D01*
X-276517Y171206D01*
X-276628Y171203D01*
X-276709Y171168D01*
X-277171Y171076D01*
X-277656Y170752D01*
X-277720Y170723D01*
X-277760Y170682D01*
X-278163Y170413D01*
X-278497Y169913D01*
X-278546Y169862D01*
X-278567Y169809D01*
X-278826Y169421D01*
X-278939Y168853D01*
X-278979Y168749D01*
X-279020Y168519D01*
X-279098Y168449D01*
X-279638Y168151D01*
X-280605Y167799D01*
X-281972Y167465D01*
X-283673Y167193D01*
X-288255Y166852D01*
X-288961Y166841D01*
X-293750D01*
X-296491Y166480D01*
X-299045Y165422D01*
X-301239Y163739D01*
X-301239Y163739D01*
X-347489Y117489D01*
X-349172Y115295D01*
X-350230Y112741D01*
X-350591Y110000D01*
X-350591Y110000D01*
Y108688D01*
X-350631Y106984D01*
X-350840Y104378D01*
X-351175Y102202D01*
X-351614Y100479D01*
X-352112Y99232D01*
X-352594Y98463D01*
X-352943Y98124D01*
X-361750D01*
X-365470Y97634D01*
X-368936Y96198D01*
X-371913Y93914D01*
X-374197Y90937D01*
X-375633Y87471D01*
X-376123Y83751D01*
Y-23749D01*
X-375633Y-27469D01*
X-374197Y-30936D01*
X-371913Y-33912D01*
X-368936Y-36196D01*
X-365470Y-37632D01*
X-361750Y-38122D01*
X-351893D01*
X-351078Y-38355D01*
X-349798Y-38899D01*
X-348325Y-39705D01*
X-346679Y-40780D01*
X-344903Y-42105D01*
X-340820Y-45645D01*
X-339078Y-47333D01*
X-315301Y-71110D01*
X-313052Y-73532D01*
X-312105Y-74695D01*
X-311289Y-75814D01*
X-310620Y-76859D01*
X-310097Y-77821D01*
X-309714Y-78693D01*
X-309462Y-79467D01*
X-309325Y-80139D01*
X-309309Y-80361D01*
Y-80750D01*
X-309076Y-81920D01*
X-308413Y-82913D01*
X-307421Y-83576D01*
X-306250Y-83809D01*
X-300977D01*
X-299000Y-84069D01*
X-295597D01*
X-295500Y-84174D01*
X-295238Y-84602D01*
X-294954Y-85297D01*
X-294693Y-86267D01*
X-294487Y-87503D01*
X-294355Y-88992D01*
X-294319Y-90368D01*
Y-113857D01*
X-294394Y-118258D01*
X-294539Y-120505D01*
X-294625Y-121233D01*
X-294667Y-121468D01*
X-295076Y-122079D01*
X-295138Y-122394D01*
X-295151Y-122417D01*
X-295157Y-122487D01*
X-295309Y-123250D01*
Y-143250D01*
X-295076Y-144420D01*
X-294413Y-145413D01*
X-293421Y-146076D01*
X-292250Y-146309D01*
X-280250D01*
X-279079Y-146076D01*
X-278087Y-145413D01*
X-277424Y-144420D01*
X-277191Y-143250D01*
Y-123250D01*
X-277343Y-122488D01*
X-277349Y-122417D01*
X-277362Y-122394D01*
X-277424Y-122079D01*
X-277763Y-121572D01*
X-278181Y-115093D01*
Y-90368D01*
X-278145Y-88992D01*
X-278013Y-87503D01*
X-277807Y-86267D01*
X-277546Y-85297D01*
X-277262Y-84602D01*
X-277000Y-84174D01*
X-276804Y-83962D01*
X-276671Y-83874D01*
X-276522Y-83821D01*
X-276403Y-83809D01*
X-266250D01*
X-265079Y-83576D01*
X-264087Y-82913D01*
X-263424Y-81920D01*
X-263191Y-80750D01*
Y-60750D01*
X-263424Y-59579D01*
X-264087Y-58587D01*
X-265079Y-57924D01*
X-266250Y-57691D01*
X-305428D01*
X-309795Y-53794D01*
X-325239Y-38350D01*
X-326508Y-37028D01*
X-327775Y-35567D01*
X-328706Y-34332D01*
X-329018Y-33823D01*
X-327863Y-32318D01*
X-327806Y-32262D01*
X-327788Y-32220D01*
X-326802Y-30936D01*
X-325366Y-27469D01*
X-324877Y-23749D01*
Y83751D01*
X-325366Y87471D01*
X-326493Y90191D01*
X-326531Y90315D01*
X-326587Y90418D01*
X-326802Y90937D01*
X-327025Y91227D01*
X-327085Y91339D01*
X-327538Y92408D01*
X-327945Y93631D01*
X-328673Y96822D01*
X-328933Y98561D01*
X-329409Y105239D01*
Y105613D01*
X-289363Y145659D01*
X-289151D01*
X-283443Y145561D01*
X-279998Y145336D01*
X-278822Y145196D01*
X-278140Y145072D01*
X-277171Y144424D01*
X-276865Y144363D01*
X-276847Y144353D01*
X-276786Y144348D01*
X-276000Y144191D01*
X-254500D01*
X-253329Y144424D01*
X-252337Y145087D01*
X-251757Y145955D01*
X-251259Y146020D01*
X-248705Y147078D01*
X-246511Y148761D01*
X-226511Y168761D01*
X-226511Y168761D01*
X-224828Y170955D01*
X-223770Y173509D01*
X-223409Y176250D01*
X-223409Y176250D01*
Y193947D01*
X-222645Y194944D01*
X-221335Y198106D01*
X-220888Y201500D01*
X-221335Y204894D01*
X-222645Y208056D01*
X-224728Y210772D01*
X-227444Y212855D01*
X-230606Y214165D01*
X-234000Y214612D01*
D02*
G37*
G36*
X360000Y159639D02*
X359851Y159609D01*
X359700Y159624D01*
X356466Y159305D01*
X356177Y159218D01*
X355877Y159188D01*
X352767Y158245D01*
X352502Y158103D01*
X352213Y158015D01*
X349347Y156483D01*
X349114Y156292D01*
X348848Y156150D01*
X346336Y154088D01*
X346145Y153855D01*
X345912Y153664D01*
X343850Y151152D01*
X343708Y150886D01*
X343517Y150653D01*
X341985Y147787D01*
X341897Y147498D01*
X341755Y147233D01*
X340812Y144122D01*
X340782Y143823D01*
X340695Y143534D01*
X340376Y140300D01*
X340406Y140000D01*
X340376Y139700D01*
X340695Y136466D01*
X340782Y136177D01*
X340812Y135878D01*
X341755Y132767D01*
X341897Y132502D01*
X341985Y132213D01*
X343517Y129347D01*
X343708Y129114D01*
X343850Y128848D01*
X345912Y126336D01*
X346145Y126145D01*
X346336Y125912D01*
X348848Y123850D01*
X349114Y123708D01*
X349347Y123517D01*
X352213Y121985D01*
X352502Y121897D01*
X352767Y121755D01*
X355877Y120812D01*
X356177Y120782D01*
X356466Y120695D01*
X359700Y120376D01*
X359851Y120391D01*
X360000Y120361D01*
X360149Y120391D01*
X360300Y120376D01*
X363534Y120695D01*
X363823Y120782D01*
X364123Y120812D01*
X367233Y121755D01*
X367498Y121897D01*
X367787Y121985D01*
X370653Y123517D01*
X370886Y123708D01*
X371152Y123850D01*
X373664Y125912D01*
X373855Y126145D01*
X374088Y126336D01*
X376150Y128848D01*
X376292Y129114D01*
X376483Y129347D01*
X378015Y132213D01*
X378103Y132502D01*
X378245Y132767D01*
X379188Y135878D01*
X379218Y136177D01*
X379305Y136466D01*
X379624Y139700D01*
X379594Y140000D01*
X379624Y140300D01*
X379305Y143534D01*
X379218Y143823D01*
X379188Y144122D01*
X378245Y147233D01*
X378103Y147498D01*
X378015Y147787D01*
X376483Y150653D01*
X376292Y150886D01*
X376150Y151152D01*
X374088Y153664D01*
X373855Y153855D01*
X373664Y154088D01*
X371152Y156150D01*
X370886Y156292D01*
X370653Y156483D01*
X367787Y158015D01*
X367498Y158103D01*
X367233Y158245D01*
X364123Y159188D01*
X363823Y159218D01*
X363534Y159305D01*
X360300Y159624D01*
X360149Y159609D01*
X360000Y159639D01*
D02*
G37*
G36*
X-252461Y202250D02*
X-263750D01*
Y191211D01*
X-254500D01*
X-253720Y191366D01*
X-253058Y191808D01*
X-252616Y192470D01*
X-252461Y193250D01*
Y202250D01*
D02*
G37*
G36*
X-245000Y-296931D02*
X-247088Y-297206D01*
X-249035Y-298012D01*
X-250706Y-299294D01*
X-251988Y-300965D01*
X-252794Y-302912D01*
X-253069Y-305000D01*
X-252794Y-307088D01*
X-251988Y-309035D01*
X-250706Y-310706D01*
X-249035Y-311988D01*
X-247088Y-312794D01*
X-245000Y-313069D01*
X-242912Y-312794D01*
X-240965Y-311988D01*
X-239294Y-310706D01*
X-238012Y-309035D01*
X-237206Y-307088D01*
X-236931Y-305000D01*
X-237206Y-302912D01*
X-238012Y-300965D01*
X-239294Y-299294D01*
X-240965Y-298012D01*
X-242912Y-297206D01*
X-245000Y-296931D01*
D02*
G37*
G36*
X235000D02*
X232912Y-297206D01*
X230965Y-298012D01*
X229294Y-299294D01*
X228012Y-300965D01*
X227206Y-302912D01*
X226931Y-305000D01*
X227206Y-307088D01*
X228012Y-309035D01*
X229294Y-310706D01*
X230965Y-311988D01*
X232912Y-312794D01*
X235000Y-313069D01*
X237088Y-312794D01*
X239035Y-311988D01*
X240706Y-310706D01*
X241988Y-309035D01*
X242794Y-307088D01*
X243069Y-305000D01*
X242794Y-302912D01*
X241988Y-300965D01*
X240706Y-299294D01*
X239035Y-298012D01*
X237088Y-297206D01*
X235000Y-296931D01*
D02*
G37*
G36*
X-266750Y202250D02*
X-278039D01*
Y193250D01*
X-277884Y192470D01*
X-277442Y191808D01*
X-276780Y191366D01*
X-276000Y191211D01*
X-266750D01*
Y202250D01*
D02*
G37*
G36*
X-84500Y-215500D02*
X-90789D01*
Y-223250D01*
X-90634Y-224030D01*
X-90192Y-224692D01*
X-89530Y-225134D01*
X-88750Y-225289D01*
X-84500D01*
Y-215500D01*
D02*
G37*
G36*
X-138250Y223385D02*
X-139524Y223217D01*
X-142574Y221954D01*
X-145194Y219944D01*
X-147204Y217324D01*
X-148467Y214274D01*
X-148635Y213000D01*
X-138250D01*
Y223385D01*
D02*
G37*
G36*
X-134250D02*
Y213000D01*
X-123865D01*
X-124033Y214274D01*
X-125296Y217324D01*
X-127306Y219944D01*
X-129926Y221954D01*
X-132976Y223217D01*
X-134250Y223385D01*
D02*
G37*
G36*
X-75211Y-215500D02*
X-81500D01*
Y-225289D01*
X-77250D01*
X-76470Y-225134D01*
X-75808Y-224692D01*
X-75366Y-224030D01*
X-75211Y-223250D01*
Y-215500D01*
D02*
G37*
G36*
X64250Y-246500D02*
X55961D01*
Y-254250D01*
X56116Y-255030D01*
X56558Y-255692D01*
X57220Y-256134D01*
X58000Y-256289D01*
X64250D01*
Y-246500D01*
D02*
G37*
G36*
X66000Y-216500D02*
X58711D01*
Y-224750D01*
X58866Y-225530D01*
X59308Y-226192D01*
X59970Y-226634D01*
X60750Y-226789D01*
X66000D01*
Y-216500D01*
D02*
G37*
G36*
X76289D02*
X69000D01*
Y-226789D01*
X74250D01*
X75030Y-226634D01*
X75692Y-226192D01*
X76134Y-225530D01*
X76289Y-224750D01*
Y-216500D01*
D02*
G37*
G36*
X75539Y-246500D02*
X67250D01*
Y-256289D01*
X73500D01*
X74280Y-256134D01*
X74942Y-255692D01*
X75384Y-255030D01*
X75539Y-254250D01*
Y-246500D01*
D02*
G37*
G36*
X-123865Y209000D02*
X-134250D01*
Y198615D01*
X-132976Y198783D01*
X-129926Y200046D01*
X-127306Y202056D01*
X-125296Y204676D01*
X-124033Y207726D01*
X-123865Y209000D01*
D02*
G37*
G36*
X178000Y-257000D02*
X165084D01*
X165178Y-257948D01*
X166038Y-260783D01*
X167434Y-263396D01*
X169314Y-265686D01*
X171604Y-267566D01*
X174217Y-268962D01*
X177052Y-269822D01*
X178000Y-269916D01*
Y-257000D01*
D02*
G37*
G36*
X112000Y291907D02*
X111705Y291848D01*
X111403D01*
X109452Y291460D01*
X108350Y291003D01*
X106696Y289898D01*
X105852Y289054D01*
X104747Y287400D01*
X104290Y286298D01*
X103902Y284347D01*
Y283153D01*
X104290Y281202D01*
X104747Y280100D01*
X105852Y278446D01*
X106696Y277602D01*
X108350Y276497D01*
X109452Y276040D01*
X111403Y275652D01*
X111705D01*
X112000Y275593D01*
X112296Y275652D01*
X112597D01*
X114548Y276040D01*
X115650Y276497D01*
X117304Y277602D01*
X118148Y278446D01*
X119253Y280100D01*
X119710Y281202D01*
X120098Y283153D01*
Y284347D01*
X119710Y286298D01*
X119253Y287400D01*
X118148Y289054D01*
X117304Y289898D01*
X115650Y291003D01*
X114548Y291460D01*
X112597Y291848D01*
X112296D01*
X112000Y291907D01*
D02*
G37*
G36*
X182000Y-240084D02*
Y-253000D01*
X194916D01*
X194822Y-252052D01*
X193962Y-249217D01*
X192566Y-246604D01*
X190686Y-244314D01*
X188396Y-242434D01*
X185783Y-241038D01*
X182948Y-240178D01*
X182000Y-240084D01*
D02*
G37*
G36*
X178000D02*
X177052Y-240178D01*
X174217Y-241038D01*
X171604Y-242434D01*
X169314Y-244314D01*
X167434Y-246604D01*
X166038Y-249217D01*
X165178Y-252052D01*
X165084Y-253000D01*
X178000D01*
Y-240084D01*
D02*
G37*
G36*
X-137000Y286612D02*
X-140394Y286165D01*
X-143556Y284855D01*
X-146272Y282772D01*
X-148356Y280056D01*
X-149665Y276894D01*
X-150112Y273500D01*
X-149665Y270106D01*
X-148356Y266944D01*
X-146272Y264228D01*
X-143556Y262145D01*
X-140394Y260835D01*
X-137000Y260388D01*
X-133606Y260835D01*
X-130444Y262145D01*
X-127728Y264228D01*
X-125645Y266944D01*
X-124335Y270106D01*
X-123888Y273500D01*
X-124335Y276894D01*
X-125645Y280056D01*
X-127728Y282772D01*
X-130444Y284855D01*
X-133606Y286165D01*
X-137000Y286612D01*
D02*
G37*
G36*
X194916Y-257000D02*
X182000D01*
Y-269916D01*
X182948Y-269822D01*
X185783Y-268962D01*
X188396Y-267566D01*
X190686Y-265686D01*
X192566Y-263396D01*
X193962Y-260783D01*
X194822Y-257948D01*
X194916Y-257000D01*
D02*
G37*
G36*
X-254500Y216289D02*
X-263750D01*
Y205250D01*
X-252461D01*
Y214250D01*
X-252616Y215030D01*
X-253058Y215692D01*
X-253720Y216134D01*
X-254500Y216289D01*
D02*
G37*
G36*
X162000Y291907D02*
X161705Y291848D01*
X161403D01*
X159452Y291460D01*
X158350Y291003D01*
X156696Y289898D01*
X155852Y289054D01*
X154747Y287400D01*
X154290Y286298D01*
X153902Y284347D01*
Y283153D01*
X154290Y281202D01*
X154747Y280100D01*
X155852Y278446D01*
X156696Y277602D01*
X158350Y276497D01*
X159452Y276040D01*
X161403Y275652D01*
X161705D01*
X162000Y275593D01*
X162295Y275652D01*
X162597D01*
X164548Y276040D01*
X165650Y276497D01*
X167304Y277602D01*
X168148Y278446D01*
X169253Y280100D01*
X169710Y281202D01*
X170098Y283153D01*
Y284347D01*
X169710Y286298D01*
X169253Y287400D01*
X168148Y289054D01*
X167304Y289898D01*
X165650Y291003D01*
X164548Y291460D01*
X162597Y291848D01*
X162295D01*
X162000Y291907D01*
D02*
G37*
G36*
X-190000Y199639D02*
X-190149Y199609D01*
X-190300Y199624D01*
X-193534Y199305D01*
X-193823Y199218D01*
X-194123Y199188D01*
X-197233Y198245D01*
X-197498Y198103D01*
X-197787Y198015D01*
X-200653Y196483D01*
X-200886Y196292D01*
X-201152Y196150D01*
X-203664Y194088D01*
X-203855Y193855D01*
X-204088Y193664D01*
X-206150Y191152D01*
X-206292Y190886D01*
X-206483Y190653D01*
X-208015Y187787D01*
X-208103Y187498D01*
X-208245Y187233D01*
X-209188Y184123D01*
X-209218Y183823D01*
X-209305Y183534D01*
X-209624Y180300D01*
X-209594Y180000D01*
X-209624Y179700D01*
X-209305Y176466D01*
X-209218Y176177D01*
X-209188Y175877D01*
X-208245Y172767D01*
X-208103Y172502D01*
X-208015Y172213D01*
X-206483Y169347D01*
X-206292Y169114D01*
X-206150Y168848D01*
X-204088Y166336D01*
X-203855Y166145D01*
X-203664Y165912D01*
X-201152Y163850D01*
X-200886Y163708D01*
X-200653Y163517D01*
X-197787Y161985D01*
X-197498Y161897D01*
X-197233Y161755D01*
X-194123Y160812D01*
X-193823Y160782D01*
X-193534Y160695D01*
X-190300Y160376D01*
X-190149Y160391D01*
X-190000Y160361D01*
X-189851Y160391D01*
X-189700Y160376D01*
X-186466Y160695D01*
X-186177Y160782D01*
X-185877Y160812D01*
X-182767Y161755D01*
X-182502Y161897D01*
X-182213Y161985D01*
X-179347Y163517D01*
X-179114Y163708D01*
X-178848Y163850D01*
X-176336Y165912D01*
X-176145Y166145D01*
X-175912Y166336D01*
X-173850Y168848D01*
X-173708Y169114D01*
X-173517Y169347D01*
X-171985Y172213D01*
X-171897Y172502D01*
X-171755Y172767D01*
X-170812Y175877D01*
X-170782Y176177D01*
X-170695Y176466D01*
X-170376Y179700D01*
X-170406Y180000D01*
X-170376Y180300D01*
X-170695Y183534D01*
X-170782Y183823D01*
X-170812Y184123D01*
X-171755Y187233D01*
X-171897Y187498D01*
X-171985Y187787D01*
X-173517Y190653D01*
X-173708Y190886D01*
X-173850Y191152D01*
X-175912Y193664D01*
X-176145Y193855D01*
X-176336Y194088D01*
X-178848Y196150D01*
X-179114Y196292D01*
X-179347Y196483D01*
X-182213Y198015D01*
X-182502Y198103D01*
X-182767Y198245D01*
X-185877Y199188D01*
X-186177Y199218D01*
X-186466Y199305D01*
X-189700Y199624D01*
X-189851Y199609D01*
X-190000Y199639D01*
D02*
G37*
G36*
X64250Y-233711D02*
X58000D01*
X57220Y-233866D01*
X56558Y-234308D01*
X56116Y-234970D01*
X55961Y-235750D01*
Y-243500D01*
X64250D01*
Y-233711D01*
D02*
G37*
G36*
X73500D02*
X67250D01*
Y-243500D01*
X75539D01*
Y-235750D01*
X75384Y-234970D01*
X74942Y-234308D01*
X74280Y-233866D01*
X73500Y-233711D01*
D02*
G37*
G36*
X190000Y199639D02*
X189851Y199609D01*
X189700Y199624D01*
X186466Y199305D01*
X186177Y199218D01*
X185877Y199188D01*
X182767Y198245D01*
X182502Y198103D01*
X182213Y198015D01*
X179347Y196483D01*
X179114Y196292D01*
X178848Y196150D01*
X176336Y194088D01*
X176145Y193855D01*
X175912Y193664D01*
X173850Y191152D01*
X173708Y190886D01*
X173517Y190653D01*
X171985Y187787D01*
X171897Y187498D01*
X171755Y187233D01*
X170812Y184123D01*
X170782Y183823D01*
X170695Y183534D01*
X170376Y180300D01*
X170406Y180000D01*
X170376Y179700D01*
X170695Y176466D01*
X170782Y176177D01*
X170812Y175877D01*
X171755Y172767D01*
X171897Y172502D01*
X171985Y172213D01*
X173517Y169347D01*
X173708Y169114D01*
X173850Y168848D01*
X175912Y166336D01*
X176145Y166145D01*
X176336Y165912D01*
X178848Y163850D01*
X179114Y163708D01*
X179347Y163517D01*
X182213Y161985D01*
X182502Y161897D01*
X182767Y161755D01*
X185877Y160812D01*
X186177Y160782D01*
X186466Y160695D01*
X189700Y160376D01*
X189851Y160391D01*
X190000Y160361D01*
X190149Y160391D01*
X190300Y160376D01*
X193534Y160695D01*
X193823Y160782D01*
X194123Y160812D01*
X197233Y161755D01*
X197498Y161897D01*
X197787Y161985D01*
X200653Y163517D01*
X200886Y163708D01*
X201152Y163850D01*
X203664Y165912D01*
X203855Y166145D01*
X204088Y166336D01*
X206150Y168848D01*
X206292Y169114D01*
X206483Y169347D01*
X208015Y172213D01*
X208103Y172502D01*
X208245Y172767D01*
X209188Y175877D01*
X209218Y176177D01*
X209305Y176466D01*
X209624Y179700D01*
X209594Y180000D01*
X209624Y180300D01*
X209305Y183534D01*
X209218Y183823D01*
X209188Y184123D01*
X208245Y187233D01*
X208103Y187498D01*
X208015Y187787D01*
X206483Y190653D01*
X206292Y190886D01*
X206150Y191152D01*
X204088Y193664D01*
X203855Y193855D01*
X203664Y194088D01*
X201152Y196150D01*
X200886Y196292D01*
X200653Y196483D01*
X197787Y198015D01*
X197498Y198103D01*
X197233Y198245D01*
X194123Y199188D01*
X193823Y199218D01*
X193534Y199305D01*
X190300Y199624D01*
X190149Y199609D01*
X190000Y199639D01*
D02*
G37*
G36*
X0Y298069D02*
X-2088Y297794D01*
X-4035Y296988D01*
X-5706Y295706D01*
X-6988Y294035D01*
X-7794Y292088D01*
X-8069Y290000D01*
X-7794Y287912D01*
X-6988Y285965D01*
X-5706Y284294D01*
X-4035Y283012D01*
X-2088Y282206D01*
X0Y281931D01*
X2088Y282206D01*
X4035Y283012D01*
X5706Y284294D01*
X6988Y285965D01*
X7794Y287912D01*
X8069Y290000D01*
X7794Y292088D01*
X6988Y294035D01*
X5706Y295706D01*
X4035Y296988D01*
X2088Y297794D01*
X0Y298069D01*
D02*
G37*
G36*
X-266750Y216289D02*
X-276000D01*
X-276780Y216134D01*
X-277442Y215692D01*
X-277884Y215030D01*
X-278039Y214250D01*
Y205250D01*
X-266750D01*
Y216289D01*
D02*
G37*
G36*
X130000Y-239425D02*
X126961Y-239724D01*
X124040Y-240611D01*
X121347Y-242050D01*
X118987Y-243987D01*
X117050Y-246347D01*
X115611Y-249040D01*
X114724Y-251961D01*
X114425Y-255000D01*
X114724Y-258039D01*
X115611Y-260960D01*
X117050Y-263653D01*
X118987Y-266013D01*
X119101Y-266106D01*
X119636Y-266679D01*
X120106Y-267281D01*
X120521Y-267922D01*
X120884Y-268608D01*
X121195Y-269345D01*
X121456Y-270140D01*
X121663Y-270995D01*
X121815Y-271915D01*
X121908Y-272903D01*
X121931Y-273662D01*
Y-278408D01*
X110658Y-289681D01*
X7842D01*
X5208Y-287046D01*
X5639Y-285682D01*
X6170Y-285576D01*
X7163Y-284913D01*
X7826Y-283920D01*
X8059Y-282750D01*
Y-267250D01*
X7826Y-266080D01*
X7163Y-265087D01*
X6170Y-264424D01*
X5000Y-264191D01*
X-15000D01*
X-16171Y-264424D01*
X-17163Y-265087D01*
X-17826Y-266080D01*
X-18059Y-267250D01*
Y-282750D01*
X-17826Y-283920D01*
X-17163Y-284913D01*
X-16171Y-285576D01*
X-15000Y-285809D01*
X-13160D01*
X-13069Y-287220D01*
Y-288250D01*
X-12794Y-290338D01*
X-11988Y-292285D01*
X-10706Y-293956D01*
X-1206Y-303456D01*
X465Y-304738D01*
X2412Y-305544D01*
X4500Y-305819D01*
X114000D01*
X116088Y-305544D01*
X118034Y-304738D01*
X119706Y-303456D01*
X135706Y-287456D01*
X136988Y-285784D01*
X137794Y-283838D01*
X138069Y-281750D01*
Y-273662D01*
X138092Y-272903D01*
X138185Y-271915D01*
X138337Y-270995D01*
X138544Y-270140D01*
X138805Y-269345D01*
X139116Y-268608D01*
X139479Y-267922D01*
X139894Y-267281D01*
X140364Y-266679D01*
X140899Y-266106D01*
X141013Y-266013D01*
X142950Y-263653D01*
X144389Y-260960D01*
X145276Y-258039D01*
X145575Y-255000D01*
X145276Y-251961D01*
X144389Y-249040D01*
X142950Y-246347D01*
X141013Y-243987D01*
X138653Y-242050D01*
X135960Y-240611D01*
X133039Y-239724D01*
X130000Y-239425D01*
D02*
G37*
G36*
X31250Y-100366D02*
X-31250D01*
X-31448Y-100405D01*
X-31649Y-100392D01*
X-33933Y-100693D01*
X-34312Y-100821D01*
X-34705Y-100899D01*
X-36833Y-101781D01*
X-37166Y-102003D01*
X-37525Y-102180D01*
X-39353Y-103583D01*
X-39616Y-103884D01*
X-39917Y-104147D01*
X-41320Y-105975D01*
X-41497Y-106334D01*
X-41719Y-106667D01*
X-42601Y-108795D01*
X-42679Y-109188D01*
X-42807Y-109566D01*
X-43108Y-111851D01*
X-43082Y-112250D01*
X-43108Y-112649D01*
X-42807Y-114934D01*
X-42679Y-115312D01*
X-42601Y-115705D01*
X-41719Y-117833D01*
X-41497Y-118166D01*
X-41320Y-118525D01*
X-39917Y-120353D01*
X-39616Y-120616D01*
X-39353Y-120917D01*
X-37525Y-122320D01*
X-37166Y-122497D01*
X-36833Y-122719D01*
X-34705Y-123601D01*
X-34312Y-123679D01*
X-33933Y-123807D01*
X-31649Y-124108D01*
X-31448Y-124095D01*
X-31250Y-124134D01*
X31250D01*
X31448Y-124095D01*
X31649Y-124108D01*
X33933Y-123807D01*
X34312Y-123679D01*
X34705Y-123601D01*
X36833Y-122719D01*
X37166Y-122497D01*
X37525Y-122320D01*
X39353Y-120917D01*
X39616Y-120616D01*
X39917Y-120353D01*
X41320Y-118525D01*
X41497Y-118166D01*
X41719Y-117833D01*
X42601Y-115705D01*
X42679Y-115312D01*
X42807Y-114934D01*
X43108Y-112649D01*
X43082Y-112250D01*
X43108Y-111851D01*
X42807Y-109566D01*
X42679Y-109188D01*
X42601Y-108795D01*
X41719Y-106667D01*
X41497Y-106334D01*
X41320Y-105975D01*
X39917Y-104147D01*
X39616Y-103884D01*
X39353Y-103583D01*
X37525Y-102180D01*
X37166Y-102003D01*
X36833Y-101781D01*
X34705Y-100899D01*
X34312Y-100821D01*
X33933Y-100693D01*
X31649Y-100392D01*
X31448Y-100405D01*
X31250Y-100366D01*
D02*
G37*
G36*
X-81476Y95421D02*
X-81875Y95395D01*
X-82274Y95421D01*
X-84558Y95121D01*
X-84937Y94992D01*
X-85330Y94914D01*
X-87458Y94032D01*
X-87791Y93810D01*
X-88150Y93633D01*
X-89978Y92231D01*
X-90241Y91930D01*
X-90542Y91666D01*
X-91945Y89838D01*
X-92034Y89657D01*
X-92167Y89505D01*
X-123417Y35379D01*
X-123482Y35188D01*
X-123594Y35020D01*
X-124476Y32891D01*
X-124554Y32499D01*
X-124682Y32120D01*
X-124983Y29836D01*
X-124957Y29437D01*
X-124983Y29037D01*
X-124682Y26753D01*
X-124554Y26374D01*
X-124476Y25982D01*
X-123594Y23853D01*
X-123372Y23521D01*
X-123195Y23162D01*
X-121792Y21334D01*
X-121491Y21070D01*
X-121228Y20769D01*
X-119400Y19367D01*
X-119041Y19190D01*
X-118708Y18968D01*
X-116580Y18086D01*
X-116187Y18008D01*
X-115808Y17879D01*
X-113524Y17579D01*
X-113125Y17605D01*
X-112726Y17579D01*
X-110442Y17879D01*
X-110063Y18008D01*
X-109670Y18086D01*
X-107542Y18968D01*
X-107209Y19190D01*
X-106850Y19367D01*
X-105022Y20769D01*
X-104759Y21070D01*
X-104458Y21334D01*
X-103055Y23162D01*
X-102966Y23343D01*
X-102833Y23495D01*
X-71583Y77621D01*
X-71518Y77812D01*
X-71406Y77980D01*
X-70524Y80108D01*
X-70446Y80501D01*
X-70318Y80880D01*
X-70017Y83164D01*
X-70043Y83563D01*
X-70017Y83962D01*
X-70318Y86247D01*
X-70446Y86626D01*
X-70524Y87018D01*
X-71406Y89147D01*
X-71628Y89479D01*
X-71805Y89838D01*
X-73208Y91666D01*
X-73509Y91930D01*
X-73772Y92231D01*
X-75600Y93633D01*
X-75959Y93810D01*
X-76292Y94032D01*
X-78420Y94914D01*
X-78813Y94992D01*
X-79192Y95121D01*
X-81476Y95421D01*
D02*
G37*
G36*
X0Y78177D02*
X-85Y78160D01*
X-171Y78172D01*
X-8582Y77700D01*
X-8750Y77657D01*
X-8923Y77661D01*
X-17228Y76250D01*
X-17390Y76189D01*
X-17562Y76174D01*
X-25657Y73842D01*
X-25811Y73762D01*
X-25981Y73729D01*
X-33763Y70505D01*
X-33907Y70409D01*
X-34072Y70356D01*
X-41445Y66281D01*
X-41577Y66170D01*
X-41735Y66099D01*
X-48605Y61224D01*
X-48724Y61098D01*
X-48874Y61010D01*
X-55155Y55397D01*
X-55259Y55259D01*
X-55397Y55155D01*
X-61010Y48874D01*
X-61098Y48724D01*
X-61224Y48605D01*
X-66099Y41735D01*
X-66170Y41577D01*
X-66281Y41445D01*
X-70356Y34072D01*
X-70409Y33907D01*
X-70505Y33763D01*
X-73729Y25981D01*
X-73762Y25811D01*
X-73842Y25657D01*
X-76174Y17562D01*
X-76189Y17390D01*
X-76250Y17228D01*
X-77661Y8923D01*
X-77657Y8750D01*
X-77700Y8582D01*
X-78172Y171D01*
X-78148Y0D01*
X-78172Y-171D01*
X-77700Y-8582D01*
X-77657Y-8750D01*
X-77661Y-8923D01*
X-76250Y-17228D01*
X-76189Y-17390D01*
X-76174Y-17562D01*
X-73842Y-25657D01*
X-73762Y-25811D01*
X-73729Y-25981D01*
X-70505Y-33763D01*
X-70409Y-33907D01*
X-70356Y-34072D01*
X-66281Y-41445D01*
X-66170Y-41577D01*
X-66099Y-41735D01*
X-61224Y-48605D01*
X-61098Y-48724D01*
X-61010Y-48874D01*
X-55397Y-55155D01*
X-55259Y-55259D01*
X-55155Y-55397D01*
X-48874Y-61010D01*
X-48724Y-61098D01*
X-48605Y-61224D01*
X-41735Y-66099D01*
X-41577Y-66170D01*
X-41445Y-66281D01*
X-34072Y-70356D01*
X-33907Y-70409D01*
X-33763Y-70505D01*
X-25981Y-73729D01*
X-25811Y-73762D01*
X-25657Y-73842D01*
X-17562Y-76174D01*
X-17390Y-76189D01*
X-17228Y-76250D01*
X-8923Y-77661D01*
X-8750Y-77657D01*
X-8582Y-77700D01*
X-171Y-78172D01*
X-85Y-78160D01*
X0Y-78177D01*
X85Y-78160D01*
X171Y-78172D01*
X8582Y-77700D01*
X8750Y-77657D01*
X8923Y-77661D01*
X17228Y-76250D01*
X17390Y-76189D01*
X17562Y-76174D01*
X25657Y-73842D01*
X25811Y-73762D01*
X25981Y-73729D01*
X33763Y-70505D01*
X33907Y-70409D01*
X34072Y-70356D01*
X41445Y-66281D01*
X41577Y-66170D01*
X41735Y-66099D01*
X48605Y-61224D01*
X48724Y-61098D01*
X48874Y-61010D01*
X55155Y-55397D01*
X55259Y-55259D01*
X55397Y-55155D01*
X61010Y-48874D01*
X61098Y-48724D01*
X61224Y-48605D01*
X66099Y-41735D01*
X66170Y-41577D01*
X66281Y-41445D01*
X70356Y-34072D01*
X70409Y-33907D01*
X70505Y-33763D01*
X73729Y-25981D01*
X73762Y-25811D01*
X73842Y-25657D01*
X76174Y-17562D01*
X76189Y-17390D01*
X76250Y-17228D01*
X77661Y-8923D01*
X77657Y-8750D01*
X77700Y-8582D01*
X78172Y-171D01*
X78148Y0D01*
X78172Y171D01*
X77700Y8582D01*
X77657Y8750D01*
X77661Y8923D01*
X76250Y17228D01*
X76189Y17390D01*
X76174Y17562D01*
X73842Y25657D01*
X73762Y25811D01*
X73729Y25981D01*
X70505Y33763D01*
X70409Y33907D01*
X70356Y34072D01*
X66281Y41445D01*
X66170Y41577D01*
X66099Y41735D01*
X61224Y48605D01*
X61098Y48724D01*
X61010Y48874D01*
X55397Y55155D01*
X55259Y55259D01*
X55155Y55397D01*
X48874Y61010D01*
X48724Y61098D01*
X48605Y61224D01*
X41735Y66099D01*
X41577Y66170D01*
X41445Y66281D01*
X34072Y70356D01*
X33907Y70409D01*
X33763Y70505D01*
X25981Y73729D01*
X25811Y73762D01*
X25657Y73842D01*
X17562Y76174D01*
X17390Y76189D01*
X17228Y76250D01*
X8923Y77661D01*
X8750Y77657D01*
X8582Y77700D01*
X171Y78172D01*
X85Y78160D01*
X0Y78177D01*
D02*
G37*
G36*
X-112476Y-17226D02*
X-112875Y-17252D01*
X-113274Y-17226D01*
X-115558Y-17527D01*
X-115937Y-17655D01*
X-116330Y-17733D01*
X-118458Y-18615D01*
X-118791Y-18837D01*
X-119150Y-19014D01*
X-120978Y-20417D01*
X-121241Y-20718D01*
X-121542Y-20981D01*
X-122945Y-22809D01*
X-123122Y-23168D01*
X-123344Y-23501D01*
X-124226Y-25629D01*
X-124304Y-26022D01*
X-124432Y-26400D01*
X-124733Y-28685D01*
X-124707Y-29084D01*
X-124733Y-29483D01*
X-124432Y-31767D01*
X-124304Y-32146D01*
X-124226Y-32539D01*
X-123344Y-34667D01*
X-123232Y-34835D01*
X-123167Y-35026D01*
X-91917Y-89153D01*
X-91784Y-89304D01*
X-91695Y-89485D01*
X-90292Y-91313D01*
X-89991Y-91577D01*
X-89728Y-91878D01*
X-87900Y-93280D01*
X-87541Y-93457D01*
X-87208Y-93680D01*
X-85080Y-94561D01*
X-84687Y-94639D01*
X-84308Y-94768D01*
X-82024Y-95069D01*
X-81625Y-95042D01*
X-81226Y-95069D01*
X-78941Y-94768D01*
X-78563Y-94639D01*
X-78170Y-94561D01*
X-76042Y-93680D01*
X-75709Y-93457D01*
X-75350Y-93280D01*
X-73522Y-91878D01*
X-73259Y-91577D01*
X-72958Y-91313D01*
X-71555Y-89485D01*
X-71378Y-89127D01*
X-71156Y-88794D01*
X-70274Y-86665D01*
X-70196Y-86273D01*
X-70068Y-85894D01*
X-69767Y-83610D01*
X-69793Y-83211D01*
X-69767Y-82811D01*
X-70068Y-80527D01*
X-70196Y-80148D01*
X-70274Y-79756D01*
X-71156Y-77627D01*
X-71268Y-77460D01*
X-71333Y-77269D01*
X-102583Y-23142D01*
X-102716Y-22990D01*
X-102805Y-22809D01*
X-104208Y-20981D01*
X-104509Y-20718D01*
X-104772Y-20417D01*
X-106600Y-19014D01*
X-106959Y-18837D01*
X-107292Y-18615D01*
X-109420Y-17733D01*
X-109813Y-17655D01*
X-110191Y-17527D01*
X-112476Y-17226D01*
D02*
G37*
G36*
X-136250Y-22681D02*
X-138338Y-22956D01*
X-140285Y-23762D01*
X-141956Y-25044D01*
X-143238Y-26716D01*
X-144044Y-28662D01*
X-144319Y-30750D01*
X-144044Y-32838D01*
X-143238Y-34785D01*
X-141956Y-36456D01*
X-140285Y-37738D01*
X-138338Y-38544D01*
X-136250Y-38819D01*
X-134162Y-38544D01*
X-132215Y-37738D01*
X-130544Y-36456D01*
X-129262Y-34785D01*
X-128456Y-32838D01*
X-128181Y-30750D01*
X-128456Y-28662D01*
X-129262Y-26716D01*
X-130544Y-25044D01*
X-132215Y-23762D01*
X-134162Y-22956D01*
X-136250Y-22681D01*
D02*
G37*
G36*
X311500Y115000D02*
X301711D01*
Y110750D01*
X301866Y109970D01*
X302308Y109308D01*
X302970Y108866D01*
X303750Y108711D01*
X311500D01*
Y115000D01*
D02*
G37*
G36*
X-84500Y-202711D02*
X-88750D01*
X-89530Y-202866D01*
X-90192Y-203308D01*
X-90634Y-203970D01*
X-90789Y-204750D01*
Y-212500D01*
X-84500D01*
Y-202711D01*
D02*
G37*
G36*
X74250Y-203211D02*
X69000D01*
Y-213500D01*
X76289D01*
Y-205250D01*
X76134Y-204470D01*
X75692Y-203808D01*
X75030Y-203366D01*
X74250Y-203211D01*
D02*
G37*
G36*
X-77250Y-202711D02*
X-81500D01*
Y-212500D01*
X-75211D01*
Y-204750D01*
X-75366Y-203970D01*
X-75808Y-203308D01*
X-76470Y-202866D01*
X-77250Y-202711D01*
D02*
G37*
G36*
X31250Y124384D02*
X-31250D01*
X-31448Y124345D01*
X-31649Y124358D01*
X-33933Y124057D01*
X-34312Y123929D01*
X-34705Y123851D01*
X-36833Y122969D01*
X-37166Y122747D01*
X-37525Y122570D01*
X-39353Y121167D01*
X-39616Y120866D01*
X-39917Y120603D01*
X-41320Y118775D01*
X-41497Y118416D01*
X-41719Y118083D01*
X-42601Y115955D01*
X-42679Y115562D01*
X-42807Y115183D01*
X-43108Y112899D01*
X-43082Y112500D01*
X-43108Y112101D01*
X-42807Y109817D01*
X-42679Y109438D01*
X-42601Y109045D01*
X-41719Y106917D01*
X-41497Y106584D01*
X-41320Y106225D01*
X-39917Y104397D01*
X-39616Y104134D01*
X-39353Y103833D01*
X-37525Y102430D01*
X-37166Y102253D01*
X-36833Y102031D01*
X-34705Y101149D01*
X-34312Y101071D01*
X-33933Y100943D01*
X-31649Y100642D01*
X-31448Y100655D01*
X-31250Y100616D01*
X31250D01*
X31448Y100655D01*
X31649Y100642D01*
X33933Y100943D01*
X34312Y101071D01*
X34705Y101149D01*
X36833Y102031D01*
X37166Y102253D01*
X37525Y102430D01*
X39353Y103833D01*
X39616Y104134D01*
X39917Y104397D01*
X41320Y106225D01*
X41497Y106584D01*
X41719Y106917D01*
X42601Y109045D01*
X42679Y109438D01*
X42807Y109817D01*
X43108Y112101D01*
X43082Y112500D01*
X43108Y112899D01*
X42807Y115183D01*
X42679Y115562D01*
X42601Y115955D01*
X41719Y118083D01*
X41497Y118416D01*
X41320Y118775D01*
X39917Y120603D01*
X39616Y120866D01*
X39353Y121167D01*
X37525Y122570D01*
X37166Y122747D01*
X36833Y122969D01*
X34705Y123851D01*
X34312Y123929D01*
X33933Y124057D01*
X31649Y124358D01*
X31448Y124345D01*
X31250Y124384D01*
D02*
G37*
G36*
X18000Y144931D02*
X15559Y144609D01*
X13285Y143667D01*
X11331Y142169D01*
X9833Y140215D01*
X8891Y137941D01*
X8569Y135500D01*
X8891Y133059D01*
X9833Y130785D01*
X11331Y128832D01*
X13285Y127333D01*
X15559Y126391D01*
X18000Y126069D01*
X20441Y126391D01*
X22715Y127333D01*
X24669Y128832D01*
X26167Y130785D01*
X27109Y133059D01*
X27431Y135500D01*
X27109Y137941D01*
X26167Y140215D01*
X24669Y142169D01*
X22715Y143667D01*
X20441Y144609D01*
X18000Y144931D01*
D02*
G37*
G36*
X324289Y115000D02*
X314500D01*
Y108711D01*
X322250D01*
X323030Y108866D01*
X323692Y109308D01*
X324134Y109970D01*
X324289Y110750D01*
Y115000D01*
D02*
G37*
G36*
X66000Y-203211D02*
X60750D01*
X59970Y-203366D01*
X59308Y-203808D01*
X58866Y-204470D01*
X58711Y-205250D01*
Y-213500D01*
X66000D01*
Y-203211D01*
D02*
G37*
G36*
X-253250Y-188191D02*
X-271750D01*
X-272920Y-188424D01*
X-273913Y-189087D01*
X-274576Y-190079D01*
X-274809Y-191250D01*
Y-191603D01*
X-274838Y-191615D01*
X-275293Y-191737D01*
X-275933Y-191843D01*
X-276380Y-191882D01*
X-285788D01*
X-285939Y-191879D01*
X-287190Y-191780D01*
X-287327Y-191760D01*
X-287829Y-191424D01*
X-289000Y-191191D01*
X-300500D01*
X-301670Y-191424D01*
X-302663Y-192087D01*
X-303326Y-193079D01*
X-303559Y-194250D01*
Y-201750D01*
X-303326Y-202921D01*
X-302663Y-203913D01*
X-301670Y-204576D01*
X-300500Y-204809D01*
X-289000D01*
X-287829Y-204576D01*
X-287385Y-204279D01*
X-284877Y-204118D01*
X-275917D01*
X-275751Y-204123D01*
X-275035Y-204191D01*
X-274460Y-204280D01*
X-274313Y-204314D01*
X-274307Y-204323D01*
X-274285Y-204379D01*
X-274236Y-204430D01*
X-273913Y-204913D01*
X-273495Y-205192D01*
X-273453Y-205235D01*
X-273389Y-205263D01*
X-272920Y-205576D01*
X-272443Y-205671D01*
X-272357Y-205708D01*
X-272248Y-205710D01*
X-271750Y-205809D01*
X-253250D01*
X-252080Y-205576D01*
X-251087Y-204913D01*
X-250424Y-203920D01*
X-250191Y-202750D01*
Y-191250D01*
X-250424Y-190079D01*
X-251087Y-189087D01*
X-252080Y-188424D01*
X-253250Y-188191D01*
D02*
G37*
G36*
X322250Y124289D02*
X314500D01*
Y118000D01*
X324289D01*
Y122250D01*
X324134Y123030D01*
X323692Y123692D01*
X323030Y124134D01*
X322250Y124289D01*
D02*
G37*
G36*
X311500D02*
X303750D01*
X302970Y124134D01*
X302308Y123692D01*
X301866Y123030D01*
X301711Y122250D01*
Y118000D01*
X311500D01*
Y124289D01*
D02*
G37*
%LPD*%
G36*
X-275967Y147283D02*
X-276117Y147562D01*
X-276567Y147811D01*
X-277317Y148031D01*
X-278367Y148222D01*
X-279717Y148383D01*
X-283317Y148618D01*
X-290967Y148750D01*
Y163750D01*
X-288117Y163795D01*
X-283317Y164152D01*
X-281367Y164465D01*
X-279717Y164867D01*
X-278367Y165358D01*
X-277317Y165939D01*
X-276567Y166609D01*
X-276117Y167368D01*
X-275967Y168217D01*
Y147283D01*
D02*
G37*
G36*
X-331368Y-30836D02*
X-332105Y-31301D01*
X-332538Y-31928D01*
X-332668Y-32717D01*
X-332494Y-33668D01*
X-332018Y-34781D01*
X-331237Y-36055D01*
X-330154Y-37492D01*
X-328768Y-39091D01*
X-327078Y-40851D01*
X-336461Y-45610D01*
X-338752Y-43390D01*
X-342984Y-39720D01*
X-344926Y-38271D01*
X-346752Y-37079D01*
X-348462Y-36144D01*
X-350056Y-35466D01*
X-351533Y-35044D01*
X-352894Y-34880D01*
X-354139Y-34973D01*
X-330329Y-30533D01*
X-331368Y-30836D01*
D02*
G37*
G36*
X-281240Y-115183D02*
X-280776Y-122383D01*
X-280631Y-122883D01*
X-280467Y-123183D01*
X-280283Y-123283D01*
X-292217D01*
X-292033Y-123183D01*
X-291869Y-122883D01*
X-291724Y-122383D01*
X-291598Y-121683D01*
X-291492Y-120783D01*
X-291337Y-118383D01*
X-291250Y-113283D01*
X-281250D01*
X-281240Y-115183D01*
D02*
G37*
G36*
X-332500Y107741D02*
X-332467Y105116D01*
X-331976Y98225D01*
X-331680Y96255D01*
X-330894Y92806D01*
X-330402Y91327D01*
X-329845Y90012D01*
X-329222Y88860D01*
X-354995Y94975D01*
X-353571Y94805D01*
X-352297Y95007D01*
X-351172Y95580D01*
X-350198Y96525D01*
X-349374Y97842D01*
X-348699Y99530D01*
X-348175Y101590D01*
X-347800Y104022D01*
X-347575Y106825D01*
X-347500Y110000D01*
X-332500Y107741D01*
D02*
G37*
G36*
X-350125Y38913D02*
X-350684Y39203D01*
X-351241Y39406D01*
X-351796Y39522D01*
X-352349Y39549D01*
X-352900Y39490D01*
X-353450Y39343D01*
X-353997Y39108D01*
X-354543Y38786D01*
X-355087Y38376D01*
X-355629Y37879D01*
X-359230Y42762D01*
X-358510Y43508D01*
X-357250Y44964D01*
X-356712Y45676D01*
X-355816Y47065D01*
X-355460Y47743D01*
X-355163Y48409D01*
X-354928Y49064D01*
X-354753Y49708D01*
X-350125Y38913D01*
D02*
G37*
G36*
X-311945Y-55975D02*
X-306500Y-60834D01*
X-306288Y-60889D01*
X-306217Y-60783D01*
Y-80717D01*
X-306288Y-79722D01*
X-306500Y-78684D01*
X-306853Y-77600D01*
X-307348Y-76473D01*
X-307985Y-75302D01*
X-308762Y-74087D01*
X-309682Y-72827D01*
X-310742Y-71523D01*
X-313288Y-68783D01*
Y-54641D01*
X-311945Y-55975D01*
D02*
G37*
G36*
X-277200Y-80817D02*
X-278050Y-81117D01*
X-278800Y-81617D01*
X-279450Y-82317D01*
X-280000Y-83217D01*
X-280450Y-84317D01*
X-280800Y-85617D01*
X-281050Y-87117D01*
X-281200Y-88817D01*
X-281250Y-90717D01*
X-291250D01*
X-291300Y-88817D01*
X-291450Y-87117D01*
X-291700Y-85617D01*
X-292050Y-84317D01*
X-292500Y-83217D01*
X-293050Y-82317D01*
X-293700Y-81617D01*
X-294450Y-81117D01*
X-295300Y-80817D01*
X-296250Y-80717D01*
X-276250D01*
X-277200Y-80817D01*
D02*
G37*
G36*
X432Y-282772D02*
X341Y-282938D01*
X261Y-283215D01*
X192Y-283602D01*
X133Y-284100D01*
X48Y-285428D01*
X-0Y-288250D01*
X-10000D01*
X-10005Y-287199D01*
X-10261Y-283215D01*
X-10341Y-282938D01*
X-10432Y-282772D01*
X-10533Y-282717D01*
X533D01*
X432Y-282772D01*
D02*
G37*
G36*
X138038Y-264689D02*
X137400Y-265504D01*
X136838Y-266373D01*
X136350Y-267296D01*
X135938Y-268272D01*
X135600Y-269302D01*
X135337Y-270385D01*
X135150Y-271522D01*
X135037Y-272712D01*
X135000Y-273956D01*
X125000D01*
X124963Y-272712D01*
X124850Y-271522D01*
X124663Y-270385D01*
X124400Y-269302D01*
X124062Y-268272D01*
X123650Y-267296D01*
X123162Y-266373D01*
X122600Y-265504D01*
X121962Y-264689D01*
X121250Y-263927D01*
X138750D01*
X138038Y-264689D01*
D02*
G37*
G36*
X-288973Y-194419D02*
X-288793Y-194541D01*
X-288493Y-194649D01*
X-288073Y-194742D01*
X-287533Y-194821D01*
X-286093Y-194935D01*
X-283033Y-195000D01*
Y-201000D01*
X-284173Y-201007D01*
X-288073Y-201258D01*
X-288493Y-201351D01*
X-288793Y-201459D01*
X-288973Y-201581D01*
X-289033Y-201717D01*
Y-194283D01*
X-288973Y-194419D01*
D02*
G37*
G36*
X-271717Y-202717D02*
X-271777Y-202391D01*
X-271957Y-202099D01*
X-272257Y-201841D01*
X-272677Y-201618D01*
X-273217Y-201429D01*
X-273877Y-201275D01*
X-274657Y-201155D01*
X-275557Y-201069D01*
X-277717Y-201000D01*
Y-195000D01*
X-276573Y-194970D01*
X-275549Y-194880D01*
X-274645Y-194730D01*
X-273862Y-194520D01*
X-273198Y-194250D01*
X-272656Y-193920D01*
X-272233Y-193530D01*
X-271931Y-193080D01*
X-271748Y-192570D01*
X-271686Y-192000D01*
X-271717Y-202717D01*
D02*
G37*
%LPC*%
G36*
X116250Y-152711D02*
X112000D01*
Y-162500D01*
X118289D01*
Y-154750D01*
X118134Y-153970D01*
X117692Y-153308D01*
X117030Y-152866D01*
X116250Y-152711D01*
D02*
G37*
G36*
X118289Y-165500D02*
X112000D01*
Y-175289D01*
X116250D01*
X117030Y-175134D01*
X117692Y-174692D01*
X118134Y-174030D01*
X118289Y-173250D01*
Y-165500D01*
D02*
G37*
G36*
X204774Y-70329D02*
X204375Y-70355D01*
X203976Y-70329D01*
X201691Y-70629D01*
X201313Y-70758D01*
X200920Y-70836D01*
X198792Y-71718D01*
X198459Y-71940D01*
X198100Y-72117D01*
X196272Y-73519D01*
X196008Y-73820D01*
X195708Y-74084D01*
X194305Y-75912D01*
X194216Y-76093D01*
X194083Y-76245D01*
X162833Y-130371D01*
X162768Y-130562D01*
X162656Y-130730D01*
X161774Y-132858D01*
X161696Y-133251D01*
X161568Y-133630D01*
X161267Y-135914D01*
X161293Y-136313D01*
X161267Y-136713D01*
X161568Y-138997D01*
X161696Y-139376D01*
X161774Y-139768D01*
X162656Y-141897D01*
X162878Y-142229D01*
X163055Y-142588D01*
X164458Y-144416D01*
X164758Y-144680D01*
X165022Y-144981D01*
X166850Y-146383D01*
X167209Y-146560D01*
X167542Y-146782D01*
X169670Y-147664D01*
X170063Y-147742D01*
X170441Y-147871D01*
X172726Y-148171D01*
X173125Y-148145D01*
X173524Y-148171D01*
X175808Y-147871D01*
X176187Y-147742D01*
X176580Y-147664D01*
X178708Y-146782D01*
X179041Y-146560D01*
X179400Y-146383D01*
X181228Y-144981D01*
X181491Y-144680D01*
X181792Y-144416D01*
X183195Y-142588D01*
X183284Y-142407D01*
X183417Y-142255D01*
X214667Y-88129D01*
X214732Y-87938D01*
X214844Y-87770D01*
X215726Y-85641D01*
X215804Y-85249D01*
X215932Y-84870D01*
X216233Y-82586D01*
X216207Y-82187D01*
X216233Y-81787D01*
X215932Y-79503D01*
X215804Y-79124D01*
X215726Y-78732D01*
X214844Y-76603D01*
X214622Y-76271D01*
X214445Y-75912D01*
X213042Y-74084D01*
X212742Y-73820D01*
X212478Y-73519D01*
X210650Y-72117D01*
X210291Y-71940D01*
X209958Y-71718D01*
X207830Y-70836D01*
X207437Y-70758D01*
X207058Y-70629D01*
X204774Y-70329D01*
D02*
G37*
G36*
X188500Y-23211D02*
X183250D01*
X182470Y-23366D01*
X181808Y-23808D01*
X181366Y-24470D01*
X181211Y-25250D01*
Y-33500D01*
X188500D01*
Y-23211D01*
D02*
G37*
G36*
X196750D02*
X191500D01*
Y-33500D01*
X198789D01*
Y-25250D01*
X198634Y-24470D01*
X198192Y-23808D01*
X197530Y-23366D01*
X196750Y-23211D01*
D02*
G37*
G36*
X188500Y-36500D02*
X181211D01*
Y-44750D01*
X181366Y-45530D01*
X181808Y-46192D01*
X182470Y-46634D01*
X183250Y-46789D01*
X188500D01*
Y-36500D01*
D02*
G37*
G36*
X198789D02*
X191500D01*
Y-46789D01*
X196750D01*
X197530Y-46634D01*
X198192Y-46192D01*
X198634Y-45530D01*
X198789Y-44750D01*
Y-36500D01*
D02*
G37*
%LPD*%
D10*
X29001Y86000D02*
G03*
X-90758Y0I-29001J-86000D01*
G01*
D02*
G03*
X-64176Y-64176I90758J0D01*
G01*
X-106454Y169315D02*
G03*
X-180850Y85401I106454J-169315D01*
G01*
D02*
G03*
X-163562Y-115098I180850J-85401D01*
G01*
X57328Y-72414D02*
G03*
X59029Y71035I-57328J72414D01*
G01*
X153000Y-25999D02*
G03*
X110731Y108736I-153000J25999D01*
G01*
X-286250Y-136750D02*
Y-76000D01*
X-88040Y-150500D02*
Y-119056D01*
X-88000Y-119016D02*
Y-109000D01*
X-88040Y-119056D02*
X-88000Y-119016D01*
X-299000Y-76000D02*
X-286250D01*
X-340000Y-35000D02*
X-299000Y-76000D01*
X-263500Y-132750D02*
X-226250D01*
X-205000Y-154000D01*
X-5000Y-288250D02*
Y-275000D01*
Y-288250D02*
X4500Y-297750D01*
X130000Y-281750D02*
Y-255000D01*
X114000Y-297750D02*
X130000Y-281750D01*
X4500Y-297750D02*
X114000D01*
X217000Y-221500D02*
X228500D01*
X215250Y-223250D02*
X217000Y-221500D01*
X207500Y-215500D02*
X215250Y-223250D01*
X160750Y-215500D02*
X207500D01*
X148250Y-203000D02*
X160750Y-215500D01*
X148250Y-203000D02*
Y-184750D01*
X57000Y-185000D02*
Y-73000D01*
X44000Y-198000D02*
X57000Y-185000D01*
X18000Y-198000D02*
X44000D01*
X59000Y71000D02*
Y186000D01*
X48000Y197000D02*
X59000Y186000D01*
X-18000Y197000D02*
X48000D01*
X111000Y109000D02*
Y129308D01*
X125692Y144000D02*
X145000D01*
X111000Y129308D02*
X125692Y144000D01*
X-51000Y-226000D02*
Y-184000D01*
Y-226000D02*
X-32000Y-245000D01*
X-69000Y-166000D02*
X-51000Y-184000D01*
X-165000Y-166000D02*
X-69000D01*
X-50750Y-135250D02*
X-18000D01*
X-58000Y-128000D02*
X-50750Y-135250D01*
X-58000Y-128000D02*
Y-70000D01*
X-64000Y-64000D02*
X-58000Y-70000D01*
X-205000Y-154000D02*
X-177000D01*
X-165000Y-166000D01*
D11*
X0Y290000D02*
D03*
X235000Y-305000D02*
D03*
X-245000D02*
D03*
X315000Y130000D02*
D03*
X10000Y270000D02*
D03*
X139500Y250000D02*
D03*
X270500Y-98250D02*
D03*
X256250Y-38750D02*
D03*
X-180850Y85401D02*
D03*
X-278000Y-151500D02*
D03*
X-300000Y-151750D02*
D03*
X210500Y112000D02*
D03*
X-96000Y-310000D02*
D03*
X69750Y-100000D02*
D03*
X74500Y121500D02*
D03*
X113000Y2250D02*
D03*
X315000Y165000D02*
D03*
Y200000D02*
D03*
X242250Y71250D02*
D03*
X330000Y-208750D02*
D03*
X371250Y-190250D02*
D03*
X203500Y-18750D02*
D03*
X205750Y27000D02*
D03*
X236500Y-1750D02*
D03*
X264000Y-7500D02*
D03*
X159500Y-148500D02*
D03*
X357250Y-60750D02*
D03*
X216000Y-64500D02*
D03*
X196500Y-138000D02*
D03*
X222500Y-129500D02*
D03*
X298000Y-153000D02*
D03*
X275500Y-216500D02*
D03*
X299750Y-239250D02*
D03*
X240750Y-263250D02*
D03*
X250000Y-295500D02*
D03*
X216000Y-297000D02*
D03*
X119500Y-210000D02*
D03*
X-96250Y-269250D02*
D03*
X17000Y-268500D02*
D03*
X83250Y-155500D02*
D03*
X97250Y-116750D02*
D03*
X-91500Y-233250D02*
D03*
X43250Y-233500D02*
D03*
X-168000Y-293000D02*
D03*
X-303250Y-267500D02*
D03*
X-260250Y-248750D02*
D03*
X-151500Y-216750D02*
D03*
X-20250Y-313500D02*
D03*
X-217250Y-105250D02*
D03*
X-228500Y-192000D02*
D03*
X-257500Y-181000D02*
D03*
X-128000Y-133250D02*
D03*
X-379250Y-111250D02*
D03*
X-350750Y-76000D02*
D03*
X-322250Y-115250D02*
D03*
X-363250Y113250D02*
D03*
X-222750Y-28750D02*
D03*
X-155000Y40000D02*
D03*
X-200750Y135500D02*
D03*
X-381250Y-170000D02*
D03*
X-136250Y-30750D02*
D03*
X-349250Y-52000D02*
D03*
X-54750Y100250D02*
D03*
X-105250Y115250D02*
D03*
X215000Y280000D02*
D03*
X70000Y285000D02*
D03*
X250000Y280000D02*
D03*
X-100000Y290000D02*
D03*
X98000Y236000D02*
D03*
X-48750Y201250D02*
D03*
X-88750Y202500D02*
D03*
X-140000Y184750D02*
D03*
X-236000Y282000D02*
D03*
X-232500Y237000D02*
D03*
X-299500Y198750D02*
D03*
X-335000Y165000D02*
D03*
X323500Y67000D02*
D03*
X356750Y-30250D02*
D03*
X-106454Y169315D02*
D03*
X-163562Y-115098D02*
D03*
X-88000Y-109000D02*
D03*
X-115500Y-150500D02*
D03*
X-130000Y-198000D02*
D03*
X298000Y18000D02*
D03*
X-271000Y126000D02*
D03*
X-312000Y-41000D02*
D03*
X-317000Y-227250D02*
D03*
X-185750Y-246000D02*
D03*
X301000Y69750D02*
D03*
D12*
X-184000Y500D02*
D03*
X-215000D02*
D03*
X67000Y-275000D02*
D03*
X98000D02*
D03*
X110500Y-164000D02*
D03*
X141500D02*
D03*
X273000Y-72500D02*
D03*
X242000D02*
D03*
X220000Y-7500D02*
D03*
X189000D02*
D03*
X220000Y17500D02*
D03*
X189000D02*
D03*
X280500Y20000D02*
D03*
X249500D02*
D03*
X341500Y-78000D02*
D03*
X310500D02*
D03*
X-114000Y-214000D02*
D03*
X-83000D02*
D03*
X-314500Y-173000D02*
D03*
X-283500D02*
D03*
X-167500Y-233000D02*
D03*
X-136500D02*
D03*
D13*
X353750Y32750D02*
D03*
X354000Y78000D02*
D03*
D14*
X-5000Y-275000D02*
D03*
X40000D02*
D03*
D15*
X99250Y-245000D02*
D03*
X65750Y-245000D02*
D03*
D16*
X97500Y-215000D02*
D03*
X67500Y-215000D02*
D03*
X220000Y-35000D02*
D03*
X190000D02*
D03*
X202500Y52500D02*
D03*
X232500Y52500D02*
D03*
X-35000Y-248000D02*
D03*
X-65000Y-248000D02*
D03*
D17*
X255000Y-247000D02*
D03*
Y-278000D02*
D03*
X227500Y-247000D02*
D03*
Y-278000D02*
D03*
X278000Y-159000D02*
D03*
Y-190000D02*
D03*
X242500Y-99500D02*
D03*
Y-130500D02*
D03*
X313000Y116500D02*
D03*
Y85500D02*
D03*
X287000Y116500D02*
D03*
Y85500D02*
D03*
X256000Y116500D02*
D03*
Y85500D02*
D03*
X-138000Y-150500D02*
D03*
Y-181500D02*
D03*
X-83000Y-150500D02*
D03*
Y-181500D02*
D03*
X-110500Y-150500D02*
D03*
Y-181500D02*
D03*
X-262500Y-197000D02*
D03*
Y-228000D02*
D03*
D18*
X252500Y-158250D02*
D03*
X233500D02*
D03*
X243000Y-183750D02*
D03*
X286000Y-125000D02*
D03*
X305000D02*
D03*
X295500Y-99500D02*
D03*
X322000Y4000D02*
D03*
X303000Y4000D02*
D03*
X312500Y-21500D02*
D03*
D19*
X302000Y-170000D02*
D03*
X302000Y-189000D02*
D03*
X327500Y-179500D02*
D03*
X250000Y-7500D02*
D03*
Y-26500D02*
D03*
X275500Y-17000D02*
D03*
X255750Y141500D02*
D03*
X255750Y160500D02*
D03*
X230250Y151000D02*
D03*
X-294750Y-217000D02*
D03*
Y-198000D02*
D03*
X-320250Y-207500D02*
D03*
X-225250Y-223000D02*
D03*
X-225250Y-242000D02*
D03*
X-199750Y-232500D02*
D03*
D20*
X-265250Y157750D02*
D03*
X-265250Y203750D02*
D03*
D21*
X-286250Y-70750D02*
D03*
D22*
X-263750Y-133250D02*
D03*
X-286250D02*
D03*
X-308750D02*
D03*
D23*
X-350500Y30001D02*
D03*
X-265500D02*
D03*
D24*
X-293750Y156250D02*
X-254000D01*
X-340000Y83750D02*
Y110000D01*
X-293750Y156250D01*
X-254000D02*
X-234000Y176250D01*
Y201500D01*
D25*
X-302000Y-8500D02*
X-263500D01*
D26*
X256000Y116500D02*
Y160250D01*
X243000Y-183000D02*
X261000D01*
X191500Y20000D02*
X194500Y17000D01*
X357250Y-32250D02*
Y-7250D01*
X335000Y101000D02*
X354000Y82000D01*
Y78000D02*
Y82000D01*
X-263500Y-161500D02*
Y-132750D01*
X-283500Y-170000D02*
X-272000D01*
X327750Y-192250D02*
Y-110250D01*
X-315000Y-192000D02*
Y-145500D01*
X125094Y250500D02*
X140094Y265500D01*
X-280500Y250500D02*
X125094D01*
X-349790Y181210D02*
X-280500Y250500D01*
X184750Y265500D02*
X287000Y163250D01*
X140094Y265500D02*
X184750D01*
X139500Y176500D02*
Y250000D01*
Y176500D02*
X159500Y156500D01*
X176250D01*
X193750Y139000D01*
X209000D01*
X287000Y116500D02*
Y163250D01*
X250000Y-7500D02*
Y19500D01*
X-260000Y-750D02*
X-259250Y0D01*
X-260000Y-5000D02*
Y-750D01*
X-88040Y-150500D02*
X-88000D01*
X-110500D02*
X-88040D01*
X-357750Y40000D02*
X-350000Y47750D01*
X-263500Y-8500D02*
X-260000Y-5000D01*
X-385539Y-60461D02*
Y159461D01*
X-363790Y181210D01*
X-385539Y-60461D02*
X-334000Y-112000D01*
X-350000Y1000D02*
Y15500D01*
X-363790Y181210D02*
X-349790D01*
X-315000Y-145500D02*
X-308000Y-138500D01*
X-272000Y-170000D02*
X-263500Y-161500D01*
X241375Y-237790D02*
Y-234375D01*
X232165Y-247000D02*
X241375Y-237790D01*
X227500Y-247000D02*
X232165D01*
X241375Y-234375D02*
X256000Y-219750D01*
Y-212500D01*
X243000Y-199500D02*
X256000Y-212500D01*
X243000Y-199500D02*
Y-183750D01*
X302000Y-170000D02*
X302250D01*
X323500Y26500D02*
X357250Y-7250D01*
X323500Y26500D02*
Y67000D01*
X327750Y-110250D02*
X341500Y-96500D01*
X273000Y-247000D02*
X327750Y-192250D01*
X217250Y-203250D02*
X229500Y-191000D01*
X176000Y-203250D02*
X217250D01*
X235750Y-171000D02*
X258500D01*
X243000Y-183750D02*
Y-183000D01*
X261000D02*
X269000Y-175000D01*
X163500Y-190750D02*
X176000Y-203250D01*
X163500Y-190750D02*
Y-172500D01*
X154000Y-163000D02*
X163500Y-172500D01*
X-320250Y-197250D02*
X-315000Y-192000D01*
X-320250Y-207500D02*
Y-197250D01*
X-101000Y-248000D02*
X-65000D01*
X-114000Y-235000D02*
X-101000Y-248000D01*
X-136500Y-233000D02*
X-134500Y-235000D01*
X-138750Y-230750D02*
X-136500Y-233000D01*
X-114000Y-235000D02*
Y-214000D01*
X-134500Y-235000D02*
X-114000D01*
Y-185000D02*
X-110500Y-181500D01*
X-114000Y-209000D02*
Y-185000D01*
X-115500Y-150500D02*
X-110500D01*
X-138000D02*
X-115500D01*
X-143000D02*
X-138000D01*
X255750Y160500D02*
X256000Y160250D01*
X230250Y99250D02*
Y151000D01*
X227000Y96000D02*
X230250Y99250D01*
X258500Y-171000D02*
X272500Y-157000D01*
X252500Y-158250D02*
Y-140500D01*
X242500Y-130500D02*
X252500Y-140500D01*
X269000Y-175000D02*
X285000D01*
X290000Y-170000D02*
X302000D01*
X285000Y-175000D02*
X290000Y-170000D01*
X315000Y-179000D02*
Y-150000D01*
X305500Y-188500D02*
X315000Y-179000D01*
X148000Y-163000D02*
X154000D01*
X242500Y-99500D02*
Y-73000D01*
X242000Y-72500D02*
X242500Y-73000D01*
X242000Y-72500D02*
Y-69500D01*
X220000Y-47500D02*
X242000Y-69500D01*
X220000Y-47500D02*
Y-35000D01*
X305000Y-140000D02*
X315000Y-150000D01*
X305000Y-140000D02*
Y-125000D01*
X273000Y-77000D02*
X295500Y-99500D01*
X273000Y-77000D02*
Y-72500D01*
X205000Y-2500D02*
X210000Y-7500D01*
X220000D01*
X239000Y-26500D01*
X250000D01*
X189000Y17500D02*
X191500Y20000D01*
X205000Y-2500D02*
Y12500D01*
X200500Y17000D02*
X205000Y12500D01*
X194500Y17000D02*
X200500D01*
X275500Y-33000D02*
X280000Y-37500D01*
X275500Y-33000D02*
Y-17000D01*
X265000Y7500D02*
X270000Y2500D01*
X265000Y7500D02*
Y30000D01*
X249500Y20000D02*
X250000Y19500D01*
X217500Y35000D02*
X260000D01*
X265000Y30000D01*
X310500Y-75000D02*
Y-39000D01*
X309000Y-37500D02*
X310500Y-39000D01*
X280000Y-37500D02*
X309000D01*
X326500D01*
X217500Y66500D02*
X227000Y76000D01*
Y96000D01*
X270000Y2500D02*
X301500D01*
X326500Y-37500D02*
X332000Y-32000D01*
Y-6000D01*
X322000Y4000D02*
X332000Y-6000D01*
X256000Y53500D02*
Y85500D01*
X255000Y52500D02*
X256000Y53500D01*
X232500Y52500D02*
X255000D01*
X257500D01*
X280500Y29500D01*
Y20000D02*
Y29500D01*
X287000Y85500D02*
X313000D01*
X255000Y-247000D02*
X273000D01*
X256000Y85500D02*
Y94000D01*
X263000Y101000D01*
X335000D01*
X255000Y-278000D02*
X281000D01*
X347000Y-212000D01*
Y-165000D01*
X337960Y-155960D02*
X347000Y-165000D01*
X337960Y-155960D02*
Y-124040D01*
X368000Y-94000D01*
Y21000D01*
X353750Y32750D02*
X368000Y21000D01*
X341500Y-96500D02*
Y-78000D01*
Y-75000D01*
X217500Y25000D02*
Y35000D01*
Y66500D01*
X-298000Y-244000D02*
X-270000Y-272000D01*
X-208000D01*
X-199750Y-263750D01*
X-294750Y-240750D02*
Y-217000D01*
X-319000Y-244000D02*
X-298000D01*
X-294750Y-240750D01*
X-138000Y-181500D02*
X-110500D01*
X-83000D01*
X-334000Y-229000D02*
X-319000Y-244000D01*
X-334000Y-229000D02*
Y-112000D01*
X-294750Y-198000D02*
X-263500D01*
X-262500Y-197000D01*
Y-228000D02*
X-248000D01*
X-234000Y-242000D01*
X-225250D01*
X-219000D01*
X-212000Y-235000D01*
Y-225000D01*
X-225250Y-223000D02*
Y-209250D01*
X-220000Y-204000D01*
X-159000D02*
X-153000Y-198000D01*
X-130000D01*
X233500Y-168750D02*
Y-158250D01*
X229500Y-191000D02*
Y-178500D01*
X236375Y-171625D01*
X233500Y-168750D02*
X235750Y-171000D01*
X236375Y-171625D01*
X279000Y-189000D02*
X302000D01*
X278000Y-190000D02*
X279000Y-189000D01*
X286000Y-125000D02*
X305000D01*
X-199750Y-263750D02*
Y-232500D01*
X-212000Y-225000D02*
X-205000Y-218000D01*
X-182500D01*
X-167500Y-233000D01*
X-220000Y-204000D02*
X-159000D01*
D27*
X182000Y50000D02*
X202500D01*
X98000Y-275000D02*
Y-215500D01*
X206000Y-271000D02*
Y-243750D01*
X191000Y-228750D02*
X206000Y-243750D01*
X99250Y-228750D02*
X191000D01*
X99250Y-245000D02*
Y-228750D01*
X213000Y-278000D02*
X227500D01*
X206000Y-271000D02*
X213000Y-278000D01*
X97500Y-147000D02*
X168468Y-28289D01*
X97500Y-215000D02*
Y-147000D01*
X168468Y-28289D02*
Y-17532D01*
X178500Y-7500D01*
X169000Y37000D02*
X182000Y50000D01*
X169000Y2000D02*
Y37000D01*
Y2000D02*
X178500Y-7500D01*
X189000D01*
X-32500Y-247500D02*
X32500D01*
X40000Y-255000D01*
Y-275000D02*
Y-255000D01*
Y-275000D02*
X67000D01*
X67000Y-275000D01*
X97500Y-215000D02*
X98000Y-215500D01*
X227500Y-278000D02*
X255000D01*
D28*
X-180000Y0D02*
X-95500D01*
X-259250D02*
X-219250D01*
D29*
X312500Y-21500D02*
Y84000D01*
X298000Y18000D02*
Y48000D01*
X285000Y61000D02*
X298000Y48000D01*
D30*
X-136250Y211000D02*
D03*
X-137000Y273500D02*
D03*
X346000Y78000D02*
D03*
Y33000D02*
D03*
X-302000Y-8500D02*
D03*
X-345000Y47500D02*
D03*
X209000Y139000D02*
D03*
X283000Y62000D02*
D03*
X265000Y-116000D02*
D03*
X-234000Y201500D02*
D03*
D31*
X180000Y-255000D02*
D03*
X130000D02*
D03*
D32*
X228500Y-221500D02*
D03*
X148250Y-184750D02*
D03*
X18000Y-198000D02*
D03*
X-18000Y197000D02*
D03*
X145000Y144000D02*
D03*
X32000Y85000D02*
D03*
X18000Y135500D02*
D03*
X-18000Y-135250D02*
D03*
X153000Y-26000D02*
D03*
M02*
