G04 Layer_Color=8388736*
%FSLAX44Y44*%
%MOMM*%
G71*
G01*
G75*
%ADD58C,1.2032*%
%ADD59R,1.3532X2.0532*%
%ADD60O,4.2032X2.7032*%
%ADD61R,2.2032X1.7532*%
%ADD62R,1.7532X2.0532*%
%ADD63R,1.5532X2.1532*%
%ADD64R,2.0532X1.3532*%
%ADD65R,0.9532X1.3532*%
%ADD66R,1.3532X0.9532*%
%ADD67R,2.3532X2.3032*%
%ADD68R,4.2032X2.2032*%
%ADD69R,1.4032X2.2032*%
G04:AMPARAMS|DCode=70|XSize=4.7032mm|YSize=13.2032mm|CornerRadius=1.2266mm|HoleSize=0mm|Usage=FLASHONLY|Rotation=180.000|XOffset=0mm|YOffset=0mm|HoleType=Round|Shape=RoundedRectangle|*
%AMROUNDEDRECTD70*
21,1,4.7032,10.7500,0,0,180.0*
21,1,2.2500,13.2032,0,0,180.0*
1,1,2.4532,-1.1250,5.3750*
1,1,2.4532,1.1250,5.3750*
1,1,2.4532,1.1250,-5.3750*
1,1,2.4532,-1.1250,-5.3750*
%
%ADD70ROUNDEDRECTD70*%
%ADD71C,2.2032*%
%ADD72C,0.2032*%
%ADD73C,2.7032*%
D58*
X0Y290000D02*
D03*
X235000Y-305000D02*
D03*
X-245000D02*
D03*
X-278000Y-151500D02*
D03*
X-300000Y-151750D02*
D03*
D59*
X-184000Y500D02*
D03*
X-215000D02*
D03*
X67000Y-275000D02*
D03*
X98000D02*
D03*
X110500Y-164000D02*
D03*
X141500D02*
D03*
X273000Y-72500D02*
D03*
X242000D02*
D03*
X220000Y-7500D02*
D03*
X189000D02*
D03*
X220000Y17500D02*
D03*
X189000D02*
D03*
X280500Y20000D02*
D03*
X249500D02*
D03*
X341500Y-78000D02*
D03*
X310500D02*
D03*
X-114000Y-214000D02*
D03*
X-83000D02*
D03*
X-314500Y-173000D02*
D03*
X-283500D02*
D03*
X-167500Y-233000D02*
D03*
X-136500D02*
D03*
D60*
X353750Y32750D02*
D03*
X354000Y78000D02*
D03*
D61*
X-5000Y-275000D02*
D03*
X40000D02*
D03*
D62*
X99250Y-245000D02*
D03*
X65750Y-245000D02*
D03*
D63*
X97500Y-215000D02*
D03*
X67500Y-215000D02*
D03*
X220000Y-35000D02*
D03*
X190000D02*
D03*
X202500Y52500D02*
D03*
X232500Y52500D02*
D03*
X-35000Y-248000D02*
D03*
X-65000Y-248000D02*
D03*
D64*
X255000Y-247000D02*
D03*
Y-278000D02*
D03*
X227500Y-247000D02*
D03*
Y-278000D02*
D03*
X278000Y-159000D02*
D03*
Y-190000D02*
D03*
X242500Y-99500D02*
D03*
Y-130500D02*
D03*
X313000Y116500D02*
D03*
Y85500D02*
D03*
X287000Y116500D02*
D03*
Y85500D02*
D03*
X256000Y116500D02*
D03*
Y85500D02*
D03*
X-138000Y-150500D02*
D03*
Y-181500D02*
D03*
X-83000Y-150500D02*
D03*
Y-181500D02*
D03*
X-110500Y-150500D02*
D03*
Y-181500D02*
D03*
X-262500Y-197000D02*
D03*
Y-228000D02*
D03*
D65*
X252500Y-158250D02*
D03*
X233500D02*
D03*
X243000Y-183750D02*
D03*
X286000Y-125000D02*
D03*
X305000D02*
D03*
X295500Y-99500D02*
D03*
X322000Y4000D02*
D03*
X303000Y4000D02*
D03*
X312500Y-21500D02*
D03*
D66*
X302000Y-170000D02*
D03*
X302000Y-189000D02*
D03*
X327500Y-179500D02*
D03*
X250000Y-7500D02*
D03*
Y-26500D02*
D03*
X275500Y-17000D02*
D03*
X255750Y141500D02*
D03*
X255750Y160500D02*
D03*
X230250Y151000D02*
D03*
X-294750Y-217000D02*
D03*
Y-198000D02*
D03*
X-320250Y-207500D02*
D03*
X-225250Y-223000D02*
D03*
X-225250Y-242000D02*
D03*
X-199750Y-232500D02*
D03*
D67*
X-265250Y157750D02*
D03*
X-265250Y203750D02*
D03*
D68*
X-286250Y-70750D02*
D03*
D69*
X-263750Y-133250D02*
D03*
X-286250D02*
D03*
X-308750D02*
D03*
D70*
X-350500Y30001D02*
D03*
X-265500D02*
D03*
D71*
X-136250Y211000D02*
D03*
X-137000Y273500D02*
D03*
X346000Y78000D02*
D03*
Y33000D02*
D03*
X-302000Y-8500D02*
D03*
X-345000Y47500D02*
D03*
X209000Y139000D02*
D03*
X283000Y62000D02*
D03*
X265000Y-116000D02*
D03*
D72*
X112000Y283750D02*
D03*
X162000D02*
D03*
X0Y0D02*
D03*
Y112500D02*
D03*
X-97500Y56500D02*
D03*
X-97250Y-56147D02*
D03*
X0Y-112250D02*
D03*
X97428Y-56250D02*
D03*
X97750Y56000D02*
D03*
X-154081Y89412D02*
D03*
X250Y178000D02*
D03*
X154000Y89250D02*
D03*
X154250Y-88750D02*
D03*
X0Y-178000D02*
D03*
X-154250Y-89250D02*
D03*
D73*
X180000Y-255000D02*
D03*
X130000D02*
D03*
M02*
