M48
;Layer_Color=9474304
;FILE_FORMAT=4:4
METRIC,LZ
;TYPE=PLATED
T5F00S00C1.7500
;TYPE=NON_PLATED
T6F00S00C1.7500
%
G90
G05
T05
G00X00169875Y-00061687
M15
G01X00138625Y-00115813
M16
G00X00113053Y-00029187
M15
G01X00081803Y-00083313
M16
G00X0003125Y-0011225
M15
G01X-0003125
M16
G00X0003125Y-00178
M15
G01X-0003125
M16
G00X-00081625Y-00083211
M15
G01X-00112875Y-00029084
M16
G00X-00138625Y-00116313
M15
G01X-00169875Y-00062187
M16
G00X-00169706Y00062348
M15
G01X-00138456Y00116475
M16
G00X-00113125Y00029437
M15
G01X-00081875Y00083563
M16
G00X-0003125Y001125
M15
G01X0003125
M16
G00X-00031Y00178
M15
G01X000315
M16
G00X00082125Y00083063
M15
G01X00113375Y00028937
M16
G00X00138375Y00116313
M15
G01X00169625Y00062187
M16
T06
G00X00173125Y-00136313
M15
G01X00204375Y-00082187
M16
G00X000315Y-0021825
M15
G01X-00031
M16
G00X-00205125Y-00082937
M15
G01X-00173875Y-00137063
M16
G00X-00203625Y00081437
M15
G01X-00172375Y00135563
M16
G00X0003125Y002185
M15
G01X-0003125
M16
G00X00171625Y00135813
M15
G01X00202875Y00081687
M16
M17
M30
