M48
;Layer_Color=9474304
;FILE_FORMAT=4:4
METRIC,LZ
;TYPE=PLATED
T1F00S00C0.5000
T2F00S00C0.7112
T3F00S00C1.0000
T4F00S00C1.5000
;TYPE=NON_PLATED
T7F00S00C3.3000
T8F00S00C15.0000
%
T01
X00216Y-00297
X0025Y-002955
X0024075Y-0026325
X002755Y-002165
X0029975Y-0023925
X0033Y-0020875
X0037125Y-0019025
X00298Y-00153
X00265Y-00116
X002705Y-0009825
X0025625Y-0003875
X00264Y-000075
X002035Y-0001875
X00216Y-000645
X002225Y-001295
X001965Y-00138
X001595Y-001485
X0035725Y-0006075
X0035675Y-0003025
X0009725Y-0011675
X0006975Y-001
X0008325Y-001555
X001195Y-0021
X0004325Y-002335
X00017Y-002685
X-0002025Y-003135
X-00096Y-0031
X-0009625Y-0026925
X-000915Y-0023325
X-0013Y-00198
X-001515Y-0021675
X-0018575Y-00246
X-00168Y-00293
X-0026025Y-0024875
X-002575Y-00181
X-002285Y-00192
X-0021725Y-0010525
X-00163562Y-00115098
X-00128Y-0013325
X-001155Y-001505
X-00088Y-00109
X-0013625Y-0003075
X-0022275Y-0002875
X-00312Y-00041
X-0034925Y-00052
X-0035075Y-00076
X-0037925Y-0011125
X-0038125Y-0017
X-003Y-0015175
X-00278Y-001515
X-0032225Y-0011525
X-00317Y-0022725
X-0030325Y-002675
X-00271Y00126
X-002995Y0019875
X-00335Y00165
X-0036325Y0011325
X-0020075Y001355
X-0018085Y00085401
X-00155Y0004
X-0010525Y0011525
X-00106454Y00169315
X-0014Y0018475
X-0013625Y00211
X-0008875Y002025
X-0004875Y0020125
X-0005475Y0010025
X000745Y001215
X00098Y00236
X0007Y00285
X0001Y0027
X-001Y0029
X-00137Y002735
X-00236Y00282
X-002325Y00237
X00113Y0000225
X0020575Y00027
X002365Y-0000175
X0024225Y0007125
X00283Y00062
X00301Y0006975
X003235Y00067
X00315Y0013
Y00165
Y002
X0025Y0028
X00215
X001395Y0025
X00209Y00139
X002105Y00112
X00298Y00018
T02
X0014825Y-0018475
X002285Y-002215
X00153Y-00026
X-00018Y-0013525
X00018Y-00198
X00032Y00085
X00018Y001355
X-00018Y00197
X00145Y00144
T03
X-00302Y-000085
X-00345Y000475
X-00234Y002015
X00112Y0028375
X00162
T04
X0018Y-00255
X0013
X00346Y00033
Y00078
T07
X0019Y-0018
X0036Y-0014
X-0019Y-0018
X-0036Y-0014
Y0014
X-0019Y0018
X0019
X0036Y0014
T08
X0Y0
M30
