G04 Layer_Color=65535*
%FSLAX44Y44*%
%MOMM*%
G71*
G01*
G75*
%ADD29C,0.5000*%
%ADD53C,0.4000*%
%ADD54C,0.2500*%
%ADD55C,0.2540*%
%ADD56C,0.2000*%
%ADD57R,0.5500X1.6500*%
D29*
X-253750Y-113250D02*
X-253750Y-75750D01*
X-261250Y-75750D02*
X-253750Y-75750D01*
X-318750Y-75750D02*
X-311250D01*
X-318750D02*
X-318750Y-113250D01*
D53*
X175000Y277496D02*
X177499Y279995D01*
X182498D01*
X184997Y277496D01*
Y274997D01*
X182498Y272498D01*
X179998D01*
X182498D01*
X184997Y269998D01*
Y267499D01*
X182498Y265000D01*
X177499D01*
X175000Y267499D01*
X139997Y265000D02*
X130000D01*
X139997Y274997D01*
Y277496D01*
X137498Y279995D01*
X132499D01*
X130000Y277496D01*
X90000Y265000D02*
X94998D01*
X92499D01*
Y279995D01*
X90000Y277496D01*
D54*
X48250Y-288250D02*
G03*
X48250Y-288250I-1250J0D01*
G01*
X263000Y-158250D02*
G03*
X263000Y-158250I-1250J0D01*
G01*
X303250Y-160750D02*
G03*
X303250Y-160750I-1250J0D01*
G01*
X278000Y-125000D02*
G03*
X278000Y-125000I-1250J0D01*
G01*
X251250Y1750D02*
G03*
X251250Y1750I-1250J0D01*
G01*
X332500Y4000D02*
G03*
X332500Y4000I-1250J0D01*
G01*
X257000Y132250D02*
G03*
X257000Y132250I-1250J0D01*
G01*
X-280250Y151750D02*
G03*
X-280250Y151750I-1250J0D01*
G01*
X-293500Y-226250D02*
G03*
X-293500Y-226250I-1250J0D01*
G01*
X-224000Y-213750D02*
G03*
X-224000Y-213750I-1250J0D01*
G01*
D55*
X0Y300000D02*
Y305000D01*
X10000Y290000D02*
X15000D01*
X0Y275000D02*
Y280000D01*
X-15000Y290000D02*
X-10000D01*
X235000Y-295000D02*
Y-290000D01*
X245000Y-305000D02*
X250000D01*
X235000Y-320000D02*
Y-315000D01*
X220000Y-305000D02*
X225000D01*
X-260000D02*
X-255000D01*
X-245000Y-320000D02*
Y-315000D01*
X-235000Y-305000D02*
X-230000D01*
X-245000Y-295000D02*
Y-290000D01*
X-238000Y-39999D02*
Y100001D01*
X-378000D02*
X-238000D01*
X-378000Y-39999D02*
Y100001D01*
Y-39999D02*
X-238000D01*
X-224460Y295246D02*
Y307242D01*
X-220461Y303243D01*
X-216463Y307242D01*
Y295246D01*
X-212464Y307242D02*
X-208465D01*
X-210464D01*
Y295246D01*
X-212464D01*
X-208465D01*
X-202467Y301244D02*
X-194470D01*
X-190471Y305243D02*
X-188472Y307242D01*
X-184473D01*
X-182474Y305243D01*
Y297245D01*
X-184473Y295246D01*
X-188472D01*
X-190471Y297245D01*
Y305243D01*
X-172477Y295246D02*
Y307242D01*
X-178475Y301244D01*
X-170478D01*
X-112496Y307242D02*
X-116495D01*
X-118494Y305243D01*
Y297245D01*
X-116495Y295246D01*
X-112496D01*
X-110497Y297245D01*
Y305243D01*
X-112496Y307242D01*
X-224460Y274755D02*
Y286751D01*
X-220461Y282752D01*
X-216463Y286751D01*
Y274755D01*
X-212464Y286751D02*
X-208465D01*
X-210464D01*
Y274755D01*
X-212464D01*
X-208465D01*
X-202467Y280753D02*
X-194470D01*
X-190471Y284751D02*
X-188472Y286751D01*
X-184473D01*
X-182474Y284751D01*
Y276754D01*
X-184473Y274755D01*
X-188472D01*
X-190471Y276754D01*
Y284751D01*
X-170478Y286751D02*
X-178475D01*
Y280753D01*
X-174476Y282752D01*
X-172477D01*
X-170478Y280753D01*
Y276754D01*
X-172477Y274755D01*
X-176476D01*
X-178475Y276754D01*
X-112496Y286751D02*
X-116495D01*
X-118494Y284751D01*
Y276754D01*
X-116495Y274755D01*
X-112496D01*
X-110497Y276754D01*
Y284751D01*
X-112496Y286751D01*
X-224460Y254263D02*
Y266259D01*
X-220461Y262261D01*
X-216463Y266259D01*
Y254263D01*
X-212464Y266259D02*
X-208465D01*
X-210464D01*
Y254263D01*
X-212464D01*
X-208465D01*
X-202467Y260261D02*
X-194470D01*
X-190471Y264260D02*
X-188472Y266259D01*
X-184473D01*
X-182474Y264260D01*
Y256263D01*
X-184473Y254263D01*
X-188472D01*
X-190471Y256263D01*
Y264260D01*
X-170478Y266259D02*
X-174476Y264260D01*
X-178475Y260261D01*
Y256263D01*
X-176476Y254263D01*
X-172477D01*
X-170478Y256263D01*
Y258262D01*
X-172477Y260261D01*
X-178475D01*
X-112496Y266259D02*
X-116495D01*
X-118494Y264260D01*
Y256263D01*
X-116495Y254263D01*
X-112496D01*
X-110497Y256263D01*
Y264260D01*
X-112496Y266259D01*
X-224460Y233772D02*
Y245768D01*
X-220461Y241769D01*
X-216463Y245768D01*
Y233772D01*
X-212464Y245768D02*
X-208465D01*
X-210464D01*
Y233772D01*
X-212464D01*
X-208465D01*
X-202467Y239770D02*
X-194470D01*
X-190471Y243769D02*
X-188472Y245768D01*
X-184473D01*
X-182474Y243769D01*
Y235771D01*
X-184473Y233772D01*
X-188472D01*
X-190471Y235771D01*
Y243769D01*
X-178475Y245768D02*
X-170478D01*
Y243769D01*
X-178475Y235771D01*
Y233772D01*
X-166479D02*
X-158481Y241769D01*
X-154483Y243769D02*
X-152483Y245768D01*
X-148485D01*
X-146485Y243769D01*
Y235771D01*
X-148485Y233772D01*
X-152483D01*
X-154483Y235771D01*
Y243769D01*
X-142486D02*
X-140487Y245768D01*
X-136489D01*
X-134489Y243769D01*
Y241769D01*
X-136489Y239770D01*
X-134489Y237771D01*
Y235771D01*
X-136489Y233772D01*
X-140487D01*
X-142486Y235771D01*
Y237771D01*
X-140487Y239770D01*
X-142486Y241769D01*
Y243769D01*
X-140487Y239770D02*
X-136489D01*
X-112496Y245768D02*
X-116495D01*
X-118494Y243769D01*
Y235771D01*
X-116495Y233772D01*
X-112496D01*
X-110497Y235771D01*
Y243769D01*
X-112496Y245768D01*
X-211000Y19000D02*
Y28997D01*
X-206002D01*
X-204335Y27331D01*
Y23998D01*
X-206002Y22332D01*
X-211000D01*
X-201003Y19000D02*
X-197671D01*
X-199337D01*
Y28997D01*
X-201003Y27331D01*
X-192673Y28997D02*
X-186008D01*
X-189340D01*
Y19000D01*
X352415Y59331D02*
X350748Y60997D01*
X347416D01*
X345750Y59331D01*
Y57664D01*
X347416Y55998D01*
X350748D01*
X352415Y54332D01*
Y52666D01*
X350748Y51000D01*
X347416D01*
X345750Y52666D01*
X355747Y51000D02*
X359079D01*
X357413D01*
Y60997D01*
X355747Y59331D01*
X338003Y-34000D02*
X344668D01*
X348000Y-30668D01*
X344668Y-27336D01*
X338003D01*
Y-24003D02*
Y-17339D01*
Y-20671D01*
X348000D01*
Y-14006D02*
Y-10674D01*
Y-12340D01*
X338003D01*
X339669Y-14006D01*
X348000Y989D02*
Y-5676D01*
X341335Y989D01*
X339669D01*
X338003Y-677D01*
Y-4010D01*
X339669Y-5676D01*
X338003Y4321D02*
Y10985D01*
Y7653D01*
X348000D01*
X211003Y-191000D02*
X217668D01*
X221000Y-187668D01*
X217668Y-184335D01*
X211003D01*
Y-181003D02*
Y-174339D01*
Y-177671D01*
X221000D01*
Y-171006D02*
Y-167674D01*
Y-169340D01*
X211003D01*
X212669Y-171006D01*
X221000Y-162676D02*
Y-159344D01*
Y-161010D01*
X211003D01*
X212669Y-162676D01*
X211003Y-154345D02*
Y-147681D01*
Y-151013D01*
X221000D01*
X-240250Y-254253D02*
Y-260918D01*
X-236918Y-264250D01*
X-233585Y-260918D01*
Y-254253D01*
X-230253D02*
X-223589D01*
X-226921D01*
Y-264250D01*
X-220256D02*
X-216924D01*
X-218590D01*
Y-254253D01*
X-220256Y-255919D01*
X-211926D02*
X-210260Y-254253D01*
X-206927D01*
X-205261Y-255919D01*
Y-262584D01*
X-206927Y-264250D01*
X-210260D01*
X-211926Y-262584D01*
Y-255919D01*
X-201929Y-254253D02*
X-195264D01*
X-198597D01*
Y-264250D01*
X266250Y-34753D02*
Y-41418D01*
X269582Y-44750D01*
X272915Y-41418D01*
Y-34753D01*
X276247D02*
X282911D01*
X279579D01*
Y-44750D01*
X286243Y-43084D02*
X287910Y-44750D01*
X291242D01*
X292908Y-43084D01*
Y-36419D01*
X291242Y-34753D01*
X287910D01*
X286243Y-36419D01*
Y-38085D01*
X287910Y-39752D01*
X292908D01*
X296240Y-34753D02*
X302905D01*
X299573D01*
Y-44750D01*
X339003Y-197000D02*
X345668D01*
X349000Y-193668D01*
X345668Y-190336D01*
X339003D01*
Y-187003D02*
Y-180339D01*
Y-183671D01*
X349000D01*
X340669Y-177006D02*
X339003Y-175340D01*
Y-172008D01*
X340669Y-170342D01*
X342336D01*
X344002Y-172008D01*
X345668Y-170342D01*
X347334D01*
X349000Y-172008D01*
Y-175340D01*
X347334Y-177006D01*
X345668D01*
X344002Y-175340D01*
X342336Y-177006D01*
X340669D01*
X344002Y-175340D02*
Y-172008D01*
X339003Y-167010D02*
Y-160345D01*
Y-163677D01*
X349000D01*
X-322500Y-235003D02*
Y-241668D01*
X-319168Y-245000D01*
X-315835Y-241668D01*
Y-235003D01*
X-312503D02*
X-305839D01*
X-309171D01*
Y-245000D01*
X-302506Y-235003D02*
X-295842D01*
Y-236669D01*
X-302506Y-243334D01*
Y-245000D01*
X-292510Y-235003D02*
X-285845D01*
X-289177D01*
Y-245000D01*
X-242747Y-115250D02*
X-236082D01*
X-232750Y-111918D01*
X-236082Y-108586D01*
X-242747D01*
Y-105253D02*
Y-98589D01*
Y-101921D01*
X-232750D01*
X-242747Y-88592D02*
X-241081Y-91924D01*
X-237748Y-95257D01*
X-234416D01*
X-232750Y-93590D01*
Y-90258D01*
X-234416Y-88592D01*
X-236082D01*
X-237748Y-90258D01*
Y-95257D01*
X-242747Y-85260D02*
Y-78595D01*
Y-81927D01*
X-232750D01*
X315003Y-143000D02*
X321668D01*
X325000Y-139668D01*
X321668Y-136335D01*
X315003D01*
Y-133003D02*
X325000D01*
Y-128005D01*
X323334Y-126339D01*
X316669D01*
X315003Y-128005D01*
Y-133003D01*
X325000Y-116342D02*
Y-123006D01*
X318335Y-116342D01*
X316669D01*
X315003Y-118008D01*
Y-121340D01*
X316669Y-123006D01*
X325000Y-106345D02*
Y-113010D01*
X318335Y-106345D01*
X316669D01*
X315003Y-108011D01*
Y-111343D01*
X316669Y-113010D01*
X315003Y-103013D02*
Y-96348D01*
Y-99681D01*
X325000D01*
X217250Y180997D02*
Y174332D01*
X220582Y171000D01*
X223915Y174332D01*
Y180997D01*
X227247D02*
Y171000D01*
X232245D01*
X233911Y172666D01*
Y179331D01*
X232245Y180997D01*
X227247D01*
X243908Y171000D02*
X237244D01*
X243908Y177665D01*
Y179331D01*
X242242Y180997D01*
X238910D01*
X237244Y179331D01*
X247240Y171000D02*
X250573D01*
X248906D01*
Y180997D01*
X247240Y179331D01*
X255571Y180997D02*
X262236D01*
X258903D01*
Y171000D01*
X110000Y-226003D02*
Y-232668D01*
X113332Y-236000D01*
X116664Y-232668D01*
Y-226003D01*
X119997D02*
Y-236000D01*
X124995D01*
X126661Y-234334D01*
Y-227669D01*
X124995Y-226003D01*
X119997D01*
X129994Y-236000D02*
X133326D01*
X131660D01*
Y-226003D01*
X129994Y-227669D01*
X144989Y-226003D02*
X141657Y-227669D01*
X138324Y-231002D01*
Y-234334D01*
X139990Y-236000D01*
X143323D01*
X144989Y-234334D01*
Y-232668D01*
X143323Y-231002D01*
X138324D01*
X148321Y-226003D02*
X154986D01*
X151653D01*
Y-236000D01*
X-236997Y143000D02*
X-230332D01*
X-227000Y146332D01*
X-230332Y149664D01*
X-236997D01*
Y152997D02*
X-227000D01*
Y157995D01*
X-228666Y159661D01*
X-235331D01*
X-236997Y157995D01*
Y152997D01*
X-227000Y162994D02*
Y166326D01*
Y164660D01*
X-236997D01*
X-235331Y162994D01*
Y171324D02*
X-236997Y172990D01*
Y176323D01*
X-235331Y177989D01*
X-233664D01*
X-231998Y176323D01*
Y174656D01*
Y176323D01*
X-230332Y177989D01*
X-228666D01*
X-227000Y176323D01*
Y172990D01*
X-228666Y171324D01*
X-236997Y181321D02*
Y187985D01*
Y184653D01*
X-227000D01*
X-5500Y-241253D02*
Y-247918D01*
X-2168Y-251250D01*
X1164Y-247918D01*
Y-241253D01*
X4497D02*
Y-251250D01*
X9495D01*
X11161Y-249584D01*
Y-242919D01*
X9495Y-241253D01*
X4497D01*
X14494Y-251250D02*
X17826D01*
X16160D01*
Y-241253D01*
X14494Y-242919D01*
X29489Y-251250D02*
X22824D01*
X29489Y-244585D01*
Y-242919D01*
X27823Y-241253D01*
X24490D01*
X22824Y-242919D01*
X32821Y-241253D02*
X39485D01*
X36153D01*
Y-251250D01*
X-58750Y-228250D02*
X-68747D01*
Y-223252D01*
X-67081Y-221586D01*
X-63748D01*
X-62082Y-223252D01*
Y-228250D01*
Y-224918D02*
X-58750Y-221586D01*
X-67081Y-218253D02*
X-68747Y-216587D01*
Y-213255D01*
X-67081Y-211589D01*
X-65415D01*
X-63748Y-213255D01*
Y-214921D01*
Y-213255D01*
X-62082Y-211589D01*
X-60416D01*
X-58750Y-213255D01*
Y-216587D01*
X-60416Y-218253D01*
X-67081Y-208256D02*
X-68747Y-206590D01*
Y-203258D01*
X-67081Y-201592D01*
X-65415D01*
X-63748Y-203258D01*
X-62082Y-201592D01*
X-60416D01*
X-58750Y-203258D01*
Y-206590D01*
X-60416Y-208256D01*
X-62082D01*
X-63748Y-206590D01*
X-65415Y-208256D01*
X-67081D01*
X-63748Y-206590D02*
Y-203258D01*
X-68747Y-198260D02*
Y-191595D01*
Y-194927D01*
X-58750D01*
X239750Y-60500D02*
Y-50503D01*
X244748D01*
X246415Y-52169D01*
Y-55502D01*
X244748Y-57168D01*
X239750D01*
X243082D02*
X246415Y-60500D01*
X249747Y-52169D02*
X251413Y-50503D01*
X254745D01*
X256411Y-52169D01*
Y-53836D01*
X254745Y-55502D01*
X253079D01*
X254745D01*
X256411Y-57168D01*
Y-58834D01*
X254745Y-60500D01*
X251413D01*
X249747Y-58834D01*
X259743Y-50503D02*
X266408D01*
Y-52169D01*
X259743Y-58834D01*
Y-60500D01*
X269740Y-50503D02*
X276405D01*
X273073D01*
Y-60500D01*
X-70000Y-139000D02*
X-79997D01*
Y-134002D01*
X-78331Y-132336D01*
X-74998D01*
X-73332Y-134002D01*
Y-139000D01*
Y-135668D02*
X-70000Y-132336D01*
X-78331Y-129003D02*
X-79997Y-127337D01*
Y-124005D01*
X-78331Y-122339D01*
X-76665D01*
X-74998Y-124005D01*
Y-125671D01*
Y-124005D01*
X-73332Y-122339D01*
X-71666D01*
X-70000Y-124005D01*
Y-127337D01*
X-71666Y-129003D01*
X-79997Y-112342D02*
X-78331Y-115674D01*
X-74998Y-119006D01*
X-71666D01*
X-70000Y-117340D01*
Y-114008D01*
X-71666Y-112342D01*
X-73332D01*
X-74998Y-114008D01*
Y-119006D01*
X-79997Y-109010D02*
Y-102345D01*
Y-105677D01*
X-70000D01*
X-95000Y-138750D02*
X-104997D01*
Y-133752D01*
X-103331Y-132086D01*
X-99998D01*
X-98332Y-133752D01*
Y-138750D01*
Y-135418D02*
X-95000Y-132086D01*
X-103331Y-128753D02*
X-104997Y-127087D01*
Y-123755D01*
X-103331Y-122089D01*
X-101664D01*
X-99998Y-123755D01*
Y-125421D01*
Y-123755D01*
X-98332Y-122089D01*
X-96666D01*
X-95000Y-123755D01*
Y-127087D01*
X-96666Y-128753D01*
X-104997Y-112092D02*
Y-118756D01*
X-99998D01*
X-101664Y-115424D01*
Y-113758D01*
X-99998Y-112092D01*
X-96666D01*
X-95000Y-113758D01*
Y-117090D01*
X-96666Y-118756D01*
X-104997Y-108760D02*
Y-102095D01*
Y-105427D01*
X-95000D01*
X-110000Y-138250D02*
X-119997D01*
Y-133252D01*
X-118331Y-131586D01*
X-114998D01*
X-113332Y-133252D01*
Y-138250D01*
Y-134918D02*
X-110000Y-131586D01*
X-118331Y-128253D02*
X-119997Y-126587D01*
Y-123255D01*
X-118331Y-121589D01*
X-116664D01*
X-114998Y-123255D01*
Y-124921D01*
Y-123255D01*
X-113332Y-121589D01*
X-111666D01*
X-110000Y-123255D01*
Y-126587D01*
X-111666Y-128253D01*
X-110000Y-113258D02*
X-119997D01*
X-114998Y-118256D01*
Y-111592D01*
X-119997Y-108260D02*
Y-101595D01*
Y-104927D01*
X-110000D01*
X108500Y-149000D02*
Y-139003D01*
X113498D01*
X115164Y-140669D01*
Y-144002D01*
X113498Y-145668D01*
X108500D01*
X111832D02*
X115164Y-149000D01*
X118497Y-140669D02*
X120163Y-139003D01*
X123495D01*
X125161Y-140669D01*
Y-142336D01*
X123495Y-144002D01*
X121829D01*
X123495D01*
X125161Y-145668D01*
Y-147334D01*
X123495Y-149000D01*
X120163D01*
X118497Y-147334D01*
X128494Y-140669D02*
X130160Y-139003D01*
X133492D01*
X135158Y-140669D01*
Y-142336D01*
X133492Y-144002D01*
X131826D01*
X133492D01*
X135158Y-145668D01*
Y-147334D01*
X133492Y-149000D01*
X130160D01*
X128494Y-147334D01*
X138490Y-139003D02*
X145155D01*
X141823D01*
Y-149000D01*
X335000Y130000D02*
X325003D01*
Y134998D01*
X326669Y136664D01*
X330002D01*
X331668Y134998D01*
Y130000D01*
Y133332D02*
X335000Y136664D01*
X326669Y139997D02*
X325003Y141663D01*
Y144995D01*
X326669Y146661D01*
X328335D01*
X330002Y144995D01*
Y143329D01*
Y144995D01*
X331668Y146661D01*
X333334D01*
X335000Y144995D01*
Y141663D01*
X333334Y139997D01*
X335000Y156658D02*
Y149994D01*
X328335Y156658D01*
X326669D01*
X325003Y154992D01*
Y151660D01*
X326669Y149994D01*
X325003Y159990D02*
Y166655D01*
Y163323D01*
X335000D01*
X280000Y129000D02*
X270003D01*
Y133998D01*
X271669Y135665D01*
X275002D01*
X276668Y133998D01*
Y129000D01*
Y132332D02*
X280000Y135665D01*
X271669Y138997D02*
X270003Y140663D01*
Y143995D01*
X271669Y145661D01*
X273335D01*
X275002Y143995D01*
Y142329D01*
Y143995D01*
X276668Y145661D01*
X278334D01*
X280000Y143995D01*
Y140663D01*
X278334Y138997D01*
X280000Y148994D02*
Y152326D01*
Y150660D01*
X270003D01*
X271669Y148994D01*
X270003Y157324D02*
Y163989D01*
Y160656D01*
X280000D01*
X-170000Y-259000D02*
Y-249003D01*
X-165002D01*
X-163335Y-250669D01*
Y-254002D01*
X-165002Y-255668D01*
X-170000D01*
X-166668D02*
X-163335Y-259000D01*
X-160003Y-250669D02*
X-158337Y-249003D01*
X-155005D01*
X-153339Y-250669D01*
Y-252335D01*
X-155005Y-254002D01*
X-156671D01*
X-155005D01*
X-153339Y-255668D01*
Y-257334D01*
X-155005Y-259000D01*
X-158337D01*
X-160003Y-257334D01*
X-150006Y-250669D02*
X-148340Y-249003D01*
X-145008D01*
X-143342Y-250669D01*
Y-257334D01*
X-145008Y-259000D01*
X-148340D01*
X-150006Y-257334D01*
Y-250669D01*
X-140010Y-249003D02*
X-133345D01*
X-136677D01*
Y-259000D01*
X309750Y-63000D02*
Y-53003D01*
X314748D01*
X316415Y-54669D01*
Y-58002D01*
X314748Y-59668D01*
X309750D01*
X313082D02*
X316415Y-63000D01*
X326411D02*
X319747D01*
X326411Y-56336D01*
Y-54669D01*
X324745Y-53003D01*
X321413D01*
X319747Y-54669D01*
X329744Y-61334D02*
X331410Y-63000D01*
X334742D01*
X336408Y-61334D01*
Y-54669D01*
X334742Y-53003D01*
X331410D01*
X329744Y-54669D01*
Y-56336D01*
X331410Y-58002D01*
X336408D01*
X339740Y-53003D02*
X346405D01*
X343073D01*
Y-63000D01*
X228250Y-120250D02*
X218253D01*
Y-115252D01*
X219919Y-113586D01*
X223252D01*
X224918Y-115252D01*
Y-120250D01*
Y-116918D02*
X228250Y-113586D01*
Y-103589D02*
Y-110253D01*
X221586Y-103589D01*
X219919D01*
X218253Y-105255D01*
Y-108587D01*
X219919Y-110253D01*
Y-100256D02*
X218253Y-98590D01*
Y-95258D01*
X219919Y-93592D01*
X221586D01*
X223252Y-95258D01*
X224918Y-93592D01*
X226584D01*
X228250Y-95258D01*
Y-98590D01*
X226584Y-100256D01*
X224918D01*
X223252Y-98590D01*
X221586Y-100256D01*
X219919D01*
X223252Y-98590D02*
Y-95258D01*
X218253Y-90260D02*
Y-83595D01*
Y-86927D01*
X228250D01*
X255000Y-210000D02*
Y-200003D01*
X259998D01*
X261665Y-201669D01*
Y-205002D01*
X259998Y-206668D01*
X255000D01*
X258332D02*
X261665Y-210000D01*
X271661D02*
X264997D01*
X271661Y-203335D01*
Y-201669D01*
X269995Y-200003D01*
X266663D01*
X264997Y-201669D01*
X274994Y-200003D02*
X281658D01*
Y-201669D01*
X274994Y-208334D01*
Y-210000D01*
X284990Y-200003D02*
X291655D01*
X288323D01*
Y-210000D01*
X247250Y35250D02*
Y45247D01*
X252248D01*
X253915Y43581D01*
Y40248D01*
X252248Y38582D01*
X247250D01*
X250582D02*
X253915Y35250D01*
X263911D02*
X257247D01*
X263911Y41915D01*
Y43581D01*
X262245Y45247D01*
X258913D01*
X257247Y43581D01*
X273908Y45247D02*
X270576Y43581D01*
X267244Y40248D01*
Y36916D01*
X268910Y35250D01*
X272242D01*
X273908Y36916D01*
Y38582D01*
X272242Y40248D01*
X267244D01*
X277240Y45247D02*
X283905D01*
X280573D01*
Y35250D01*
X-239000Y-231000D02*
X-248997D01*
Y-226002D01*
X-247331Y-224335D01*
X-243998D01*
X-242332Y-226002D01*
Y-231000D01*
Y-227668D02*
X-239000Y-224335D01*
Y-214339D02*
Y-221003D01*
X-245665Y-214339D01*
X-247331D01*
X-248997Y-216005D01*
Y-219337D01*
X-247331Y-221003D01*
X-248997Y-204342D02*
Y-211006D01*
X-243998D01*
X-245665Y-207674D01*
Y-206008D01*
X-243998Y-204342D01*
X-240666D01*
X-239000Y-206008D01*
Y-209340D01*
X-240666Y-211006D01*
X-248997Y-201010D02*
Y-194345D01*
Y-197677D01*
X-239000D01*
X140000Y12500D02*
Y22497D01*
X144998D01*
X146664Y20831D01*
Y17498D01*
X144998Y15832D01*
X140000D01*
X143332D02*
X146664Y12500D01*
X156661D02*
X149997D01*
X156661Y19165D01*
Y20831D01*
X154995Y22497D01*
X151663D01*
X149997Y20831D01*
X164992Y12500D02*
Y22497D01*
X159994Y17498D01*
X166658D01*
X169990Y22497D02*
X176655D01*
X173323D01*
Y12500D01*
X303000Y129000D02*
X293003D01*
Y133998D01*
X294669Y135665D01*
X298002D01*
X299668Y133998D01*
Y129000D01*
Y132332D02*
X303000Y135665D01*
Y145661D02*
Y138997D01*
X296336Y145661D01*
X294669D01*
X293003Y143995D01*
Y140663D01*
X294669Y138997D01*
Y148994D02*
X293003Y150660D01*
Y153992D01*
X294669Y155658D01*
X296336D01*
X298002Y153992D01*
Y152326D01*
Y153992D01*
X299668Y155658D01*
X301334D01*
X303000Y153992D01*
Y150660D01*
X301334Y148994D01*
X293003Y158990D02*
Y165655D01*
Y162323D01*
X303000D01*
X139500Y-15000D02*
Y-5003D01*
X144498D01*
X146165Y-6669D01*
Y-10002D01*
X144498Y-11668D01*
X139500D01*
X142832D02*
X146165Y-15000D01*
X156161D02*
X149497D01*
X156161Y-8335D01*
Y-6669D01*
X154495Y-5003D01*
X151163D01*
X149497Y-6669D01*
X166158Y-15000D02*
X159494D01*
X166158Y-8335D01*
Y-6669D01*
X164492Y-5003D01*
X161160D01*
X159494Y-6669D01*
X169490Y-5003D02*
X176155D01*
X172823D01*
Y-15000D01*
X212500Y-277500D02*
X202503D01*
Y-272502D01*
X204169Y-270835D01*
X207502D01*
X209168Y-272502D01*
Y-277500D01*
Y-274168D02*
X212500Y-270835D01*
Y-260839D02*
Y-267503D01*
X205835Y-260839D01*
X204169D01*
X202503Y-262505D01*
Y-265837D01*
X204169Y-267503D01*
X212500Y-257506D02*
Y-254174D01*
Y-255840D01*
X202503D01*
X204169Y-257506D01*
X202503Y-249176D02*
Y-242511D01*
Y-245844D01*
X212500D01*
X281000Y-279000D02*
X271003D01*
Y-274002D01*
X272669Y-272335D01*
X276002D01*
X277668Y-274002D01*
Y-279000D01*
Y-275668D02*
X281000Y-272335D01*
Y-262339D02*
Y-269003D01*
X274335Y-262339D01*
X272669D01*
X271003Y-264005D01*
Y-267337D01*
X272669Y-269003D01*
Y-259006D02*
X271003Y-257340D01*
Y-254008D01*
X272669Y-252342D01*
X279334D01*
X281000Y-254008D01*
Y-257340D01*
X279334Y-259006D01*
X272669D01*
X271003Y-249010D02*
Y-242345D01*
Y-245677D01*
X281000D01*
X-360000Y-180000D02*
Y-170003D01*
X-355002D01*
X-353335Y-171669D01*
Y-175002D01*
X-355002Y-176668D01*
X-360000D01*
X-356668D02*
X-353335Y-180000D01*
X-350003D02*
X-346671D01*
X-348337D01*
Y-170003D01*
X-350003Y-171669D01*
X-341673Y-178334D02*
X-340006Y-180000D01*
X-336674D01*
X-335008Y-178334D01*
Y-171669D01*
X-336674Y-170003D01*
X-340006D01*
X-341673Y-171669D01*
Y-173335D01*
X-340006Y-175002D01*
X-335008D01*
X-331676Y-170003D02*
X-325011D01*
X-328344D01*
Y-180000D01*
X66000Y-300000D02*
Y-290003D01*
X70998D01*
X72664Y-291669D01*
Y-295002D01*
X70998Y-296668D01*
X66000D01*
X69332D02*
X72664Y-300000D01*
X75997D02*
X79329D01*
X77663D01*
Y-290003D01*
X75997Y-291669D01*
X84327D02*
X85994Y-290003D01*
X89326D01*
X90992Y-291669D01*
Y-293335D01*
X89326Y-295002D01*
X90992Y-296668D01*
Y-298334D01*
X89326Y-300000D01*
X85994D01*
X84327Y-298334D01*
Y-296668D01*
X85994Y-295002D01*
X84327Y-293335D01*
Y-291669D01*
X85994Y-295002D02*
X89326D01*
X94324Y-290003D02*
X100989D01*
X97656D01*
Y-300000D01*
X-304500Y116747D02*
Y106750D01*
X-297836D01*
X-287839D02*
X-294503D01*
X-287839Y113414D01*
Y115081D01*
X-289505Y116747D01*
X-292837D01*
X-294503Y115081D01*
X-284506Y116747D02*
X-277842D01*
X-281174D01*
Y106750D01*
X156664Y-34169D02*
X154998Y-32503D01*
X151666D01*
X150000Y-34169D01*
Y-40834D01*
X151666Y-42500D01*
X154998D01*
X156664Y-40834D01*
X159997D02*
X161663Y-42500D01*
X164995D01*
X166661Y-40834D01*
Y-34169D01*
X164995Y-32503D01*
X161663D01*
X159997Y-34169D01*
Y-35835D01*
X161663Y-37502D01*
X166661D01*
X169994Y-32503D02*
X176658D01*
X173326D01*
Y-42500D01*
X223169Y74415D02*
X221503Y72748D01*
Y69416D01*
X223169Y67750D01*
X229834D01*
X231500Y69416D01*
Y72748D01*
X229834Y74415D01*
X223169Y77747D02*
X221503Y79413D01*
Y82745D01*
X223169Y84411D01*
X224835D01*
X226502Y82745D01*
X228168Y84411D01*
X229834D01*
X231500Y82745D01*
Y79413D01*
X229834Y77747D01*
X228168D01*
X226502Y79413D01*
X224835Y77747D01*
X223169D01*
X226502Y79413D02*
Y82745D01*
X221503Y87744D02*
Y94408D01*
Y91076D01*
X231500D01*
X75665Y-190669D02*
X73998Y-189003D01*
X70666D01*
X69000Y-190669D01*
Y-197334D01*
X70666Y-199000D01*
X73998D01*
X75665Y-197334D01*
X78997Y-189003D02*
X85661D01*
Y-190669D01*
X78997Y-197334D01*
Y-199000D01*
X88994Y-189003D02*
X95658D01*
X92326D01*
Y-199000D01*
X-55835Y-267169D02*
X-57502Y-265503D01*
X-60834D01*
X-62500Y-267169D01*
Y-273834D01*
X-60834Y-275500D01*
X-57502D01*
X-55835Y-273834D01*
X-45839Y-265503D02*
X-49171Y-267169D01*
X-52503Y-270502D01*
Y-273834D01*
X-50837Y-275500D01*
X-47505D01*
X-45839Y-273834D01*
Y-272168D01*
X-47505Y-270502D01*
X-52503D01*
X-42506Y-265503D02*
X-35842D01*
X-39174D01*
Y-275500D01*
X105360Y-260240D02*
X107026D01*
Y-261906D01*
X105360D01*
Y-260240D01*
D56*
X-205500Y-7750D02*
X-193500D01*
X-205500Y8750D02*
X-193500D01*
X76500Y-266750D02*
X88500D01*
X76500Y-283250D02*
X88500D01*
X-5500Y-263250D02*
Y-260500D01*
X40500Y-260500D02*
X40500Y-263250D01*
X-5500Y-286750D02*
X-5500Y-289500D01*
X40500Y-286750D02*
X40500Y-289500D01*
X-5500Y-260500D02*
X40500Y-260500D01*
X-5500Y-289500D02*
X40500Y-289500D01*
X77500Y-253250D02*
X87500D01*
X77500Y-236750D02*
X87500Y-236750D01*
Y-253250D02*
Y-236750D01*
X78000Y-223750D02*
X87000D01*
X78000Y-206250D02*
X87000D01*
X263250Y-268500D02*
Y-256500D01*
X246750Y-268500D02*
Y-256500D01*
X235750Y-268500D02*
Y-256500D01*
X219250Y-268500D02*
Y-256500D01*
X286250Y-180500D02*
Y-168500D01*
X269750Y-180500D02*
Y-168500D01*
X258000Y-178000D02*
Y-168000D01*
X250750Y-178000D02*
X258000D01*
X228000D02*
Y-168000D01*
Y-178000D02*
X235250D01*
X311750Y-164500D02*
X321750D01*
Y-171750D02*
Y-164500D01*
X311750Y-194500D02*
X321750Y-194500D01*
Y-187250D01*
X250750Y-121000D02*
Y-109000D01*
X234250Y-121000D02*
Y-109000D01*
X120000Y-155750D02*
X132000D01*
X120000Y-172250D02*
X132000D01*
X280500Y-115250D02*
Y-105250D01*
X287750D01*
X310500Y-115250D02*
Y-105250D01*
X303250D02*
X310500D01*
X200500Y-43750D02*
X209500D01*
X200500Y-26250D02*
X209500D01*
X251500Y-80750D02*
X263500D01*
X251500Y-64250D02*
X263500D01*
X198500Y-15750D02*
X210500D01*
X198500Y750D02*
X210500D01*
X198500Y9250D02*
X210500D01*
X198500Y25750D02*
X210500D01*
X259750Y-2000D02*
X269750D01*
Y-9250D02*
Y-2000D01*
X259750Y-32000D02*
X269750D01*
Y-24750D01*
X259000Y11750D02*
X271000D01*
X259000Y28250D02*
X271000D01*
X320000Y-86250D02*
X332000Y-86250D01*
X320000Y-69750D02*
X332000Y-69750D01*
X327500Y-15750D02*
X327500Y-5750D01*
X320250Y-15750D02*
X327500Y-15750D01*
X297500Y-15750D02*
X297500Y-5750D01*
X297500Y-15750D02*
X304750D01*
X321250Y95000D02*
Y107000D01*
X304750Y95000D02*
Y107000D01*
X295250D02*
X295250Y95000D01*
X278750Y107000D02*
X278750Y95000D01*
X213000Y61250D02*
X222000Y61250D01*
X213000Y43750D02*
X222000Y43750D01*
X236000Y136000D02*
X246000D01*
X236000Y143250D02*
X236000Y136000D01*
X236000Y166000D02*
X246000Y166000D01*
X236000Y158750D02*
X236000Y166000D01*
X264250Y95000D02*
Y107000D01*
X247750Y95000D02*
Y107000D01*
X-284750Y158250D02*
X-284750Y203250D01*
X-245750D02*
X-245750Y158250D01*
X-284750Y158250D02*
X-280000D01*
X-284750Y203250D02*
X-280000Y203250D01*
X-250500Y158250D02*
X-245750Y158250D01*
X-250500Y203250D02*
X-245750Y203250D01*
X-129750Y-172000D02*
Y-160000D01*
X-146250Y-172000D02*
Y-160000D01*
X-74750Y-172000D02*
Y-160000D01*
X-91250Y-172000D02*
Y-160000D01*
X-102250Y-172000D02*
Y-160000D01*
X-118750Y-172000D02*
Y-160000D01*
X-104500Y-205750D02*
X-92500Y-205750D01*
X-104500Y-222250D02*
X-92500Y-222250D01*
X-54500Y-256750D02*
X-45500Y-256750D01*
X-54500Y-239250D02*
X-45500Y-239250D01*
X-305000Y-164750D02*
X-293000Y-164750D01*
X-305000Y-181250D02*
X-293000Y-181250D01*
X-314500Y-222500D02*
X-304500Y-222500D01*
X-314500Y-222500D02*
Y-215250D01*
X-314500Y-192500D02*
X-304500Y-192500D01*
X-314500Y-199750D02*
X-314500Y-192500D01*
X-254250Y-206500D02*
X-254250Y-218500D01*
X-270750Y-206500D02*
X-270750Y-218500D01*
X-215500Y-217500D02*
X-205500D01*
X-205500Y-224750D01*
X-215500Y-247500D02*
X-205500Y-247500D01*
X-205500Y-240250D01*
X-158000Y-224750D02*
X-146000Y-224750D01*
X-158000Y-241250D02*
X-146000Y-241250D01*
D57*
X84750Y-244998D02*
D03*
M02*
