G04 Layer_Color=128*
%FSLAX44Y44*%
%MOMM*%
G71*
G01*
G75*
%ADD95C,0.0508*%
D95*
X-138750Y211000D02*
X-133750D01*
X-136250Y208500D02*
Y213500D01*
X-139500Y273500D02*
X-134500D01*
X-137000Y271000D02*
Y276000D01*
X107000Y283750D02*
X117000D01*
X112000Y278750D02*
Y288750D01*
X157000Y283750D02*
X167000D01*
X162000Y278750D02*
Y288750D01*
X-206500Y180000D02*
X-173500D01*
X-190000Y163500D02*
Y196500D01*
X338500Y78000D02*
X353500D01*
X346000Y70500D02*
Y85500D01*
X338500Y33000D02*
X353500D01*
X346000Y25500D02*
Y40500D01*
X172500Y-255000D02*
X187500D01*
X180000Y-262500D02*
Y-247500D01*
X122500Y-255000D02*
X137500D01*
X130000Y-262500D02*
Y-247500D01*
X-75000Y0D02*
X75000D01*
X0Y-75000D02*
Y75000D01*
X-376500Y140000D02*
X-343500D01*
X-360000Y123500D02*
Y156500D01*
X-376500Y-140000D02*
X-343500D01*
X-360000Y-156500D02*
Y-123500D01*
X-206500Y-180000D02*
X-173500D01*
X-190000Y-196500D02*
Y-163500D01*
X173500Y180000D02*
X206500D01*
X190000Y163500D02*
Y196500D01*
X343500Y140000D02*
X376500D01*
X360000Y123500D02*
Y156500D01*
X343500Y-140000D02*
X376500D01*
X360000Y-156500D02*
Y-123500D01*
X173500Y-180000D02*
X206500D01*
X190000Y-196500D02*
Y-163500D01*
X-8750Y112500D02*
X8750D01*
X0Y103750D02*
Y121250D01*
X-106250Y56500D02*
X-88750D01*
X-97500Y47750D02*
Y65250D01*
X-106000Y-56147D02*
X-88500D01*
X-97250Y-64897D02*
Y-47397D01*
X-8750Y-112250D02*
X8750D01*
X0Y-121000D02*
Y-103500D01*
X88678Y-56250D02*
X106178D01*
X97428Y-65000D02*
Y-47500D01*
X89000Y56000D02*
X106500D01*
X97750Y47250D02*
Y64750D01*
X-162831Y89412D02*
X-145331D01*
X-154081Y80662D02*
Y98162D01*
X-8500Y178000D02*
X9000D01*
X250Y169250D02*
Y186750D01*
X145250Y89250D02*
X162750D01*
X154000Y80500D02*
Y98000D01*
X145500Y-88750D02*
X163000D01*
X154250Y-97500D02*
Y-80000D01*
X-8750Y-178000D02*
X8750D01*
X0Y-186750D02*
Y-169250D01*
X-163000Y-89250D02*
X-145500D01*
X-154250Y-98000D02*
Y-80500D01*
X-196750Y108500D02*
X-179250D01*
X-188000Y99750D02*
Y117250D01*
X-8750Y218500D02*
X8750D01*
X0Y209750D02*
Y227250D01*
X178500Y108750D02*
X196000D01*
X187250Y100000D02*
Y117500D01*
X180000Y-109250D02*
X197500D01*
X188750Y-118000D02*
Y-100500D01*
X-8500Y-218250D02*
X9000D01*
X250Y-227000D02*
Y-209500D01*
X-198250Y-110000D02*
X-180750D01*
X-189500Y-118750D02*
Y-101250D01*
X312500Y130000D02*
X317500D01*
X315000Y127500D02*
Y132500D01*
X7500Y270000D02*
X12500D01*
X10000Y267500D02*
Y272500D01*
X137000Y250000D02*
X142000D01*
X139500Y247500D02*
Y252500D01*
X268000Y-98250D02*
X273000D01*
X270500Y-100750D02*
Y-95750D01*
X253750Y-38750D02*
X258750D01*
X256250Y-41250D02*
Y-36250D01*
X-307000Y-8500D02*
X-297000D01*
X-302000Y-13500D02*
Y-3500D01*
X-350000Y47500D02*
X-340000D01*
X-345000Y42500D02*
Y52500D01*
X-183350Y85401D02*
X-178350D01*
X-180850Y82901D02*
Y87901D01*
X-280500Y-151500D02*
X-275500D01*
X-278000Y-154000D02*
Y-149000D01*
X-302500Y-151750D02*
X-297500D01*
X-300000Y-154250D02*
Y-149250D01*
X208000Y112000D02*
X213000D01*
X210500Y109500D02*
Y114500D01*
X-98500Y-310000D02*
X-93500D01*
X-96000Y-312500D02*
Y-307500D01*
X67250Y-100000D02*
X72250D01*
X69750Y-102500D02*
Y-97500D01*
X72000Y121500D02*
X77000D01*
X74500Y119000D02*
Y124000D01*
X110500Y2250D02*
X115500D01*
X113000Y-250D02*
Y4750D01*
X312500Y165000D02*
X317500D01*
X315000Y162500D02*
Y167500D01*
X312500Y200000D02*
X317500D01*
X315000Y197500D02*
Y202500D01*
X239750Y71250D02*
X244750D01*
X242250Y68750D02*
Y73750D01*
X327500Y-208750D02*
X332500D01*
X330000Y-211250D02*
Y-206250D01*
X368750Y-190250D02*
X373750D01*
X371250Y-192750D02*
Y-187750D01*
X201000Y-18750D02*
X206000D01*
X203500Y-21250D02*
Y-16250D01*
X203250Y27000D02*
X208250D01*
X205750Y24500D02*
Y29500D01*
X234000Y-1750D02*
X239000D01*
X236500Y-4250D02*
Y750D01*
X261500Y-7500D02*
X266500D01*
X264000Y-10000D02*
Y-5000D01*
X157000Y-148500D02*
X162000D01*
X159500Y-151000D02*
Y-146000D01*
X354750Y-60750D02*
X359750D01*
X357250Y-63250D02*
Y-58250D01*
X213500Y-64500D02*
X218500D01*
X216000Y-67000D02*
Y-62000D01*
X194000Y-138000D02*
X199000D01*
X196500Y-140500D02*
Y-135500D01*
X220000Y-129500D02*
X225000D01*
X222500Y-132000D02*
Y-127000D01*
X295500Y-153000D02*
X300500D01*
X298000Y-155500D02*
Y-150500D01*
X273000Y-216500D02*
X278000D01*
X275500Y-219000D02*
Y-214000D01*
X297250Y-239250D02*
X302250D01*
X299750Y-241750D02*
Y-236750D01*
X238250Y-263250D02*
X243250D01*
X240750Y-265750D02*
Y-260750D01*
X247500Y-295500D02*
X252500D01*
X250000Y-298000D02*
Y-293000D01*
X213500Y-297000D02*
X218500D01*
X216000Y-299500D02*
Y-294500D01*
X117000Y-210000D02*
X122000D01*
X119500Y-212500D02*
Y-207500D01*
X-98750Y-269250D02*
X-93750D01*
X-96250Y-271750D02*
Y-266750D01*
X14500Y-268500D02*
X19500D01*
X17000Y-271000D02*
Y-266000D01*
X80750Y-155500D02*
X85750D01*
X83250Y-158000D02*
Y-153000D01*
X94750Y-116750D02*
X99750D01*
X97250Y-119250D02*
Y-114250D01*
X-94000Y-233250D02*
X-89000D01*
X-91500Y-235750D02*
Y-230750D01*
X40750Y-233500D02*
X45750D01*
X43250Y-236000D02*
Y-231000D01*
X-170500Y-293000D02*
X-165500D01*
X-168000Y-295500D02*
Y-290500D01*
X-305750Y-267500D02*
X-300750D01*
X-303250Y-270000D02*
Y-265000D01*
X-262750Y-248750D02*
X-257750D01*
X-260250Y-251250D02*
Y-246250D01*
X-154000Y-216750D02*
X-149000D01*
X-151500Y-219250D02*
Y-214250D01*
X-22750Y-313500D02*
X-17750D01*
X-20250Y-316000D02*
Y-311000D01*
X-219750Y-105250D02*
X-214750D01*
X-217250Y-107750D02*
Y-102750D01*
X-231000Y-192000D02*
X-226000D01*
X-228500Y-194500D02*
Y-189500D01*
X-260000Y-181000D02*
X-255000D01*
X-257500Y-183500D02*
Y-178500D01*
X-130500Y-133250D02*
X-125500D01*
X-128000Y-135750D02*
Y-130750D01*
X-381750Y-111250D02*
X-376750D01*
X-379250Y-113750D02*
Y-108750D01*
X-353250Y-76000D02*
X-348250D01*
X-350750Y-78500D02*
Y-73500D01*
X-324750Y-115250D02*
X-319750D01*
X-322250Y-117750D02*
Y-112750D01*
X-365750Y113250D02*
X-360750D01*
X-363250Y110750D02*
Y115750D01*
X-225250Y-28750D02*
X-220250D01*
X-222750Y-31250D02*
Y-26250D01*
X-157500Y40000D02*
X-152500D01*
X-155000Y37500D02*
Y42500D01*
X-203250Y135500D02*
X-198250D01*
X-200750Y133000D02*
Y138000D01*
X-383750Y-170000D02*
X-378750D01*
X-381250Y-172500D02*
Y-167500D01*
X-138750Y-30750D02*
X-133750D01*
X-136250Y-33250D02*
Y-28250D01*
X-351750Y-52000D02*
X-346750D01*
X-349250Y-54500D02*
Y-49500D01*
X-57250Y100250D02*
X-52250D01*
X-54750Y97750D02*
Y102750D01*
X-107750Y115250D02*
X-102750D01*
X-105250Y112750D02*
Y117750D01*
X212500Y280000D02*
X217500D01*
X215000Y277500D02*
Y282500D01*
X67500Y285000D02*
X72500D01*
X70000Y282500D02*
Y287500D01*
X247500Y280000D02*
X252500D01*
X250000Y277500D02*
Y282500D01*
X-102500Y290000D02*
X-97500D01*
X-100000Y287500D02*
Y292500D01*
X95500Y236000D02*
X100500D01*
X98000Y233500D02*
Y238500D01*
X-51250Y201250D02*
X-46250D01*
X-48750Y198750D02*
Y203750D01*
X-91250Y202500D02*
X-86250D01*
X-88750Y200000D02*
Y205000D01*
X-142500Y184750D02*
X-137500D01*
X-140000Y182250D02*
Y187250D01*
X-238500Y282000D02*
X-233500D01*
X-236000Y279500D02*
Y284500D01*
X-235000Y237000D02*
X-230000D01*
X-232500Y234500D02*
Y239500D01*
X-302000Y198750D02*
X-297000D01*
X-299500Y196250D02*
Y201250D01*
X-337500Y165000D02*
X-332500D01*
X-335000Y162500D02*
Y167500D01*
X224944Y-221500D02*
X232056D01*
X228500Y-225056D02*
Y-217944D01*
X144694Y-184750D02*
X151806D01*
X148250Y-188306D02*
Y-181194D01*
X321000Y67000D02*
X326000D01*
X323500Y64500D02*
Y69500D01*
X354250Y-30250D02*
X359250D01*
X356750Y-32750D02*
Y-27750D01*
X-108954Y169315D02*
X-103954D01*
X-106454Y166815D02*
Y171815D01*
X14444Y-198000D02*
X21556D01*
X18000Y-201556D02*
Y-194444D01*
X-21556Y197000D02*
X-14444D01*
X-18000Y193444D02*
Y200556D01*
X141444Y144000D02*
X148556D01*
X145000Y140444D02*
Y147556D01*
X28444Y85000D02*
X35556D01*
X32000Y81444D02*
Y88556D01*
X-166062Y-115098D02*
X-161062D01*
X-163562Y-117598D02*
Y-112598D01*
X-90500Y-109000D02*
X-85500D01*
X-88000Y-111500D02*
Y-106500D01*
X-118000Y-150500D02*
X-113000D01*
X-115500Y-153000D02*
Y-148000D01*
X14444Y135500D02*
X21556D01*
X18000Y131944D02*
Y139056D01*
X-21556Y-135250D02*
X-14444D01*
X-18000Y-138806D02*
Y-131694D01*
X-132500Y-198000D02*
X-127500D01*
X-130000Y-200500D02*
Y-195500D01*
X206500Y139000D02*
X211500D01*
X209000Y136500D02*
Y141500D01*
X149444Y-26000D02*
X156556D01*
X153000Y-29556D02*
Y-22444D01*
X295500Y18000D02*
X300500D01*
X298000Y15500D02*
Y20500D01*
X280500Y62000D02*
X285500D01*
X283000Y59500D02*
Y64500D01*
X262500Y-116000D02*
X267500D01*
X265000Y-118500D02*
Y-113500D01*
X-273500Y126000D02*
X-268500D01*
X-271000Y123500D02*
Y128500D01*
X-314500Y-41000D02*
X-309500D01*
X-312000Y-43500D02*
Y-38500D01*
X-319500Y-227250D02*
X-314500D01*
X-317000Y-229750D02*
Y-224750D01*
X-188250Y-246000D02*
X-183250D01*
X-185750Y-248500D02*
Y-243500D01*
X298500Y69750D02*
X303500D01*
X301000Y67250D02*
Y72250D01*
X-239000Y201500D02*
X-229000D01*
X-234000Y196500D02*
Y206500D01*
M02*
