G04 Layer_Physical_Order=1*
G04 Layer_Color=255*
%FSLAX44Y44*%
%MOMM*%
G71*
G01*
G75*
%ADD10C,0.8000*%
%ADD11P,2.6163X4X90.0*%
%ADD12R,1.8500X1.8500*%
%ADD13O,4.0000X6.0000*%
%ADD14R,2.0000X4.0000*%
%ADD15R,2.0000X1.2000*%
%ADD16P,2.6163X4X375.0*%
%ADD17P,2.6163X4X75.0*%
%ADD18P,2.6163X4X180.0*%
%ADD19R,1.8500X1.8500*%
%ADD20O,1.7000X0.6000*%
%ADD21R,4.0000X2.0000*%
%ADD22R,1.2000X2.0000*%
%ADD23C,1.0160*%
G04:AMPARAMS|DCode=24|XSize=2.5mm|YSize=2.5mm|CornerRadius=0.625mm|HoleSize=0mm|Usage=FLASHONLY|Rotation=0.000|XOffset=0mm|YOffset=0mm|HoleType=Round|Shape=RoundedRectangle|*
%AMROUNDEDRECTD24*
21,1,2.5000,1.2500,0,0,0.0*
21,1,1.2500,2.5000,0,0,0.0*
1,1,1.2500,0.6250,-0.6250*
1,1,1.2500,-0.6250,-0.6250*
1,1,1.2500,-0.6250,0.6250*
1,1,1.2500,0.6250,0.6250*
%
%ADD24ROUNDEDRECTD24*%
G04:AMPARAMS|DCode=25|XSize=2.5mm|YSize=2.5mm|CornerRadius=0.625mm|HoleSize=0mm|Usage=FLASHONLY|Rotation=240.000|XOffset=0mm|YOffset=0mm|HoleType=Round|Shape=RoundedRectangle|*
%AMROUNDEDRECTD25*
21,1,2.5000,1.2500,0,0,240.0*
21,1,1.2500,2.5000,0,0,240.0*
1,1,1.2500,-0.8538,-0.2288*
1,1,1.2500,-0.2288,0.8538*
1,1,1.2500,0.8538,0.2288*
1,1,1.2500,0.2288,-0.8538*
%
%ADD25ROUNDEDRECTD25*%
G04:AMPARAMS|DCode=26|XSize=2.5mm|YSize=2.5mm|CornerRadius=0.625mm|HoleSize=0mm|Usage=FLASHONLY|Rotation=300.000|XOffset=0mm|YOffset=0mm|HoleType=Round|Shape=RoundedRectangle|*
%AMROUNDEDRECTD26*
21,1,2.5000,1.2500,0,0,300.0*
21,1,1.2500,2.5000,0,0,300.0*
1,1,1.2500,-0.2288,-0.8538*
1,1,1.2500,-0.8538,0.2288*
1,1,1.2500,0.2288,0.8538*
1,1,1.2500,0.8538,-0.2288*
%
%ADD26ROUNDEDRECTD26*%
G04:AMPARAMS|DCode=27|XSize=2.2mm|YSize=4.15mm|CornerRadius=0mm|HoleSize=0mm|Usage=FLASHONLY|Rotation=45.000|XOffset=0mm|YOffset=0mm|HoleType=Round|Shape=Rectangle|*
%AMROTATEDRECTD27*
4,1,4,0.6894,-2.2451,-2.2451,0.6894,-0.6894,2.2451,2.2451,-0.6894,0.6894,-2.2451,0.0*
%
%ADD27ROTATEDRECTD27*%

%ADD28R,1.9500X1.8500*%
G04:AMPARAMS|DCode=29|XSize=1.95mm|YSize=1.85mm|CornerRadius=0mm|HoleSize=0mm|Usage=FLASHONLY|Rotation=225.000|XOffset=0mm|YOffset=0mm|HoleType=Round|Shape=Rectangle|*
%AMROTATEDRECTD29*
4,1,4,0.0354,1.3435,1.3435,0.0354,-0.0354,-1.3435,-1.3435,-0.0354,0.0354,1.3435,0.0*
%
%ADD29ROTATEDRECTD29*%

%ADD30R,1.8500X1.9500*%
%ADD31R,2.5000X2.1500*%
G04:AMPARAMS|DCode=32|XSize=2.15mm|YSize=2.5mm|CornerRadius=0mm|HoleSize=0mm|Usage=FLASHONLY|Rotation=225.000|XOffset=0mm|YOffset=0mm|HoleType=Round|Shape=Rectangle|*
%AMROTATEDRECTD32*
4,1,4,-0.1237,1.6440,1.6440,-0.1237,0.1237,-1.6440,-1.6440,0.1237,-0.1237,1.6440,0.0*
%
%ADD32ROTATEDRECTD32*%

%ADD33C,2.0000*%
%ADD34C,0.7000*%
%ADD35C,0.5000*%
%ADD36C,0.7620*%
%ADD37C,1.2700*%
%ADD38C,0.6350*%
%ADD39C,0.2540*%
%ADD40C,1.8000*%
%ADD41C,3.0000*%
%ADD42C,1.6000*%
G36*
X387694Y557306D02*
X386364Y555989D01*
X382113Y552210D01*
X381743Y552015D01*
X381533Y552007D01*
X381483Y552186D01*
X381594Y552552D01*
X374324Y557015D01*
X374658Y556911D01*
X375089Y556951D01*
X375618Y557135D01*
X376244Y557461D01*
X376968Y557931D01*
X377789Y558545D01*
X379722Y560202D01*
X382045Y562433D01*
X387694Y557306D01*
D02*
G37*
G36*
X400813Y552380D02*
X400737Y553104D01*
X400508Y553752D01*
X400125Y554323D01*
X399589Y554818D01*
X398901Y555238D01*
X398059Y555580D01*
X397065Y555847D01*
X395917Y556038D01*
X394617Y556152D01*
X393163Y556190D01*
Y563810D01*
X394617Y563848D01*
X395917Y563962D01*
X397065Y564153D01*
X398059Y564420D01*
X398901Y564762D01*
X399589Y565182D01*
X400125Y565677D01*
X400508Y566248D01*
X400737Y566896D01*
X400813Y567620D01*
Y552380D01*
D02*
G37*
G36*
X320004Y583650D02*
X319782Y583560D01*
X319395Y583292D01*
X318843Y582845D01*
X317458Y581580D01*
X320597Y579283D01*
X319896Y579657D01*
X319099Y579822D01*
X318207Y579778D01*
X317219Y579525D01*
X316135Y579064D01*
X314956Y578394D01*
X313681Y577515D01*
X312311Y576428D01*
X310845Y575131D01*
X309283Y573626D01*
X301876Y577533D01*
X303539Y579252D01*
X306133Y582299D01*
X307064Y583626D01*
X307752Y584823D01*
X308195Y585889D01*
X308396Y586824D01*
X308352Y587629D01*
X308064Y588303D01*
X307533Y588847D01*
X310536Y586648D01*
X313650Y590004D01*
X320004Y583650D01*
D02*
G37*
G36*
X408457Y593545D02*
X408358Y593048D01*
X408389Y592491D01*
X408551Y591874D01*
X408842Y591197D01*
X409264Y590460D01*
X409816Y589663D01*
X410498Y588806D01*
X411310Y587888D01*
X412253Y586911D01*
X409845Y582248D01*
X408766Y583291D01*
X406856Y584920D01*
X406026Y585506D01*
X405277Y585939D01*
X404611Y586219D01*
X404028Y586347D01*
X403527Y586321D01*
X403109Y586144D01*
X402774Y585813D01*
X408686Y593982D01*
X408457Y593545D01*
D02*
G37*
G36*
X377311Y551932D02*
X381118D01*
X380394Y551321D01*
X379747Y550657D01*
X379176Y549940D01*
X378681Y549170D01*
X378262Y548347D01*
X378009Y547700D01*
X378262Y547053D01*
X378681Y546230D01*
X379176Y545460D01*
X379747Y544743D01*
X380394Y544079D01*
X381118Y543468D01*
X377311D01*
X377310Y543435D01*
X369690D01*
X369689Y543468D01*
X365882D01*
X366606Y544079D01*
X367253Y544743D01*
X367824Y545460D01*
X368319Y546230D01*
X368738Y547053D01*
X368991Y547700D01*
X368738Y548347D01*
X368319Y549170D01*
X367824Y549940D01*
X367253Y550657D01*
X366606Y551321D01*
X365882Y551932D01*
X369689D01*
X369690Y551965D01*
X377310D01*
X377311Y551932D01*
D02*
G37*
G36*
X416896Y519707D02*
X416248Y519478D01*
X415677Y519097D01*
X415182Y518564D01*
X414762Y517878D01*
X414420Y517040D01*
X414153Y516049D01*
X413962Y514906D01*
X413848Y513611D01*
X413810Y512163D01*
X406190D01*
X406152Y513611D01*
X406038Y514906D01*
X405847Y516049D01*
X405580Y517040D01*
X405238Y517878D01*
X404818Y518564D01*
X404323Y519097D01*
X403752Y519478D01*
X403104Y519707D01*
X402380Y519783D01*
X417620D01*
X416896Y519707D01*
D02*
G37*
G36*
X398160Y536597D02*
Y519750D01*
X398357Y518759D01*
X398919Y517919D01*
X399759Y517357D01*
X400750Y517160D01*
X402538D01*
X402584Y517144D01*
X402633Y517112D01*
X402744Y516992D01*
X402919Y516705D01*
X403122Y516209D01*
X403313Y515499D01*
X403467Y514579D01*
X403526Y513911D01*
Y512682D01*
X400833Y509989D01*
X400026Y509343D01*
X399007Y508651D01*
X397957Y508055D01*
X396872Y507552D01*
X395750Y507140D01*
X394585Y506819D01*
X393374Y506588D01*
X392348Y506474D01*
X367682D01*
X361558Y512598D01*
X361631Y513398D01*
X362013Y513528D01*
X362923Y513577D01*
X364006Y511956D01*
X365838Y510731D01*
X368000Y510302D01*
X379000D01*
X381162Y510731D01*
X381281Y510811D01*
X383450D01*
X385416Y511202D01*
X387084Y512316D01*
X393634Y518866D01*
X394748Y520533D01*
X395139Y522500D01*
Y535372D01*
X396890Y537123D01*
X398160Y536597D01*
D02*
G37*
G36*
X395591Y553466D02*
X396516Y553313D01*
X397232Y553121D01*
X397732Y552917D01*
X398021Y552741D01*
X398143Y552629D01*
X398160Y552603D01*
Y550750D01*
X397659Y550139D01*
X397500D01*
X395533Y549748D01*
X393866Y548634D01*
X386366Y541134D01*
X385703Y540141D01*
X384506Y540636D01*
X384649Y541350D01*
X384218Y543512D01*
X382994Y545344D01*
X382591Y545613D01*
X382161Y545976D01*
X381692Y546458D01*
X381452Y546758D01*
X381491Y547435D01*
X381616Y548128D01*
X383628Y549472D01*
X387682Y553526D01*
X394919D01*
X395591Y553466D01*
D02*
G37*
G36*
X309502Y526056D02*
X309429Y526074D01*
X309258Y526090D01*
X308161Y526127D01*
X304380Y526150D01*
Y531150D01*
X309502Y531244D01*
Y526056D01*
D02*
G37*
G36*
X1039525Y595233D02*
X1039100Y595083D01*
X1038725Y594833D01*
X1038400Y594483D01*
X1038125Y594033D01*
X1037900Y593483D01*
X1037725Y592833D01*
X1037600Y592083D01*
X1037525Y591233D01*
X1037500Y590283D01*
X1032500D01*
X1032475Y591233D01*
X1032400Y592083D01*
X1032275Y592833D01*
X1032100Y593483D01*
X1031875Y594033D01*
X1031600Y594483D01*
X1031275Y594833D01*
X1030900Y595083D01*
X1030475Y595233D01*
X1030000Y595283D01*
X1040000D01*
X1039525Y595233D01*
D02*
G37*
G36*
X390313Y617000D02*
X390233Y617760D01*
X389992Y618440D01*
X389591Y619040D01*
X389029Y619560D01*
X388306Y620000D01*
X387422Y620360D01*
X386379Y620640D01*
X385174Y620840D01*
X383809Y620960D01*
X382283Y621000D01*
Y629000D01*
X383809Y629040D01*
X385174Y629160D01*
X386379Y629360D01*
X387422Y629640D01*
X388306Y630000D01*
X389029Y630440D01*
X389591Y630960D01*
X389992Y631560D01*
X390233Y632240D01*
X390313Y633000D01*
Y617000D01*
D02*
G37*
G36*
X428354Y615783D02*
X427965Y616066D01*
X427505Y616207D01*
X426975D01*
X426374Y616066D01*
X425702Y615783D01*
X424960Y615359D01*
X424147Y614793D01*
X423263Y614086D01*
X421283Y612248D01*
X417747Y615783D01*
X418737Y616808D01*
X420293Y618647D01*
X420859Y619460D01*
X421283Y620202D01*
X421566Y620874D01*
X421707Y621475D01*
Y622006D01*
X421566Y622465D01*
X421283Y622854D01*
X428354Y615783D01*
D02*
G37*
G36*
X403540Y640691D02*
X403660Y639326D01*
X403860Y638121D01*
X404140Y637077D01*
X404500Y636194D01*
X404940Y635471D01*
X405460Y634909D01*
X406060Y634508D01*
X406740Y634267D01*
X407500Y634187D01*
X391500D01*
X392260Y634267D01*
X392940Y634508D01*
X393540Y634909D01*
X394060Y635471D01*
X394500Y636194D01*
X394860Y637077D01*
X395140Y638121D01*
X395340Y639326D01*
X395460Y640691D01*
X395500Y642217D01*
X403500D01*
X403540Y640691D01*
D02*
G37*
G36*
X371056Y630296D02*
X371456Y630024D01*
X371913Y629784D01*
X372428Y629576D01*
X373001Y629400D01*
X373631Y629256D01*
X374319Y629144D01*
X375065Y629064D01*
X376728Y629000D01*
Y621000D01*
X375868Y620984D01*
X374319Y620856D01*
X373631Y620744D01*
X373001Y620600D01*
X372428Y620424D01*
X371913Y620216D01*
X371456Y619976D01*
X371056Y619704D01*
X370713Y619400D01*
Y630600D01*
X371056Y630296D01*
D02*
G37*
G36*
X320296Y618944D02*
X320024Y618544D01*
X319784Y618087D01*
X319576Y617572D01*
X319400Y616999D01*
X319256Y616369D01*
X319144Y615681D01*
X319064Y614935D01*
X319000Y613272D01*
X311000D01*
X310984Y614132D01*
X310856Y615681D01*
X310744Y616369D01*
X310600Y616999D01*
X310424Y617572D01*
X310216Y618087D01*
X309976Y618544D01*
X309704Y618944D01*
X309400Y619287D01*
X320600D01*
X320296Y618944D01*
D02*
G37*
G36*
X1009988Y604520D02*
X1010138Y604095D01*
X1010390Y603720D01*
X1010742Y603395D01*
X1011195Y603120D01*
X1011748Y602895D01*
X1012402Y602720D01*
X1013157Y602595D01*
X1014012Y602520D01*
X1014968Y602495D01*
Y597495D01*
X1014012Y597470D01*
X1013157Y597395D01*
X1012402Y597270D01*
X1011748Y597095D01*
X1011195Y596870D01*
X1010742Y596595D01*
X1010390Y596270D01*
X1010138Y595895D01*
X1009988Y595470D01*
X1009937Y594995D01*
Y604995D01*
X1009988Y604520D01*
D02*
G37*
G36*
X324010Y602310D02*
X324472Y595371D01*
X324617Y594748D01*
X324781Y594278D01*
X324964Y593960D01*
X315036D01*
X315219Y594278D01*
X315383Y594748D01*
X315528Y595371D01*
X315653Y596146D01*
X315846Y598154D01*
X315990Y602310D01*
X316000Y604000D01*
X324000D01*
X324010Y602310D01*
D02*
G37*
G36*
X412253Y603217D02*
X411304Y602234D01*
X409802Y600451D01*
X409249Y599652D01*
X408826Y598914D01*
X408535Y598238D01*
X408376Y597623D01*
X408348Y597069D01*
X408451Y596577D01*
X408686Y596146D01*
X402646Y604187D01*
X402987Y603862D01*
X403410Y603689D01*
X403914Y603667D01*
X404499Y603796D01*
X405165Y604077D01*
X405913Y604510D01*
X406742Y605093D01*
X407653Y605828D01*
X409717Y607752D01*
X412253Y603217D01*
D02*
G37*
G36*
X1025783Y595283D02*
X1025733Y595703D01*
X1025583Y596079D01*
X1025333Y596411D01*
X1024983Y596699D01*
X1024533Y596942D01*
X1023983Y597141D01*
X1023333Y597296D01*
X1022583Y597407D01*
X1021733Y597473D01*
X1020783Y597495D01*
Y602495D01*
X1021737Y602520D01*
X1022591Y602595D01*
X1023345Y602720D01*
X1023999Y602895D01*
X1024552Y603120D01*
X1025005Y603395D01*
X1025357Y603720D01*
X1025610Y604095D01*
X1025762Y604520D01*
X1025814Y604995D01*
X1025783Y595283D01*
D02*
G37*
G36*
X363563Y377906D02*
X362514Y376800D01*
X361634Y375751D01*
X360924Y374758D01*
X360384Y373822D01*
X360014Y372943D01*
X359814Y372121D01*
X359784Y371356D01*
X359924Y370647D01*
X360234Y369995D01*
X360713Y369400D01*
X349620Y380536D01*
X350177Y380093D01*
X350793Y379815D01*
X351470Y379704D01*
X352208Y379758D01*
X353007Y379978D01*
X353865Y380364D01*
X354785Y380915D01*
X355765Y381632D01*
X356805Y382515D01*
X357906Y383563D01*
X363563Y377906D01*
D02*
G37*
G36*
X961015Y382055D02*
X961099Y381219D01*
X961246Y380410D01*
X961454Y379627D01*
X961725Y378870D01*
X962058Y378139D01*
X962453Y377435D01*
X962890Y376786D01*
X963536Y376327D01*
X964208Y375944D01*
X964834Y375690D01*
X965414Y375564D01*
X965948Y375568D01*
X966437Y375700D01*
X966879Y375961D01*
X967275Y376350D01*
X966881Y364161D01*
X959561Y371029D01*
X959521Y370989D01*
X958895Y371570D01*
X958243Y372090D01*
X957565Y372547D01*
X956861Y372942D01*
X956130Y373275D01*
X955373Y373545D01*
X954590Y373754D01*
X953781Y373901D01*
X952945Y373985D01*
X952083Y374007D01*
X960993Y382917D01*
X961015Y382055D01*
D02*
G37*
G36*
X945090Y394444D02*
X945742Y393925D01*
X946421Y393467D01*
X947125Y393072D01*
X947856Y392739D01*
X948613Y392469D01*
X949396Y392260D01*
X950205Y392113D01*
X951041Y392029D01*
X951903Y392007D01*
X942993Y383097D01*
X942971Y383959D01*
X942887Y384795D01*
X942740Y385604D01*
X942531Y386387D01*
X942261Y387144D01*
X941928Y387875D01*
X941533Y388579D01*
X941075Y389258D01*
X940556Y389910D01*
X939975Y390535D01*
X944465Y395025D01*
X945090Y394444D01*
D02*
G37*
G36*
X839275Y388642D02*
X839258Y388263D01*
X839315Y387858D01*
X839446Y387426D01*
X839649Y386967D01*
X839926Y386481D01*
X840276Y385968D01*
X840700Y385428D01*
X841197Y384861D01*
X841768Y384268D01*
X838232Y380732D01*
X837639Y381303D01*
X836532Y382224D01*
X836019Y382574D01*
X835533Y382851D01*
X835074Y383054D01*
X834642Y383185D01*
X834237Y383242D01*
X833858Y383225D01*
X833507Y383135D01*
X839365Y388993D01*
X839275Y388642D01*
D02*
G37*
G36*
X846421Y376188D02*
X826409Y356176D01*
X826227Y356185D01*
X825139Y356582D01*
Y358125D01*
X844375Y377361D01*
X845935D01*
X846421Y376188D01*
D02*
G37*
G36*
X643158Y303860D02*
X643406Y303784D01*
X643743Y303717D01*
X644168Y303660D01*
X645283Y303571D01*
X648576Y303500D01*
X647379Y298500D01*
X642275Y298457D01*
X642998Y303944D01*
X643158Y303860D01*
D02*
G37*
G36*
X572725Y298457D02*
X572496Y298532D01*
X572187Y298598D01*
X571800Y298657D01*
X570789Y298752D01*
X568680Y298834D01*
X566880Y298850D01*
Y303850D01*
X567820Y303854D01*
X572187Y304102D01*
X572496Y304168D01*
X572725Y304243D01*
Y298457D01*
D02*
G37*
G36*
X539314Y312717D02*
X539275Y312961D01*
X539161Y313179D01*
X538970Y313371D01*
X538703Y313538D01*
X538360Y313679D01*
X537941Y313795D01*
X537445Y313885D01*
X536873Y313949D01*
X536225Y313987D01*
X535500Y314000D01*
Y319000D01*
X536225Y319013D01*
X537445Y319116D01*
X537941Y319205D01*
X538360Y319321D01*
X538703Y319462D01*
X538970Y319629D01*
X539161Y319821D01*
X539275Y320039D01*
X539314Y320283D01*
Y312717D01*
D02*
G37*
G36*
X558412Y313488D02*
X558253Y313046D01*
X558240Y312528D01*
X558374Y311934D01*
X558655Y311265D01*
X559081Y310520D01*
X559655Y309699D01*
X560374Y308803D01*
X562253Y306783D01*
X558217Y303748D01*
X557214Y304715D01*
X555406Y306241D01*
X554600Y306799D01*
X553860Y307220D01*
X553186Y307506D01*
X552577Y307655D01*
X552034Y307667D01*
X551557Y307543D01*
X551146Y307283D01*
X558717Y313854D01*
X558412Y313488D01*
D02*
G37*
G36*
X396674Y405360D02*
X396079Y405840D01*
X395428Y406151D01*
X394720Y406291D01*
X393955Y406261D01*
X393133Y406062D01*
X392253Y405691D01*
X391317Y405151D01*
X390324Y404441D01*
X389274Y403560D01*
X388167Y402510D01*
X382510Y408167D01*
X383560Y409274D01*
X384441Y410324D01*
X385151Y411317D01*
X385691Y412253D01*
X386062Y413133D01*
X386261Y413955D01*
X386291Y414720D01*
X386151Y415428D01*
X385840Y416079D01*
X385360Y416674D01*
X396674Y405360D01*
D02*
G37*
G36*
X962563Y509500D02*
X962512Y509975D01*
X962359Y510400D01*
X962107Y510775D01*
X961755Y511100D01*
X961302Y511375D01*
X960748Y511600D01*
X960095Y511775D01*
X959341Y511900D01*
X958487Y511975D01*
X957533Y512000D01*
Y517000D01*
X958483Y517015D01*
X960083Y517132D01*
X960733Y517235D01*
X961283Y517367D01*
X961733Y517528D01*
X962083Y517719D01*
X962333Y517939D01*
X962483Y518188D01*
X962533Y518467D01*
X962563Y509500D01*
D02*
G37*
G36*
X409198Y503810D02*
X408174Y502710D01*
X407258Y501565D01*
X406450Y500376D01*
X405750Y499142D01*
X405157Y497864D01*
X404672Y496541D01*
X404295Y495173D01*
X404025Y493761D01*
X403864Y492304D01*
X403810Y490802D01*
X396190Y488570D01*
X396114Y490018D01*
X395885Y491313D01*
X395504Y492456D01*
X394971Y493447D01*
X394285Y494285D01*
X393447Y494971D01*
X392456Y495504D01*
X391313Y495885D01*
X390018Y496114D01*
X388570Y496190D01*
X390802Y503810D01*
X392304Y503864D01*
X393761Y504025D01*
X395173Y504295D01*
X396541Y504672D01*
X397864Y505157D01*
X399142Y505750D01*
X400376Y506450D01*
X401565Y507258D01*
X402710Y508174D01*
X403810Y509198D01*
X409198Y503810D01*
D02*
G37*
G36*
X995783Y510283D02*
X995733Y510609D01*
X995583Y510901D01*
X995333Y511159D01*
X994983Y511382D01*
X994533Y511571D01*
X993983Y511725D01*
X993333Y511846D01*
X992583Y511931D01*
X991733Y511983D01*
X990783Y512000D01*
Y517000D01*
X991737Y517025D01*
X992591Y517100D01*
X993345Y517225D01*
X993998Y517400D01*
X994552Y517625D01*
X995005Y517900D01*
X995357Y518225D01*
X995610Y518600D01*
X995762Y519025D01*
X995814Y519500D01*
X995783Y510283D01*
D02*
G37*
G36*
X982517Y518188D02*
X982667Y517939D01*
X982917Y517719D01*
X983267Y517528D01*
X983717Y517367D01*
X984267Y517235D01*
X984917Y517132D01*
X985667Y517059D01*
X987467Y517000D01*
Y512000D01*
X986513Y511975D01*
X985659Y511900D01*
X984905Y511775D01*
X984252Y511600D01*
X983698Y511375D01*
X983245Y511100D01*
X982893Y510775D01*
X982641Y510400D01*
X982488Y509975D01*
X982437Y509500D01*
X982467Y518467D01*
X982517Y518188D01*
D02*
G37*
G36*
X1085881Y718294D02*
Y371706D01*
X968294Y254119D01*
X517046D01*
X516560Y255292D01*
X533634Y272366D01*
X534748Y274034D01*
X535139Y276000D01*
Y307989D01*
X535390Y308157D01*
X536660Y307479D01*
Y307250D01*
X536857Y306259D01*
X537419Y305419D01*
X538259Y304857D01*
X539250Y304660D01*
X553122D01*
X553219Y304605D01*
X553830Y304182D01*
X555244Y302989D01*
X558623Y299610D01*
X558097Y298340D01*
X551000D01*
Y288500D01*
X561340D01*
Y295639D01*
X561602Y295938D01*
X562477Y296544D01*
X564150Y296211D01*
X569479D01*
X570618Y296167D01*
X571485Y296086D01*
X571717Y296050D01*
X571818Y296028D01*
X571923Y295994D01*
X572183Y295963D01*
X573500Y295702D01*
X584500D01*
X586662Y296131D01*
X588494Y297356D01*
X589719Y299188D01*
X590149Y301350D01*
X589719Y303512D01*
X588494Y305344D01*
X586662Y306569D01*
X584500Y306999D01*
X573500D01*
X572182Y306736D01*
X571923Y306705D01*
X571830Y306675D01*
X568541Y306489D01*
X566278D01*
X563197Y309570D01*
X562335Y310497D01*
X561728Y311253D01*
X561340Y311809D01*
Y325750D01*
X561143Y326741D01*
X560581Y327581D01*
X559741Y328143D01*
X558750Y328340D01*
X539250D01*
X538259Y328143D01*
X537419Y327581D01*
X536857Y326741D01*
X536660Y325750D01*
Y321648D01*
X536546Y321639D01*
X535500D01*
X533534Y321248D01*
X531866Y320134D01*
X526366Y314634D01*
X525252Y312966D01*
X524861Y311000D01*
Y278129D01*
X508411Y261679D01*
X460641D01*
X460389Y262949D01*
X461343Y263344D01*
X462935Y264565D01*
X464156Y266157D01*
X464924Y268011D01*
X465186Y270000D01*
X464924Y271989D01*
X464156Y273843D01*
X462935Y275435D01*
X461343Y276656D01*
X459489Y277424D01*
X457500Y277686D01*
X455511Y277424D01*
X453657Y276656D01*
X452065Y275435D01*
X450844Y273843D01*
X450076Y271989D01*
X449814Y270000D01*
X450076Y268011D01*
X450844Y266157D01*
X452065Y264565D01*
X453657Y263344D01*
X454611Y262949D01*
X454359Y261679D01*
X411589D01*
X291679Y381589D01*
Y619412D01*
X314128Y641861D01*
X366000D01*
X367966Y642252D01*
X369634Y643366D01*
X389628Y663361D01*
X392904D01*
Y641997D01*
X392873Y640838D01*
X392769Y639652D01*
X392606Y638670D01*
X392401Y637905D01*
X392180Y637364D01*
X391983Y637040D01*
X391846Y636892D01*
X391769Y636841D01*
X391767Y636840D01*
X390250D01*
X389259Y636643D01*
X388419Y636081D01*
X387857Y635241D01*
X387660Y634250D01*
Y632733D01*
X387659Y632731D01*
X387608Y632654D01*
X387460Y632517D01*
X387136Y632320D01*
X386595Y632099D01*
X385830Y631894D01*
X384848Y631731D01*
X383661Y631627D01*
X382503Y631596D01*
X376605D01*
X375253Y631648D01*
X374666Y631712D01*
X374128Y631799D01*
X373671Y631903D01*
X373295Y632019D01*
X373002Y632137D01*
X372789Y632249D01*
X372651Y632343D01*
X372517Y632517D01*
X370316Y634207D01*
X367752Y635269D01*
X365000Y635631D01*
X362248Y635269D01*
X359684Y634207D01*
X357483Y632517D01*
X355793Y630316D01*
X354731Y627752D01*
X354369Y625000D01*
X354731Y622248D01*
X355793Y619684D01*
X357483Y617483D01*
X359684Y615793D01*
X362248Y614731D01*
X365000Y614369D01*
X367752Y614731D01*
X370316Y615793D01*
X372517Y617483D01*
X372651Y617657D01*
X372789Y617751D01*
X373002Y617863D01*
X373295Y617981D01*
X373671Y618097D01*
X374128Y618201D01*
X374635Y618284D01*
X375998Y618396D01*
X376393Y618404D01*
X382503D01*
X383661Y618373D01*
X384848Y618269D01*
X385830Y618106D01*
X386595Y617901D01*
X387136Y617680D01*
X387460Y617483D01*
X387608Y617346D01*
X387659Y617269D01*
X387660Y617267D01*
Y615750D01*
X387857Y614759D01*
X388419Y613919D01*
X389259Y613357D01*
X390250Y613160D01*
X408750D01*
X409741Y613357D01*
X409901Y613464D01*
X410710Y612478D01*
X406898Y608666D01*
X405954Y607785D01*
X405182Y607162D01*
X404724Y606840D01*
X390250D01*
X389259Y606643D01*
X388419Y606081D01*
X387857Y605241D01*
X387660Y604250D01*
Y585750D01*
X387857Y584759D01*
X388419Y583919D01*
X389259Y583357D01*
X390250Y583160D01*
X404858D01*
X405267Y582872D01*
X406774Y581586D01*
X415347Y573013D01*
X414861Y571840D01*
X400750D01*
X399759Y571643D01*
X398919Y571081D01*
X398357Y570241D01*
X398160Y569250D01*
Y567397D01*
X398143Y567371D01*
X398021Y567259D01*
X397732Y567083D01*
X397232Y566879D01*
X396516Y566687D01*
X395591Y566534D01*
X394919Y566474D01*
X385000D01*
X382522Y565982D01*
X380422Y564578D01*
X377867Y562023D01*
X376169Y560568D01*
X376111Y560524D01*
X310350D01*
X308422Y560141D01*
X308385Y560144D01*
X307311Y560885D01*
X307176Y561089D01*
Y567848D01*
X311358Y572029D01*
X312602Y573228D01*
X313975Y574442D01*
X315223Y575433D01*
X316334Y576198D01*
X317147Y576660D01*
X332500D01*
X333491Y576857D01*
X334331Y577419D01*
X334893Y578259D01*
X335090Y579250D01*
Y600750D01*
X334893Y601741D01*
X334331Y602581D01*
X333491Y603143D01*
X332500Y603340D01*
X326596D01*
Y604000D01*
X326372Y605707D01*
X325713Y607298D01*
X324664Y608664D01*
X321596Y611732D01*
Y613395D01*
X321648Y614747D01*
X321712Y615334D01*
X321799Y615872D01*
X321903Y616329D01*
X322019Y616705D01*
X322137Y616998D01*
X322249Y617211D01*
X322343Y617349D01*
X322517Y617483D01*
X324207Y619684D01*
X325269Y622248D01*
X325631Y625000D01*
X325269Y627752D01*
X324207Y630316D01*
X322517Y632517D01*
X320316Y634207D01*
X317752Y635269D01*
X315000Y635631D01*
X312248Y635269D01*
X309685Y634207D01*
X307483Y632517D01*
X305793Y630316D01*
X304731Y627752D01*
X304369Y625000D01*
X304731Y622248D01*
X305793Y619684D01*
X307483Y617483D01*
X307657Y617349D01*
X307751Y617211D01*
X307863Y616998D01*
X307981Y616705D01*
X308097Y616329D01*
X308201Y615872D01*
X308284Y615365D01*
X308396Y614002D01*
X308404Y613607D01*
Y609000D01*
X308628Y607293D01*
X309287Y605702D01*
X310125Y604610D01*
X309714Y603340D01*
X307500D01*
X306509Y603143D01*
X305669Y602581D01*
X305107Y601741D01*
X304910Y600750D01*
Y585076D01*
X304877Y585018D01*
X304082Y583885D01*
X301620Y580994D01*
X300306Y579635D01*
X295916Y575244D01*
X294867Y573878D01*
X294208Y572287D01*
X293984Y570580D01*
Y562240D01*
X293628Y561383D01*
X293404Y559675D01*
Y545000D01*
X293628Y543293D01*
X294287Y541702D01*
X295336Y540336D01*
X298986Y536686D01*
X300352Y535637D01*
X301943Y534978D01*
X302652Y534885D01*
X302694Y533599D01*
X301684Y533398D01*
X300016Y532284D01*
X296366Y528634D01*
X295252Y526967D01*
X294861Y525000D01*
Y485000D01*
X295252Y483033D01*
X296366Y481366D01*
X301366Y476366D01*
X303034Y475252D01*
X305000Y474861D01*
X311899D01*
X312269Y474829D01*
X312801Y474741D01*
X313160Y474645D01*
Y470250D01*
X313357Y469259D01*
X313919Y468419D01*
X314759Y467857D01*
X315750Y467660D01*
X334250D01*
X335241Y467857D01*
X336081Y468419D01*
X336643Y469259D01*
X336840Y470250D01*
Y489750D01*
X336643Y490741D01*
X336081Y491581D01*
X335241Y492143D01*
X334250Y492340D01*
X315750D01*
X314759Y492143D01*
X313919Y491581D01*
X313357Y490741D01*
X313160Y489750D01*
Y485355D01*
X312801Y485259D01*
X312269Y485171D01*
X311899Y485139D01*
X307129D01*
X305139Y487128D01*
Y512464D01*
X306409Y512850D01*
X307006Y511956D01*
X308838Y510731D01*
X311000Y510302D01*
X314500D01*
Y515950D01*
Y521599D01*
X311000D01*
X308838Y521169D01*
X307006Y519944D01*
X306409Y519050D01*
X305139Y519436D01*
Y522872D01*
X305779Y523511D01*
X308719D01*
X308838Y523432D01*
X311000Y523002D01*
X322000D01*
X324162Y523432D01*
X325994Y524656D01*
X327219Y526488D01*
X327649Y528650D01*
X327219Y530812D01*
X325994Y532644D01*
X324380Y533723D01*
X324292Y534363D01*
X324295Y534416D01*
X324458Y535082D01*
X325798Y535637D01*
X327164Y536686D01*
X328213Y538052D01*
X328872Y539643D01*
X329096Y541350D01*
X328872Y543057D01*
X328213Y544648D01*
X327164Y546014D01*
X326785Y546306D01*
X327216Y547575D01*
X364575D01*
X365069Y546822D01*
X365160Y546306D01*
X364839Y545977D01*
X364409Y545613D01*
X364006Y545344D01*
X362781Y543512D01*
X362351Y541350D01*
X362781Y539188D01*
X364006Y537356D01*
X365445Y536394D01*
X365060Y535124D01*
X361350D01*
X358872Y534632D01*
X356772Y533228D01*
X350422Y526878D01*
X349018Y524778D01*
X348526Y522300D01*
Y510000D01*
X349018Y507522D01*
X350422Y505422D01*
X360422Y495422D01*
X362522Y494018D01*
X365000Y493526D01*
X389782D01*
X390675Y493368D01*
X391425Y493118D01*
X392000Y492809D01*
X392445Y492445D01*
X392809Y492000D01*
X393118Y491425D01*
X393368Y490675D01*
X393526Y489782D01*
Y467682D01*
X380422Y454578D01*
X379018Y452478D01*
X378526Y450000D01*
Y439702D01*
X378274Y436405D01*
X378035Y434820D01*
X377729Y433382D01*
X377367Y432124D01*
X376958Y431047D01*
X376513Y430152D01*
X376048Y429438D01*
X374277Y427667D01*
X373716Y426827D01*
X373518Y425835D01*
X373716Y424844D01*
X374277Y424004D01*
X383673Y414608D01*
X383674Y414606D01*
X383692Y414516D01*
X383684Y414315D01*
X383594Y413946D01*
X383368Y413408D01*
X382971Y412721D01*
X382393Y411912D01*
X381627Y410999D01*
X380830Y410159D01*
X355901Y385229D01*
X355073Y384442D01*
X354160Y383667D01*
X353351Y383075D01*
X352665Y382663D01*
X352127Y382422D01*
X351765Y382322D01*
X351588Y382309D01*
X351550Y382315D01*
X351452Y382414D01*
X351252Y382547D01*
X351234Y382561D01*
X351219Y382569D01*
X350611Y382975D01*
X349620Y383172D01*
X348629Y382975D01*
X348373Y382804D01*
X348367Y382802D01*
X348353Y382791D01*
X347789Y382414D01*
X332586Y367211D01*
X332025Y366371D01*
X331828Y365380D01*
X332025Y364389D01*
X332586Y363548D01*
X350264Y345871D01*
X351104Y345309D01*
X352095Y345112D01*
X353086Y345309D01*
X353927Y345871D01*
X369129Y361073D01*
X369691Y361914D01*
X369888Y362905D01*
X369691Y363896D01*
X369129Y364736D01*
X362404Y371461D01*
X362402Y371465D01*
X362384Y371558D01*
X362392Y371760D01*
X362482Y372130D01*
X362709Y372669D01*
X363104Y373355D01*
X363683Y374163D01*
X364447Y375075D01*
X365244Y375915D01*
X390159Y400830D01*
X390999Y401627D01*
X391911Y402392D01*
X392721Y402971D01*
X393408Y403367D01*
X393946Y403594D01*
X394315Y403684D01*
X394516Y403692D01*
X394606Y403674D01*
X394608Y403673D01*
X403622Y394659D01*
X404462Y394098D01*
X405453Y393901D01*
X406444Y394098D01*
X407284Y394659D01*
X422841Y410216D01*
X423402Y411056D01*
X423599Y412047D01*
X423402Y413038D01*
X422841Y413878D01*
X393496Y443223D01*
X392656Y443784D01*
X391665Y443982D01*
X391474Y445216D01*
Y447318D01*
X404578Y460422D01*
X405982Y462522D01*
X406474Y465000D01*
Y492348D01*
X406588Y493374D01*
X406819Y494585D01*
X407140Y495750D01*
X407552Y496872D01*
X408055Y497956D01*
X408651Y499007D01*
X409343Y500026D01*
X409989Y500833D01*
X414578Y505422D01*
X415982Y507522D01*
X416474Y510000D01*
Y513911D01*
X416533Y514579D01*
X416687Y515499D01*
X416878Y516210D01*
X417081Y516705D01*
X417256Y516992D01*
X417367Y517112D01*
X417416Y517144D01*
X417462Y517160D01*
X419250D01*
X420241Y517357D01*
X421081Y517919D01*
X421643Y518759D01*
X421840Y519750D01*
Y538250D01*
X421772Y538591D01*
X422422Y539725D01*
X422707Y539902D01*
X424467Y540252D01*
X426134Y541366D01*
X433634Y548866D01*
X434748Y550533D01*
X435139Y552500D01*
Y565628D01*
X434748Y567594D01*
X433634Y569261D01*
X420975Y581920D01*
X421100Y582486D01*
X421531Y583160D01*
X428500D01*
Y593000D01*
X418660D01*
Y586031D01*
X417986Y585600D01*
X417420Y585475D01*
X412933Y589962D01*
X412482Y590471D01*
X411896Y591208D01*
X411456Y591843D01*
X411340Y592047D01*
Y598092D01*
X411441Y598269D01*
X411861Y598876D01*
X413030Y600263D01*
X417452Y604684D01*
X418300Y604379D01*
X418660Y604097D01*
Y597000D01*
X428500D01*
Y606840D01*
X421403D01*
X421121Y607200D01*
X420816Y608048D01*
X424050Y611283D01*
X424955Y612123D01*
X425697Y612717D01*
X426335Y613160D01*
X439750D01*
X440741Y613357D01*
X441581Y613919D01*
X442143Y614759D01*
X442340Y615750D01*
Y634250D01*
X442143Y635241D01*
X441581Y636081D01*
X440741Y636643D01*
X439750Y636840D01*
X421250D01*
X420259Y636643D01*
X419419Y636081D01*
X418857Y635241D01*
X418660Y634250D01*
Y620835D01*
X418237Y620226D01*
X417016Y618784D01*
X412022Y613790D01*
X411036Y614599D01*
X411143Y614759D01*
X411340Y615750D01*
Y634250D01*
X411143Y635241D01*
X410581Y636081D01*
X409741Y636643D01*
X408750Y636840D01*
X407233D01*
X407231Y636841D01*
X407154Y636892D01*
X407017Y637040D01*
X406820Y637364D01*
X406599Y637905D01*
X406394Y638670D01*
X406231Y639652D01*
X406127Y640838D01*
X406096Y641997D01*
Y670000D01*
Y681928D01*
X406803Y682355D01*
X407373Y682448D01*
X408079Y681741D01*
X408919Y681180D01*
X409910Y680983D01*
X410901Y681180D01*
X411741Y681741D01*
X427298Y697298D01*
X427859Y698138D01*
X428056Y699129D01*
X427859Y700120D01*
X427298Y700960D01*
X412097Y716161D01*
X412096Y716163D01*
X412078Y716254D01*
X412086Y716455D01*
X412175Y716823D01*
X412402Y717362D01*
X412798Y718049D01*
X413377Y718858D01*
X414142Y719771D01*
X414940Y720611D01*
X432164Y737836D01*
X434736Y740407D01*
X438102Y743564D01*
X439523Y744727D01*
X440129Y745160D01*
X456750D01*
X457741Y745357D01*
X458581Y745919D01*
X459143Y746759D01*
X459340Y747750D01*
Y749267D01*
X459341Y749269D01*
X459392Y749346D01*
X459540Y749483D01*
X459864Y749680D01*
X460405Y749901D01*
X461170Y750106D01*
X462152Y750269D01*
X463339Y750373D01*
X464497Y750404D01*
X465268D01*
X470336Y745336D01*
X471702Y744287D01*
X472412Y743993D01*
X472607Y743009D01*
X473169Y742169D01*
X474009Y741607D01*
X475000Y741410D01*
X495000D01*
X495991Y741607D01*
X496831Y742169D01*
X497393Y743009D01*
X497590Y744000D01*
Y756000D01*
X497393Y756991D01*
X496831Y757831D01*
X495991Y758393D01*
X495000Y758590D01*
X475739D01*
X472664Y761664D01*
X471298Y762713D01*
X469707Y763372D01*
X468000Y763596D01*
X464497D01*
X463339Y763627D01*
X462152Y763731D01*
X461170Y763894D01*
X460405Y764099D01*
X459864Y764320D01*
X459540Y764517D01*
X459392Y764654D01*
X459341Y764731D01*
X459340Y764733D01*
Y766250D01*
X459143Y767241D01*
X458581Y768081D01*
X457741Y768643D01*
X456750Y768840D01*
X438250D01*
X437259Y768643D01*
X436419Y768081D01*
X435857Y767241D01*
X435660Y766250D01*
Y762055D01*
X435366Y761779D01*
X434096Y762330D01*
Y823404D01*
X918058D01*
X919226Y823342D01*
X920242Y823163D01*
X921049Y822894D01*
X921673Y822558D01*
X922160Y822160D01*
X922558Y821673D01*
X922894Y821049D01*
X923163Y820242D01*
X923342Y819226D01*
X923404Y818058D01*
Y808747D01*
X923373Y807589D01*
X923269Y806402D01*
X923106Y805420D01*
X922901Y804655D01*
X922680Y804113D01*
X922483Y803790D01*
X922346Y803642D01*
X922269Y803590D01*
X922267Y803590D01*
X920000D01*
X919009Y803393D01*
X918169Y802831D01*
X917607Y801991D01*
X917410Y801000D01*
Y789000D01*
X917607Y788009D01*
X918169Y787169D01*
X919009Y786607D01*
X920000Y786410D01*
X940000D01*
X940384Y786487D01*
X940435Y786486D01*
X940490Y786508D01*
X940991Y786607D01*
X941358Y786852D01*
X941374Y786859D01*
X941389Y786873D01*
X941831Y787169D01*
X942086Y787551D01*
X942099Y787563D01*
X942107Y787582D01*
X942328Y787913D01*
X942597Y787993D01*
X943209Y788117D01*
X946418Y788380D01*
X946659Y788373D01*
X947844Y788269D01*
X948824Y788106D01*
X949589Y787901D01*
X950130Y787680D01*
X950455Y787482D01*
X950605Y787344D01*
X950658Y787265D01*
X950660Y787259D01*
Y778750D01*
X950857Y777759D01*
X951419Y776919D01*
X952259Y776357D01*
X953250Y776160D01*
X971750D01*
X972741Y776357D01*
X973581Y776919D01*
X974143Y777759D01*
X974340Y778750D01*
Y797250D01*
X974143Y798241D01*
X973581Y799081D01*
X972741Y799643D01*
X971750Y799840D01*
X959936D01*
X958798Y800713D01*
X957207Y801372D01*
X955500Y801596D01*
X947468D01*
X946544Y801608D01*
X944137Y801756D01*
X943273Y801871D01*
X942597Y802007D01*
X942328Y802087D01*
X942107Y802418D01*
X942099Y802437D01*
X942086Y802449D01*
X941831Y802831D01*
X941389Y803127D01*
X941374Y803141D01*
X941358Y803148D01*
X940991Y803393D01*
X940490Y803492D01*
X940435Y803514D01*
X940384Y803513D01*
X940000Y803590D01*
X937733D01*
X937731Y803590D01*
X937654Y803642D01*
X937517Y803790D01*
X937320Y804114D01*
X937099Y804655D01*
X936894Y805420D01*
X936731Y806402D01*
X936627Y807589D01*
X936596Y808747D01*
Y818058D01*
X936658Y819226D01*
X936837Y820242D01*
X937106Y821049D01*
X937442Y821673D01*
X937840Y822160D01*
X938327Y822558D01*
X938951Y822894D01*
X939758Y823163D01*
X940774Y823342D01*
X941942Y823404D01*
X957268D01*
X1068404Y712268D01*
Y482732D01*
X1062268Y476596D01*
X1006840D01*
Y479750D01*
X1006643Y480741D01*
X1006435Y481051D01*
X1007086Y482321D01*
X1037460D01*
X1039426Y482712D01*
X1041094Y483826D01*
X1058634Y501366D01*
X1059748Y503033D01*
X1060139Y505000D01*
Y650000D01*
X1059748Y651966D01*
X1058634Y653634D01*
X968377Y743890D01*
X968903Y745160D01*
X971750D01*
X972741Y745357D01*
X973581Y745919D01*
X974143Y746759D01*
X974340Y747750D01*
Y766250D01*
X974143Y767241D01*
X973581Y768081D01*
X972741Y768643D01*
X971750Y768840D01*
X953250D01*
X952259Y768643D01*
X951419Y768081D01*
X950857Y767241D01*
X950660Y766250D01*
Y755357D01*
X950296Y755259D01*
X949765Y755171D01*
X949396Y755139D01*
X943851D01*
X943481Y755171D01*
X942949Y755259D01*
X942590Y755356D01*
Y756000D01*
X942393Y756991D01*
X941831Y757831D01*
X940991Y758393D01*
X940000Y758590D01*
X920000D01*
X919009Y758393D01*
X918169Y757831D01*
X917607Y756991D01*
X917410Y756000D01*
Y744000D01*
X917607Y743009D01*
X918169Y742169D01*
X919009Y741607D01*
X920000Y741410D01*
X940000D01*
X940991Y741607D01*
X941831Y742169D01*
X942393Y743009D01*
X942590Y744000D01*
Y744644D01*
X942949Y744741D01*
X943481Y744829D01*
X943851Y744861D01*
X955500D01*
X956082Y744977D01*
X956786Y744570D01*
X957353Y743983D01*
X957361Y743891D01*
Y742500D01*
X957752Y740534D01*
X958866Y738866D01*
X1049861Y647871D01*
Y507128D01*
X1035331Y492599D01*
X1031525D01*
X1031039Y493772D01*
X1038634Y501366D01*
X1039748Y503033D01*
X1040139Y505000D01*
Y591391D01*
X1040171Y591756D01*
X1040259Y592282D01*
X1040358Y592653D01*
X1040361Y592660D01*
X1044250D01*
X1045241Y592857D01*
X1046081Y593419D01*
X1046643Y594259D01*
X1046840Y595250D01*
Y613750D01*
X1046643Y614741D01*
X1046081Y615581D01*
X1045241Y616143D01*
X1044250Y616340D01*
X1025750D01*
X1024759Y616143D01*
X1023919Y615581D01*
X1023357Y614741D01*
X1023160Y613750D01*
Y605352D01*
X1022797Y605254D01*
X1022266Y605166D01*
X1021897Y605134D01*
X1013852D01*
X1013482Y605166D01*
X1012950Y605254D01*
X1012591Y605351D01*
Y605995D01*
X1012393Y606986D01*
X1011832Y607826D01*
X1010992Y608388D01*
X1010001Y608585D01*
X990001D01*
X989010Y608388D01*
X988170Y607826D01*
X987608Y606986D01*
X987411Y605995D01*
Y593995D01*
X987608Y593004D01*
X988170Y592164D01*
X989010Y591603D01*
X990001Y591405D01*
X1010001D01*
X1010992Y591603D01*
X1011832Y592164D01*
X1012393Y593004D01*
X1012591Y593995D01*
Y594640D01*
X1012950Y594736D01*
X1013482Y594824D01*
X1013852Y594856D01*
X1021976D01*
X1022293Y594832D01*
X1022843Y594751D01*
X1023240Y594656D01*
X1023281Y594641D01*
X1023357Y594259D01*
X1023919Y593419D01*
X1024759Y592857D01*
X1025071Y592795D01*
X1025082Y592790D01*
X1025108Y592788D01*
X1025750Y592660D01*
X1029639D01*
X1029642Y592653D01*
X1029741Y592282D01*
X1029829Y591756D01*
X1029861Y591391D01*
Y507128D01*
X1022871Y500139D01*
X955663D01*
X953697Y499748D01*
X952029Y498634D01*
X916312Y462916D01*
X915139Y463402D01*
Y472872D01*
X951629Y509361D01*
X958647D01*
X959016Y509329D01*
X959547Y509241D01*
X959910Y509143D01*
Y506500D01*
X960107Y505509D01*
X960669Y504669D01*
X961509Y504107D01*
X962500Y503910D01*
X982500D01*
X983491Y504107D01*
X984331Y504669D01*
X984893Y505509D01*
X985090Y506500D01*
Y509143D01*
X985453Y509241D01*
X985984Y509329D01*
X986353Y509361D01*
X992179D01*
X992357Y509351D01*
X992950Y509283D01*
X993396Y509200D01*
X993397Y509200D01*
X993566Y508947D01*
X993568Y508941D01*
X993575Y508934D01*
X993919Y508419D01*
X994246Y508200D01*
X994250Y508195D01*
X994259Y508191D01*
X994759Y507857D01*
X995134Y507783D01*
X995166Y507768D01*
X995222Y507765D01*
X995750Y507660D01*
X1014250D01*
X1015241Y507857D01*
X1016081Y508419D01*
X1016643Y509259D01*
X1016840Y510250D01*
Y528750D01*
X1016643Y529741D01*
X1016081Y530581D01*
X1015241Y531143D01*
X1014250Y531340D01*
X995750D01*
X994759Y531143D01*
X993919Y530581D01*
X993357Y529741D01*
X993160Y528750D01*
Y519856D01*
X992797Y519759D01*
X992266Y519671D01*
X991897Y519639D01*
X986007D01*
X985835Y519644D01*
X985245Y519702D01*
X984772Y519777D01*
X984688Y519797D01*
X984653Y519849D01*
X984647Y519865D01*
X984633Y519879D01*
X984331Y520331D01*
X983958Y520581D01*
X983946Y520593D01*
X983928Y520601D01*
X983491Y520893D01*
X983065Y520977D01*
X983020Y520997D01*
X982961Y520998D01*
X982500Y521090D01*
X962500D01*
X962039Y520998D01*
X961980Y520997D01*
X961935Y520977D01*
X961509Y520893D01*
X961072Y520601D01*
X961054Y520593D01*
X961042Y520581D01*
X960669Y520331D01*
X960367Y519879D01*
X960353Y519865D01*
X960347Y519849D01*
X960312Y519797D01*
X960228Y519777D01*
X959786Y519707D01*
X958856Y519639D01*
X949500D01*
X947533Y519248D01*
X945866Y518134D01*
X906366Y478634D01*
X905252Y476967D01*
X904861Y475000D01*
Y445292D01*
X847208Y387639D01*
X842833D01*
X842709Y387738D01*
X842047Y388816D01*
X842217Y389226D01*
X842648Y392500D01*
X842217Y395774D01*
X840954Y398824D01*
X838944Y401444D01*
X836324Y403454D01*
X833274Y404717D01*
X830000Y405148D01*
X826726Y404717D01*
X823676Y403454D01*
X821056Y401444D01*
X819046Y398824D01*
X817783Y395774D01*
X817352Y392500D01*
X817783Y389226D01*
X819046Y386176D01*
X821056Y383556D01*
X823676Y381546D01*
X826726Y380283D01*
X830000Y379852D01*
X830726Y379947D01*
X831287Y378808D01*
X816366Y363887D01*
X815252Y362220D01*
X814861Y360254D01*
Y332128D01*
X788872Y306139D01*
X646333D01*
X645414Y306159D01*
X644445Y306236D01*
X644168Y306273D01*
X644076Y306291D01*
X643662Y306569D01*
X641500Y306999D01*
X630500D01*
X628338Y306569D01*
X626506Y305344D01*
X625281Y303512D01*
X624851Y301350D01*
X625281Y299188D01*
X626506Y297356D01*
X628338Y296131D01*
X630500Y295702D01*
X641500D01*
X642303Y295861D01*
X788552D01*
X789038Y294688D01*
X788139Y293789D01*
X645521D01*
X644382Y293833D01*
X643515Y293914D01*
X643283Y293950D01*
X643182Y293972D01*
X643077Y294006D01*
X642818Y294036D01*
X641500Y294298D01*
X630500D01*
X628338Y293869D01*
X626506Y292644D01*
X625281Y290812D01*
X624851Y288650D01*
X625281Y286488D01*
X626506Y284656D01*
X628338Y283431D01*
X630500Y283001D01*
X641500D01*
X642818Y283263D01*
X643077Y283295D01*
X643170Y283325D01*
X646459Y283511D01*
X789448D01*
X789974Y282241D01*
X788872Y281139D01*
X645498D01*
X644277Y281173D01*
X643428Y281243D01*
X643205Y281274D01*
X643129Y281289D01*
X643053Y281313D01*
X642790Y281342D01*
X641500Y281598D01*
X630500D01*
X628338Y281169D01*
X626506Y279944D01*
X625281Y278112D01*
X624851Y275950D01*
X625281Y273788D01*
X626506Y271956D01*
X628338Y270731D01*
X630500Y270301D01*
X641500D01*
X642844Y270569D01*
X643097Y270601D01*
X643229Y270645D01*
X646634Y270861D01*
X791000D01*
X792967Y271252D01*
X794634Y272366D01*
X843634Y321366D01*
X844748Y323033D01*
X845139Y325000D01*
Y347872D01*
X872264Y374997D01*
X873435Y374371D01*
X873369Y374040D01*
X873566Y373049D01*
X874127Y372209D01*
X879254Y367082D01*
X887626Y375454D01*
X895998Y383826D01*
X890871Y388952D01*
X890031Y389514D01*
X889040Y389711D01*
X888708Y389645D01*
X888083Y390816D01*
X894184Y396917D01*
X895355Y396292D01*
X895289Y395960D01*
X895486Y394969D01*
X896048Y394129D01*
X909129Y381047D01*
X909969Y380486D01*
X910960Y380289D01*
X911951Y380486D01*
X912791Y381047D01*
X925873Y394129D01*
X926434Y394969D01*
X926631Y395960D01*
X926434Y396951D01*
X925873Y397791D01*
X923680Y399984D01*
X923889Y401492D01*
X924409Y401793D01*
X924588Y401739D01*
X925115Y401476D01*
X925677Y401082D01*
X938793Y387966D01*
X938986Y387725D01*
X939326Y387220D01*
X939616Y386703D01*
X939859Y386170D01*
X940057Y385617D01*
X940210Y385039D01*
X940320Y384434D01*
X940385Y383795D01*
X940397Y383335D01*
X940353Y383007D01*
X940750Y379995D01*
X941913Y377187D01*
X943763Y374777D01*
X946173Y372927D01*
X948980Y371764D01*
X951993Y371367D01*
X952321Y371411D01*
X952781Y371399D01*
X953419Y371334D01*
X954025Y371225D01*
X954603Y371071D01*
X955155Y370873D01*
X955688Y370630D01*
X956206Y370340D01*
X956711Y370000D01*
X956952Y369807D01*
X960880Y365880D01*
X962218Y364986D01*
X965110Y362273D01*
X965135Y362257D01*
X966056Y361056D01*
X968676Y359046D01*
X971726Y357783D01*
X975000Y357352D01*
X978274Y357783D01*
X981324Y359046D01*
X983944Y361056D01*
X985954Y363676D01*
X987217Y366726D01*
X987648Y370000D01*
X987217Y373274D01*
X985954Y376324D01*
X983944Y378944D01*
X981324Y380954D01*
X978274Y382217D01*
X975000Y382648D01*
X971726Y382217D01*
X968676Y380954D01*
X966056Y378944D01*
X965939Y378790D01*
X965439Y378792D01*
X964525Y379035D01*
X964370Y379311D01*
X964127Y379844D01*
X963929Y380397D01*
X963775Y380975D01*
X963666Y381581D01*
X963601Y382219D01*
X963589Y382679D01*
X963633Y383007D01*
X963236Y386020D01*
X962073Y388827D01*
X960223Y391237D01*
X957813Y393087D01*
X955005Y394250D01*
X951993Y394647D01*
X951665Y394603D01*
X951205Y394615D01*
X950567Y394680D01*
X949961Y394790D01*
X949383Y394943D01*
X948830Y395141D01*
X948297Y395384D01*
X947780Y395674D01*
X947275Y396014D01*
X947034Y396207D01*
X932396Y410844D01*
X931884Y411485D01*
X931326Y412306D01*
X930846Y413150D01*
X930442Y414022D01*
X930112Y414924D01*
X929853Y415860D01*
X929667Y416836D01*
X929577Y417651D01*
Y419719D01*
X938024Y428165D01*
X938428Y428504D01*
X939033Y428937D01*
X939528Y429223D01*
X939886Y429374D01*
X940011Y429404D01*
X941248Y428167D01*
X942089Y427606D01*
X943080Y427408D01*
X944071Y427606D01*
X944911Y428167D01*
X957992Y441249D01*
X958554Y442089D01*
X958751Y443080D01*
X958554Y444071D01*
X957992Y444911D01*
X944911Y457992D01*
X944071Y458554D01*
X943080Y458751D01*
X942089Y458554D01*
X941248Y457992D01*
X931392Y448136D01*
X930219Y448622D01*
Y451625D01*
X960915Y482321D01*
X982914D01*
X983565Y481051D01*
X983357Y480741D01*
X983160Y479750D01*
Y476596D01*
X970147D01*
X966831Y479913D01*
X965991Y480474D01*
X965000Y480671D01*
X964009Y480474D01*
X963169Y479913D01*
X950087Y466831D01*
X949526Y465991D01*
X949329Y465000D01*
X949526Y464009D01*
X950087Y463169D01*
X963169Y450087D01*
X964009Y449526D01*
X965000Y449329D01*
X965991Y449526D01*
X966831Y450087D01*
X979913Y463169D01*
X980070Y463404D01*
X983160D01*
Y461250D01*
X983357Y460259D01*
X983919Y459419D01*
X984759Y458857D01*
X985750Y458660D01*
X1004250D01*
X1005241Y458857D01*
X1006081Y459419D01*
X1006643Y460259D01*
X1006840Y461250D01*
Y463404D01*
X1065000D01*
X1066707Y463628D01*
X1068298Y464287D01*
X1069664Y465336D01*
X1079664Y475336D01*
X1080713Y476702D01*
X1081372Y478293D01*
X1081596Y480000D01*
Y715000D01*
X1081372Y716707D01*
X1080713Y718298D01*
X1079664Y719664D01*
X964718Y834611D01*
X964731Y834825D01*
X965165Y835881D01*
X968294D01*
X1085881Y718294D01*
D02*
G37*
G36*
X388839Y444691D02*
X389067Y442481D01*
X389267Y441690D01*
X389524Y441109D01*
X389838Y440737D01*
X390209Y440575D01*
X390637Y440622D01*
X391122Y440879D01*
X391665Y441345D01*
X377402Y427039D01*
X378121Y427876D01*
X378765Y428865D01*
X379334Y430008D01*
X379826Y431305D01*
X380243Y432754D01*
X380584Y434357D01*
X380849Y436113D01*
X381152Y440085D01*
X381190Y442300D01*
X388810Y446110D01*
X388839Y444691D01*
D02*
G37*
G36*
X926970Y417664D02*
X927105Y416450D01*
X927329Y415272D01*
X927643Y414133D01*
X928047Y413030D01*
X928541Y411965D01*
X929125Y410936D01*
X929799Y409945D01*
X930562Y408992D01*
X931415Y408075D01*
X928240Y402270D01*
X927342Y403078D01*
X926444Y403707D01*
X925546Y404156D01*
X924648Y404425D01*
X923750Y404515D01*
X922852Y404425D01*
X921954Y404156D01*
X921056Y403707D01*
X921011Y403675D01*
X920864Y403470D01*
X920434Y402726D01*
X920140Y402028D01*
X919981Y401375D01*
X919957Y400767D01*
X920068Y400205D01*
X920315Y399688D01*
X920696Y399216D01*
X911716Y408196D01*
X912188Y407815D01*
X912705Y407568D01*
X913267Y407457D01*
X913875Y407481D01*
X914528Y407640D01*
X915226Y407934D01*
X915970Y408364D01*
X916759Y408928D01*
X917150Y409257D01*
X917701Y409945D01*
X918375Y410936D01*
X918959Y411965D01*
X919453Y413030D01*
X919857Y414133D01*
X920171Y415272D01*
X920395Y416450D01*
X920530Y417664D01*
X920575Y418915D01*
X926925D01*
X926970Y417664D01*
D02*
G37*
G36*
X315814Y475000D02*
X315763Y475475D01*
X315612Y475900D01*
X315361Y476275D01*
X315009Y476600D01*
X314556Y476875D01*
X314002Y477100D01*
X313349Y477275D01*
X312594Y477400D01*
X311739Y477475D01*
X310783Y477500D01*
Y482500D01*
X311739Y482525D01*
X312594Y482600D01*
X313349Y482725D01*
X314002Y482900D01*
X314556Y483125D01*
X315009Y483400D01*
X315361Y483725D01*
X315612Y484100D01*
X315763Y484525D01*
X315814Y485000D01*
Y475000D01*
D02*
G37*
G36*
X941883Y431285D02*
X941411Y431666D01*
X940894Y431913D01*
X940332Y432024D01*
X939724Y432000D01*
X939071Y431841D01*
X938373Y431547D01*
X937629Y431117D01*
X936840Y430553D01*
X936006Y429853D01*
X935126Y429018D01*
X930636Y433508D01*
X931471Y434388D01*
X932170Y435222D01*
X932735Y436011D01*
X933164Y436755D01*
X933458Y437453D01*
X933618Y438106D01*
X933642Y438714D01*
X933530Y439276D01*
X933284Y439794D01*
X932903Y440265D01*
X941883Y431285D01*
D02*
G37*
G36*
X942000Y826000D02*
X940480Y825920D01*
X939120Y825680D01*
X937920Y825280D01*
X936880Y824720D01*
X936000Y824000D01*
X935280Y823120D01*
X934720Y822080D01*
X934320Y820880D01*
X934080Y819520D01*
X934000Y818000D01*
X926000D01*
X925920Y819520D01*
X925680Y820880D01*
X925280Y822080D01*
X924720Y823120D01*
X924000Y824000D01*
X923120Y824720D01*
X922080Y825280D01*
X920880Y825680D01*
X919520Y825920D01*
X918000Y826000D01*
X930000Y834000D01*
X942000Y826000D01*
D02*
G37*
G36*
X390229Y744918D02*
X389551Y743843D01*
X388954Y742757D01*
X388435Y741659D01*
X387997Y740550D01*
X387638Y739429D01*
X387359Y738298D01*
X387160Y737155D01*
X387040Y736001D01*
X387000Y734835D01*
X379000D01*
X378960Y736001D01*
X378840Y737155D01*
X378641Y738298D01*
X378362Y739429D01*
X378003Y740550D01*
X377565Y741659D01*
X377047Y742757D01*
X376449Y743843D01*
X375771Y744918D01*
X375013Y745982D01*
X390987D01*
X390229Y744918D01*
D02*
G37*
G36*
X413260Y722603D02*
X412209Y721496D01*
X411329Y720445D01*
X410618Y719452D01*
X410078Y718516D01*
X409708Y717637D01*
X409508Y716815D01*
X409478Y716049D01*
X409619Y715341D01*
X409929Y714690D01*
X410410Y714096D01*
X399096Y725410D01*
X399690Y724929D01*
X400341Y724619D01*
X401049Y724478D01*
X401815Y724508D01*
X402637Y724708D01*
X403516Y725078D01*
X404452Y725618D01*
X405445Y726329D01*
X406496Y727209D01*
X407603Y728260D01*
X413260Y722603D01*
D02*
G37*
G36*
X953283Y747783D02*
X948283Y747500D01*
Y752500D01*
X949237Y752525D01*
X950091Y752600D01*
X950844Y752725D01*
X951497Y752900D01*
X952051Y753125D01*
X952504Y753400D01*
X952856Y753725D01*
X953109Y754100D01*
X953261Y754525D01*
X953314Y755000D01*
X953283Y747783D01*
D02*
G37*
G36*
X407522Y686051D02*
X406758Y686735D01*
X406074Y687177D01*
X405471Y687378D01*
X404948Y687338D01*
X404505Y687056D01*
X404143Y686534D01*
X403862Y685769D01*
X403661Y684764D01*
X403540Y683517D01*
X403500Y682029D01*
X395500Y690029D01*
X395460Y691597D01*
X395341Y693084D01*
X395142Y694489D01*
X394863Y695814D01*
X394505Y697056D01*
X394068Y698218D01*
X393551Y699298D01*
X392954Y700297D01*
X392277Y701215D01*
X391522Y702051D01*
X407522Y686051D01*
D02*
G37*
G36*
X934040Y807441D02*
X934160Y806076D01*
X934360Y804872D01*
X934640Y803828D01*
X935000Y802944D01*
X935440Y802221D01*
X935960Y801659D01*
X936560Y801258D01*
X937240Y801017D01*
X938000Y800937D01*
X922000D01*
X922760Y801017D01*
X923440Y801258D01*
X924040Y801659D01*
X924560Y802221D01*
X925000Y802944D01*
X925360Y803828D01*
X925640Y804872D01*
X925840Y806076D01*
X925960Y807441D01*
X926000Y808967D01*
X934000D01*
X934040Y807441D01*
D02*
G37*
G36*
X456767Y764240D02*
X457008Y763560D01*
X457409Y762960D01*
X457971Y762440D01*
X458694Y762000D01*
X459577Y761640D01*
X460621Y761360D01*
X461826Y761160D01*
X463191Y761040D01*
X464717Y761000D01*
Y753000D01*
X463191Y752960D01*
X461826Y752840D01*
X460621Y752640D01*
X459577Y752360D01*
X458694Y752000D01*
X457971Y751560D01*
X457409Y751040D01*
X457008Y750440D01*
X456767Y749760D01*
X456687Y749000D01*
Y765000D01*
X456767Y764240D01*
D02*
G37*
G36*
X425269Y834825D02*
X425282Y834611D01*
X422836Y832164D01*
X421787Y830798D01*
X421128Y829207D01*
X420904Y827500D01*
Y752018D01*
X420859Y750770D01*
X420711Y749437D01*
X420466Y748155D01*
X420127Y746923D01*
X419691Y745735D01*
X419159Y744586D01*
X418527Y743474D01*
X417795Y742396D01*
X416956Y741348D01*
X416106Y740434D01*
X405611Y729940D01*
X404771Y729143D01*
X403858Y728377D01*
X403049Y727798D01*
X402362Y727402D01*
X401823Y727175D01*
X401455Y727086D01*
X401254Y727078D01*
X401163Y727096D01*
X401161Y727097D01*
X397953Y730305D01*
X397113Y730866D01*
X396121Y731064D01*
X395131Y730866D01*
X394290Y730305D01*
X391800Y727815D01*
X391695Y727822D01*
X391371Y727909D01*
X390875Y728130D01*
X390233Y728512D01*
X389596Y728976D01*
Y734986D01*
X389625Y735822D01*
X389726Y736799D01*
X389895Y737764D01*
X390131Y738724D01*
X390437Y739678D01*
X390813Y740629D01*
X391261Y741579D01*
X391783Y742527D01*
X392381Y743476D01*
X393096Y744480D01*
X393181Y744669D01*
X393954Y745676D01*
X395217Y748726D01*
X395648Y752000D01*
X395217Y755274D01*
X393954Y758324D01*
X391944Y760944D01*
X389324Y762954D01*
X386274Y764217D01*
X383000Y764648D01*
X379726Y764217D01*
X376676Y762954D01*
X374056Y760944D01*
X372046Y758324D01*
X370783Y755274D01*
X370352Y752000D01*
X370783Y748726D01*
X372046Y745676D01*
X372819Y744669D01*
X372904Y744480D01*
X373619Y743476D01*
X374217Y742527D01*
X374739Y741579D01*
X375187Y740629D01*
X375563Y739678D01*
X375869Y738724D01*
X376105Y737764D01*
X376274Y736799D01*
X376375Y735822D01*
X376404Y734986D01*
Y726039D01*
X376628Y724332D01*
X377287Y722741D01*
X378290Y721435D01*
X378296Y721425D01*
X378302Y721419D01*
X378336Y721375D01*
X378503Y721207D01*
X379242Y720431D01*
X379972Y719568D01*
X380527Y718806D01*
X380909Y718164D01*
X381130Y717668D01*
X381217Y717344D01*
X381224Y717239D01*
X378734Y714749D01*
X378173Y713909D01*
X377975Y712917D01*
X378173Y711926D01*
X378734Y711086D01*
X390335Y699486D01*
X390795Y698861D01*
X391266Y698072D01*
X391684Y697200D01*
X392046Y696240D01*
X392349Y695188D01*
X392590Y694041D01*
X392766Y692799D01*
X392873Y691461D01*
X392904Y690259D01*
Y673639D01*
X387500D01*
X385533Y673248D01*
X383866Y672134D01*
X363871Y652139D01*
X312000D01*
X310033Y651748D01*
X308366Y650634D01*
X285292Y627560D01*
X284119Y628046D01*
Y713294D01*
X406706Y835881D01*
X424835D01*
X425269Y834825D01*
D02*
G37*
G36*
X940047Y800593D02*
X940287Y800259D01*
X940687Y799964D01*
X941247Y799708D01*
X941967Y799492D01*
X942847Y799315D01*
X943887Y799177D01*
X946447Y799020D01*
X947967Y799000D01*
Y798896D01*
X950403Y798715D01*
X951283Y798554D01*
X952003Y798358D01*
X952563Y798126D01*
X952963Y797859D01*
X953203Y797556D01*
X953283Y797217D01*
X953314Y787000D01*
X953231Y787760D01*
X952988Y788440D01*
X952586Y789040D01*
X952023Y789560D01*
X951300Y790000D01*
X950417Y790360D01*
X949373Y790640D01*
X948170Y790840D01*
X946807Y790960D01*
X946346Y790972D01*
X942847Y790685D01*
X941967Y790508D01*
X941247Y790292D01*
X940687Y790036D01*
X940287Y789741D01*
X940047Y789407D01*
X939967Y789033D01*
Y800967D01*
X940047Y800593D01*
D02*
G37*
G36*
X967025Y747733D02*
X966600Y747583D01*
X966225Y747333D01*
X965900Y746983D01*
X965625Y746533D01*
X965400Y745983D01*
X965225Y745333D01*
X965100Y744583D01*
X965025Y743733D01*
X965000Y742783D01*
X960000D01*
X959975Y743733D01*
X959900Y744583D01*
X959775Y745333D01*
X959600Y745983D01*
X959375Y746533D01*
X959100Y746983D01*
X958775Y747333D01*
X958400Y747583D01*
X957975Y747733D01*
X957500Y747783D01*
X967500D01*
X967025Y747733D01*
D02*
G37*
G36*
X939987Y754525D02*
X940138Y754100D01*
X940389Y753725D01*
X940741Y753400D01*
X941194Y753125D01*
X941748Y752900D01*
X942402Y752725D01*
X943156Y752600D01*
X944011Y752525D01*
X944967Y752500D01*
Y747500D01*
X944011Y747475D01*
X943156Y747400D01*
X942402Y747275D01*
X941748Y747100D01*
X941194Y746875D01*
X940741Y746600D01*
X940389Y746275D01*
X940138Y745900D01*
X939987Y745475D01*
X939937Y745000D01*
Y755000D01*
X939987Y754525D01*
D02*
G37*
G36*
X444097Y747813D02*
X443724Y748510D01*
X443183Y748925D01*
X442473Y749059D01*
X441595Y748912D01*
X440547Y748484D01*
X439332Y747775D01*
X437948Y746784D01*
X436395Y745513D01*
X432783Y742126D01*
X432728Y746047D01*
X430328Y739671D01*
X417843Y738500D01*
X418918Y739655D01*
X419880Y740856D01*
X420728Y742105D01*
X421464Y743400D01*
X422086Y744743D01*
X422595Y746132D01*
X422991Y747568D01*
X423274Y749051D01*
X423443Y750580D01*
X423500Y752157D01*
X431500Y760157D01*
X431557Y758693D01*
X431726Y757503D01*
X432009Y756586D01*
X432405Y755942D01*
X432914Y755571D01*
X433536Y755473D01*
X434272Y755649D01*
X435120Y756097D01*
X435173Y756136D01*
X436132Y757296D01*
X436958Y758515D01*
X437613Y759676D01*
X438096Y760778D01*
X438407Y761821D01*
X438547Y762805D01*
X438516Y763730D01*
X438313Y764597D01*
X444097Y747813D01*
D02*
G37*
G36*
X386878Y727869D02*
X387870Y727029D01*
X388805Y726348D01*
X389683Y725825D01*
X390504Y725461D01*
X391268Y725255D01*
X391976Y725208D01*
X392626Y725319D01*
X393219Y725589D01*
X393755Y726018D01*
X383022Y715284D01*
X383450Y715820D01*
X383720Y716413D01*
X383831Y717064D01*
X383784Y717771D01*
X383578Y718535D01*
X383214Y719356D01*
X382691Y720234D01*
X382010Y721169D01*
X381170Y722161D01*
X380172Y723211D01*
X385828Y728867D01*
X386878Y727869D01*
D02*
G37*
%LPC*%
G36*
X487000Y342452D02*
Y312000D01*
X507649D01*
Y320000D01*
X507214Y324419D01*
X505925Y328667D01*
X503832Y332583D01*
X501015Y336015D01*
X497583Y338832D01*
X493667Y340925D01*
X489419Y342214D01*
X487000Y342452D01*
D02*
G37*
G36*
X366840Y478000D02*
X357000D01*
Y467660D01*
X364250D01*
X365241Y467857D01*
X366081Y468419D01*
X366643Y469259D01*
X366840Y470250D01*
Y478000D01*
D02*
G37*
G36*
X483000Y342452D02*
X480581Y342214D01*
X476333Y340925D01*
X472417Y338832D01*
X468985Y336015D01*
X466168Y332583D01*
X464075Y328667D01*
X462786Y324419D01*
X462351Y320000D01*
Y312000D01*
X483000D01*
Y342452D01*
D02*
G37*
G36*
X947750Y315509D02*
X944357Y315062D01*
X941194Y313752D01*
X940079Y312896D01*
X947750Y305225D01*
X955422Y312897D01*
X954306Y313752D01*
X951144Y315062D01*
X947750Y315509D01*
D02*
G37*
G36*
X353000Y478000D02*
X343160D01*
Y470250D01*
X343357Y469259D01*
X343919Y468419D01*
X344759Y467857D01*
X345750Y467660D01*
X353000D01*
Y478000D01*
D02*
G37*
G36*
X325800Y437970D02*
X325674Y437944D01*
X325546Y437957D01*
X322312Y437639D01*
X322067Y437565D01*
X321814Y437539D01*
X318703Y436596D01*
X318478Y436476D01*
X318234Y436402D01*
X315368Y434870D01*
X315171Y434708D01*
X314946Y434588D01*
X312433Y432526D01*
X312272Y432328D01*
X312074Y432167D01*
X310012Y429654D01*
X309892Y429429D01*
X309730Y429232D01*
X308198Y426366D01*
X308124Y426121D01*
X308004Y425897D01*
X307061Y422786D01*
X307036Y422533D01*
X306961Y422288D01*
X306643Y419054D01*
X306668Y418800D01*
X306643Y418546D01*
X306961Y415312D01*
X307036Y415067D01*
X307061Y414814D01*
X308004Y411703D01*
X308124Y411478D01*
X308198Y411234D01*
X309730Y408368D01*
X309892Y408171D01*
X310012Y407946D01*
X312074Y405433D01*
X312272Y405272D01*
X312433Y405074D01*
X314946Y403013D01*
X315171Y402892D01*
X315368Y402730D01*
X318234Y401198D01*
X318479Y401124D01*
X318703Y401004D01*
X321814Y400061D01*
X322067Y400036D01*
X322312Y399962D01*
X325546Y399643D01*
X325674Y399655D01*
X325800Y399630D01*
X325926Y399655D01*
X326054Y399643D01*
X329288Y399962D01*
X329533Y400036D01*
X329786Y400061D01*
X332897Y401004D01*
X333122Y401124D01*
X333366Y401198D01*
X336232Y402730D01*
X336429Y402892D01*
X336654Y403013D01*
X339167Y405074D01*
X339328Y405272D01*
X339526Y405433D01*
X341587Y407946D01*
X341708Y408171D01*
X341870Y408368D01*
X343402Y411234D01*
X343476Y411479D01*
X343596Y411703D01*
X344539Y414814D01*
X344565Y415067D01*
X344639Y415312D01*
X344957Y418546D01*
X344932Y418800D01*
X344957Y419054D01*
X344639Y422288D01*
X344565Y422533D01*
X344539Y422786D01*
X343596Y425897D01*
X343476Y426122D01*
X343402Y426366D01*
X341870Y429232D01*
X341708Y429429D01*
X341587Y429654D01*
X339526Y432167D01*
X339328Y432328D01*
X339167Y432526D01*
X336654Y434588D01*
X336429Y434708D01*
X336232Y434870D01*
X333366Y436402D01*
X333121Y436476D01*
X332897Y436596D01*
X329786Y437539D01*
X329533Y437565D01*
X329288Y437639D01*
X326054Y437957D01*
X325926Y437944D01*
X325800Y437970D01*
D02*
G37*
G36*
X1045800D02*
X1045674Y437944D01*
X1045546Y437957D01*
X1042312Y437639D01*
X1042067Y437565D01*
X1041814Y437539D01*
X1038703Y436596D01*
X1038478Y436476D01*
X1038234Y436402D01*
X1035368Y434870D01*
X1035171Y434708D01*
X1034946Y434588D01*
X1032433Y432526D01*
X1032271Y432328D01*
X1032074Y432167D01*
X1030013Y429654D01*
X1029892Y429429D01*
X1029730Y429232D01*
X1028198Y426366D01*
X1028124Y426121D01*
X1028004Y425897D01*
X1027060Y422786D01*
X1027036Y422533D01*
X1026961Y422288D01*
X1026643Y419054D01*
X1026668Y418800D01*
X1026643Y418546D01*
X1026961Y415312D01*
X1027036Y415067D01*
X1027060Y414814D01*
X1028004Y411703D01*
X1028124Y411478D01*
X1028198Y411234D01*
X1029730Y408368D01*
X1029892Y408171D01*
X1030013Y407946D01*
X1032074Y405433D01*
X1032271Y405272D01*
X1032433Y405074D01*
X1034946Y403013D01*
X1035171Y402892D01*
X1035368Y402730D01*
X1038234Y401198D01*
X1038478Y401124D01*
X1038703Y401004D01*
X1041814Y400061D01*
X1042067Y400036D01*
X1042312Y399962D01*
X1045546Y399643D01*
X1045674Y399655D01*
X1045800Y399630D01*
X1045926Y399655D01*
X1046054Y399643D01*
X1049288Y399962D01*
X1049532Y400036D01*
X1049786Y400061D01*
X1052897Y401004D01*
X1053122Y401124D01*
X1053366Y401198D01*
X1056232Y402730D01*
X1056429Y402892D01*
X1056654Y403013D01*
X1059167Y405074D01*
X1059328Y405272D01*
X1059526Y405433D01*
X1061588Y407946D01*
X1061708Y408171D01*
X1061870Y408368D01*
X1063402Y411234D01*
X1063476Y411479D01*
X1063596Y411703D01*
X1064539Y414814D01*
X1064565Y415067D01*
X1064639Y415312D01*
X1064957Y418546D01*
X1064932Y418800D01*
X1064957Y419054D01*
X1064639Y422288D01*
X1064565Y422533D01*
X1064539Y422786D01*
X1063596Y425897D01*
X1063476Y426122D01*
X1063402Y426366D01*
X1061870Y429232D01*
X1061708Y429429D01*
X1061588Y429654D01*
X1059526Y432167D01*
X1059328Y432328D01*
X1059167Y432526D01*
X1056654Y434588D01*
X1056429Y434708D01*
X1056232Y434870D01*
X1053366Y436402D01*
X1053121Y436476D01*
X1052897Y436596D01*
X1049786Y437539D01*
X1049532Y437565D01*
X1049288Y437639D01*
X1046054Y437957D01*
X1045926Y437944D01*
X1045800Y437970D01*
D02*
G37*
G36*
X584500Y294298D02*
X581000D01*
Y290650D01*
X589751D01*
X589719Y290812D01*
X588494Y292644D01*
X586662Y293869D01*
X584500Y294298D01*
D02*
G37*
G36*
X958250Y310068D02*
X950579Y302397D01*
X958250Y294725D01*
X959106Y295841D01*
X960416Y299003D01*
X960863Y302397D01*
X960416Y305791D01*
X959106Y308953D01*
X958250Y310068D01*
D02*
G37*
G36*
X875960Y521211D02*
X869002Y514254D01*
X874129Y509127D01*
X874969Y508566D01*
X875960Y508369D01*
X876951Y508566D01*
X877791Y509127D01*
X882918Y514254D01*
X875960Y521211D01*
D02*
G37*
G36*
X908000Y533000D02*
X897410D01*
Y515000D01*
X897607Y514009D01*
X898169Y513169D01*
X899009Y512607D01*
X900000Y512410D01*
X908000D01*
Y533000D01*
D02*
G37*
G36*
X1002500Y755186D02*
X1000511Y754924D01*
X998657Y754156D01*
X997065Y752935D01*
X995844Y751343D01*
X995076Y749489D01*
X994814Y747500D01*
X995076Y745511D01*
X995844Y743657D01*
X997065Y742065D01*
X998657Y740844D01*
X1000511Y740076D01*
X1002500Y739814D01*
X1004489Y740076D01*
X1006343Y740844D01*
X1007935Y742065D01*
X1009156Y743657D01*
X1009924Y745511D01*
X1010186Y747500D01*
X1009924Y749489D01*
X1009156Y751343D01*
X1007935Y752935D01*
X1006343Y754156D01*
X1004489Y754924D01*
X1002500Y755186D01*
D02*
G37*
G36*
X327251Y513950D02*
X318500D01*
Y510302D01*
X322000D01*
X324162Y510731D01*
X325994Y511956D01*
X327219Y513788D01*
X327251Y513950D01*
D02*
G37*
G36*
X364250Y492340D02*
X357000D01*
Y482000D01*
X366840D01*
Y489750D01*
X366643Y490741D01*
X366081Y491581D01*
X365241Y492143D01*
X364250Y492340D01*
D02*
G37*
G36*
X353000D02*
X345750D01*
X344759Y492143D01*
X343919Y491581D01*
X343357Y490741D01*
X343160Y489750D01*
Y482000D01*
X353000D01*
Y492340D01*
D02*
G37*
G36*
X497340Y514000D02*
X487500D01*
Y504160D01*
X494750D01*
X495741Y504357D01*
X496581Y504919D01*
X497143Y505759D01*
X497340Y506750D01*
Y514000D01*
D02*
G37*
G36*
X452500D02*
X442660D01*
Y506750D01*
X442857Y505759D01*
X443419Y504919D01*
X444259Y504357D01*
X445250Y504160D01*
X452500D01*
Y514000D01*
D02*
G37*
G36*
X937251Y310068D02*
X936395Y308953D01*
X935085Y305791D01*
X934638Y302397D01*
X935085Y299003D01*
X936395Y295841D01*
X937251Y294725D01*
X944922Y302397D01*
X937251Y310068D01*
D02*
G37*
G36*
X479500Y379885D02*
Y369500D01*
X489885D01*
X489717Y370774D01*
X488454Y373824D01*
X486444Y376444D01*
X483824Y378454D01*
X480774Y379717D01*
X479500Y379885D01*
D02*
G37*
G36*
X475500D02*
X474226Y379717D01*
X471176Y378454D01*
X468556Y376444D01*
X466546Y373824D01*
X465283Y370774D01*
X465115Y369500D01*
X475500D01*
Y379885D01*
D02*
G37*
G36*
X898826Y380998D02*
X891868Y374040D01*
X898826Y367082D01*
X903952Y372209D01*
X904514Y373049D01*
X904711Y374040D01*
X904514Y375031D01*
X903952Y375871D01*
X898826Y380998D01*
D02*
G37*
G36*
X443524Y393195D02*
X435328Y385000D01*
X450418Y369911D01*
X456782Y376274D01*
X457343Y377115D01*
X457540Y378106D01*
X457343Y379097D01*
X456782Y379937D01*
X443524Y393195D01*
D02*
G37*
G36*
X414582Y400089D02*
X408218Y393726D01*
X407657Y392885D01*
X407460Y391894D01*
X407657Y390903D01*
X408218Y390063D01*
X421476Y376805D01*
X429672Y385000D01*
X414582Y400089D01*
D02*
G37*
G36*
X909567Y351867D02*
X906554Y351470D01*
X903747Y350307D01*
X901336Y348457D01*
X899486Y346047D01*
X898324Y343240D01*
X897927Y340227D01*
X898324Y337215D01*
X899486Y334407D01*
X901336Y331997D01*
X903747Y330147D01*
X906554Y328984D01*
X909567Y328588D01*
X912579Y328984D01*
X915386Y330147D01*
X917797Y331997D01*
X919647Y334407D01*
X920809Y337215D01*
X921206Y340227D01*
X920809Y343240D01*
X919647Y346047D01*
X917797Y348457D01*
X915386Y350307D01*
X912579Y351470D01*
X909567Y351867D01*
D02*
G37*
G36*
X792500Y342590D02*
X774500D01*
Y332000D01*
X795090D01*
Y340000D01*
X794893Y340991D01*
X794331Y341831D01*
X793491Y342393D01*
X792500Y342590D01*
D02*
G37*
G36*
X883227Y358002D02*
X879953Y357571D01*
X876903Y356307D01*
X874283Y354297D01*
X872273Y351678D01*
X871010Y348627D01*
X870579Y345354D01*
X871010Y342080D01*
X872273Y339030D01*
X874283Y336410D01*
X876903Y334400D01*
X879953Y333136D01*
X883227Y332705D01*
X886500Y333136D01*
X889551Y334400D01*
X892170Y336410D01*
X894181Y339030D01*
X895444Y342080D01*
X895875Y345354D01*
X895444Y348627D01*
X894181Y351678D01*
X892170Y354297D01*
X889551Y356307D01*
X886500Y357571D01*
X883227Y358002D01*
D02*
G37*
G36*
X475500Y365500D02*
X465115D01*
X465283Y364226D01*
X466546Y361176D01*
X468556Y358556D01*
X471176Y356546D01*
X474226Y355283D01*
X475500Y355115D01*
Y365500D01*
D02*
G37*
G36*
X1004250Y451340D02*
X985750D01*
X984759Y451143D01*
X983919Y450581D01*
X983357Y449741D01*
X983160Y448750D01*
Y430250D01*
X983357Y429259D01*
X983919Y428419D01*
X984759Y427857D01*
X985750Y427660D01*
X992538D01*
X992584Y427644D01*
X992633Y427612D01*
X992744Y427492D01*
X992919Y427205D01*
X993122Y426710D01*
X993313Y425998D01*
X993467Y425079D01*
X993526Y424411D01*
Y377426D01*
X994018Y374949D01*
X995422Y372848D01*
X998206Y370065D01*
X998269Y369990D01*
X998661Y369458D01*
X998988Y368943D01*
X999253Y368446D01*
X999460Y367965D01*
X999615Y367500D01*
X999720Y367046D01*
X999781Y366599D01*
X999791Y366342D01*
X999750Y366036D01*
X1000147Y363024D01*
X1001310Y360217D01*
X1003160Y357806D01*
X1005570Y355956D01*
X1008377Y354794D01*
X1011390Y354397D01*
X1014402Y354794D01*
X1017210Y355956D01*
X1019620Y357806D01*
X1021470Y360217D01*
X1022633Y363024D01*
X1023029Y366036D01*
X1022633Y369049D01*
X1021470Y371856D01*
X1019620Y374267D01*
X1017210Y376117D01*
X1014402Y377279D01*
X1011390Y377676D01*
X1011085Y377636D01*
X1010828Y377646D01*
X1010380Y377706D01*
X1009927Y377812D01*
X1009462Y377966D01*
X1008981Y378174D01*
X1008483Y378439D01*
X1007968Y378766D01*
X1007437Y379158D01*
X1007362Y379221D01*
X1006474Y380108D01*
Y427363D01*
X1006541Y428880D01*
X1006567Y429146D01*
X1006643Y429259D01*
X1006840Y430250D01*
Y448750D01*
X1006643Y449741D01*
X1006081Y450581D01*
X1005241Y451143D01*
X1004250Y451340D01*
D02*
G37*
G36*
X1037553Y373735D02*
X1034279Y373304D01*
X1031229Y372040D01*
X1028609Y370030D01*
X1026599Y367411D01*
X1025336Y364360D01*
X1024905Y361087D01*
X1025336Y357813D01*
X1026599Y354763D01*
X1028609Y352143D01*
X1031229Y350133D01*
X1034279Y348869D01*
X1037553Y348438D01*
X1040826Y348869D01*
X1043877Y350133D01*
X1046497Y352143D01*
X1048507Y354763D01*
X1049770Y357813D01*
X1050201Y361087D01*
X1049770Y364360D01*
X1048507Y367411D01*
X1046497Y370030D01*
X1043877Y372040D01*
X1040826Y373304D01*
X1037553Y373735D01*
D02*
G37*
G36*
X489885Y365500D02*
X479500D01*
Y355115D01*
X480774Y355283D01*
X483824Y356546D01*
X486444Y358556D01*
X488454Y361176D01*
X489717Y364226D01*
X489885Y365500D01*
D02*
G37*
G36*
X930603Y373257D02*
X927590Y372860D01*
X924783Y371697D01*
X922373Y369847D01*
X920523Y367437D01*
X919360Y364630D01*
X918963Y361617D01*
X919360Y358605D01*
X920523Y355797D01*
X922373Y353387D01*
X924783Y351537D01*
X927590Y350374D01*
X930603Y349978D01*
X930899Y350017D01*
X931093Y350008D01*
X931481Y349951D01*
X931889Y349848D01*
X932322Y349694D01*
X932783Y349484D01*
X933271Y349212D01*
X933785Y348874D01*
X934324Y348466D01*
X934626Y348208D01*
X934894Y347911D01*
X935485Y347065D01*
X935866Y346305D01*
X936069Y345626D01*
X936132Y345000D01*
X936069Y344374D01*
X935866Y343695D01*
X935486Y342935D01*
X934894Y342089D01*
X934112Y341221D01*
X914488Y321596D01*
X882787D01*
X881080Y321372D01*
X879489Y320713D01*
X878122Y319664D01*
X877674Y319216D01*
X877502Y319047D01*
X876403Y318051D01*
X876401Y318050D01*
X874578Y319873D01*
X873738Y320434D01*
X872747Y320631D01*
X871756Y320434D01*
X870916Y319873D01*
X857127Y306084D01*
X856566Y305244D01*
X856369Y304253D01*
X856566Y303262D01*
X857127Y302422D01*
X859881Y299668D01*
X859695Y299346D01*
X859381Y298907D01*
X859142Y298623D01*
X828158Y267639D01*
X614628D01*
X602634Y279634D01*
X600966Y280748D01*
X599000Y281139D01*
X588498D01*
X587277Y281173D01*
X586428Y281243D01*
X586206Y281274D01*
X586129Y281289D01*
X586053Y281313D01*
X585790Y281342D01*
X584500Y281598D01*
X573500D01*
X571338Y281169D01*
X569506Y279944D01*
X568282Y278112D01*
X567851Y275950D01*
X568282Y273788D01*
X569506Y271956D01*
X571338Y270731D01*
X573500Y270301D01*
X584500D01*
X585844Y270569D01*
X586097Y270601D01*
X586229Y270645D01*
X589634Y270861D01*
X596871D01*
X608866Y258866D01*
X610533Y257752D01*
X612500Y257361D01*
X830287D01*
X832253Y257752D01*
X833921Y258866D01*
X866410Y291355D01*
X866694Y291594D01*
X867133Y291908D01*
X867455Y292094D01*
X870209Y289340D01*
X871049Y288779D01*
X872040Y288582D01*
X873031Y288779D01*
X873871Y289340D01*
X887660Y303129D01*
X888221Y303969D01*
X888418Y304960D01*
X888221Y305951D01*
X887660Y306791D01*
X887221Y307230D01*
X887707Y308404D01*
X917220D01*
X918927Y308628D01*
X920518Y309287D01*
X921884Y310336D01*
X943441Y331892D01*
X944309Y332674D01*
X945155Y333265D01*
X945916Y333646D01*
X946594Y333849D01*
X947220Y333912D01*
X947846Y333849D01*
X948524Y333646D01*
X949285Y333265D01*
X950131Y332674D01*
X950999Y331892D01*
X954594Y328297D01*
X954980Y327891D01*
X955459Y327331D01*
X955866Y326793D01*
X956205Y326278D01*
X956477Y325790D01*
X956687Y325329D01*
X956841Y324896D01*
X956944Y324488D01*
X957001Y324100D01*
X957009Y323907D01*
X956970Y323610D01*
X957367Y320598D01*
X958530Y317790D01*
X960379Y315380D01*
X962790Y313530D01*
X965597Y312367D01*
X968610Y311971D01*
X971622Y312367D01*
X974430Y313530D01*
X976840Y315380D01*
X978690Y317790D01*
X979853Y320598D01*
X980249Y323610D01*
X980210Y323907D01*
X980219Y324100D01*
X980276Y324488D01*
X980379Y324896D01*
X980533Y325329D01*
X980743Y325790D01*
X981015Y326278D01*
X981353Y326793D01*
X981761Y327331D01*
X982239Y327891D01*
X982625Y328297D01*
X985313Y330985D01*
X985719Y331371D01*
X986279Y331849D01*
X986817Y332257D01*
X987332Y332595D01*
X987820Y332867D01*
X988281Y333077D01*
X988714Y333231D01*
X989122Y333334D01*
X989510Y333391D01*
X989704Y333400D01*
X990000Y333360D01*
X993012Y333757D01*
X995820Y334920D01*
X998230Y336770D01*
X1000080Y339180D01*
X1001243Y341987D01*
X1001639Y345000D01*
X1001243Y348013D01*
X1000080Y350820D01*
X998230Y353230D01*
X995820Y355080D01*
X993012Y356243D01*
X990000Y356640D01*
X986987Y356243D01*
X984180Y355080D01*
X981769Y353230D01*
X979920Y350820D01*
X978757Y348013D01*
X978360Y345000D01*
X978399Y344704D01*
X978391Y344510D01*
X978334Y344122D01*
X978231Y343714D01*
X978077Y343281D01*
X977867Y342820D01*
X977595Y342332D01*
X977256Y341817D01*
X976849Y341279D01*
X976370Y340719D01*
X975985Y340313D01*
X973297Y337626D01*
X972891Y337240D01*
X972331Y336761D01*
X971793Y336354D01*
X971278Y336015D01*
X970790Y335743D01*
X970329Y335533D01*
X969896Y335379D01*
X969488Y335276D01*
X969100Y335219D01*
X968906Y335211D01*
X968610Y335250D01*
X968314Y335211D01*
X968120Y335219D01*
X967732Y335276D01*
X967324Y335379D01*
X966891Y335533D01*
X966430Y335743D01*
X965942Y336015D01*
X965427Y336354D01*
X964889Y336761D01*
X964329Y337239D01*
X963923Y337625D01*
X951884Y349664D01*
X944618Y356930D01*
X944232Y357336D01*
X943754Y357896D01*
X943346Y358434D01*
X943008Y358949D01*
X942736Y359437D01*
X942526Y359898D01*
X942372Y360331D01*
X942269Y360739D01*
X942212Y361127D01*
X942204Y361321D01*
X942243Y361617D01*
X941846Y364630D01*
X940683Y367437D01*
X938833Y369847D01*
X936423Y371697D01*
X933615Y372860D01*
X930603Y373257D01*
D02*
G37*
G36*
X432500Y382172D02*
X424305Y373976D01*
X437563Y360718D01*
X438403Y360157D01*
X439394Y359960D01*
X440385Y360157D01*
X441226Y360718D01*
X447589Y367082D01*
X432500Y382172D01*
D02*
G37*
G36*
X889040Y371211D02*
X882082Y364254D01*
X887209Y359127D01*
X888049Y358566D01*
X889040Y358369D01*
X890031Y358566D01*
X890871Y359127D01*
X895998Y364254D01*
X889040Y371211D01*
D02*
G37*
G36*
X752500Y423000D02*
X742660D01*
Y415750D01*
X742857Y414759D01*
X743419Y413919D01*
X744259Y413357D01*
X745250Y413160D01*
X752500D01*
Y423000D01*
D02*
G37*
G36*
X940000Y781090D02*
X920000D01*
X919009Y780893D01*
X918169Y780331D01*
X917607Y779491D01*
X917410Y778500D01*
Y766500D01*
X917607Y765509D01*
X918169Y764669D01*
X919009Y764107D01*
X920000Y763910D01*
X940000D01*
X940991Y764107D01*
X941831Y764669D01*
X942393Y765509D01*
X942590Y766500D01*
Y778500D01*
X942393Y779491D01*
X941831Y780331D01*
X940991Y780893D01*
X940000Y781090D01*
D02*
G37*
G36*
X495000Y781090D02*
X475000D01*
X474009Y780893D01*
X473169Y780331D01*
X472607Y779491D01*
X472410Y778500D01*
Y766500D01*
X472607Y765509D01*
X473169Y764669D01*
X474009Y764107D01*
X475000Y763910D01*
X495000D01*
X495991Y764107D01*
X496831Y764669D01*
X497393Y765509D01*
X497590Y766500D01*
Y778500D01*
X497393Y779491D01*
X496831Y780331D01*
X495991Y780893D01*
X495000Y781090D01*
D02*
G37*
G36*
X766340Y423000D02*
X756500D01*
Y413160D01*
X763750D01*
X764741Y413357D01*
X765581Y413919D01*
X766143Y414759D01*
X766340Y415750D01*
Y423000D01*
D02*
G37*
G36*
X763750Y436840D02*
X756500D01*
Y427000D01*
X766340D01*
Y434250D01*
X766143Y435241D01*
X765581Y436081D01*
X764741Y436643D01*
X763750Y436840D01*
D02*
G37*
G36*
X752500D02*
X745250D01*
X744259Y436643D01*
X743419Y436081D01*
X742857Y435241D01*
X742660Y434250D01*
Y427000D01*
X752500D01*
Y436840D01*
D02*
G37*
G36*
X968256Y443031D02*
X964983Y442600D01*
X961932Y441337D01*
X959313Y439327D01*
X957303Y436707D01*
X956039Y433657D01*
X955608Y430383D01*
X956039Y427110D01*
X957303Y424059D01*
X959313Y421440D01*
X961932Y419430D01*
X964983Y418166D01*
X968256Y417735D01*
X971530Y418166D01*
X974581Y419430D01*
X977200Y421440D01*
X979210Y424059D01*
X980474Y427110D01*
X980905Y430383D01*
X980474Y433657D01*
X979210Y436707D01*
X977200Y439327D01*
X974581Y441337D01*
X971530Y442600D01*
X968256Y443031D01*
D02*
G37*
G36*
X770500Y328000D02*
X749910D01*
Y320000D01*
X750107Y319009D01*
X750669Y318169D01*
X751509Y317607D01*
X752500Y317410D01*
X770500D01*
Y328000D01*
D02*
G37*
G36*
X795090D02*
X774500D01*
Y317410D01*
X792500D01*
X793491Y317607D01*
X794331Y318169D01*
X794893Y319009D01*
X795090Y320000D01*
Y328000D01*
D02*
G37*
G36*
X781090Y390500D02*
X774500D01*
Y379910D01*
X778500D01*
X779491Y380107D01*
X780331Y380669D01*
X780893Y381509D01*
X781090Y382500D01*
Y390500D01*
D02*
G37*
G36*
X770500D02*
X763910D01*
Y382500D01*
X764107Y381509D01*
X764669Y380669D01*
X765509Y380107D01*
X766500Y379910D01*
X770500D01*
Y390500D01*
D02*
G37*
G36*
X425606Y410040D02*
X424615Y409843D01*
X423774Y409282D01*
X417411Y402918D01*
X432500Y387828D01*
X440695Y396024D01*
X427437Y409282D01*
X426597Y409843D01*
X425606Y410040D01*
D02*
G37*
G36*
X778500Y405090D02*
X774500D01*
Y394500D01*
X781090D01*
Y402500D01*
X780893Y403491D01*
X780331Y404331D01*
X779491Y404893D01*
X778500Y405090D01*
D02*
G37*
G36*
X770500D02*
X766500D01*
X765509Y404893D01*
X764669Y404331D01*
X764107Y403491D01*
X763910Y402500D01*
Y394500D01*
X770500D01*
Y405090D01*
D02*
G37*
G36*
X973206Y415506D02*
X970194Y415110D01*
X967386Y413947D01*
X964976Y412097D01*
X963126Y409687D01*
X961963Y406879D01*
X961567Y403867D01*
X961963Y400854D01*
X963126Y398047D01*
X964976Y395636D01*
X967386Y393787D01*
X970194Y392624D01*
X973206Y392227D01*
X976219Y392624D01*
X979026Y393787D01*
X981437Y395636D01*
X983286Y398047D01*
X984449Y400854D01*
X984846Y403867D01*
X984449Y406879D01*
X983286Y409687D01*
X981437Y412097D01*
X979026Y413947D01*
X976219Y415110D01*
X973206Y415506D01*
D02*
G37*
G36*
X922590Y533000D02*
X912000D01*
Y512410D01*
X920000D01*
X920991Y512607D01*
X921831Y513169D01*
X922393Y514009D01*
X922590Y515000D01*
Y533000D01*
D02*
G37*
G36*
X883820Y290351D02*
X878340Y284871D01*
X877779Y284031D01*
X877582Y283040D01*
X877779Y282049D01*
X878340Y281209D01*
X883467Y276082D01*
X890778Y283393D01*
X883820Y290351D01*
D02*
G37*
G36*
X903746Y290705D02*
X896435Y283393D01*
X903393Y276436D01*
X908873Y281916D01*
X909434Y282756D01*
X909631Y283747D01*
X909434Y284738D01*
X908873Y285578D01*
X903746Y290705D01*
D02*
G37*
G36*
X1012591Y620495D02*
X1002001D01*
Y613905D01*
X1010001D01*
X1010992Y614103D01*
X1011832Y614664D01*
X1012393Y615504D01*
X1012591Y616495D01*
Y620495D01*
D02*
G37*
G36*
X430063Y697122D02*
X429072Y696925D01*
X428231Y696364D01*
X421867Y690000D01*
X436957Y674911D01*
X445152Y683106D01*
X431894Y696364D01*
X431054Y696925D01*
X430063Y697122D01*
D02*
G37*
G36*
X1046840Y633500D02*
X1037000D01*
Y623660D01*
X1044250D01*
X1045241Y623857D01*
X1046081Y624419D01*
X1046643Y625259D01*
X1046840Y626250D01*
Y633500D01*
D02*
G37*
G36*
X1033000D02*
X1023160D01*
Y626250D01*
X1023357Y625259D01*
X1023919Y624419D01*
X1024759Y623857D01*
X1025750Y623660D01*
X1033000D01*
Y633500D01*
D02*
G37*
G36*
X561340Y284500D02*
X551000D01*
Y274660D01*
X558750D01*
X559741Y274857D01*
X560581Y275419D01*
X561143Y276259D01*
X561340Y277250D01*
Y284500D01*
D02*
G37*
G36*
X507649Y308000D02*
X487000D01*
Y277548D01*
X489419Y277786D01*
X493667Y279075D01*
X497583Y281168D01*
X501015Y283985D01*
X503832Y287417D01*
X505925Y291333D01*
X507214Y295581D01*
X507649Y300000D01*
Y308000D01*
D02*
G37*
G36*
X950091Y620495D02*
X939501D01*
Y599905D01*
X947501D01*
X948492Y600103D01*
X949332Y600664D01*
X949893Y601504D01*
X950091Y602495D01*
Y620495D01*
D02*
G37*
G36*
X935501D02*
X924911D01*
Y602495D01*
X925108Y601504D01*
X925669Y600664D01*
X926510Y600103D01*
X927501Y599905D01*
X935501D01*
Y620495D01*
D02*
G37*
G36*
X762715Y727777D02*
X674920D01*
Y703106D01*
X762715D01*
Y727777D01*
D02*
G37*
G36*
X998001Y620495D02*
X987411D01*
Y616495D01*
X987608Y615504D01*
X988170Y614664D01*
X989010Y614103D01*
X990001Y613905D01*
X998001D01*
Y620495D01*
D02*
G37*
G36*
X377905Y354888D02*
X376914Y354691D01*
X376073Y354129D01*
X360871Y338927D01*
X360309Y338086D01*
X360112Y337095D01*
X360309Y336104D01*
X360871Y335264D01*
X378548Y317586D01*
X379389Y317025D01*
X380380Y316828D01*
X381371Y317025D01*
X382211Y317586D01*
X384344Y319720D01*
X384346Y319721D01*
X384437Y319739D01*
X384638Y319731D01*
X385007Y319641D01*
X385545Y319415D01*
X386232Y319018D01*
X387041Y318440D01*
X387954Y317674D01*
X388794Y316877D01*
X400336Y305336D01*
X401702Y304287D01*
X403293Y303628D01*
X405000Y303404D01*
X405630D01*
X405877Y303401D01*
X407351Y303328D01*
Y300000D01*
X407786Y295581D01*
X409075Y291333D01*
X411168Y287417D01*
X413985Y283985D01*
X417417Y281168D01*
X421333Y279075D01*
X425581Y277786D01*
X430000Y277351D01*
X434419Y277786D01*
X438667Y279075D01*
X442583Y281168D01*
X446015Y283985D01*
X448832Y287417D01*
X450925Y291333D01*
X452214Y295581D01*
X452649Y300000D01*
Y320000D01*
X452214Y324419D01*
X450925Y328667D01*
X448832Y332583D01*
X446015Y336015D01*
X442583Y338832D01*
X438667Y340925D01*
X434419Y342214D01*
X430000Y342649D01*
X425581Y342214D01*
X421333Y340925D01*
X417417Y338832D01*
X413985Y336015D01*
X411168Y332583D01*
X409075Y328667D01*
X407786Y324419D01*
X407351Y320000D01*
Y318637D01*
X406178Y318151D01*
X398123Y326206D01*
X397326Y327046D01*
X396561Y327959D01*
X395982Y328768D01*
X395585Y329455D01*
X395359Y329993D01*
X395269Y330362D01*
X395261Y330563D01*
X395279Y330654D01*
X395280Y330656D01*
X397414Y332789D01*
X397975Y333629D01*
X398172Y334620D01*
X397975Y335611D01*
X397414Y336452D01*
X379736Y354129D01*
X378896Y354691D01*
X377905Y354888D01*
D02*
G37*
G36*
X483000Y308000D02*
X462351D01*
Y300000D01*
X462786Y295581D01*
X464075Y291333D01*
X466168Y287417D01*
X468985Y283985D01*
X472417Y281168D01*
X476333Y279075D01*
X480581Y277786D01*
X483000Y277548D01*
Y308000D01*
D02*
G37*
G36*
X893607Y280565D02*
X886295Y273254D01*
X891422Y268127D01*
X892262Y267566D01*
X893253Y267369D01*
X894244Y267566D01*
X895084Y268127D01*
X900564Y273607D01*
X893607Y280565D01*
D02*
G37*
G36*
X1044250Y647340D02*
X1037000D01*
Y637500D01*
X1046840D01*
Y644750D01*
X1046643Y645741D01*
X1046081Y646581D01*
X1045241Y647143D01*
X1044250Y647340D01*
D02*
G37*
G36*
X1033000D02*
X1025750D01*
X1024759Y647143D01*
X1023919Y646581D01*
X1023357Y645741D01*
X1023160Y644750D01*
Y637500D01*
X1033000D01*
Y647340D01*
D02*
G37*
G36*
X436957Y669254D02*
X428762Y661059D01*
X442020Y647800D01*
X442860Y647239D01*
X443851Y647042D01*
X444842Y647239D01*
X445682Y647800D01*
X452046Y654164D01*
X436957Y669254D01*
D02*
G37*
G36*
X495000Y803590D02*
X475000D01*
X474009Y803393D01*
X473169Y802831D01*
X472607Y801991D01*
X472410Y801000D01*
Y800356D01*
X472051Y800259D01*
X471519Y800171D01*
X471149Y800139D01*
X454500D01*
X452997Y799840D01*
X438250D01*
X437259Y799643D01*
X436419Y799081D01*
X435857Y798241D01*
X435660Y797250D01*
Y778750D01*
X435857Y777759D01*
X436419Y776919D01*
X437259Y776357D01*
X438250Y776160D01*
X456750D01*
X457741Y776357D01*
X458581Y776919D01*
X459143Y777759D01*
X459340Y778750D01*
Y789643D01*
X459704Y789741D01*
X460235Y789829D01*
X460604Y789861D01*
X471149D01*
X471519Y789829D01*
X472051Y789741D01*
X472410Y789644D01*
Y789000D01*
X472607Y788009D01*
X473169Y787169D01*
X474009Y786607D01*
X475000Y786410D01*
X495000D01*
X495991Y786607D01*
X496831Y787169D01*
X497393Y788009D01*
X497590Y789000D01*
Y789644D01*
X497949Y789741D01*
X498481Y789829D01*
X498851Y789861D01*
X502872D01*
X504861Y787871D01*
Y737129D01*
X466366Y698634D01*
X465252Y696966D01*
X464861Y695000D01*
Y682129D01*
X461366Y678634D01*
X460252Y676966D01*
X459861Y675000D01*
Y670056D01*
X458688Y669570D01*
X447980Y680277D01*
X439785Y672082D01*
X454875Y656993D01*
X458688Y660806D01*
X459861Y660320D01*
Y625000D01*
X460252Y623033D01*
X461366Y621366D01*
X464861Y617872D01*
Y528914D01*
X463750Y527840D01*
X456500D01*
Y516000D01*
Y504160D01*
X463750D01*
X464861Y503086D01*
Y492128D01*
X461366Y488634D01*
X460252Y486967D01*
X459861Y485000D01*
Y435000D01*
X460252Y433033D01*
X461366Y431366D01*
X516366Y376366D01*
X526366Y366366D01*
X528033Y365252D01*
X530000Y364861D01*
X580086D01*
X581160Y363750D01*
Y345250D01*
X581357Y344259D01*
X581919Y343419D01*
X582759Y342857D01*
X583750Y342660D01*
X586597D01*
X587123Y341390D01*
X576366Y330634D01*
X575252Y328966D01*
X574861Y327000D01*
Y320925D01*
X574829Y320553D01*
X574740Y320019D01*
X574655Y319699D01*
X573500D01*
X571338Y319269D01*
X569506Y318044D01*
X568282Y316212D01*
X567851Y314050D01*
X568282Y311888D01*
X569506Y310056D01*
X571338Y308831D01*
X573500Y308402D01*
X584500D01*
X586662Y308831D01*
X588494Y310056D01*
X589719Y311888D01*
X590149Y314050D01*
X589719Y316212D01*
X588494Y318044D01*
X586662Y319269D01*
X585397Y319520D01*
X585362Y319607D01*
X585260Y319994D01*
X585172Y320537D01*
X585139Y320915D01*
Y324871D01*
X596634Y336366D01*
X597748Y338033D01*
X598139Y340000D01*
Y341391D01*
X598171Y341756D01*
X598259Y342282D01*
X598358Y342653D01*
X598362Y342660D01*
X602250D01*
X603241Y342857D01*
X603591Y343091D01*
X604861Y342474D01*
Y330000D01*
X605252Y328033D01*
X606366Y326366D01*
X622316Y310416D01*
X623983Y309302D01*
X625950Y308911D01*
X628219D01*
X628338Y308831D01*
X630500Y308402D01*
X641500D01*
X643662Y308831D01*
X645494Y310056D01*
X646719Y311888D01*
X647036Y313482D01*
X648365Y313948D01*
X650947Y311366D01*
X652614Y310252D01*
X654581Y309861D01*
X715000D01*
X716966Y310252D01*
X718634Y311366D01*
X749228Y341960D01*
X750214Y341151D01*
X750107Y340991D01*
X749910Y340000D01*
Y332000D01*
X770500D01*
Y342590D01*
X752500D01*
X751509Y342393D01*
X751349Y342286D01*
X750539Y343272D01*
X762129Y354861D01*
X780000D01*
X781966Y355252D01*
X783634Y356366D01*
X798634Y371366D01*
X799748Y373033D01*
X800139Y375000D01*
Y378641D01*
X800171Y379006D01*
X800259Y379532D01*
X800359Y379903D01*
X800361Y379910D01*
X801000D01*
X801991Y380107D01*
X802831Y380669D01*
X803393Y381509D01*
X803590Y382500D01*
Y402500D01*
X803393Y403491D01*
X802831Y404331D01*
X801991Y404893D01*
X801000Y405090D01*
X800356D01*
X800259Y405449D01*
X800171Y405981D01*
X800139Y406351D01*
Y415500D01*
X799748Y417467D01*
X798634Y419134D01*
X797340Y420428D01*
Y434250D01*
X797143Y435241D01*
X796581Y436081D01*
X795741Y436643D01*
X794750Y436840D01*
X776250D01*
X775259Y436643D01*
X774419Y436081D01*
X773857Y435241D01*
X773660Y434250D01*
Y415750D01*
X773857Y414759D01*
X774419Y413919D01*
X775259Y413357D01*
X776250Y413160D01*
X789861D01*
Y406351D01*
X789829Y405981D01*
X789741Y405449D01*
X789644Y405090D01*
X789000D01*
X788009Y404893D01*
X787169Y404331D01*
X786607Y403491D01*
X786410Y402500D01*
Y382500D01*
X786607Y381509D01*
X787169Y380669D01*
X788009Y380107D01*
X789000Y379910D01*
X789639D01*
X789641Y379903D01*
X789741Y379532D01*
X789829Y379006D01*
X789861Y378641D01*
Y377128D01*
X777871Y365139D01*
X760000D01*
X758034Y364748D01*
X756366Y363634D01*
X712871Y320139D01*
X656709D01*
X649214Y327634D01*
X647547Y328748D01*
X645581Y329139D01*
X632128D01*
X625139Y336129D01*
Y370000D01*
X624748Y371967D01*
X623634Y373634D01*
X607634Y389634D01*
X605966Y390748D01*
X604840Y390972D01*
Y394750D01*
X604643Y395741D01*
X604081Y396581D01*
X603241Y397143D01*
X602250Y397340D01*
X583750D01*
X582759Y397143D01*
X581919Y396581D01*
X581357Y395741D01*
X581160Y394750D01*
Y376250D01*
X580086Y375139D01*
X532128D01*
X530920Y376347D01*
X531482Y377486D01*
X532500Y377352D01*
X535774Y377783D01*
X538824Y379046D01*
X541444Y381056D01*
X543454Y383676D01*
X544717Y386726D01*
X545148Y390000D01*
X544717Y393274D01*
X543454Y396324D01*
X541444Y398944D01*
X538824Y400954D01*
X535774Y402217D01*
X532500Y402648D01*
X529226Y402217D01*
X526176Y400954D01*
X523556Y398944D01*
X521546Y396324D01*
X520283Y393274D01*
X519852Y390000D01*
X519986Y388982D01*
X518847Y388420D01*
X470139Y437128D01*
Y482872D01*
X473634Y486366D01*
X474748Y488033D01*
X475139Y490000D01*
Y503086D01*
X476250Y504160D01*
X483500D01*
Y516000D01*
Y527840D01*
X476250D01*
X475139Y528914D01*
Y620000D01*
X474748Y621967D01*
X473634Y623634D01*
X470139Y627128D01*
Y672871D01*
X473634Y676366D01*
X474748Y678034D01*
X475139Y680000D01*
Y692871D01*
X513634Y731366D01*
X514748Y733034D01*
X515139Y735000D01*
Y790000D01*
X514748Y791966D01*
X513634Y793634D01*
X508634Y798634D01*
X506967Y799748D01*
X505000Y800139D01*
X498851D01*
X498481Y800171D01*
X497949Y800259D01*
X497590Y800356D01*
Y801000D01*
X497393Y801991D01*
X496831Y802831D01*
X495991Y803393D01*
X495000Y803590D01*
D02*
G37*
G36*
X419039Y687172D02*
X412675Y680808D01*
X412114Y679967D01*
X411917Y678976D01*
X412114Y677985D01*
X412675Y677145D01*
X425933Y663887D01*
X434128Y672082D01*
X419039Y687172D01*
D02*
G37*
G36*
X947750Y299568D02*
X940079Y291897D01*
X941194Y291041D01*
X944357Y289732D01*
X947750Y289285D01*
X948292Y289356D01*
X948624Y288119D01*
X946376Y287188D01*
X943756Y285177D01*
X941746Y282558D01*
X940483Y279508D01*
X940052Y276234D01*
X940483Y272960D01*
X941746Y269910D01*
X943756Y267290D01*
X946376Y265280D01*
X949426Y264017D01*
X952700Y263586D01*
X955974Y264017D01*
X959024Y265280D01*
X961644Y267290D01*
X963654Y269910D01*
X964917Y272960D01*
X965348Y276234D01*
X964917Y279508D01*
X963654Y282558D01*
X961644Y285177D01*
X959024Y287188D01*
X955974Y288451D01*
X952700Y288882D01*
X952278Y288827D01*
X951946Y290064D01*
X954306Y291041D01*
X955422Y291897D01*
X947750Y299568D01*
D02*
G37*
G36*
X935501Y645085D02*
X927501D01*
X926510Y644888D01*
X925669Y644326D01*
X925108Y643486D01*
X924911Y642495D01*
Y624495D01*
X935501D01*
Y645085D01*
D02*
G37*
G36*
X1010001Y631085D02*
X1002001D01*
Y624495D01*
X1012591D01*
Y628495D01*
X1012393Y629486D01*
X1011832Y630326D01*
X1010992Y630888D01*
X1010001Y631085D01*
D02*
G37*
G36*
X998001D02*
X990001D01*
X989010Y630888D01*
X988170Y630326D01*
X987608Y629486D01*
X987411Y628495D01*
Y624495D01*
X998001D01*
Y631085D01*
D02*
G37*
G36*
X947501Y645085D02*
X939501D01*
Y624495D01*
X950091D01*
Y642495D01*
X949893Y643486D01*
X949332Y644326D01*
X948492Y644888D01*
X947501Y645085D01*
D02*
G37*
G36*
X685800Y636508D02*
X685728Y636494D01*
X685655Y636504D01*
X677244Y636031D01*
X677102Y635995D01*
X676956Y635999D01*
X668651Y634588D01*
X668514Y634536D01*
X668368Y634523D01*
X660273Y632191D01*
X660143Y632124D01*
X659999Y632095D01*
X652216Y628872D01*
X652094Y628790D01*
X651955Y628746D01*
X644582Y624671D01*
X644470Y624576D01*
X644336Y624516D01*
X637466Y619642D01*
X637365Y619535D01*
X637239Y619461D01*
X630958Y613848D01*
X630870Y613730D01*
X630752Y613642D01*
X625139Y607361D01*
X625065Y607235D01*
X624958Y607134D01*
X620084Y600264D01*
X620024Y600130D01*
X619929Y600018D01*
X615854Y592645D01*
X615810Y592505D01*
X615728Y592384D01*
X612505Y584601D01*
X612476Y584457D01*
X612409Y584327D01*
X610077Y576232D01*
X610064Y576086D01*
X610012Y575949D01*
X608601Y567644D01*
X608605Y567498D01*
X608568Y567356D01*
X608096Y558945D01*
X608117Y558800D01*
X608096Y558655D01*
X608568Y550244D01*
X608605Y550102D01*
X608601Y549956D01*
X610012Y541651D01*
X610064Y541514D01*
X610077Y541368D01*
X612409Y533273D01*
X612476Y533143D01*
X612505Y532999D01*
X615728Y525216D01*
X615810Y525094D01*
X615854Y524955D01*
X619929Y517582D01*
X620024Y517470D01*
X620084Y517336D01*
X624958Y510466D01*
X625065Y510365D01*
X625139Y510239D01*
X630752Y503958D01*
X630870Y503870D01*
X630958Y503752D01*
X637239Y498139D01*
X637365Y498065D01*
X637466Y497958D01*
X644336Y493083D01*
X644470Y493024D01*
X644582Y492929D01*
X651955Y488854D01*
X652094Y488810D01*
X652216Y488728D01*
X659999Y485505D01*
X660143Y485476D01*
X660273Y485409D01*
X668368Y483077D01*
X668514Y483064D01*
X668651Y483012D01*
X676956Y481601D01*
X677102Y481605D01*
X677244Y481568D01*
X685655Y481096D01*
X685728Y481106D01*
X685800Y481092D01*
X685872Y481106D01*
X685945Y481096D01*
X694356Y481568D01*
X694498Y481605D01*
X694644Y481601D01*
X702949Y483012D01*
X703086Y483064D01*
X703232Y483077D01*
X711327Y485409D01*
X711457Y485476D01*
X711601Y485505D01*
X719384Y488728D01*
X719506Y488810D01*
X719645Y488854D01*
X727018Y492929D01*
X727130Y493024D01*
X727264Y493083D01*
X734134Y497958D01*
X734235Y498065D01*
X734361Y498139D01*
X740642Y503752D01*
X740730Y503870D01*
X740848Y503958D01*
X746461Y510239D01*
X746535Y510365D01*
X746642Y510466D01*
X751516Y517336D01*
X751576Y517470D01*
X751671Y517582D01*
X755746Y524955D01*
X755790Y525094D01*
X755872Y525216D01*
X759095Y532999D01*
X759124Y533143D01*
X759191Y533273D01*
X761523Y541368D01*
X761536Y541514D01*
X761588Y541651D01*
X762999Y549956D01*
X762995Y550102D01*
X763031Y550244D01*
X763504Y558655D01*
X763483Y558800D01*
X763504Y558945D01*
X763031Y567356D01*
X762995Y567498D01*
X762999Y567644D01*
X761588Y575949D01*
X761536Y576086D01*
X761523Y576232D01*
X759191Y584327D01*
X759124Y584457D01*
X759095Y584601D01*
X755872Y592384D01*
X755790Y592506D01*
X755746Y592645D01*
X751671Y600018D01*
X751576Y600130D01*
X751516Y600264D01*
X746642Y607134D01*
X746535Y607235D01*
X746461Y607361D01*
X740848Y613642D01*
X740730Y613730D01*
X740642Y613848D01*
X734361Y619461D01*
X734235Y619535D01*
X734134Y619642D01*
X727264Y624516D01*
X727130Y624576D01*
X727018Y624671D01*
X719645Y628746D01*
X719505Y628790D01*
X719384Y628872D01*
X711601Y632095D01*
X711457Y632124D01*
X711327Y632191D01*
X703232Y634523D01*
X703086Y634536D01*
X702949Y634588D01*
X694644Y635999D01*
X694498Y635995D01*
X694356Y636031D01*
X685945Y636504D01*
X685872Y636494D01*
X685800Y636508D01*
D02*
G37*
G36*
X886960Y819636D02*
X838134D01*
X836427Y819412D01*
X834836Y818753D01*
X833470Y817704D01*
X832362Y816596D01*
X632000D01*
X630293Y816372D01*
X628702Y815713D01*
X627336Y814664D01*
X616336Y803664D01*
X615287Y802298D01*
X614628Y800707D01*
X614404Y799000D01*
Y668546D01*
X610636Y666146D01*
X601566Y659186D01*
X593137Y651463D01*
X585414Y643034D01*
X578454Y633964D01*
X574288Y627425D01*
X574181Y627314D01*
X574160Y627260D01*
X574122Y627217D01*
X573750Y626581D01*
X572312Y624323D01*
X571950Y623629D01*
X571768Y623342D01*
X570781Y621959D01*
X570473Y621590D01*
X557377D01*
X557188Y622860D01*
X599664Y665336D01*
X600713Y666702D01*
X601372Y668293D01*
X601596Y670000D01*
Y690000D01*
Y745000D01*
X601372Y746707D01*
X600713Y748298D01*
X599664Y749664D01*
X572164Y777164D01*
X570798Y778213D01*
X569207Y778872D01*
X567500Y779097D01*
X565247D01*
X564089Y779127D01*
X562902Y779231D01*
X561920Y779394D01*
X561155Y779599D01*
X560614Y779820D01*
X560290Y780017D01*
X560142Y780154D01*
X560090Y780231D01*
X560090Y780233D01*
Y792500D01*
X559893Y793491D01*
X559331Y794331D01*
X558491Y794893D01*
X557500Y795090D01*
X537500D01*
X536509Y794893D01*
X535669Y794331D01*
X535107Y793491D01*
X534910Y792500D01*
Y752500D01*
X535107Y751509D01*
X535669Y750669D01*
X536509Y750107D01*
X537500Y749910D01*
X557500D01*
X558491Y750107D01*
X559331Y750669D01*
X559893Y751509D01*
X560090Y752500D01*
Y764767D01*
X560090Y764769D01*
X560142Y764846D01*
X560290Y764983D01*
X560614Y765180D01*
X561155Y765401D01*
X561920Y765606D01*
X562902Y765769D01*
X564089Y765873D01*
X564780Y765891D01*
X588404Y742268D01*
Y701942D01*
X588342Y700774D01*
X588163Y699758D01*
X587894Y698951D01*
X587558Y698327D01*
X587160Y697840D01*
X586673Y697442D01*
X586049Y697106D01*
X585242Y696837D01*
X584226Y696658D01*
X583549Y696622D01*
X579712Y696745D01*
X577747Y696929D01*
X576331Y697140D01*
X565659Y703302D01*
X564702Y703627D01*
X563694Y703561D01*
X562788Y703114D01*
X562122Y702354D01*
X562121Y702354D01*
X552872Y686332D01*
X552547Y685376D01*
X552613Y684367D01*
X553060Y683461D01*
X553819Y682795D01*
X553819Y682795D01*
X569841Y673545D01*
X570798Y673220D01*
X571806Y673286D01*
X572712Y673733D01*
X573378Y674493D01*
X573379Y674493D01*
X578158Y682772D01*
X578404Y682848D01*
X579555Y683074D01*
X582939Y683372D01*
X583467Y683382D01*
X584226Y683342D01*
X585242Y683163D01*
X586049Y682894D01*
X586673Y682558D01*
X587160Y682160D01*
X587558Y681673D01*
X587894Y681049D01*
X588163Y680242D01*
X588342Y679226D01*
X588404Y678058D01*
Y672732D01*
X546232Y630561D01*
X545184Y629195D01*
X544525Y627604D01*
X544300Y625897D01*
X544525Y624190D01*
X544739Y623675D01*
Y621786D01*
X544500Y621590D01*
X533718D01*
X533311Y621823D01*
X532203Y622596D01*
X529415Y624958D01*
X528124Y626204D01*
X525856Y628473D01*
X524888Y629484D01*
X523943Y630582D01*
X523212Y631556D01*
X522695Y632385D01*
X522385Y633038D01*
X522294Y633346D01*
X525434Y638786D01*
X526320Y640925D01*
X526622Y643219D01*
X526320Y645514D01*
X525434Y647652D01*
X524025Y649488D01*
X522189Y650897D01*
X511364Y657147D01*
X509226Y658033D01*
X507326Y658283D01*
X506529Y659442D01*
X509843Y665183D01*
X511245Y665072D01*
X512412Y663552D01*
X514248Y662143D01*
X525073Y655893D01*
X527212Y655007D01*
X529506Y654705D01*
X531801Y655007D01*
X533939Y655893D01*
X535775Y657302D01*
X535859Y657410D01*
X536221Y657442D01*
X537281Y657178D01*
X537560Y656614D01*
X537821Y656385D01*
X537833Y656367D01*
X537870Y656342D01*
X538319Y655948D01*
X538319Y655948D01*
X554341Y646698D01*
X555298Y646373D01*
X556306Y646439D01*
X557212Y646886D01*
X557878Y647646D01*
X557879Y647646D01*
X567128Y663668D01*
X567453Y664624D01*
X567387Y665633D01*
X566940Y666539D01*
X566181Y667205D01*
X566181Y667205D01*
X550159Y676455D01*
X549202Y676780D01*
X548194Y676714D01*
X547288Y676267D01*
X546622Y675507D01*
X546107Y674616D01*
X545178Y674593D01*
X544729Y674769D01*
X544535Y675497D01*
X544362Y676372D01*
X544320Y676691D01*
X543434Y678829D01*
X542025Y680665D01*
X540189Y682074D01*
X529364Y688324D01*
X527226Y689210D01*
X524931Y689512D01*
X524859Y689502D01*
X524713Y689560D01*
X524431Y689780D01*
X523814Y690646D01*
X524068Y692580D01*
X524046Y692918D01*
X524068Y693256D01*
X523767Y695540D01*
X523658Y695861D01*
X523592Y696193D01*
X522711Y698322D01*
X522523Y698604D01*
X522373Y698907D01*
X520970Y700735D01*
X520715Y700959D01*
X520492Y701213D01*
X518664Y702616D01*
X518360Y702766D01*
X518079Y702954D01*
X515950Y703836D01*
X515618Y703902D01*
X515297Y704011D01*
X513013Y704311D01*
X512675Y704289D01*
X512337Y704311D01*
X510053Y704011D01*
X509732Y703902D01*
X509400Y703836D01*
X507271Y702954D01*
X506989Y702766D01*
X506686Y702616D01*
X504858Y701213D01*
X504635Y700959D01*
X504380Y700735D01*
X502977Y698907D01*
X502902Y698754D01*
X502789Y698626D01*
X474039Y648829D01*
X473984Y648668D01*
X473889Y648526D01*
X473008Y646397D01*
X472942Y646065D01*
X472833Y645744D01*
X472532Y643460D01*
X472554Y643122D01*
X472532Y642784D01*
X472833Y640499D01*
X472942Y640179D01*
X473008Y639846D01*
X473889Y637718D01*
X474077Y637436D01*
X474227Y637132D01*
X475630Y635305D01*
X475884Y635081D01*
X476108Y634827D01*
X477936Y633424D01*
X478240Y633274D01*
X478521Y633086D01*
X480650Y632204D01*
X480982Y632138D01*
X481303Y632029D01*
X483587Y631729D01*
X483925Y631751D01*
X484263Y631729D01*
X486547Y632029D01*
X486868Y632138D01*
X487200Y632204D01*
X489329Y633086D01*
X489611Y633274D01*
X489914Y633424D01*
X491462Y634612D01*
X492521Y634510D01*
X492852Y634376D01*
X492975Y634278D01*
X493003Y634211D01*
X494412Y632375D01*
X496248Y630966D01*
X507073Y624716D01*
X508222Y624240D01*
X508291Y624184D01*
X508522Y624116D01*
X508613Y624078D01*
X508812Y623979D01*
X508935Y623945D01*
X509212Y623830D01*
X509482Y623795D01*
X509602Y623762D01*
X510316Y623507D01*
X511054Y623185D01*
X511785Y622807D01*
X513438Y621762D01*
X514216Y621182D01*
X515969Y619680D01*
X516582Y619089D01*
X518635Y617037D01*
X521362Y614101D01*
X522383Y612826D01*
X523177Y611689D01*
X523410Y611282D01*
Y600500D01*
X523607Y599509D01*
X524169Y598669D01*
X525009Y598107D01*
X526000Y597910D01*
X544500D01*
X544739Y597715D01*
Y594813D01*
X544566Y594741D01*
X543200Y593693D01*
X542152Y592327D01*
X541493Y590736D01*
X541447Y590386D01*
X541455Y590384D01*
X539989Y583010D01*
X538635Y571575D01*
X538183Y560069D01*
X538635Y548562D01*
X539989Y537127D01*
X542235Y525833D01*
X545361Y514750D01*
X549347Y503947D01*
X554168Y493489D01*
X559794Y483443D01*
X564528Y476357D01*
X558556Y470385D01*
X557297Y470551D01*
X555878Y473007D01*
X555212Y473767D01*
X554306Y474214D01*
X553298Y474280D01*
X552341Y473955D01*
X552341Y473955D01*
X536319Y464705D01*
X535560Y464039D01*
X535113Y463133D01*
X535047Y462124D01*
X535372Y461167D01*
X535372Y461167D01*
X544622Y445146D01*
X545288Y444386D01*
X546194Y443939D01*
X547202Y443873D01*
X548159Y444198D01*
X548159Y444198D01*
X564181Y453448D01*
X564940Y454114D01*
X565387Y455021D01*
X565453Y456029D01*
X565129Y456986D01*
X564664Y457836D01*
X571889Y465061D01*
X573157Y464986D01*
X574284Y463557D01*
X581484Y455767D01*
X582101Y455101D01*
X582367Y454854D01*
X582399Y454886D01*
X583752Y453848D01*
X585343Y453189D01*
X587050Y452964D01*
X595568D01*
X600220Y448312D01*
X600209Y448194D01*
X587127Y435112D01*
X586566Y434272D01*
X586369Y433281D01*
X586566Y432290D01*
X587127Y431450D01*
X587710Y430866D01*
X587184Y429596D01*
X548633D01*
X547164Y431064D01*
X546176Y432097D01*
X545208Y433218D01*
X544460Y434209D01*
X543930Y435052D01*
X543685Y435565D01*
X544320Y437099D01*
X544622Y439394D01*
X544320Y441689D01*
X543434Y443827D01*
X537184Y454652D01*
X535775Y456488D01*
X533939Y457897D01*
X531801Y458783D01*
X529506Y459085D01*
X527212Y458783D01*
X525073Y457897D01*
X514248Y451647D01*
X512412Y450238D01*
X511245Y448718D01*
X509843Y448607D01*
X506529Y454348D01*
X507326Y455507D01*
X509226Y455757D01*
X511364Y456643D01*
X522189Y462893D01*
X524025Y464302D01*
X525434Y466138D01*
X525613Y466570D01*
X525685Y466664D01*
X525729Y466753D01*
X529263Y470757D01*
X529655Y471029D01*
X529911Y471172D01*
X530137Y471061D01*
X530144Y471055D01*
X530157Y471051D01*
X530694Y470786D01*
X531101Y470760D01*
X531110Y470757D01*
X531123Y470758D01*
X531702Y470720D01*
X532076Y470847D01*
X532116Y470851D01*
X532167Y470878D01*
X532659Y471045D01*
X532659Y471045D01*
X548681Y480295D01*
X549440Y480961D01*
X549887Y481867D01*
X549953Y482876D01*
X549628Y483833D01*
X549628Y483833D01*
X540378Y499854D01*
X539712Y500614D01*
X538806Y501061D01*
X537798Y501127D01*
X536841Y500802D01*
X536841Y500802D01*
X520819Y491552D01*
X520060Y490886D01*
X519613Y489979D01*
X519547Y488971D01*
X519871Y488014D01*
X521634Y484962D01*
X521439Y484463D01*
X520731Y484295D01*
X519975Y484460D01*
X519184Y485829D01*
X517775Y487665D01*
X515939Y489074D01*
X513801Y489960D01*
X511506Y490262D01*
X509212Y489960D01*
X507073Y489074D01*
X496248Y482824D01*
X494412Y481415D01*
X493003Y479579D01*
X492975Y479512D01*
X492852Y479414D01*
X492521Y479280D01*
X491462Y479178D01*
X489914Y480366D01*
X489610Y480516D01*
X489329Y480704D01*
X487200Y481586D01*
X486868Y481652D01*
X486547Y481761D01*
X484263Y482061D01*
X483925Y482039D01*
X483587Y482061D01*
X481303Y481761D01*
X480982Y481652D01*
X480650Y481586D01*
X478521Y480704D01*
X478240Y480516D01*
X477936Y480366D01*
X476108Y478963D01*
X475884Y478709D01*
X475630Y478485D01*
X474227Y476657D01*
X474077Y476354D01*
X473889Y476072D01*
X473008Y473943D01*
X472942Y473611D01*
X472833Y473290D01*
X472532Y471006D01*
X472554Y470668D01*
X472532Y470330D01*
X472833Y468046D01*
X472942Y467725D01*
X473008Y467393D01*
X473889Y465264D01*
X473984Y465122D01*
X474039Y464961D01*
X502789Y415164D01*
X502902Y415036D01*
X502977Y414883D01*
X504380Y413055D01*
X504635Y412831D01*
X504858Y412577D01*
X506686Y411174D01*
X506990Y411024D01*
X507271Y410836D01*
X509400Y409954D01*
X509732Y409888D01*
X510053Y409779D01*
X512337Y409479D01*
X512675Y409501D01*
X513013Y409479D01*
X515297Y409779D01*
X515618Y409888D01*
X515950Y409954D01*
X518079Y410836D01*
X518360Y411024D01*
X518664Y411174D01*
X520492Y412577D01*
X520715Y412831D01*
X520970Y413055D01*
X522373Y414883D01*
X522523Y415186D01*
X522711Y415468D01*
X523592Y417597D01*
X523658Y417929D01*
X523767Y418250D01*
X524068Y420534D01*
X524046Y420872D01*
X524068Y421210D01*
X523814Y423144D01*
X524431Y424010D01*
X524713Y424230D01*
X524859Y424287D01*
X524931Y424278D01*
X527226Y424580D01*
X529364Y425466D01*
X531189Y426520D01*
X531296Y426529D01*
X531638Y426486D01*
X532146Y426330D01*
X532807Y426021D01*
X533603Y425535D01*
X534511Y424866D01*
X535517Y424011D01*
X536432Y423139D01*
X541236Y418336D01*
X542602Y417287D01*
X544193Y416628D01*
X545900Y416404D01*
X591759D01*
X593466Y416628D01*
X595057Y417287D01*
X596423Y418336D01*
X596773Y418686D01*
X597078Y418982D01*
X598248Y420017D01*
X598425Y420152D01*
X600209Y418368D01*
X601049Y417807D01*
X602040Y417610D01*
X603031Y417807D01*
X603871Y418368D01*
X616953Y431450D01*
X617071Y431461D01*
X627904Y420628D01*
Y406997D01*
X627873Y405839D01*
X627769Y404652D01*
X627606Y403670D01*
X627401Y402905D01*
X627180Y402364D01*
X626983Y402040D01*
X626846Y401892D01*
X626769Y401841D01*
X626767Y401840D01*
X625250D01*
X624259Y401643D01*
X623419Y401081D01*
X622857Y400241D01*
X622660Y399250D01*
Y380750D01*
X622857Y379759D01*
X623419Y378919D01*
X624259Y378357D01*
X625250Y378160D01*
X643750D01*
X644741Y378357D01*
X645581Y378919D01*
X646143Y379759D01*
X646340Y380750D01*
Y399250D01*
X646143Y400241D01*
X645581Y401081D01*
X644741Y401643D01*
X643750Y401840D01*
X642233D01*
X642231Y401841D01*
X642154Y401892D01*
X642017Y402040D01*
X641820Y402364D01*
X641599Y402905D01*
X641394Y403670D01*
X641231Y404652D01*
X641127Y405839D01*
X641096Y406997D01*
Y422741D01*
X640872Y424448D01*
X640213Y426039D01*
X639164Y427405D01*
X637798Y428454D01*
X637283Y428667D01*
X625780Y440171D01*
X625791Y440289D01*
X638873Y453370D01*
X639434Y454210D01*
X639631Y455201D01*
X639434Y456192D01*
X638873Y457032D01*
X630557Y465349D01*
Y468305D01*
X630332Y470013D01*
X629673Y471604D01*
X628624Y472970D01*
X621792Y479802D01*
X621340Y480255D01*
X620875Y480646D01*
X620875Y480646D01*
X613936Y486936D01*
X607238Y494326D01*
X601296Y502337D01*
X596169Y510891D01*
X591905Y519907D01*
X588545Y529298D01*
X586121Y538973D01*
X584658Y548838D01*
X584168Y558800D01*
X584658Y568762D01*
X586121Y578627D01*
X588545Y588302D01*
X591905Y597693D01*
X596169Y606709D01*
X601296Y615263D01*
X607238Y623274D01*
X613936Y630664D01*
X621326Y637362D01*
X629337Y643304D01*
X633789Y645973D01*
X633747Y646043D01*
X635038Y647033D01*
X639664Y651660D01*
X640713Y653026D01*
X641372Y654617D01*
X641596Y656324D01*
Y787268D01*
X642732Y788404D01*
X649533D01*
X649884Y787635D01*
X649912Y787134D01*
X648233Y785845D01*
X648009Y785590D01*
X647755Y785367D01*
X646352Y783539D01*
X646202Y783235D01*
X646014Y782954D01*
X645133Y780825D01*
X645067Y780493D01*
X644958Y780172D01*
X644657Y777888D01*
X644679Y777550D01*
X644657Y777212D01*
X644958Y774928D01*
X645067Y774607D01*
X645133Y774275D01*
X646014Y772146D01*
X646202Y771865D01*
X646352Y771561D01*
X647755Y769733D01*
X648010Y769509D01*
X648233Y769255D01*
X650061Y767852D01*
X650365Y767702D01*
X650646Y767514D01*
X652449Y766768D01*
X652890Y765800D01*
X652939Y765446D01*
X652916Y765290D01*
X652872Y765233D01*
X651986Y763095D01*
X651684Y760800D01*
Y748300D01*
X651986Y746005D01*
X652872Y743867D01*
X654281Y742031D01*
X656117Y740622D01*
X658255Y739736D01*
X659153Y739618D01*
X659260Y739499D01*
X659466Y739147D01*
X659694Y738568D01*
X659903Y737758D01*
X660068Y736728D01*
X660173Y735487D01*
X660204Y734281D01*
Y690023D01*
X660428Y688316D01*
X661087Y686725D01*
X662136Y685359D01*
X666739Y680756D01*
X666787Y680638D01*
X667836Y679272D01*
X669202Y678224D01*
X670793Y677565D01*
X672500Y677340D01*
X689727D01*
X689790Y677276D01*
X689790Y677276D01*
X689790Y677276D01*
X695362Y677032D01*
X705632Y675680D01*
X715745Y673438D01*
X725624Y670323D01*
X735194Y666359D01*
X744383Y661576D01*
X753119Y656010D01*
X761337Y649705D01*
X768974Y642706D01*
X775973Y635069D01*
X782279Y626851D01*
X787844Y618115D01*
X792627Y608926D01*
X796591Y599356D01*
X799706Y589477D01*
X801948Y579364D01*
X803300Y569094D01*
X803752Y558745D01*
X803300Y548396D01*
X801948Y538126D01*
X799706Y528013D01*
X796591Y518134D01*
X792627Y508564D01*
X787844Y499375D01*
X782279Y490639D01*
X775973Y482421D01*
X768974Y474784D01*
X761337Y467785D01*
X753119Y461479D01*
X744383Y455914D01*
X735194Y451131D01*
X725624Y447167D01*
X715745Y444052D01*
X714105Y443688D01*
X712956Y443433D01*
X712956Y443433D01*
X711856Y442951D01*
X711697Y442885D01*
X711223Y442689D01*
X709857Y441641D01*
X696667Y428451D01*
X695619Y427085D01*
X694960Y425494D01*
X694735Y423787D01*
Y383553D01*
X694704Y382275D01*
X694598Y380948D01*
X694429Y379831D01*
X694212Y378934D01*
X693968Y378269D01*
X693776Y377915D01*
X692117Y377228D01*
X690281Y375819D01*
X688872Y373983D01*
X687986Y371845D01*
X687684Y369550D01*
Y357050D01*
X687986Y354755D01*
X688719Y352985D01*
X688114Y351715D01*
X681486D01*
X680881Y352985D01*
X681614Y354755D01*
X681916Y357050D01*
Y369550D01*
X681614Y371845D01*
X680728Y373983D01*
X679319Y375819D01*
X677483Y377228D01*
X676775Y377521D01*
X676583Y378909D01*
X676611Y378964D01*
X677143Y379759D01*
X677201Y380051D01*
X677202Y380053D01*
X677202Y380060D01*
X677340Y380750D01*
Y399250D01*
X677143Y400241D01*
X676581Y401081D01*
X675741Y401643D01*
X674750Y401840D01*
X656250D01*
X655259Y401643D01*
X654419Y401081D01*
X653857Y400241D01*
X653660Y399250D01*
Y380750D01*
X653857Y379759D01*
X654419Y378919D01*
X655259Y378357D01*
X655533Y378303D01*
X655581Y378214D01*
X655769Y376961D01*
X654281Y375819D01*
X652872Y373983D01*
X651986Y371845D01*
X651684Y369550D01*
Y357050D01*
X651986Y354755D01*
X652872Y352617D01*
X652916Y352560D01*
X652939Y352404D01*
X652890Y352050D01*
X652449Y351082D01*
X650646Y350336D01*
X650365Y350148D01*
X650061Y349998D01*
X648233Y348595D01*
X648009Y348340D01*
X647755Y348117D01*
X646352Y346289D01*
X646202Y345985D01*
X646014Y345704D01*
X645133Y343575D01*
X645067Y343243D01*
X644958Y342922D01*
X644657Y340638D01*
X644679Y340300D01*
X644657Y339962D01*
X644958Y337678D01*
X645067Y337357D01*
X645133Y337025D01*
X646014Y334896D01*
X646202Y334614D01*
X646352Y334311D01*
X647755Y332483D01*
X648009Y332259D01*
X648233Y332005D01*
X650061Y330602D01*
X650365Y330452D01*
X650646Y330264D01*
X652775Y329383D01*
X653107Y329316D01*
X653428Y329208D01*
X655712Y328907D01*
X655882Y328918D01*
X656050Y328885D01*
X713550D01*
X713717Y328918D01*
X713888Y328907D01*
X716172Y329208D01*
X716493Y329316D01*
X716825Y329383D01*
X718954Y330264D01*
X719235Y330452D01*
X719539Y330602D01*
X721367Y332005D01*
X721591Y332260D01*
X721845Y332483D01*
X723248Y334311D01*
X723398Y334614D01*
X723586Y334896D01*
X724467Y337025D01*
X724533Y337357D01*
X724642Y337678D01*
X724943Y339962D01*
X724921Y340300D01*
X724943Y340638D01*
X724642Y342922D01*
X724533Y343243D01*
X724467Y343575D01*
X723586Y345704D01*
X723398Y345986D01*
X723248Y346289D01*
X721845Y348117D01*
X721590Y348340D01*
X721367Y348595D01*
X719539Y349998D01*
X719235Y350148D01*
X718954Y350336D01*
X717151Y351082D01*
X716710Y352050D01*
X716661Y352404D01*
X716684Y352560D01*
X716728Y352617D01*
X717614Y354755D01*
X717732Y355653D01*
X717851Y355760D01*
X718203Y355966D01*
X718782Y356194D01*
X719591Y356403D01*
X720622Y356568D01*
X721863Y356673D01*
X723069Y356704D01*
X739300D01*
X741007Y356928D01*
X742598Y357587D01*
X743964Y358636D01*
X754664Y369336D01*
X755713Y370702D01*
X756372Y372293D01*
X756596Y374000D01*
Y375032D01*
X756608Y375956D01*
X756756Y378363D01*
X756871Y379227D01*
X757007Y379903D01*
X757087Y380172D01*
X757418Y380393D01*
X757437Y380401D01*
X757449Y380414D01*
X757831Y380669D01*
X758127Y381111D01*
X758141Y381126D01*
X758148Y381142D01*
X758393Y381509D01*
X758492Y382010D01*
X758514Y382065D01*
X758513Y382116D01*
X758590Y382500D01*
Y402500D01*
X758393Y403491D01*
X757831Y404331D01*
X756991Y404893D01*
X756000Y405090D01*
X744000D01*
X743009Y404893D01*
X742169Y404331D01*
X741607Y403491D01*
X741410Y402500D01*
Y382500D01*
X741487Y382116D01*
X741486Y382065D01*
X741508Y382010D01*
X741607Y381509D01*
X741852Y381142D01*
X741859Y381126D01*
X741873Y381111D01*
X742169Y380669D01*
X742551Y380414D01*
X742563Y380401D01*
X742582Y380393D01*
X742913Y380172D01*
X742993Y379903D01*
X743117Y379291D01*
X743332Y376661D01*
X736568Y369896D01*
X723069D01*
X721863Y369927D01*
X720622Y370032D01*
X719591Y370197D01*
X718782Y370406D01*
X718203Y370634D01*
X717851Y370840D01*
X717732Y370947D01*
X717614Y371845D01*
X716728Y373983D01*
X715319Y375819D01*
X713483Y377228D01*
X711345Y378114D01*
X709050Y378416D01*
X708924D01*
X708840Y378504D01*
X708652Y378812D01*
X708434Y379355D01*
X708227Y380136D01*
X708064Y381146D01*
X707959Y382372D01*
X707928Y383570D01*
Y421054D01*
X717869Y430995D01*
X719166Y431283D01*
X730146Y434744D01*
X740781Y439150D01*
X750993Y444465D01*
X760702Y450651D01*
X769835Y457659D01*
X778322Y465436D01*
X786099Y473923D01*
X793107Y483056D01*
X799293Y492766D01*
X804608Y502977D01*
X809014Y513612D01*
X812476Y524591D01*
X814967Y535831D01*
X816470Y547244D01*
X816972Y558745D01*
X816470Y570246D01*
X814967Y581659D01*
X812476Y592898D01*
X809014Y603877D01*
X804608Y614513D01*
X799293Y624724D01*
X793107Y634433D01*
X786099Y643566D01*
X778322Y652054D01*
X769835Y659831D01*
X760702Y666839D01*
X750993Y673025D01*
X740781Y678340D01*
X730146Y682746D01*
X719166Y686207D01*
X707927Y688699D01*
X696514Y690202D01*
X690621Y690459D01*
X690058Y690533D01*
X675619D01*
X673396Y692756D01*
Y734281D01*
X673427Y735487D01*
X673532Y736728D01*
X673697Y737758D01*
X673906Y738568D01*
X674134Y739147D01*
X674340Y739499D01*
X674447Y739618D01*
X675345Y739736D01*
X677483Y740622D01*
X679319Y742031D01*
X680728Y743867D01*
X681614Y746005D01*
X681916Y748300D01*
Y760800D01*
X681614Y763095D01*
X680881Y764865D01*
X681486Y766135D01*
X688114D01*
X688719Y764865D01*
X687986Y763095D01*
X687684Y760800D01*
Y748300D01*
X687986Y746005D01*
X688872Y743867D01*
X690281Y742031D01*
X692117Y740622D01*
X694255Y739736D01*
X696550Y739434D01*
X709050D01*
X711345Y739736D01*
X713483Y740622D01*
X715319Y742031D01*
X716728Y743867D01*
X717614Y746005D01*
X717826Y747615D01*
X717834Y747627D01*
X717952Y747736D01*
X718246Y747913D01*
X718757Y748118D01*
X719490Y748311D01*
X720437Y748466D01*
X721127Y748526D01*
X726919D01*
X727591Y748466D01*
X728516Y748313D01*
X729232Y748121D01*
X729732Y747917D01*
X730021Y747741D01*
X730143Y747629D01*
X730160Y747602D01*
Y745750D01*
X730357Y744759D01*
X730919Y743919D01*
X731759Y743357D01*
X732750Y743160D01*
X751250D01*
X752241Y743357D01*
X753081Y743919D01*
X753643Y744759D01*
X753840Y745750D01*
Y764250D01*
X753643Y765241D01*
X753081Y766081D01*
X752241Y766643D01*
X751250Y766840D01*
X732750D01*
X731759Y766643D01*
X730919Y766081D01*
X730357Y765241D01*
X730160Y764250D01*
Y762398D01*
X730143Y762371D01*
X730021Y762259D01*
X729732Y762083D01*
X729232Y761879D01*
X728516Y761687D01*
X727591Y761534D01*
X726919Y761474D01*
X721096D01*
X720389Y761534D01*
X719416Y761690D01*
X718655Y761887D01*
X718114Y762098D01*
X717790Y762288D01*
X717711Y762357D01*
X717614Y763095D01*
X716728Y765233D01*
X716684Y765290D01*
X716661Y765446D01*
X716710Y765800D01*
X717151Y766768D01*
X718954Y767514D01*
X719235Y767702D01*
X719539Y767852D01*
X721367Y769255D01*
X721591Y769510D01*
X721845Y769733D01*
X723248Y771561D01*
X723398Y771865D01*
X723586Y772146D01*
X724467Y774275D01*
X724533Y774607D01*
X724642Y774928D01*
X724943Y777212D01*
X724921Y777550D01*
X724943Y777888D01*
X724642Y780172D01*
X724533Y780493D01*
X724467Y780825D01*
X723586Y782954D01*
X723398Y783235D01*
X723248Y783539D01*
X721845Y785367D01*
X721590Y785591D01*
X721367Y785845D01*
X719688Y787134D01*
X719716Y787635D01*
X720067Y788404D01*
X835000D01*
X836707Y788628D01*
X838298Y789287D01*
X839664Y790336D01*
X845232Y795904D01*
X855736D01*
X856121Y794634D01*
X855669Y794331D01*
X855107Y793491D01*
X854910Y792500D01*
Y764740D01*
X854908Y764734D01*
X854855Y764655D01*
X854706Y764518D01*
X854381Y764320D01*
X853840Y764099D01*
X853075Y763894D01*
X852094Y763731D01*
X850909Y763627D01*
X849753Y763596D01*
X789929D01*
X788816Y763620D01*
X787601Y763706D01*
X786584Y763842D01*
X785778Y764017D01*
X785197Y764208D01*
X784855Y764377D01*
X784808Y764412D01*
X784795Y764474D01*
X784785Y764553D01*
X784772Y764592D01*
X784643Y765241D01*
X784081Y766081D01*
X783241Y766643D01*
X782907Y766709D01*
X782889Y766718D01*
X782849Y766721D01*
X782250Y766840D01*
X763750D01*
X762759Y766643D01*
X761919Y766081D01*
X761357Y765241D01*
X761160Y764250D01*
Y745750D01*
X761357Y744759D01*
X761919Y743919D01*
X762759Y743357D01*
X763750Y743160D01*
X765177D01*
X765186Y743159D01*
X765273Y743129D01*
X765350Y743077D01*
X765486Y742931D01*
X765682Y742610D01*
X765901Y742073D01*
X766106Y741312D01*
X766269Y740336D01*
X766373Y739155D01*
X766404Y738002D01*
Y669583D01*
X766628Y667875D01*
X767287Y666284D01*
X768336Y664918D01*
X778416Y654837D01*
X779304Y653939D01*
Y653939D01*
X779304Y653939D01*
X780222Y653080D01*
X787265Y645460D01*
X790217Y641716D01*
X793752Y637232D01*
X799573Y628520D01*
X804692Y619379D01*
X809079Y609864D01*
X812705Y600034D01*
X815549Y589950D01*
X817593Y579674D01*
X818824Y569269D01*
X819236Y558800D01*
X818824Y548331D01*
X817593Y537926D01*
X815549Y527650D01*
X813957Y522004D01*
X813637Y520871D01*
X813637Y520871D01*
X813637Y520871D01*
X813513Y519678D01*
X813489Y519494D01*
X813421Y518978D01*
Y501156D01*
X813645Y499449D01*
X814304Y497858D01*
X815353Y496492D01*
X819097Y492748D01*
X819901Y491901D01*
X820694Y490959D01*
X821321Y490096D01*
X821785Y489323D01*
X822094Y488654D01*
X822268Y488102D01*
X822332Y487669D01*
X822322Y487335D01*
X822274Y487129D01*
X820371Y483833D01*
X820047Y482876D01*
X820113Y481867D01*
X820560Y480961D01*
X821319Y480295D01*
X821319Y480295D01*
X837341Y471045D01*
X838298Y470720D01*
X839306Y470786D01*
X840212Y471233D01*
X840879Y471993D01*
X840879Y471993D01*
X850128Y488014D01*
X850453Y488971D01*
X850387Y489979D01*
X849940Y490886D01*
X849181Y491552D01*
X849181Y491552D01*
X833159Y500802D01*
X832674Y500967D01*
X832623Y500994D01*
X832582Y500998D01*
X832202Y501127D01*
X831632Y501089D01*
X831617Y501091D01*
X831607Y501088D01*
X831194Y501061D01*
X830665Y500800D01*
X830651Y500795D01*
X830642Y500789D01*
X830423Y500681D01*
X830128Y500848D01*
X829503Y501284D01*
X827746Y502780D01*
X827020Y503482D01*
X826614Y503889D01*
Y518227D01*
X828401Y524565D01*
X830648Y535858D01*
X832001Y547294D01*
X832453Y558800D01*
X832001Y570306D01*
X830648Y581742D01*
X828401Y593036D01*
X825275Y604118D01*
X821290Y614922D01*
X816469Y625379D01*
X810842Y635426D01*
X804445Y645001D01*
X804207Y645303D01*
X806587Y647683D01*
X808174Y647474D01*
X811871Y641069D01*
X812538Y640310D01*
X813444Y639863D01*
X814452Y639797D01*
X815409Y640122D01*
X815409Y640122D01*
X831431Y649371D01*
X832190Y650038D01*
X832637Y650944D01*
X832703Y651952D01*
X832378Y652909D01*
X832378Y652909D01*
X823129Y668931D01*
X822462Y669690D01*
X821556Y670137D01*
X820548Y670203D01*
X819591Y669878D01*
X819591Y669878D01*
X805246Y661596D01*
X804575D01*
X802868Y661372D01*
X801277Y660713D01*
X799911Y659664D01*
X796510Y656264D01*
X795240Y656289D01*
X789499Y662499D01*
X788566Y663363D01*
X788566Y663363D01*
X788565Y663363D01*
X788549Y663363D01*
X779596Y672315D01*
Y738002D01*
X779627Y739155D01*
X779731Y740336D01*
X779894Y741312D01*
X780098Y742073D01*
X780318Y742610D01*
X780514Y742931D01*
X780650Y743077D01*
X780727Y743129D01*
X780814Y743159D01*
X780823Y743160D01*
X782250D01*
X783241Y743357D01*
X784081Y743919D01*
X784643Y744759D01*
X784840Y745750D01*
Y749261D01*
X784842Y749267D01*
X784894Y749345D01*
X785043Y749482D01*
X785368Y749680D01*
X785909Y749901D01*
X786674Y750106D01*
X787655Y750269D01*
X788840Y750373D01*
X789996Y750404D01*
X850167D01*
X853538Y750369D01*
X856052Y750249D01*
X856345Y750217D01*
X856509Y750107D01*
X857500Y749910D01*
X877500D01*
X878491Y750107D01*
X879331Y750669D01*
X879893Y751509D01*
X880090Y752500D01*
Y792500D01*
X879893Y793491D01*
X879696Y793786D01*
X880127Y795181D01*
X880155Y795210D01*
X880399Y795272D01*
X883404Y792268D01*
Y730596D01*
X860313D01*
X858606Y730372D01*
X857015Y729713D01*
X855649Y728664D01*
X834958Y707973D01*
X833910Y706607D01*
X833251Y705016D01*
X833026Y703309D01*
Y692675D01*
X832879Y688986D01*
X832701Y687437D01*
X832455Y686076D01*
X832155Y684938D01*
X831818Y684032D01*
X831468Y683361D01*
X831138Y682914D01*
X830601Y682604D01*
X828765Y681195D01*
X827356Y679359D01*
X826470Y677221D01*
X826168Y674926D01*
X826470Y672631D01*
X827356Y670493D01*
X833606Y659668D01*
X835015Y657832D01*
X836851Y656423D01*
X838989Y655537D01*
X841284Y655235D01*
X843578Y655537D01*
X845717Y656423D01*
X856542Y662673D01*
X858378Y664082D01*
X859545Y665602D01*
X860947Y665713D01*
X864261Y659972D01*
X863464Y658813D01*
X861564Y658563D01*
X859426Y657677D01*
X848601Y651427D01*
X846765Y650018D01*
X845356Y648182D01*
X844470Y646044D01*
X844168Y643749D01*
X844470Y641455D01*
X845356Y639316D01*
X846849Y636729D01*
X846714Y636476D01*
X846404Y636005D01*
X845386Y634794D01*
X843895Y634837D01*
X842758Y634931D01*
X838628Y642084D01*
X837962Y642844D01*
X837056Y643290D01*
X836048Y643357D01*
X835091Y643032D01*
X835091Y643032D01*
X819069Y633782D01*
X818310Y633116D01*
X817863Y632209D01*
X817797Y631201D01*
X818121Y630244D01*
X818121Y630244D01*
X827371Y614223D01*
X828038Y613463D01*
X828944Y613016D01*
X829952Y612950D01*
X830909Y613275D01*
X830909Y613275D01*
X845254Y621557D01*
X848263D01*
X849970Y621782D01*
X851561Y622440D01*
X852927Y623489D01*
X853174Y623735D01*
X853603Y624149D01*
X854204Y624682D01*
X854714Y625086D01*
X854912Y625221D01*
X856989Y624360D01*
X859284Y624058D01*
X861578Y624360D01*
X863717Y625246D01*
X874542Y631496D01*
X876378Y632905D01*
X877787Y634741D01*
X877815Y634808D01*
X877938Y634906D01*
X878269Y635040D01*
X879328Y635142D01*
X880876Y633954D01*
X881180Y633804D01*
X881461Y633616D01*
X883590Y632734D01*
X883922Y632668D01*
X884243Y632559D01*
X886527Y632259D01*
X886865Y632281D01*
X887203Y632259D01*
X889487Y632559D01*
X889808Y632668D01*
X890140Y632734D01*
X892269Y633616D01*
X892551Y633804D01*
X892854Y633954D01*
X894682Y635357D01*
X894906Y635611D01*
X895160Y635835D01*
X896563Y637663D01*
X896712Y637966D01*
X896901Y638248D01*
X897782Y640377D01*
X897849Y640709D01*
X897957Y641030D01*
X898258Y643314D01*
X898236Y643652D01*
X898258Y643990D01*
X897957Y646274D01*
X897849Y646595D01*
X897782Y646927D01*
X896901Y649056D01*
X896806Y649198D01*
X896751Y649359D01*
X868001Y699156D01*
X867888Y699284D01*
X867813Y699437D01*
X866410Y701265D01*
X866155Y701489D01*
X865932Y701743D01*
X864104Y703146D01*
X863800Y703296D01*
X863519Y703484D01*
X861390Y704366D01*
X861058Y704432D01*
X860737Y704541D01*
X858453Y704841D01*
X858115Y704819D01*
X857777Y704841D01*
X855493Y704541D01*
X855172Y704432D01*
X854840Y704366D01*
X852711Y703484D01*
X852430Y703296D01*
X852126Y703146D01*
X850298Y701743D01*
X850074Y701489D01*
X849820Y701265D01*
X848417Y699437D01*
X848268Y699134D01*
X848079Y698852D01*
X847489Y697426D01*
X846219Y697679D01*
Y700577D01*
X863046Y717404D01*
X887887D01*
X911188Y694103D01*
X911169Y693913D01*
X898087Y680831D01*
X897526Y679991D01*
X897329Y679000D01*
X897526Y678009D01*
X898087Y677169D01*
X905700Y669556D01*
X905831Y669074D01*
X906069Y667748D01*
X906372Y664115D01*
X906404Y662322D01*
Y571596D01*
X895000D01*
X893293Y571372D01*
X891702Y570713D01*
X890336Y569664D01*
X868708Y548036D01*
X863826Y552918D01*
X855454Y544546D01*
X847082Y536174D01*
X851964Y531292D01*
X842836Y522164D01*
X841787Y520798D01*
X841128Y519207D01*
X840904Y517500D01*
Y508277D01*
X841128Y506570D01*
X841787Y504979D01*
X842836Y503613D01*
X854802Y491647D01*
X854751Y491286D01*
X854580Y490476D01*
X854368Y489749D01*
X854120Y489100D01*
X853839Y488527D01*
X853527Y488023D01*
X853186Y487580D01*
X853173Y487567D01*
X853015Y487445D01*
X852845Y487224D01*
X852714Y487088D01*
X852588Y486889D01*
X852559Y486852D01*
X852394Y486677D01*
X852362Y486595D01*
X851606Y485609D01*
X845356Y474784D01*
X844470Y472645D01*
X844168Y470351D01*
X844470Y468056D01*
X845356Y465918D01*
X846765Y464082D01*
X848601Y462673D01*
X859426Y456423D01*
X861564Y455537D01*
X863464Y455287D01*
X864261Y454128D01*
X860947Y448387D01*
X859545Y448498D01*
X858378Y450018D01*
X856542Y451427D01*
X845717Y457677D01*
X843578Y458563D01*
X841284Y458865D01*
X838989Y458563D01*
X837206Y457824D01*
X836766Y458031D01*
X836001Y458506D01*
X835660Y458761D01*
X835636Y458792D01*
X835166Y459507D01*
X834845Y460110D01*
X834660Y460581D01*
X834587Y460901D01*
X834580Y461069D01*
X834583Y461089D01*
X834629Y461167D01*
X834705Y461394D01*
X834719Y461426D01*
X834724Y461449D01*
X834953Y462124D01*
X834887Y463133D01*
X834440Y464039D01*
X834203Y464247D01*
X834198Y464255D01*
X834178Y464269D01*
X833681Y464705D01*
X833681Y464705D01*
X817659Y473955D01*
X816702Y474280D01*
X815694Y474214D01*
X814788Y473767D01*
X814121Y473007D01*
X814121Y473007D01*
X804872Y456986D01*
X804547Y456029D01*
X804613Y455021D01*
X805060Y454114D01*
X805819Y453448D01*
X805819Y453448D01*
X821841Y444198D01*
X822798Y443873D01*
X823806Y443939D01*
X824712Y444386D01*
X825378Y445146D01*
X826612Y447283D01*
X828054Y447241D01*
X828089Y447184D01*
X828378Y446567D01*
X828522Y446097D01*
X828562Y445783D01*
X828554Y445683D01*
X827356Y443607D01*
X826470Y441469D01*
X826168Y439174D01*
X826470Y436879D01*
X827356Y434741D01*
X828765Y432905D01*
X830601Y431496D01*
X841426Y425246D01*
X843564Y424360D01*
X845859Y424058D01*
X845931Y424067D01*
X846077Y424010D01*
X846359Y423790D01*
X846976Y422924D01*
X846722Y420990D01*
X846744Y420652D01*
X846722Y420314D01*
X847023Y418030D01*
X847132Y417709D01*
X847198Y417377D01*
X848079Y415248D01*
X848268Y414966D01*
X848417Y414663D01*
X849820Y412835D01*
X850074Y412611D01*
X850298Y412357D01*
X852126Y410954D01*
X852430Y410804D01*
X852711Y410616D01*
X854840Y409734D01*
X855172Y409668D01*
X855493Y409559D01*
X857777Y409259D01*
X858115Y409281D01*
X858453Y409259D01*
X860737Y409559D01*
X861058Y409668D01*
X861390Y409734D01*
X863519Y410616D01*
X863801Y410804D01*
X864104Y410954D01*
X865932Y412357D01*
X866155Y412611D01*
X866410Y412835D01*
X867813Y414663D01*
X867888Y414816D01*
X868001Y414944D01*
X896751Y464741D01*
X896806Y464902D01*
X896901Y465044D01*
X897782Y467173D01*
X897849Y467505D01*
X897957Y467826D01*
X898258Y470110D01*
X898236Y470448D01*
X898258Y470786D01*
X897957Y473070D01*
X897849Y473391D01*
X897782Y473723D01*
X896901Y475852D01*
X896712Y476134D01*
X896563Y476437D01*
X895160Y478265D01*
X894906Y478489D01*
X894682Y478743D01*
X892854Y480146D01*
X892551Y480296D01*
X892269Y480484D01*
X890140Y481366D01*
X889808Y481432D01*
X889487Y481541D01*
X887203Y481841D01*
X886865Y481819D01*
X886527Y481841D01*
X884243Y481541D01*
X883922Y481432D01*
X883590Y481366D01*
X881461Y480484D01*
X881179Y480296D01*
X880876Y480146D01*
X879328Y478958D01*
X878269Y479060D01*
X877938Y479194D01*
X877815Y479292D01*
X877787Y479359D01*
X876378Y481195D01*
X874542Y482604D01*
X869139Y485723D01*
X869071Y485842D01*
X868840Y486429D01*
X868616Y487261D01*
X868432Y488287D01*
X868191Y491115D01*
X868168Y492416D01*
Y494206D01*
X867943Y495913D01*
X867284Y497504D01*
X866236Y498870D01*
X854096Y511009D01*
Y514768D01*
X861292Y521964D01*
X866174Y517082D01*
X874546Y525454D01*
X882918Y533826D01*
X878036Y538708D01*
X897101Y557772D01*
X897345Y557710D01*
X897373Y557681D01*
X897805Y556286D01*
X897607Y555991D01*
X897410Y555000D01*
Y537000D01*
X910000D01*
X922590D01*
Y555000D01*
X922393Y555991D01*
X921831Y556831D01*
X921379Y557134D01*
X921764Y558404D01*
X954768D01*
X955398Y557773D01*
X956070Y557084D01*
X956960Y556117D01*
X958441Y554324D01*
X958965Y553590D01*
X959379Y552927D01*
X959670Y552370D01*
X959845Y551939D01*
X959910Y551692D01*
Y551500D01*
X960044Y550829D01*
X960045Y550814D01*
X960048Y550809D01*
X960107Y550509D01*
X960669Y549669D01*
X961509Y549107D01*
X962231Y548964D01*
X962245Y548959D01*
X962251Y548960D01*
X962500Y548910D01*
X965107D01*
X965797Y548624D01*
X967504Y548400D01*
X969211Y548624D01*
X969901Y548910D01*
X982500D01*
X983491Y549107D01*
X984331Y549669D01*
X984893Y550509D01*
X985090Y551500D01*
Y563500D01*
X984893Y564491D01*
X984331Y565331D01*
X983491Y565893D01*
X982500Y566090D01*
X966248D01*
X965741Y566449D01*
X963459Y568402D01*
X962443Y569386D01*
X962164Y569664D01*
X960798Y570713D01*
X959207Y571372D01*
X957500Y571596D01*
X919596D01*
Y662098D01*
X919744Y666094D01*
X919924Y667713D01*
X920169Y669074D01*
X920300Y669556D01*
X927119Y676375D01*
X928872Y676419D01*
X963079Y642212D01*
X963292Y641697D01*
X964340Y640331D01*
X965707Y639282D01*
X967298Y638624D01*
X969005Y638399D01*
X982534D01*
X983457Y638387D01*
X985864Y638239D01*
X986728Y638124D01*
X987404Y637988D01*
X987673Y637908D01*
X987894Y637577D01*
X987902Y637558D01*
X987914Y637546D01*
X988170Y637164D01*
X988612Y636869D01*
X988626Y636854D01*
X988643Y636848D01*
X989010Y636603D01*
X989511Y636503D01*
X989566Y636481D01*
X989617Y636482D01*
X990001Y636405D01*
X1010001D01*
X1010992Y636603D01*
X1011832Y637164D01*
X1012393Y638004D01*
X1012591Y638995D01*
Y650995D01*
X1012393Y651986D01*
X1011832Y652826D01*
X1010992Y653388D01*
X1010001Y653585D01*
X990001D01*
X989616Y653509D01*
X989566Y653509D01*
X989511Y653487D01*
X989010Y653388D01*
X988643Y653143D01*
X988626Y653136D01*
X988612Y653122D01*
X988170Y652826D01*
X987914Y652445D01*
X987902Y652432D01*
X987894Y652413D01*
X987673Y652083D01*
X987404Y652002D01*
X986791Y651879D01*
X983431Y651603D01*
X982534Y651592D01*
X971118D01*
X936747Y685962D01*
X936751Y686008D01*
X949833Y699089D01*
X950394Y699929D01*
X950592Y700920D01*
X950394Y701911D01*
X949833Y702751D01*
X936751Y715833D01*
X936273Y716153D01*
X936236Y716186D01*
X936210Y716195D01*
X935911Y716394D01*
X934920Y716591D01*
X933929Y716394D01*
X933407Y716046D01*
X933363Y716024D01*
X933354Y716018D01*
X932991Y716153D01*
X932441Y716446D01*
X931778Y716888D01*
X929977Y718381D01*
X929212Y719117D01*
X911596Y736732D01*
Y795000D01*
X911372Y796707D01*
X910713Y798298D01*
X909664Y799664D01*
X891624Y817704D01*
X890258Y818753D01*
X888667Y819412D01*
X886960Y819636D01*
D02*
G37*
G36*
X547000Y284500D02*
X536660D01*
Y277250D01*
X536857Y276259D01*
X537419Y275419D01*
X538259Y274857D01*
X539250Y274660D01*
X547000D01*
Y284500D01*
D02*
G37*
G36*
X854040Y561631D02*
X853049Y561434D01*
X852209Y560873D01*
X847082Y555746D01*
X854040Y548789D01*
X860998Y555746D01*
X855871Y560873D01*
X855031Y561434D01*
X854040Y561631D01*
D02*
G37*
G36*
X577000Y294298D02*
X573500D01*
X571338Y293869D01*
X569506Y292644D01*
X568282Y290812D01*
X568249Y290650D01*
X577000D01*
Y294298D01*
D02*
G37*
G36*
X547000Y298340D02*
X539250D01*
X538259Y298143D01*
X537419Y297581D01*
X536857Y296741D01*
X536660Y295750D01*
Y288500D01*
X547000D01*
Y298340D01*
D02*
G37*
G36*
X1014250Y562340D02*
X1007000D01*
Y552500D01*
X1016840D01*
Y559750D01*
X1016643Y560741D01*
X1016081Y561581D01*
X1015241Y562143D01*
X1014250Y562340D01*
D02*
G37*
G36*
X1003000D02*
X995750D01*
X994759Y562143D01*
X993919Y561581D01*
X993357Y560741D01*
X993160Y559750D01*
Y552500D01*
X1003000D01*
Y562340D01*
D02*
G37*
G36*
X893960Y299418D02*
X892969Y299221D01*
X892129Y298660D01*
X886649Y293180D01*
X893607Y286222D01*
X900918Y293533D01*
X895791Y298660D01*
X894951Y299221D01*
X893960Y299418D01*
D02*
G37*
G36*
X985090Y533000D02*
X974500D01*
Y526410D01*
X982500D01*
X983491Y526607D01*
X984331Y527169D01*
X984893Y528009D01*
X985090Y529000D01*
Y533000D01*
D02*
G37*
G36*
X982500Y543590D02*
X974500D01*
Y537000D01*
X985090D01*
Y541000D01*
X984893Y541991D01*
X984331Y542831D01*
X983491Y543393D01*
X982500Y543590D01*
D02*
G37*
G36*
X970500D02*
X962500D01*
X961509Y543393D01*
X960669Y542831D01*
X960107Y541991D01*
X959910Y541000D01*
Y537000D01*
X970500D01*
Y543590D01*
D02*
G37*
G36*
X1003000Y548500D02*
X993160D01*
Y541250D01*
X993357Y540259D01*
X993919Y539419D01*
X994759Y538857D01*
X995750Y538660D01*
X1003000D01*
Y548500D01*
D02*
G37*
G36*
X844254Y552918D02*
X839127Y547791D01*
X838566Y546951D01*
X838369Y545960D01*
X838566Y544969D01*
X839127Y544129D01*
X844254Y539002D01*
X851211Y545960D01*
X844254Y552918D01*
D02*
G37*
G36*
X970500Y533000D02*
X959910D01*
Y529000D01*
X960107Y528009D01*
X960669Y527169D01*
X961509Y526607D01*
X962500Y526410D01*
X970500D01*
Y533000D01*
D02*
G37*
G36*
X1016840Y548500D02*
X1007000D01*
Y538660D01*
X1014250D01*
X1015241Y538857D01*
X1016081Y539419D01*
X1016643Y540259D01*
X1016840Y541250D01*
Y548500D01*
D02*
G37*
G36*
X589751Y286650D02*
X581000D01*
Y283001D01*
X584500D01*
X586662Y283431D01*
X588494Y284656D01*
X589719Y286488D01*
X589751Y286650D01*
D02*
G37*
G36*
X577000D02*
X568249D01*
X568282Y286488D01*
X569506Y284656D01*
X571338Y283431D01*
X573500Y283001D01*
X577000D01*
Y286650D01*
D02*
G37*
G36*
X358000Y603340D02*
X347500D01*
X346509Y603143D01*
X345669Y602581D01*
X345107Y601741D01*
X344910Y600750D01*
Y592000D01*
X358000D01*
Y603340D01*
D02*
G37*
G36*
X372500D02*
X362000D01*
Y592000D01*
X375090D01*
Y600750D01*
X374893Y601741D01*
X374331Y602581D01*
X373491Y603143D01*
X372500Y603340D01*
D02*
G37*
G36*
X322000Y521599D02*
X318500D01*
Y517950D01*
X327251D01*
X327219Y518112D01*
X325994Y519944D01*
X324162Y521169D01*
X322000Y521599D01*
D02*
G37*
G36*
X885746Y530998D02*
X878789Y524040D01*
X885746Y517082D01*
X890873Y522209D01*
X891434Y523049D01*
X891631Y524040D01*
X891434Y525031D01*
X890873Y525871D01*
X885746Y530998D01*
D02*
G37*
G36*
X439750Y606840D02*
X432500D01*
Y597000D01*
X442340D01*
Y604250D01*
X442143Y605241D01*
X441581Y606081D01*
X440741Y606643D01*
X439750Y606840D01*
D02*
G37*
G36*
X452500Y527840D02*
X445250D01*
X444259Y527643D01*
X443419Y527081D01*
X442857Y526241D01*
X442660Y525250D01*
Y518000D01*
X452500D01*
Y527840D01*
D02*
G37*
G36*
X442340Y593000D02*
X432500D01*
Y583160D01*
X439750D01*
X440741Y583357D01*
X441581Y583919D01*
X442143Y584759D01*
X442340Y585750D01*
Y593000D01*
D02*
G37*
G36*
X375090Y588000D02*
X362000D01*
Y576660D01*
X372500D01*
X373491Y576857D01*
X374331Y577419D01*
X374893Y578259D01*
X375090Y579250D01*
Y588000D01*
D02*
G37*
G36*
X358000D02*
X344910D01*
Y579250D01*
X345107Y578259D01*
X345669Y577419D01*
X346509Y576857D01*
X347500Y576660D01*
X358000D01*
Y588000D01*
D02*
G37*
G36*
X1045800Y717970D02*
X1045674Y717944D01*
X1045546Y717957D01*
X1042312Y717638D01*
X1042067Y717564D01*
X1041814Y717540D01*
X1038703Y716596D01*
X1038478Y716476D01*
X1038234Y716402D01*
X1035368Y714870D01*
X1035171Y714708D01*
X1034946Y714587D01*
X1032433Y712526D01*
X1032271Y712328D01*
X1032074Y712167D01*
X1030013Y709654D01*
X1029892Y709429D01*
X1029730Y709232D01*
X1028198Y706366D01*
X1028124Y706122D01*
X1028004Y705897D01*
X1027060Y702786D01*
X1027036Y702533D01*
X1026961Y702288D01*
X1026643Y699054D01*
X1026668Y698800D01*
X1026643Y698546D01*
X1026961Y695312D01*
X1027036Y695068D01*
X1027060Y694814D01*
X1028004Y691703D01*
X1028124Y691478D01*
X1028198Y691234D01*
X1029730Y688368D01*
X1029892Y688171D01*
X1030013Y687946D01*
X1032074Y685433D01*
X1032271Y685272D01*
X1032433Y685074D01*
X1034946Y683012D01*
X1035171Y682892D01*
X1035368Y682730D01*
X1038234Y681198D01*
X1038478Y681124D01*
X1038703Y681004D01*
X1041814Y680061D01*
X1042067Y680035D01*
X1042312Y679961D01*
X1045546Y679643D01*
X1045674Y679656D01*
X1045800Y679630D01*
X1045926Y679656D01*
X1046054Y679643D01*
X1049288Y679961D01*
X1049532Y680035D01*
X1049786Y680061D01*
X1052897Y681004D01*
X1053122Y681124D01*
X1053366Y681198D01*
X1056232Y682730D01*
X1056429Y682892D01*
X1056654Y683012D01*
X1059167Y685074D01*
X1059328Y685272D01*
X1059526Y685433D01*
X1061588Y687946D01*
X1061708Y688171D01*
X1061870Y688368D01*
X1063402Y691234D01*
X1063476Y691479D01*
X1063596Y691703D01*
X1064539Y694814D01*
X1064565Y695068D01*
X1064639Y695312D01*
X1064957Y698546D01*
X1064932Y698800D01*
X1064957Y699054D01*
X1064639Y702288D01*
X1064565Y702533D01*
X1064539Y702786D01*
X1063596Y705897D01*
X1063476Y706122D01*
X1063402Y706366D01*
X1061870Y709232D01*
X1061708Y709429D01*
X1061588Y709654D01*
X1059526Y712167D01*
X1059328Y712328D01*
X1059167Y712526D01*
X1056654Y714587D01*
X1056429Y714708D01*
X1056232Y714870D01*
X1053366Y716402D01*
X1053121Y716476D01*
X1052897Y716596D01*
X1049786Y717540D01*
X1049532Y717564D01*
X1049288Y717638D01*
X1046054Y717957D01*
X1045926Y717944D01*
X1045800Y717970D01*
D02*
G37*
G36*
X494750Y527840D02*
X487500D01*
Y518000D01*
X497340D01*
Y525250D01*
X497143Y526241D01*
X496581Y527081D01*
X495741Y527643D01*
X494750Y527840D01*
D02*
G37*
%LPD*%
G36*
X1005164Y377685D02*
X1005832Y377123D01*
X1006504Y376628D01*
X1007178Y376200D01*
X1007857Y375838D01*
X1008539Y375544D01*
X1009224Y375317D01*
X1009912Y375156D01*
X1010604Y375062D01*
X1011300Y375036D01*
X1002390Y366127D01*
X1002364Y366822D01*
X1002271Y367514D01*
X1002110Y368203D01*
X1001883Y368888D01*
X1001588Y369570D01*
X1001227Y370248D01*
X1000799Y370923D01*
X1000303Y371594D01*
X999741Y372262D01*
X999112Y372926D01*
X1004500Y378315D01*
X1005164Y377685D01*
D02*
G37*
G36*
X1004140Y430207D02*
X1004071Y429978D01*
X1004009Y429597D01*
X1003957Y429064D01*
X1003847Y426549D01*
X1003810Y422663D01*
X996190D01*
X996152Y424111D01*
X996038Y425406D01*
X995847Y426549D01*
X995580Y427540D01*
X995238Y428378D01*
X994818Y429064D01*
X994323Y429597D01*
X993752Y429978D01*
X993104Y430207D01*
X992380Y430283D01*
X1004217D01*
X1004140Y430207D01*
D02*
G37*
G36*
X939630Y360881D02*
X939726Y360233D01*
X939890Y359580D01*
X940123Y358925D01*
X940423Y358267D01*
X940792Y357605D01*
X941230Y356940D01*
X941735Y356272D01*
X942309Y355601D01*
X942951Y354926D01*
X937756Y349732D01*
X947220Y345000D01*
X952877Y333686D01*
X951746Y334705D01*
X950614Y335496D01*
X949483Y336062D01*
X948351Y336402D01*
X947220Y336515D01*
X946089Y336402D01*
X944957Y336062D01*
X943826Y335496D01*
X942695Y334705D01*
X941563Y333686D01*
X935906Y339343D01*
X936925Y340475D01*
X937717Y341606D01*
X938282Y342737D01*
X938622Y343869D01*
X938735Y345000D01*
X938622Y346131D01*
X938282Y347263D01*
X937717Y348394D01*
X936925Y349525D01*
X936437Y350067D01*
X935948Y350485D01*
X935280Y350990D01*
X934615Y351428D01*
X933953Y351797D01*
X933295Y352097D01*
X932640Y352330D01*
X931988Y352494D01*
X931339Y352590D01*
X930693Y352618D01*
X939603Y361527D01*
X939630Y360881D01*
D02*
G37*
G36*
X885615Y312172D02*
X884949Y311491D01*
X883458Y309792D01*
X883131Y309340D01*
X882888Y308945D01*
X882730Y308606D01*
X882657Y308325D01*
X882669Y308101D01*
X882765Y307934D01*
X875720Y314979D01*
X875888Y314882D01*
X876112Y314870D01*
X876393Y314944D01*
X876732Y315101D01*
X877127Y315344D01*
X877579Y315671D01*
X878089Y316083D01*
X879278Y317162D01*
X879958Y317828D01*
X885615Y312172D01*
D02*
G37*
G36*
X989910Y336000D02*
X989264Y335973D01*
X988615Y335877D01*
X987963Y335713D01*
X987308Y335480D01*
X986649Y335179D01*
X985988Y334811D01*
X985323Y334373D01*
X984655Y333868D01*
X983984Y333294D01*
X983309Y332652D01*
X977652Y338309D01*
X978294Y338984D01*
X978868Y339655D01*
X979373Y340323D01*
X979810Y340988D01*
X980179Y341650D01*
X980480Y342308D01*
X980713Y342963D01*
X980877Y343615D01*
X980973Y344264D01*
X981000Y344910D01*
X989910Y336000D01*
D02*
G37*
G36*
X585482Y278778D02*
X585771Y278720D01*
X586143Y278668D01*
X587134Y278586D01*
X590106Y278503D01*
X591055Y278500D01*
X591185Y273500D01*
X590255Y273496D01*
X585854Y273216D01*
X585527Y273141D01*
X585275Y273057D01*
Y278843D01*
X585482Y278778D01*
D02*
G37*
G36*
X962594Y335316D02*
X963265Y334742D01*
X963933Y334237D01*
X964598Y333800D01*
X965259Y333431D01*
X965918Y333130D01*
X966573Y332897D01*
X967225Y332733D01*
X967874Y332637D01*
X968520Y332610D01*
X959610Y323700D01*
X959583Y324346D01*
X959487Y324995D01*
X959323Y325647D01*
X959090Y326302D01*
X958790Y326960D01*
X958420Y327622D01*
X957983Y328287D01*
X957478Y328955D01*
X956904Y329626D01*
X956262Y330301D01*
X961919Y335958D01*
X962594Y335316D01*
D02*
G37*
G36*
X980958Y330301D02*
X980316Y329626D01*
X979742Y328955D01*
X979237Y328287D01*
X978799Y327622D01*
X978430Y326960D01*
X978130Y326302D01*
X977897Y325647D01*
X977733Y324995D01*
X977637Y324346D01*
X977609Y323700D01*
X968700Y332610D01*
X969346Y332637D01*
X969995Y332733D01*
X970647Y332897D01*
X971302Y333130D01*
X971960Y333431D01*
X972622Y333800D01*
X973287Y334237D01*
X973955Y334742D01*
X974626Y335316D01*
X975301Y335958D01*
X980958Y330301D01*
D02*
G37*
G36*
X429594Y307505D02*
X412708Y306000D01*
X410018Y311291D01*
Y305012D01*
X409968Y305200D01*
X409817Y305368D01*
X409566Y305516D01*
X409215Y305644D01*
X408764Y305753D01*
X408212Y305842D01*
X407559Y305911D01*
X405953Y305990D01*
X405000Y306000D01*
Y314000D01*
X405953Y314010D01*
X408212Y314158D01*
X408764Y314247D01*
X409215Y314356D01*
X409566Y314484D01*
X409817Y314632D01*
X409968Y314800D01*
X410018Y314988D01*
Y314050D01*
X410117Y314054D01*
X411415Y314215D01*
X412532Y314484D01*
X413470Y314860D01*
X414229Y315344D01*
X414808Y315936D01*
X415207Y316635D01*
X415427Y317442D01*
X415468Y318356D01*
X415329Y319377D01*
X429594Y307505D01*
D02*
G37*
G36*
X393112Y332127D02*
X392802Y331475D01*
X392662Y330767D01*
X392691Y330002D01*
X392891Y329180D01*
X393261Y328301D01*
X393801Y327365D01*
X394512Y326371D01*
X395392Y325321D01*
X396443Y324214D01*
X390786Y318557D01*
X389679Y319608D01*
X388629Y320488D01*
X387635Y321199D01*
X386699Y321739D01*
X385820Y322109D01*
X384998Y322309D01*
X384233Y322338D01*
X383525Y322198D01*
X382873Y321888D01*
X382279Y321407D01*
X393593Y332721D01*
X393112Y332127D01*
D02*
G37*
G36*
X597525Y345233D02*
X597100Y345083D01*
X596725Y344833D01*
X596400Y344483D01*
X596125Y344033D01*
X595900Y343483D01*
X595725Y342833D01*
X595600Y342083D01*
X595525Y341233D01*
X595500Y340283D01*
X590500D01*
X590475Y341233D01*
X590400Y342083D01*
X590275Y342833D01*
X590100Y343483D01*
X589875Y344033D01*
X589600Y344483D01*
X589275Y344833D01*
X588900Y345083D01*
X588475Y345233D01*
X588000Y345283D01*
X598000D01*
X597525Y345233D01*
D02*
G37*
G36*
X582525Y321080D02*
X582600Y320216D01*
X582725Y319453D01*
X582899Y318792D01*
X583124Y318231D01*
X583399Y317772D01*
X583723Y317415D01*
X584098Y317158D01*
X584522Y317003D01*
X584996Y316949D01*
X575000Y317015D01*
X575475Y317062D01*
X575900Y317211D01*
X576275Y317460D01*
X576600Y317812D01*
X576875Y318264D01*
X577100Y318818D01*
X577275Y319473D01*
X577400Y320229D01*
X577475Y321086D01*
X577500Y322045D01*
X582500D01*
X582525Y321080D01*
D02*
G37*
G36*
X799525Y382483D02*
X799100Y382333D01*
X798725Y382083D01*
X798400Y381733D01*
X798125Y381283D01*
X797900Y380733D01*
X797725Y380083D01*
X797600Y379333D01*
X797525Y378483D01*
X797500Y377533D01*
X792500D01*
X792475Y378483D01*
X792400Y379333D01*
X792275Y380083D01*
X792100Y380733D01*
X791875Y381283D01*
X791600Y381733D01*
X791275Y382083D01*
X790900Y382333D01*
X790475Y382483D01*
X790000Y382533D01*
X800000D01*
X799525Y382483D01*
D02*
G37*
G36*
X528993Y380635D02*
X528642Y380725D01*
X528263Y380742D01*
X527858Y380685D01*
X527426Y380554D01*
X526967Y380351D01*
X526481Y380074D01*
X525968Y379724D01*
X525428Y379300D01*
X524861Y378803D01*
X524268Y378232D01*
X520732Y381768D01*
X521303Y382361D01*
X522224Y383468D01*
X522574Y383981D01*
X522851Y384467D01*
X523054Y384926D01*
X523185Y385358D01*
X523242Y385763D01*
X523225Y386142D01*
X523135Y386493D01*
X528993Y380635D01*
D02*
G37*
G36*
X461717Y792500D02*
X460763Y792475D01*
X459909Y792400D01*
X459156Y792275D01*
X458503Y792100D01*
X457949Y791875D01*
X457496Y791600D01*
X457144Y791275D01*
X456891Y790900D01*
X456739Y790475D01*
X456687Y790000D01*
X456717Y797217D01*
X461717Y797500D01*
Y792500D01*
D02*
G37*
G36*
X494987Y799525D02*
X495138Y799100D01*
X495389Y798725D01*
X495741Y798400D01*
X496194Y798125D01*
X496748Y797900D01*
X497401Y797725D01*
X498156Y797600D01*
X499011Y797525D01*
X499967Y797500D01*
Y792500D01*
X499011Y792475D01*
X498156Y792400D01*
X497401Y792275D01*
X496748Y792100D01*
X496194Y791875D01*
X495741Y791600D01*
X495389Y791275D01*
X495138Y790900D01*
X494987Y790475D01*
X494936Y790000D01*
Y800000D01*
X494987Y799525D01*
D02*
G37*
G36*
X475064Y790000D02*
X475013Y790475D01*
X474862Y790900D01*
X474611Y791275D01*
X474259Y791600D01*
X473806Y791875D01*
X473252Y792100D01*
X472598Y792275D01*
X471844Y792400D01*
X470989Y792475D01*
X470033Y792500D01*
Y797500D01*
X470989Y797525D01*
X471844Y797600D01*
X472598Y797725D01*
X473252Y797900D01*
X473806Y798125D01*
X474259Y798400D01*
X474611Y798725D01*
X474862Y799100D01*
X475013Y799525D01*
X475064Y800000D01*
Y790000D01*
D02*
G37*
G36*
X797525Y406511D02*
X797600Y405656D01*
X797725Y404902D01*
X797900Y404248D01*
X798125Y403694D01*
X798400Y403241D01*
X798725Y402889D01*
X799100Y402638D01*
X799525Y402487D01*
X800000Y402436D01*
X790000D01*
X790475Y402487D01*
X790900Y402638D01*
X791275Y402889D01*
X791600Y403241D01*
X791875Y403694D01*
X792100Y404248D01*
X792275Y404902D01*
X792400Y405656D01*
X792475Y406511D01*
X792500Y407467D01*
X797500D01*
X797525Y406511D01*
D02*
G37*
G36*
X832291Y802134D02*
X831876Y801596D01*
X640000D01*
X638293Y801372D01*
X636702Y800713D01*
X635336Y799664D01*
X630336Y794664D01*
X629287Y793298D01*
X628866Y792282D01*
X627596Y792535D01*
Y796268D01*
X634732Y803404D01*
X831668D01*
X832291Y802134D01*
D02*
G37*
G36*
X961715Y566486D02*
X964148Y564403D01*
X965194Y563663D01*
X966128Y563124D01*
X966948Y562785D01*
X967656Y562646D01*
X968250Y562709D01*
X968731Y562972D01*
X969099Y563437D01*
X962533Y551533D01*
X962476Y552117D01*
X962307Y552759D01*
X962024Y553459D01*
X961628Y554216D01*
X961119Y555030D01*
X960497Y555902D01*
X958913Y557820D01*
X957951Y558864D01*
X956876Y559967D01*
X960329Y567828D01*
X961715Y566486D01*
D02*
G37*
G36*
X780240Y745703D02*
X779560Y745463D01*
X778960Y745063D01*
X778440Y744503D01*
X778000Y743783D01*
X777640Y742903D01*
X777360Y741863D01*
X777160Y740663D01*
X777040Y739303D01*
X777000Y737783D01*
X769000D01*
X768960Y739303D01*
X768840Y740663D01*
X768640Y741863D01*
X768360Y742903D01*
X768000Y743783D01*
X767560Y744503D01*
X767040Y745063D01*
X766440Y745463D01*
X765760Y745703D01*
X765000Y745783D01*
X781000D01*
X780240Y745703D01*
D02*
G37*
G36*
X674033Y742278D02*
X673354Y742028D01*
X672756Y741613D01*
X672237Y741031D01*
X671798Y740283D01*
X671439Y739369D01*
X671159Y738289D01*
X670960Y737042D01*
X670840Y735629D01*
X670800Y734050D01*
X662800D01*
X662760Y735629D01*
X662640Y737042D01*
X662441Y738289D01*
X662161Y739369D01*
X661802Y740283D01*
X661363Y741031D01*
X660844Y741613D01*
X660246Y742028D01*
X659567Y742278D01*
X658809Y742361D01*
X674791D01*
X674033Y742278D01*
D02*
G37*
G36*
X928250Y716449D02*
X930229Y714808D01*
X931112Y714220D01*
X931924Y713787D01*
X932665Y713510D01*
X933335Y713389D01*
X933935Y713422D01*
X934463Y713611D01*
X934920Y713955D01*
X924347Y703339D01*
X924827Y703934D01*
X925137Y704586D01*
X925276Y705295D01*
X925246Y706060D01*
X925046Y706883D01*
X924676Y707762D01*
X924136Y708698D01*
X923427Y709690D01*
X922547Y710740D01*
X921497Y711846D01*
X927154Y717503D01*
X928250Y716449D01*
D02*
G37*
G36*
X898404Y791876D02*
Y734000D01*
X898628Y732293D01*
X899287Y730702D01*
X900336Y729336D01*
X919817Y709855D01*
X920613Y709015D01*
X921378Y708103D01*
X921956Y707294D01*
X922352Y706608D01*
X922579Y706069D01*
X922669Y705700D01*
X922677Y705497D01*
X922658Y705405D01*
X922656Y705400D01*
X920881Y703625D01*
X919095Y703614D01*
X896596Y726113D01*
Y791668D01*
X897866Y792291D01*
X898404Y791876D01*
D02*
G37*
G36*
X865571Y492762D02*
X865604Y490981D01*
X865861Y487947D01*
X866087Y486694D01*
X866377Y485616D01*
X866731Y484715D01*
X867150Y483989D01*
X867634Y483439D01*
X868182Y483065D01*
X868794Y482867D01*
X854585Y485297D01*
X855152Y485889D01*
X855660Y486548D01*
X856108Y487273D01*
X856496Y488065D01*
X856825Y488922D01*
X857094Y489846D01*
X857303Y490837D01*
X857452Y491893D01*
X857542Y493016D01*
X857571Y494206D01*
X865571Y492762D01*
D02*
G37*
G36*
X525938Y482796D02*
X526518Y483349D01*
X531417Y476934D01*
X530081Y475587D01*
X531376Y473333D01*
X531073Y473706D01*
X530685Y473923D01*
X530211Y473983D01*
X529653Y473888D01*
X529009Y473636D01*
X528280Y473227D01*
X527529Y472706D01*
X523558Y468207D01*
X523361Y467807D01*
X518764Y481263D01*
X519102Y480523D01*
X519537Y479994D01*
X520069Y479676D01*
X520698Y479569D01*
X521425Y479672D01*
X522249Y479986D01*
X523058Y480447D01*
X523576Y481310D01*
X524015Y482257D01*
X524299Y483162D01*
X524428Y484025D01*
X524403Y484846D01*
X524223Y485626D01*
X523888Y486364D01*
X525938Y482796D01*
D02*
G37*
G36*
X826004Y500862D02*
X827919Y499232D01*
X828745Y498655D01*
X829485Y498236D01*
X830137Y497975D01*
X830703Y497872D01*
X831181Y497928D01*
X831572Y498142D01*
X831876Y498514D01*
X824388Y485483D01*
X824723Y486221D01*
X824903Y487001D01*
X824928Y487822D01*
X824799Y488685D01*
X824515Y489590D01*
X824076Y490537D01*
X823483Y491525D01*
X822735Y492556D01*
X821833Y493628D01*
X820775Y494741D01*
X824916Y501914D01*
X826004Y500862D01*
D02*
G37*
G36*
X732813Y747380D02*
X732737Y748104D01*
X732507Y748752D01*
X732125Y749323D01*
X731589Y749818D01*
X730901Y750238D01*
X730059Y750580D01*
X729065Y750847D01*
X727917Y751038D01*
X726617Y751152D01*
X725163Y751190D01*
Y758810D01*
X726617Y758848D01*
X727917Y758962D01*
X729065Y759153D01*
X730059Y759420D01*
X730901Y759762D01*
X731589Y760182D01*
X732125Y760677D01*
X732507Y761248D01*
X732737Y761896D01*
X732813Y762620D01*
Y747380D01*
D02*
G37*
G36*
X715057Y761889D02*
X715303Y761243D01*
X715706Y760673D01*
X716266Y760178D01*
X716982Y759760D01*
X717856Y759418D01*
X718886Y759152D01*
X720074Y758962D01*
X721418Y758848D01*
X722920Y758810D01*
Y751190D01*
X721439Y751152D01*
X720116Y751038D01*
X718950Y750847D01*
X717940Y750581D01*
X717088Y750238D01*
X716392Y749819D01*
X715853Y749325D01*
X715471Y748754D01*
X715247Y748106D01*
X715179Y747383D01*
X714968Y762611D01*
X715057Y761889D01*
D02*
G37*
G36*
X856058Y627642D02*
X855817Y627905D01*
X855520Y628057D01*
X855165Y628100D01*
X854754Y628033D01*
X854286Y627857D01*
X853761Y627570D01*
X853179Y627173D01*
X852540Y626667D01*
X851844Y626051D01*
X851092Y625325D01*
X848263Y628153D01*
Y624153D01*
X847560Y624160D01*
X846032Y624253D01*
X845716Y624310D01*
X845498Y624379D01*
X845376Y624460D01*
X845350Y624554D01*
X845422Y624660D01*
X845591Y624780D01*
X840949Y632758D01*
X841086Y632643D01*
X841354Y632540D01*
X841755Y632450D01*
X842288Y632371D01*
X843751Y632250D01*
X846562Y632170D01*
X848484Y634455D01*
X848942Y635151D01*
X849278Y635778D01*
X849492Y636336D01*
X849584Y636826D01*
X849555Y637247D01*
X849404Y637598D01*
X856058Y627642D01*
D02*
G37*
G36*
X520080Y635150D02*
X519757Y634514D01*
X519629Y633794D01*
X519697Y632993D01*
X519960Y632108D01*
X520419Y631141D01*
X521074Y630091D01*
X521924Y628959D01*
X522970Y627743D01*
X524211Y626446D01*
X518662Y620681D01*
X517712Y621598D01*
X515834Y623206D01*
X514906Y623898D01*
X513073Y625057D01*
X512168Y625524D01*
X511270Y625916D01*
X510380Y626234D01*
X509497Y626476D01*
X520599Y635704D01*
X520080Y635150D01*
D02*
G37*
G36*
X542011Y674912D02*
X542297Y673835D01*
X542652Y672783D01*
X543075Y671756D01*
X543567Y670753D01*
X543751Y670430D01*
X544376Y670198D01*
X545115Y670082D01*
X545783Y670151D01*
X546379Y670406D01*
X546902Y670845D01*
X547355Y671470D01*
X545354Y668021D01*
X545451Y667892D01*
X546216Y666988D01*
X547049Y666108D01*
X542947Y658896D01*
X541785Y660002D01*
X541058Y660614D01*
X539659Y658203D01*
X539880Y658739D01*
X539958Y659338D01*
X539893Y659999D01*
X539687Y660723D01*
X539338Y661510D01*
X539066Y661981D01*
X538814Y662122D01*
X537996Y662430D01*
X537264Y662539D01*
X536617Y662449D01*
X536057Y662159D01*
X535582Y661670D01*
X535193Y660982D01*
X536887Y664841D01*
X535460Y666384D01*
X539601Y673556D01*
X540387Y672811D01*
X541793Y676014D01*
X542011Y674912D01*
D02*
G37*
G36*
X921000Y673965D02*
X920240Y673845D01*
X919560Y673485D01*
X918960Y672885D01*
X918440Y672045D01*
X918000Y670965D01*
X917640Y669645D01*
X917360Y668085D01*
X917160Y666285D01*
X917000Y661965D01*
X909000D01*
X908960Y664245D01*
X908640Y668085D01*
X908360Y669645D01*
X908000Y670965D01*
X907560Y672045D01*
X907040Y672885D01*
X906440Y673485D01*
X905760Y673845D01*
X905000Y673965D01*
X921000Y673965D01*
D02*
G37*
G36*
X990034Y639028D02*
X989954Y639402D01*
X989714Y639736D01*
X989314Y640031D01*
X988754Y640287D01*
X988034Y640503D01*
X987154Y640680D01*
X986114Y640818D01*
X983554Y640975D01*
X982034Y640995D01*
Y648995D01*
X983554Y649015D01*
X987154Y649310D01*
X988034Y649487D01*
X988754Y649703D01*
X989314Y649959D01*
X989714Y650254D01*
X989954Y650588D01*
X990034Y650962D01*
Y639028D01*
D02*
G37*
G36*
X527676Y623037D02*
X530621Y620542D01*
X531923Y619634D01*
X533112Y618952D01*
X534186Y618496D01*
X535147Y618267D01*
X535994Y618264D01*
X536727Y618487D01*
X537347Y618937D01*
X526063Y607653D01*
X526513Y608273D01*
X526736Y609006D01*
X526733Y609853D01*
X526504Y610814D01*
X526048Y611888D01*
X525366Y613077D01*
X524458Y614379D01*
X523324Y615794D01*
X520376Y618967D01*
X526033Y624624D01*
X527676Y623037D01*
D02*
G37*
G36*
X628404Y663465D02*
Y659056D01*
X626187Y656840D01*
X619939Y652859D01*
X611992Y646761D01*
X604606Y639994D01*
X597839Y632608D01*
X591740Y624661D01*
X586358Y616213D01*
X581733Y607327D01*
X579383Y601655D01*
X578125Y601936D01*
X578187Y603267D01*
X578336Y604509D01*
X578848Y607095D01*
X579181Y608282D01*
X579584Y609473D01*
X579955Y610404D01*
X583760Y617713D01*
X589283Y626382D01*
X595540Y634537D01*
X602485Y642115D01*
X610063Y649060D01*
X618218Y655317D01*
X623543Y658709D01*
X623495Y658786D01*
X624685Y659698D01*
X625733Y661065D01*
X626057Y661848D01*
X626713Y662702D01*
X627134Y663718D01*
X628404Y663465D01*
D02*
G37*
G36*
X599000Y690000D02*
X591000Y678000D01*
X590920Y679520D01*
X590680Y680880D01*
X590280Y682080D01*
X589720Y683120D01*
X589000Y684000D01*
X588120Y684720D01*
X587080Y685280D01*
X585880Y685680D01*
X584520Y685920D01*
X583512Y685973D01*
X582802Y685960D01*
X579190Y685641D01*
X577770Y685362D01*
X576608Y685004D01*
X575703Y684566D01*
X575056Y684047D01*
X574666Y683450D01*
X574533Y682772D01*
X574658Y682015D01*
X569582Y697974D01*
X569959Y697219D01*
X570584Y696543D01*
X571457Y695947D01*
X572579Y695431D01*
X573949Y694993D01*
X575568Y694636D01*
X577435Y694358D01*
X579550Y694159D01*
X583576Y694030D01*
X584520Y694080D01*
X585880Y694320D01*
X587080Y694720D01*
X588120Y695280D01*
X589000Y696000D01*
X589720Y696880D01*
X590280Y697920D01*
X590680Y699120D01*
X590920Y700480D01*
X591000Y702000D01*
X599000Y690000D01*
D02*
G37*
G36*
X578908Y614167D02*
X578254Y612929D01*
X577669Y611662D01*
X577153Y610368D01*
X576706Y609047D01*
X576327Y607697D01*
X575777Y604915D01*
X575605Y603482D01*
X575467Y600533D01*
X567835Y618937D01*
X568272Y618158D01*
X568802Y617708D01*
X569423Y617585D01*
X570137Y617791D01*
X570943Y618324D01*
X571842Y619186D01*
X572832Y620376D01*
X573916Y621893D01*
X575091Y623739D01*
X576359Y625913D01*
X578908Y614167D01*
D02*
G37*
G36*
X843662Y693181D02*
X843782Y691600D01*
X843981Y690245D01*
X844261Y689118D01*
X844620Y688218D01*
X845058Y687545D01*
X845577Y687100D01*
X846175Y686883D01*
X846854Y686892D01*
X847611Y687129D01*
X831640Y680108D01*
X832397Y680550D01*
X833074Y681176D01*
X833671Y681985D01*
X834189Y682978D01*
X834627Y684154D01*
X834985Y685514D01*
X835264Y687058D01*
X835463Y688786D01*
X835622Y692791D01*
X843622Y694991D01*
X843662Y693181D01*
D02*
G37*
G36*
X705372Y382229D02*
X705491Y380828D01*
X705691Y379597D01*
X705971Y378536D01*
X706331Y377645D01*
X706770Y376924D01*
X707290Y376374D01*
X707890Y375993D01*
X708569Y375782D01*
X709329Y375742D01*
X693346Y374855D01*
X694103Y374984D01*
X694781Y375284D01*
X695379Y375753D01*
X695897Y376392D01*
X696335Y377202D01*
X696694Y378181D01*
X696973Y379331D01*
X697172Y380650D01*
X697292Y382140D01*
X697332Y383800D01*
X705332D01*
X705372Y382229D01*
D02*
G37*
G36*
X755593Y382453D02*
X755259Y382213D01*
X754964Y381813D01*
X754708Y381253D01*
X754492Y380533D01*
X754315Y379653D01*
X754177Y378613D01*
X754020Y376053D01*
X754000Y374533D01*
X746000D01*
X745980Y376053D01*
X745685Y379653D01*
X745508Y380533D01*
X745292Y381253D01*
X745036Y381813D01*
X744741Y382213D01*
X744407Y382453D01*
X744033Y382533D01*
X755967D01*
X755593Y382453D01*
D02*
G37*
G36*
X715072Y370533D02*
X715322Y369854D01*
X715737Y369256D01*
X716319Y368737D01*
X717067Y368298D01*
X717981Y367939D01*
X719061Y367659D01*
X720308Y367460D01*
X721721Y367340D01*
X723300Y367300D01*
Y359300D01*
X721721Y359260D01*
X720308Y359140D01*
X719061Y358941D01*
X717981Y358661D01*
X717067Y358302D01*
X716319Y357863D01*
X715737Y357344D01*
X715322Y356746D01*
X715072Y356067D01*
X714989Y355309D01*
Y371291D01*
X715072Y370533D01*
D02*
G37*
G36*
X670840Y382221D02*
X670960Y380808D01*
X670964Y380783D01*
X674717D01*
X673973Y380703D01*
X673307Y380463D01*
X672719Y380063D01*
X672210Y379503D01*
X671779Y378783D01*
X671547Y378204D01*
X671798Y377567D01*
X672237Y376819D01*
X672756Y376237D01*
X673354Y375822D01*
X674033Y375573D01*
X674791Y375489D01*
X670942D01*
X670839Y374303D01*
X670800Y372783D01*
X662800D01*
X662760Y374303D01*
X662655Y375489D01*
X658809D01*
X659567Y375573D01*
X660246Y375822D01*
X660844Y376237D01*
X661363Y376819D01*
X661802Y377567D01*
X662045Y378185D01*
X661800Y378783D01*
X661360Y379503D01*
X660840Y380063D01*
X660240Y380463D01*
X659560Y380703D01*
X658800Y380783D01*
X662636D01*
X662640Y380808D01*
X662760Y382221D01*
X662800Y383800D01*
X670800D01*
X670840Y382221D01*
D02*
G37*
G36*
X857533Y752533D02*
X857453Y752622D01*
X857213Y752701D01*
X856813Y752771D01*
X856253Y752832D01*
X853613Y752958D01*
X849533Y753000D01*
Y761000D01*
X851057Y761040D01*
X852421Y761160D01*
X853624Y761360D01*
X854668Y761640D01*
X855551Y762000D01*
X856274Y762440D01*
X856837Y762960D01*
X857239Y763560D01*
X857481Y764240D01*
X857563Y765000D01*
X857533Y752533D01*
D02*
G37*
G36*
X541322Y437797D02*
X540990Y437171D01*
X540858Y436459D01*
X540925Y435659D01*
X541192Y434773D01*
X541659Y433799D01*
X542326Y432738D01*
X543192Y431590D01*
X544259Y430354D01*
X545525Y429032D01*
X538439Y424804D01*
X537251Y425936D01*
X536120Y426898D01*
X535048Y427687D01*
X534034Y428306D01*
X533079Y428753D01*
X532183Y429028D01*
X531344Y429132D01*
X530565Y429065D01*
X529844Y428826D01*
X529181Y428416D01*
X541854Y438335D01*
X541322Y437797D01*
D02*
G37*
G36*
X832091Y461870D02*
X831980Y461237D01*
X832010Y460552D01*
X832179Y459815D01*
X832488Y459025D01*
X832937Y458183D01*
X833525Y457289D01*
X833823Y456902D01*
X834538Y456366D01*
X835529Y455750D01*
X836438Y455324D01*
X837266Y455086D01*
X838012Y455037D01*
X838677Y455176D01*
X839261Y455504D01*
X839763Y456021D01*
X830503Y443765D01*
X830885Y444404D01*
X831106Y445098D01*
X831165Y445845D01*
X831063Y446646D01*
X830799Y447501D01*
X830375Y448410D01*
X829788Y449373D01*
X829553Y449692D01*
X829269Y449892D01*
X828433Y450351D01*
X827666Y450635D01*
X826966Y450743D01*
X826335Y450675D01*
X825772Y450431D01*
X825277Y450012D01*
X824851Y449417D01*
X832341Y462450D01*
X832091Y461870D01*
D02*
G37*
G36*
X782297Y763606D02*
X782537Y763059D01*
X782937Y762576D01*
X783497Y762158D01*
X784217Y761804D01*
X785097Y761515D01*
X786137Y761290D01*
X787337Y761129D01*
X788697Y761032D01*
X790217Y761000D01*
Y753000D01*
X788693Y752960D01*
X787329Y752840D01*
X786125Y752640D01*
X785081Y752360D01*
X784198Y752000D01*
X783475Y751560D01*
X782913Y751040D01*
X782510Y750440D01*
X782268Y749760D01*
X782187Y749000D01*
X782217Y764217D01*
X782297Y763606D01*
D02*
G37*
G36*
X577679Y597374D02*
X574887Y588519D01*
X572719Y578739D01*
X571412Y568808D01*
X570975Y558800D01*
X571412Y548792D01*
X572719Y538861D01*
X574887Y529081D01*
X577899Y519527D01*
X581733Y510273D01*
X586358Y501387D01*
X591740Y492939D01*
X597839Y484992D01*
X604606Y477606D01*
X611475Y471311D01*
X611992Y470839D01*
X612441Y470494D01*
X613311Y469626D01*
X617364Y465573D01*
Y465349D01*
X609047Y457032D01*
X608929Y457021D01*
X603607Y462344D01*
X603393Y462859D01*
X602345Y464225D01*
X600979Y465273D01*
X599388Y465932D01*
X597681Y466157D01*
X589866D01*
X584335Y472140D01*
X579878Y477794D01*
X579114Y478809D01*
X579114Y478809D01*
X576884Y481637D01*
X571064Y490349D01*
X565944Y499490D01*
X561558Y509005D01*
X557931Y518835D01*
X555087Y528919D01*
X553043Y539195D01*
X551812Y549599D01*
X551400Y560069D01*
X551812Y570538D01*
X553043Y580943D01*
X554174Y586630D01*
X555252Y587707D01*
X556586Y589705D01*
X557055Y592061D01*
Y597910D01*
X575500D01*
X576491Y598107D01*
X576602Y598182D01*
X577679Y597374D01*
D02*
G37*
G36*
X638540Y405691D02*
X638660Y404326D01*
X638860Y403121D01*
X639140Y402077D01*
X639500Y401194D01*
X639940Y400471D01*
X640460Y399909D01*
X641060Y399508D01*
X641740Y399267D01*
X642500Y399187D01*
X626500D01*
X627260Y399267D01*
X627940Y399508D01*
X628540Y399909D01*
X629060Y400471D01*
X629500Y401194D01*
X629860Y402077D01*
X630140Y403121D01*
X630340Y404326D01*
X630460Y405691D01*
X630500Y407217D01*
X638500D01*
X638540Y405691D01*
D02*
G37*
G36*
X557517Y779740D02*
X557758Y779060D01*
X558159Y778460D01*
X558721Y777940D01*
X559444Y777500D01*
X560327Y777140D01*
X561371Y776860D01*
X562576Y776660D01*
X563941Y776540D01*
X565467Y776500D01*
Y768500D01*
X563941Y768460D01*
X562576Y768340D01*
X561371Y768140D01*
X560327Y767860D01*
X559444Y767500D01*
X558721Y767060D01*
X558159Y766540D01*
X557758Y765940D01*
X557517Y765260D01*
X557436Y764500D01*
Y780500D01*
X557517Y779740D01*
D02*
G37*
G36*
X599308Y423022D02*
X599092Y423161D01*
X598820Y423207D01*
X598490Y423158D01*
X598103Y423014D01*
X597660Y422777D01*
X597159Y422444D01*
X596602Y422018D01*
X595316Y420881D01*
X594587Y420172D01*
X588931Y425828D01*
X589640Y426557D01*
X591203Y428400D01*
X591535Y428901D01*
X591773Y429344D01*
X591917Y429731D01*
X591966Y430061D01*
X591920Y430333D01*
X591781Y430549D01*
X599308Y423022D01*
D02*
G37*
%LPC*%
G36*
X410000Y830186D02*
X408011Y829924D01*
X406157Y829156D01*
X404565Y827935D01*
X403344Y826343D01*
X402576Y824489D01*
X402314Y822500D01*
X402576Y820511D01*
X403344Y818657D01*
X404565Y817065D01*
X406157Y815844D01*
X408011Y815076D01*
X410000Y814814D01*
X411989Y815076D01*
X413843Y815844D01*
X415435Y817065D01*
X416656Y818657D01*
X417424Y820511D01*
X417686Y822500D01*
X417424Y824489D01*
X416656Y826343D01*
X415435Y827935D01*
X413843Y829156D01*
X411989Y829924D01*
X410000Y830186D01*
D02*
G37*
G36*
X394375Y819514D02*
X328839Y753977D01*
X345000Y737816D01*
X410537Y803353D01*
X394375Y819514D01*
D02*
G37*
G36*
X325800Y717970D02*
X325674Y717944D01*
X325546Y717957D01*
X322312Y717638D01*
X322067Y717564D01*
X321814Y717540D01*
X318703Y716596D01*
X318478Y716476D01*
X318234Y716402D01*
X315368Y714870D01*
X315171Y714708D01*
X314946Y714587D01*
X312433Y712526D01*
X312272Y712328D01*
X312074Y712167D01*
X310012Y709654D01*
X309892Y709429D01*
X309730Y709232D01*
X308198Y706366D01*
X308124Y706122D01*
X308004Y705897D01*
X307061Y702786D01*
X307036Y702533D01*
X306961Y702288D01*
X306643Y699054D01*
X306668Y698800D01*
X306643Y698546D01*
X306961Y695312D01*
X307036Y695068D01*
X307061Y694814D01*
X308004Y691703D01*
X308124Y691478D01*
X308198Y691234D01*
X309730Y688368D01*
X309892Y688171D01*
X310012Y687946D01*
X312074Y685433D01*
X312272Y685272D01*
X312433Y685074D01*
X314946Y683012D01*
X315171Y682892D01*
X315368Y682730D01*
X318234Y681198D01*
X318479Y681124D01*
X318703Y681004D01*
X321814Y680061D01*
X322067Y680035D01*
X322312Y679961D01*
X325546Y679643D01*
X325674Y679656D01*
X325800Y679630D01*
X325926Y679656D01*
X326054Y679643D01*
X329288Y679961D01*
X329533Y680035D01*
X329786Y680061D01*
X332897Y681004D01*
X333122Y681124D01*
X333366Y681198D01*
X336232Y682730D01*
X336429Y682892D01*
X336654Y683012D01*
X339167Y685074D01*
X339328Y685272D01*
X339526Y685433D01*
X341587Y687946D01*
X341708Y688171D01*
X341870Y688368D01*
X343402Y691234D01*
X343476Y691479D01*
X343596Y691703D01*
X344539Y694814D01*
X344565Y695068D01*
X344639Y695312D01*
X344957Y698546D01*
X344932Y698800D01*
X344957Y699054D01*
X344639Y702288D01*
X344565Y702533D01*
X344539Y702786D01*
X343596Y705897D01*
X343476Y706122D01*
X343402Y706366D01*
X341870Y709232D01*
X341708Y709429D01*
X341587Y709654D01*
X339526Y712167D01*
X339328Y712328D01*
X339167Y712526D01*
X336654Y714587D01*
X336429Y714708D01*
X336232Y714870D01*
X333366Y716402D01*
X333121Y716476D01*
X332897Y716596D01*
X329786Y717540D01*
X329533Y717564D01*
X329288Y717638D01*
X326054Y717957D01*
X325926Y717944D01*
X325800Y717970D01*
D02*
G37*
%LPD*%
D10*
X620020Y664363D02*
G03*
X571028Y606735I65780J-105563D01*
G01*
X795437Y645862D02*
G03*
X783933Y658649I-109637J-87062D01*
G01*
X820017Y518978D02*
G03*
X795437Y645862I-134217J39822D01*
G01*
X714521Y436976D02*
G03*
X690058Y683937I-29508J121769D01*
G01*
X547864Y589029D02*
G03*
X573836Y474752I136972J-28960D01*
G01*
X573837Y474751D02*
G03*
X587050Y459560I111963J84049D01*
G01*
X630374Y651698D02*
G03*
X616675Y475590I55426J-92898D01*
G01*
X847500Y508277D02*
X861571Y494206D01*
Y472638D02*
Y494206D01*
X847500Y508277D02*
Y517500D01*
X895000Y565000D01*
X595000Y670000D02*
Y690000D01*
X550897Y625897D02*
X595000Y670000D01*
Y690000D02*
Y745000D01*
X575000Y690000D02*
X595000D01*
X567500Y772500D02*
X595000Y745000D01*
X890000Y724000D02*
Y795000D01*
X635000Y790000D02*
X640000Y795000D01*
X635000Y656324D02*
Y790000D01*
X632000Y810000D02*
X835094D01*
X621000Y799000D02*
X632000Y810000D01*
X930000Y795000D02*
Y830000D01*
X640000Y795000D02*
X835000D01*
X910000Y565000D02*
X957500D01*
X895000D02*
X910000D01*
X666800Y355800D02*
Y363300D01*
X1065000Y470000D02*
X1075000Y480000D01*
Y715000D01*
X947220Y345000D02*
X968610Y323610D01*
X917220Y315000D02*
X947220Y345000D01*
X882787Y315000D02*
X917220D01*
X872393Y304607D02*
X882787Y315000D01*
X930603Y361617D02*
Y361617D01*
X990000Y345000D02*
X990000D01*
X427500Y742500D02*
X442000Y757000D01*
X447500D01*
X468000D01*
X475000Y750000D01*
X485000D01*
X955500Y795000D02*
X962500Y788000D01*
X930000Y795000D02*
X955500D01*
X379142Y335858D02*
X405000Y310000D01*
X315000Y609000D02*
Y625000D01*
Y609000D02*
X320000Y604000D01*
Y590000D02*
Y604000D01*
X750000Y374000D02*
Y392500D01*
X739300Y363300D02*
X750000Y374000D01*
X702800Y363300D02*
X739300D01*
X910000Y565000D02*
X913000Y568000D01*
Y679000D01*
X969005Y644995D02*
X1000001D01*
X860313Y724000D02*
X890000D01*
X773000Y669583D02*
Y755000D01*
X623960Y455201D02*
Y468305D01*
X591759Y423000D02*
X602040Y433281D01*
X545900Y423000D02*
X591759D01*
X527219Y441682D02*
X545900Y423000D01*
X621000Y666000D02*
Y799000D01*
X839622Y703309D02*
X860313Y724000D01*
X839622Y684791D02*
Y703309D01*
Y684791D02*
X843571Y680842D01*
Y672638D02*
Y680842D01*
X509219Y635781D02*
Y640932D01*
Y635781D02*
X535250Y609750D01*
X905000Y734000D02*
Y795000D01*
Y734000D02*
X936000Y703000D01*
X666800Y690023D02*
X672500Y684323D01*
Y683937D02*
Y684323D01*
X957500Y565000D02*
X967504Y554996D01*
X848263Y628153D02*
X861571Y641462D01*
X833000Y628153D02*
X848263D01*
X666800Y690023D02*
Y754550D01*
X701332Y364768D02*
Y423787D01*
Y364768D02*
X702800Y363300D01*
X804575Y655000D02*
X817500D01*
X820017Y501156D02*
X835250Y485923D01*
X350858Y370858D02*
X398030Y418029D01*
X570640Y473140D02*
X573356D01*
X560000Y462500D02*
X570640Y473140D01*
X557750Y462500D02*
X560000D01*
X572500Y687500D02*
X575000Y690000D01*
X545923Y661577D02*
X552250D01*
X634500Y390000D02*
Y422741D01*
X547500Y772500D02*
X567500D01*
X521685Y472858D02*
X534750Y485923D01*
X509219Y472858D02*
X521685D01*
X535392Y672108D02*
X545923Y661577D01*
X365000Y625000D02*
X399500D01*
X316500Y541350D02*
X322500D01*
X930603Y361617D02*
X947220Y345000D01*
X968610Y323610D02*
X990000Y345000D01*
X965000Y465000D02*
X970000Y470000D01*
X303650Y541350D02*
X316500D01*
X300000Y545000D02*
X303650Y541350D01*
X300000Y545000D02*
Y559675D01*
X300580Y560256D01*
Y570580D01*
X320000Y590000D01*
X399500Y625000D02*
Y670000D01*
X403016Y718016D02*
X427500Y742500D01*
X403016Y706023D02*
Y718016D01*
X383000Y726039D02*
Y752000D01*
Y726039D02*
X403016Y706023D01*
X960000Y830000D02*
X1075000Y715000D01*
X430000Y830000D02*
X930000D01*
X960000D01*
X427500Y742500D02*
Y827500D01*
X430000Y830000D01*
X783932Y658650D02*
Y658650D01*
X773000Y669583D02*
X783932Y658650D01*
X783933Y658649D01*
X795437Y645862D02*
X804575Y655000D01*
X773000Y757000D02*
X864000D01*
X820017Y501156D02*
Y518978D01*
X672500Y683937D02*
X690058D01*
X701332Y423787D02*
X714521Y436976D01*
X405000Y310000D02*
X430000D01*
X666800Y363300D02*
Y393700D01*
X587050Y459560D02*
X597681D01*
X835000Y795000D02*
X842500Y802500D01*
X882500D01*
X890000Y795000D01*
X616675Y475590D02*
X623960Y468305D01*
X630374Y651698D02*
X630374Y651698D01*
X635000Y656324D01*
X835094Y810000D02*
X838134Y813040D01*
X886960D01*
X905000Y795000D01*
X970000Y470000D02*
X1065000D01*
X399500Y670000D02*
Y706023D01*
D11*
X854040Y545960D02*
D03*
X875960Y524040D02*
D03*
D12*
X593000Y385500D02*
D03*
Y354500D02*
D03*
X962500Y788000D02*
D03*
Y757000D02*
D03*
X995000Y439500D02*
D03*
Y470500D02*
D03*
X1035000Y635500D02*
D03*
X1035000Y604500D02*
D03*
X1005000Y550500D02*
D03*
Y519500D02*
D03*
X410000Y529000D02*
D03*
Y560000D02*
D03*
X447500Y757000D02*
D03*
Y788000D02*
D03*
D13*
X485000Y310000D02*
D03*
X430000D02*
D03*
D14*
X867500Y772500D02*
D03*
X547500Y772500D02*
D03*
X937501Y622495D02*
D03*
X910000Y535000D02*
D03*
D15*
X930000Y795000D02*
D03*
Y772500D02*
D03*
Y750000D02*
D03*
X485000Y750000D02*
D03*
Y772500D02*
D03*
Y795000D02*
D03*
X1000001Y644995D02*
D03*
Y622495D02*
D03*
Y599995D02*
D03*
X972500Y557500D02*
D03*
Y535000D02*
D03*
Y512500D02*
D03*
D16*
X819750Y459077D02*
D03*
X835250Y485923D02*
D03*
X567750Y688423D02*
D03*
X552250Y661577D02*
D03*
D17*
X550250Y459077D02*
D03*
X534750Y485923D02*
D03*
X833000Y628153D02*
D03*
X817500Y655000D02*
D03*
D18*
X913000Y679000D02*
D03*
X934920Y700920D02*
D03*
X623960Y455201D02*
D03*
X602040Y433281D02*
D03*
X889040Y374040D02*
D03*
X910960Y395960D02*
D03*
X943080Y443080D02*
D03*
X965000Y465000D02*
D03*
D19*
X535250Y609750D02*
D03*
X566250D02*
D03*
X634500Y390000D02*
D03*
X665500D02*
D03*
X742000Y755000D02*
D03*
X773000D02*
D03*
X754500Y425000D02*
D03*
X785500D02*
D03*
X399500Y625000D02*
D03*
X430500D02*
D03*
Y595000D02*
D03*
X399500D02*
D03*
X485500Y516000D02*
D03*
X454500D02*
D03*
D20*
X636000Y275950D02*
D03*
Y288650D02*
D03*
Y301350D02*
D03*
Y314050D02*
D03*
X579000Y275950D02*
D03*
Y288650D02*
D03*
Y301350D02*
D03*
Y314050D02*
D03*
X373500Y515950D02*
D03*
Y528650D02*
D03*
Y541350D02*
D03*
Y554050D02*
D03*
X316500Y515950D02*
D03*
Y528650D02*
D03*
Y541350D02*
D03*
Y554050D02*
D03*
D21*
X772500Y330000D02*
D03*
D22*
X750000Y392500D02*
D03*
X772500D02*
D03*
X795000D02*
D03*
D23*
X457500Y270000D02*
D03*
X410000Y822500D02*
D03*
X1002500Y747500D02*
D03*
D24*
X666800Y754550D02*
D03*
X702800D02*
D03*
Y363300D02*
D03*
X666800D02*
D03*
D25*
X861571Y472638D02*
D03*
X843571Y441462D02*
D03*
X509219Y640932D02*
D03*
X527219Y672108D02*
D03*
D26*
X843571Y672638D02*
D03*
X861571Y641462D02*
D03*
X527219Y441682D02*
D03*
X509219Y472858D02*
D03*
D27*
X432500Y385000D02*
D03*
X398559Y418941D02*
D03*
X436957Y672082D02*
D03*
X403016Y706023D02*
D03*
D28*
X549000Y316500D02*
D03*
Y286500D02*
D03*
D29*
X872393Y304607D02*
D03*
X893607Y283393D02*
D03*
D30*
X325000Y480000D02*
D03*
X355000D02*
D03*
D31*
X360000Y590000D02*
D03*
X320000D02*
D03*
D32*
X379142Y335858D02*
D03*
X350858Y364142D02*
D03*
D33*
X532500Y390000D02*
D03*
X830000Y392500D02*
D03*
X383000Y752000D02*
D03*
X477500Y367500D02*
D03*
X975000Y370000D02*
D03*
X883227Y345354D02*
D03*
X968256Y430383D02*
D03*
X1037553Y361087D02*
D03*
X952700Y276234D02*
D03*
D34*
X550897Y592061D02*
Y625897D01*
X890000Y724000D02*
X969005Y644995D01*
X597681Y459560D02*
X634500Y422741D01*
X547864Y589029D02*
X547864Y589029D01*
X550897Y592061D01*
D35*
X1055000Y505000D02*
Y650000D01*
X1037460Y487460D02*
X1055000Y505000D01*
X958786Y487460D02*
X1037460D01*
X962500Y742500D02*
X1055000Y650000D01*
X1000001Y599995D02*
X1034995D01*
X1035000Y600000D01*
Y505000D02*
Y600000D01*
X1025000Y495000D02*
X1035000Y505000D01*
X955663Y495000D02*
X1025000D01*
X910000Y475000D02*
X949500Y514500D01*
X470000Y680000D02*
Y695000D01*
X465000Y675000D02*
X470000Y680000D01*
X465000Y625000D02*
Y675000D01*
Y625000D02*
X470000Y620000D01*
Y490000D02*
Y620000D01*
X465000Y485000D02*
X470000Y490000D01*
X465000Y435000D02*
Y485000D01*
X470000Y695000D02*
X510000Y735000D01*
X530000Y370000D02*
X605000D01*
X925080Y453754D02*
X958786Y487460D01*
X917540Y456877D02*
X955663Y495000D01*
X955500Y750000D02*
X962500Y757000D01*
X930000Y750000D02*
X955500D01*
X962500Y742500D02*
Y757000D01*
X820000Y330000D02*
Y360254D01*
X785500Y425000D02*
X795000Y415500D01*
Y392500D02*
Y415500D01*
Y375000D02*
Y392500D01*
X780000Y360000D02*
X795000Y375000D01*
X760000Y360000D02*
X780000D01*
X447500Y788000D02*
X454500Y795000D01*
X485000D01*
X505000D01*
X510000Y790000D01*
Y735000D02*
Y790000D01*
X605000Y370000D02*
X610000Y365000D01*
Y330000D02*
Y365000D01*
X300000Y485000D02*
X305000Y480000D01*
X325000D01*
X390000Y537500D02*
X397500Y545000D01*
X422500D01*
X430000Y552500D01*
Y565628D01*
X400628Y595000D02*
X430000Y565628D01*
X399500Y595000D02*
X400500D01*
X430500Y625000D01*
X400500Y595000D02*
X400628D01*
X373500Y515950D02*
X383450D01*
X390000Y522500D01*
Y537500D01*
X522500Y380000D02*
X532500Y390000D01*
X520000Y380000D02*
X530000Y370000D01*
X520000Y380000D02*
X522500D01*
X830000Y392500D02*
X840000Y382500D01*
X820000Y360254D02*
X842246Y382500D01*
X604000Y386000D02*
X620000Y370000D01*
X840000Y350000D02*
X925080Y435080D01*
Y453754D01*
X917540Y440040D02*
Y456877D01*
X840000Y382500D02*
X842246D01*
X849337D01*
X910000Y443163D01*
Y475000D01*
X612500Y262500D02*
X830287D01*
X715000Y315000D02*
X760000Y360000D01*
X639000Y301000D02*
X791000D01*
X820000Y330000D01*
X610000D02*
X625950Y314050D01*
X636000D01*
X637500D01*
X549000Y316500D02*
X564150Y301350D01*
X579000D01*
X580500D01*
Y276000D02*
X599000D01*
X612500Y262500D01*
X620000Y334000D02*
Y370000D01*
Y334000D02*
X630000Y324000D01*
X645581D01*
X654581Y315000D01*
X715000D01*
X465000Y435000D02*
X520000Y380000D01*
X580000Y327000D02*
X593000Y340000D01*
Y346000D01*
X312000Y647000D02*
X366000D01*
X300000Y485000D02*
Y525000D01*
X303650Y528650D01*
X316500D01*
X510540Y256540D02*
X530000Y276000D01*
Y311000D01*
X535500Y316500D01*
X549000D01*
X409460Y256540D02*
X510540D01*
X286540Y379460D02*
X409460Y256540D01*
X286540Y379460D02*
Y621540D01*
X312000Y647000D01*
X366000D02*
X387500Y668500D01*
X398000D01*
X399500Y670000D01*
X580000Y314050D02*
Y327000D01*
X586500Y352500D02*
X593000Y346000D01*
X589000Y386000D02*
X604000D01*
X949500Y514500D02*
X1005000D01*
X789313Y288650D02*
X827540Y326877D01*
X639000Y276000D02*
X787326D01*
X840000Y328674D01*
Y350000D01*
X827540Y326877D02*
Y350040D01*
X917540Y440040D01*
X637500Y288650D02*
X789313D01*
X842500Y274713D02*
Y275000D01*
X830287Y262500D02*
X842500Y274713D01*
X872393Y304607D01*
D36*
X1000000Y377426D02*
X1011390Y366036D01*
X1010960Y365607D02*
X1011390Y366036D01*
X825956Y459077D02*
X843571Y441462D01*
X819750Y459077D02*
X825956D01*
X702800Y754550D02*
X703250Y755000D01*
X742000D01*
X385000Y431059D02*
Y450000D01*
X527219Y672108D02*
X535392D01*
X350858Y364142D02*
Y370858D01*
X355000Y522300D02*
X361350Y528650D01*
X355000Y510000D02*
Y522300D01*
Y510000D02*
X365000Y500000D01*
X400000D01*
X410000Y510000D01*
Y529000D01*
X400000Y465000D02*
Y500000D01*
X385000Y450000D02*
X400000Y465000D01*
X373500Y554050D02*
X379050D01*
X385000Y560000D01*
X410000D01*
X373500Y542500D02*
Y554050D01*
X310350D02*
X316500D01*
X373500D01*
X361350Y528650D02*
X373500D01*
X380000D01*
X1000000Y377426D02*
Y444500D01*
X385000Y431059D02*
X398030Y418029D01*
D37*
X320000Y590000D02*
X320000D01*
D38*
X923750Y411250D02*
X951993Y383007D01*
X906920Y397500D02*
X910000D01*
X923750Y411250D01*
Y422132D01*
X943080Y441462D01*
Y443080D01*
X965000Y370000D02*
X975000D01*
X951993Y383007D02*
X965000Y370000D01*
D39*
X680000Y722697D02*
Y710000D01*
Y722697D02*
X684837Y710000D01*
X689674Y722697D02*
X684837Y710000D01*
X689674Y722697D02*
Y710000D01*
X693302Y722697D02*
Y710000D01*
X709566Y722697D02*
X707753Y722093D01*
X706543Y720279D01*
X705939Y717256D01*
Y715442D01*
X706543Y712419D01*
X707753Y710605D01*
X709566Y710000D01*
X710776D01*
X712590Y710605D01*
X713799Y712419D01*
X714404Y715442D01*
Y717256D01*
X713799Y720279D01*
X712590Y722093D01*
X710776Y722697D01*
X709566D01*
X725710D02*
X719664Y710000D01*
X717245Y722697D02*
X725710D01*
X728552Y708186D02*
X737017Y722697D01*
X741491D02*
X739677Y722093D01*
X738468Y720279D01*
X737863Y717256D01*
Y715442D01*
X738468Y712419D01*
X739677Y710605D01*
X741491Y710000D01*
X742700D01*
X744514Y710605D01*
X745724Y712419D01*
X746328Y715442D01*
Y717256D01*
X745724Y720279D01*
X744514Y722093D01*
X742700Y722697D01*
X741491D01*
X752193D02*
X750379Y722093D01*
X749775Y720883D01*
Y719674D01*
X750379Y718465D01*
X751589Y717860D01*
X754007Y717256D01*
X755821Y716651D01*
X757030Y715442D01*
X757635Y714232D01*
Y712419D01*
X757030Y711209D01*
X756425Y710605D01*
X754612Y710000D01*
X752193D01*
X750379Y710605D01*
X749775Y711209D01*
X749170Y712419D01*
Y714232D01*
X749775Y715442D01*
X750984Y716651D01*
X752798Y717256D01*
X755216Y717860D01*
X756425Y718465D01*
X757030Y719674D01*
Y720883D01*
X756425Y722093D01*
X754612Y722697D01*
X752193D01*
X345000Y745000D02*
X336023Y753977D01*
X340511Y758466D01*
X343504Y758466D01*
X346496Y755474D01*
X346496Y752481D01*
X342007Y747992D01*
X345000Y750985D02*
X350985D01*
X358466Y758466D02*
X355474Y755474D01*
X352481D01*
X349489Y758466D01*
Y761459D01*
X352481Y764451D01*
X355474D01*
X356970Y762955D01*
X350985Y756970D01*
X356970Y768940D02*
X365947Y765947D01*
X362955Y774924D01*
X373428Y788391D02*
Y791383D01*
X376421Y794375D01*
X379413D01*
X380909Y792879D01*
Y789887D01*
X379413Y788391D01*
X380909Y789887D01*
X383902Y789887D01*
X385398Y788391D01*
Y785398D01*
X382406Y782406D01*
X379413D01*
X389887Y789887D02*
X388391Y791383D01*
X389887Y792879D01*
X391383Y791383D01*
X389887Y789887D01*
Y804849D02*
Y807841D01*
X392879Y810834D01*
X395872Y810834D01*
X401856Y804849D01*
X401856Y801857D01*
X398864Y798864D01*
X395872D01*
X389887Y804849D01*
D40*
X973206Y403867D02*
D03*
X951993Y383007D02*
D03*
X930603Y361617D02*
D03*
X909567Y340227D02*
D03*
X1011390Y366036D02*
D03*
X990000Y345000D02*
D03*
X968610Y323610D02*
D03*
X947750Y302397D02*
D03*
D41*
X430000Y322500D02*
D03*
X485000D02*
D03*
D42*
X365000Y625000D02*
D03*
X315000D02*
D03*
M02*
