G04 Layer_Color=128*
%FSLAX44Y44*%
%MOMM*%
G71*
G01*
G75*
%ADD66C,0.0508*%
D66*
X1109500Y742950D02*
X1127000D01*
X1118250Y734200D02*
Y751700D01*
X1231000Y584750D02*
X1241000D01*
X1236000Y579750D02*
Y589750D01*
X1201250Y585000D02*
X1211250D01*
X1206250Y580000D02*
Y590000D01*
X1171000Y585000D02*
X1181000D01*
X1176000Y580000D02*
Y590000D01*
X1141000Y584750D02*
X1151000D01*
X1146000Y579750D02*
Y589750D01*
X1231250Y531000D02*
X1241250D01*
X1236250Y526000D02*
Y536000D01*
X1201250Y531250D02*
X1211250D01*
X1206250Y526250D02*
Y536250D01*
X1171000Y531250D02*
X1181000D01*
X1176000Y526250D02*
Y536250D01*
X1141250Y531000D02*
X1151250D01*
X1146250Y526000D02*
Y536000D01*
X1125000Y607000D02*
X1137000D01*
X1131000Y601000D02*
Y613000D01*
X1245250Y607000D02*
X1257250D01*
X1251250Y601000D02*
Y613000D01*
X1245250Y509000D02*
X1257250D01*
X1251250Y503000D02*
Y515000D01*
X1125250Y509000D02*
X1137250D01*
X1131250Y503000D02*
Y515000D01*
X802950Y929950D02*
X820450D01*
X811700Y921200D02*
Y938700D01*
X805320Y742950D02*
X822820D01*
X814070Y734200D02*
Y751700D01*
X956450Y659130D02*
X973950D01*
X965200Y650380D02*
Y667880D01*
X1108919Y928662D02*
X1126419D01*
X1117669Y919912D02*
Y937412D01*
X956450Y1017270D02*
X973950D01*
X965200Y1008520D02*
Y1026020D01*
X1138700Y653700D02*
X1171700D01*
X1155200Y637200D02*
Y670200D01*
X758700Y1013700D02*
X791700D01*
X775200Y997200D02*
Y1030200D01*
X1138700Y1013700D02*
X1171700D01*
X1155200Y997200D02*
Y1030200D01*
X758700Y653700D02*
X791700D01*
X775200Y637200D02*
Y670200D01*
X934200Y838200D02*
X996200D01*
X965200Y807200D02*
Y869200D01*
X729000Y733000D02*
X737000D01*
X733000Y729000D02*
Y737000D01*
X679000Y733000D02*
X687000D01*
X683000Y729000D02*
Y737000D01*
X1024750Y523000D02*
X1044750D01*
X1034750Y513000D02*
Y533000D01*
X1024750Y578000D02*
X1044750D01*
X1034750Y568000D02*
Y588000D01*
M02*
