G04 Layer_Color=2752767*
%FSLAX44Y44*%
%MOMM*%
G71*
G01*
G75*
%ADD66C,0.0508*%
%ADD67C,0.0677*%
D66*
X1116218Y740918D02*
Y744982D01*
X1120282D01*
Y740918D01*
X1116218D01*
X1131000Y604968D02*
X1128968Y609032D01*
X1133032D01*
X1131000Y604968D01*
X1251250D02*
X1249218Y609032D01*
X1253282D01*
X1251250Y604968D01*
X1251250Y506968D02*
X1249218Y511032D01*
X1253282D01*
X1251250Y506968D01*
X1131250D02*
X1129218Y511032D01*
X1133282D01*
X1131250Y506968D01*
X809668Y927918D02*
Y931982D01*
X813732D01*
Y927918D01*
X809668D01*
X812038Y740918D02*
Y744982D01*
X816102D01*
Y740918D01*
X812038D01*
X963168Y657098D02*
Y661162D01*
X967232D01*
Y657098D01*
X963168D01*
X1115637Y926630D02*
Y930694D01*
X1119701D01*
Y926630D01*
X1115637D01*
X963168Y1015238D02*
Y1019302D01*
X967232D01*
Y1015238D01*
X963168D01*
X1155200Y651668D02*
X1156216Y652684D01*
X1157232D01*
X1156216Y653700D01*
X1157232Y654716D01*
X1156216D01*
X1155200Y655732D01*
X1154184Y654716D01*
X1153168D01*
X1154184Y653700D01*
X1153168Y652684D01*
X1154184D01*
X1155200Y651668D01*
X775200Y1011668D02*
X776216Y1012684D01*
X777232D01*
X776216Y1013700D01*
X777232Y1014716D01*
X776216D01*
X775200Y1015732D01*
X774184Y1014716D01*
X773168D01*
X774184Y1013700D01*
X773168Y1012684D01*
X774184D01*
X775200Y1011668D01*
X1155200D02*
X1156216Y1012684D01*
X1157232D01*
X1156216Y1013700D01*
X1157232Y1014716D01*
X1156216D01*
X1155200Y1015732D01*
X1154184Y1014716D01*
X1153168D01*
X1154184Y1013700D01*
X1153168Y1012684D01*
X1154184D01*
X1155200Y1011668D01*
X775200Y651668D02*
X776216Y652684D01*
X777232D01*
X776216Y653700D01*
X777232Y654716D01*
X776216D01*
X775200Y655732D01*
X774184Y654716D01*
X773168D01*
X774184Y653700D01*
X773168Y652684D01*
X774184D01*
X775200Y651668D01*
X963168Y836168D02*
X964184Y838200D01*
X963168Y840232D01*
X965200Y839216D01*
X967232Y840232D01*
X966216Y838200D01*
X967232Y836168D01*
X965200Y837184D01*
X963168Y836168D01*
X731984Y731984D02*
Y730968D01*
X734016D01*
Y731984D01*
X735032D01*
Y734016D01*
X734016D01*
Y735032D01*
X731984D01*
Y734016D01*
X730968D01*
Y731984D01*
X731984D01*
X681984D02*
Y730968D01*
X684016D01*
Y731984D01*
X685032D01*
Y734016D01*
X684016D01*
Y735032D01*
X681984D01*
Y734016D01*
X680968D01*
Y731984D01*
X681984D01*
X1032718Y520968D02*
X1033734D01*
X1034750Y521984D01*
X1035766Y520968D01*
X1036782D01*
Y521984D01*
X1035766Y523000D01*
X1036782Y524016D01*
Y525032D01*
X1035766D01*
X1034750Y524016D01*
X1033734Y525032D01*
X1032718D01*
Y524016D01*
X1033734Y523000D01*
X1032718Y521984D01*
Y520968D01*
Y575968D02*
X1033734D01*
X1034750Y576984D01*
X1035766Y575968D01*
X1036782D01*
Y576984D01*
X1035766Y578000D01*
X1036782Y579016D01*
Y580032D01*
X1035766D01*
X1034750Y579016D01*
X1033734Y580032D01*
X1032718D01*
Y579016D01*
X1033734Y578000D01*
X1032718Y576984D01*
Y575968D01*
D67*
X1238032Y584750D02*
G03*
X1238032Y584750I-2032J0D01*
G01*
X1208282Y585000D02*
G03*
X1208282Y585000I-2032J0D01*
G01*
X1178032D02*
G03*
X1178032Y585000I-2032J0D01*
G01*
X1148032Y584750D02*
G03*
X1148032Y584750I-2032J0D01*
G01*
X1238282Y531000D02*
G03*
X1238282Y531000I-2032J0D01*
G01*
X1208282Y531250D02*
G03*
X1208282Y531250I-2032J0D01*
G01*
X1178032Y531250D02*
G03*
X1178032Y531250I-2032J0D01*
G01*
X1148282Y531000D02*
G03*
X1148282Y531000I-2032J0D01*
G01*
M02*
