G04 Layer_Color=65535*
%FSLAX44Y44*%
%MOMM*%
G71*
G01*
G75*
%ADD31C,0.5000*%
%ADD35C,0.2540*%
%ADD39C,0.2500*%
%ADD40C,0.6000*%
%ADD41C,0.2000*%
%ADD42C,0.1270*%
G36*
X931834Y944972D02*
X931778Y944916D01*
X931667Y944805D01*
X931445Y944639D01*
X931112Y944416D01*
X930779Y944083D01*
X930334Y943750D01*
X929445Y942972D01*
X928390Y942139D01*
X927390Y941250D01*
X926501Y940417D01*
X926057Y940028D01*
X925723Y939695D01*
X925668Y939639D01*
X925446Y939361D01*
X925057Y938972D01*
X924557Y938417D01*
X923946Y937695D01*
X923168Y936750D01*
X922335Y935695D01*
X921391Y934417D01*
X921335Y934362D01*
X921280Y934251D01*
X921113Y934084D01*
X920946Y933862D01*
X920502Y933251D01*
X919946Y932473D01*
X919335Y931640D01*
X918724Y930862D01*
X918169Y930140D01*
X917724Y929529D01*
X918280D01*
X918613Y929585D01*
X919057D01*
X919557Y929640D01*
X920613Y929807D01*
X920668Y929862D01*
X920779Y929973D01*
X920946Y930196D01*
X921168Y930473D01*
X921724Y931196D01*
X922446Y932029D01*
X923279Y932806D01*
X924168Y933529D01*
X924613Y933806D01*
X925001Y934028D01*
X925446Y934140D01*
X925835Y934195D01*
X926112D01*
X926335Y934140D01*
X926668Y934028D01*
X926945Y933862D01*
X927223Y933640D01*
X927390Y933362D01*
X927446Y932917D01*
Y932862D01*
Y932695D01*
X927334Y932418D01*
X927223Y932140D01*
X927001Y931695D01*
X926723Y931307D01*
X926279Y930807D01*
X925668Y930307D01*
X925612Y930251D01*
X925335Y930085D01*
X925001Y929862D01*
X924501Y929640D01*
X923890Y929362D01*
X923224Y929085D01*
X922502Y928807D01*
X921668Y928640D01*
X921613Y928585D01*
X921502Y928362D01*
X921335Y928029D01*
X921113Y927529D01*
X920835Y926863D01*
X920613Y926029D01*
X920335Y925085D01*
X920057Y923918D01*
X917058Y923863D01*
X917113Y923974D01*
X917224Y924196D01*
X917335Y924585D01*
X917502Y924974D01*
X917724Y925418D01*
X917891Y925807D01*
X918002Y926085D01*
X918113Y926252D01*
X918169Y926307D01*
X918280Y926418D01*
X918446Y926640D01*
X918669Y926918D01*
X919002Y927307D01*
X919502Y927807D01*
X920113Y928474D01*
X920057D01*
X919780Y928418D01*
X919446Y928362D01*
X919057D01*
X918224Y928251D01*
X917835Y928196D01*
X917391D01*
X917335Y928085D01*
X917169Y927807D01*
X916947Y927363D01*
X916558Y926751D01*
X916113Y926029D01*
X915558Y925196D01*
X914947Y924307D01*
X914225Y923307D01*
X913447Y922252D01*
X912558Y921141D01*
X911614Y920030D01*
X910614Y918919D01*
X909558Y917808D01*
X908392Y916752D01*
X907225Y915808D01*
X905948Y914864D01*
X905892Y914808D01*
X905614Y914642D01*
X905281Y914419D01*
X904726Y914142D01*
X904115Y913808D01*
X903337Y913364D01*
X902448Y912975D01*
X901393Y912531D01*
X900282Y912086D01*
X899060Y911697D01*
X897726Y911309D01*
X896338Y910920D01*
X894838Y910642D01*
X893282Y910420D01*
X891671Y910253D01*
X889949Y910198D01*
X889283D01*
X888894Y910253D01*
X888505D01*
X887616Y910364D01*
X886561Y910531D01*
X885505Y910809D01*
X884505Y911142D01*
X883617Y911642D01*
X883506Y911697D01*
X883283Y911920D01*
X882950Y912253D01*
X882561Y912697D01*
X882117Y913197D01*
X881784Y913864D01*
X881561Y914586D01*
X881450Y915419D01*
Y915475D01*
Y915641D01*
X881506Y915864D01*
X881561Y916197D01*
X881673Y916530D01*
X881784Y916919D01*
X882006Y917253D01*
X882283Y917641D01*
X882339Y917697D01*
X882450Y917808D01*
X882617Y917975D01*
X882839Y918141D01*
X883172Y918308D01*
X883506Y918475D01*
X883894Y918586D01*
X884339Y918641D01*
X884505D01*
X884672Y918586D01*
X884894D01*
X885394Y918363D01*
X885672Y918252D01*
X885950Y918030D01*
X886005D01*
X886061Y917919D01*
X886283Y917641D01*
X886505Y917141D01*
X886616Y916864D01*
Y916586D01*
Y916530D01*
Y916475D01*
X886561Y916086D01*
X886339Y915586D01*
X886172Y915364D01*
X885950Y915086D01*
X885894D01*
X885839Y914975D01*
X885505Y914808D01*
X885061Y914586D01*
X884728Y914530D01*
X884450Y914475D01*
X884339D01*
X884061Y914530D01*
X883672Y914642D01*
X883172Y914864D01*
X883061Y914919D01*
X882955Y914999D01*
X883006Y914697D01*
X883117Y914364D01*
X883339Y913975D01*
X883617Y913531D01*
X884061Y913086D01*
X884617Y912642D01*
X884728Y912586D01*
X884950Y912475D01*
X885394Y912309D01*
X886005Y912086D01*
X886783Y911864D01*
X887783Y911697D01*
X889005Y911586D01*
X890394Y911531D01*
X890727D01*
X891116Y911586D01*
X891671D01*
X892338Y911697D01*
X893116Y911753D01*
X894005Y911920D01*
X894949Y912086D01*
X895949Y912309D01*
X897004Y912642D01*
X898115Y912975D01*
X899226Y913419D01*
X900337Y913920D01*
X901448Y914530D01*
X902559Y915253D01*
X903615Y916030D01*
X903670Y916086D01*
X903892Y916253D01*
X904170Y916475D01*
X904559Y916864D01*
X905059Y917308D01*
X905670Y917863D01*
X906337Y918530D01*
X907059Y919252D01*
X907836Y920086D01*
X908725Y920974D01*
X909614Y921974D01*
X910558Y923030D01*
X911503Y924196D01*
X912503Y925418D01*
X913503Y926696D01*
X914502Y928085D01*
X913558D01*
X913114Y928029D01*
X912558Y927974D01*
X911836Y927918D01*
X910947Y927807D01*
X909947Y927585D01*
X908781Y927363D01*
X908725D01*
X908614Y927307D01*
X908447D01*
X908225Y927251D01*
X907947Y927140D01*
X907559Y927085D01*
X906725Y926807D01*
X905670Y926529D01*
X904503Y926140D01*
X903226Y925696D01*
X901893Y925196D01*
X901504Y926196D01*
X901615Y926252D01*
X901837Y926307D01*
X902226Y926474D01*
X902726Y926696D01*
X903392Y926918D01*
X904115Y927196D01*
X905003Y927474D01*
X905892Y927807D01*
X906892Y928085D01*
X907892Y928362D01*
X910058Y928862D01*
X911169Y929085D01*
X912280Y929251D01*
X913391Y929307D01*
X914447Y929362D01*
X914836D01*
X914947Y929418D01*
X915002Y929529D01*
X915225Y929807D01*
X915613Y930307D01*
X916113Y930973D01*
X916724Y931806D01*
X917502Y932751D01*
X918391Y933806D01*
X919391Y934973D01*
X920502Y936195D01*
X921779Y937528D01*
X923113Y938861D01*
X924557Y940250D01*
X926168Y941694D01*
X927834Y943083D01*
X929612Y944472D01*
X931445Y945861D01*
X931834Y944972D01*
D02*
G37*
G36*
X933223Y928251D02*
X933556Y928085D01*
X933889Y927807D01*
X933945Y927751D01*
X934111Y927529D01*
X934278Y927196D01*
X934334Y926807D01*
Y926751D01*
Y926640D01*
X934278Y926307D01*
X934056Y925807D01*
X933889Y925585D01*
X933667Y925363D01*
X933612D01*
X933556Y925307D01*
X933223Y925141D01*
X932778Y924918D01*
X932278Y924863D01*
X932167D01*
X931945Y924918D01*
X931556Y925029D01*
X931223Y925307D01*
X931167Y925363D01*
X931056Y925585D01*
X930890Y925918D01*
X930834Y926363D01*
Y926418D01*
Y926474D01*
X930890Y926807D01*
X931056Y927251D01*
X931389Y927696D01*
X931445Y927751D01*
X931501Y927807D01*
X931778Y928029D01*
X932278Y928196D01*
X932556Y928307D01*
X932945D01*
X933223Y928251D01*
D02*
G37*
G36*
X1044767Y913419D02*
X1044600Y913586D01*
X1044545Y913697D01*
X1044178Y913959D01*
X1044767Y913419D01*
X1044822Y913364D01*
X1044989Y912975D01*
X1045044Y912531D01*
Y912475D01*
Y912364D01*
X1044989Y912197D01*
X1044933Y911975D01*
X1044711Y911475D01*
X1044545Y911198D01*
X1044267Y910975D01*
X1044211D01*
X1044156Y910864D01*
X1043822Y910698D01*
X1043322Y910475D01*
X1043045Y910420D01*
X1042711Y910364D01*
X1042600D01*
X1042267Y910420D01*
X1041878Y910531D01*
X1041489Y910809D01*
X1041434Y910920D01*
X1041267Y911142D01*
X1041100Y911531D01*
X1041045Y912031D01*
Y912086D01*
Y912142D01*
X1041156Y912531D01*
X1041323Y912975D01*
X1041489Y913197D01*
X1041711Y913475D01*
X1041767Y913531D01*
X1041823Y913586D01*
X1042211Y913864D01*
X1042711Y914086D01*
X1042989Y914142D01*
X1043322Y914197D01*
X1043434D01*
X1043767Y914142D01*
X1044156Y913975D01*
X1044178Y913959D01*
X1044100Y914031D01*
X1058543Y929973D01*
X1062265Y930140D01*
X1044767Y913419D01*
D02*
G37*
G36*
X959553Y925529D02*
X963386D01*
X963109Y924196D01*
X958887D01*
X949943Y914586D01*
X949888Y914530D01*
X949665Y914308D01*
X949443Y914031D01*
X949110Y913697D01*
X948777Y913308D01*
X948443Y912975D01*
X948221Y912697D01*
X948055Y912475D01*
X947999Y912420D01*
X947943Y912309D01*
X947888Y912086D01*
X947832Y911920D01*
Y911864D01*
Y911809D01*
X947943Y911586D01*
X947999D01*
X948055Y911531D01*
X948277Y911475D01*
X948388D01*
X948499Y911531D01*
X948665Y911586D01*
X948943Y911642D01*
X949277Y911753D01*
X949610Y911920D01*
X950110Y912142D01*
X950610Y912420D01*
X951221Y912809D01*
X951887Y913253D01*
X952665Y913753D01*
X953554Y914419D01*
X954498Y915142D01*
X955554Y915975D01*
X956720Y916919D01*
X957442Y916086D01*
X957387Y916030D01*
X957165Y915808D01*
X956776Y915530D01*
X956331Y915142D01*
X955776Y914697D01*
X955165Y914197D01*
X954498Y913697D01*
X953776Y913142D01*
X952221Y912031D01*
X951443Y911531D01*
X950721Y911086D01*
X949999Y910698D01*
X949332Y910420D01*
X948777Y910198D01*
X948277Y910142D01*
X948110D01*
X947943Y910198D01*
X947721Y910253D01*
X947166Y910475D01*
X946888Y910642D01*
X946666Y910864D01*
Y910920D01*
X946555Y910975D01*
X946499Y911142D01*
X946388Y911364D01*
X946166Y911864D01*
X946110Y912197D01*
X946055Y912531D01*
Y912642D01*
X946110Y912920D01*
X946221Y913364D01*
X946443Y914031D01*
X946832Y914808D01*
X947110Y915253D01*
X947388Y915697D01*
X947777Y916253D01*
X948166Y916752D01*
X948665Y917308D01*
X949221Y917919D01*
X950767Y919501D01*
X945944Y915641D01*
X945837Y915757D01*
X945777Y915697D01*
X945499Y915475D01*
X945110Y915142D01*
X944722Y914808D01*
X943777Y913975D01*
X942777Y913142D01*
X941777Y912364D01*
X940889Y911697D01*
X940555Y911420D01*
X940222Y911198D01*
X940166Y911142D01*
X940000Y911086D01*
X939722Y910920D01*
X939389Y910753D01*
X938611Y910475D01*
X938167Y910364D01*
X937833Y910309D01*
X937667D01*
X937500Y910364D01*
X937278D01*
X936833Y910586D01*
X936611Y910698D01*
X936389Y910920D01*
Y910975D01*
X936333Y911031D01*
X936167Y911364D01*
X936000Y911809D01*
X935945Y912420D01*
Y912475D01*
Y912642D01*
X936000Y912864D01*
X936056Y913197D01*
X936222Y913586D01*
X936302Y913799D01*
X936167Y913697D01*
X935722Y913308D01*
X934611Y912531D01*
X933389Y911697D01*
X932167Y910975D01*
X931612Y910698D01*
X931056Y910475D01*
X930556Y910364D01*
X930112Y910309D01*
X929945D01*
X929723Y910364D01*
X929501Y910420D01*
X929223Y910531D01*
X928945Y910642D01*
X928668Y910864D01*
X928390Y911142D01*
Y911198D01*
X928279Y911309D01*
X928223Y911475D01*
X928112Y911753D01*
X928001Y912086D01*
X927945Y912420D01*
X927834Y913308D01*
Y913364D01*
Y913475D01*
X927890Y913642D01*
Y913864D01*
X927999Y914266D01*
X927390Y913808D01*
X926723Y913308D01*
X925279Y912253D01*
X924557Y911753D01*
X923835Y911364D01*
X923168Y910975D01*
X922557Y910698D01*
X922002Y910531D01*
X921502Y910475D01*
X921335D01*
X921002Y910531D01*
X920502Y910698D01*
X920057Y911031D01*
Y911086D01*
X919946Y911142D01*
X919780Y911475D01*
X919613Y911920D01*
X919502Y912586D01*
Y912642D01*
Y912809D01*
X919557Y913031D01*
X919613Y913308D01*
X919669Y913642D01*
X919835Y914031D01*
X920002Y914475D01*
X920224Y914919D01*
X920280Y914975D01*
X920391Y915197D01*
X920668Y915530D01*
X921049Y915959D01*
X920613Y915641D01*
X919946Y916364D01*
X920002Y916419D01*
X920280Y916641D01*
X920446Y916808D01*
X920724Y917030D01*
X921002Y917308D01*
X921391Y917641D01*
X921779Y917975D01*
X922279Y918419D01*
X922835Y918863D01*
X923502Y919363D01*
X924224Y919974D01*
X925057Y920585D01*
X925946Y921308D01*
X926945Y922085D01*
X930278D01*
X921613Y912920D01*
X921557Y912864D01*
X921391Y912697D01*
X921280Y912475D01*
X921168Y912253D01*
Y912142D01*
Y912031D01*
X921224Y911864D01*
X921280D01*
X921502Y911809D01*
X921613D01*
X921835Y911864D01*
X922057Y911920D01*
X922335Y911975D01*
X922724Y912142D01*
X923168Y912309D01*
X923668Y912586D01*
X923724Y912642D01*
X923946Y912753D01*
X924390Y913031D01*
X924946Y913419D01*
X925723Y914031D01*
X926223Y914364D01*
X926723Y914753D01*
X927334Y915197D01*
X927945Y915753D01*
X928668Y916308D01*
X929445Y916919D01*
X929461Y916902D01*
X929723Y917197D01*
X930223Y917752D01*
X930834Y918252D01*
X931501Y918808D01*
X932278Y919308D01*
X932334Y919363D01*
X932501Y919419D01*
X932723Y919586D01*
X933000Y919752D01*
X933389Y919974D01*
X933834Y920197D01*
X934889Y920697D01*
X936056Y921197D01*
X937333Y921641D01*
X938556Y921974D01*
X939166Y922030D01*
X939778Y922085D01*
X940111D01*
X940444Y921974D01*
X940833Y921863D01*
X941222Y921641D01*
X941555Y921308D01*
X941777Y920863D01*
X941888Y920252D01*
Y920197D01*
Y920185D01*
X942944Y922085D01*
X946166D01*
X938556Y913364D01*
X938500Y913308D01*
X938389Y913197D01*
X938111Y912864D01*
X937778Y912364D01*
X937667Y912142D01*
X937611Y911975D01*
Y911864D01*
X937722Y911697D01*
X937778D01*
X937944Y911642D01*
X938055D01*
X938167Y911697D01*
X938333Y911753D01*
X938611Y911864D01*
X938889Y911975D01*
X939278Y912197D01*
X939722Y912475D01*
X939778Y912531D01*
X940000Y912697D01*
X940389Y912920D01*
X940944Y913364D01*
X941333Y913642D01*
X941722Y913975D01*
X942166Y914308D01*
X942722Y914753D01*
X943333Y915197D01*
X943999Y915697D01*
X944722Y916308D01*
X945499Y916919D01*
X945683Y916707D01*
X952776Y922696D01*
X955609Y924196D01*
X953276D01*
X953498Y925529D01*
X956331D01*
X960831Y930196D01*
X963886Y930362D01*
X959553Y925529D01*
D02*
G37*
G36*
X926723Y948860D02*
X928168D01*
X929001Y948805D01*
X930834Y948749D01*
X932778Y948638D01*
X934834Y948527D01*
X935111D01*
X935389Y948472D01*
X935778D01*
X936222Y948416D01*
X936778D01*
X937333Y948360D01*
X938000D01*
X939333Y948249D01*
X940722Y948194D01*
X941944Y948138D01*
X944333D01*
X944444Y948194D01*
X944666D01*
X944888Y948249D01*
X945110D01*
X945444Y948305D01*
X945944Y948416D01*
X945999D01*
X946110Y948472D01*
X946443Y948527D01*
X946499D01*
X946610Y948583D01*
X946777Y948638D01*
X946999Y948694D01*
X947055D01*
X947110Y948638D01*
X947332Y948583D01*
X947610Y948472D01*
X947777Y948416D01*
X947832Y948472D01*
X947888Y948527D01*
X947943Y948472D01*
X947888Y948360D01*
X947777Y948138D01*
X947554Y947805D01*
X947221Y947249D01*
X947166Y947194D01*
X946999Y947083D01*
X946777Y946972D01*
X946610Y946805D01*
X945777Y946361D01*
X945721Y946305D01*
X945555Y946249D01*
X945332Y946138D01*
X945055Y946027D01*
X944999D01*
X944944Y945972D01*
X944666Y945916D01*
X944221Y945750D01*
X943777Y945638D01*
X943666D01*
X943444Y945527D01*
X943111Y945472D01*
X942666Y945361D01*
X942555D01*
X942333Y945305D01*
X942000Y945250D01*
X941277D01*
X940944Y945194D01*
X939778D01*
X939166Y945250D01*
X938444Y945305D01*
X937556Y945361D01*
X936556Y945472D01*
X935445Y945583D01*
X935334D01*
X935056Y945638D01*
X934556Y945694D01*
X933834Y945750D01*
X933056Y945861D01*
X932056Y945972D01*
X930945Y946083D01*
X929723Y946194D01*
X928445Y946305D01*
X927057Y946416D01*
X925612Y946527D01*
X924057Y946638D01*
X920946Y946749D01*
X917835Y946805D01*
X916891D01*
X916447Y946749D01*
X915280D01*
X914613Y946694D01*
X913225Y946583D01*
X911780Y946361D01*
X910392Y946138D01*
X909781Y945972D01*
X909170Y945805D01*
X909114D01*
X909059Y945750D01*
X908892Y945694D01*
X908670Y945638D01*
X908114Y945416D01*
X907392Y945138D01*
X906559Y944805D01*
X905670Y944416D01*
X904726Y943916D01*
X903781Y943416D01*
X903670Y943361D01*
X903337Y943139D01*
X902893Y942861D01*
X902281Y942417D01*
X901615Y941917D01*
X900893Y941305D01*
X900115Y940639D01*
X899393Y939917D01*
X899337Y939806D01*
X899115Y939584D01*
X898837Y939195D01*
X898504Y938695D01*
X898115Y938084D01*
X897837Y937473D01*
X897615Y936806D01*
X897560Y936139D01*
Y936084D01*
Y935917D01*
X897615Y935584D01*
X897726Y935251D01*
X897893Y934862D01*
X898171Y934417D01*
X898504Y933973D01*
X899004Y933529D01*
X899060Y933473D01*
X899282Y933362D01*
X899615Y933195D01*
X900059Y933029D01*
X900615Y932806D01*
X901282Y932640D01*
X902004Y932529D01*
X902837Y932473D01*
X903281D01*
X903615Y932529D01*
X904059D01*
X904503Y932584D01*
X905059Y932695D01*
X905670Y932806D01*
X907003Y933084D01*
X908503Y933529D01*
X910058Y934140D01*
X910836Y934529D01*
X911614Y934973D01*
X911669Y935028D01*
X911780Y935084D01*
X912003Y935251D01*
X912280Y935417D01*
X912947Y935917D01*
X913725Y936584D01*
X914447Y937362D01*
X915113Y938250D01*
X915391Y938695D01*
X915613Y939195D01*
X915724Y939639D01*
X915780Y940139D01*
Y940194D01*
Y940250D01*
X915669Y940583D01*
X915502Y941028D01*
X915280Y941305D01*
X915058Y941528D01*
X915002Y941583D01*
X914947Y941639D01*
X914780Y941750D01*
X914502Y941861D01*
X914225Y941972D01*
X913891Y942028D01*
X913447Y942139D01*
X912725D01*
X912392Y942083D01*
X912003Y942028D01*
X911503Y941972D01*
X910892Y941861D01*
X910225Y941639D01*
X909503Y941417D01*
X908670Y941139D01*
X907781Y940750D01*
X906836Y940306D01*
X905892Y939750D01*
X904837Y939083D01*
X903781Y938306D01*
X902726Y937417D01*
X901615Y936417D01*
X900782Y936862D01*
X900837Y936917D01*
X900893Y937028D01*
X901059Y937195D01*
X901226Y937417D01*
X901781Y938028D01*
X902504Y938806D01*
X903392Y939584D01*
X904392Y940417D01*
X905503Y941194D01*
X906670Y941861D01*
X906725D01*
X906836Y941917D01*
X907003Y942028D01*
X907225Y942139D01*
X907559Y942250D01*
X907892Y942361D01*
X908725Y942694D01*
X909670Y942972D01*
X910725Y943250D01*
X911836Y943416D01*
X912947Y943472D01*
X913280D01*
X913614Y943416D01*
X914113Y943361D01*
X914613Y943194D01*
X915113Y943028D01*
X915613Y942750D01*
X916058Y942417D01*
X916113Y942361D01*
X916224Y942250D01*
X916391Y942028D01*
X916613Y941750D01*
X916835Y941417D01*
X917002Y941028D01*
X917113Y940583D01*
X917169Y940139D01*
Y940028D01*
X917113Y939695D01*
X917058Y939195D01*
X916835Y938584D01*
X916502Y937861D01*
X916058Y937028D01*
X915391Y936195D01*
X914947Y935806D01*
X914502Y935362D01*
X914447D01*
X914391Y935251D01*
X914225Y935139D01*
X914058Y935028D01*
X913503Y934640D01*
X912780Y934140D01*
X911891Y933640D01*
X910836Y933084D01*
X909725Y932584D01*
X908503Y932140D01*
X908447D01*
X908336Y932084D01*
X908170Y932029D01*
X907947Y931973D01*
X907337Y931806D01*
X906559Y931640D01*
X905614Y931473D01*
X904614Y931307D01*
X903615Y931196D01*
X902615Y931140D01*
X902170D01*
X901670Y931196D01*
X901059Y931307D01*
X900337Y931473D01*
X899559Y931751D01*
X898782Y932084D01*
X898004Y932529D01*
X897949Y932584D01*
X897726Y932806D01*
X897393Y933084D01*
X897060Y933473D01*
X896727Y933973D01*
X896393Y934529D01*
X896171Y935195D01*
X896115Y935917D01*
Y935973D01*
Y936084D01*
X896171Y936306D01*
X896227Y936639D01*
X896338Y937028D01*
X896449Y937473D01*
X896671Y937972D01*
X896949Y938528D01*
X897337Y939139D01*
X897782Y939806D01*
X898282Y940528D01*
X898948Y941250D01*
X899726Y942028D01*
X900615Y942805D01*
X901670Y943639D01*
X902837Y944472D01*
X902893Y944527D01*
X903170Y944639D01*
X903559Y944861D01*
X904115Y945194D01*
X904837Y945527D01*
X905781Y945861D01*
X906836Y946305D01*
X908059Y946694D01*
X909447Y947083D01*
X911058Y947527D01*
X912780Y947860D01*
X914725Y948249D01*
X916835Y948527D01*
X919113Y948749D01*
X921557Y948860D01*
X924224Y948916D01*
X926112D01*
X926723Y948860D01*
D02*
G37*
G36*
X1006382Y949027D02*
X1006993D01*
X1007659Y948971D01*
X1008493Y948916D01*
X1009381Y948805D01*
X1009270Y947583D01*
X1009159D01*
X1008882Y947638D01*
X1008493D01*
X1007993Y947694D01*
X1007382D01*
X1006715Y947749D01*
X1004771D01*
X1004326Y947694D01*
X1003827D01*
X1003215Y947638D01*
X1002549Y947583D01*
X1001771Y947527D01*
X1000882Y947416D01*
X999994Y947249D01*
X998049Y946916D01*
X995938Y946472D01*
X993716Y945805D01*
X993661D01*
X993439Y945694D01*
X993161Y945583D01*
X992772Y945472D01*
X992272Y945250D01*
X991717Y945027D01*
X991050Y944750D01*
X990383Y944416D01*
X988939Y943639D01*
X987439Y942694D01*
X985995Y941528D01*
X985328Y940917D01*
X984717Y940250D01*
X984662Y940194D01*
X984606Y940083D01*
X984440Y939917D01*
X984217Y939639D01*
X983995Y939306D01*
X983773Y938917D01*
X983217Y938028D01*
X982606Y936917D01*
X982162Y935751D01*
X981773Y934473D01*
X981718Y933806D01*
X981662Y933140D01*
Y933029D01*
X981718Y932695D01*
X981773Y932251D01*
X981940Y931640D01*
X982218Y930973D01*
X982606Y930251D01*
X983162Y929473D01*
X983940Y928751D01*
X983995D01*
X984051Y928696D01*
X984217Y928585D01*
X984384Y928474D01*
X984662Y928307D01*
X984939Y928140D01*
X985328Y927974D01*
X985773Y927807D01*
X986273Y927640D01*
X986884Y927474D01*
X987495Y927307D01*
X988217Y927140D01*
X988995Y927029D01*
X989828Y926918D01*
X990717Y926863D01*
X992439D01*
X992828Y926918D01*
X993328D01*
X993828Y926974D01*
X994438D01*
X995716Y927085D01*
X997216Y927307D01*
X998827Y927529D01*
X1000493Y927862D01*
X1000549Y927974D01*
X1000771Y928251D01*
X1001049Y928751D01*
X1001493Y929418D01*
X1002049Y930196D01*
X1002660Y931084D01*
X1003438Y932084D01*
X1004271Y933140D01*
X1005160Y934306D01*
X1006160Y935473D01*
X1007215Y936695D01*
X1008382Y937917D01*
X1009548Y939083D01*
X1010826Y940250D01*
X1012159Y941361D01*
X1013492Y942361D01*
X1013603Y942417D01*
X1013825Y942583D01*
X1014214Y942861D01*
X1014714Y943194D01*
X1015325Y943583D01*
X1016047Y944027D01*
X1016881Y944527D01*
X1017714Y945027D01*
X1019603Y945972D01*
X1020602Y946416D01*
X1021547Y946805D01*
X1022547Y947138D01*
X1023491Y947416D01*
X1024380Y947583D01*
X1025213Y947638D01*
X1025491D01*
X1025769Y947583D01*
X1026158Y947527D01*
X1026546Y947416D01*
X1027046Y947249D01*
X1027491Y947027D01*
X1027879Y946694D01*
X1027935Y946638D01*
X1028046Y946527D01*
X1028213Y946305D01*
X1028435Y946027D01*
X1028602Y945694D01*
X1028768Y945305D01*
X1028879Y944805D01*
X1028935Y944305D01*
Y944250D01*
Y944139D01*
X1028879Y943861D01*
X1028824Y943583D01*
X1028713Y943194D01*
X1028491Y942694D01*
X1028268Y942139D01*
X1027935Y941528D01*
X1027491Y940861D01*
X1026935Y940139D01*
X1026269Y939361D01*
X1025491Y938473D01*
X1024547Y937584D01*
X1023436Y936695D01*
X1022158Y935695D01*
X1020714Y934695D01*
X1020602Y934640D01*
X1020325Y934473D01*
X1019880Y934195D01*
X1019269Y933806D01*
X1018547Y933362D01*
X1017658Y932862D01*
X1016658Y932307D01*
X1015547Y931751D01*
X1014325Y931140D01*
X1012992Y930473D01*
X1011603Y929862D01*
X1010159Y929307D01*
X1008659Y928696D01*
X1007104Y928196D01*
X1005493Y927696D01*
X1003882Y927307D01*
X1003827Y927251D01*
X1003715Y927085D01*
X1003549Y926863D01*
X1003326Y926585D01*
X1003049Y926196D01*
X1002771Y925752D01*
X1002049Y924752D01*
X1001271Y923696D01*
X1000438Y922585D01*
X999660Y921585D01*
X999327Y921141D01*
X998994Y920752D01*
X998938Y920641D01*
X998716Y920419D01*
X998383Y920030D01*
X997938Y919530D01*
X997383Y918975D01*
X996716Y918308D01*
X995994Y917641D01*
X995161Y916919D01*
X995050Y916864D01*
X994772Y916641D01*
X994327Y916308D01*
X993772Y915864D01*
X993105Y915419D01*
X992328Y914919D01*
X991550Y914419D01*
X990772Y913975D01*
X990661Y913920D01*
X990439Y913808D01*
X989995Y913642D01*
X989439Y913419D01*
X988773Y913197D01*
X988050Y912975D01*
X987217Y912753D01*
X986328Y912642D01*
X986384D01*
X986551Y912586D01*
X986773D01*
X987106Y912531D01*
X987495Y912475D01*
X987939Y912364D01*
X988439Y912309D01*
X989050Y912253D01*
X990272Y912086D01*
X991606Y911920D01*
X992939Y911864D01*
X994272Y911809D01*
X994772D01*
X995383Y911864D01*
X996161Y911920D01*
X997105Y912031D01*
X998160Y912142D01*
X999382Y912364D01*
X1000605Y912642D01*
X1000660D01*
X1000771Y912697D01*
X1000938Y912753D01*
X1001216Y912809D01*
X1001493Y912920D01*
X1001882Y913086D01*
X1002827Y913475D01*
X1003938Y914031D01*
X1005160Y914808D01*
X1005882Y915253D01*
X1006548Y915753D01*
X1007271Y916308D01*
X1008048Y916919D01*
X1008471Y916464D01*
X1008493Y916475D01*
X1008604Y916641D01*
X1008826Y916808D01*
X1009381Y917308D01*
X1010048Y917919D01*
X1010770Y918586D01*
X1011492Y919197D01*
X1012159Y919808D01*
X1012659Y920252D01*
X1012714Y920308D01*
X1012881Y920419D01*
X1013103Y920641D01*
X1013381Y920919D01*
X1014159Y921474D01*
X1014936Y922085D01*
X1018269D01*
X1018214Y922030D01*
X1018103Y921808D01*
X1017881Y921474D01*
X1017658Y921085D01*
X1017325Y920585D01*
X1016936Y920086D01*
X1015992Y919030D01*
X1010104Y912975D01*
X1009993Y912864D01*
X1009770Y912642D01*
X1009548Y912364D01*
X1009437Y912142D01*
Y912031D01*
Y911920D01*
X1009548Y911753D01*
X1009659Y911697D01*
X1009881Y911642D01*
X1010048D01*
X1010326Y911697D01*
X1010659Y911809D01*
X1011104Y911975D01*
X1011603Y912253D01*
X1012270Y912586D01*
X1012992Y913031D01*
X1013103Y913086D01*
X1013381Y913253D01*
X1013770Y913531D01*
X1014270Y913920D01*
X1014881Y914308D01*
X1015547Y914808D01*
X1016825Y915808D01*
X1020991Y919474D01*
X1021047Y919530D01*
X1021103Y919641D01*
X1021269Y919863D01*
X1021547Y920141D01*
X1021880Y920530D01*
X1022269Y920974D01*
X1022824Y921474D01*
X1023436Y922085D01*
X1026880D01*
X1026824Y922030D01*
X1026713Y921919D01*
X1026491Y921641D01*
X1026269Y921363D01*
X1025935Y920974D01*
X1025546Y920585D01*
X1024713Y919586D01*
X1023769Y918475D01*
X1022769Y917364D01*
X1021825Y916308D01*
X1020991Y915364D01*
X1019214Y913419D01*
X1019158Y913364D01*
X1019047Y913197D01*
X1018880Y912975D01*
X1018658Y912697D01*
X1018269Y912197D01*
X1018158Y911975D01*
X1018103Y911809D01*
Y911753D01*
X1018158Y911697D01*
X1018269Y911586D01*
X1018492Y911531D01*
X1018658D01*
X1018880Y911586D01*
X1019214Y911697D01*
X1019603Y911809D01*
X1020103Y912031D01*
X1020658Y912364D01*
X1021269Y912753D01*
X1021380Y912809D01*
X1021602Y912975D01*
X1022047Y913308D01*
X1022602Y913753D01*
X1023380Y914308D01*
X1024269Y915031D01*
X1025380Y915919D01*
X1026602Y916919D01*
X1026776Y916719D01*
X1029602Y919252D01*
X1029713Y919308D01*
X1029990Y919530D01*
X1030379Y919863D01*
X1030824Y920197D01*
X1031935Y921030D01*
X1032435Y921363D01*
X1032879Y921641D01*
X1032935Y921696D01*
X1033046Y921752D01*
X1033268Y921863D01*
X1033546Y921974D01*
X1034268Y922196D01*
X1034657Y922308D01*
X1035212D01*
X1035379Y922252D01*
X1035601Y922196D01*
X1036101Y922030D01*
X1036379Y921808D01*
X1036656Y921585D01*
X1036712Y921530D01*
X1036768Y921474D01*
X1036879Y921308D01*
X1037045Y921141D01*
X1037323Y920530D01*
X1037378Y920197D01*
X1037434Y919808D01*
Y919697D01*
Y919474D01*
X1037323Y919197D01*
X1037212Y918863D01*
X1037267Y918919D01*
X1037323Y919030D01*
X1037434Y919197D01*
X1037601Y919419D01*
X1038045Y919919D01*
X1038601Y920585D01*
X1039267Y921197D01*
X1039934Y921752D01*
X1040323Y921919D01*
X1040712Y922085D01*
X1041045Y922196D01*
X1041434Y922252D01*
X1041711D01*
X1041989Y922196D01*
X1042322Y922030D01*
X1042600Y921863D01*
X1042878Y921585D01*
X1043100Y921197D01*
X1043156Y920641D01*
Y920585D01*
Y920530D01*
X1043100Y920141D01*
X1042878Y919641D01*
X1042711Y919419D01*
X1042489Y919141D01*
X1042378Y919030D01*
X1042100Y918863D01*
X1041656Y918641D01*
X1041434Y918586D01*
X1041156Y918530D01*
X1040989D01*
X1040767Y918586D01*
X1040545Y918697D01*
X1040323Y918863D01*
X1040100Y919086D01*
X1039989Y919363D01*
X1039934Y919808D01*
Y919919D01*
X1039978Y920094D01*
X1039767Y919919D01*
X1039434Y919641D01*
X1038989Y919252D01*
X1038545Y918752D01*
X1038045Y918252D01*
X1037490Y917641D01*
X1036879Y916919D01*
X1036823Y916864D01*
X1036712Y916752D01*
X1036601Y916530D01*
X1036379Y916308D01*
X1035823Y915641D01*
X1035268Y914864D01*
X1034657Y914031D01*
X1034101Y913197D01*
X1033879Y912864D01*
X1033768Y912531D01*
X1033657Y912309D01*
X1033601Y912086D01*
Y912031D01*
Y911975D01*
X1033657Y911809D01*
X1033768Y911642D01*
X1033823D01*
X1033934Y911586D01*
X1034101Y911531D01*
X1034268Y911475D01*
X1034323D01*
X1034601Y911531D01*
X1034990Y911697D01*
X1035601Y911920D01*
X1036379Y912364D01*
X1036879Y912697D01*
X1037434Y913031D01*
X1038045Y913475D01*
X1038712Y913975D01*
X1039434Y914530D01*
X1040212Y915197D01*
X1042378Y916919D01*
X1043100Y916086D01*
X1043045Y916030D01*
X1042878Y915919D01*
X1042656Y915697D01*
X1042322Y915419D01*
X1041989Y915086D01*
X1041545Y914697D01*
X1040545Y913864D01*
X1039489Y912975D01*
X1038490Y912142D01*
X1037990Y911753D01*
X1037545Y911475D01*
X1037101Y911198D01*
X1036768Y910975D01*
X1036712Y910920D01*
X1036490Y910864D01*
X1036212Y910698D01*
X1035823Y910586D01*
X1034934Y910253D01*
X1034490Y910198D01*
X1034101Y910142D01*
X1033934D01*
X1033823Y910198D01*
X1033601D01*
X1033046Y910364D01*
X1032490Y910698D01*
X1032435Y910753D01*
X1032379Y910809D01*
X1032268Y910920D01*
X1032157Y911142D01*
X1031990Y911364D01*
X1031879Y911697D01*
X1031824Y912031D01*
X1031768Y912475D01*
Y912531D01*
Y912586D01*
X1031824Y912920D01*
X1031879Y913253D01*
X1032046Y913586D01*
X1031935Y913475D01*
X1031712Y913197D01*
X1031379Y912809D01*
X1030935Y912364D01*
X1030435Y911864D01*
X1029935Y911364D01*
X1029491Y910975D01*
X1029046Y910698D01*
X1028990D01*
X1028879Y910586D01*
X1028657Y910531D01*
X1028380Y910420D01*
X1027713Y910253D01*
X1026991Y910142D01*
X1026824D01*
X1026657Y910198D01*
X1026491D01*
X1025991Y910364D01*
X1025491Y910642D01*
X1025380Y910753D01*
X1025213Y910975D01*
X1025046Y911364D01*
X1024935Y911920D01*
Y911975D01*
Y912086D01*
X1024991Y912253D01*
X1025046Y912475D01*
X1025269Y912975D01*
X1025435Y913253D01*
X1025658Y913531D01*
X1025713Y913586D01*
X1025769Y913642D01*
X1025935Y913753D01*
X1026158Y913920D01*
X1026657Y914197D01*
X1026935Y914253D01*
X1027269Y914308D01*
X1027380D01*
X1027546Y914253D01*
X1027879Y914142D01*
X1028157Y913920D01*
X1028213Y913864D01*
X1028380Y913697D01*
X1028546Y913419D01*
X1028602Y913086D01*
Y912975D01*
X1028546Y912697D01*
X1028380Y912364D01*
X1028046Y911975D01*
X1027935Y911920D01*
X1027713Y911753D01*
X1027491Y911626D01*
X1027657Y911697D01*
X1028213Y911975D01*
X1028546Y912142D01*
X1028935Y912420D01*
X1029324Y912697D01*
X1029768Y913086D01*
X1030268Y913531D01*
X1030824Y914031D01*
X1031435Y914642D01*
X1032046Y915308D01*
X1032101Y915364D01*
X1032212Y915475D01*
X1032379Y915697D01*
X1032601Y915919D01*
X1033157Y916586D01*
X1033823Y917419D01*
X1034434Y918252D01*
X1034990Y919086D01*
X1035212Y919530D01*
X1035379Y919863D01*
X1035490Y920197D01*
X1035545Y920474D01*
Y920530D01*
X1035490Y920752D01*
X1035323Y920919D01*
X1035045Y920974D01*
X1034934D01*
X1034768Y920919D01*
X1034546D01*
X1033990Y920697D01*
X1033712Y920585D01*
X1033323Y920363D01*
X1033268Y920308D01*
X1033157Y920252D01*
X1032879Y920086D01*
X1032546Y919808D01*
X1032046Y919474D01*
X1031435Y919030D01*
X1030713Y918419D01*
X1029879Y917752D01*
X1027046Y915641D01*
X1026940Y915757D01*
X1026880Y915697D01*
X1026546Y915419D01*
X1026158Y915086D01*
X1025713Y914697D01*
X1024713Y913808D01*
X1023602Y912920D01*
X1022547Y912086D01*
X1022047Y911753D01*
X1021602Y911420D01*
X1021214Y911142D01*
X1020880Y910975D01*
X1020825Y910920D01*
X1020658Y910864D01*
X1020380Y910753D01*
X1019992Y910586D01*
X1019214Y910309D01*
X1018825Y910253D01*
X1018436Y910198D01*
X1018325D01*
X1017936Y910253D01*
X1017492Y910475D01*
X1017214Y910586D01*
X1016992Y910809D01*
Y910864D01*
X1016881Y910920D01*
X1016714Y911253D01*
X1016547Y911753D01*
X1016436Y912420D01*
Y912531D01*
X1016492Y912809D01*
X1016603Y913253D01*
X1016825Y913864D01*
X1017158Y914586D01*
X1017381Y914956D01*
X1017270Y914864D01*
X1015214Y913197D01*
X1014159Y912420D01*
X1013159Y911753D01*
X1012215Y911142D01*
X1011326Y910698D01*
X1010492Y910420D01*
X1009826Y910309D01*
X1009715D01*
X1009326Y910364D01*
X1008882Y910531D01*
X1008382Y910864D01*
Y910920D01*
X1008270Y910975D01*
X1008104Y911309D01*
X1007882Y911809D01*
X1007826Y912142D01*
X1007770Y912531D01*
Y912642D01*
X1007826Y912864D01*
X1007882Y913253D01*
X1008048Y913753D01*
X1008270Y914308D01*
X1008604Y914975D01*
X1009104Y915697D01*
X1009156Y915759D01*
X1008993Y915641D01*
X1008646Y916017D01*
X1008493Y915864D01*
X1008159Y915586D01*
X1007659Y915197D01*
X1007048Y914753D01*
X1006326Y914253D01*
X1005493Y913753D01*
X1004549Y913197D01*
X1003438Y912642D01*
X1002215Y912086D01*
X1000938Y911586D01*
X999494Y911142D01*
X997938Y910753D01*
X996327Y910475D01*
X994605Y910253D01*
X992772Y910198D01*
X991994D01*
X991550Y910253D01*
X991050D01*
X990550Y910309D01*
X989939Y910364D01*
X988550Y910531D01*
X987050Y910809D01*
X985495Y911142D01*
X983884Y911586D01*
X983829D01*
X983717Y911531D01*
X983495Y911475D01*
X983162Y911420D01*
X982773Y911309D01*
X982329Y911198D01*
X981829Y911086D01*
X981273Y910975D01*
X980607Y910864D01*
X979940Y910753D01*
X978440Y910531D01*
X976774Y910420D01*
X974996Y910364D01*
X973941D01*
X973496Y910420D01*
X972607D01*
X971608Y910475D01*
X970608Y910586D01*
X969719Y910698D01*
X969386Y910753D01*
X969052Y910864D01*
X968997Y910920D01*
X968830Y910975D01*
X968608Y911086D01*
X968330Y911309D01*
X968052Y911531D01*
X967830Y911809D01*
X967663Y912197D01*
X967608Y912586D01*
Y912642D01*
Y912697D01*
X967719Y912975D01*
X967941Y913419D01*
X968108Y913642D01*
X968330Y913920D01*
X968663Y914142D01*
X969052Y914364D01*
X969497Y914586D01*
X970052Y914808D01*
X970719Y914975D01*
X971497Y915086D01*
X972441Y915197D01*
X974496D01*
X974996Y915142D01*
X975663Y915086D01*
X976385Y915031D01*
X977163Y914975D01*
X978051Y914864D01*
X978940Y914753D01*
X980940Y914419D01*
X983051Y913920D01*
X985217Y913308D01*
X985328Y913364D01*
X985551Y913419D01*
X985939Y913586D01*
X986495Y913808D01*
X987161Y914142D01*
X987939Y914586D01*
X988828Y915142D01*
X989828Y915808D01*
X990883Y916586D01*
X992050Y917530D01*
X993272Y918586D01*
X994550Y919808D01*
X995883Y921252D01*
X997272Y922807D01*
X998660Y924585D01*
X1000049Y926585D01*
X999994D01*
X999882Y926529D01*
X999660Y926474D01*
X999382Y926418D01*
X998994Y926363D01*
X998605Y926252D01*
X998105Y926140D01*
X997549Y926085D01*
X996272Y925863D01*
X994827Y925696D01*
X993272Y925585D01*
X991550Y925529D01*
X990939D01*
X990550Y925585D01*
X990050D01*
X989439Y925640D01*
X988773Y925752D01*
X988106Y925863D01*
X986662Y926140D01*
X985162Y926585D01*
X983829Y927196D01*
X983217Y927529D01*
X982662Y927974D01*
X982606Y928029D01*
X982551Y928085D01*
X982273Y928418D01*
X981829Y928918D01*
X981329Y929640D01*
X980829Y930473D01*
X980440Y931473D01*
X980107Y932584D01*
X980051Y933195D01*
X979996Y933806D01*
Y933862D01*
Y934084D01*
X980051Y934473D01*
X980107Y934917D01*
X980218Y935528D01*
X980385Y936195D01*
X980607Y936917D01*
X980940Y937750D01*
X981329Y938639D01*
X981829Y939528D01*
X982440Y940417D01*
X983162Y941361D01*
X984051Y942250D01*
X985051Y943194D01*
X986217Y944027D01*
X987550Y944861D01*
X987662Y944916D01*
X987884Y945027D01*
X988328Y945250D01*
X988884Y945527D01*
X989606Y945861D01*
X990495Y946194D01*
X991494Y946583D01*
X992605Y946972D01*
X993828Y947361D01*
X995161Y947749D01*
X996661Y948083D01*
X998216Y948416D01*
X999827Y948694D01*
X1001549Y948916D01*
X1003326Y949027D01*
X1005215Y949082D01*
X1005882D01*
X1006382Y949027D01*
D02*
G37*
%LPC*%
G36*
X925946Y932862D02*
X925612D01*
X925335Y932751D01*
X925057Y932584D01*
X924779Y932418D01*
X924446Y932140D01*
X924057Y931806D01*
X924001Y931751D01*
X923890Y931640D01*
X923668Y931418D01*
X923390Y931196D01*
X922779Y930640D01*
X922113Y930085D01*
X922168D01*
X922279Y930140D01*
X922502Y930196D01*
X922779Y930307D01*
X923168Y930418D01*
X923557Y930640D01*
X924057Y930862D01*
X924557Y931196D01*
X924613Y931251D01*
X924779Y931362D01*
X925001Y931529D01*
X925279Y931751D01*
X925557Y932029D01*
X925779Y932251D01*
X925946Y932529D01*
X926001Y932806D01*
X925946Y932862D01*
D02*
G37*
G36*
X940000Y920752D02*
X939666D01*
X939389Y920697D01*
X938944Y920530D01*
X938278Y920308D01*
X937389Y919863D01*
X936889Y919530D01*
X936333Y919197D01*
X935778Y918752D01*
X935111Y918252D01*
X934389Y917697D01*
X933667Y917030D01*
X933612Y916975D01*
X933500Y916864D01*
X933278Y916697D01*
X933056Y916419D01*
X932389Y915808D01*
X931667Y915031D01*
X930890Y914197D01*
X930223Y913419D01*
X930001Y913031D01*
X929779Y912642D01*
X929668Y912364D01*
X929612Y912086D01*
Y911975D01*
X929723Y911753D01*
X929779D01*
X929834Y911697D01*
X930167Y911642D01*
X930278D01*
X930445Y911697D01*
X930667Y911753D01*
X931001Y911864D01*
X931389Y912031D01*
X931889Y912253D01*
X932445Y912531D01*
X932501Y912586D01*
X932723Y912697D01*
X933112Y912920D01*
X933612Y913253D01*
X934223Y913697D01*
X934889Y914197D01*
X935722Y914864D01*
X936611Y915586D01*
X936667D01*
X936722Y915697D01*
X937000Y915919D01*
X937445Y916308D01*
X937944Y916808D01*
X938500Y917308D01*
X939000Y917808D01*
X939444Y918252D01*
X939778Y918641D01*
X939833Y918697D01*
X939889Y918808D01*
X940000Y918975D01*
X940111Y919197D01*
X940333Y919752D01*
X940444Y920030D01*
Y920308D01*
Y920363D01*
X940389Y920530D01*
X940166Y920697D01*
X940000Y920752D01*
D02*
G37*
G36*
X973107Y913697D02*
X972496D01*
X971830Y913642D01*
X971108Y913586D01*
X970386Y913419D01*
X969719Y913253D01*
X969497Y913142D01*
X969275Y912975D01*
X969163Y912809D01*
X969108Y912642D01*
Y912586D01*
X969219Y912475D01*
X969330Y912364D01*
X969441Y912253D01*
X969663Y912142D01*
X969941Y912031D01*
X969997D01*
X970163Y911975D01*
X970441Y911920D01*
X970941Y911864D01*
X971219Y911809D01*
X971608D01*
X971996Y911753D01*
X972996D01*
X973607Y911697D01*
X976329D01*
X976774Y911753D01*
X977885D01*
X979162Y911809D01*
X980440Y911920D01*
X981662Y912031D01*
X982218Y912086D01*
X982718Y912197D01*
X982662D01*
X982495Y912253D01*
X982162Y912364D01*
X981773Y912420D01*
X981273Y912531D01*
X980718Y912697D01*
X980107Y912809D01*
X979385Y912975D01*
X977885Y913197D01*
X976274Y913475D01*
X974663Y913642D01*
X973107Y913697D01*
D02*
G37*
G36*
X1025158Y946305D02*
X1024880D01*
X1024713Y946249D01*
X1024158Y946194D01*
X1023380Y946027D01*
X1022491Y945750D01*
X1021380Y945305D01*
X1020158Y944750D01*
X1018769Y943972D01*
X1018714D01*
X1018603Y943861D01*
X1018381Y943750D01*
X1018103Y943528D01*
X1017769Y943305D01*
X1017381Y943028D01*
X1016881Y942639D01*
X1016381Y942250D01*
X1015770Y941750D01*
X1015159Y941250D01*
X1014492Y940695D01*
X1013825Y940028D01*
X1013103Y939361D01*
X1012381Y938584D01*
X1011603Y937806D01*
X1010826Y936917D01*
X1010770Y936862D01*
X1010659Y936695D01*
X1010437Y936473D01*
X1010159Y936139D01*
X1009770Y935695D01*
X1009381Y935251D01*
X1008937Y934695D01*
X1008437Y934140D01*
X1007437Y932806D01*
X1006326Y931418D01*
X1005271Y930029D01*
X1004326Y928640D01*
X1004437Y928696D01*
X1004715Y928751D01*
X1005215Y928918D01*
X1005882Y929085D01*
X1006659Y929362D01*
X1007604Y929640D01*
X1008659Y930029D01*
X1009826Y930473D01*
X1011048Y930973D01*
X1012326Y931529D01*
X1013659Y932140D01*
X1015048Y932806D01*
X1016436Y933529D01*
X1017825Y934362D01*
X1019214Y935195D01*
X1020547Y936139D01*
X1020602Y936195D01*
X1020825Y936362D01*
X1021214Y936639D01*
X1021658Y936973D01*
X1022158Y937417D01*
X1022769Y937917D01*
X1023380Y938528D01*
X1024047Y939139D01*
X1025324Y940472D01*
X1025935Y941139D01*
X1026435Y941861D01*
X1026880Y942528D01*
X1027269Y943194D01*
X1027491Y943861D01*
X1027546Y944472D01*
Y944527D01*
Y944583D01*
X1027435Y944916D01*
X1027269Y945305D01*
X1027046Y945527D01*
X1026824Y945750D01*
X1026768D01*
X1026713Y945861D01*
X1026380Y946027D01*
X1025824Y946194D01*
X1025158Y946305D01*
D02*
G37*
%LPD*%
D31*
X1192500Y762500D02*
X1230000D01*
Y755000D02*
Y762500D01*
Y697500D02*
Y705000D01*
X1192500Y697500D02*
X1230000D01*
X1192500Y852500D02*
X1230000D01*
Y845000D02*
Y852500D01*
Y787500D02*
Y795000D01*
X1192500Y787500D02*
X1230000D01*
X825000Y1032500D02*
X862500Y1032500D01*
X825000Y1032500D02*
Y1040000D01*
Y1090000D02*
Y1097500D01*
X862500D01*
X1028250Y1030000D02*
X1065750D01*
X1028250D02*
Y1037500D01*
Y1087500D02*
Y1095000D01*
X1065750D01*
X1192500Y962500D02*
X1230000D01*
Y955000D02*
Y962500D01*
Y897500D02*
Y905000D01*
X1192500Y897500D02*
X1230000D01*
X1106000Y585003D02*
X1092671D01*
X1100003Y524000D02*
Y537329D01*
X1093339Y530664D02*
X1106668D01*
D35*
X1030200Y838200D02*
G03*
X1030200Y838200I-65000J0D01*
G01*
X1190200Y653700D02*
G03*
X1190200Y653700I-35000J0D01*
G01*
X810200D02*
G03*
X810200Y653700I-35000J0D01*
G01*
X1190200Y1013700D02*
G03*
X1190200Y1013700I-35000J0D01*
G01*
X810200D02*
G03*
X810200Y1013700I-35000J0D01*
G01*
X1054750Y673750D02*
X1045753D01*
Y678249D01*
X1047252Y679748D01*
X1050251D01*
X1051751Y678249D01*
Y673750D01*
X1047252Y682747D02*
X1045753Y684247D01*
Y687246D01*
X1047252Y688745D01*
X1048752D01*
X1050251Y687246D01*
Y685746D01*
Y687246D01*
X1051751Y688745D01*
X1053251D01*
X1054750Y687246D01*
Y684247D01*
X1053251Y682747D01*
X697000Y1074000D02*
Y1082997D01*
X701498D01*
X702998Y1081498D01*
Y1078499D01*
X701498Y1076999D01*
X697000D01*
X710496Y1074000D02*
Y1082997D01*
X705997Y1078499D01*
X711995D01*
X1124958Y726749D02*
X1130153Y723749D01*
X1134249Y724847D01*
X1133152Y728944D01*
X1127957Y731943D01*
X1129457Y734540D02*
X1137249Y730042D01*
X1139498Y733938D01*
X1138949Y735986D01*
X1133755Y738985D01*
X1131706Y738436D01*
X1129457Y734540D01*
X1135254Y741582D02*
X1134705Y743631D01*
X1136205Y746228D01*
X1138253Y746777D01*
X1139552Y746027D01*
X1140100Y743979D01*
X1139351Y742680D01*
X1140100Y743979D01*
X1142149Y744527D01*
X1143447Y743778D01*
X1143996Y741729D01*
X1142497Y739132D01*
X1140449Y738583D01*
X835000Y1113747D02*
Y1107749D01*
X837999Y1104750D01*
X840998Y1107749D01*
Y1113747D01*
X843997D02*
X849995D01*
X846996D01*
Y1104750D01*
X858992Y1113747D02*
X852994D01*
Y1109249D01*
X855993Y1110748D01*
X857493D01*
X858992Y1109249D01*
Y1106249D01*
X857493Y1104750D01*
X854494D01*
X852994Y1106249D01*
X1253003Y809000D02*
X1259001D01*
X1262000Y811999D01*
X1259001Y814998D01*
X1253003D01*
Y817997D02*
Y823995D01*
Y820996D01*
X1262000D01*
Y831493D02*
X1253003D01*
X1257501Y826994D01*
Y832992D01*
X1253003Y918000D02*
X1259001D01*
X1262000Y920999D01*
X1259001Y923998D01*
X1253003D01*
Y926997D02*
Y932995D01*
Y929996D01*
X1262000D01*
X1254502Y935994D02*
X1253003Y937494D01*
Y940493D01*
X1254502Y941992D01*
X1256002D01*
X1257501Y940493D01*
Y938993D01*
Y940493D01*
X1259001Y941992D01*
X1260500D01*
X1262000Y940493D01*
Y937494D01*
X1260500Y935994D01*
X1197000Y776997D02*
Y770999D01*
X1199999Y768000D01*
X1202998Y770999D01*
Y776997D01*
X1205997D02*
X1211995D01*
X1208996D01*
Y768000D01*
X1220992D02*
X1214994D01*
X1220992Y773998D01*
Y775498D01*
X1219493Y776997D01*
X1216494D01*
X1214994Y775498D01*
X1037000Y1110497D02*
Y1104499D01*
X1039999Y1101500D01*
X1042998Y1104499D01*
Y1110497D01*
X1045997D02*
X1051995D01*
X1048996D01*
Y1101500D01*
X1054994D02*
X1057993D01*
X1056494D01*
Y1110497D01*
X1054994Y1108998D01*
X678000Y669997D02*
Y663999D01*
X680999Y661000D01*
X683998Y663999D01*
Y669997D01*
X686997D02*
Y661000D01*
X691496D01*
X692995Y662499D01*
Y668498D01*
X691496Y669997D01*
X686997D01*
X695994Y668498D02*
X697494Y669997D01*
X700493D01*
X701992Y668498D01*
Y666998D01*
X700493Y665499D01*
X701992Y663999D01*
Y662499D01*
X700493Y661000D01*
X697494D01*
X695994Y662499D01*
Y663999D01*
X697494Y665499D01*
X695994Y666998D01*
Y668498D01*
X697494Y665499D02*
X700493D01*
X955750Y507247D02*
Y501249D01*
X958749Y498250D01*
X961748Y501249D01*
Y507247D01*
X964747D02*
Y498250D01*
X969246D01*
X970745Y499749D01*
Y505748D01*
X969246Y507247D01*
X964747D01*
X973744D02*
X979742D01*
Y505748D01*
X973744Y499749D01*
Y498250D01*
X863500Y622750D02*
X854503D01*
Y627249D01*
X856002Y628748D01*
X859001D01*
X860501Y627249D01*
Y622750D01*
Y625749D02*
X863500Y628748D01*
Y631747D02*
Y634746D01*
Y633247D01*
X854503D01*
X856002Y631747D01*
X854503Y639245D02*
Y645243D01*
X856002D01*
X862001Y639245D01*
X863500D01*
X862000Y563000D02*
X853003D01*
Y567499D01*
X854502Y568998D01*
X857502D01*
X859001Y567499D01*
Y563000D01*
Y565999D02*
X862000Y568998D01*
Y571997D02*
Y574996D01*
Y573497D01*
X853003D01*
X854502Y571997D01*
X853003Y585493D02*
X854502Y582494D01*
X857502Y579495D01*
X860500D01*
X862000Y580994D01*
Y583993D01*
X860500Y585493D01*
X859001D01*
X857502Y583993D01*
Y579495D01*
X809707Y510981D02*
Y519978D01*
X814205D01*
X815705Y518479D01*
Y515480D01*
X814205Y513980D01*
X809707D01*
X812706D02*
X815705Y510981D01*
X818704D02*
X821703D01*
X820204D01*
Y519978D01*
X818704Y518479D01*
X832200Y519978D02*
X826202D01*
Y515480D01*
X829201Y516979D01*
X830700D01*
X832200Y515480D01*
Y512481D01*
X830700Y510981D01*
X827701D01*
X826202Y512481D01*
X946000Y1075000D02*
X937003D01*
Y1079499D01*
X938502Y1080998D01*
X941501D01*
X943001Y1079499D01*
Y1075000D01*
Y1077999D02*
X946000Y1080998D01*
Y1083997D02*
Y1086996D01*
Y1085497D01*
X937003D01*
X938502Y1083997D01*
X946000Y1095993D02*
X937003D01*
X941501Y1091495D01*
Y1097493D01*
X1230000Y870000D02*
Y878997D01*
X1234499D01*
X1235998Y877498D01*
Y874499D01*
X1234499Y872999D01*
X1230000D01*
X1232999D02*
X1235998Y870000D01*
X1238997D02*
X1241996D01*
X1240497D01*
Y878997D01*
X1238997Y877498D01*
X1246495D02*
X1247994Y878997D01*
X1250993D01*
X1252493Y877498D01*
Y875998D01*
X1250993Y874499D01*
X1249494D01*
X1250993D01*
X1252493Y872999D01*
Y871499D01*
X1250993Y870000D01*
X1247994D01*
X1246495Y871499D01*
X861000Y985000D02*
X852003D01*
Y989499D01*
X853502Y990998D01*
X856501D01*
X858001Y989499D01*
Y985000D01*
Y987999D02*
X861000Y990998D01*
Y993997D02*
Y996996D01*
Y995497D01*
X852003D01*
X853502Y993997D01*
X861000Y1007493D02*
Y1001495D01*
X855002Y1007493D01*
X853502D01*
X852003Y1005993D01*
Y1002994D01*
X853502Y1001495D01*
X819440Y858124D02*
Y867121D01*
X823939D01*
X825438Y865622D01*
Y862623D01*
X823939Y861123D01*
X819440D01*
X822439D02*
X825438Y858124D01*
X828437D02*
X831436D01*
X829937D01*
Y867121D01*
X828437Y865622D01*
X835935Y858124D02*
X838934D01*
X837434D01*
Y867121D01*
X835935Y865622D01*
X881750Y692000D02*
X872753D01*
Y696499D01*
X874252Y697998D01*
X877252D01*
X878751Y696499D01*
Y692000D01*
Y694999D02*
X881750Y697998D01*
Y700997D02*
Y703996D01*
Y702497D01*
X872753D01*
X874252Y700997D01*
Y708495D02*
X872753Y709994D01*
Y712993D01*
X874252Y714493D01*
X880250D01*
X881750Y712993D01*
Y709994D01*
X880250Y708495D01*
X874252D01*
X1212000Y1003000D02*
Y1011997D01*
X1216499D01*
X1217998Y1010498D01*
Y1007499D01*
X1216499Y1005999D01*
X1212000D01*
X1214999D02*
X1217998Y1003000D01*
X1220997Y1004500D02*
X1222497Y1003000D01*
X1225496D01*
X1226995Y1004500D01*
Y1010498D01*
X1225496Y1011997D01*
X1222497D01*
X1220997Y1010498D01*
Y1008998D01*
X1222497Y1007499D01*
X1226995D01*
X1196000Y639000D02*
Y647997D01*
X1200499D01*
X1201998Y646498D01*
Y643499D01*
X1200499Y641999D01*
X1196000D01*
X1198999D02*
X1201998Y639000D01*
X1204997Y646498D02*
X1206497Y647997D01*
X1209496D01*
X1210995Y646498D01*
Y644998D01*
X1209496Y643499D01*
X1210995Y641999D01*
Y640499D01*
X1209496Y639000D01*
X1206497D01*
X1204997Y640499D01*
Y641999D01*
X1206497Y643499D01*
X1204997Y644998D01*
Y646498D01*
X1206497Y643499D02*
X1209496D01*
X1260000Y676000D02*
Y684997D01*
X1264499D01*
X1265998Y683498D01*
Y680499D01*
X1264499Y678999D01*
X1260000D01*
X1262999D02*
X1265998Y676000D01*
X1268997Y684997D02*
X1274995D01*
Y683498D01*
X1268997Y677499D01*
Y676000D01*
X1039000Y779750D02*
Y788747D01*
X1043499D01*
X1044998Y787248D01*
Y784249D01*
X1043499Y782749D01*
X1039000D01*
X1041999D02*
X1044998Y779750D01*
X1053995Y788747D02*
X1050996Y787248D01*
X1047997Y784249D01*
Y781249D01*
X1049497Y779750D01*
X1052496D01*
X1053995Y781249D01*
Y782749D01*
X1052496Y784249D01*
X1047997D01*
X1110000Y821250D02*
X1101003D01*
Y825749D01*
X1102502Y827248D01*
X1105501D01*
X1107001Y825749D01*
Y821250D01*
Y824249D02*
X1110000Y827248D01*
X1101003Y836245D02*
Y830247D01*
X1105501D01*
X1104002Y833246D01*
Y834746D01*
X1105501Y836245D01*
X1108501D01*
X1110000Y834746D01*
Y831747D01*
X1108501Y830247D01*
X1031750Y1012000D02*
Y1020997D01*
X1036249D01*
X1037748Y1019498D01*
Y1016499D01*
X1036249Y1014999D01*
X1031750D01*
X1034749D02*
X1037748Y1012000D01*
X1045246D02*
Y1020997D01*
X1040747Y1016499D01*
X1046745D01*
X1259290Y763386D02*
Y772383D01*
X1263789D01*
X1265288Y770883D01*
Y767885D01*
X1263789Y766385D01*
X1259290D01*
X1262289D02*
X1265288Y763386D01*
X1268287Y770883D02*
X1269787Y772383D01*
X1272786D01*
X1274285Y770883D01*
Y769384D01*
X1272786Y767885D01*
X1271286D01*
X1272786D01*
X1274285Y766385D01*
Y764885D01*
X1272786Y763386D01*
X1269787D01*
X1268287Y764885D01*
X1288000Y551000D02*
X1279003D01*
Y555499D01*
X1280502Y556998D01*
X1283501D01*
X1285001Y555499D01*
Y551000D01*
Y553999D02*
X1288000Y556998D01*
Y565995D02*
Y559997D01*
X1282002Y565995D01*
X1280502D01*
X1279003Y564496D01*
Y561497D01*
X1280502Y559997D01*
X1140000Y1067000D02*
X1131003D01*
Y1071498D01*
X1132502Y1072998D01*
X1135501D01*
X1137001Y1071498D01*
Y1067000D01*
Y1069999D02*
X1140000Y1072998D01*
Y1075997D02*
Y1078996D01*
Y1077497D01*
X1131003D01*
X1132502Y1075997D01*
X702750Y737997D02*
Y729000D01*
X708748D01*
X711747D02*
X714746D01*
X713247D01*
Y737997D01*
X711747Y736498D01*
X695558Y994277D02*
Y985280D01*
X700057D01*
X701556Y986779D01*
Y992778D01*
X700057Y994277D01*
X695558D01*
X704555D02*
Y985280D01*
X709054D01*
X710553Y986779D01*
Y992778D01*
X709054Y994277D01*
X704555D01*
X713552Y985280D02*
X716551D01*
X715052D01*
Y994277D01*
X713552Y992778D01*
X791000Y600997D02*
Y592000D01*
X795499D01*
X796998Y593499D01*
Y599498D01*
X795499Y600997D01*
X791000D01*
X799997Y592000D02*
Y597998D01*
X802996Y600997D01*
X805995Y597998D01*
Y592000D01*
Y596499D01*
X799997D01*
X808994Y592000D02*
X811993D01*
X810494D01*
Y600997D01*
X808994Y599498D01*
X929998Y590748D02*
X928499Y592247D01*
X925499D01*
X924000Y590748D01*
Y584749D01*
X925499Y583250D01*
X928499D01*
X929998Y584749D01*
X938995Y592247D02*
X932997D01*
Y587749D01*
X935996Y589248D01*
X937496D01*
X938995Y587749D01*
Y584749D01*
X937496Y583250D01*
X934497D01*
X932997Y584749D01*
X768998Y795498D02*
X767498Y796997D01*
X764500D01*
X763000Y795498D01*
Y789500D01*
X764500Y788000D01*
X767498D01*
X768998Y789500D01*
X776496Y788000D02*
Y796997D01*
X771997Y792498D01*
X777995D01*
X707998Y512998D02*
X706498Y514497D01*
X703500D01*
X702000Y512998D01*
Y507000D01*
X703500Y505500D01*
X706498D01*
X707998Y507000D01*
X710997Y512998D02*
X712497Y514497D01*
X715496D01*
X716995Y512998D01*
Y511498D01*
X715496Y509999D01*
X713996D01*
X715496D01*
X716995Y508499D01*
Y507000D01*
X715496Y505500D01*
X712497D01*
X710997Y507000D01*
X739998Y882497D02*
X738499Y883997D01*
X735499D01*
X734000Y882497D01*
Y876499D01*
X735499Y875000D01*
X738499D01*
X739998Y876499D01*
X748995Y875000D02*
X742997D01*
X748995Y880998D01*
Y882497D01*
X747496Y883997D01*
X744497D01*
X742997Y882497D01*
X761998Y852498D02*
X760499Y853997D01*
X757499D01*
X756000Y852498D01*
Y846499D01*
X757499Y845000D01*
X760499D01*
X761998Y846499D01*
X764997Y845000D02*
X767996D01*
X766497D01*
Y853997D01*
X764997Y852498D01*
X955492Y1039922D02*
Y1033924D01*
X958491Y1030925D01*
X961490Y1033924D01*
Y1039922D01*
X964489D02*
Y1030925D01*
X968987D01*
X970487Y1032425D01*
Y1038423D01*
X968987Y1039922D01*
X964489D01*
X973486Y1030925D02*
X976485D01*
X974985D01*
Y1039922D01*
X973486Y1038423D01*
X1131610Y947960D02*
X1126416Y944961D01*
X1125318Y940864D01*
X1129415Y939767D01*
X1134609Y942766D01*
X1136109Y940168D02*
X1128317Y935670D01*
X1130566Y931774D01*
X1132615Y931225D01*
X1137809Y934224D01*
X1138358Y936273D01*
X1136109Y940168D01*
X1135815Y922684D02*
X1132816Y927878D01*
X1141009Y925683D01*
X1142308Y926432D01*
X1142857Y928481D01*
X1141357Y931078D01*
X1139309Y931627D01*
X948918Y645528D02*
Y639530D01*
X951917Y636531D01*
X954916Y639530D01*
Y645528D01*
X957915D02*
Y636531D01*
X962414D01*
X963913Y638031D01*
Y644029D01*
X962414Y645528D01*
X957915D01*
X971411Y636531D02*
Y645528D01*
X966912Y641030D01*
X972910D01*
X795714Y747017D02*
X790520Y744018D01*
X789422Y739921D01*
X793519Y738824D01*
X798713Y741823D01*
X800213Y739225D02*
X792421Y734727D01*
X794670Y730831D01*
X796719Y730282D01*
X801913Y733281D01*
X802462Y735330D01*
X800213Y739225D01*
X807710Y726239D02*
X804711Y731434D01*
X800816Y729184D01*
X803614Y727337D01*
X804363Y726038D01*
X803815Y723990D01*
X801217Y722490D01*
X799169Y723039D01*
X797670Y725637D01*
X798218Y727685D01*
X793458Y942999D02*
X798653Y939999D01*
X802749Y941097D01*
X801652Y945194D01*
X796457Y948193D01*
X797957Y950790D02*
X805749Y946292D01*
X807998Y950188D01*
X807449Y952236D01*
X802254Y955235D01*
X800206Y954686D01*
X797957Y950790D01*
X805454Y963776D02*
X805254Y960429D01*
X806351Y956333D01*
X808949Y954833D01*
X810997Y955382D01*
X812496Y957979D01*
X811947Y960028D01*
X810649Y960777D01*
X808600Y960229D01*
X806351Y956333D01*
X1177998Y609498D02*
X1176498Y610997D01*
X1173500D01*
X1172000Y609498D01*
Y607998D01*
X1173500Y606498D01*
X1176498D01*
X1177998Y604999D01*
Y603499D01*
X1176498Y602000D01*
X1173500D01*
X1172000Y603499D01*
X1180997Y610997D02*
Y602000D01*
X1183996Y604999D01*
X1186995Y602000D01*
Y610997D01*
X1189994Y602000D02*
X1192993D01*
X1191494D01*
Y610997D01*
X1189994Y609498D01*
X978000Y734000D02*
Y742997D01*
X982498D01*
X983998Y741498D01*
Y738499D01*
X982498Y736999D01*
X978000D01*
X986997Y734000D02*
X989996D01*
X988497D01*
Y742997D01*
X986997Y741498D01*
X1007250Y962712D02*
Y971709D01*
X1011749D01*
X1013248Y970210D01*
Y967211D01*
X1011749Y965711D01*
X1007250D01*
X1022245Y962712D02*
X1016247D01*
X1022245Y968710D01*
Y970210D01*
X1020746Y971709D01*
X1017747D01*
X1016247Y970210D01*
X1246000Y1030498D02*
X1247499Y1031997D01*
X1250499D01*
X1251998Y1030498D01*
Y1028998D01*
X1250499Y1027499D01*
X1248999D01*
X1250499D01*
X1251998Y1025999D01*
Y1024500D01*
X1250499Y1023000D01*
X1247499D01*
X1246000Y1024500D01*
X1254997Y1023000D02*
Y1024500D01*
X1256497D01*
Y1023000D01*
X1254997D01*
X1262495Y1030498D02*
X1263994Y1031997D01*
X1266993D01*
X1268493Y1030498D01*
Y1028998D01*
X1266993Y1027499D01*
X1265494D01*
X1266993D01*
X1268493Y1025999D01*
Y1024500D01*
X1266993Y1023000D01*
X1263994D01*
X1262495Y1024500D01*
X1271492Y1031997D02*
Y1025999D01*
X1274491Y1023000D01*
X1277490Y1025999D01*
Y1031997D01*
X1172000Y551000D02*
Y556998D01*
X1174999Y559997D01*
X1177998Y556998D01*
Y551000D01*
Y555499D01*
X1172000D01*
X1180997Y559997D02*
Y551000D01*
X1185496D01*
X1186995Y552500D01*
Y558498D01*
X1185496Y559997D01*
X1180997D01*
X1195992Y558498D02*
X1194493Y559997D01*
X1191494D01*
X1189994Y558498D01*
Y552500D01*
X1191494Y551000D01*
X1194493D01*
X1195992Y552500D01*
X671998Y1021498D02*
X670499Y1022997D01*
X667499D01*
X666000Y1021498D01*
Y1019998D01*
X667499Y1018499D01*
X670499D01*
X671998Y1016999D01*
Y1015499D01*
X670499Y1014000D01*
X667499D01*
X666000Y1015499D01*
X674997Y1022997D02*
Y1014000D01*
X677996Y1016999D01*
X680995Y1014000D01*
Y1022997D01*
X683994D02*
Y1014000D01*
X688493D01*
X689992Y1015499D01*
Y1021498D01*
X688493Y1022997D01*
X683994D01*
X692991D02*
X695990D01*
X694491D01*
Y1014000D01*
X692991D01*
X695990D01*
X704987Y1022997D02*
X701988D01*
X700489Y1021498D01*
Y1015499D01*
X701988Y1014000D01*
X704987D01*
X706487Y1015499D01*
Y1021498D01*
X704987Y1022997D01*
X760159Y1095194D02*
X758660Y1096694D01*
X755661D01*
X754161Y1095194D01*
Y1093695D01*
X755661Y1092195D01*
X758660D01*
X760159Y1090696D01*
Y1089196D01*
X758660Y1087697D01*
X755661D01*
X754161Y1089196D01*
X763158Y1096694D02*
Y1087697D01*
X766157Y1090696D01*
X769156Y1087697D01*
Y1096694D01*
X778153Y1095194D02*
X776654Y1096694D01*
X773655D01*
X772155Y1095194D01*
Y1089196D01*
X773655Y1087697D01*
X776654D01*
X778153Y1089196D01*
X781152Y1096694D02*
Y1087697D01*
X787150D01*
X790150Y1096694D02*
Y1087697D01*
Y1090696D01*
X796148Y1096694D01*
X791649Y1092195D01*
X796148Y1087697D01*
X1094097Y782941D02*
X1089019Y774145D01*
X1066597Y741941D02*
X1061519Y733145D01*
X1068456Y735004D02*
X1059660Y740082D01*
X837653Y888059D02*
X842731Y896855D01*
X859403Y919059D02*
X864481Y927855D01*
X857544Y925996D02*
X866340Y920918D01*
X866403Y744941D02*
X861325Y753737D01*
X848153Y778441D02*
X843075Y787237D01*
X841216Y780300D02*
X850012Y785378D01*
X989500Y701882D02*
X979343D01*
X950000Y704382D02*
X939843D01*
X944922Y699304D02*
Y709461D01*
X1069597Y929059D02*
X1074675Y920263D01*
X1084597Y895559D02*
X1089675Y886763D01*
X1091534Y893700D02*
X1082738Y888622D01*
X919200Y995888D02*
X929357D01*
X1000200Y996888D02*
X1010357D01*
X1005278Y1001966D02*
Y991809D01*
X874330Y499092D02*
X864173D01*
X869252Y494014D02*
Y504171D01*
X667093Y818670D02*
Y828827D01*
X662014Y823748D02*
X672171D01*
D39*
X696700Y909500D02*
G03*
X696700Y909500I-1250J0D01*
G01*
X739750Y680750D02*
G03*
X739750Y680750I-1250J0D01*
G01*
X751000Y589550D02*
G03*
X751000Y589550I-1250J0D01*
G01*
X984500Y577500D02*
G03*
X984500Y577500I-1250J0D01*
G01*
D40*
X711000Y932000D02*
G03*
X711000Y932000I-3000J0D01*
G01*
X775250Y577000D02*
G03*
X775250Y577000I-3000J0D01*
G01*
D41*
X1273250Y554000D02*
Y566000D01*
X1256750Y554000D02*
Y566000D01*
X1234500Y635750D02*
X1246500D01*
X1234500Y652250D02*
X1246500D01*
X1224000Y684250D02*
X1236000D01*
X1224000Y667750D02*
X1236000D01*
X1194000Y883250D02*
X1206000D01*
X1194000Y866750D02*
X1206000D01*
X1214000Y993250D02*
X1226000D01*
X1214000Y976750D02*
X1226000D01*
X821000Y818750D02*
Y830750D01*
X837500Y818750D02*
Y830750D01*
X698000Y922000D02*
X748000D01*
X698000Y954000D02*
X748000D01*
X698000Y922000D02*
Y954000D01*
X748000Y922000D02*
Y954000D01*
X1277250Y724000D02*
Y736000D01*
X1260750Y724000D02*
Y736000D01*
X935000Y518500D02*
Y575000D01*
X915000D02*
X935000D01*
X867000D02*
X887000D01*
X867000Y518500D02*
Y575000D01*
X915000Y507000D02*
X923500D01*
X935000Y518500D01*
X867000D02*
X878500Y507000D01*
X887000D01*
X685000Y711750D02*
Y716500D01*
X731000Y711750D02*
Y716500D01*
X685000Y677500D02*
Y682250D01*
X731000Y677500D02*
Y682250D01*
X685000Y716500D02*
X731000D01*
X685000Y677500D02*
X731000D01*
X701250Y538500D02*
Y547500D01*
X718750Y538500D02*
Y547500D01*
X762250Y537000D02*
Y587000D01*
X794250Y537000D02*
Y587000D01*
X762250D02*
X794250D01*
X762250Y537000D02*
X794250D01*
X847250Y568000D02*
Y580000D01*
X830750Y568000D02*
Y580000D01*
X771750Y524750D02*
X783750D01*
X771750Y508250D02*
X783750D01*
X830750Y625500D02*
Y637500D01*
X847250Y625500D02*
Y637500D01*
X947500Y524000D02*
X952250Y524000D01*
X947500Y570000D02*
X952250Y570000D01*
X981750Y524000D02*
X986500D01*
X981750Y570000D02*
X986500D01*
X947500Y524000D02*
Y570000D01*
X986500Y524000D02*
Y570000D01*
X891750Y694250D02*
Y706250D01*
X908250Y694250D02*
Y706250D01*
X1033000Y987250D02*
X1045000D01*
X1033000Y1003750D02*
X1045000D01*
X1095000Y870500D02*
X1107000D01*
X1095000Y854000D02*
X1107000D01*
X1073145Y765179D02*
X1079145Y775571D01*
X1058855Y773429D02*
X1064855Y783821D01*
X699500Y870250D02*
X708500D01*
X699500Y887750D02*
X708500D01*
X686500Y758000D02*
X743000D01*
Y778000D01*
Y806000D02*
Y826000D01*
X686500D02*
X743000D01*
X675000Y769500D02*
Y778000D01*
Y769500D02*
X686500Y758000D01*
X675000Y814500D02*
X686500Y826000D01*
X675000Y806000D02*
Y814500D01*
X720500Y857750D02*
X729500D01*
X720500Y840250D02*
X729500D01*
X1107250Y1066250D02*
Y1078250D01*
X1123750Y1066250D02*
Y1078250D01*
X825750Y991500D02*
Y1003500D01*
X842250Y991500D02*
Y1003500D01*
X909750Y1082000D02*
Y1094000D01*
X926250Y1082000D02*
Y1094000D01*
D42*
X1065670Y679460D02*
X1065670Y684540D01*
X1075830Y679460D02*
Y684540D01*
X700960Y1065080D02*
X706040Y1065080D01*
X700960Y1054920D02*
X706040D01*
X982460Y723080D02*
X987540Y723080D01*
X982460Y712920D02*
X987540D01*
X1053710Y972830D02*
X1058790Y972830D01*
X1053710Y962670D02*
X1058790D01*
M02*
