G04 Layer_Color=255*
%FSLAX44Y44*%
%MOMM*%
G71*
G01*
G75*
%ADD11C,2.0000*%
%ADD12R,2.0000X1.2000*%
%ADD13R,2.0000X4.0000*%
%ADD14R,1.8500X1.8500*%
%ADD15R,1.8500X1.8500*%
G04:AMPARAMS|DCode=16|XSize=2.5mm|YSize=2.5mm|CornerRadius=0.625mm|HoleSize=0mm|Usage=FLASHONLY|Rotation=240.000|XOffset=0mm|YOffset=0mm|HoleType=Round|Shape=RoundedRectangle|*
%AMROUNDEDRECTD16*
21,1,2.5000,1.2500,0,0,240.0*
21,1,1.2500,2.5000,0,0,240.0*
1,1,1.2500,-0.8538,-0.2288*
1,1,1.2500,-0.2288,0.8538*
1,1,1.2500,0.8538,0.2288*
1,1,1.2500,0.2288,-0.8538*
%
%ADD16ROUNDEDRECTD16*%
G04:AMPARAMS|DCode=17|XSize=2.5mm|YSize=2.5mm|CornerRadius=0.625mm|HoleSize=0mm|Usage=FLASHONLY|Rotation=120.000|XOffset=0mm|YOffset=0mm|HoleType=Round|Shape=RoundedRectangle|*
%AMROUNDEDRECTD17*
21,1,2.5000,1.2500,0,0,120.0*
21,1,1.2500,2.5000,0,0,120.0*
1,1,1.2500,0.2288,0.8538*
1,1,1.2500,0.8538,-0.2288*
1,1,1.2500,-0.2288,-0.8538*
1,1,1.2500,-0.8538,0.2288*
%
%ADD17ROUNDEDRECTD17*%
G04:AMPARAMS|DCode=18|XSize=2.5mm|YSize=2.5mm|CornerRadius=0.625mm|HoleSize=0mm|Usage=FLASHONLY|Rotation=180.000|XOffset=0mm|YOffset=0mm|HoleType=Round|Shape=RoundedRectangle|*
%AMROUNDEDRECTD18*
21,1,2.5000,1.2500,0,0,180.0*
21,1,1.2500,2.5000,0,0,180.0*
1,1,1.2500,-0.6250,0.6250*
1,1,1.2500,0.6250,0.6250*
1,1,1.2500,0.6250,-0.6250*
1,1,1.2500,-0.6250,-0.6250*
%
%ADD18ROUNDEDRECTD18*%
%ADD19O,0.6000X1.7000*%
%ADD20C,1.0000*%
%ADD21R,2.2000X4.1500*%
%ADD22R,2.5000X2.1500*%
%ADD23R,1.9500X1.8500*%
%ADD24O,1.7000X0.6000*%
%ADD25R,2.1500X2.5000*%
%ADD26O,6.0000X4.0000*%
%ADD27P,2.6163X4X375.0*%
%ADD28R,1.8500X1.9500*%
%ADD29R,4.1500X2.2000*%
%ADD36C,1.8000*%
%ADD37C,1.6000*%
%ADD38C,3.0000*%
D11*
X1225000Y560000D02*
D03*
X1257000Y1051000D02*
D03*
X723038Y1017771D02*
D03*
X738000Y1091000D02*
D03*
X1131000Y607000D02*
D03*
X1251250D02*
D03*
X1251250Y509000D02*
D03*
X1131250D02*
D03*
D12*
X1172500Y752500D02*
D03*
Y730000D02*
D03*
Y707500D02*
D03*
Y842500D02*
D03*
Y820000D02*
D03*
Y797500D02*
D03*
X882500Y1042500D02*
D03*
Y1065000D02*
D03*
Y1087500D02*
D03*
X1085750Y1040000D02*
D03*
Y1062500D02*
D03*
Y1085000D02*
D03*
X1172500Y952500D02*
D03*
Y930000D02*
D03*
Y907500D02*
D03*
D13*
X1235000Y730000D02*
D03*
Y820000D02*
D03*
X820000Y1065000D02*
D03*
X1023250Y1062500D02*
D03*
X1235000Y930000D02*
D03*
D14*
X1265000Y575500D02*
D03*
Y544500D02*
D03*
X1070750Y697500D02*
D03*
Y666500D02*
D03*
X829250Y809250D02*
D03*
Y840250D02*
D03*
X1269000Y745500D02*
D03*
Y714500D02*
D03*
X839000Y589500D02*
D03*
Y558500D02*
D03*
Y616000D02*
D03*
Y647000D02*
D03*
X900000Y684750D02*
D03*
Y715750D02*
D03*
X1115500Y1056750D02*
D03*
Y1087750D02*
D03*
X834000Y982000D02*
D03*
Y1013000D02*
D03*
X918000Y1072500D02*
D03*
Y1103500D02*
D03*
D15*
X1256000Y644000D02*
D03*
X1225000D02*
D03*
X1214500Y676000D02*
D03*
X1245500D02*
D03*
X1184500Y875000D02*
D03*
X1215500D02*
D03*
X1204500Y985000D02*
D03*
X1235500D02*
D03*
X719000Y1060000D02*
D03*
X688000D02*
D03*
X762250Y516500D02*
D03*
X793250D02*
D03*
X1054500Y995500D02*
D03*
X1023500D02*
D03*
X1085500Y862250D02*
D03*
X1116500D02*
D03*
X1000500Y718000D02*
D03*
X969500D02*
D03*
X1071750Y967750D02*
D03*
X1040750D02*
D03*
D16*
X1107331Y770038D02*
D03*
X1089331Y738862D02*
D03*
X822619Y902861D02*
D03*
X840619Y934038D02*
D03*
D17*
X842989Y738862D02*
D03*
X824989Y770038D02*
D03*
X1088750Y932750D02*
D03*
X1106750Y901573D02*
D03*
D18*
X983200Y682130D02*
D03*
X947200D02*
D03*
Y994270D02*
D03*
X983200D02*
D03*
D19*
X703950Y909500D02*
D03*
X716650D02*
D03*
X729350D02*
D03*
X742050D02*
D03*
X703950Y966500D02*
D03*
X716650D02*
D03*
X729350D02*
D03*
X742050D02*
D03*
D20*
X670000Y1125000D02*
D03*
X1275000Y1110000D02*
D03*
X700000Y605000D02*
D03*
D21*
X901000Y565000D02*
D03*
Y517000D02*
D03*
D22*
X688000Y697000D02*
D03*
X728000D02*
D03*
D23*
X710000Y528000D02*
D03*
Y558000D02*
D03*
D24*
X749750Y581050D02*
D03*
Y568350D02*
D03*
Y555650D02*
D03*
Y542950D02*
D03*
X806750Y581050D02*
D03*
Y568350D02*
D03*
Y555650D02*
D03*
Y542950D02*
D03*
D25*
X967000Y527000D02*
D03*
Y567000D02*
D03*
D26*
X1047250Y578000D02*
D03*
X1047750Y523500D02*
D03*
D27*
X1076750Y787923D02*
D03*
X1061250Y761077D02*
D03*
D28*
X719000Y879000D02*
D03*
X689000D02*
D03*
X710000Y849000D02*
D03*
X740000D02*
D03*
D29*
X733000Y792000D02*
D03*
X685000D02*
D03*
D36*
X1236000Y584750D02*
D03*
X1206250Y585000D02*
D03*
X1176000D02*
D03*
X1146000Y584750D02*
D03*
X1236250Y531000D02*
D03*
X1206250Y531250D02*
D03*
X1176000Y531250D02*
D03*
X1146250Y531000D02*
D03*
D37*
X733000Y733000D02*
D03*
X683000D02*
D03*
D38*
X1034750Y523000D02*
D03*
Y578000D02*
D03*
M02*
