G04 Layer_Color=2752767*
%FSLAX44Y44*%
%MOMM*%
G71*
G01*
G75*
%ADD75C,0.0508*%
%ADD76C,0.0677*%
D75*
X323768Y696768D02*
Y700832D01*
X327832D01*
Y696768D01*
X323768D01*
Y416768D02*
Y420832D01*
X327832D01*
Y416768D01*
X323768D01*
X1043768Y696768D02*
Y700832D01*
X1047832D01*
Y696768D01*
X1043768D01*
Y416768D02*
Y420832D01*
X1047832D01*
Y416768D01*
X1043768D01*
X973206Y401835D02*
X971174Y405899D01*
X975238D01*
X973206Y401835D01*
X951993Y380975D02*
X949961Y385039D01*
X954025D01*
X951993Y380975D01*
X930603Y359585D02*
X928571Y363649D01*
X932635D01*
X930603Y359585D01*
X909567Y338195D02*
X907535Y342259D01*
X911599D01*
X909567Y338195D01*
X1011390Y364005D02*
X1009358Y368069D01*
X1013422D01*
X1011390Y364005D01*
X990000Y342968D02*
X987968Y347032D01*
X992032D01*
X990000Y342968D01*
X968610Y321578D02*
X966578Y325642D01*
X970642D01*
X968610Y321578D01*
X947750Y300365D02*
X945718Y304429D01*
X949782D01*
X947750Y300365D01*
X883227Y343322D02*
X884243Y344338D01*
X885259D01*
X884243Y345354D01*
X885259Y346370D01*
X884243D01*
X883227Y347386D01*
X882211Y346370D01*
X881195D01*
X882211Y345354D01*
X881195Y344338D01*
X882211D01*
X883227Y343322D01*
X968256Y428351D02*
X969272Y429367D01*
X970288D01*
X969272Y430383D01*
X970288Y431399D01*
X969272D01*
X968256Y432415D01*
X967240Y431399D01*
X966224D01*
X967240Y430383D01*
X966224Y429367D01*
X967240D01*
X968256Y428351D01*
X1037553Y359055D02*
X1038569Y360071D01*
X1039585D01*
X1038569Y361087D01*
X1039585Y362103D01*
X1038569D01*
X1037553Y363119D01*
X1036537Y362103D01*
X1035521D01*
X1036537Y361087D01*
X1035521Y360071D01*
X1036537D01*
X1037553Y359055D01*
X952700Y274202D02*
X953716Y275218D01*
X954732D01*
X953716Y276234D01*
X954732Y277250D01*
X953716D01*
X952700Y278266D01*
X951684Y277250D01*
X950668D01*
X951684Y276234D01*
X950668Y275218D01*
X951684D01*
X952700Y274202D01*
X682768Y775518D02*
X683784Y777550D01*
X682768Y779582D01*
X684800Y778566D01*
X686832Y779582D01*
X685816Y777550D01*
X686832Y775518D01*
X684800Y776534D01*
X682768Y775518D01*
X870458Y443518D02*
X871474Y445550D01*
X870458Y447582D01*
X872490Y446566D01*
X874522Y447582D01*
X873506Y445550D01*
X874522Y443518D01*
X872490Y444534D01*
X870458Y443518D01*
Y666518D02*
X871474Y668550D01*
X870458Y670582D01*
X872490Y669566D01*
X874522Y670582D01*
X873506Y668550D01*
X874522Y666518D01*
X872490Y667534D01*
X870458Y666518D01*
X682768Y338268D02*
X683784Y340300D01*
X682768Y342332D01*
X684800Y341316D01*
X686832Y342332D01*
X685816Y340300D01*
X686832Y338268D01*
X684800Y339284D01*
X682768Y338268D01*
X496268Y443738D02*
X497284Y445770D01*
X496268Y447802D01*
X498300Y446786D01*
X500332Y447802D01*
X499316Y445770D01*
X500332Y443738D01*
X498300Y444754D01*
X496268Y443738D01*
Y665988D02*
X497284Y668020D01*
X496268Y670052D01*
X498300Y669036D01*
X500332Y670052D01*
X499316Y668020D01*
X500332Y665988D01*
X498300Y667004D01*
X496268Y665988D01*
X428984Y321484D02*
Y320468D01*
X431016D01*
Y321484D01*
X432032D01*
Y323516D01*
X431016D01*
Y324532D01*
X428984D01*
Y323516D01*
X427968D01*
Y321484D01*
X428984D01*
X483984D02*
Y320468D01*
X486016D01*
Y321484D01*
X487032D01*
Y323516D01*
X486016D01*
Y324532D01*
X483984D01*
Y323516D01*
X482968D01*
Y321484D01*
X483984D01*
X362968Y622968D02*
X363984D01*
X365000Y623984D01*
X366016Y622968D01*
X367032D01*
Y623984D01*
X366016Y625000D01*
X367032Y626016D01*
Y627032D01*
X366016D01*
X365000Y626016D01*
X363984Y627032D01*
X362968D01*
Y626016D01*
X363984Y625000D01*
X362968Y623984D01*
Y622968D01*
X312968D02*
X313984D01*
X315000Y623984D01*
X316016Y622968D01*
X317032D01*
Y623984D01*
X316016Y625000D01*
X317032Y626016D01*
Y627032D01*
X316016D01*
X315000Y626016D01*
X313984Y627032D01*
X312968D01*
Y626016D01*
X313984Y625000D01*
X312968Y623984D01*
Y622968D01*
D76*
X687832Y558800D02*
G03*
X687832Y558800I-2032J0D01*
G01*
M02*
