G04 Layer_Color=48896*
%FSLAX44Y44*%
%MOMM*%
G71*
G01*
G75*
%ADD26C,0.6000*%
%ADD54C,0.2500*%
%ADD55C,0.2540*%
%ADD56C,0.2000*%
%ADD57R,0.5500X1.6500*%
%ADD94R,1.6500X0.5500*%
G36*
X315687Y-242012D02*
X315975Y-242039D01*
X316158Y-242065D01*
X316210D01*
X317101Y-242222D01*
X317939Y-242431D01*
X318777Y-242693D01*
X319536Y-242981D01*
X320269Y-243296D01*
X320950Y-243662D01*
X321578Y-243976D01*
X322155Y-244343D01*
X322652Y-244683D01*
X323124Y-244998D01*
X323516Y-245286D01*
X323830Y-245548D01*
X324066Y-245783D01*
X324276Y-245940D01*
X324407Y-246071D01*
X324433Y-246098D01*
X324930Y-246647D01*
X325349Y-247223D01*
X325716Y-247800D01*
X326030Y-248376D01*
X326292Y-248952D01*
X326475Y-249502D01*
X326632Y-250078D01*
X326737Y-250602D01*
X326842Y-251073D01*
X326868Y-251518D01*
X326921Y-251937D01*
Y-252251D01*
X326947Y-252539D01*
Y-252749D01*
X326921Y-252880D01*
Y-252932D01*
X326816Y-253613D01*
X326659Y-254294D01*
X326475Y-254949D01*
X326240Y-255551D01*
X325978Y-256127D01*
X325690Y-256677D01*
X325114Y-257672D01*
X324826Y-258117D01*
X324564Y-258484D01*
X324276Y-258824D01*
X324066Y-259086D01*
X323883Y-259322D01*
X323726Y-259479D01*
X323621Y-259583D01*
X323595Y-259610D01*
X322914Y-260238D01*
X322181Y-260762D01*
X321421Y-261207D01*
X320662Y-261548D01*
X319903Y-261835D01*
X319169Y-262045D01*
X318436Y-262202D01*
X317755Y-262307D01*
X317101Y-262386D01*
X316498Y-262412D01*
X315503D01*
X315137Y-262359D01*
X314849Y-262333D01*
X314665Y-262307D01*
X314613D01*
X313749Y-262124D01*
X312911Y-261914D01*
X312099Y-261626D01*
X311366Y-261312D01*
X310633Y-260998D01*
X309978Y-260657D01*
X309376Y-260317D01*
X308799Y-259950D01*
X308302Y-259610D01*
X307857Y-259269D01*
X307464Y-258981D01*
X307150Y-258719D01*
X306862Y-258484D01*
X306705Y-258327D01*
X306574Y-258196D01*
X306548Y-258169D01*
X305998Y-257567D01*
X305500Y-256965D01*
X305081Y-256389D01*
X304715Y-255813D01*
X304426Y-255263D01*
X304191Y-254713D01*
X304007Y-254215D01*
X303850Y-253744D01*
X303719Y-253299D01*
X303641Y-252906D01*
X303588Y-252539D01*
X303536Y-252225D01*
X303510Y-251989D01*
Y-251832D01*
Y-251728D01*
Y-251675D01*
X303562Y-251047D01*
X303693Y-250445D01*
X303903Y-249816D01*
X304138Y-249214D01*
X304400Y-248638D01*
X304715Y-248062D01*
X305369Y-247040D01*
X305683Y-246569D01*
X305998Y-246150D01*
X306286Y-245809D01*
X306548Y-245495D01*
X306757Y-245233D01*
X306940Y-245050D01*
X307045Y-244945D01*
X307097Y-244893D01*
X307778Y-244265D01*
X308512Y-243741D01*
X309271Y-243296D01*
X310030Y-242955D01*
X310816Y-242641D01*
X311549Y-242431D01*
X312309Y-242248D01*
X312989Y-242143D01*
X313644Y-242065D01*
X314272Y-242012D01*
X314822Y-241986D01*
X315294D01*
X315687Y-242012D01*
D02*
G37*
G36*
X298063Y-253456D02*
X298430Y-253613D01*
X298587Y-253718D01*
X298718Y-253796D01*
X298770Y-253849D01*
X298796Y-253875D01*
X299058Y-254137D01*
X299372Y-254451D01*
X300027Y-255106D01*
X300708Y-255786D01*
X301389Y-256467D01*
X301729Y-256755D01*
X302017Y-257043D01*
X302279Y-257305D01*
X302515Y-257541D01*
X302698Y-257724D01*
X302829Y-257855D01*
X302934Y-257960D01*
X302960Y-257986D01*
X303458Y-258484D01*
X303929Y-258955D01*
X304348Y-259374D01*
X304741Y-259767D01*
X305107Y-260133D01*
X305448Y-260474D01*
X305762Y-260788D01*
X306024Y-261050D01*
X306259Y-261286D01*
X306469Y-261495D01*
X306652Y-261678D01*
X306783Y-261809D01*
X306888Y-261914D01*
X306993Y-262019D01*
X307019Y-262045D01*
X307045Y-262071D01*
X307202Y-262228D01*
X307386Y-262412D01*
X307778Y-262805D01*
X307935Y-262962D01*
X308066Y-263092D01*
X308171Y-263197D01*
X308197Y-263223D01*
X308459Y-263485D01*
X308669Y-263747D01*
X308878Y-263957D01*
X309035Y-264114D01*
X309166Y-264245D01*
X309245Y-264323D01*
X309297Y-264376D01*
X309323Y-264402D01*
X309480Y-264611D01*
X309638Y-264821D01*
X309768Y-265214D01*
X309795Y-265397D01*
X309821Y-265528D01*
Y-265580D01*
Y-265633D01*
X309768Y-265894D01*
X309716Y-266104D01*
X309507Y-266523D01*
X309402Y-266680D01*
X309323Y-266811D01*
X309271Y-266863D01*
X309245Y-266889D01*
X309009Y-267073D01*
X308826Y-267204D01*
X308407Y-267361D01*
X308250Y-267413D01*
X308092Y-267466D01*
X307726D01*
X307464Y-267413D01*
X307281Y-267335D01*
X307097Y-267256D01*
X306940Y-267151D01*
X306809Y-267073D01*
X306757Y-267020D01*
X306731Y-266994D01*
X296204Y-256467D01*
X296047Y-256258D01*
X295890Y-256048D01*
X295759Y-255655D01*
X295732Y-255472D01*
Y-255315D01*
Y-255263D01*
Y-255210D01*
Y-254949D01*
X295811Y-254713D01*
X296021Y-254294D01*
X296125Y-254137D01*
X296178Y-254032D01*
X296256Y-253953D01*
X296282Y-253927D01*
X296518Y-253744D01*
X296701Y-253613D01*
X297120Y-253456D01*
X297304Y-253430D01*
X297435Y-253403D01*
X297513Y-253377D01*
X297827D01*
X298063Y-253456D01*
D02*
G37*
G36*
X327471Y-225253D02*
X327968Y-225436D01*
X328413Y-225672D01*
X328780Y-225934D01*
X328911Y-226012D01*
X329016Y-226117D01*
X329068Y-226170D01*
X329094Y-226196D01*
X329356Y-226458D01*
X329644Y-226746D01*
X330246Y-227400D01*
X330927Y-228081D01*
X331555Y-228762D01*
X331844Y-229050D01*
X332105Y-229364D01*
X332367Y-229626D01*
X332577Y-229836D01*
X332734Y-230045D01*
X332865Y-230176D01*
X332970Y-230281D01*
X332996Y-230307D01*
X333441Y-230805D01*
X333886Y-231250D01*
X334305Y-231721D01*
X334672Y-232088D01*
X335012Y-232481D01*
X335326Y-232795D01*
X335641Y-233109D01*
X335876Y-233397D01*
X336112Y-233633D01*
X336321Y-233842D01*
X336479Y-233999D01*
X336609Y-234130D01*
X336740Y-234261D01*
X336819Y-234340D01*
X336845Y-234366D01*
X336871Y-234392D01*
X337159Y-234680D01*
X337500Y-235021D01*
X337867Y-235335D01*
X338233Y-235702D01*
X338547Y-235963D01*
X338809Y-236225D01*
X338940Y-236304D01*
X339019Y-236382D01*
X339045Y-236409D01*
X339071Y-236435D01*
X339595Y-236906D01*
X340014Y-237325D01*
X340380Y-237692D01*
X340721Y-237980D01*
X340956Y-238215D01*
X341114Y-238372D01*
X341218Y-238477D01*
X341245Y-238503D01*
X341428Y-238739D01*
X341585Y-238949D01*
X341664Y-239184D01*
X341716Y-239394D01*
X341768Y-239551D01*
Y-239708D01*
X341794Y-239787D01*
Y-239839D01*
X341742Y-240101D01*
X341637Y-240363D01*
X341428Y-240782D01*
X341323Y-240939D01*
X341245Y-241070D01*
X341166Y-241148D01*
X341140Y-241175D01*
X340852Y-241410D01*
X340537Y-241567D01*
X340249Y-241646D01*
X339909Y-241672D01*
X339569Y-241646D01*
X339281Y-241567D01*
X338652Y-241305D01*
X338128Y-240991D01*
X337919Y-240834D01*
X337709Y-240677D01*
X337526Y-240546D01*
X337421Y-240441D01*
X337343Y-240363D01*
X337317Y-240336D01*
X337081Y-240101D01*
X336819Y-239839D01*
X336740Y-239708D01*
X336662Y-239629D01*
X336609Y-239577D01*
X336583Y-239551D01*
X336400Y-239368D01*
X336295Y-239210D01*
X336190Y-239106D01*
X336086Y-239001D01*
X335981Y-238896D01*
X335955Y-238870D01*
X335719Y-238634D01*
X335431Y-238346D01*
X335169Y-238085D01*
X334907Y-237823D01*
X334672Y-237587D01*
X334488Y-237404D01*
X334357Y-237273D01*
X334305Y-237220D01*
X333912Y-236828D01*
X333572Y-236539D01*
X333284Y-236251D01*
X333074Y-236042D01*
X332891Y-235859D01*
X332786Y-235754D01*
X332708Y-235675D01*
X332682Y-235649D01*
X331974Y-236356D01*
X331765Y-236618D01*
X331608Y-236932D01*
X331503Y-237299D01*
X331425Y-237692D01*
X331372Y-238163D01*
X331346Y-238608D01*
Y-239551D01*
X331425Y-240467D01*
X331451Y-240860D01*
X331477Y-241201D01*
X331555Y-241489D01*
X331582Y-241724D01*
X331608Y-241855D01*
Y-241908D01*
X331844Y-243139D01*
X332105Y-244186D01*
X332341Y-245102D01*
X332551Y-245836D01*
X332760Y-246412D01*
X332865Y-246621D01*
X332917Y-246831D01*
X332996Y-246962D01*
X333048Y-247066D01*
Y-247119D01*
X333074Y-247145D01*
X333258Y-247642D01*
X333284Y-248088D01*
X333258Y-248480D01*
X333127Y-248821D01*
X332996Y-249109D01*
X332865Y-249292D01*
X332786Y-249423D01*
X332734Y-249476D01*
X332498Y-249659D01*
X332289Y-249816D01*
X331870Y-249973D01*
X331687Y-250052D01*
X331555Y-250078D01*
X331477Y-250104D01*
X331110D01*
X330875Y-250078D01*
X330639Y-249999D01*
X330429Y-249895D01*
X330272Y-249790D01*
X330141Y-249711D01*
X330089Y-249659D01*
X330063Y-249633D01*
X329827Y-249345D01*
X329618Y-249030D01*
X329408Y-248664D01*
X329225Y-248271D01*
X328911Y-247381D01*
X328596Y-246490D01*
X328387Y-245652D01*
X328308Y-245260D01*
X328230Y-244919D01*
X328177Y-244657D01*
X328125Y-244448D01*
X328099Y-244317D01*
Y-244265D01*
X327968Y-243505D01*
X327889Y-242798D01*
X327811Y-242091D01*
X327758Y-241462D01*
X327732Y-240860D01*
X327706Y-240310D01*
Y-239787D01*
X327732Y-239341D01*
X327758Y-238896D01*
X327785Y-238556D01*
X327811Y-238215D01*
X327837Y-237980D01*
X327863Y-237744D01*
X327889Y-237613D01*
Y-237508D01*
X327916Y-237482D01*
X327130Y-237639D01*
X326318Y-237666D01*
X325559Y-237639D01*
X324852Y-237561D01*
X324276Y-237404D01*
X323778Y-237273D01*
X323621Y-237220D01*
X323490Y-237194D01*
X323412Y-237168D01*
X323385Y-237142D01*
X322888Y-236959D01*
X322416Y-236801D01*
X321997Y-236697D01*
X321605Y-236618D01*
X321291Y-236566D01*
X321002Y-236539D01*
X320714Y-236513D01*
X320479Y-236539D01*
X320138Y-236618D01*
X319903Y-236697D01*
X319772Y-236775D01*
X319746Y-236801D01*
X319562Y-236932D01*
X319405Y-237037D01*
X319038Y-237089D01*
X318777D01*
X318698Y-237116D01*
X318672Y-237089D01*
X318253Y-236985D01*
X317939Y-236828D01*
X317808Y-236749D01*
X317755Y-236697D01*
X317703Y-236644D01*
X317677Y-236618D01*
X317546Y-236435D01*
X317467Y-236199D01*
X317441Y-235963D01*
X317415Y-235728D01*
X317467Y-235518D01*
X317493Y-235335D01*
X317546Y-235230D01*
Y-235178D01*
X317651Y-234863D01*
X317782Y-234628D01*
X318017Y-234183D01*
X318174Y-234026D01*
X318253Y-233895D01*
X318305Y-233842D01*
X318331Y-233816D01*
X318646Y-233554D01*
X318960Y-233292D01*
X319615Y-232952D01*
X320269Y-232716D01*
X320872Y-232585D01*
X321395Y-232533D01*
X321814D01*
X322102Y-232559D01*
X322181Y-232533D01*
X322207Y-232559D01*
X322940Y-232769D01*
X323673Y-232926D01*
X324328Y-233109D01*
X324930Y-233292D01*
X325454Y-233397D01*
X325847Y-233528D01*
X326109Y-233580D01*
X326161D01*
X326187Y-233607D01*
X326632Y-233685D01*
X327025Y-233711D01*
X327418Y-233738D01*
X327758Y-233711D01*
X328439Y-233607D01*
X328963Y-233449D01*
X329408Y-233266D01*
X329723Y-233109D01*
X329958Y-232978D01*
X329984Y-232952D01*
X330010Y-232926D01*
X329434Y-232297D01*
X328885Y-231747D01*
X328413Y-231224D01*
X327942Y-230752D01*
X327575Y-230333D01*
X327209Y-229967D01*
X326894Y-229652D01*
X326632Y-229391D01*
X326423Y-229129D01*
X326213Y-228919D01*
X326056Y-228762D01*
X325925Y-228631D01*
X325821Y-228526D01*
X325768Y-228474D01*
X325716Y-228422D01*
X325533Y-228186D01*
X325402Y-228003D01*
X325245Y-227584D01*
X325218Y-227400D01*
X325192Y-227217D01*
Y-227165D01*
Y-227112D01*
X325218Y-226824D01*
X325271Y-226562D01*
X325402Y-226327D01*
X325507Y-226117D01*
X325611Y-225960D01*
X325690Y-225829D01*
X325768Y-225751D01*
X325794Y-225725D01*
X326056Y-225515D01*
X326344Y-225332D01*
X326632Y-225253D01*
X326894Y-225201D01*
X327471Y-225253D01*
D02*
G37*
G36*
X344623Y-208782D02*
X345042Y-208991D01*
X345199Y-209096D01*
X345303Y-209149D01*
X345382Y-209227D01*
X345408Y-209253D01*
X345592Y-209489D01*
X345749Y-209698D01*
X345853Y-209908D01*
X345906Y-210117D01*
X345932Y-210301D01*
X345958Y-210432D01*
X345984Y-210510D01*
Y-210562D01*
X345958Y-210851D01*
X345880Y-211086D01*
X345644Y-211531D01*
X345539Y-211689D01*
X345461Y-211819D01*
X345382Y-211898D01*
X345356Y-211924D01*
X345277Y-212003D01*
X345120Y-212160D01*
X344963Y-212317D01*
X344753Y-212526D01*
X344230Y-212998D01*
X343706Y-213522D01*
X343182Y-214045D01*
X342920Y-214255D01*
X342711Y-214464D01*
X342528Y-214648D01*
X342397Y-214778D01*
X342318Y-214857D01*
X342292Y-214883D01*
X342423Y-215014D01*
X342580Y-215224D01*
X342947Y-215590D01*
X343366Y-216062D01*
X343785Y-216533D01*
X344177Y-216978D01*
X344334Y-217188D01*
X344518Y-217371D01*
X344623Y-217528D01*
X344727Y-217633D01*
X344780Y-217685D01*
X344806Y-217711D01*
X345356Y-218314D01*
X345853Y-218864D01*
X346298Y-219361D01*
X346639Y-219754D01*
X346953Y-220068D01*
X347163Y-220278D01*
X347294Y-220409D01*
X347346Y-220461D01*
X347974Y-221089D01*
X348603Y-221666D01*
X349231Y-222242D01*
X349808Y-222713D01*
X350279Y-223132D01*
X350514Y-223315D01*
X350698Y-223446D01*
X350829Y-223577D01*
X350960Y-223656D01*
X351012Y-223708D01*
X351038Y-223734D01*
X351562Y-224153D01*
X351955Y-224494D01*
X352295Y-224782D01*
X352505Y-224991D01*
X352688Y-225122D01*
X352767Y-225201D01*
X352819Y-225253D01*
X352845Y-225279D01*
X353186Y-225672D01*
X353447Y-225986D01*
X353657Y-226353D01*
X353762Y-226667D01*
X353866Y-226981D01*
X353893Y-227269D01*
Y-227531D01*
X353866Y-227767D01*
X353762Y-228186D01*
X353605Y-228500D01*
X353447Y-228710D01*
X353421Y-228736D01*
X353395Y-228762D01*
X353238Y-228919D01*
X353081Y-229024D01*
X352950Y-229102D01*
X352924Y-229129D01*
X352767Y-229286D01*
X352583Y-229469D01*
X352191Y-229914D01*
X351981Y-230124D01*
X351850Y-230307D01*
X351745Y-230412D01*
X351693Y-230464D01*
X351431Y-230779D01*
X351169Y-231040D01*
X350960Y-231250D01*
X350803Y-231459D01*
X350645Y-231616D01*
X350541Y-231721D01*
X350488Y-231773D01*
X350462Y-231800D01*
X349991Y-232271D01*
X349467Y-232690D01*
X348996Y-233057D01*
X348524Y-233423D01*
X348079Y-233711D01*
X347634Y-233947D01*
X347241Y-234183D01*
X346848Y-234366D01*
X346482Y-234523D01*
X346194Y-234654D01*
X345906Y-234733D01*
X345670Y-234811D01*
X345487Y-234890D01*
X345356Y-234916D01*
X345251D01*
X345225Y-234942D01*
X344675Y-235021D01*
X344099D01*
X343575Y-234968D01*
X343051Y-234916D01*
X342580Y-234759D01*
X342109Y-234602D01*
X341664Y-234418D01*
X341297Y-234209D01*
X340616Y-233790D01*
X340328Y-233607D01*
X340092Y-233423D01*
X339883Y-233266D01*
X339752Y-233135D01*
X339673Y-233057D01*
X339647Y-233030D01*
X339150Y-232481D01*
X338704Y-231931D01*
X338364Y-231381D01*
X338050Y-230857D01*
X337840Y-230333D01*
X337657Y-229836D01*
X337526Y-229391D01*
X337421Y-228919D01*
X337395Y-228526D01*
X337343Y-228160D01*
Y-227846D01*
X337369Y-227558D01*
Y-227348D01*
X337395Y-227165D01*
X337421Y-227086D01*
Y-227034D01*
X337552Y-226589D01*
X337735Y-226091D01*
X338233Y-225122D01*
X338835Y-224206D01*
X339464Y-223315D01*
X339778Y-222949D01*
X340092Y-222582D01*
X340354Y-222268D01*
X340616Y-222006D01*
X340826Y-221744D01*
X340983Y-221587D01*
X341087Y-221482D01*
X341114Y-221456D01*
X341376Y-221194D01*
X341664Y-220906D01*
X341794Y-220828D01*
X341899Y-220723D01*
X341952Y-220671D01*
X341978Y-220644D01*
X341218Y-219780D01*
X340537Y-218995D01*
X339935Y-218340D01*
X339673Y-218026D01*
X339438Y-217790D01*
X339202Y-217554D01*
X339045Y-217345D01*
X338888Y-217188D01*
X338731Y-217031D01*
X338626Y-216926D01*
X338547Y-216847D01*
X338521Y-216821D01*
X338495Y-216795D01*
X338233Y-216481D01*
X337997Y-216193D01*
X337840Y-215878D01*
X337735Y-215616D01*
X337683Y-215355D01*
X337657Y-215119D01*
X337683Y-214674D01*
X337788Y-214307D01*
X337945Y-214045D01*
X338076Y-213862D01*
X338102Y-213836D01*
X338128Y-213810D01*
X338443Y-213495D01*
X338809Y-213129D01*
X339176Y-212762D01*
X339542Y-212396D01*
X339909Y-212081D01*
X340171Y-211819D01*
X340276Y-211715D01*
X340354Y-211636D01*
X340407Y-211584D01*
X340433Y-211558D01*
X340956Y-211034D01*
X341454Y-210589D01*
X341847Y-210196D01*
X342161Y-209882D01*
X342423Y-209620D01*
X342606Y-209436D01*
X342711Y-209332D01*
X342737Y-209306D01*
X342973Y-209122D01*
X343209Y-208939D01*
X343444Y-208860D01*
X343654Y-208756D01*
X343837Y-208729D01*
X343994D01*
X344073Y-208703D01*
X344387D01*
X344623Y-208782D01*
D02*
G37*
G36*
X328321Y-188914D02*
X328583Y-188966D01*
X328819Y-189045D01*
X329028Y-189150D01*
X329185Y-189254D01*
X329290Y-189307D01*
X329369Y-189385D01*
X329395Y-189412D01*
X329604Y-189674D01*
X329735Y-189961D01*
X329866Y-190197D01*
Y-190250D01*
X329893Y-190276D01*
X329945Y-190485D01*
X329997Y-190747D01*
X330128Y-191349D01*
X330259Y-192004D01*
X330364Y-192685D01*
X330495Y-193340D01*
X330600Y-193863D01*
X330626Y-194047D01*
X330652Y-194230D01*
X330678Y-194308D01*
Y-194361D01*
X330862Y-195277D01*
X331045Y-196089D01*
X331202Y-196770D01*
X331359Y-197346D01*
X331516Y-197817D01*
X331621Y-198132D01*
X331699Y-198315D01*
X331726Y-198394D01*
X331987Y-199179D01*
X332197Y-200070D01*
X332380Y-200986D01*
X332537Y-201876D01*
X332668Y-202688D01*
X332721Y-203002D01*
X332747Y-203290D01*
X332799Y-203552D01*
X332825Y-203736D01*
Y-203840D01*
Y-203893D01*
X333244Y-203997D01*
X333637Y-204076D01*
X333978Y-204155D01*
X334266Y-204233D01*
X334789Y-204338D01*
X335156Y-204390D01*
X335392Y-204416D01*
X335549Y-204469D01*
X335654D01*
X336125Y-204416D01*
X336596Y-204312D01*
X337042Y-204128D01*
X337460Y-203919D01*
X337827Y-203709D01*
X338089Y-203552D01*
X338272Y-203421D01*
X338298Y-203395D01*
X338325Y-203369D01*
X338691Y-203107D01*
X338979Y-202871D01*
X339241Y-202714D01*
X339451Y-202557D01*
X339608Y-202505D01*
X339739Y-202426D01*
X339791D01*
X339817Y-202400D01*
X340131Y-202348D01*
X340420Y-202374D01*
X340708Y-202453D01*
X340943Y-202583D01*
X341153Y-202688D01*
X341310Y-202793D01*
X341415Y-202898D01*
X341441Y-202924D01*
X341624Y-203160D01*
X341781Y-203369D01*
X341860Y-203605D01*
X341912Y-203814D01*
X341964Y-203971D01*
Y-204128D01*
X341991Y-204207D01*
Y-204259D01*
X341964Y-204547D01*
X341886Y-204783D01*
X341676Y-205202D01*
X341572Y-205359D01*
X341493Y-205490D01*
X341415Y-205569D01*
X341388Y-205595D01*
X340577Y-206302D01*
X339791Y-206878D01*
X338979Y-207323D01*
X338194Y-207690D01*
X337382Y-207925D01*
X336623Y-208109D01*
X335837Y-208214D01*
X335130Y-208240D01*
X334501D01*
X333873Y-208187D01*
X333349Y-208135D01*
X332878Y-208030D01*
X332537Y-207952D01*
X332249Y-207873D01*
X332092Y-207821D01*
X332014Y-207794D01*
X331097Y-207454D01*
X330102Y-207087D01*
X328164Y-206354D01*
X326227Y-205621D01*
X325336Y-205254D01*
X324446Y-204940D01*
X323634Y-204600D01*
X322875Y-204312D01*
X322220Y-204076D01*
X321618Y-203840D01*
X321172Y-203657D01*
X320806Y-203552D01*
X320596Y-203447D01*
X320518Y-203421D01*
X320073Y-203290D01*
X319706Y-203186D01*
X319418Y-203107D01*
X319130Y-203029D01*
X318920Y-202976D01*
X318790Y-202950D01*
X318685D01*
X318659Y-202924D01*
X318161Y-202793D01*
X317768Y-202662D01*
X317454Y-202505D01*
X317166Y-202374D01*
X316983Y-202243D01*
X316852Y-202164D01*
X316773Y-202086D01*
X316747Y-202060D01*
X316564Y-201824D01*
X316433Y-201588D01*
X316276Y-201169D01*
Y-200960D01*
X316249Y-200829D01*
Y-200724D01*
Y-200672D01*
X316276Y-200384D01*
X316354Y-200096D01*
X316459Y-199886D01*
X316564Y-199677D01*
X316668Y-199520D01*
X316747Y-199389D01*
X316826Y-199310D01*
X316852Y-199284D01*
X317192Y-198996D01*
X317533Y-198865D01*
X317925Y-198786D01*
X318240D01*
X318528Y-198813D01*
X318790Y-198865D01*
X318947Y-198917D01*
X318999D01*
X319732Y-199127D01*
X320335Y-199310D01*
X320858Y-199467D01*
X321303Y-199598D01*
X321644Y-199677D01*
X321880Y-199755D01*
X322037Y-199808D01*
X322089D01*
X322875Y-200122D01*
X323634Y-200410D01*
X324341Y-200698D01*
X324969Y-200960D01*
X325572Y-201196D01*
X326122Y-201431D01*
X326619Y-201614D01*
X327064Y-201798D01*
X327457Y-201929D01*
X327771Y-202086D01*
X328086Y-202191D01*
X328295Y-202295D01*
X328479Y-202374D01*
X328609Y-202400D01*
X328688Y-202426D01*
X328714Y-202453D01*
X328636Y-201903D01*
X328531Y-201431D01*
X328452Y-201038D01*
X328348Y-200672D01*
X328269Y-200384D01*
X328217Y-200174D01*
X328138Y-200043D01*
Y-199991D01*
X327902Y-199441D01*
X327745Y-198865D01*
X327562Y-198315D01*
X327405Y-197791D01*
X327300Y-197320D01*
X327221Y-196980D01*
X327169Y-196718D01*
X327143Y-196639D01*
X327038Y-196220D01*
X326934Y-195696D01*
X326855Y-195146D01*
X326750Y-194570D01*
X326645Y-194047D01*
X326567Y-193601D01*
X326515Y-193444D01*
X326488Y-193313D01*
X326515Y-193235D01*
X326488Y-193209D01*
X326357Y-192502D01*
X326279Y-192161D01*
X326227Y-191899D01*
X326174Y-191637D01*
X326148Y-191454D01*
X326096Y-191349D01*
Y-191297D01*
Y-190878D01*
X326122Y-190538D01*
X326200Y-190197D01*
X326305Y-189935D01*
X326410Y-189726D01*
X326515Y-189569D01*
X326593Y-189490D01*
X326619Y-189464D01*
X326855Y-189281D01*
X327064Y-189124D01*
X327326Y-189019D01*
X327536Y-188966D01*
X327745Y-188914D01*
X327876Y-188888D01*
X328033D01*
X328321Y-188914D01*
D02*
G37*
G36*
X315804Y-201850D02*
X316223Y-202060D01*
X316380Y-202164D01*
X316485Y-202217D01*
X316564Y-202295D01*
X316590Y-202321D01*
X316773Y-202557D01*
X316930Y-202767D01*
X317035Y-202976D01*
X317087Y-203186D01*
X317114Y-203369D01*
X317140Y-203500D01*
X317166Y-203578D01*
Y-203631D01*
X317140Y-203919D01*
X317061Y-204155D01*
X316826Y-204600D01*
X316721Y-204757D01*
X316642Y-204888D01*
X316564Y-204966D01*
X316537Y-204993D01*
X316459Y-205071D01*
X316302Y-205228D01*
X316145Y-205385D01*
X315935Y-205595D01*
X315411Y-206066D01*
X314888Y-206590D01*
X314364Y-207114D01*
X314102Y-207323D01*
X313893Y-207533D01*
X313709Y-207716D01*
X313578Y-207847D01*
X313500Y-207925D01*
X313474Y-207952D01*
X313605Y-208083D01*
X313762Y-208292D01*
X314128Y-208659D01*
X314547Y-209130D01*
X314966Y-209601D01*
X315359Y-210047D01*
X315516Y-210256D01*
X315700Y-210439D01*
X315804Y-210596D01*
X315909Y-210701D01*
X315961Y-210754D01*
X315988Y-210780D01*
X316537Y-211382D01*
X317035Y-211932D01*
X317480Y-212430D01*
X317821Y-212822D01*
X318135Y-213137D01*
X318344Y-213346D01*
X318475Y-213477D01*
X318528Y-213529D01*
X319156Y-214158D01*
X319785Y-214734D01*
X320413Y-215310D01*
X320989Y-215781D01*
X321460Y-216200D01*
X321696Y-216384D01*
X321880Y-216515D01*
X322010Y-216646D01*
X322141Y-216724D01*
X322194Y-216776D01*
X322220Y-216803D01*
X322744Y-217222D01*
X323136Y-217562D01*
X323477Y-217850D01*
X323686Y-218060D01*
X323870Y-218190D01*
X323948Y-218269D01*
X324001Y-218321D01*
X324027Y-218348D01*
X324367Y-218740D01*
X324629Y-219055D01*
X324839Y-219421D01*
X324943Y-219736D01*
X325048Y-220050D01*
X325074Y-220338D01*
Y-220600D01*
X325048Y-220835D01*
X324943Y-221254D01*
X324786Y-221569D01*
X324629Y-221778D01*
X324603Y-221804D01*
X324577Y-221830D01*
X324420Y-221987D01*
X324263Y-222092D01*
X324132Y-222171D01*
X324105Y-222197D01*
X323948Y-222354D01*
X323765Y-222537D01*
X323372Y-222983D01*
X323163Y-223192D01*
X323032Y-223375D01*
X322927Y-223480D01*
X322875Y-223533D01*
X322613Y-223847D01*
X322351Y-224109D01*
X322141Y-224318D01*
X321984Y-224528D01*
X321827Y-224685D01*
X321722Y-224790D01*
X321670Y-224842D01*
X321644Y-224868D01*
X321172Y-225339D01*
X320649Y-225758D01*
X320177Y-226125D01*
X319706Y-226492D01*
X319261Y-226780D01*
X318816Y-227015D01*
X318423Y-227251D01*
X318030Y-227434D01*
X317663Y-227591D01*
X317376Y-227722D01*
X317087Y-227801D01*
X316852Y-227880D01*
X316668Y-227958D01*
X316537Y-227984D01*
X316433D01*
X316407Y-228010D01*
X315857Y-228089D01*
X315280D01*
X314757Y-228037D01*
X314233Y-227984D01*
X313762Y-227827D01*
X313290Y-227670D01*
X312845Y-227487D01*
X312479Y-227277D01*
X311798Y-226858D01*
X311510Y-226675D01*
X311274Y-226492D01*
X311064Y-226334D01*
X310934Y-226203D01*
X310855Y-226125D01*
X310829Y-226099D01*
X310331Y-225549D01*
X309886Y-224999D01*
X309546Y-224449D01*
X309231Y-223925D01*
X309022Y-223402D01*
X308839Y-222904D01*
X308708Y-222459D01*
X308603Y-221987D01*
X308577Y-221595D01*
X308524Y-221228D01*
Y-220914D01*
X308551Y-220626D01*
Y-220416D01*
X308577Y-220233D01*
X308603Y-220154D01*
Y-220102D01*
X308734Y-219657D01*
X308917Y-219159D01*
X309415Y-218190D01*
X310017Y-217274D01*
X310646Y-216384D01*
X310960Y-216017D01*
X311274Y-215650D01*
X311536Y-215336D01*
X311798Y-215074D01*
X312007Y-214812D01*
X312164Y-214655D01*
X312269Y-214551D01*
X312295Y-214524D01*
X312557Y-214263D01*
X312845Y-213974D01*
X312976Y-213896D01*
X313081Y-213791D01*
X313133Y-213739D01*
X313159Y-213713D01*
X312400Y-212848D01*
X311719Y-212063D01*
X311117Y-211408D01*
X310855Y-211094D01*
X310619Y-210858D01*
X310384Y-210623D01*
X310227Y-210413D01*
X310069Y-210256D01*
X309912Y-210099D01*
X309808Y-209994D01*
X309729Y-209916D01*
X309703Y-209889D01*
X309677Y-209863D01*
X309415Y-209549D01*
X309179Y-209261D01*
X309022Y-208947D01*
X308917Y-208685D01*
X308865Y-208423D01*
X308839Y-208187D01*
X308865Y-207742D01*
X308970Y-207376D01*
X309127Y-207114D01*
X309258Y-206930D01*
X309284Y-206904D01*
X309310Y-206878D01*
X309624Y-206564D01*
X309991Y-206197D01*
X310357Y-205830D01*
X310724Y-205464D01*
X311091Y-205150D01*
X311353Y-204888D01*
X311457Y-204783D01*
X311536Y-204704D01*
X311588Y-204652D01*
X311614Y-204626D01*
X312138Y-204102D01*
X312636Y-203657D01*
X313029Y-203264D01*
X313343Y-202950D01*
X313605Y-202688D01*
X313788Y-202505D01*
X313893Y-202400D01*
X313919Y-202374D01*
X314154Y-202191D01*
X314390Y-202007D01*
X314626Y-201929D01*
X314835Y-201824D01*
X315019Y-201798D01*
X315176D01*
X315254Y-201772D01*
X315569D01*
X315804Y-201850D01*
D02*
G37*
G36*
X311968Y-266785D02*
X312151Y-266863D01*
X312335Y-266942D01*
X312492Y-267047D01*
X312623Y-267125D01*
X312675Y-267178D01*
X312701Y-267204D01*
X312858Y-267413D01*
X312989Y-267649D01*
X313173Y-268146D01*
X313225Y-268356D01*
X313277Y-268513D01*
X313304Y-268644D01*
Y-268696D01*
Y-269115D01*
X313277Y-269456D01*
X313225Y-269770D01*
X313120Y-270032D01*
X313042Y-270215D01*
X312963Y-270346D01*
X312885Y-270425D01*
X312858Y-270451D01*
X312649Y-270608D01*
X312439Y-270765D01*
X312020Y-270922D01*
X311837Y-270948D01*
X311706Y-270975D01*
X311628Y-271001D01*
X311313D01*
X311052Y-270948D01*
X310842Y-270896D01*
X310659Y-270818D01*
X310528Y-270739D01*
X310397Y-270660D01*
X310345Y-270608D01*
X310318Y-270582D01*
X310161Y-270372D01*
X310030Y-270137D01*
X309821Y-269613D01*
X309768Y-269403D01*
X309742Y-269220D01*
X309716Y-269089D01*
Y-269037D01*
X309690Y-268644D01*
X309742Y-268277D01*
X309795Y-267963D01*
X309873Y-267728D01*
X309978Y-267518D01*
X310056Y-267387D01*
X310135Y-267309D01*
X310161Y-267282D01*
X310371Y-267125D01*
X310580Y-266968D01*
X310999Y-266811D01*
X311182Y-266785D01*
X311313Y-266759D01*
X311392Y-266732D01*
X311706D01*
X311968Y-266785D01*
D02*
G37*
G36*
X344295Y-173359D02*
X344714Y-173569D01*
X344871Y-173674D01*
X344976Y-173726D01*
X345055Y-173804D01*
X345081Y-173831D01*
X345264Y-174066D01*
X345421Y-174276D01*
X345526Y-174485D01*
X345578Y-174695D01*
X345604Y-174878D01*
X345631Y-175009D01*
X345657Y-175088D01*
Y-175140D01*
X345631Y-175428D01*
X345552Y-175664D01*
X345316Y-176109D01*
X345212Y-176266D01*
X345133Y-176397D01*
X345055Y-176476D01*
X345028Y-176502D01*
X344950Y-176580D01*
X344793Y-176737D01*
X344636Y-176894D01*
X344426Y-177104D01*
X343902Y-177575D01*
X343379Y-178099D01*
X342855Y-178623D01*
X342593Y-178832D01*
X342383Y-179042D01*
X342200Y-179225D01*
X342069Y-179356D01*
X341991Y-179435D01*
X341964Y-179461D01*
X342095Y-179592D01*
X342253Y-179801D01*
X342619Y-180168D01*
X343038Y-180639D01*
X343457Y-181110D01*
X343850Y-181556D01*
X344007Y-181765D01*
X344190Y-181949D01*
X344295Y-182106D01*
X344400Y-182210D01*
X344452Y-182263D01*
X344478Y-182289D01*
X345028Y-182891D01*
X345526Y-183441D01*
X345971Y-183939D01*
X346311Y-184331D01*
X346626Y-184646D01*
X346835Y-184855D01*
X346966Y-184986D01*
X347019Y-185039D01*
X347647Y-185667D01*
X348275Y-186243D01*
X348904Y-186819D01*
X349480Y-187290D01*
X349951Y-187710D01*
X350187Y-187893D01*
X350370Y-188024D01*
X350501Y-188155D01*
X350632Y-188233D01*
X350685Y-188286D01*
X350711Y-188312D01*
X351235Y-188731D01*
X351627Y-189071D01*
X351968Y-189359D01*
X352177Y-189569D01*
X352360Y-189700D01*
X352439Y-189778D01*
X352491Y-189831D01*
X352518Y-189857D01*
X352858Y-190250D01*
X353120Y-190564D01*
X353329Y-190930D01*
X353434Y-191245D01*
X353539Y-191559D01*
X353565Y-191847D01*
Y-192109D01*
X353539Y-192344D01*
X353434Y-192764D01*
X353277Y-193078D01*
X353120Y-193287D01*
X353094Y-193313D01*
X353068Y-193340D01*
X352910Y-193497D01*
X352753Y-193601D01*
X352622Y-193680D01*
X352596Y-193706D01*
X352439Y-193863D01*
X352256Y-194047D01*
X351863Y-194492D01*
X351654Y-194701D01*
X351523Y-194885D01*
X351418Y-194989D01*
X351365Y-195042D01*
X351104Y-195356D01*
X350842Y-195618D01*
X350632Y-195827D01*
X350475Y-196037D01*
X350318Y-196194D01*
X350213Y-196299D01*
X350161Y-196351D01*
X350135Y-196377D01*
X349663Y-196849D01*
X349140Y-197268D01*
X348668Y-197634D01*
X348197Y-198001D01*
X347752Y-198289D01*
X347307Y-198524D01*
X346914Y-198760D01*
X346521Y-198944D01*
X346154Y-199101D01*
X345866Y-199231D01*
X345578Y-199310D01*
X345343Y-199389D01*
X345159Y-199467D01*
X345028Y-199493D01*
X344924D01*
X344897Y-199520D01*
X344347Y-199598D01*
X343771D01*
X343248Y-199546D01*
X342724Y-199493D01*
X342253Y-199336D01*
X341781Y-199179D01*
X341336Y-198996D01*
X340969Y-198786D01*
X340289Y-198367D01*
X340000Y-198184D01*
X339765Y-198001D01*
X339555Y-197844D01*
X339424Y-197713D01*
X339346Y-197634D01*
X339320Y-197608D01*
X338822Y-197058D01*
X338377Y-196508D01*
X338036Y-195958D01*
X337722Y-195434D01*
X337513Y-194911D01*
X337329Y-194413D01*
X337199Y-193968D01*
X337094Y-193497D01*
X337068Y-193104D01*
X337015Y-192737D01*
Y-192423D01*
X337042Y-192135D01*
Y-191926D01*
X337068Y-191742D01*
X337094Y-191664D01*
Y-191611D01*
X337225Y-191166D01*
X337408Y-190669D01*
X337906Y-189700D01*
X338508Y-188783D01*
X339136Y-187893D01*
X339451Y-187526D01*
X339765Y-187160D01*
X340027Y-186845D01*
X340289Y-186583D01*
X340498Y-186322D01*
X340655Y-186164D01*
X340760Y-186060D01*
X340786Y-186034D01*
X341048Y-185772D01*
X341336Y-185484D01*
X341467Y-185405D01*
X341572Y-185300D01*
X341624Y-185248D01*
X341650Y-185222D01*
X340891Y-184358D01*
X340210Y-183572D01*
X339608Y-182917D01*
X339346Y-182603D01*
X339110Y-182367D01*
X338875Y-182132D01*
X338717Y-181922D01*
X338560Y-181765D01*
X338403Y-181608D01*
X338298Y-181503D01*
X338220Y-181425D01*
X338194Y-181399D01*
X338167Y-181372D01*
X337906Y-181058D01*
X337670Y-180770D01*
X337513Y-180456D01*
X337408Y-180194D01*
X337356Y-179932D01*
X337329Y-179696D01*
X337356Y-179251D01*
X337460Y-178885D01*
X337618Y-178623D01*
X337748Y-178440D01*
X337775Y-178413D01*
X337801Y-178387D01*
X338115Y-178073D01*
X338482Y-177706D01*
X338848Y-177340D01*
X339215Y-176973D01*
X339581Y-176659D01*
X339843Y-176397D01*
X339948Y-176292D01*
X340027Y-176214D01*
X340079Y-176161D01*
X340105Y-176135D01*
X340629Y-175611D01*
X341127Y-175166D01*
X341519Y-174773D01*
X341834Y-174459D01*
X342095Y-174197D01*
X342279Y-174014D01*
X342383Y-173909D01*
X342410Y-173883D01*
X342645Y-173700D01*
X342881Y-173516D01*
X343117Y-173438D01*
X343326Y-173333D01*
X343509Y-173307D01*
X343667D01*
X343745Y-173281D01*
X344059D01*
X344295Y-173359D01*
D02*
G37*
G36*
X353526Y-198726D02*
X353866Y-198805D01*
X354495Y-199119D01*
X355071Y-199486D01*
X355307Y-199669D01*
X355542Y-199852D01*
X355726Y-199983D01*
X355857Y-200114D01*
X355935Y-200193D01*
X355961Y-200219D01*
X356249Y-200507D01*
X356616Y-200821D01*
X357349Y-201502D01*
X358135Y-202235D01*
X358894Y-202942D01*
X359287Y-203283D01*
X359627Y-203571D01*
X359915Y-203859D01*
X360204Y-204095D01*
X360413Y-204304D01*
X360596Y-204435D01*
X360701Y-204540D01*
X360727Y-204566D01*
X361303Y-205090D01*
X361827Y-205561D01*
X362351Y-206032D01*
X362822Y-206451D01*
X363241Y-206818D01*
X363634Y-207211D01*
X363974Y-207499D01*
X364289Y-207813D01*
X364551Y-208075D01*
X364812Y-208284D01*
X365022Y-208494D01*
X365179Y-208651D01*
X365310Y-208782D01*
X365388Y-208860D01*
X365441Y-208913D01*
X365467Y-208939D01*
X368243Y-211715D01*
X368400Y-211924D01*
X368557Y-212134D01*
X368688Y-212526D01*
X368714Y-212710D01*
X368740Y-212841D01*
X368766Y-212919D01*
Y-212972D01*
X368740Y-213260D01*
X368662Y-213495D01*
X368478Y-213888D01*
X368374Y-214045D01*
X368295Y-214176D01*
X368217Y-214255D01*
X368190Y-214281D01*
X367955Y-214464D01*
X367771Y-214595D01*
X367352Y-214752D01*
X367169Y-214778D01*
X367012Y-214831D01*
X366907D01*
X366619Y-214805D01*
X366384Y-214778D01*
X366174Y-214674D01*
X365991Y-214595D01*
X365834Y-214491D01*
X365703Y-214412D01*
X365650Y-214360D01*
X365624Y-214333D01*
X365048Y-213757D01*
X364524Y-213234D01*
X364027Y-212736D01*
X363582Y-212291D01*
X363163Y-211872D01*
X362770Y-211531D01*
X362429Y-211191D01*
X362141Y-210903D01*
X361879Y-210641D01*
X361644Y-210405D01*
X361434Y-210248D01*
X361277Y-210091D01*
X361172Y-209986D01*
X361068Y-209882D01*
X361041Y-209855D01*
X361015Y-209829D01*
X360806Y-210091D01*
X360649Y-210248D01*
X360492Y-210405D01*
X360413Y-210536D01*
X360334Y-210615D01*
X360282Y-210667D01*
X360256Y-210693D01*
X359758Y-211139D01*
X359313Y-211531D01*
X358318Y-212212D01*
X357402Y-212710D01*
X356956Y-212945D01*
X356537Y-213103D01*
X356145Y-213234D01*
X355778Y-213391D01*
X355490Y-213469D01*
X355202Y-213548D01*
X354992Y-213600D01*
X354809Y-213626D01*
X354730Y-213652D01*
X354678D01*
X354024Y-213731D01*
X353421Y-213705D01*
X352819Y-213679D01*
X352243Y-213574D01*
X351719Y-213417D01*
X351222Y-213234D01*
X350776Y-213050D01*
X350357Y-212841D01*
X349938Y-212631D01*
X349624Y-212422D01*
X349310Y-212212D01*
X349074Y-212029D01*
X348865Y-211872D01*
X348734Y-211741D01*
X348655Y-211662D01*
X348629Y-211636D01*
X348289Y-211243D01*
X347974Y-210824D01*
X347739Y-210379D01*
X347529Y-209960D01*
X347241Y-209044D01*
X347084Y-208206D01*
X347058Y-207446D01*
Y-207132D01*
Y-206818D01*
Y-206608D01*
X347084Y-206425D01*
X347110Y-206346D01*
Y-206294D01*
X347189Y-205744D01*
X347346Y-205221D01*
X347477Y-204723D01*
X347660Y-204278D01*
X348053Y-203414D01*
X348446Y-202707D01*
X348629Y-202418D01*
X348839Y-202157D01*
X348996Y-201895D01*
X349153Y-201738D01*
X349284Y-201554D01*
X349389Y-201450D01*
X349441Y-201397D01*
X349467Y-201371D01*
X349781Y-201057D01*
X350069Y-200769D01*
X350331Y-200559D01*
X350541Y-200350D01*
X350724Y-200166D01*
X350881Y-200062D01*
X350960Y-199983D01*
X350986Y-199957D01*
X351431Y-199617D01*
X351588Y-199459D01*
X351745Y-199355D01*
X351876Y-199276D01*
X351955Y-199198D01*
X352007D01*
X352033Y-199171D01*
X352295Y-198910D01*
X352583Y-198779D01*
X352871Y-198700D01*
X353212Y-198674D01*
X353526Y-198726D01*
D02*
G37*
G36*
X294117Y-184817D02*
X294118Y-184817D01*
X294684Y-184848D01*
X295811Y-184982D01*
X296927Y-185188D01*
X298028Y-185464D01*
X298569Y-185637D01*
X298569Y-185637D01*
X298758Y-185697D01*
X299130Y-185831D01*
X299498Y-185979D01*
X299860Y-186140D01*
X300246Y-186328D01*
X300657Y-186541D01*
X301062Y-186763D01*
X301463Y-186993D01*
X301660Y-187113D01*
X301660Y-187113D01*
X301857Y-187233D01*
X302246Y-187480D01*
X302629Y-187737D01*
X303006Y-188002D01*
X303191Y-188139D01*
X303191Y-188139D01*
X303349Y-188255D01*
X303655Y-188499D01*
X303952Y-188755D01*
X304239Y-189021D01*
X304378Y-189160D01*
X304950Y-189732D01*
X305932Y-191018D01*
X306735Y-192423D01*
X307345Y-193922D01*
X307548Y-194705D01*
Y-194705D01*
X307548Y-194705D01*
X307548Y-194706D01*
X307548Y-194708D01*
X307771Y-195569D01*
X308046Y-197328D01*
X308145Y-199105D01*
X308084Y-200553D01*
X307945Y-201765D01*
X307770Y-202962D01*
X307311Y-205096D01*
X306682Y-207268D01*
X305947Y-209263D01*
X305437Y-210420D01*
X305156Y-211044D01*
X304837Y-211752D01*
X303550Y-214373D01*
X302178Y-216950D01*
X300721Y-219481D01*
X299951Y-220722D01*
X299951Y-220722D01*
X299950Y-220723D01*
X299950Y-220724D01*
X299950Y-220724D01*
X299302Y-221772D01*
X298021Y-223875D01*
X296756Y-225989D01*
X295526Y-228085D01*
X295509Y-228114D01*
X295420Y-228268D01*
X294892Y-229180D01*
X294890Y-229184D01*
X294454Y-229951D01*
X294268Y-230290D01*
X293608Y-231496D01*
X292795Y-233059D01*
X292183Y-234301D01*
X292016Y-234639D01*
X291637Y-235441D01*
X291447Y-235856D01*
X291336Y-236098D01*
X291121Y-236597D01*
X290762Y-237426D01*
X290226Y-238770D01*
X289883Y-239706D01*
X289729Y-240128D01*
X289687Y-240251D01*
X289495Y-240812D01*
X289494Y-240815D01*
X289494Y-240815D01*
X289272Y-241495D01*
X289139Y-241938D01*
X288859Y-242864D01*
X288486Y-244244D01*
X288154Y-245636D01*
X288004Y-246335D01*
X287805Y-247333D01*
X287456Y-249339D01*
X287172Y-251356D01*
X286954Y-253380D01*
X286869Y-254395D01*
X286869Y-254395D01*
X286869Y-254397D01*
X286824Y-255030D01*
X286753Y-256297D01*
X286706Y-257565D01*
X286682Y-258833D01*
X286679Y-259467D01*
X286680Y-259870D01*
X286690Y-260676D01*
X286707Y-261423D01*
X286709Y-261482D01*
X286709Y-261491D01*
X286738Y-262288D01*
X286746Y-262480D01*
X286756Y-262690D01*
X286822Y-263920D01*
X286825Y-263959D01*
X286999Y-266369D01*
X287236Y-268813D01*
X287532Y-271251D01*
X287703Y-272467D01*
X287942Y-274069D01*
X288447Y-277269D01*
X288987Y-280464D01*
X289561Y-283653D01*
X289862Y-285245D01*
X289862Y-285245D01*
X290082Y-286423D01*
X290089Y-286461D01*
X290234Y-287273D01*
X290239Y-287306D01*
X290440Y-288493D01*
X290440Y-288493D01*
X290576Y-289706D01*
X290592Y-290026D01*
X290595Y-290246D01*
X290597Y-290399D01*
X290579Y-290704D01*
X290539Y-291007D01*
X290476Y-291307D01*
X290394Y-291595D01*
X290290Y-291871D01*
X290164Y-292136D01*
X290016Y-292391D01*
X289772Y-292738D01*
X289432Y-293177D01*
X289070Y-293598D01*
X288689Y-294000D01*
X288488Y-294192D01*
X288487Y-294193D01*
X288486Y-294194D01*
X288486Y-294194D01*
X288275Y-294395D01*
X287837Y-294780D01*
X287644Y-294935D01*
X286672Y-295655D01*
D01*
X285744Y-296221D01*
X284709Y-296744D01*
Y-296744D01*
X284482Y-296845D01*
X284016Y-297018D01*
X283540Y-297160D01*
X283056Y-297271D01*
X282405Y-297376D01*
X281584Y-297387D01*
X280770Y-297276D01*
X279982Y-297046D01*
X279609Y-296874D01*
X279239Y-296704D01*
X278561Y-296255D01*
X277960Y-295707D01*
X277449Y-295074D01*
X277244Y-294722D01*
X277059Y-294403D01*
X276775Y-293721D01*
X276583Y-293008D01*
X276486Y-292275D01*
X276486Y-291860D01*
X276487Y-291769D01*
X276490Y-291677D01*
X276495Y-291586D01*
X276498Y-291541D01*
X276525Y-291116D01*
X276696Y-290283D01*
X276978Y-289480D01*
X277367Y-288724D01*
X277611Y-288376D01*
X277611Y-288375D01*
X277612Y-288373D01*
X277612D01*
X277728Y-288196D01*
X277924Y-287821D01*
X278072Y-287425D01*
X278168Y-287013D01*
X278196Y-286802D01*
X278196Y-286800D01*
X278221Y-286515D01*
X278245Y-285944D01*
X278236Y-285372D01*
X278194Y-284802D01*
X278161Y-284518D01*
X278161Y-284518D01*
X278161Y-284518D01*
X278091Y-284009D01*
X277934Y-282994D01*
X277756Y-281983D01*
X277555Y-280975D01*
X277447Y-280473D01*
X277171Y-279224D01*
X276613Y-276727D01*
X276051Y-274230D01*
X275484Y-271735D01*
X275199Y-270488D01*
X275091Y-270016D01*
X274875Y-269071D01*
X274661Y-268126D01*
X274620Y-267946D01*
X274341Y-266708D01*
Y-266708D01*
X274216Y-266148D01*
X274063Y-265469D01*
X274019Y-265272D01*
X273806Y-264314D01*
X273594Y-263356D01*
X273489Y-262877D01*
X273489Y-262877D01*
X273488D01*
X273395Y-262455D01*
X273210Y-261611D01*
X273026Y-260766D01*
X272843Y-259921D01*
X272751Y-259499D01*
X272751Y-259498D01*
X272694Y-259231D01*
X272580Y-258697D01*
X272469Y-258162D01*
X272360Y-257626D01*
X272306Y-257359D01*
X272305Y-257355D01*
X272305Y-257355D01*
X272266Y-257163D01*
X272185Y-256779D01*
X272100Y-256396D01*
X272011Y-256014D01*
X271965Y-255824D01*
X271964Y-255821D01*
X271924Y-255658D01*
X271838Y-255334D01*
X271748Y-255011D01*
X271651Y-254689D01*
X271601Y-254529D01*
X271602Y-254529D01*
X271600Y-254525D01*
X271560Y-254400D01*
X271560Y-254399D01*
X271475Y-254142D01*
X271475Y-254142D01*
X271387Y-253885D01*
X271387Y-253885D01*
X271297Y-253629D01*
X271297Y-253629D01*
X271253Y-253509D01*
X271250Y-253500D01*
X271172Y-253445D01*
X271172Y-253445D01*
X271152Y-253444D01*
X269979Y-253388D01*
X269736Y-253372D01*
X269164Y-253320D01*
X268878Y-253288D01*
X268179Y-253211D01*
X266782Y-253053D01*
X265384Y-252892D01*
X264500Y-252788D01*
X263289Y-252645D01*
X263289Y-252645D01*
X263191Y-252633D01*
X262079Y-252500D01*
X261106Y-252383D01*
X259650Y-252206D01*
X258676Y-252087D01*
X257467Y-251938D01*
X256807Y-251801D01*
X256169Y-251655D01*
X256165Y-251654D01*
X256003Y-251620D01*
X255674Y-251644D01*
X255377Y-251787D01*
X255153Y-252029D01*
X255078Y-252177D01*
X255076Y-252182D01*
X254929Y-252567D01*
X254873Y-252716D01*
X254485Y-253792D01*
X254125Y-254877D01*
X253791Y-255971D01*
X253635Y-256521D01*
X253635Y-256521D01*
X253634Y-256522D01*
X253634Y-256523D01*
X253634Y-256523D01*
X253634Y-256523D01*
X253633Y-256526D01*
X253381Y-257449D01*
X252899Y-259300D01*
X252449Y-261160D01*
X252082Y-262798D01*
X252031Y-263026D01*
X251833Y-263965D01*
X251593Y-265135D01*
X251482Y-265672D01*
X250788Y-269089D01*
X250106Y-272507D01*
X249435Y-275928D01*
X249103Y-277640D01*
X249103D01*
X248861Y-278886D01*
X248620Y-280113D01*
X248290Y-281761D01*
X248025Y-283060D01*
X247783Y-284230D01*
X247783D01*
X247538Y-285398D01*
X247326Y-286390D01*
X247012Y-287829D01*
X246690Y-289266D01*
X246525Y-289983D01*
X246525Y-289984D01*
X246525Y-289984D01*
X246524Y-289986D01*
X246384Y-290595D01*
X246101Y-291812D01*
X245815Y-293029D01*
X245656Y-293697D01*
X245380Y-294853D01*
X244882Y-295917D01*
X244818Y-296004D01*
X244646Y-296192D01*
X244455Y-296360D01*
X244246Y-296507D01*
X244206Y-296528D01*
X243103Y-296932D01*
X241887Y-297063D01*
X241735Y-297070D01*
X241539Y-297070D01*
X241201Y-297070D01*
X240527Y-297064D01*
X240094Y-297055D01*
X238839Y-297019D01*
X238839Y-297019D01*
X237598Y-296949D01*
X237025Y-296906D01*
X235820Y-296770D01*
X235210Y-296678D01*
X234023Y-296476D01*
X234023Y-296476D01*
X232874Y-296185D01*
X232740Y-296145D01*
X231920Y-295816D01*
X231135Y-295410D01*
X230764Y-295169D01*
X230764D01*
X230460Y-294972D01*
X229911Y-294499D01*
X229503Y-294035D01*
X228874Y-293025D01*
D01*
X228872Y-293020D01*
X228448Y-291932D01*
X228283Y-291207D01*
X228196Y-290444D01*
Y-290222D01*
X228354Y-289024D01*
Y-289024D01*
X228946Y-288140D01*
X229608Y-287620D01*
X229685Y-287560D01*
X229730Y-287525D01*
X230042Y-287367D01*
X230852Y-286956D01*
X231106Y-286837D01*
X231307Y-286748D01*
X231309Y-286748D01*
X231310Y-286747D01*
Y-286747D01*
X234262Y-285441D01*
X236820Y-277258D01*
X236820Y-277257D01*
X236820Y-277255D01*
X237159Y-276154D01*
X237804Y-273944D01*
X238409Y-271723D01*
X238972Y-269490D01*
X239237Y-268370D01*
X239442Y-267456D01*
X239801Y-265624D01*
X240097Y-263780D01*
X240288Y-262258D01*
X240329Y-261928D01*
X240422Y-260999D01*
X240422Y-260997D01*
X240422Y-260996D01*
X240465Y-260452D01*
X240480Y-260263D01*
X240504Y-259748D01*
X240548Y-258795D01*
X240553Y-257325D01*
X240514Y-256350D01*
X240494Y-255856D01*
X240484Y-255719D01*
X240440Y-255120D01*
X240380Y-254574D01*
X240180Y-253493D01*
X239873Y-252438D01*
X239464Y-251418D01*
X239221Y-250925D01*
X239008Y-250534D01*
X238544Y-249776D01*
X238028Y-249051D01*
X237465Y-248362D01*
X237166Y-248033D01*
X237166Y-248033D01*
X236665Y-247505D01*
X236294Y-247124D01*
X235651Y-246462D01*
X234619Y-245438D01*
X233957Y-244804D01*
X233950Y-244797D01*
X233948Y-244795D01*
X233568Y-244431D01*
X233038Y-243936D01*
X233038Y-243936D01*
X233038Y-243936D01*
X233037Y-243935D01*
X233036Y-243934D01*
X233035Y-243933D01*
X232598Y-243533D01*
X232491Y-243434D01*
X232116Y-243099D01*
X232114Y-243097D01*
X232099Y-243085D01*
X231390Y-242452D01*
X230272Y-241490D01*
X229136Y-240548D01*
X228562Y-240085D01*
X228561Y-240084D01*
X228560Y-240083D01*
X228559Y-240083D01*
X228157Y-239770D01*
X227328Y-239176D01*
X226470Y-238626D01*
X225584Y-238121D01*
X225131Y-237886D01*
X225131Y-237886D01*
Y-237886D01*
X223975Y-237305D01*
X221707Y-236057D01*
X219489Y-234725D01*
X217321Y-233310D01*
X216265Y-232563D01*
X216265Y-232563D01*
Y-232563D01*
X216264Y-232562D01*
X215290Y-231851D01*
X213923Y-230705D01*
X212505Y-229303D01*
X211206Y-227790D01*
X210621Y-226983D01*
X210621Y-226983D01*
X210621Y-226983D01*
X210129Y-226305D01*
X209295Y-224852D01*
X208621Y-223319D01*
X208216Y-222044D01*
X207946Y-220901D01*
X207946Y-220901D01*
X207748Y-219744D01*
X207734Y-219649D01*
X207649Y-218806D01*
X207606Y-217960D01*
X207606Y-217109D01*
X207649Y-216255D01*
X207736Y-215404D01*
X207866Y-214559D01*
X207952Y-214141D01*
X208077Y-213534D01*
X208373Y-212331D01*
X208713Y-211140D01*
X208897Y-210580D01*
X209284Y-209467D01*
X209309Y-209396D01*
X209314Y-209381D01*
X209464Y-209047D01*
X209829Y-208233D01*
X209861Y-208168D01*
X210334Y-207418D01*
X210882Y-206721D01*
X211191Y-206403D01*
Y-206403D01*
X211488Y-206097D01*
X212146Y-205555D01*
X212861Y-205091D01*
X213623Y-204709D01*
X214023Y-204561D01*
X214551Y-204367D01*
X215623Y-204030D01*
X216710Y-203744D01*
X217810Y-203511D01*
X218365Y-203421D01*
X218802Y-203350D01*
X219682Y-203243D01*
X220566Y-203174D01*
X221451Y-203140D01*
X221895Y-203142D01*
X222288Y-203143D01*
X223073Y-203193D01*
X223854Y-203289D01*
X224627Y-203432D01*
X225009Y-203526D01*
X225009Y-203526D01*
X225361Y-203613D01*
X226052Y-203833D01*
X226726Y-204098D01*
X227381Y-204408D01*
X228010Y-204757D01*
X228608Y-205147D01*
X229178Y-205576D01*
X229717Y-206045D01*
X229970Y-206297D01*
X230170Y-206498D01*
X230540Y-206926D01*
X230673Y-207105D01*
X231317Y-208108D01*
X231317Y-208108D01*
X231317Y-208108D01*
X231712Y-209069D01*
X231946Y-210096D01*
X231946Y-210096D01*
X231949Y-211365D01*
X231948Y-211370D01*
X231860Y-211874D01*
X231791Y-212120D01*
X231720Y-212376D01*
X231535Y-212875D01*
X231494Y-212960D01*
X230889Y-214032D01*
X230886Y-214036D01*
X230200Y-214718D01*
X229509Y-215204D01*
X228385Y-215555D01*
X227933Y-215597D01*
X227700Y-215591D01*
X227412Y-215583D01*
X226840Y-215520D01*
X226591Y-215471D01*
X225455Y-215146D01*
X225455Y-215147D01*
X224371Y-214696D01*
X223757Y-214405D01*
X223099Y-214062D01*
X222778Y-213878D01*
X222482Y-213711D01*
X221887Y-213385D01*
X221468Y-213165D01*
X221286Y-213070D01*
X221281Y-213067D01*
X220679Y-212765D01*
X220539Y-212697D01*
X220374Y-212617D01*
X220371Y-212616D01*
X220207Y-212542D01*
X219870Y-212418D01*
X219869Y-212417D01*
X219521Y-212326D01*
X219521Y-212326D01*
X219166Y-212267D01*
X218986Y-212251D01*
X218986Y-212251D01*
X218867Y-212248D01*
X218629Y-212274D01*
X218629Y-212274D01*
X218401Y-212343D01*
X218400Y-212343D01*
X218188Y-212450D01*
X218172Y-212461D01*
X218089Y-212518D01*
X218088Y-212519D01*
X218087Y-212520D01*
X217969Y-212614D01*
X217750Y-212821D01*
X217555Y-213050D01*
X217385Y-213299D01*
X217311Y-213430D01*
X217311D01*
X217156Y-213741D01*
X216907Y-214386D01*
X216906Y-214388D01*
X216873Y-214519D01*
X216873Y-214519D01*
X216871Y-214530D01*
X216738Y-215060D01*
X216653Y-215749D01*
X216642Y-216095D01*
X216642Y-216104D01*
X216651Y-216510D01*
X216717Y-217319D01*
X216849Y-218121D01*
X217044Y-218909D01*
X217166Y-219297D01*
X217325Y-219745D01*
X217688Y-220625D01*
X218109Y-221478D01*
X218586Y-222302D01*
X218711Y-222494D01*
X218845Y-222701D01*
X218845Y-222701D01*
X218846Y-222701D01*
X218848Y-222704D01*
X219054Y-223002D01*
X219151Y-223143D01*
X219790Y-223998D01*
X220468Y-224822D01*
X221186Y-225612D01*
X221559Y-225994D01*
X221562Y-225998D01*
X221881Y-226308D01*
X221979Y-226402D01*
X222845Y-227173D01*
X223755Y-227892D01*
X224705Y-228557D01*
X224938Y-228705D01*
X225195Y-228868D01*
X225829Y-229252D01*
X226285Y-229515D01*
X227109Y-229990D01*
X228410Y-230691D01*
X229257Y-231115D01*
X229732Y-231353D01*
X230400Y-231670D01*
X230400Y-231670D01*
X230402Y-231671D01*
X230875Y-231887D01*
X231058Y-231971D01*
X231545Y-232181D01*
X232384Y-232542D01*
X233725Y-233075D01*
X234576Y-233385D01*
X235082Y-233569D01*
X235236Y-233621D01*
X235765Y-233801D01*
X235767Y-233801D01*
X235767Y-233802D01*
X235767Y-233802D01*
X235768Y-233802D01*
X235768Y-233802D01*
X235771Y-233803D01*
X236178Y-233930D01*
X236266Y-233957D01*
X237271Y-234209D01*
X238291Y-234387D01*
X239323Y-234489D01*
X239840Y-234512D01*
X239840Y-234512D01*
X239843Y-234512D01*
X239949Y-234514D01*
X240119Y-234518D01*
X240653Y-234526D01*
X240672Y-234526D01*
X240944Y-234527D01*
X240947Y-234527D01*
X241027Y-234527D01*
X241225Y-234528D01*
X241235Y-234528D01*
X241671Y-234525D01*
X241777Y-234524D01*
X241777Y-234524D01*
X242054Y-234520D01*
X242054Y-234520D01*
X242158Y-234516D01*
X242158Y-234516D01*
X242365Y-234489D01*
X242365Y-234489D01*
X242568Y-234441D01*
X242568Y-234440D01*
X242764Y-234370D01*
X242798Y-234354D01*
X242859Y-234326D01*
X242861Y-234325D01*
X242924Y-234290D01*
X243039Y-234201D01*
X243134Y-234091D01*
X243205Y-233965D01*
X243231Y-233898D01*
X243231Y-233897D01*
X243274Y-233757D01*
X243347Y-233485D01*
X243407Y-233209D01*
X243453Y-232930D01*
X243471Y-232790D01*
X243471Y-232787D01*
X243471Y-232787D01*
X243471Y-232786D01*
X243482Y-232669D01*
X243484Y-232647D01*
X243491Y-232371D01*
X243491Y-232370D01*
X243472Y-232094D01*
Y-232094D01*
X243430Y-231820D01*
Y-231820D01*
X243399Y-231685D01*
Y-231685D01*
X243399Y-231684D01*
X243399Y-231684D01*
Y-231684D01*
X243399Y-231683D01*
Y-231683D01*
X243399Y-231683D01*
Y-231682D01*
X243398Y-231682D01*
Y-231682D01*
X243398Y-231682D01*
X243398Y-231681D01*
Y-231681D01*
X243398Y-231681D01*
Y-231681D01*
X243398Y-231680D01*
Y-231680D01*
X243398Y-231680D01*
Y-231679D01*
X243358Y-231530D01*
X243262Y-231237D01*
X243147Y-230950D01*
X243013Y-230672D01*
X242939Y-230536D01*
X242938Y-230536D01*
X242938Y-230534D01*
X242937Y-230534D01*
X242937Y-230534D01*
X242829Y-230348D01*
X242691Y-230129D01*
X242600Y-229984D01*
X242598Y-229982D01*
X242355Y-229629D01*
X242095Y-229286D01*
X241960Y-229119D01*
X241959Y-229117D01*
X241957Y-229116D01*
X241957Y-229116D01*
X241741Y-228856D01*
X241304Y-228340D01*
X240861Y-227831D01*
X240411Y-227326D01*
X240184Y-227076D01*
X240184Y-227076D01*
X240183Y-227075D01*
X240182Y-227074D01*
X239856Y-226717D01*
X239219Y-225989D01*
X238598Y-225247D01*
X237993Y-224491D01*
X237699Y-224107D01*
X237699Y-224107D01*
X237502Y-223850D01*
X237147Y-223310D01*
X236831Y-222745D01*
X236557Y-222159D01*
X236441Y-221857D01*
X236441Y-221857D01*
X236441D01*
X236332Y-221574D01*
X236163Y-220993D01*
X236112Y-220744D01*
X235969Y-219599D01*
X235957Y-219496D01*
X235954Y-219305D01*
X235954Y-219295D01*
X235953Y-219286D01*
X235939Y-218224D01*
X235951Y-217700D01*
X235979Y-217127D01*
X236020Y-216556D01*
X236047Y-216270D01*
X236048Y-216268D01*
X236048D01*
X236087Y-215861D01*
X236222Y-215055D01*
X236414Y-214261D01*
X236429Y-214212D01*
X236812Y-213101D01*
Y-213101D01*
X236813Y-213100D01*
X237278Y-212023D01*
X237361Y-211840D01*
X237781Y-211025D01*
X238240Y-210232D01*
X238743Y-209455D01*
X239287Y-208696D01*
X239868Y-207964D01*
X240483Y-207261D01*
X240807Y-206925D01*
X240807Y-206925D01*
X241107Y-206614D01*
X241743Y-206031D01*
X242414Y-205489D01*
X243118Y-204989D01*
X243484Y-204761D01*
Y-204761D01*
X243484Y-204761D01*
X243693Y-204631D01*
X244123Y-204389D01*
X244133Y-204383D01*
X245238Y-203867D01*
X246441Y-203483D01*
X246748Y-203415D01*
X246971Y-203379D01*
Y-203379D01*
X247262Y-203331D01*
X247847Y-203256D01*
X248434Y-203201D01*
X249023Y-203166D01*
X249318Y-203158D01*
Y-203158D01*
X249318Y-203158D01*
X249847Y-203144D01*
X250905Y-203124D01*
X251963Y-203111D01*
X253021Y-203105D01*
X253550Y-203106D01*
X253550Y-203106D01*
X253550Y-203106D01*
X254077Y-203106D01*
X255130Y-203115D01*
X256182Y-203133D01*
X257235Y-203158D01*
X257761Y-203175D01*
X257761Y-203175D01*
X258083Y-203186D01*
X258726Y-203227D01*
X259367Y-203289D01*
X260006Y-203372D01*
X260591Y-203466D01*
X261122Y-203577D01*
X261647Y-203710D01*
X262166Y-203866D01*
X262421Y-203956D01*
X262422Y-203956D01*
X262727Y-204063D01*
X263332Y-204292D01*
X263930Y-204536D01*
X264523Y-204796D01*
X265025Y-205032D01*
X265440Y-205234D01*
X265852Y-205443D01*
X266261Y-205659D01*
X266686Y-205891D01*
X267127Y-206139D01*
X267564Y-206391D01*
X267999Y-206649D01*
X268215Y-206781D01*
X268215Y-206781D01*
X268418Y-206904D01*
X268821Y-207156D01*
X269221Y-207412D01*
X269617Y-207674D01*
X269814Y-207807D01*
X269964Y-207908D01*
X270258Y-208118D01*
X270546Y-208337D01*
X270828Y-208563D01*
X271285Y-208949D01*
X271888Y-209527D01*
X272454Y-210142D01*
X273224Y-211130D01*
X273953Y-212162D01*
X274532Y-212994D01*
X275384Y-214248D01*
X275981Y-215148D01*
X276628Y-216141D01*
X276633Y-216148D01*
X277275Y-217152D01*
X277923Y-218185D01*
X278759Y-219557D01*
X279384Y-220614D01*
X279975Y-221635D01*
X279977Y-221638D01*
X279977Y-221638D01*
X280553Y-222669D01*
X280924Y-223353D01*
X281517Y-224517D01*
X282082Y-225695D01*
X282349Y-226290D01*
X282349Y-226290D01*
X282466Y-226549D01*
X282702Y-227064D01*
X282941Y-227577D01*
X283119Y-227952D01*
X283184Y-228089D01*
X283184Y-228089D01*
X283307Y-228344D01*
X283350Y-228429D01*
X283450Y-228593D01*
X283564Y-228747D01*
X283692Y-228889D01*
X283762Y-228955D01*
X283762Y-228955D01*
X283787Y-228975D01*
X283787Y-228975D01*
X283845Y-228999D01*
X283845Y-228999D01*
X283908Y-229002D01*
X283909Y-229002D01*
X283969Y-228983D01*
X283969Y-228983D01*
X283996Y-228967D01*
X283998Y-228965D01*
X284065Y-228911D01*
X284192Y-228795D01*
X284308Y-228668D01*
X284412Y-228530D01*
X284459Y-228457D01*
X284522Y-228355D01*
X284522Y-228355D01*
X284648Y-228153D01*
X284648Y-228153D01*
X284776Y-227953D01*
X284906Y-227754D01*
X284972Y-227656D01*
X285115Y-227442D01*
X285400Y-227016D01*
X285685Y-226590D01*
X285972Y-226165D01*
X286115Y-225953D01*
X286285Y-225700D01*
X286626Y-225196D01*
X286968Y-224693D01*
X287310Y-224190D01*
X287481Y-223939D01*
X287481D01*
X287482Y-223937D01*
X287665Y-223669D01*
X288031Y-223134D01*
X288270Y-222787D01*
X288950Y-221798D01*
X288950Y-221798D01*
X289743Y-220645D01*
X291323Y-218335D01*
X292893Y-216018D01*
X294455Y-213696D01*
X295233Y-212532D01*
X295234Y-212530D01*
X295234Y-212530D01*
X295234Y-212530D01*
X295237Y-212525D01*
X295559Y-212033D01*
X296180Y-211021D01*
X296764Y-209986D01*
X297309Y-208931D01*
X297568Y-208394D01*
X297747Y-207996D01*
X298058Y-207186D01*
X298309Y-206356D01*
X298499Y-205509D01*
X298548Y-205214D01*
X298571Y-205082D01*
X298571Y-205079D01*
X298594Y-204912D01*
X298647Y-204533D01*
X298769Y-203437D01*
X298851Y-202337D01*
X298891Y-201235D01*
X298896Y-200684D01*
X298896Y-200684D01*
X298895Y-200408D01*
X298887Y-199863D01*
X298887Y-199856D01*
X298871Y-199305D01*
X298846Y-198753D01*
X298831Y-198478D01*
Y-198477D01*
X298830Y-198475D01*
X298830Y-198475D01*
X298818Y-198316D01*
X298779Y-197999D01*
X298719Y-197685D01*
X298640Y-197375D01*
X298593Y-197222D01*
X298592Y-197221D01*
X298592Y-197220D01*
X298550Y-197100D01*
X298449Y-196867D01*
X298328Y-196644D01*
X298186Y-196434D01*
X298108Y-196334D01*
X298108Y-196333D01*
X298106Y-196331D01*
X298106Y-196331D01*
X298005Y-196211D01*
X297795Y-195982D01*
X297794Y-195980D01*
X297570Y-195761D01*
X297335Y-195554D01*
X297213Y-195456D01*
Y-195456D01*
X297211Y-195454D01*
X297211Y-195454D01*
X297111Y-195377D01*
X296904Y-195231D01*
X296689Y-195096D01*
X296468Y-194972D01*
X296355Y-194915D01*
X296355Y-194915D01*
X296353Y-194914D01*
X296201Y-194840D01*
X295897Y-194699D01*
X295893Y-194697D01*
X295584Y-194563D01*
X295583Y-194562D01*
X295269Y-194435D01*
X295111Y-194374D01*
X294941Y-194311D01*
X294600Y-194191D01*
X294598Y-194191D01*
X294256Y-194079D01*
X294252Y-194078D01*
X293909Y-193975D01*
X293735Y-193926D01*
Y-193926D01*
X293733Y-193925D01*
X293732Y-193925D01*
X293572Y-193882D01*
X293251Y-193804D01*
X292927Y-193736D01*
X292601Y-193677D01*
X292437Y-193651D01*
Y-193651D01*
X292435Y-193651D01*
X292434Y-193650D01*
X291264Y-193418D01*
X291039Y-193360D01*
X289919Y-192999D01*
X289919Y-192999D01*
X288844Y-192528D01*
X288497Y-192349D01*
X287959Y-192029D01*
X287699Y-191854D01*
X287699Y-191854D01*
X287481Y-191706D01*
X287065Y-191381D01*
X286673Y-191027D01*
X286307Y-190648D01*
X286007Y-190291D01*
X285805Y-189941D01*
X285667Y-189561D01*
X285596Y-189163D01*
Y-188628D01*
X285751Y-187980D01*
X285924Y-187636D01*
X286748Y-186680D01*
X286748Y-186680D01*
X286748Y-186679D01*
X287741Y-186038D01*
X287834Y-185982D01*
X288614Y-185615D01*
X289426Y-185326D01*
X290367Y-185092D01*
X291429Y-184910D01*
X292502Y-184809D01*
X293580Y-184787D01*
X294117Y-184817D01*
D02*
G37*
G36*
X368164Y-189482D02*
X368950Y-189587D01*
X369631Y-189744D01*
X370285Y-189928D01*
X370809Y-190137D01*
X371306Y-190373D01*
X371726Y-190582D01*
X372040Y-190792D01*
X372302Y-190949D01*
X372511Y-191106D01*
X372616Y-191211D01*
X372642Y-191237D01*
X373061Y-191761D01*
X373375Y-192284D01*
X373611Y-192887D01*
X373742Y-193489D01*
X373820Y-194144D01*
Y-194772D01*
X373768Y-195401D01*
X373689Y-196003D01*
X373585Y-196579D01*
X373428Y-197103D01*
X373297Y-197600D01*
X373140Y-198019D01*
X373035Y-198386D01*
X372930Y-198648D01*
X372851Y-198779D01*
X372825Y-198857D01*
X373689Y-198622D01*
X374554Y-198438D01*
X375313Y-198255D01*
X376073Y-198124D01*
X376753Y-198019D01*
X377382Y-197915D01*
X377958Y-197862D01*
X378482Y-197810D01*
X378953Y-197757D01*
X379372D01*
X379712Y-197731D01*
X380236D01*
X380419Y-197705D01*
X380498Y-197731D01*
X380550D01*
X380812Y-197784D01*
X381048Y-197862D01*
X381441Y-198045D01*
X381572Y-198124D01*
X381703Y-198202D01*
X381755Y-198255D01*
X381781Y-198281D01*
X381964Y-198517D01*
X382095Y-198700D01*
X382253Y-199171D01*
X382305Y-199329D01*
Y-199486D01*
X382331Y-199564D01*
Y-199617D01*
X382305Y-199905D01*
X382226Y-200193D01*
X382122Y-200402D01*
X382017Y-200612D01*
X381912Y-200769D01*
X381833Y-200900D01*
X381755Y-200978D01*
X381729Y-201005D01*
X381493Y-201188D01*
X381284Y-201345D01*
X380812Y-201502D01*
X380629Y-201581D01*
X380472D01*
X380393Y-201607D01*
X380341D01*
X379189Y-201659D01*
X378089Y-201764D01*
X377015Y-201947D01*
X375994Y-202131D01*
X375025Y-202314D01*
X374109Y-202549D01*
X373270Y-202811D01*
X372459Y-203047D01*
X371752Y-203283D01*
X371123Y-203545D01*
X370600Y-203754D01*
X370128Y-203964D01*
X369762Y-204121D01*
X369473Y-204252D01*
X369316Y-204304D01*
X369264Y-204356D01*
X369473Y-204566D01*
X369735Y-204828D01*
X370233Y-205378D01*
X370469Y-205613D01*
X370652Y-205797D01*
X370783Y-205928D01*
X370835Y-205980D01*
X371176Y-206373D01*
X371516Y-206713D01*
X371752Y-207001D01*
X371987Y-207237D01*
X372145Y-207394D01*
X372275Y-207525D01*
X372354Y-207603D01*
X372380Y-207630D01*
X372564Y-207865D01*
X372721Y-208075D01*
X372799Y-208311D01*
X372878Y-208546D01*
X372930Y-208703D01*
Y-208860D01*
X372956Y-208939D01*
Y-208991D01*
X372930Y-209279D01*
X372851Y-209515D01*
X372642Y-209934D01*
X372537Y-210091D01*
X372459Y-210222D01*
X372380Y-210301D01*
X372354Y-210327D01*
X372118Y-210510D01*
X371883Y-210693D01*
X371673Y-210798D01*
X371437Y-210877D01*
X371254Y-210903D01*
X371123Y-210929D01*
X371045Y-210955D01*
X370992D01*
X370704Y-210929D01*
X370442Y-210877D01*
X370207Y-210798D01*
X369997Y-210693D01*
X369840Y-210589D01*
X369709Y-210510D01*
X369631Y-210432D01*
X369604Y-210405D01*
X369290Y-210091D01*
X368950Y-209751D01*
X368609Y-209358D01*
X368243Y-208991D01*
X367929Y-208677D01*
X367693Y-208389D01*
X367588Y-208284D01*
X367509Y-208206D01*
X367483Y-208180D01*
X367457Y-208153D01*
X366933Y-207630D01*
X366514Y-207158D01*
X366122Y-206765D01*
X365807Y-206451D01*
X365572Y-206216D01*
X365388Y-206032D01*
X365284Y-205928D01*
X365257Y-205901D01*
X364996Y-205639D01*
X364708Y-205351D01*
X364105Y-204697D01*
X363424Y-204016D01*
X362822Y-203361D01*
X362508Y-203047D01*
X362272Y-202759D01*
X362010Y-202497D01*
X361801Y-202288D01*
X361644Y-202078D01*
X361487Y-201921D01*
X361408Y-201842D01*
X361382Y-201816D01*
X360884Y-201319D01*
X360465Y-200847D01*
X360046Y-200428D01*
X359680Y-200009D01*
X359313Y-199643D01*
X358973Y-199302D01*
X358685Y-199014D01*
X358449Y-198726D01*
X358213Y-198491D01*
X358004Y-198281D01*
X357821Y-198098D01*
X357690Y-197967D01*
X357559Y-197836D01*
X357480Y-197757D01*
X357454Y-197731D01*
X357428Y-197705D01*
X357218Y-197443D01*
X357035Y-197208D01*
X356904Y-196919D01*
X356799Y-196710D01*
X356747Y-196500D01*
X356694Y-196291D01*
X356668Y-196212D01*
Y-196160D01*
X356642Y-195715D01*
X356721Y-195322D01*
X356852Y-194982D01*
X356983Y-194694D01*
X357166Y-194458D01*
X357297Y-194275D01*
X357402Y-194170D01*
X357454Y-194118D01*
X357899Y-193725D01*
X358292Y-193384D01*
X358632Y-193096D01*
X358947Y-192834D01*
X359208Y-192625D01*
X359418Y-192468D01*
X359601Y-192284D01*
X359758Y-192180D01*
X359863Y-192075D01*
X359942Y-191996D01*
X360073Y-191918D01*
X360125Y-191865D01*
X360701Y-191446D01*
X361251Y-191106D01*
X361775Y-190792D01*
X362220Y-190556D01*
X362587Y-190399D01*
X362874Y-190268D01*
X363058Y-190189D01*
X363136Y-190163D01*
X364289Y-189849D01*
X365362Y-189613D01*
X366384Y-189482D01*
X367300Y-189456D01*
X368164Y-189482D01*
D02*
G37*
%LPC*%
G36*
X314430Y-245836D02*
X313801Y-245888D01*
X313251Y-245967D01*
X312728Y-246071D01*
X312230Y-246202D01*
X311785Y-246386D01*
X311366Y-246543D01*
X311025Y-246726D01*
X310685Y-246909D01*
X310423Y-247066D01*
X310187Y-247250D01*
X310030Y-247407D01*
X309899Y-247485D01*
X309821Y-247564D01*
X309795Y-247590D01*
X309376Y-248009D01*
X309035Y-248402D01*
X308721Y-248821D01*
X308459Y-249188D01*
X308223Y-249528D01*
X308014Y-249842D01*
X307883Y-250130D01*
X307752Y-250418D01*
X307647Y-250680D01*
X307543Y-250890D01*
X307464Y-251230D01*
X307438Y-251466D01*
X307412Y-251544D01*
Y-251859D01*
X307464Y-252225D01*
X307647Y-252880D01*
X307962Y-253508D01*
X308328Y-254137D01*
X308695Y-254608D01*
X308878Y-254844D01*
X309035Y-255001D01*
X309140Y-255158D01*
X309271Y-255289D01*
X309323Y-255341D01*
X309349Y-255368D01*
X309847Y-255813D01*
X310318Y-256232D01*
X311287Y-256886D01*
X312256Y-257436D01*
X312728Y-257646D01*
X313173Y-257829D01*
X313592Y-257986D01*
X313985Y-258117D01*
X314299Y-258222D01*
X314587Y-258300D01*
X314822Y-258379D01*
X315006Y-258405D01*
X315084Y-258431D01*
X315137D01*
X315791Y-258510D01*
X316420Y-258562D01*
X316996D01*
X317546Y-258484D01*
X318069Y-258379D01*
X318515Y-258248D01*
X318960Y-258117D01*
X319353Y-257934D01*
X320007Y-257593D01*
X320269Y-257384D01*
X320505Y-257253D01*
X320662Y-257096D01*
X320793Y-257017D01*
X320872Y-256939D01*
X320898Y-256912D01*
X321526Y-256179D01*
X322024Y-255472D01*
X322390Y-254791D01*
X322652Y-254163D01*
X322862Y-253639D01*
X322966Y-253220D01*
X322993Y-253037D01*
X323045Y-252932D01*
X323019Y-252854D01*
X323045Y-252827D01*
Y-252408D01*
Y-251989D01*
X322940Y-251256D01*
X322705Y-250602D01*
X322416Y-249999D01*
X322128Y-249554D01*
X321867Y-249188D01*
X321788Y-249057D01*
X321709Y-248978D01*
X321657Y-248926D01*
X321631Y-248899D01*
X321160Y-248480D01*
X320688Y-248062D01*
X319667Y-247407D01*
X318698Y-246909D01*
X318227Y-246700D01*
X317782Y-246516D01*
X317362Y-246359D01*
X316970Y-246228D01*
X316603Y-246124D01*
X316315Y-246045D01*
X316079Y-246019D01*
X315870Y-245967D01*
X315791Y-245940D01*
X315739D01*
X315058Y-245888D01*
X314430Y-245836D01*
D02*
G37*
G36*
X344596Y-223315D02*
X344308Y-223551D01*
X344073Y-223787D01*
X343837Y-223970D01*
X343654Y-224153D01*
X343497Y-224310D01*
X343392Y-224415D01*
X343339Y-224468D01*
X343313Y-224494D01*
X342999Y-224808D01*
X342711Y-225148D01*
X342240Y-225725D01*
X341873Y-226196D01*
X341611Y-226615D01*
X341454Y-226981D01*
X341323Y-227217D01*
X341271Y-227374D01*
Y-227427D01*
X341218Y-227950D01*
X341297Y-228448D01*
X341506Y-228919D01*
X341742Y-229364D01*
X342004Y-229731D01*
X342213Y-230045D01*
X342292Y-230124D01*
X342370Y-230202D01*
X342423Y-230255D01*
X342449Y-230281D01*
X342842Y-230621D01*
X343287Y-230857D01*
X343732Y-230988D01*
X344177Y-231014D01*
X344649Y-230962D01*
X345094Y-230883D01*
X345513Y-230726D01*
X345958Y-230543D01*
X346717Y-230098D01*
X347006Y-229862D01*
X347320Y-229652D01*
X347529Y-229443D01*
X347713Y-229312D01*
X347817Y-229207D01*
X347844Y-229181D01*
X348079Y-228945D01*
X348341Y-228683D01*
X348577Y-228448D01*
X348812Y-228160D01*
X349022Y-227950D01*
X349179Y-227793D01*
X349284Y-227688D01*
X349336Y-227636D01*
X348760Y-227112D01*
X348210Y-226667D01*
X347739Y-226248D01*
X347294Y-225855D01*
X346927Y-225489D01*
X346560Y-225175D01*
X346246Y-224913D01*
X345984Y-224651D01*
X345749Y-224415D01*
X345539Y-224258D01*
X345382Y-224101D01*
X345251Y-223970D01*
X345173Y-223891D01*
X345094Y-223813D01*
X345042Y-223761D01*
X344884Y-223603D01*
X344727Y-223446D01*
X344623Y-223342D01*
X344596Y-223315D01*
D02*
G37*
G36*
X315778Y-216384D02*
X315490Y-216619D01*
X315254Y-216855D01*
X315019Y-217038D01*
X314835Y-217222D01*
X314678Y-217379D01*
X314573Y-217484D01*
X314521Y-217536D01*
X314495Y-217562D01*
X314181Y-217876D01*
X313893Y-218217D01*
X313421Y-218793D01*
X313055Y-219264D01*
X312793Y-219683D01*
X312636Y-220050D01*
X312505Y-220285D01*
X312452Y-220443D01*
Y-220495D01*
X312400Y-221019D01*
X312479Y-221516D01*
X312688Y-221987D01*
X312924Y-222433D01*
X313186Y-222799D01*
X313395Y-223113D01*
X313474Y-223192D01*
X313552Y-223271D01*
X313605Y-223323D01*
X313631Y-223349D01*
X314024Y-223690D01*
X314469Y-223925D01*
X314914Y-224056D01*
X315359Y-224082D01*
X315830Y-224030D01*
X316276Y-223951D01*
X316695Y-223794D01*
X317140Y-223611D01*
X317899Y-223166D01*
X318187Y-222930D01*
X318501Y-222721D01*
X318711Y-222511D01*
X318894Y-222380D01*
X318999Y-222276D01*
X319025Y-222249D01*
X319261Y-222014D01*
X319523Y-221752D01*
X319758Y-221516D01*
X319994Y-221228D01*
X320204Y-221019D01*
X320361Y-220861D01*
X320466Y-220757D01*
X320518Y-220704D01*
X319942Y-220181D01*
X319392Y-219736D01*
X318920Y-219317D01*
X318475Y-218924D01*
X318109Y-218557D01*
X317742Y-218243D01*
X317428Y-217981D01*
X317166Y-217719D01*
X316930Y-217484D01*
X316721Y-217326D01*
X316564Y-217169D01*
X316433Y-217038D01*
X316354Y-216960D01*
X316276Y-216881D01*
X316223Y-216829D01*
X316066Y-216672D01*
X315909Y-216515D01*
X315804Y-216410D01*
X315778Y-216384D01*
D02*
G37*
G36*
X344269Y-187893D02*
X343981Y-188129D01*
X343745Y-188364D01*
X343509Y-188547D01*
X343326Y-188731D01*
X343169Y-188888D01*
X343064Y-188993D01*
X343012Y-189045D01*
X342986Y-189071D01*
X342672Y-189385D01*
X342383Y-189726D01*
X341912Y-190302D01*
X341545Y-190773D01*
X341284Y-191192D01*
X341127Y-191559D01*
X340996Y-191795D01*
X340943Y-191952D01*
Y-192004D01*
X340891Y-192528D01*
X340969Y-193025D01*
X341179Y-193497D01*
X341415Y-193942D01*
X341676Y-194308D01*
X341886Y-194623D01*
X341964Y-194701D01*
X342043Y-194780D01*
X342095Y-194832D01*
X342122Y-194858D01*
X342514Y-195199D01*
X342960Y-195434D01*
X343405Y-195565D01*
X343850Y-195592D01*
X344321Y-195539D01*
X344766Y-195461D01*
X345185Y-195304D01*
X345631Y-195120D01*
X346390Y-194675D01*
X346678Y-194439D01*
X346992Y-194230D01*
X347202Y-194020D01*
X347385Y-193890D01*
X347490Y-193785D01*
X347516Y-193759D01*
X347752Y-193523D01*
X348014Y-193261D01*
X348249Y-193025D01*
X348485Y-192737D01*
X348694Y-192528D01*
X348852Y-192371D01*
X348956Y-192266D01*
X349009Y-192214D01*
X348433Y-191690D01*
X347883Y-191245D01*
X347411Y-190826D01*
X346966Y-190433D01*
X346600Y-190066D01*
X346233Y-189752D01*
X345919Y-189490D01*
X345657Y-189228D01*
X345421Y-188993D01*
X345212Y-188836D01*
X345055Y-188678D01*
X344924Y-188547D01*
X344845Y-188469D01*
X344766Y-188390D01*
X344714Y-188338D01*
X344557Y-188181D01*
X344400Y-188024D01*
X344295Y-187919D01*
X344269Y-187893D01*
D02*
G37*
G36*
X353290Y-202785D02*
X353133Y-202890D01*
X353002Y-203021D01*
X352897Y-203126D01*
X352871Y-203152D01*
X352636Y-203335D01*
X352452Y-203518D01*
X352321Y-203649D01*
X352295Y-203675D01*
X352269Y-203702D01*
X351876Y-204147D01*
X351562Y-204618D01*
X351300Y-205090D01*
X351091Y-205509D01*
X350960Y-205901D01*
X350855Y-206216D01*
X350829Y-206399D01*
X350803Y-206477D01*
X350724Y-207080D01*
X350698Y-207577D01*
X350776Y-208022D01*
X350881Y-208389D01*
X351012Y-208677D01*
X351143Y-208860D01*
X351222Y-208991D01*
X351248Y-209018D01*
X351745Y-209410D01*
X352295Y-209698D01*
X352793Y-209882D01*
X353316Y-209986D01*
X353762Y-210013D01*
X354102Y-210039D01*
X354338Y-210013D01*
X354416Y-209986D01*
X355045Y-209829D01*
X355673Y-209567D01*
X356223Y-209279D01*
X356721Y-208939D01*
X357113Y-208651D01*
X357454Y-208415D01*
X357559Y-208311D01*
X357637Y-208232D01*
X357690Y-208180D01*
X357716Y-208153D01*
X357794Y-208075D01*
X357847Y-207970D01*
X358056Y-207708D01*
X358161Y-207603D01*
X358213Y-207499D01*
X358266Y-207446D01*
X358292Y-207420D01*
X357847Y-207027D01*
X357428Y-206661D01*
X357061Y-206294D01*
X356694Y-205980D01*
X356354Y-205692D01*
X356066Y-205404D01*
X355804Y-205194D01*
X355569Y-204959D01*
X355385Y-204775D01*
X355202Y-204592D01*
X355019Y-204461D01*
X354914Y-204356D01*
X354809Y-204252D01*
X354757Y-204199D01*
X354704Y-204147D01*
X354364Y-203806D01*
X354050Y-203545D01*
X353814Y-203309D01*
X353631Y-203126D01*
X353474Y-202969D01*
X353369Y-202864D01*
X353316Y-202811D01*
X353290Y-202785D01*
D02*
G37*
G36*
X261478Y-220006D02*
X261380Y-220019D01*
X261335Y-220038D01*
X261335Y-220038D01*
X261229Y-220081D01*
X261019Y-220173D01*
X260811Y-220271D01*
X260811D01*
X260606Y-220373D01*
X260606Y-220373D01*
X260594Y-220380D01*
X260505Y-220427D01*
X260454Y-220455D01*
X260413Y-220477D01*
X260232Y-220581D01*
X260055Y-220691D01*
X259949Y-220762D01*
X259882Y-220807D01*
X259797Y-220868D01*
X259748Y-220903D01*
Y-220903D01*
X259663Y-220987D01*
X259663Y-220987D01*
X259591Y-221084D01*
X259591Y-221084D01*
X259591Y-221084D01*
X259535Y-221190D01*
X259535Y-221190D01*
Y-221190D01*
X259526Y-221216D01*
Y-221216D01*
X259498Y-221297D01*
X259498Y-221297D01*
X259483Y-221403D01*
X259483Y-221403D01*
X259490Y-221509D01*
X259490Y-221509D01*
X259517Y-221612D01*
X259531Y-221640D01*
X259576Y-221733D01*
X259655Y-221874D01*
X259743Y-222010D01*
Y-222010D01*
X259839Y-222140D01*
X259890Y-222202D01*
X259891Y-222202D01*
X259891Y-222202D01*
X259986Y-222317D01*
X260188Y-222535D01*
X260401Y-222741D01*
X260401Y-222741D01*
X260626Y-222936D01*
X260743Y-223027D01*
X260744D01*
X260811Y-223079D01*
X260969Y-223147D01*
X260969Y-223147D01*
X261139Y-223173D01*
X261310Y-223155D01*
X261390Y-223125D01*
X261390D01*
X261390Y-223124D01*
X261472Y-223094D01*
X261614Y-222995D01*
X261614D01*
X261727Y-222864D01*
X261727Y-222864D01*
X261804Y-222708D01*
X261805D01*
X261823Y-222624D01*
X261823Y-222624D01*
X261854Y-222477D01*
X261855Y-222477D01*
X261869Y-222389D01*
X261902Y-222181D01*
X261902Y-222179D01*
X261934Y-221880D01*
X261934Y-221880D01*
X261934Y-221880D01*
X261936Y-221847D01*
X261949Y-221596D01*
X261950Y-221579D01*
Y-221429D01*
X261950Y-221409D01*
X261950Y-221303D01*
X261950Y-221302D01*
X261945Y-221051D01*
X261945Y-221051D01*
X261945Y-221050D01*
Y-221050D01*
X261945Y-221049D01*
X261935Y-220800D01*
X261919Y-220549D01*
X261908Y-220426D01*
X261908Y-220424D01*
X261904Y-220372D01*
X261873Y-220274D01*
X261821Y-220185D01*
X261821Y-220185D01*
X261751Y-220109D01*
X261751Y-220109D01*
X261709Y-220079D01*
X261709Y-220079D01*
X261668Y-220051D01*
X261668Y-220051D01*
X261603Y-220027D01*
X261603Y-220027D01*
X261576Y-220017D01*
X261576Y-220017D01*
X261525Y-220011D01*
X261525Y-220011D01*
X261478Y-220006D01*
X261478Y-220006D01*
X261478Y-220006D01*
D02*
G37*
G36*
X265603Y-218655D02*
X265499Y-218659D01*
X265383Y-218673D01*
X265268Y-218696D01*
X265155Y-218729D01*
X265155Y-218729D01*
X265042Y-218773D01*
X265042D01*
X264932Y-218831D01*
X264932Y-218831D01*
X264932D01*
X264831Y-218903D01*
X264831Y-218903D01*
X264739Y-218986D01*
X264739Y-218986D01*
X264739Y-218987D01*
X264698Y-219034D01*
X264698Y-219034D01*
X264698Y-219034D01*
X264648Y-219093D01*
X264648Y-219093D01*
X264648Y-219093D01*
X264614Y-219138D01*
X264554Y-219217D01*
X264554Y-219217D01*
X264469Y-219347D01*
X264469Y-219348D01*
X264393Y-219482D01*
X264359Y-219552D01*
X264359Y-219552D01*
X264321Y-219631D01*
X264253Y-219792D01*
X264196Y-219957D01*
X264147Y-220125D01*
X264128Y-220211D01*
Y-220211D01*
X264109Y-220297D01*
X264080Y-220471D01*
X264080Y-220472D01*
X264060Y-220648D01*
X264060Y-220648D01*
X264050Y-220825D01*
X264050Y-220913D01*
X264050Y-220914D01*
Y-220981D01*
X264050Y-221008D01*
X264050Y-221008D01*
X264050Y-221034D01*
X264050Y-221034D01*
X264054Y-221274D01*
X264062Y-221513D01*
X264074Y-221753D01*
X264085Y-221918D01*
X264109Y-222007D01*
X264151Y-222090D01*
X264208Y-222162D01*
X264208D01*
X264272Y-222217D01*
X264344Y-222246D01*
X264344Y-222246D01*
X264421Y-222252D01*
X264421Y-222252D01*
X264496Y-222234D01*
X264604Y-222167D01*
X264750Y-222070D01*
X264893Y-221967D01*
X265032Y-221860D01*
X265100Y-221803D01*
X265157Y-221756D01*
X265264Y-221656D01*
X265264Y-221655D01*
X265365Y-221548D01*
X265365Y-221548D01*
X265459Y-221434D01*
X265459Y-221434D01*
X265502Y-221375D01*
X265502Y-221374D01*
X265551Y-221308D01*
X265551Y-221308D01*
X265642Y-221170D01*
X265642Y-221169D01*
X265727Y-221028D01*
X265728Y-221027D01*
X265806Y-220883D01*
X265842Y-220808D01*
X265842D01*
X265842Y-220808D01*
X265877Y-220735D01*
X265942Y-220586D01*
X265942Y-220585D01*
X266000Y-220433D01*
X266000Y-220432D01*
X266051Y-220277D01*
X266051Y-220277D01*
X266073Y-220199D01*
X266073Y-220198D01*
X266092Y-220131D01*
X266092Y-220130D01*
X266121Y-219992D01*
X266121Y-219992D01*
X266140Y-219852D01*
X266141Y-219851D01*
X266150Y-219711D01*
X266150Y-219710D01*
X266150Y-219710D01*
X266150Y-219695D01*
X266150Y-219692D01*
X266150Y-219692D01*
X266150Y-219640D01*
X266150Y-219640D01*
X266150Y-219571D01*
X266150Y-219571D01*
X266142Y-219434D01*
X266126Y-219298D01*
X266103Y-219163D01*
X266076Y-219049D01*
X266039Y-218959D01*
X265988Y-218876D01*
X265925Y-218803D01*
X265925D01*
X265888Y-218771D01*
X265888Y-218771D01*
X265888D01*
X265854Y-218742D01*
X265854Y-218742D01*
X265776Y-218698D01*
X265776Y-218698D01*
X265776Y-218698D01*
X265691Y-218669D01*
X265691Y-218669D01*
X265603Y-218655D01*
X265603Y-218655D01*
D02*
G37*
G36*
X246134Y-216676D02*
X245971Y-216696D01*
X245971Y-216696D01*
X245935Y-216709D01*
X245935Y-216709D01*
X245934Y-216710D01*
X245816Y-216754D01*
X245816Y-216754D01*
X245792Y-216770D01*
X245748Y-216799D01*
X245748Y-216799D01*
X245748Y-216799D01*
X245671Y-216850D01*
X245671D01*
X245536Y-216975D01*
X245536Y-216975D01*
X245536Y-216975D01*
X245423Y-217120D01*
X245423Y-217120D01*
X245336Y-217282D01*
X245336Y-217282D01*
Y-217282D01*
X245306Y-217369D01*
X245305Y-217369D01*
Y-217369D01*
X245265Y-217486D01*
X245265Y-217486D01*
Y-217486D01*
X245209Y-217727D01*
X245209Y-217727D01*
Y-217727D01*
X245198Y-217813D01*
X245198Y-217813D01*
Y-217813D01*
X245179Y-217972D01*
X245179Y-217974D01*
X245174Y-218220D01*
X245184Y-218341D01*
X245184Y-218343D01*
X245195Y-218465D01*
X245196Y-218483D01*
X245240Y-218760D01*
X245240Y-218762D01*
X245303Y-219036D01*
X245303Y-219037D01*
X245385Y-219307D01*
X245385Y-219307D01*
X245385Y-219307D01*
X245436Y-219439D01*
X245436Y-219439D01*
X245455Y-219488D01*
X245455Y-219488D01*
X245456Y-219490D01*
X245456Y-219490D01*
X245465Y-219510D01*
X245465Y-219510D01*
X245500Y-219585D01*
X245500Y-219585D01*
X245552Y-219678D01*
X245552Y-219678D01*
X245611Y-219767D01*
X245672Y-219846D01*
X245737Y-219915D01*
X245737D01*
X245809Y-219977D01*
X245887Y-220032D01*
X245965Y-220075D01*
X245965Y-220075D01*
X246042Y-220106D01*
X246042Y-220106D01*
X246122Y-220127D01*
X246122D01*
X246203Y-220139D01*
X246204Y-220139D01*
X246204Y-220139D01*
X246245Y-220139D01*
X246245Y-220139D01*
X246285Y-220140D01*
X246285Y-220140D01*
X246363Y-220130D01*
X246363Y-220130D01*
X246363Y-220130D01*
X246439Y-220109D01*
X246439Y-220109D01*
X246512Y-220077D01*
X246513Y-220076D01*
X246545Y-220056D01*
X246639Y-219998D01*
X246639Y-219998D01*
X246805Y-219851D01*
X246805Y-219851D01*
X246942Y-219677D01*
X246942Y-219676D01*
X247047Y-219481D01*
X247047Y-219481D01*
X247055Y-219457D01*
X247055Y-219457D01*
X247081Y-219376D01*
X247082Y-219376D01*
X247124Y-219245D01*
X247124Y-219245D01*
X247186Y-218978D01*
X247186Y-218977D01*
X247186Y-218977D01*
X247188Y-218958D01*
X247222Y-218704D01*
X247222Y-218704D01*
X247234Y-218429D01*
X247234Y-218429D01*
X247227Y-218292D01*
X247227Y-218292D01*
X247220Y-218158D01*
X247181Y-217893D01*
X247117Y-217633D01*
X247117Y-217633D01*
X247029Y-217381D01*
X247028Y-217380D01*
X246972Y-217259D01*
X246973Y-217259D01*
X246972Y-217259D01*
X246939Y-217187D01*
X246929Y-217165D01*
X246929Y-217165D01*
X246806Y-216997D01*
X246806D01*
X246652Y-216858D01*
X246652D01*
X246473Y-216753D01*
X246473Y-216753D01*
X246375Y-216719D01*
X246375Y-216719D01*
X246375Y-216719D01*
X246297Y-216693D01*
X246297Y-216692D01*
X246211Y-216684D01*
X246211Y-216684D01*
X246134Y-216676D01*
X246134Y-216676D01*
D02*
G37*
G36*
X249011Y-218384D02*
X249011Y-218384D01*
X248918Y-218401D01*
X248833Y-218441D01*
X248763Y-218501D01*
X248762Y-218501D01*
X248711Y-218579D01*
X248682Y-218667D01*
X248672Y-218881D01*
X248661Y-219216D01*
X248654Y-219551D01*
X248654Y-219551D01*
X248654Y-219583D01*
X248650Y-219886D01*
Y-220143D01*
X248659Y-220323D01*
X248676Y-220502D01*
X248695Y-220636D01*
X248701Y-220680D01*
X248702Y-220680D01*
X248719Y-220768D01*
X248719Y-220768D01*
X248733Y-220842D01*
X248733Y-220842D01*
X248773Y-220985D01*
X248773Y-220985D01*
X248825Y-221125D01*
X248825Y-221125D01*
X248889Y-221260D01*
X248889Y-221260D01*
X248926Y-221325D01*
X248926Y-221325D01*
X248956Y-221377D01*
X248956Y-221377D01*
X249028Y-221474D01*
X249028Y-221475D01*
X249109Y-221563D01*
X249110Y-221563D01*
X249200Y-221642D01*
X249250Y-221676D01*
X249250Y-221676D01*
X249250Y-221676D01*
X249295Y-221707D01*
X249393Y-221755D01*
X249497Y-221787D01*
X249604Y-221803D01*
X249659Y-221803D01*
X249786Y-221803D01*
X250039Y-221772D01*
X250285Y-221710D01*
X250522Y-221618D01*
X250634Y-221558D01*
X250635Y-221558D01*
X250635Y-221558D01*
X250730Y-221507D01*
X250895Y-221369D01*
X250896Y-221369D01*
X251018Y-221216D01*
X251030Y-221200D01*
X251031Y-221200D01*
Y-221200D01*
X251129Y-221008D01*
X251129Y-221008D01*
X251158Y-220904D01*
X251158Y-220904D01*
X251188Y-220797D01*
X251188Y-220797D01*
X251206Y-220575D01*
X251206Y-220575D01*
X251182Y-220354D01*
X251116Y-220141D01*
X251064Y-220043D01*
X251064Y-220043D01*
X251064Y-220042D01*
X251001Y-219926D01*
Y-219925D01*
X250851Y-219706D01*
X250676Y-219506D01*
X250481Y-219326D01*
X250374Y-219248D01*
X250373Y-219247D01*
X250264Y-219167D01*
X250233Y-219144D01*
X249956Y-218946D01*
X249950Y-218942D01*
X249666Y-218743D01*
X249379Y-218546D01*
X249235Y-218449D01*
X249234Y-218449D01*
X249195Y-218422D01*
X249106Y-218391D01*
X249013Y-218384D01*
X249011Y-218384D01*
D02*
G37*
G36*
X367195Y-193227D02*
X366750Y-193253D01*
X366462Y-193279D01*
X366384Y-193253D01*
X366357Y-193279D01*
X365493Y-193463D01*
X364734Y-193699D01*
X364079Y-193986D01*
X363477Y-194275D01*
X363032Y-194563D01*
X362691Y-194746D01*
X362560Y-194877D01*
X362455Y-194929D01*
X362429Y-194955D01*
X362403Y-194982D01*
X362141Y-195191D01*
X361906Y-195374D01*
X361696Y-195532D01*
X361539Y-195689D01*
X361408Y-195767D01*
X361329Y-195846D01*
X361277Y-195898D01*
X361251Y-195924D01*
X361696Y-196369D01*
X362168Y-196841D01*
X362613Y-197286D01*
X363032Y-197757D01*
X363398Y-198124D01*
X363686Y-198464D01*
X363791Y-198569D01*
X363870Y-198648D01*
X363922Y-198700D01*
X363948Y-198726D01*
X364289Y-199119D01*
X364603Y-199433D01*
X364891Y-199774D01*
X365153Y-200036D01*
X365388Y-200271D01*
X365572Y-200507D01*
X365729Y-200664D01*
X365886Y-200821D01*
X366095Y-201083D01*
X366253Y-201240D01*
X366331Y-201319D01*
X366357Y-201345D01*
X366593Y-201162D01*
X366750Y-201005D01*
X366829Y-200926D01*
X366855Y-200900D01*
X367300Y-200455D01*
X367693Y-200009D01*
X368033Y-199617D01*
X368348Y-199198D01*
X368635Y-198857D01*
X368897Y-198491D01*
X369107Y-198176D01*
X369264Y-197862D01*
X369421Y-197600D01*
X369552Y-197365D01*
X369657Y-197155D01*
X369735Y-197024D01*
X369788Y-196867D01*
X369840Y-196762D01*
Y-196710D01*
X369866Y-196684D01*
X369997Y-196134D01*
X370076Y-195584D01*
X370102Y-195401D01*
Y-195243D01*
Y-195139D01*
Y-195086D01*
X370076Y-194798D01*
X370050Y-194563D01*
X370023Y-194379D01*
X369971Y-194222D01*
X369893Y-194039D01*
X369866Y-194013D01*
X369631Y-193829D01*
X369395Y-193646D01*
X368871Y-193437D01*
X368269Y-193306D01*
X367693Y-193253D01*
X367195Y-193227D01*
D02*
G37*
%LPD*%
D26*
X321000Y-44000D02*
G03*
X321000Y-44000I-3000J0D01*
G01*
X-271000Y-148000D02*
G03*
X-271000Y-148000I-3000J0D01*
G01*
D54*
X341750Y-31450D02*
G03*
X341750Y-31450I-1250J0D01*
G01*
X99500Y-197250D02*
G03*
X99500Y-197250I-1250J0D01*
G01*
X-70000Y204750D02*
G03*
X-70000Y204750I-1250J0D01*
G01*
X276000Y-163250D02*
G03*
X276000Y-163250I-1250J0D01*
G01*
X260000Y13250D02*
G03*
X260000Y13250I-1250J0D01*
G01*
X-260200Y-170500D02*
G03*
X-260200Y-170500I-1250J0D01*
G01*
X-66750Y-265750D02*
G03*
X-66750Y-265750I-1250J0D01*
G01*
X40250D02*
G03*
X40250Y-265750I-1250J0D01*
G01*
X229000Y-31750D02*
G03*
X229000Y-31750I-1250J0D01*
G01*
X-278750Y87750D02*
G03*
X-278750Y87750I-1250J0D01*
G01*
D55*
X270000Y275000D02*
Y280000D01*
X280000Y265000D02*
X285000D01*
X270000Y250000D02*
Y255000D01*
X255000Y265000D02*
X260000D01*
X-270000Y275000D02*
Y280000D01*
X-260000Y265000D02*
X-255000D01*
X-270000Y250000D02*
Y255000D01*
X-285000Y265000D02*
X-280000D01*
X60000Y-300000D02*
Y-295000D01*
X70000Y-310000D02*
X75000D01*
X60000Y-325000D02*
Y-320000D01*
X45000Y-310000D02*
X50000D01*
X77000Y248750D02*
X77000Y300750D01*
X77000Y248750D02*
X197000D01*
Y300750D01*
X-347245Y6250D02*
X-248250Y105245D01*
X-347245Y6250D02*
X-248250Y-92745D01*
X-149255Y6250D01*
X-248250Y105245D02*
X-149255Y6250D01*
X220000Y230000D02*
Y239997D01*
X215002D01*
X213335Y238331D01*
Y234998D01*
X215002Y233332D01*
X220000D01*
X216668D02*
X213335Y230000D01*
X210003Y238331D02*
X208337Y239997D01*
X205005D01*
X203339Y238331D01*
Y236665D01*
X205005Y234998D01*
X206671D01*
X205005D01*
X203339Y233332D01*
Y231666D01*
X205005Y230000D01*
X208337D01*
X210003Y231666D01*
X200006Y239997D02*
Y230000D01*
X195008D01*
X193342Y231666D01*
Y233332D01*
X195008Y234998D01*
X200006D01*
X195008D01*
X193342Y236665D01*
Y238331D01*
X195008Y239997D01*
X200006D01*
X-127164Y234581D02*
X-125498Y236247D01*
X-122166D01*
X-120500Y234581D01*
Y227916D01*
X-122166Y226250D01*
X-125498D01*
X-127164Y227916D01*
Y231248D01*
X-123832D01*
X-130497Y226250D02*
Y236247D01*
X-137161Y226250D01*
Y236247D01*
X-140494D02*
Y226250D01*
X-145492D01*
X-147158Y227916D01*
Y234581D01*
X-145492Y236247D01*
X-140494D01*
X-116000Y301581D02*
X-117666Y303247D01*
X-120998D01*
X-122664Y301581D01*
Y299914D01*
X-120998Y298248D01*
X-119332D01*
X-120998D01*
X-122664Y296582D01*
Y294916D01*
X-120998Y293250D01*
X-117666D01*
X-116000Y294916D01*
X-125997Y293250D02*
Y294916D01*
X-127663D01*
Y293250D01*
X-125997D01*
X-134327Y301581D02*
X-135994Y303247D01*
X-139326D01*
X-140992Y301581D01*
Y299914D01*
X-139326Y298248D01*
X-137660D01*
X-139326D01*
X-140992Y296582D01*
Y294916D01*
X-139326Y293250D01*
X-135994D01*
X-134327Y294916D01*
X-144324Y303247D02*
Y296582D01*
X-147656Y293250D01*
X-150989Y296582D01*
Y303247D01*
X300000Y219997D02*
Y213332D01*
X296668Y210000D01*
X293335Y213332D01*
Y219997D01*
X290003D02*
Y210000D01*
X285005D01*
X283339Y211666D01*
Y218331D01*
X285005Y219997D01*
X290003D01*
X273342Y210000D02*
X280007D01*
X273342Y216665D01*
Y218331D01*
X275008Y219997D01*
X278340D01*
X280007Y218331D01*
X270010Y219997D02*
Y210000D01*
X265011D01*
X263345Y211666D01*
Y213332D01*
X265011Y214998D01*
X270010D01*
X265011D01*
X263345Y216665D01*
Y218331D01*
X265011Y219997D01*
X270010D01*
X300990Y155640D02*
Y153101D01*
X303529D01*
Y155640D01*
X300990D01*
X137000Y207000D02*
X146997D01*
Y211998D01*
X145331Y213664D01*
X141998D01*
X140332Y211998D01*
Y207000D01*
Y210332D02*
X137000Y213664D01*
Y221995D02*
X146997D01*
X141998Y216997D01*
Y223661D01*
X146997Y226994D02*
X137000D01*
Y231992D01*
X138666Y233658D01*
X140332D01*
X141998Y231992D01*
Y226994D01*
Y231992D01*
X143665Y233658D01*
X145331D01*
X146997Y231992D01*
Y226994D01*
X-6000Y296997D02*
Y290332D01*
X-9332Y287000D01*
X-12665Y290332D01*
Y296997D01*
X-15997D02*
Y287000D01*
X-20995D01*
X-22661Y288666D01*
Y295331D01*
X-20995Y296997D01*
X-15997D01*
X-25993Y287000D02*
X-29326D01*
X-27660D01*
Y296997D01*
X-25993Y295331D01*
X-34324Y296997D02*
Y287000D01*
X-39323D01*
X-40989Y288666D01*
Y290332D01*
X-39323Y291998D01*
X-34324D01*
X-39323D01*
X-40989Y293664D01*
Y295331D01*
X-39323Y296997D01*
X-34324D01*
X7000Y270000D02*
X9539D01*
Y272539D01*
X7000D01*
Y270000D01*
X-67000Y286000D02*
Y295997D01*
X-71998D01*
X-73664Y294331D01*
Y290998D01*
X-71998Y289332D01*
X-67000D01*
X-70332D02*
X-73664Y286000D01*
X-83661D02*
X-76997D01*
X-83661Y292665D01*
Y294331D01*
X-81995Y295997D01*
X-78663D01*
X-76997Y294331D01*
X-86994Y295997D02*
Y286000D01*
X-91992D01*
X-93658Y287666D01*
Y289332D01*
X-91992Y290998D01*
X-86994D01*
X-91992D01*
X-93658Y292665D01*
Y294331D01*
X-91992Y295997D01*
X-86994D01*
X231835Y297831D02*
X233502Y299497D01*
X236834D01*
X238500Y297831D01*
Y296164D01*
X236834Y294498D01*
X233502D01*
X231835Y292832D01*
Y291166D01*
X233502Y289500D01*
X236834D01*
X238500Y291166D01*
X228503Y299497D02*
Y289500D01*
X225171Y292832D01*
X221839Y289500D01*
Y299497D01*
X218506Y289500D02*
X215174D01*
X216840D01*
Y299497D01*
X218506Y297831D01*
X210176Y299497D02*
Y289500D01*
X205177D01*
X203511Y291166D01*
Y292832D01*
X205177Y294498D01*
X210176D01*
X205177D01*
X203511Y296164D01*
Y297831D01*
X205177Y299497D01*
X210176D01*
X-197419Y255914D02*
X-195753Y254248D01*
Y250916D01*
X-197419Y249250D01*
X-204084D01*
X-205750Y250916D01*
Y254248D01*
X-204084Y255914D01*
X-195753Y265911D02*
X-197419Y262579D01*
X-200752Y259247D01*
X-204084D01*
X-205750Y260913D01*
Y264245D01*
X-204084Y265911D01*
X-202418D01*
X-200752Y264245D01*
Y259247D01*
X-195753Y269244D02*
X-205750D01*
Y274242D01*
X-204084Y275908D01*
X-202418D01*
X-200752Y274242D01*
Y269244D01*
Y274242D01*
X-199086Y275908D01*
X-197419D01*
X-195753Y274242D01*
Y269244D01*
X29000Y-241753D02*
Y-248418D01*
X25668Y-251750D01*
X22336Y-248418D01*
Y-241753D01*
X19003D02*
Y-251750D01*
X14005D01*
X12339Y-250084D01*
Y-243419D01*
X14005Y-241753D01*
X19003D01*
X9006Y-250084D02*
X7340Y-251750D01*
X4008D01*
X2342Y-250084D01*
Y-243419D01*
X4008Y-241753D01*
X7340D01*
X9006Y-243419D01*
Y-245086D01*
X7340Y-246752D01*
X2342D01*
X-990Y-241753D02*
Y-251750D01*
X-5989D01*
X-7655Y-250084D01*
Y-248418D01*
X-5989Y-246752D01*
X-990D01*
X-5989D01*
X-7655Y-245086D01*
Y-243419D01*
X-5989Y-241753D01*
X-990D01*
X374997Y-76500D02*
X365000D01*
Y-71502D01*
X366666Y-69836D01*
X373331D01*
X374997Y-71502D01*
Y-76500D01*
Y-66503D02*
X365000D01*
Y-61505D01*
X366666Y-59839D01*
X373331D01*
X374997Y-61505D01*
Y-66503D01*
X365000Y-56506D02*
Y-53174D01*
Y-54840D01*
X374997D01*
X373331Y-56506D01*
X374997Y-48176D02*
X365000D01*
Y-43177D01*
X366666Y-41511D01*
X368332D01*
X369998Y-43177D01*
Y-48176D01*
Y-43177D01*
X371665Y-41511D01*
X373331D01*
X374997Y-43177D01*
Y-48176D01*
X277500Y-177253D02*
Y-183918D01*
X274168Y-187250D01*
X270835Y-183918D01*
Y-177253D01*
X267503D02*
X260839D01*
X264171D01*
Y-187250D01*
X250842Y-177253D02*
X257506D01*
Y-182252D01*
X254174Y-180585D01*
X252508D01*
X250842Y-182252D01*
Y-185584D01*
X252508Y-187250D01*
X255840D01*
X257506Y-185584D01*
X247510Y-177253D02*
Y-187250D01*
X242511D01*
X240845Y-185584D01*
Y-183918D01*
X242511Y-182252D01*
X247510D01*
X242511D01*
X240845Y-180585D01*
Y-178919D01*
X242511Y-177253D01*
X247510D01*
X185747Y-37500D02*
X179082D01*
X175750Y-34168D01*
X179082Y-30835D01*
X185747D01*
Y-27503D02*
Y-20839D01*
Y-24171D01*
X175750D01*
Y-12508D02*
X185747D01*
X180748Y-17506D01*
Y-10842D01*
X185747Y-7510D02*
X175750D01*
Y-2511D01*
X177416Y-845D01*
X179082D01*
X180748Y-2511D01*
Y-7510D01*
Y-2511D01*
X182414Y-845D01*
X184081D01*
X185747Y-2511D01*
Y-7510D01*
X97500Y-208503D02*
Y-215168D01*
X94168Y-218500D01*
X90836Y-215168D01*
Y-208503D01*
X87503D02*
X80839D01*
X84171D01*
Y-218500D01*
X77506Y-210169D02*
X75840Y-208503D01*
X72508D01*
X70842Y-210169D01*
Y-211835D01*
X72508Y-213502D01*
X74174D01*
X72508D01*
X70842Y-215168D01*
Y-216834D01*
X72508Y-218500D01*
X75840D01*
X77506Y-216834D01*
X67510Y-208503D02*
Y-218500D01*
X62511D01*
X60845Y-216834D01*
Y-215168D01*
X62511Y-213502D01*
X67510D01*
X62511D01*
X60845Y-211835D01*
Y-210169D01*
X62511Y-208503D01*
X67510D01*
X-49500Y166247D02*
Y159582D01*
X-52832Y156250D01*
X-56164Y159582D01*
Y166247D01*
X-59497D02*
X-66161D01*
X-62829D01*
Y156250D01*
X-76158D02*
X-69494D01*
X-76158Y162915D01*
Y164581D01*
X-74492Y166247D01*
X-71160D01*
X-69494Y164581D01*
X-79490Y166247D02*
Y156250D01*
X-84489D01*
X-86155Y157916D01*
Y159582D01*
X-84489Y161248D01*
X-79490D01*
X-84489D01*
X-86155Y162915D01*
Y164581D01*
X-84489Y166247D01*
X-79490D01*
X256000Y60997D02*
Y54332D01*
X252668Y51000D01*
X249335Y54332D01*
Y60997D01*
X246003D02*
X239339D01*
X242671D01*
Y51000D01*
X236006D02*
X232674D01*
X234340D01*
Y60997D01*
X236006Y59331D01*
X227676Y60997D02*
Y51000D01*
X222677D01*
X221011Y52666D01*
Y54332D01*
X222677Y55998D01*
X227676D01*
X222677D01*
X221011Y57664D01*
Y59331D01*
X222677Y60997D01*
X227676D01*
X-322003Y94000D02*
X-328668D01*
X-332000Y97332D01*
X-328668Y100665D01*
X-322003D01*
Y103997D02*
X-332000D01*
Y108995D01*
X-330334Y110661D01*
X-323669D01*
X-322003Y108995D01*
Y103997D01*
X-332000Y113994D02*
Y117326D01*
Y115660D01*
X-322003D01*
X-323669Y113994D01*
X-332000Y122324D02*
Y125656D01*
Y123990D01*
X-322003D01*
X-323669Y122324D01*
X-322003Y130655D02*
X-332000D01*
Y135653D01*
X-330334Y137319D01*
X-328668D01*
X-327002Y135653D01*
Y130655D01*
Y135653D01*
X-325336Y137319D01*
X-323669D01*
X-322003Y135653D01*
Y130655D01*
X-75000Y-243003D02*
Y-249668D01*
X-78332Y-253000D01*
X-81664Y-249668D01*
Y-243003D01*
X-84997D02*
Y-253000D01*
X-89995D01*
X-91661Y-251334D01*
Y-244669D01*
X-89995Y-243003D01*
X-84997D01*
X-94994Y-253000D02*
X-98326D01*
X-96660D01*
Y-243003D01*
X-94994Y-244669D01*
X-103324D02*
X-104990Y-243003D01*
X-108323D01*
X-109989Y-244669D01*
Y-251334D01*
X-108323Y-253000D01*
X-104990D01*
X-103324Y-251334D01*
Y-244669D01*
X-113321Y-243003D02*
Y-253000D01*
X-118319D01*
X-119986Y-251334D01*
Y-249668D01*
X-118319Y-248002D01*
X-113321D01*
X-118319D01*
X-119986Y-246336D01*
Y-244669D01*
X-118319Y-243003D01*
X-113321D01*
X96407Y29998D02*
X90636Y26666D01*
X86084Y27886D01*
X87304Y32438D01*
X93075Y35770D01*
X91409Y38656D02*
X82752Y33658D01*
X80252Y37986D01*
X80862Y40262D01*
X86634Y43594D01*
X88910Y42985D01*
X91409Y38656D01*
X74421Y48087D02*
X77753Y42315D01*
X80193Y51419D01*
X81636Y52252D01*
X83912Y51642D01*
X85578Y48756D01*
X84968Y46480D01*
X79969Y55138D02*
X80579Y57414D01*
X78913Y60300D01*
X76637Y60909D01*
X70866Y57577D01*
X70256Y55301D01*
X71922Y52415D01*
X74198Y51806D01*
X79969Y55138D01*
X76414Y64628D02*
X73082Y70400D01*
X74748Y67514D01*
X66090Y62516D01*
X142592Y-60752D02*
X148364Y-64084D01*
X149584Y-68636D01*
X145032Y-69855D01*
X139260Y-66523D01*
X137594Y-69409D02*
X146252Y-74408D01*
X143752Y-78736D01*
X141476Y-79346D01*
X135705Y-76014D01*
X135095Y-73738D01*
X137594Y-69409D01*
X134039Y-78900D02*
X131763Y-79510D01*
X130097Y-82395D01*
X130706Y-84671D01*
X132149Y-85504D01*
X134425Y-84895D01*
X135035Y-87170D01*
X136478Y-88004D01*
X138754Y-87394D01*
X140420Y-84508D01*
X139810Y-82232D01*
X138367Y-81399D01*
X136091Y-82009D01*
X135482Y-79733D01*
X134039Y-78900D01*
X136091Y-82009D02*
X134425Y-84895D01*
X127597Y-86724D02*
X136255Y-91722D01*
X133756Y-96051D01*
X131480Y-96661D01*
X130037Y-95828D01*
X129427Y-93552D01*
X131926Y-89223D01*
X129427Y-93552D01*
X127151Y-94162D01*
X125708Y-93329D01*
X125098Y-91053D01*
X127597Y-86724D01*
X-66343Y-53002D02*
X-72114Y-56334D01*
X-76666Y-55114D01*
X-75446Y-50562D01*
X-69675Y-47230D01*
X-71341Y-44344D02*
X-79998Y-49342D01*
X-82498Y-45014D01*
X-81888Y-42738D01*
X-76116Y-39406D01*
X-73840Y-40015D01*
X-71341Y-44344D01*
X-84997Y-40685D02*
X-86663Y-37799D01*
X-85830Y-39242D01*
X-77172Y-34244D01*
X-77782Y-36520D01*
X-87719Y-32638D02*
X-89995Y-32028D01*
X-91661Y-29142D01*
X-91051Y-26866D01*
X-85280Y-23534D01*
X-83004Y-24143D01*
X-81338Y-27029D01*
X-81948Y-29305D01*
X-83391Y-30138D01*
X-85666Y-29528D01*
X-88166Y-25200D01*
X-85503Y-19815D02*
X-88835Y-14043D01*
X-87169Y-16929D01*
X-95827Y-21927D01*
X18750Y-152503D02*
Y-159168D01*
X15418Y-162500D01*
X12085Y-159168D01*
Y-152503D01*
X8753D02*
Y-162500D01*
X3755D01*
X2089Y-160834D01*
Y-154169D01*
X3755Y-152503D01*
X8753D01*
X-1244D02*
X-7908D01*
Y-154169D01*
X-1244Y-160834D01*
Y-162500D01*
X-11240Y-152503D02*
Y-162500D01*
X-16239D01*
X-17905Y-160834D01*
Y-159168D01*
X-16239Y-157502D01*
X-11240D01*
X-16239D01*
X-17905Y-155836D01*
Y-154169D01*
X-16239Y-152503D01*
X-11240D01*
X87211Y-23363D02*
X92983Y-26695D01*
X94203Y-31247D01*
X89651Y-32467D01*
X83879Y-29134D01*
X82213Y-32020D02*
X90870Y-37019D01*
X88371Y-41347D01*
X86095Y-41957D01*
X80324Y-38625D01*
X79714Y-36349D01*
X82213Y-32020D01*
X85872Y-45676D02*
X84206Y-48562D01*
X85039Y-47119D01*
X76382Y-42121D01*
X78657Y-41511D01*
X74492Y-48725D02*
X72216Y-49335D01*
X70550Y-52221D01*
X71160Y-54497D01*
X72603Y-55330D01*
X74879Y-54720D01*
X75489Y-56996D01*
X76932Y-57829D01*
X79208Y-57219D01*
X80874Y-54334D01*
X80264Y-52057D01*
X78821Y-51224D01*
X76545Y-51834D01*
X75935Y-49558D01*
X74492Y-48725D01*
X76545Y-51834D02*
X74879Y-54720D01*
X68051Y-56550D02*
X64719Y-62321D01*
X66385Y-59436D01*
X75042Y-64434D01*
X-123593Y-92752D02*
X-129364Y-96084D01*
X-133916Y-94864D01*
X-132696Y-90312D01*
X-126925Y-86980D01*
X-128591Y-84094D02*
X-137248Y-89093D01*
X-139748Y-84764D01*
X-139138Y-82488D01*
X-133366Y-79156D01*
X-131090Y-79765D01*
X-128591Y-84094D01*
X-136922Y-69665D02*
X-136698Y-73384D01*
X-137918Y-77936D01*
X-140804Y-79602D01*
X-143080Y-78992D01*
X-144746Y-76106D01*
X-144136Y-73830D01*
X-142693Y-72997D01*
X-140417Y-73607D01*
X-137918Y-77936D01*
X-138588Y-66779D02*
X-147245Y-71778D01*
X-149744Y-67449D01*
X-149135Y-65173D01*
X-147692Y-64340D01*
X-145416Y-64950D01*
X-142916Y-69278D01*
X-145416Y-64950D01*
X-144806Y-62674D01*
X-143363Y-61841D01*
X-141087Y-62450D01*
X-138588Y-66779D01*
X-72407Y69998D02*
X-66636Y66666D01*
X-65416Y62114D01*
X-69968Y60894D01*
X-75740Y64227D01*
X-77406Y61341D02*
X-68748Y56343D01*
X-71248Y52014D01*
X-73524Y51404D01*
X-79295Y54736D01*
X-79905Y57012D01*
X-77406Y61341D01*
X-73747Y47685D02*
X-75413Y44799D01*
X-74580Y46242D01*
X-83237Y51241D01*
X-80961Y51850D01*
X-86570Y45469D02*
X-89902Y39697D01*
X-88459Y38864D01*
X-79355Y41304D01*
X-77912Y40470D01*
X-91568Y36811D02*
X-94900Y31040D01*
X-93234Y33926D01*
X-84577Y28927D01*
X151158Y66498D02*
X145386Y63166D01*
X140834Y64386D01*
X142054Y68938D01*
X147825Y72270D01*
X146159Y75156D02*
X137502Y70157D01*
X135002Y74486D01*
X135612Y76762D01*
X141384Y80094D01*
X143660Y79485D01*
X146159Y75156D01*
X137828Y89585D02*
X141161Y83813D01*
X136832Y81314D01*
X136609Y85033D01*
X135776Y86476D01*
X133500Y87086D01*
X130614Y85420D01*
X130004Y83144D01*
X131670Y80258D01*
X133946Y79648D01*
X136162Y92471D02*
X127505Y87472D01*
X125006Y91801D01*
X125616Y94077D01*
X127058Y94910D01*
X129334Y94300D01*
X131834Y89972D01*
X129334Y94300D01*
X129944Y96576D01*
X131387Y97409D01*
X133663Y96799D01*
X136162Y92471D01*
X20000Y162997D02*
Y156332D01*
X16668Y153000D01*
X13335Y156332D01*
Y162997D01*
X10003D02*
Y153000D01*
X5005D01*
X3339Y154666D01*
Y161331D01*
X5005Y162997D01*
X10003D01*
X-4992Y153000D02*
Y162997D01*
X7Y157998D01*
X-6658D01*
X-9990Y162997D02*
Y153000D01*
X-14989D01*
X-16655Y154666D01*
Y156332D01*
X-14989Y157998D01*
X-9990D01*
X-14989D01*
X-16655Y159664D01*
Y161331D01*
X-14989Y162997D01*
X-9990D01*
X23000Y-86753D02*
Y-93418D01*
X19668Y-96750D01*
X16336Y-93418D01*
Y-86753D01*
X13003D02*
Y-96750D01*
X8005D01*
X6339Y-95084D01*
Y-88419D01*
X8005Y-86753D01*
X13003D01*
X3006Y-96750D02*
X-326D01*
X1340D01*
Y-86753D01*
X3006Y-88419D01*
X-11989Y-86753D02*
X-5324D01*
Y-91752D01*
X-8656Y-90085D01*
X-10323D01*
X-11989Y-91752D01*
Y-95084D01*
X-10323Y-96750D01*
X-6990D01*
X-5324Y-95084D01*
X-15321Y-86753D02*
X-21985D01*
X-18653D01*
Y-96750D01*
X-133158Y99498D02*
X-127386Y96166D01*
X-126166Y91614D01*
X-130718Y90394D01*
X-136490Y93727D01*
X-138156Y90841D02*
X-129498Y85843D01*
X-131998Y81514D01*
X-134274Y80904D01*
X-140045Y84236D01*
X-140655Y86512D01*
X-138156Y90841D01*
X-141711Y81350D02*
X-143987Y80740D01*
X-145653Y77855D01*
X-145044Y75579D01*
X-143601Y74746D01*
X-141325Y75356D01*
X-140492Y76798D01*
X-141325Y75356D01*
X-140715Y73080D01*
X-139272Y72246D01*
X-136996Y72856D01*
X-135330Y75742D01*
X-135940Y78018D01*
X-148153Y73526D02*
X-139495Y68528D01*
X-141994Y64199D01*
X-144270Y63589D01*
X-145713Y64422D01*
X-146323Y66698D01*
X-143824Y71027D01*
X-146323Y66698D01*
X-148599Y66088D01*
X-150042Y66921D01*
X-150652Y69197D01*
X-148153Y73526D01*
X22500Y97497D02*
Y90832D01*
X19168Y87500D01*
X15835Y90832D01*
Y97497D01*
X12503D02*
Y87500D01*
X7505D01*
X5839Y89166D01*
Y95831D01*
X7505Y97497D01*
X12503D01*
X2506Y87500D02*
X-826D01*
X840D01*
Y97497D01*
X2506Y95831D01*
X-10823Y87500D02*
Y97497D01*
X-5824Y92498D01*
X-12489D01*
X-15821Y97497D02*
X-22485D01*
X-19153D01*
Y87500D01*
X-324250Y-220000D02*
Y-210003D01*
X-329248D01*
X-330914Y-211669D01*
Y-215002D01*
X-329248Y-216668D01*
X-324250D01*
X-327582D02*
X-330914Y-220000D01*
X-334247D02*
X-337579D01*
X-335913D01*
Y-210003D01*
X-334247Y-211669D01*
X-342577Y-210003D02*
X-349242D01*
Y-211669D01*
X-342577Y-218334D01*
Y-220000D01*
X-352574Y-210003D02*
Y-220000D01*
X-357573D01*
X-359239Y-218334D01*
Y-216668D01*
X-357573Y-215002D01*
X-352574D01*
X-357573D01*
X-359239Y-213335D01*
Y-211669D01*
X-357573Y-210003D01*
X-352574D01*
X-273000Y-236000D02*
Y-226003D01*
X-277998D01*
X-279664Y-227669D01*
Y-231002D01*
X-277998Y-232668D01*
X-273000D01*
X-276332D02*
X-279664Y-236000D01*
X-282997D02*
X-286329D01*
X-284663D01*
Y-226003D01*
X-282997Y-227669D01*
X-297992Y-226003D02*
X-294660Y-227669D01*
X-291327Y-231002D01*
Y-234334D01*
X-292994Y-236000D01*
X-296326D01*
X-297992Y-234334D01*
Y-232668D01*
X-296326Y-231002D01*
X-291327D01*
X-301324Y-226003D02*
Y-236000D01*
X-306323D01*
X-307989Y-234334D01*
Y-232668D01*
X-306323Y-231002D01*
X-301324D01*
X-306323D01*
X-307989Y-229335D01*
Y-227669D01*
X-306323Y-226003D01*
X-301324D01*
X-334000Y-72000D02*
Y-62003D01*
X-338998D01*
X-340664Y-63669D01*
Y-67002D01*
X-338998Y-68668D01*
X-334000D01*
X-337332D02*
X-340664Y-72000D01*
X-343997D02*
X-347329D01*
X-345663D01*
Y-62003D01*
X-343997Y-63669D01*
X-358992Y-62003D02*
X-352327D01*
Y-67002D01*
X-355660Y-65335D01*
X-357326D01*
X-358992Y-67002D01*
Y-70334D01*
X-357326Y-72000D01*
X-353994D01*
X-352327Y-70334D01*
X-362324Y-62003D02*
Y-72000D01*
X-367323D01*
X-368989Y-70334D01*
Y-68668D01*
X-367323Y-67002D01*
X-362324D01*
X-367323D01*
X-368989Y-65335D01*
Y-63669D01*
X-367323Y-62003D01*
X-362324D01*
X311000Y-170000D02*
X320997D01*
Y-165002D01*
X319331Y-163335D01*
X315998D01*
X314332Y-165002D01*
Y-170000D01*
Y-166668D02*
X311000Y-163335D01*
Y-160003D02*
Y-156671D01*
Y-158337D01*
X320997D01*
X319331Y-160003D01*
X311000Y-146674D02*
X320997D01*
X315998Y-151673D01*
Y-145008D01*
X320997Y-141676D02*
X311000D01*
Y-136677D01*
X312666Y-135011D01*
X314332D01*
X315998Y-136677D01*
Y-141676D01*
Y-136677D01*
X317665Y-135011D01*
X319331D01*
X320997Y-136677D01*
Y-141676D01*
X251000Y-83000D02*
X260997D01*
Y-78002D01*
X259331Y-76336D01*
X255998D01*
X254332Y-78002D01*
Y-83000D01*
Y-79668D02*
X251000Y-76336D01*
Y-73003D02*
Y-69671D01*
Y-71337D01*
X260997D01*
X259331Y-73003D01*
Y-64673D02*
X260997Y-63007D01*
Y-59674D01*
X259331Y-58008D01*
X257665D01*
X255998Y-59674D01*
Y-61340D01*
Y-59674D01*
X254332Y-58008D01*
X252666D01*
X251000Y-59674D01*
Y-63007D01*
X252666Y-64673D01*
X260997Y-54676D02*
X251000D01*
Y-49677D01*
X252666Y-48011D01*
X254332D01*
X255998Y-49677D01*
Y-54676D01*
Y-49677D01*
X257665Y-48011D01*
X259331D01*
X260997Y-49677D01*
Y-54676D01*
X128000Y-173000D02*
X132998Y-164342D01*
X128670Y-161843D01*
X126394Y-162453D01*
X124728Y-165339D01*
X125337Y-167615D01*
X129666Y-170114D01*
X126780Y-168448D02*
X122228Y-169668D01*
X119343Y-168002D02*
X116457Y-166336D01*
X117900Y-167169D01*
X122898Y-158511D01*
X123508Y-160787D01*
X106356Y-160504D02*
X112128Y-163836D01*
X109689Y-154732D01*
X110522Y-153289D01*
X112798Y-152680D01*
X115683Y-154346D01*
X116293Y-156622D01*
X108469Y-150180D02*
X103471Y-158838D01*
X99142Y-156339D01*
X98532Y-154063D01*
X99365Y-152620D01*
X101641Y-152010D01*
X105970Y-154509D01*
X101641Y-152010D01*
X101031Y-149734D01*
X101864Y-148291D01*
X104140Y-147681D01*
X108469Y-150180D01*
X-85000Y-197000D02*
X-75003D01*
Y-192002D01*
X-76669Y-190336D01*
X-80002D01*
X-81668Y-192002D01*
Y-197000D01*
Y-193668D02*
X-85000Y-190336D01*
Y-187003D02*
Y-183671D01*
Y-185337D01*
X-75003D01*
X-76669Y-187003D01*
X-85000Y-178673D02*
Y-175340D01*
Y-177006D01*
X-75003D01*
X-76669Y-178673D01*
X-75003Y-170342D02*
X-85000D01*
Y-165344D01*
X-83334Y-163677D01*
X-81668D01*
X-80002Y-165344D01*
Y-170342D01*
Y-165344D01*
X-78335Y-163677D01*
X-76669D01*
X-75003Y-165344D01*
Y-170342D01*
X-109577Y-5250D02*
X-114575Y3408D01*
X-118904Y908D01*
X-119514Y-1368D01*
X-117847Y-4254D01*
X-115571Y-4863D01*
X-111243Y-2364D01*
X-114129Y-4030D02*
X-115348Y-8582D01*
X-118234Y-10248D02*
X-121120Y-11914D01*
X-119677Y-11082D01*
X-124675Y-2424D01*
X-122399Y-3034D01*
X-129614Y-7199D02*
X-131890Y-6589D01*
X-134776Y-8255D01*
X-135386Y-10531D01*
X-132053Y-16303D01*
X-129777Y-16913D01*
X-126891Y-15247D01*
X-126282Y-12971D01*
X-129614Y-7199D01*
X-139104Y-10755D02*
X-134106Y-19412D01*
X-138435Y-21911D01*
X-140711Y-21301D01*
X-141544Y-19858D01*
X-140934Y-17583D01*
X-136605Y-15083D01*
X-140934Y-17583D01*
X-143210Y-16973D01*
X-144043Y-15530D01*
X-143433Y-13254D01*
X-139104Y-10755D01*
X134000Y-221500D02*
X143997D01*
Y-216502D01*
X142331Y-214835D01*
X138998D01*
X137332Y-216502D01*
Y-221500D01*
Y-218168D02*
X134000Y-214835D01*
X135666Y-211503D02*
X134000Y-209837D01*
Y-206505D01*
X135666Y-204839D01*
X142331D01*
X143997Y-206505D01*
Y-209837D01*
X142331Y-211503D01*
X140665D01*
X138998Y-209837D01*
Y-204839D01*
X143997Y-201507D02*
X134000D01*
Y-196508D01*
X135666Y-194842D01*
X137332D01*
X138998Y-196508D01*
Y-201507D01*
Y-196508D01*
X140665Y-194842D01*
X142331D01*
X143997Y-196508D01*
Y-201507D01*
X-73250Y235750D02*
Y245747D01*
X-78248D01*
X-79914Y244081D01*
Y240748D01*
X-78248Y239082D01*
X-73250D01*
X-76582D02*
X-79914Y235750D01*
X-83247Y244081D02*
X-84913Y245747D01*
X-88245D01*
X-89911Y244081D01*
Y242414D01*
X-88245Y240748D01*
X-89911Y239082D01*
Y237416D01*
X-88245Y235750D01*
X-84913D01*
X-83247Y237416D01*
Y239082D01*
X-84913Y240748D01*
X-83247Y242414D01*
Y244081D01*
X-84913Y240748D02*
X-88245D01*
X-93244Y245747D02*
Y235750D01*
X-98242D01*
X-99908Y237416D01*
Y239082D01*
X-98242Y240748D01*
X-93244D01*
X-98242D01*
X-99908Y242414D01*
Y244081D01*
X-98242Y245747D01*
X-93244D01*
X212000Y23000D02*
X207002Y31658D01*
X202673Y29158D01*
X202063Y26882D01*
X203729Y23997D01*
X206005Y23387D01*
X210334Y25886D01*
X207448Y24220D02*
X206228Y19668D01*
X198344Y26659D02*
X192572Y23327D01*
X193406Y21884D01*
X202509Y19445D01*
X203342Y18002D01*
X189687Y21661D02*
X194685Y13003D01*
X190356Y10504D01*
X188080Y11114D01*
X187247Y12557D01*
X187857Y14833D01*
X192186Y17332D01*
X187857Y14833D01*
X185581Y15443D01*
X184748Y16885D01*
X185358Y19161D01*
X189687Y21661D01*
X81000Y170000D02*
X90997D01*
Y174998D01*
X89331Y176665D01*
X85998D01*
X84332Y174998D01*
Y170000D01*
Y173332D02*
X81000Y176665D01*
X90997Y186661D02*
X89331Y183329D01*
X85998Y179997D01*
X82666D01*
X81000Y181663D01*
Y184995D01*
X82666Y186661D01*
X84332D01*
X85998Y184995D01*
Y179997D01*
X90997Y189993D02*
X81000D01*
Y194992D01*
X82666Y196658D01*
X84332D01*
X85998Y194992D01*
Y189993D01*
Y194992D01*
X87664Y196658D01*
X89331D01*
X90997Y194992D01*
Y189993D01*
X-105638Y147544D02*
X-100639Y156201D01*
X-104968Y158701D01*
X-107244Y158091D01*
X-108910Y155205D01*
X-108301Y152929D01*
X-103972Y150430D01*
X-106858Y152096D02*
X-111410Y150876D01*
X-115069Y164532D02*
X-109297Y161200D01*
X-111796Y156871D01*
X-113849Y159980D01*
X-115292Y160813D01*
X-117568Y160203D01*
X-119234Y157318D01*
X-118624Y155042D01*
X-115738Y153376D01*
X-113462Y153985D01*
X-117955Y166198D02*
X-122953Y157541D01*
X-127282Y160040D01*
X-127891Y162316D01*
X-127058Y163759D01*
X-124782Y164369D01*
X-120454Y161870D01*
X-124782Y164369D01*
X-125392Y166645D01*
X-124559Y168088D01*
X-122283Y168697D01*
X-117955Y166198D01*
X317000Y32000D02*
Y41997D01*
X312002D01*
X310336Y40331D01*
Y36998D01*
X312002Y35332D01*
X317000D01*
X313668D02*
X310336Y32000D01*
X307003D02*
X303671D01*
X305337D01*
Y41997D01*
X307003Y40331D01*
X298673Y41997D02*
Y32000D01*
X293674D01*
X292008Y33666D01*
Y35332D01*
X293674Y36998D01*
X298673D01*
X293674D01*
X292008Y38665D01*
Y40331D01*
X293674Y41997D01*
X298673D01*
X-210431Y99819D02*
X-217500Y92750D01*
X-222213Y97463D01*
X-224569Y99819D02*
X-226925Y102175D01*
X-225747Y100997D01*
X-218678Y108066D01*
Y105709D01*
X-223391Y112778D02*
X-230459Y105709D01*
X-233994Y109244D01*
X-233994Y111600D01*
X-232816Y112778D01*
X-230459Y112778D01*
X-226925Y109244D01*
X-230459Y112778D01*
Y115134D01*
X-229281Y116313D01*
X-226925Y116313D01*
X-223391Y112778D01*
X-272000Y-86003D02*
Y-96000D01*
X-276998D01*
X-278664Y-94334D01*
Y-87669D01*
X-276998Y-86003D01*
X-272000D01*
X-281997Y-96000D02*
Y-89335D01*
X-285329Y-86003D01*
X-288661Y-89335D01*
Y-96000D01*
Y-91002D01*
X-281997D01*
X-291994Y-96000D02*
X-295326D01*
X-293660D01*
Y-86003D01*
X-291994Y-87669D01*
X-300324Y-86003D02*
Y-96000D01*
X-305323D01*
X-306989Y-94334D01*
Y-92668D01*
X-305323Y-91002D01*
X-300324D01*
X-305323D01*
X-306989Y-89335D01*
Y-87669D01*
X-305323Y-86003D01*
X-300324D01*
X-317164Y198331D02*
X-315498Y199997D01*
X-312166D01*
X-310500Y198331D01*
Y191666D01*
X-312166Y190000D01*
X-315498D01*
X-317164Y191666D01*
X-327161Y199997D02*
X-320497D01*
Y194998D01*
X-323829Y196664D01*
X-325495D01*
X-327161Y194998D01*
Y191666D01*
X-325495Y190000D01*
X-322163D01*
X-320497Y191666D01*
X-330494Y199997D02*
Y190000D01*
X-335492D01*
X-337158Y191666D01*
Y193332D01*
X-335492Y194998D01*
X-330494D01*
X-335492D01*
X-337158Y196664D01*
Y198331D01*
X-335492Y199997D01*
X-330494D01*
X-240669Y-163335D02*
X-239003Y-165002D01*
Y-168334D01*
X-240669Y-170000D01*
X-247334D01*
X-249000Y-168334D01*
Y-165002D01*
X-247334Y-163335D01*
X-249000Y-155005D02*
X-239003D01*
X-244002Y-160003D01*
Y-153339D01*
X-239003Y-150006D02*
X-249000D01*
Y-145008D01*
X-247334Y-143342D01*
X-245668D01*
X-244002Y-145008D01*
Y-150006D01*
Y-145008D01*
X-242335Y-143342D01*
X-240669D01*
X-239003Y-145008D01*
Y-150006D01*
X-149164Y-273669D02*
X-147498Y-272003D01*
X-144166D01*
X-142500Y-273669D01*
Y-280334D01*
X-144166Y-282000D01*
X-147498D01*
X-149164Y-280334D01*
X-152497Y-273669D02*
X-154163Y-272003D01*
X-157495D01*
X-159161Y-273669D01*
Y-275336D01*
X-157495Y-277002D01*
X-155829D01*
X-157495D01*
X-159161Y-278668D01*
Y-280334D01*
X-157495Y-282000D01*
X-154163D01*
X-152497Y-280334D01*
X-162494Y-272003D02*
Y-282000D01*
X-167492D01*
X-169158Y-280334D01*
Y-278668D01*
X-167492Y-277002D01*
X-162494D01*
X-167492D01*
X-169158Y-275336D01*
Y-273669D01*
X-167492Y-272003D01*
X-162494D01*
X314335Y8331D02*
X316002Y9997D01*
X319334D01*
X321000Y8331D01*
Y1666D01*
X319334Y0D01*
X316002D01*
X314335Y1666D01*
X304339Y0D02*
X311003D01*
X304339Y6665D01*
Y8331D01*
X306005Y9997D01*
X309337D01*
X311003Y8331D01*
X301006Y9997D02*
Y0D01*
X296008D01*
X294342Y1666D01*
Y3332D01*
X296008Y4998D01*
X301006D01*
X296008D01*
X294342Y6665D01*
Y8331D01*
X296008Y9997D01*
X301006D01*
X347336Y-96669D02*
X349002Y-95003D01*
X352334D01*
X354000Y-96669D01*
Y-103334D01*
X352334Y-105000D01*
X349002D01*
X347336Y-103334D01*
X344003Y-105000D02*
X340671D01*
X342337D01*
Y-95003D01*
X344003Y-96669D01*
X335673Y-95003D02*
Y-105000D01*
X330674D01*
X329008Y-103334D01*
Y-101668D01*
X330674Y-100002D01*
X335673D01*
X330674D01*
X329008Y-98336D01*
Y-96669D01*
X330674Y-95003D01*
X335673D01*
X-237830Y148343D02*
X-227673D01*
X-232752Y143264D02*
Y153421D01*
X-178843Y-261080D02*
Y-250923D01*
X-173764Y-256002D02*
X-183921D01*
X-44750Y134633D02*
X-34593D01*
X36750Y133132D02*
X46907D01*
X41828Y128054D02*
Y138211D01*
X-136653Y29441D02*
X-131575Y38237D01*
X-97653Y100191D02*
X-92575Y108987D01*
X-90716Y102050D02*
X-99512Y107128D01*
X-94153Y-103691D02*
X-99231Y-94895D01*
X-135653Y-34191D02*
X-140731Y-25395D01*
X-133794Y-27254D02*
X-142590Y-32332D01*
X46000Y-131882D02*
X35843D01*
X-39500Y-132882D02*
X-49657D01*
X-44578Y-127804D02*
Y-137961D01*
X137153Y-28941D02*
X132075Y-37737D01*
X96903Y-101191D02*
X91825Y-109987D01*
X89966Y-103050D02*
X98762Y-108128D01*
X92903Y106441D02*
X97981Y97645D01*
X135153Y34691D02*
X140231Y25895D01*
X133294Y27754D02*
X142090Y32832D01*
X-153153Y129941D02*
X-148075Y138737D01*
X-146216Y131800D02*
X-155012Y136878D01*
X-194403Y57191D02*
X-189325Y65987D01*
X-47000Y197882D02*
X-36843D01*
X38500Y199632D02*
X48657D01*
X43578Y194554D02*
Y204711D01*
X191653Y69441D02*
X196731Y60645D01*
X189794Y62504D02*
X198590Y67582D01*
X147903Y142191D02*
X152981Y133395D01*
X196153Y-57191D02*
X191075Y-65987D01*
X154153Y-130191D02*
X149075Y-138987D01*
X147216Y-132050D02*
X156012Y-137128D01*
X-36250Y-197132D02*
X-46407D01*
X-41328Y-192054D02*
Y-202211D01*
X46750Y-198382D02*
X36593D01*
X-148403Y-138441D02*
X-153481Y-129645D01*
X-190153Y-66441D02*
X-195231Y-57645D01*
X-188294Y-59504D02*
X-197090Y-64582D01*
X242586Y-106919D02*
X244252Y-105253D01*
X247584D01*
X249250Y-106919D01*
Y-108586D01*
X247584Y-110252D01*
X244252D01*
X242586Y-111918D01*
Y-113584D01*
X244252Y-115250D01*
X247584D01*
X249250Y-113584D01*
X239253Y-105253D02*
Y-115250D01*
X235921Y-111918D01*
X232589Y-115250D01*
Y-105253D01*
X229256D02*
Y-115250D01*
X224258D01*
X222592Y-113584D01*
Y-106919D01*
X224258Y-105253D01*
X229256D01*
X219260D02*
X215927D01*
X217593D01*
Y-115250D01*
X219260D01*
X215927D01*
X205931Y-105253D02*
X209263D01*
X210929Y-106919D01*
Y-113584D01*
X209263Y-115250D01*
X205931D01*
X204265Y-113584D01*
Y-106919D01*
X205931Y-105253D01*
X295336Y91081D02*
X297002Y92747D01*
X300334D01*
X302000Y91081D01*
Y89415D01*
X300334Y87748D01*
X297002D01*
X295336Y86082D01*
Y84416D01*
X297002Y82750D01*
X300334D01*
X302000Y84416D01*
X292003Y92747D02*
Y82750D01*
X288671Y86082D01*
X285339Y82750D01*
Y92747D01*
X275342Y91081D02*
X277008Y92747D01*
X280340D01*
X282006Y91081D01*
Y84416D01*
X280340Y82750D01*
X277008D01*
X275342Y84416D01*
X272010Y92747D02*
Y82750D01*
X265345D01*
X262013Y92747D02*
Y82750D01*
Y86082D01*
X255348Y92747D01*
X260347Y87748D01*
X255348Y82750D01*
X277750Y139250D02*
Y149247D01*
X272752D01*
X271085Y147581D01*
Y144248D01*
X272752Y142582D01*
X277750D01*
X274418D02*
X271085Y139250D01*
X261089Y149247D02*
X267753D01*
Y139250D01*
X261089D01*
X267753Y144248D02*
X264421D01*
X251092Y147581D02*
X252758Y149247D01*
X256090D01*
X257756Y147581D01*
Y145914D01*
X256090Y144248D01*
X252758D01*
X251092Y142582D01*
Y140916D01*
X252758Y139250D01*
X256090D01*
X257756Y140916D01*
X241095Y149247D02*
X247760D01*
Y139250D01*
X241095D01*
X247760Y144248D02*
X244427D01*
X237763Y149247D02*
X231098D01*
X234431D01*
Y139250D01*
D56*
X242750Y243500D02*
X254750Y243500D01*
X242750Y227000D02*
X254750Y227000D01*
X294000Y173500D02*
Y183500D01*
X277500Y173500D02*
Y183500D01*
Y173500D02*
X294000D01*
X112750Y227500D02*
X112750Y215500D01*
X129250Y227500D02*
X129250Y215500D01*
X-28250Y279500D02*
X-18250Y279500D01*
X-28250Y263000D02*
X-18250Y263000D01*
X-18250Y279500D02*
X-18250Y263000D01*
X-84000Y279250D02*
X-72000Y279250D01*
X-84000Y262750D02*
X-72000Y262750D01*
X296500Y-113750D02*
X305500D01*
X296500Y-96250D02*
X305500D01*
X-189000Y269000D02*
X-189000Y260000D01*
X-171500Y269000D02*
X-171500Y260000D01*
X328000Y-84000D02*
X328000Y-34000D01*
X296000Y-84000D02*
X296000Y-34000D01*
X328000Y-34000D01*
X296000Y-84000D02*
X328000Y-84000D01*
X-298500Y167750D02*
X-298500Y224250D01*
X-278500Y224250D01*
X-250500Y224250D02*
X-230500Y224250D01*
X-230500Y167750D02*
X-230500Y224250D01*
X-287000Y156250D02*
X-278500Y156250D01*
X-298500Y167750D02*
X-287000Y156250D01*
X-242000Y156250D02*
X-230500Y167750D01*
X-250500Y156250D02*
X-242000Y156250D01*
X94500Y-187500D02*
X94500Y-177500D01*
X87250Y-177500D02*
X94500Y-177500D01*
X64500Y-187500D02*
Y-177500D01*
X71750Y-177500D01*
X243250Y-59000D02*
X243250Y-71000D01*
X226750Y-59000D02*
X226750Y-71000D01*
X-92250Y212500D02*
X-80250Y212500D01*
X-92250Y229000D02*
X-80250Y229000D01*
X-91000Y201000D02*
X-81000D01*
X-91000Y193750D02*
Y201000D01*
Y171000D02*
X-81000D01*
X-91000D02*
Y178250D01*
X271000Y-153500D02*
X271000Y-143500D01*
X263750Y-143500D02*
X271000Y-143500D01*
X241000Y-143500D02*
X241000Y-153500D01*
X241000Y-143500D02*
X248250Y-143500D01*
X266750Y32000D02*
X266750Y20000D01*
X283250D02*
X283250Y32000D01*
X255000Y23000D02*
X255000Y33000D01*
X247750Y33000D02*
X255000Y33000D01*
X225000Y23000D02*
Y33000D01*
X232250Y33000D01*
X115679Y-147145D02*
X126071Y-153145D01*
X123929Y-132855D02*
X134321Y-138855D01*
X-68250Y-176000D02*
X-68250Y-188000D01*
X-51750Y-176000D02*
X-51750Y-188000D01*
X-177571Y-31855D02*
X-167179Y-25855D01*
X-169321Y-46145D02*
X-158929Y-40145D01*
X-135321Y139855D02*
X-124929Y133855D01*
X-127071Y154145D02*
X-116679Y148145D01*
X56750Y188000D02*
X56750Y176000D01*
X73250Y188000D02*
X73250Y176000D01*
X178679Y41145D02*
X189071Y47145D01*
X186929Y26855D02*
X197321Y32855D01*
X-314000Y-158000D02*
X-264000Y-158000D01*
X-314000Y-126000D02*
X-264000Y-126000D01*
X-264000Y-158000D01*
X-314000Y-126000D02*
X-314000Y-158000D01*
X-356000Y-98250D02*
X-344000Y-98250D01*
X-356000Y-81750D02*
X-344000Y-81750D01*
X-351500Y-203250D02*
X-339500Y-203250D01*
X-351500Y-186750D02*
X-339500Y-186750D01*
X-296000Y-218250D02*
X-284000Y-218250D01*
X-296000Y-201750D02*
X-284000Y-201750D01*
X-254750Y-321750D02*
X-198250Y-321750D01*
X-254750Y-301750D02*
X-254750Y-321750D01*
Y-253750D02*
X-254750Y-273750D01*
X-254750Y-253750D02*
X-198250D01*
X-186750Y-301750D02*
X-186750Y-310250D01*
X-198250Y-321750D02*
X-186750Y-310250D01*
X-198250Y-253750D02*
X-186750Y-265250D01*
X-186750Y-273750D01*
X-119500Y-296750D02*
X-119500Y-301500D01*
X-74500Y-301500D02*
Y-296750D01*
X-119500Y-267250D02*
Y-262500D01*
X-74500D02*
X-74500Y-267250D01*
X-119500Y-301500D02*
X-74500Y-301500D01*
X-119500Y-262500D02*
X-74500D01*
X-12500Y-301500D02*
Y-296750D01*
X32500Y-301500D02*
Y-296750D01*
X-12500Y-267250D02*
Y-262500D01*
X32500Y-267250D02*
Y-262500D01*
X-12500Y-301500D02*
X32500D01*
X-12500Y-262500D02*
X32500D01*
X287250Y-146250D02*
X287250Y-158250D01*
X303750Y-146250D02*
X303750Y-158250D01*
X224000Y-22000D02*
X224000Y-12000D01*
X216750Y-12000D02*
X224000Y-12000D01*
X194000Y-22000D02*
Y-12000D01*
X201250Y-12000D01*
X128250Y-215500D02*
Y-203500D01*
X111750Y-215500D02*
Y-203500D01*
X301000Y-7250D02*
X310000Y-7250D01*
X301000Y-24750D02*
X310000Y-24750D01*
X-236500Y-109750D02*
X-236500Y-118750D01*
X-254000Y-118750D02*
X-254000Y-109750D01*
X-315750Y139250D02*
X-311000Y139250D01*
X-315750Y94250D02*
X-311000Y94250D01*
X-281500Y139250D02*
X-276750Y139250D01*
X-281500Y94250D02*
X-276750Y94250D01*
X-315750Y94250D02*
X-315750Y139250D01*
X-276750Y94250D02*
Y139250D01*
D57*
X-21000Y271249D02*
D03*
D94*
X285750Y176250D02*
D03*
M02*
