G04 Layer_Color=65535*
%FSLAX44Y44*%
%MOMM*%
G71*
G01*
G75*
%ADD35C,0.5000*%
%ADD39C,0.2540*%
%ADD43C,0.6000*%
%ADD44C,0.2500*%
%ADD45C,0.1270*%
%ADD46C,0.2000*%
G36*
X738103Y274832D02*
X741936D01*
X741658Y273499D01*
X737436D01*
X728493Y263888D01*
X728437Y263833D01*
X728215Y263611D01*
X727993Y263333D01*
X727660Y263000D01*
X727326Y262611D01*
X726993Y262278D01*
X726771Y262000D01*
X726604Y261778D01*
X726549Y261722D01*
X726493Y261611D01*
X726438Y261389D01*
X726382Y261222D01*
Y261166D01*
Y261111D01*
X726493Y260889D01*
X726549D01*
X726604Y260833D01*
X726826Y260778D01*
X726937D01*
X727049Y260833D01*
X727215Y260889D01*
X727493Y260944D01*
X727826Y261055D01*
X728160Y261222D01*
X728660Y261444D01*
X729159Y261722D01*
X729771Y262111D01*
X730437Y262555D01*
X731215Y263055D01*
X732104Y263722D01*
X733048Y264444D01*
X734103Y265277D01*
X735270Y266222D01*
X735992Y265388D01*
X735937Y265333D01*
X735714Y265111D01*
X735325Y264833D01*
X734881Y264444D01*
X734326Y264000D01*
X733715Y263500D01*
X733048Y263000D01*
X732326Y262444D01*
X730770Y261333D01*
X729993Y260833D01*
X729271Y260389D01*
X728549Y260000D01*
X727882Y259722D01*
X727326Y259500D01*
X726826Y259445D01*
X726660D01*
X726493Y259500D01*
X726271Y259556D01*
X725715Y259778D01*
X725438Y259944D01*
X725216Y260167D01*
Y260222D01*
X725104Y260278D01*
X725049Y260444D01*
X724938Y260667D01*
X724715Y261166D01*
X724660Y261500D01*
X724604Y261833D01*
Y261944D01*
X724660Y262222D01*
X724771Y262666D01*
X724993Y263333D01*
X725382Y264111D01*
X725660Y264555D01*
X725938Y265000D01*
X726327Y265555D01*
X726715Y266055D01*
X727215Y266610D01*
X727771Y267222D01*
X729317Y268803D01*
X724493Y264944D01*
X724387Y265060D01*
X724327Y265000D01*
X724049Y264777D01*
X723660Y264444D01*
X723271Y264111D01*
X722327Y263277D01*
X721327Y262444D01*
X720327Y261667D01*
X719438Y261000D01*
X719105Y260722D01*
X718772Y260500D01*
X718716Y260444D01*
X718549Y260389D01*
X718272Y260222D01*
X717938Y260056D01*
X717161Y259778D01*
X716716Y259667D01*
X716383Y259611D01*
X716216D01*
X716050Y259667D01*
X715827D01*
X715383Y259889D01*
X715161Y260000D01*
X714939Y260222D01*
Y260278D01*
X714883Y260333D01*
X714717Y260667D01*
X714550Y261111D01*
X714494Y261722D01*
Y261778D01*
Y261944D01*
X714550Y262166D01*
X714605Y262500D01*
X714772Y262889D01*
X714852Y263101D01*
X714717Y263000D01*
X714272Y262611D01*
X713161Y261833D01*
X711939Y261000D01*
X710717Y260278D01*
X710162Y260000D01*
X709606Y259778D01*
X709106Y259667D01*
X708662Y259611D01*
X708495D01*
X708273Y259667D01*
X708051Y259722D01*
X707773Y259833D01*
X707495Y259944D01*
X707217Y260167D01*
X706940Y260444D01*
Y260500D01*
X706829Y260611D01*
X706773Y260778D01*
X706662Y261055D01*
X706551Y261389D01*
X706495Y261722D01*
X706384Y262611D01*
Y262666D01*
Y262778D01*
X706440Y262944D01*
Y263166D01*
X706549Y263568D01*
X705940Y263111D01*
X705273Y262611D01*
X703829Y261555D01*
X703107Y261055D01*
X702384Y260667D01*
X701718Y260278D01*
X701107Y260000D01*
X700551Y259833D01*
X700051Y259778D01*
X699885D01*
X699551Y259833D01*
X699052Y260000D01*
X698607Y260333D01*
Y260389D01*
X698496Y260444D01*
X698329Y260778D01*
X698163Y261222D01*
X698052Y261889D01*
Y261944D01*
Y262111D01*
X698107Y262333D01*
X698163Y262611D01*
X698218Y262944D01*
X698385Y263333D01*
X698552Y263777D01*
X698774Y264222D01*
X698829Y264277D01*
X698940Y264499D01*
X699218Y264833D01*
X699599Y265261D01*
X699163Y264944D01*
X698496Y265666D01*
X698552Y265722D01*
X698829Y265944D01*
X698996Y266110D01*
X699274Y266333D01*
X699551Y266610D01*
X699940Y266944D01*
X700329Y267277D01*
X700829Y267721D01*
X701385Y268166D01*
X702051Y268666D01*
X702773Y269277D01*
X703607Y269888D01*
X704495Y270610D01*
X705495Y271388D01*
X708828D01*
X700163Y262222D01*
X700107Y262166D01*
X699940Y262000D01*
X699829Y261778D01*
X699718Y261555D01*
Y261444D01*
Y261333D01*
X699774Y261166D01*
X699829D01*
X700051Y261111D01*
X700163D01*
X700385Y261166D01*
X700607Y261222D01*
X700885Y261278D01*
X701273Y261444D01*
X701718Y261611D01*
X702218Y261889D01*
X702273Y261944D01*
X702496Y262055D01*
X702940Y262333D01*
X703495Y262722D01*
X704273Y263333D01*
X704773Y263666D01*
X705273Y264055D01*
X705884Y264499D01*
X706495Y265055D01*
X707217Y265611D01*
X707995Y266222D01*
X708010Y266204D01*
X708273Y266499D01*
X708773Y267055D01*
X709384Y267555D01*
X710050Y268110D01*
X710828Y268610D01*
X710884Y268666D01*
X711050Y268721D01*
X711273Y268888D01*
X711550Y269055D01*
X711939Y269277D01*
X712383Y269499D01*
X713439Y269999D01*
X714605Y270499D01*
X715883Y270943D01*
X717105Y271277D01*
X717716Y271332D01*
X718327Y271388D01*
X718661D01*
X718994Y271277D01*
X719383Y271166D01*
X719772Y270943D01*
X720105Y270610D01*
X720327Y270166D01*
X720438Y269555D01*
Y269499D01*
Y269488D01*
X721494Y271388D01*
X724715D01*
X717105Y262666D01*
X717050Y262611D01*
X716938Y262500D01*
X716661Y262166D01*
X716328Y261667D01*
X716216Y261444D01*
X716161Y261278D01*
Y261166D01*
X716272Y261000D01*
X716328D01*
X716494Y260944D01*
X716605D01*
X716716Y261000D01*
X716883Y261055D01*
X717161Y261166D01*
X717439Y261278D01*
X717827Y261500D01*
X718272Y261778D01*
X718327Y261833D01*
X718549Y262000D01*
X718938Y262222D01*
X719494Y262666D01*
X719883Y262944D01*
X720272Y263277D01*
X720716Y263611D01*
X721271Y264055D01*
X721882Y264499D01*
X722549Y265000D01*
X723271Y265611D01*
X724049Y266222D01*
X724233Y266009D01*
X731326Y271999D01*
X734159Y273499D01*
X731826D01*
X732048Y274832D01*
X734881D01*
X739381Y279498D01*
X742436Y279665D01*
X738103Y274832D01*
D02*
G37*
G36*
X710384Y294274D02*
X710328Y294219D01*
X710217Y294108D01*
X709995Y293941D01*
X709661Y293719D01*
X709328Y293385D01*
X708884Y293052D01*
X707995Y292274D01*
X706940Y291441D01*
X705940Y290552D01*
X705051Y289719D01*
X704606Y289330D01*
X704273Y288997D01*
X704218Y288941D01*
X703995Y288664D01*
X703607Y288275D01*
X703107Y287719D01*
X702496Y286997D01*
X701718Y286053D01*
X700885Y284997D01*
X699940Y283720D01*
X699885Y283664D01*
X699829Y283553D01*
X699663Y283386D01*
X699496Y283164D01*
X699052Y282553D01*
X698496Y281775D01*
X697885Y280942D01*
X697274Y280165D01*
X696718Y279442D01*
X696274Y278831D01*
X696830D01*
X697163Y278887D01*
X697607D01*
X698107Y278943D01*
X699163Y279109D01*
X699218Y279165D01*
X699329Y279276D01*
X699496Y279498D01*
X699718Y279776D01*
X700274Y280498D01*
X700996Y281331D01*
X701829Y282109D01*
X702718Y282831D01*
X703162Y283109D01*
X703551Y283331D01*
X703995Y283442D01*
X704384Y283498D01*
X704662D01*
X704884Y283442D01*
X705218Y283331D01*
X705495Y283164D01*
X705773Y282942D01*
X705940Y282664D01*
X705995Y282220D01*
Y282164D01*
Y281998D01*
X705884Y281720D01*
X705773Y281442D01*
X705551Y280998D01*
X705273Y280609D01*
X704829Y280109D01*
X704218Y279609D01*
X704162Y279554D01*
X703884Y279387D01*
X703551Y279165D01*
X703051Y278943D01*
X702440Y278665D01*
X701774Y278387D01*
X701051Y278109D01*
X700218Y277943D01*
X700163Y277887D01*
X700051Y277665D01*
X699885Y277332D01*
X699663Y276832D01*
X699385Y276165D01*
X699163Y275332D01*
X698885Y274387D01*
X698607Y273221D01*
X695607Y273165D01*
X695663Y273276D01*
X695774Y273499D01*
X695885Y273887D01*
X696052Y274276D01*
X696274Y274721D01*
X696441Y275110D01*
X696552Y275387D01*
X696663Y275554D01*
X696718Y275609D01*
X696830Y275721D01*
X696996Y275943D01*
X697218Y276220D01*
X697552Y276609D01*
X698052Y277109D01*
X698663Y277776D01*
X698607D01*
X698329Y277720D01*
X697996Y277665D01*
X697607D01*
X696774Y277554D01*
X696385Y277498D01*
X695941D01*
X695885Y277387D01*
X695719Y277109D01*
X695496Y276665D01*
X695107Y276054D01*
X694663Y275332D01*
X694108Y274499D01*
X693496Y273610D01*
X692774Y272610D01*
X691997Y271554D01*
X691108Y270443D01*
X690163Y269332D01*
X689164Y268221D01*
X688108Y267110D01*
X686942Y266055D01*
X685775Y265111D01*
X684498Y264166D01*
X684442Y264111D01*
X684164Y263944D01*
X683831Y263722D01*
X683275Y263444D01*
X682664Y263111D01*
X681887Y262666D01*
X680998Y262278D01*
X679942Y261833D01*
X678831Y261389D01*
X677609Y261000D01*
X676276Y260611D01*
X674887Y260222D01*
X673388Y259944D01*
X671832Y259722D01*
X670221Y259556D01*
X668499Y259500D01*
X667832D01*
X667444Y259556D01*
X667055D01*
X666166Y259667D01*
X665111Y259833D01*
X664055Y260111D01*
X663055Y260444D01*
X662166Y260944D01*
X662055Y261000D01*
X661833Y261222D01*
X661500Y261555D01*
X661111Y262000D01*
X660667Y262500D01*
X660333Y263166D01*
X660111Y263888D01*
X660000Y264722D01*
Y264777D01*
Y264944D01*
X660056Y265166D01*
X660111Y265499D01*
X660222Y265833D01*
X660333Y266222D01*
X660555Y266555D01*
X660833Y266944D01*
X660889Y266999D01*
X661000Y267110D01*
X661167Y267277D01*
X661389Y267444D01*
X661722Y267610D01*
X662055Y267777D01*
X662444Y267888D01*
X662889Y267944D01*
X663055D01*
X663222Y267888D01*
X663444D01*
X663944Y267666D01*
X664222Y267555D01*
X664500Y267333D01*
X664555D01*
X664611Y267222D01*
X664833Y266944D01*
X665055Y266444D01*
X665166Y266166D01*
Y265888D01*
Y265833D01*
Y265777D01*
X665111Y265388D01*
X664888Y264888D01*
X664722Y264666D01*
X664500Y264388D01*
X664444D01*
X664388Y264277D01*
X664055Y264111D01*
X663611Y263888D01*
X663277Y263833D01*
X663000Y263777D01*
X662889D01*
X662611Y263833D01*
X662222Y263944D01*
X661722Y264166D01*
X661611Y264222D01*
X661505Y264301D01*
X661555Y264000D01*
X661666Y263666D01*
X661889Y263277D01*
X662166Y262833D01*
X662611Y262389D01*
X663166Y261944D01*
X663277Y261889D01*
X663500Y261778D01*
X663944Y261611D01*
X664555Y261389D01*
X665333Y261166D01*
X666333Y261000D01*
X667555Y260889D01*
X668943Y260833D01*
X669277D01*
X669666Y260889D01*
X670221D01*
X670888Y261000D01*
X671665Y261055D01*
X672554Y261222D01*
X673499Y261389D01*
X674499Y261611D01*
X675554Y261944D01*
X676665Y262278D01*
X677776Y262722D01*
X678887Y263222D01*
X679998Y263833D01*
X681109Y264555D01*
X682164Y265333D01*
X682220Y265388D01*
X682442Y265555D01*
X682720Y265777D01*
X683109Y266166D01*
X683609Y266610D01*
X684220Y267166D01*
X684886Y267833D01*
X685609Y268555D01*
X686386Y269388D01*
X687275Y270277D01*
X688164Y271277D01*
X689108Y272332D01*
X690052Y273499D01*
X691052Y274721D01*
X692052Y275998D01*
X693052Y277387D01*
X692108D01*
X691663Y277332D01*
X691108Y277276D01*
X690386Y277220D01*
X689497Y277109D01*
X688497Y276887D01*
X687330Y276665D01*
X687275D01*
X687164Y276609D01*
X686997D01*
X686775Y276554D01*
X686497Y276443D01*
X686108Y276387D01*
X685275Y276109D01*
X684220Y275832D01*
X683053Y275443D01*
X681776Y274998D01*
X680442Y274499D01*
X680053Y275498D01*
X680165Y275554D01*
X680387Y275609D01*
X680776Y275776D01*
X681276Y275998D01*
X681942Y276220D01*
X682664Y276498D01*
X683553Y276776D01*
X684442Y277109D01*
X685442Y277387D01*
X686442Y277665D01*
X688608Y278165D01*
X689719Y278387D01*
X690830Y278554D01*
X691941Y278609D01*
X692997Y278665D01*
X693385D01*
X693496Y278720D01*
X693552Y278831D01*
X693774Y279109D01*
X694163Y279609D01*
X694663Y280276D01*
X695274Y281109D01*
X696052Y282053D01*
X696941Y283109D01*
X697941Y284275D01*
X699052Y285497D01*
X700329Y286831D01*
X701662Y288164D01*
X703107Y289552D01*
X704718Y290997D01*
X706384Y292386D01*
X708162Y293774D01*
X709995Y295163D01*
X710384Y294274D01*
D02*
G37*
G36*
X822317Y263444D02*
X822705Y263277D01*
X822728Y263261D01*
X823316Y262722D01*
X823372Y262666D01*
X823539Y262278D01*
X823594Y261833D01*
Y261778D01*
Y261667D01*
X823539Y261500D01*
X823483Y261278D01*
X823261Y260778D01*
X823094Y260500D01*
X822816Y260278D01*
X822761D01*
X822705Y260167D01*
X822372Y260000D01*
X821872Y259778D01*
X821594Y259722D01*
X821261Y259667D01*
X821150D01*
X820817Y259722D01*
X820428Y259833D01*
X820039Y260111D01*
X819983Y260222D01*
X819817Y260444D01*
X819650Y260833D01*
X819595Y261333D01*
Y261389D01*
Y261444D01*
X819706Y261833D01*
X819872Y262278D01*
X820039Y262500D01*
X820261Y262778D01*
X820317Y262833D01*
X820372Y262889D01*
X820761Y263166D01*
X821261Y263389D01*
X821539Y263444D01*
X821872Y263500D01*
X821983D01*
X822317Y263444D01*
D02*
G37*
G36*
X823316Y262722D02*
X823150Y262889D01*
X823094Y263000D01*
X822728Y263261D01*
X822650Y263333D01*
X837093Y279276D01*
X840815Y279442D01*
X823316Y262722D01*
D02*
G37*
G36*
X711772Y277554D02*
X712106Y277387D01*
X712439Y277109D01*
X712495Y277054D01*
X712661Y276832D01*
X712828Y276498D01*
X712883Y276109D01*
Y276054D01*
Y275943D01*
X712828Y275609D01*
X712606Y275110D01*
X712439Y274887D01*
X712217Y274665D01*
X712161D01*
X712106Y274610D01*
X711772Y274443D01*
X711328Y274221D01*
X710828Y274165D01*
X710717D01*
X710495Y274221D01*
X710106Y274332D01*
X709773Y274610D01*
X709717Y274665D01*
X709606Y274887D01*
X709439Y275221D01*
X709384Y275665D01*
Y275721D01*
Y275776D01*
X709439Y276109D01*
X709606Y276554D01*
X709939Y276998D01*
X709995Y277054D01*
X710050Y277109D01*
X710328Y277332D01*
X710828Y277498D01*
X711106Y277609D01*
X711495D01*
X711772Y277554D01*
D02*
G37*
G36*
X705273Y298163D02*
X706717D01*
X707551Y298107D01*
X709384Y298052D01*
X711328Y297941D01*
X713383Y297829D01*
X713661D01*
X713939Y297774D01*
X714328D01*
X714772Y297718D01*
X715328D01*
X715883Y297663D01*
X716550D01*
X717883Y297552D01*
X719272Y297496D01*
X720494Y297441D01*
X722882D01*
X722993Y297496D01*
X723216D01*
X723438Y297552D01*
X723660D01*
X723993Y297607D01*
X724493Y297718D01*
X724549D01*
X724660Y297774D01*
X724993Y297829D01*
X725049D01*
X725160Y297885D01*
X725327Y297941D01*
X725549Y297996D01*
X725604D01*
X725660Y297941D01*
X725882Y297885D01*
X726160Y297774D01*
X726327Y297718D01*
X726382Y297774D01*
X726438Y297829D01*
X726493Y297774D01*
X726438Y297663D01*
X726327Y297441D01*
X726104Y297107D01*
X725771Y296552D01*
X725715Y296496D01*
X725549Y296385D01*
X725327Y296274D01*
X725160Y296107D01*
X724327Y295663D01*
X724271Y295607D01*
X724105Y295552D01*
X723882Y295441D01*
X723605Y295330D01*
X723549D01*
X723493Y295274D01*
X723216Y295219D01*
X722771Y295052D01*
X722327Y294941D01*
X722216D01*
X721994Y294830D01*
X721660Y294774D01*
X721216Y294663D01*
X721105D01*
X720883Y294608D01*
X720549Y294552D01*
X719827D01*
X719494Y294496D01*
X718327D01*
X717716Y294552D01*
X716994Y294608D01*
X716105Y294663D01*
X715105Y294774D01*
X713994Y294885D01*
X713883D01*
X713606Y294941D01*
X713106Y294996D01*
X712383Y295052D01*
X711606Y295163D01*
X710606Y295274D01*
X709495Y295385D01*
X708273Y295496D01*
X706995Y295607D01*
X705606Y295718D01*
X704162Y295830D01*
X702607Y295941D01*
X699496Y296052D01*
X696385Y296107D01*
X695441D01*
X694996Y296052D01*
X693830D01*
X693163Y295996D01*
X691775Y295885D01*
X690330Y295663D01*
X688941Y295441D01*
X688330Y295274D01*
X687719Y295107D01*
X687664D01*
X687608Y295052D01*
X687442Y294996D01*
X687219Y294941D01*
X686664Y294719D01*
X685942Y294441D01*
X685108Y294108D01*
X684220Y293719D01*
X683275Y293219D01*
X682331Y292719D01*
X682220Y292663D01*
X681887Y292441D01*
X681442Y292163D01*
X680831Y291719D01*
X680165Y291219D01*
X679442Y290608D01*
X678665Y289941D01*
X677943Y289219D01*
X677887Y289108D01*
X677665Y288886D01*
X677387Y288497D01*
X677054Y287997D01*
X676665Y287386D01*
X676387Y286775D01*
X676165Y286108D01*
X676109Y285442D01*
Y285386D01*
Y285220D01*
X676165Y284886D01*
X676276Y284553D01*
X676443Y284164D01*
X676721Y283720D01*
X677054Y283275D01*
X677554Y282831D01*
X677609Y282775D01*
X677831Y282664D01*
X678165Y282498D01*
X678609Y282331D01*
X679165Y282109D01*
X679831Y281942D01*
X680553Y281831D01*
X681387Y281775D01*
X681831D01*
X682164Y281831D01*
X682609D01*
X683053Y281887D01*
X683609Y281998D01*
X684220Y282109D01*
X685553Y282387D01*
X687053Y282831D01*
X688608Y283442D01*
X689386Y283831D01*
X690163Y284275D01*
X690219Y284331D01*
X690330Y284386D01*
X690552Y284553D01*
X690830Y284720D01*
X691497Y285220D01*
X692274Y285886D01*
X692997Y286664D01*
X693663Y287553D01*
X693941Y287997D01*
X694163Y288497D01*
X694274Y288941D01*
X694330Y289441D01*
Y289497D01*
Y289552D01*
X694219Y289886D01*
X694052Y290330D01*
X693830Y290608D01*
X693608Y290830D01*
X693552Y290886D01*
X693496Y290941D01*
X693330Y291052D01*
X693052Y291163D01*
X692774Y291275D01*
X692441Y291330D01*
X691997Y291441D01*
X691274D01*
X690941Y291386D01*
X690552Y291330D01*
X690052Y291275D01*
X689441Y291163D01*
X688775Y290941D01*
X688053Y290719D01*
X687219Y290441D01*
X686331Y290052D01*
X685386Y289608D01*
X684442Y289053D01*
X683387Y288386D01*
X682331Y287608D01*
X681276Y286719D01*
X680165Y285720D01*
X679331Y286164D01*
X679387Y286220D01*
X679442Y286331D01*
X679609Y286497D01*
X679776Y286719D01*
X680331Y287330D01*
X681053Y288108D01*
X681942Y288886D01*
X682942Y289719D01*
X684053Y290497D01*
X685220Y291163D01*
X685275D01*
X685386Y291219D01*
X685553Y291330D01*
X685775Y291441D01*
X686108Y291552D01*
X686442Y291663D01*
X687275Y291997D01*
X688219Y292274D01*
X689275Y292552D01*
X690386Y292719D01*
X691497Y292774D01*
X691830D01*
X692163Y292719D01*
X692663Y292663D01*
X693163Y292497D01*
X693663Y292330D01*
X694163Y292052D01*
X694607Y291719D01*
X694663Y291663D01*
X694774Y291552D01*
X694941Y291330D01*
X695163Y291052D01*
X695385Y290719D01*
X695552Y290330D01*
X695663Y289886D01*
X695719Y289441D01*
Y289330D01*
X695663Y288997D01*
X695607Y288497D01*
X695385Y287886D01*
X695052Y287164D01*
X694607Y286331D01*
X693941Y285497D01*
X693496Y285109D01*
X693052Y284664D01*
X692997D01*
X692941Y284553D01*
X692774Y284442D01*
X692608Y284331D01*
X692052Y283942D01*
X691330Y283442D01*
X690441Y282942D01*
X689386Y282387D01*
X688275Y281887D01*
X687053Y281442D01*
X686997D01*
X686886Y281387D01*
X686720Y281331D01*
X686497Y281276D01*
X685886Y281109D01*
X685108Y280942D01*
X684164Y280776D01*
X683164Y280609D01*
X682164Y280498D01*
X681164Y280442D01*
X680720D01*
X680220Y280498D01*
X679609Y280609D01*
X678887Y280776D01*
X678109Y281053D01*
X677331Y281387D01*
X676554Y281831D01*
X676498Y281887D01*
X676276Y282109D01*
X675943Y282387D01*
X675610Y282775D01*
X675276Y283275D01*
X674943Y283831D01*
X674721Y284497D01*
X674665Y285220D01*
Y285275D01*
Y285386D01*
X674721Y285608D01*
X674776Y285942D01*
X674887Y286331D01*
X674998Y286775D01*
X675221Y287275D01*
X675498Y287830D01*
X675887Y288442D01*
X676332Y289108D01*
X676832Y289830D01*
X677498Y290552D01*
X678276Y291330D01*
X679165Y292108D01*
X680220Y292941D01*
X681387Y293774D01*
X681442Y293830D01*
X681720Y293941D01*
X682109Y294163D01*
X682664Y294496D01*
X683387Y294830D01*
X684331Y295163D01*
X685386Y295607D01*
X686608Y295996D01*
X687997Y296385D01*
X689608Y296829D01*
X691330Y297163D01*
X693274Y297552D01*
X695385Y297829D01*
X697663Y298052D01*
X700107Y298163D01*
X702773Y298218D01*
X704662D01*
X705273Y298163D01*
D02*
G37*
G36*
X784931Y298329D02*
X785543D01*
X786209Y298274D01*
X787042Y298218D01*
X787931Y298107D01*
X787820Y296885D01*
X787709D01*
X787431Y296941D01*
X787042D01*
X786542Y296996D01*
X785931D01*
X785265Y297052D01*
X783321D01*
X782876Y296996D01*
X782376D01*
X781765Y296941D01*
X781099Y296885D01*
X780321Y296829D01*
X779432Y296718D01*
X778543Y296552D01*
X776599Y296218D01*
X774488Y295774D01*
X772266Y295107D01*
X772211D01*
X771988Y294996D01*
X771711Y294885D01*
X771322Y294774D01*
X770822Y294552D01*
X770266Y294330D01*
X769600Y294052D01*
X768933Y293719D01*
X767489Y292941D01*
X765989Y291997D01*
X764545Y290830D01*
X763878Y290219D01*
X763267Y289552D01*
X763212Y289497D01*
X763156Y289386D01*
X762989Y289219D01*
X762767Y288941D01*
X762545Y288608D01*
X762323Y288219D01*
X761767Y287330D01*
X761156Y286220D01*
X760712Y285053D01*
X760323Y283775D01*
X760267Y283109D01*
X760212Y282442D01*
Y282331D01*
X760267Y281998D01*
X760323Y281553D01*
X760490Y280942D01*
X760767Y280276D01*
X761156Y279554D01*
X761712Y278776D01*
X762489Y278054D01*
X762545D01*
X762600Y277998D01*
X762767Y277887D01*
X762934Y277776D01*
X763212Y277609D01*
X763489Y277443D01*
X763878Y277276D01*
X764323Y277109D01*
X764822Y276943D01*
X765434Y276776D01*
X766045Y276609D01*
X766767Y276443D01*
X767544Y276332D01*
X768378Y276220D01*
X769267Y276165D01*
X770988D01*
X771377Y276220D01*
X771877D01*
X772377Y276276D01*
X772988D01*
X774266Y276387D01*
X775766Y276609D01*
X777377Y276832D01*
X779043Y277165D01*
X779099Y277276D01*
X779321Y277554D01*
X779599Y278054D01*
X780043Y278720D01*
X780599Y279498D01*
X781210Y280387D01*
X781987Y281387D01*
X782821Y282442D01*
X783709Y283609D01*
X784709Y284775D01*
X785765Y285997D01*
X786931Y287219D01*
X788098Y288386D01*
X789376Y289552D01*
X790709Y290664D01*
X792042Y291663D01*
X792153Y291719D01*
X792375Y291886D01*
X792764Y292163D01*
X793264Y292497D01*
X793875Y292885D01*
X794597Y293330D01*
X795430Y293830D01*
X796264Y294330D01*
X798152Y295274D01*
X799152Y295718D01*
X800097Y296107D01*
X801096Y296441D01*
X802041Y296718D01*
X802930Y296885D01*
X803763Y296941D01*
X804041D01*
X804318Y296885D01*
X804707Y296829D01*
X805096Y296718D01*
X805596Y296552D01*
X806040Y296330D01*
X806429Y295996D01*
X806485Y295941D01*
X806596Y295830D01*
X806763Y295607D01*
X806985Y295330D01*
X807151Y294996D01*
X807318Y294608D01*
X807429Y294108D01*
X807485Y293608D01*
Y293552D01*
Y293441D01*
X807429Y293163D01*
X807374Y292885D01*
X807262Y292497D01*
X807040Y291997D01*
X806818Y291441D01*
X806485Y290830D01*
X806040Y290163D01*
X805485Y289441D01*
X804818Y288664D01*
X804041Y287775D01*
X803096Y286886D01*
X801985Y285997D01*
X800708Y284997D01*
X799263Y283997D01*
X799152Y283942D01*
X798875Y283775D01*
X798430Y283498D01*
X797819Y283109D01*
X797097Y282664D01*
X796208Y282164D01*
X795208Y281609D01*
X794097Y281053D01*
X792875Y280442D01*
X791542Y279776D01*
X790153Y279165D01*
X788709Y278609D01*
X787209Y277998D01*
X785654Y277498D01*
X784043Y276998D01*
X782432Y276609D01*
X782376Y276554D01*
X782265Y276387D01*
X782098Y276165D01*
X781876Y275887D01*
X781599Y275498D01*
X781321Y275054D01*
X780599Y274054D01*
X779821Y272999D01*
X778988Y271888D01*
X778210Y270888D01*
X777877Y270443D01*
X777543Y270054D01*
X777488Y269943D01*
X777266Y269721D01*
X776932Y269332D01*
X776488Y268832D01*
X775932Y268277D01*
X775266Y267610D01*
X774544Y266944D01*
X773710Y266222D01*
X773599Y266166D01*
X773322Y265944D01*
X772877Y265611D01*
X772322Y265166D01*
X771655Y264722D01*
X770877Y264222D01*
X770100Y263722D01*
X769322Y263277D01*
X769211Y263222D01*
X768989Y263111D01*
X768544Y262944D01*
X767989Y262722D01*
X767322Y262500D01*
X766600Y262278D01*
X765767Y262055D01*
X764878Y261944D01*
X764934D01*
X765100Y261889D01*
X765322D01*
X765656Y261833D01*
X766045Y261778D01*
X766489Y261667D01*
X766989Y261611D01*
X767600Y261555D01*
X768822Y261389D01*
X770155Y261222D01*
X771488Y261166D01*
X772822Y261111D01*
X773322D01*
X773933Y261166D01*
X774710Y261222D01*
X775655Y261333D01*
X776710Y261444D01*
X777932Y261667D01*
X779154Y261944D01*
X779210D01*
X779321Y262000D01*
X779488Y262055D01*
X779765Y262111D01*
X780043Y262222D01*
X780432Y262389D01*
X781376Y262778D01*
X782487Y263333D01*
X783709Y264111D01*
X784432Y264555D01*
X785098Y265055D01*
X785820Y265611D01*
X786598Y266222D01*
X787021Y265766D01*
X787042Y265777D01*
X787153Y265944D01*
X787376Y266110D01*
X787931Y266610D01*
X788598Y267222D01*
X789320Y267888D01*
X790042Y268499D01*
X790709Y269110D01*
X791209Y269555D01*
X791264Y269610D01*
X791431Y269721D01*
X791653Y269943D01*
X791931Y270221D01*
X792709Y270777D01*
X793486Y271388D01*
X796819D01*
X796764Y271332D01*
X796653Y271110D01*
X796430Y270777D01*
X796208Y270388D01*
X795875Y269888D01*
X795486Y269388D01*
X794542Y268333D01*
X788653Y262278D01*
X788542Y262166D01*
X788320Y261944D01*
X788098Y261667D01*
X787987Y261444D01*
Y261333D01*
Y261222D01*
X788098Y261055D01*
X788209Y261000D01*
X788431Y260944D01*
X788598D01*
X788876Y261000D01*
X789209Y261111D01*
X789653Y261278D01*
X790153Y261555D01*
X790820Y261889D01*
X791542Y262333D01*
X791653Y262389D01*
X791931Y262555D01*
X792320Y262833D01*
X792820Y263222D01*
X793431Y263611D01*
X794097Y264111D01*
X795375Y265111D01*
X799541Y268777D01*
X799597Y268832D01*
X799652Y268944D01*
X799819Y269166D01*
X800097Y269443D01*
X800430Y269832D01*
X800819Y270277D01*
X801374Y270777D01*
X801985Y271388D01*
X805429D01*
X805374Y271332D01*
X805263Y271221D01*
X805041Y270943D01*
X804818Y270665D01*
X804485Y270277D01*
X804096Y269888D01*
X803263Y268888D01*
X802319Y267777D01*
X801319Y266666D01*
X800374Y265611D01*
X799541Y264666D01*
X797764Y262722D01*
X797708Y262666D01*
X797597Y262500D01*
X797430Y262278D01*
X797208Y262000D01*
X796819Y261500D01*
X796708Y261278D01*
X796653Y261111D01*
Y261055D01*
X796708Y261000D01*
X796819Y260889D01*
X797041Y260833D01*
X797208D01*
X797430Y260889D01*
X797764Y261000D01*
X798152Y261111D01*
X798652Y261333D01*
X799208Y261667D01*
X799819Y262055D01*
X799930Y262111D01*
X800152Y262278D01*
X800596Y262611D01*
X801152Y263055D01*
X801930Y263611D01*
X802819Y264333D01*
X803930Y265222D01*
X805152Y266222D01*
X805325Y266021D01*
X808151Y268555D01*
X808262Y268610D01*
X808540Y268832D01*
X808929Y269166D01*
X809373Y269499D01*
X810484Y270332D01*
X810984Y270665D01*
X811429Y270943D01*
X811484Y270999D01*
X811595Y271054D01*
X811818Y271166D01*
X812095Y271277D01*
X812818Y271499D01*
X813206Y271610D01*
X813762D01*
X813929Y271554D01*
X814151Y271499D01*
X814651Y271332D01*
X814928Y271110D01*
X815206Y270888D01*
X815262Y270832D01*
X815317Y270777D01*
X815428Y270610D01*
X815595Y270443D01*
X815873Y269832D01*
X815928Y269499D01*
X815984Y269110D01*
Y268999D01*
Y268777D01*
X815873Y268499D01*
X815762Y268166D01*
X815817Y268221D01*
X815873Y268333D01*
X815984Y268499D01*
X816151Y268721D01*
X816595Y269221D01*
X817150Y269888D01*
X817817Y270499D01*
X818484Y271054D01*
X818872Y271221D01*
X819261Y271388D01*
X819595Y271499D01*
X819983Y271554D01*
X820261D01*
X820539Y271499D01*
X820872Y271332D01*
X821150Y271166D01*
X821428Y270888D01*
X821650Y270499D01*
X821705Y269943D01*
Y269888D01*
Y269832D01*
X821650Y269443D01*
X821428Y268944D01*
X821261Y268721D01*
X821039Y268444D01*
X820928Y268333D01*
X820650Y268166D01*
X820206Y267944D01*
X819983Y267888D01*
X819706Y267833D01*
X819539D01*
X819317Y267888D01*
X819095Y267999D01*
X818872Y268166D01*
X818650Y268388D01*
X818539Y268666D01*
X818484Y269110D01*
Y269221D01*
X818527Y269397D01*
X818317Y269221D01*
X817984Y268944D01*
X817539Y268555D01*
X817095Y268055D01*
X816595Y267555D01*
X816039Y266944D01*
X815428Y266222D01*
X815373Y266166D01*
X815262Y266055D01*
X815151Y265833D01*
X814928Y265611D01*
X814373Y264944D01*
X813817Y264166D01*
X813206Y263333D01*
X812651Y262500D01*
X812429Y262166D01*
X812318Y261833D01*
X812206Y261611D01*
X812151Y261389D01*
Y261333D01*
Y261278D01*
X812206Y261111D01*
X812318Y260944D01*
X812373D01*
X812484Y260889D01*
X812651Y260833D01*
X812818Y260778D01*
X812873D01*
X813151Y260833D01*
X813540Y261000D01*
X814151Y261222D01*
X814928Y261667D01*
X815428Y262000D01*
X815984Y262333D01*
X816595Y262778D01*
X817262Y263277D01*
X817984Y263833D01*
X818761Y264499D01*
X820928Y266222D01*
X821650Y265388D01*
X821594Y265333D01*
X821428Y265222D01*
X821206Y265000D01*
X820872Y264722D01*
X820539Y264388D01*
X820095Y264000D01*
X819095Y263166D01*
X818039Y262278D01*
X817039Y261444D01*
X816539Y261055D01*
X816095Y260778D01*
X815650Y260500D01*
X815317Y260278D01*
X815262Y260222D01*
X815040Y260167D01*
X814762Y260000D01*
X814373Y259889D01*
X813484Y259556D01*
X813040Y259500D01*
X812651Y259445D01*
X812484D01*
X812373Y259500D01*
X812151D01*
X811595Y259667D01*
X811040Y260000D01*
X810984Y260056D01*
X810929Y260111D01*
X810818Y260222D01*
X810707Y260444D01*
X810540Y260667D01*
X810429Y261000D01*
X810373Y261333D01*
X810318Y261778D01*
Y261833D01*
Y261889D01*
X810373Y262222D01*
X810429Y262555D01*
X810595Y262889D01*
X810484Y262778D01*
X810262Y262500D01*
X809929Y262111D01*
X809484Y261667D01*
X808985Y261166D01*
X808485Y260667D01*
X808040Y260278D01*
X807596Y260000D01*
X807540D01*
X807429Y259889D01*
X807207Y259833D01*
X806929Y259722D01*
X806263Y259556D01*
X805540Y259445D01*
X805374D01*
X805207Y259500D01*
X805041D01*
X804541Y259667D01*
X804041Y259944D01*
X803930Y260056D01*
X803763Y260278D01*
X803596Y260667D01*
X803485Y261222D01*
Y261278D01*
Y261389D01*
X803541Y261555D01*
X803596Y261778D01*
X803818Y262278D01*
X803985Y262555D01*
X804207Y262833D01*
X804263Y262889D01*
X804318Y262944D01*
X804485Y263055D01*
X804707Y263222D01*
X805207Y263500D01*
X805485Y263555D01*
X805818Y263611D01*
X805929D01*
X806096Y263555D01*
X806429Y263444D01*
X806707Y263222D01*
X806763Y263166D01*
X806929Y263000D01*
X807096Y262722D01*
X807151Y262389D01*
Y262278D01*
X807096Y262000D01*
X806929Y261667D01*
X806596Y261278D01*
X806485Y261222D01*
X806263Y261055D01*
X806040Y260928D01*
X806207Y261000D01*
X806763Y261278D01*
X807096Y261444D01*
X807485Y261722D01*
X807874Y262000D01*
X808318Y262389D01*
X808818Y262833D01*
X809373Y263333D01*
X809985Y263944D01*
X810595Y264611D01*
X810651Y264666D01*
X810762Y264777D01*
X810929Y265000D01*
X811151Y265222D01*
X811706Y265888D01*
X812373Y266721D01*
X812984Y267555D01*
X813540Y268388D01*
X813762Y268832D01*
X813929Y269166D01*
X814040Y269499D01*
X814095Y269777D01*
Y269832D01*
X814040Y270054D01*
X813873Y270221D01*
X813595Y270277D01*
X813484D01*
X813317Y270221D01*
X813095D01*
X812540Y269999D01*
X812262Y269888D01*
X811873Y269666D01*
X811818Y269610D01*
X811706Y269555D01*
X811429Y269388D01*
X811096Y269110D01*
X810595Y268777D01*
X809985Y268333D01*
X809262Y267721D01*
X808429Y267055D01*
X805596Y264944D01*
X805489Y265060D01*
X805429Y265000D01*
X805096Y264722D01*
X804707Y264388D01*
X804263Y264000D01*
X803263Y263111D01*
X802152Y262222D01*
X801096Y261389D01*
X800596Y261055D01*
X800152Y260722D01*
X799763Y260444D01*
X799430Y260278D01*
X799374Y260222D01*
X799208Y260167D01*
X798930Y260056D01*
X798541Y259889D01*
X797764Y259611D01*
X797375Y259556D01*
X796986Y259500D01*
X796875D01*
X796486Y259556D01*
X796041Y259778D01*
X795764Y259889D01*
X795542Y260111D01*
Y260167D01*
X795430Y260222D01*
X795264Y260555D01*
X795097Y261055D01*
X794986Y261722D01*
Y261833D01*
X795042Y262111D01*
X795153Y262555D01*
X795375Y263166D01*
X795708Y263888D01*
X795930Y264259D01*
X795819Y264166D01*
X793764Y262500D01*
X792709Y261722D01*
X791709Y261055D01*
X790764Y260444D01*
X789875Y260000D01*
X789042Y259722D01*
X788376Y259611D01*
X788264D01*
X787876Y259667D01*
X787431Y259833D01*
X786931Y260167D01*
Y260222D01*
X786820Y260278D01*
X786654Y260611D01*
X786431Y261111D01*
X786376Y261444D01*
X786320Y261833D01*
Y261944D01*
X786376Y262166D01*
X786431Y262555D01*
X786598Y263055D01*
X786820Y263611D01*
X787153Y264277D01*
X787653Y265000D01*
X787706Y265061D01*
X787542Y264944D01*
X787196Y265319D01*
X787042Y265166D01*
X786709Y264888D01*
X786209Y264499D01*
X785598Y264055D01*
X784876Y263555D01*
X784043Y263055D01*
X783098Y262500D01*
X781987Y261944D01*
X780765Y261389D01*
X779488Y260889D01*
X778043Y260444D01*
X776488Y260056D01*
X774877Y259778D01*
X773155Y259556D01*
X771322Y259500D01*
X770544D01*
X770100Y259556D01*
X769600D01*
X769100Y259611D01*
X768489Y259667D01*
X767100Y259833D01*
X765600Y260111D01*
X764045Y260444D01*
X762434Y260889D01*
X762378D01*
X762267Y260833D01*
X762045Y260778D01*
X761712Y260722D01*
X761323Y260611D01*
X760878Y260500D01*
X760378Y260389D01*
X759823Y260278D01*
X759156Y260167D01*
X758490Y260056D01*
X756990Y259833D01*
X755323Y259722D01*
X753546Y259667D01*
X752490D01*
X752046Y259722D01*
X751157D01*
X750157Y259778D01*
X749157Y259889D01*
X748269Y260000D01*
X747935Y260056D01*
X747602Y260167D01*
X747546Y260222D01*
X747380Y260278D01*
X747158Y260389D01*
X746880Y260611D01*
X746602Y260833D01*
X746380Y261111D01*
X746213Y261500D01*
X746158Y261889D01*
Y261944D01*
Y262000D01*
X746269Y262278D01*
X746491Y262722D01*
X746658Y262944D01*
X746880Y263222D01*
X747213Y263444D01*
X747602Y263666D01*
X748046Y263888D01*
X748602Y264111D01*
X749268Y264277D01*
X750046Y264388D01*
X750991Y264499D01*
X753046D01*
X753546Y264444D01*
X754212Y264388D01*
X754935Y264333D01*
X755712Y264277D01*
X756601Y264166D01*
X757490Y264055D01*
X759490Y263722D01*
X761601Y263222D01*
X763767Y262611D01*
X763878Y262666D01*
X764100Y262722D01*
X764489Y262889D01*
X765045Y263111D01*
X765711Y263444D01*
X766489Y263888D01*
X767378Y264444D01*
X768378Y265111D01*
X769433Y265888D01*
X770600Y266833D01*
X771822Y267888D01*
X773099Y269110D01*
X774433Y270554D01*
X775821Y272110D01*
X777210Y273887D01*
X778599Y275887D01*
X778543D01*
X778432Y275832D01*
X778210Y275776D01*
X777932Y275721D01*
X777543Y275665D01*
X777154Y275554D01*
X776655Y275443D01*
X776099Y275387D01*
X774821Y275165D01*
X773377Y274998D01*
X771822Y274887D01*
X770100Y274832D01*
X769489D01*
X769100Y274887D01*
X768600D01*
X767989Y274943D01*
X767322Y275054D01*
X766656Y275165D01*
X765211Y275443D01*
X763711Y275887D01*
X762378Y276498D01*
X761767Y276832D01*
X761212Y277276D01*
X761156Y277332D01*
X761101Y277387D01*
X760823Y277720D01*
X760378Y278220D01*
X759878Y278943D01*
X759379Y279776D01*
X758990Y280776D01*
X758656Y281887D01*
X758601Y282498D01*
X758545Y283109D01*
Y283164D01*
Y283386D01*
X758601Y283775D01*
X758656Y284220D01*
X758767Y284831D01*
X758934Y285497D01*
X759156Y286220D01*
X759490Y287053D01*
X759878Y287941D01*
X760378Y288830D01*
X760990Y289719D01*
X761712Y290664D01*
X762600Y291552D01*
X763600Y292497D01*
X764767Y293330D01*
X766100Y294163D01*
X766211Y294219D01*
X766433Y294330D01*
X766878Y294552D01*
X767433Y294830D01*
X768156Y295163D01*
X769044Y295496D01*
X770044Y295885D01*
X771155Y296274D01*
X772377Y296663D01*
X773710Y297052D01*
X775210Y297385D01*
X776766Y297718D01*
X778377Y297996D01*
X780099Y298218D01*
X781876Y298329D01*
X783765Y298385D01*
X784432D01*
X784931Y298329D01*
D02*
G37*
%LPC*%
G36*
X718549Y270054D02*
X718216D01*
X717938Y269999D01*
X717494Y269832D01*
X716827Y269610D01*
X715939Y269166D01*
X715439Y268832D01*
X714883Y268499D01*
X714328Y268055D01*
X713661Y267555D01*
X712939Y266999D01*
X712217Y266333D01*
X712161Y266277D01*
X712050Y266166D01*
X711828Y265999D01*
X711606Y265722D01*
X710939Y265111D01*
X710217Y264333D01*
X709439Y263500D01*
X708773Y262722D01*
X708550Y262333D01*
X708328Y261944D01*
X708217Y261667D01*
X708162Y261389D01*
Y261278D01*
X708273Y261055D01*
X708328D01*
X708384Y261000D01*
X708717Y260944D01*
X708828D01*
X708995Y261000D01*
X709217Y261055D01*
X709550Y261166D01*
X709939Y261333D01*
X710439Y261555D01*
X710995Y261833D01*
X711050Y261889D01*
X711273Y262000D01*
X711661Y262222D01*
X712161Y262555D01*
X712772Y263000D01*
X713439Y263500D01*
X714272Y264166D01*
X715161Y264888D01*
X715217D01*
X715272Y265000D01*
X715550Y265222D01*
X715994Y265611D01*
X716494Y266110D01*
X717050Y266610D01*
X717550Y267110D01*
X717994Y267555D01*
X718327Y267944D01*
X718383Y267999D01*
X718438Y268110D01*
X718549Y268277D01*
X718661Y268499D01*
X718883Y269055D01*
X718994Y269332D01*
Y269610D01*
Y269666D01*
X718938Y269832D01*
X718716Y269999D01*
X718549Y270054D01*
D02*
G37*
G36*
X704495Y282164D02*
X704162D01*
X703884Y282053D01*
X703607Y281887D01*
X703329Y281720D01*
X702996Y281442D01*
X702607Y281109D01*
X702551Y281053D01*
X702440Y280942D01*
X702218Y280720D01*
X701940Y280498D01*
X701329Y279942D01*
X700663Y279387D01*
X700718D01*
X700829Y279442D01*
X701051Y279498D01*
X701329Y279609D01*
X701718Y279720D01*
X702107Y279942D01*
X702607Y280165D01*
X703107Y280498D01*
X703162Y280553D01*
X703329Y280665D01*
X703551Y280831D01*
X703829Y281053D01*
X704107Y281331D01*
X704329Y281553D01*
X704495Y281831D01*
X704551Y282109D01*
X704495Y282164D01*
D02*
G37*
G36*
X803707Y295607D02*
X803430D01*
X803263Y295552D01*
X802707Y295496D01*
X801930Y295330D01*
X801041Y295052D01*
X799930Y294608D01*
X798708Y294052D01*
X797319Y293274D01*
X797264D01*
X797152Y293163D01*
X796930Y293052D01*
X796653Y292830D01*
X796319Y292608D01*
X795930Y292330D01*
X795430Y291941D01*
X794930Y291552D01*
X794319Y291052D01*
X793708Y290552D01*
X793042Y289997D01*
X792375Y289330D01*
X791653Y288664D01*
X790931Y287886D01*
X790153Y287108D01*
X789376Y286220D01*
X789320Y286164D01*
X789209Y285997D01*
X788987Y285775D01*
X788709Y285442D01*
X788320Y284997D01*
X787931Y284553D01*
X787487Y283997D01*
X786987Y283442D01*
X785987Y282109D01*
X784876Y280720D01*
X783820Y279331D01*
X782876Y277943D01*
X782987Y277998D01*
X783265Y278054D01*
X783765Y278220D01*
X784432Y278387D01*
X785209Y278665D01*
X786154Y278943D01*
X787209Y279331D01*
X788376Y279776D01*
X789598Y280276D01*
X790875Y280831D01*
X792208Y281442D01*
X793597Y282109D01*
X794986Y282831D01*
X796375Y283664D01*
X797764Y284497D01*
X799097Y285442D01*
X799152Y285497D01*
X799374Y285664D01*
X799763Y285942D01*
X800208Y286275D01*
X800708Y286719D01*
X801319Y287219D01*
X801930Y287830D01*
X802596Y288442D01*
X803874Y289775D01*
X804485Y290441D01*
X804985Y291163D01*
X805429Y291830D01*
X805818Y292497D01*
X806040Y293163D01*
X806096Y293774D01*
Y293830D01*
Y293885D01*
X805985Y294219D01*
X805818Y294608D01*
X805596Y294830D01*
X805374Y295052D01*
X805318D01*
X805263Y295163D01*
X804929Y295330D01*
X804374Y295496D01*
X803707Y295607D01*
D02*
G37*
G36*
X751657Y263000D02*
X751046D01*
X750379Y262944D01*
X749657Y262889D01*
X748935Y262722D01*
X748269Y262555D01*
X748046Y262444D01*
X747824Y262278D01*
X747713Y262111D01*
X747658Y261944D01*
Y261889D01*
X747769Y261778D01*
X747880Y261667D01*
X747991Y261555D01*
X748213Y261444D01*
X748491Y261333D01*
X748546D01*
X748713Y261278D01*
X748991Y261222D01*
X749491Y261166D01*
X749769Y261111D01*
X750157D01*
X750546Y261055D01*
X751546D01*
X752157Y261000D01*
X754879D01*
X755323Y261055D01*
X756434D01*
X757712Y261111D01*
X758990Y261222D01*
X760212Y261333D01*
X760767Y261389D01*
X761267Y261500D01*
X761212D01*
X761045Y261555D01*
X760712Y261667D01*
X760323Y261722D01*
X759823Y261833D01*
X759268Y262000D01*
X758656Y262111D01*
X757934Y262278D01*
X756434Y262500D01*
X754824Y262778D01*
X753213Y262944D01*
X751657Y263000D01*
D02*
G37*
%LPD*%
D35*
X872500Y805000D02*
X910000D01*
X872500Y797500D02*
Y805000D01*
Y740000D02*
Y747500D01*
Y740000D02*
X910000D01*
X505000Y740000D02*
X542500D01*
Y747500D01*
Y797500D02*
Y805000D01*
X505000D02*
X542500D01*
X740000Y335000D02*
Y372500D01*
Y335000D02*
X747500Y335000D01*
X797500D02*
X805000Y335000D01*
Y372500D01*
X942501Y654995D02*
X980001Y654995D01*
X942501Y647495D02*
Y654995D01*
Y589995D02*
Y597495D01*
Y589995D02*
X980001D01*
X915000Y567500D02*
X952500Y567500D01*
X915000Y560000D02*
Y567500D01*
Y502500D02*
Y510000D01*
Y502500D02*
X952500D01*
X505000Y279997D02*
X518329D01*
X400000D02*
X413329D01*
X406665Y286661D02*
Y273332D01*
D39*
X775800Y558800D02*
G03*
X775800Y558800I-90000J0D01*
G01*
X1080800Y418800D02*
G03*
X1080800Y418800I-35000J0D01*
G01*
Y698800D02*
G03*
X1080800Y698800I-35000J0D01*
G01*
X359341Y418800D02*
G03*
X359341Y418800I-33541J0D01*
G01*
X360800Y698800D02*
G03*
X360800Y698800I-35000J0D01*
G01*
X872500Y555000D02*
Y563997D01*
X876999D01*
X878498Y562498D01*
Y559499D01*
X876999Y557999D01*
X872500D01*
X887495Y563997D02*
X881497D01*
Y559499D01*
X884496Y560998D01*
X885996D01*
X887495Y559499D01*
Y556499D01*
X885996Y555000D01*
X882997D01*
X881497Y556499D01*
X588000Y399500D02*
Y408497D01*
X592499D01*
X593998Y406998D01*
Y403998D01*
X592499Y402499D01*
X588000D01*
X601496Y399500D02*
Y408497D01*
X596997Y403998D01*
X602995D01*
X947960Y711201D02*
Y720198D01*
X952459D01*
X953958Y718699D01*
Y715700D01*
X952459Y714200D01*
X947960D01*
X956957Y718699D02*
X958457Y720198D01*
X961456D01*
X962955Y718699D01*
Y717199D01*
X961456Y715700D01*
X959956D01*
X961456D01*
X962955Y714200D01*
Y712701D01*
X961456Y711201D01*
X958457D01*
X956957Y712701D01*
X544000Y627000D02*
Y635997D01*
X548498D01*
X549998Y634498D01*
Y631498D01*
X548498Y629999D01*
X544000D01*
X558995Y627000D02*
X552997D01*
X558995Y632998D01*
Y634498D01*
X557496Y635997D01*
X554497D01*
X552997Y634498D01*
X642960Y441201D02*
Y450198D01*
X647459D01*
X648958Y448699D01*
Y445700D01*
X647459Y444200D01*
X642960D01*
X651957Y441201D02*
X654956D01*
X653457D01*
Y450198D01*
X651957Y448699D01*
X471208Y667498D02*
X476403Y664500D01*
X480499Y665597D01*
X479402Y669694D01*
X474207Y672693D01*
X475707Y675290D02*
X483499Y670792D01*
X485748Y674688D01*
X485199Y676736D01*
X480005Y679735D01*
X477956Y679186D01*
X475707Y675290D01*
X483204Y688276D02*
X483004Y684929D01*
X484101Y680833D01*
X486698Y679333D01*
X488747Y679882D01*
X490246Y682479D01*
X489697Y684528D01*
X488399Y685277D01*
X486351Y684728D01*
X484101Y680833D01*
X479792Y449498D02*
X474597Y446499D01*
X473499Y442403D01*
X477596Y441305D01*
X482791Y444304D01*
X484290Y441707D02*
X476498Y437208D01*
X478748Y433312D01*
X480796Y432764D01*
X485991Y435763D01*
X486539Y437811D01*
X484290Y441707D01*
X491788Y428721D02*
X488789Y433915D01*
X484893Y431666D01*
X487691Y429818D01*
X488441Y428520D01*
X487892Y426471D01*
X485295Y424972D01*
X483246Y425521D01*
X481747Y428118D01*
X482296Y430166D01*
X674370Y325227D02*
Y319229D01*
X677369Y316230D01*
X680368Y319229D01*
Y325227D01*
X683367D02*
Y316230D01*
X687866D01*
X689365Y317729D01*
Y323728D01*
X687866Y325227D01*
X683367D01*
X696863Y316230D02*
Y325227D01*
X692364Y320728D01*
X698362D01*
X887417Y690926D02*
X882222Y687927D01*
X881124Y683831D01*
X885221Y682733D01*
X890415Y685732D01*
X891915Y683135D02*
X884123Y678636D01*
X886373Y674740D01*
X888421Y674191D01*
X893615Y677190D01*
X894164Y679239D01*
X891915Y683135D01*
X891621Y665650D02*
X888622Y670844D01*
X896815Y668649D01*
X898114Y669399D01*
X898663Y671447D01*
X897163Y674044D01*
X895115Y674593D01*
X877208Y429498D02*
X882403Y426499D01*
X886499Y427597D01*
X885402Y431694D01*
X880207Y434693D01*
X881707Y437290D02*
X889499Y432792D01*
X891748Y436688D01*
X891199Y438736D01*
X886004Y441735D01*
X883956Y441186D01*
X881707Y437290D01*
X887504Y444332D02*
X886955Y446381D01*
X888455Y448978D01*
X890503Y449527D01*
X891802Y448777D01*
X892350Y446729D01*
X891601Y445430D01*
X892350Y446729D01*
X894399Y447277D01*
X895697Y446528D01*
X896246Y444479D01*
X894747Y441882D01*
X892699Y441333D01*
X675640Y800207D02*
Y794209D01*
X678639Y791210D01*
X681638Y794209D01*
Y800207D01*
X684637D02*
Y791210D01*
X689136D01*
X690635Y792710D01*
Y798708D01*
X689136Y800207D01*
X684637D01*
X693634Y791210D02*
X696633D01*
X695134D01*
Y800207D01*
X693634Y798708D01*
X936440Y337043D02*
X934319D01*
X932198Y334922D01*
Y332802D01*
X933259Y331741D01*
X935379D01*
X937500Y333862D01*
X939621D01*
X940681Y332802D01*
Y330681D01*
X938560Y328560D01*
X936440D01*
X937500Y340224D02*
X943862Y333862D01*
Y338103D01*
X948103D01*
X941741Y344465D01*
X950224Y340224D02*
X952345Y342345D01*
X951284Y341284D01*
X944922Y347646D01*
Y345525D01*
X858498Y329998D02*
X856999Y331497D01*
X853999D01*
X852500Y329998D01*
Y323999D01*
X853999Y322500D01*
X856999D01*
X858498Y323999D01*
X861497Y322500D02*
X864496D01*
X862997D01*
Y331497D01*
X861497Y329998D01*
X546998Y269498D02*
X545499Y270997D01*
X542500D01*
X541000Y269498D01*
Y263500D01*
X542500Y262000D01*
X545499D01*
X546998Y263500D01*
X555995Y262000D02*
X549997D01*
X555995Y267998D01*
Y269498D01*
X554496Y270997D01*
X551497D01*
X549997Y269498D01*
X338998Y464498D02*
X337499Y465997D01*
X334500D01*
X333000Y464498D01*
Y458499D01*
X334500Y457000D01*
X337499D01*
X338998Y458499D01*
X341997Y464498D02*
X343497Y465997D01*
X346496D01*
X347995Y464498D01*
Y462998D01*
X346496Y461498D01*
X344996D01*
X346496D01*
X347995Y459999D01*
Y458499D01*
X346496Y457000D01*
X343497D01*
X341997Y458499D01*
X436488Y631555D02*
X437988Y630056D01*
X440987D01*
X442486Y631555D01*
Y637553D01*
X440987Y639053D01*
X437988D01*
X436488Y637553D01*
X428991Y639053D02*
Y630056D01*
X433489Y634554D01*
X427491D01*
X428998Y461498D02*
X427499Y462997D01*
X424500D01*
X423000Y461498D01*
Y455499D01*
X424500Y454000D01*
X427499D01*
X428998Y455499D01*
X437995Y462997D02*
X431997D01*
Y458498D01*
X434996Y459998D01*
X436496D01*
X437995Y458498D01*
Y455499D01*
X436496Y454000D01*
X433497D01*
X431997Y455499D01*
X335000Y503997D02*
Y495000D01*
X339498D01*
X340998Y496499D01*
Y502498D01*
X339498Y503997D01*
X335000D01*
X343997Y495000D02*
Y500998D01*
X346996Y503997D01*
X349995Y500998D01*
Y495000D01*
Y499498D01*
X343997D01*
X352994Y495000D02*
X355993D01*
X354494D01*
Y503997D01*
X352994Y502498D01*
X595000Y336497D02*
Y327500D01*
X599498D01*
X600998Y328999D01*
Y334998D01*
X599498Y336497D01*
X595000D01*
X603997D02*
Y327500D01*
X608496D01*
X609995Y328999D01*
Y334998D01*
X608496Y336497D01*
X603997D01*
X612994Y327500D02*
X615993D01*
X614494D01*
Y336497D01*
X612994Y334998D01*
X952900Y805825D02*
Y814822D01*
X957399D01*
X958898Y813322D01*
Y810323D01*
X957399Y808824D01*
X952900D01*
X955899D02*
X958898Y805825D01*
X961897D02*
X964896D01*
X963397D01*
Y814822D01*
X961897Y813322D01*
X1010000Y455000D02*
Y463997D01*
X1014499D01*
X1015998Y462498D01*
Y459498D01*
X1014499Y457999D01*
X1010000D01*
X1012999D02*
X1015998Y455000D01*
X1024995D02*
X1018997D01*
X1024995Y460998D01*
Y462498D01*
X1023496Y463997D01*
X1020497D01*
X1018997Y462498D01*
X964040Y489040D02*
Y498037D01*
X968538D01*
X970038Y496537D01*
Y493538D01*
X968538Y492039D01*
X964040D01*
X967039D02*
X970038Y489040D01*
X973037Y496537D02*
X974537Y498037D01*
X977535D01*
X979035Y496537D01*
Y495038D01*
X977535Y493538D01*
X976036D01*
X977535D01*
X979035Y492039D01*
Y490539D01*
X977535Y489040D01*
X974537D01*
X973037Y490539D01*
X751000Y771000D02*
Y779997D01*
X755499D01*
X756998Y778498D01*
Y775499D01*
X755499Y773999D01*
X751000D01*
X753999D02*
X756998Y771000D01*
X764496D02*
Y779997D01*
X759997Y775499D01*
X765995D01*
X799000Y671000D02*
Y679997D01*
X803499D01*
X804998Y678498D01*
Y675499D01*
X803499Y673999D01*
X799000D01*
X801999D02*
X804998Y671000D01*
X813995Y679997D02*
X807997D01*
Y675499D01*
X810996Y676998D01*
X812496D01*
X813995Y675499D01*
Y672499D01*
X812496Y671000D01*
X809497D01*
X807997Y672499D01*
X800000Y480000D02*
Y488997D01*
X804499D01*
X805998Y487498D01*
Y484498D01*
X804499Y482999D01*
X800000D01*
X802999D02*
X805998Y480000D01*
X814995Y488997D02*
X811996Y487498D01*
X808997Y484498D01*
Y481499D01*
X810497Y480000D01*
X813496D01*
X814995Y481499D01*
Y482999D01*
X813496Y484498D01*
X808997D01*
X765000Y439000D02*
Y447997D01*
X769499D01*
X770998Y446498D01*
Y443499D01*
X769499Y441999D01*
X765000D01*
X767999D02*
X770998Y439000D01*
X773997Y447997D02*
X779995D01*
Y446498D01*
X773997Y440499D01*
Y439000D01*
X864040Y354040D02*
Y363037D01*
X868538D01*
X870038Y361537D01*
Y358538D01*
X868538Y357039D01*
X864040D01*
X867039D02*
X870038Y354040D01*
X873037Y361537D02*
X874537Y363037D01*
X877535D01*
X879035Y361537D01*
Y360038D01*
X877535Y358538D01*
X879035Y357039D01*
Y355539D01*
X877535Y354040D01*
X874537D01*
X873037Y355539D01*
Y357039D01*
X874537Y358538D01*
X873037Y360038D01*
Y361537D01*
X874537Y358538D02*
X877535D01*
X1065000Y614500D02*
X1056003D01*
Y618998D01*
X1057502Y620498D01*
X1060501D01*
X1062001Y618998D01*
Y614500D01*
Y617499D02*
X1065000Y620498D01*
X1063501Y623497D02*
X1065000Y624997D01*
Y627996D01*
X1063501Y629495D01*
X1057502D01*
X1056003Y627996D01*
Y624997D01*
X1057502Y623497D01*
X1059002D01*
X1060501Y624997D01*
Y629495D01*
X640000Y407500D02*
Y416497D01*
X644499D01*
X645998Y414998D01*
Y411998D01*
X644499Y410499D01*
X640000D01*
X642999D02*
X645998Y407500D01*
X648997D02*
X651996D01*
X650497D01*
Y416497D01*
X648997Y414998D01*
X656495D02*
X657994Y416497D01*
X660993D01*
X662493Y414998D01*
Y408999D01*
X660993Y407500D01*
X657994D01*
X656495Y408999D01*
Y414998D01*
X556000Y480000D02*
Y488997D01*
X560499D01*
X561998Y487498D01*
Y484498D01*
X560499Y482999D01*
X556000D01*
X558999D02*
X561998Y480000D01*
X564997D02*
X567996D01*
X566497D01*
Y488997D01*
X564997Y487498D01*
X572495Y480000D02*
X575494D01*
X573994D01*
Y488997D01*
X572495Y487498D01*
X572000Y702000D02*
Y710997D01*
X576498D01*
X577998Y709498D01*
Y706498D01*
X576498Y704999D01*
X572000D01*
X574999D02*
X577998Y702000D01*
X580997D02*
X583996D01*
X582497D01*
Y710997D01*
X580997Y709498D01*
X594493Y702000D02*
X588495D01*
X594493Y707998D01*
Y709498D01*
X592993Y710997D01*
X589994D01*
X588495Y709498D01*
X1035000Y525000D02*
X1026003D01*
Y529498D01*
X1027502Y530998D01*
X1030501D01*
X1032001Y529498D01*
Y525000D01*
Y527999D02*
X1035000Y530998D01*
Y533997D02*
Y536996D01*
Y535497D01*
X1026003D01*
X1027502Y533997D01*
Y541495D02*
X1026003Y542994D01*
Y545993D01*
X1027502Y547493D01*
X1029002D01*
X1030501Y545993D01*
Y544494D01*
Y545993D01*
X1032001Y547493D01*
X1033501D01*
X1035000Y545993D01*
Y542994D01*
X1033501Y541495D01*
X432500Y760000D02*
X423503D01*
Y764499D01*
X425002Y765998D01*
X428002D01*
X429501Y764499D01*
Y760000D01*
Y762999D02*
X432500Y765998D01*
Y768997D02*
Y771996D01*
Y770497D01*
X423503D01*
X425002Y768997D01*
X432500Y780993D02*
X423503D01*
X428002Y776495D01*
Y782493D01*
X432500Y535000D02*
X423503D01*
Y539498D01*
X425002Y540998D01*
X428002D01*
X429501Y539498D01*
Y535000D01*
Y537999D02*
X432500Y540998D01*
Y543997D02*
Y546996D01*
Y545497D01*
X423503D01*
X425002Y543997D01*
X423503Y557493D02*
Y551495D01*
X428002D01*
X426502Y554494D01*
Y555993D01*
X428002Y557493D01*
X431001D01*
X432500Y555993D01*
Y552994D01*
X431001Y551495D01*
X445000Y590000D02*
Y598997D01*
X449498D01*
X450998Y597498D01*
Y594498D01*
X449498Y592999D01*
X445000D01*
X447999D02*
X450998Y590000D01*
X453997D02*
X456996D01*
X455497D01*
Y598997D01*
X453997Y597498D01*
X467493Y598997D02*
X464494Y597498D01*
X461495Y594498D01*
Y591499D01*
X462994Y590000D01*
X465993D01*
X467493Y591499D01*
Y592999D01*
X465993Y594498D01*
X461495D01*
X445000Y620000D02*
Y628997D01*
X449498D01*
X450998Y627498D01*
Y624498D01*
X449498Y622999D01*
X445000D01*
X447999D02*
X450998Y620000D01*
X453997D02*
X456996D01*
X455497D01*
Y628997D01*
X453997Y627498D01*
X461495Y628997D02*
X467493D01*
Y627498D01*
X461495Y621499D01*
Y620000D01*
X370000Y303997D02*
Y297999D01*
X372999Y295000D01*
X375998Y297999D01*
Y303997D01*
X378997D02*
Y295000D01*
X383496D01*
X384995Y296500D01*
Y302498D01*
X383496Y303997D01*
X378997D01*
X387994D02*
X393992D01*
Y302498D01*
X387994Y296500D01*
Y295000D01*
X376003Y577500D02*
X382001D01*
X385000Y580499D01*
X382001Y583498D01*
X376003D01*
Y586497D02*
X385000D01*
Y590996D01*
X383501Y592495D01*
X377502D01*
X376003Y590996D01*
Y586497D01*
X377502Y595494D02*
X376003Y596994D01*
Y599993D01*
X377502Y601492D01*
X379002D01*
X380501Y599993D01*
X382001Y601492D01*
X383501D01*
X385000Y599993D01*
Y596994D01*
X383501Y595494D01*
X382001D01*
X380501Y596994D01*
X379002Y595494D01*
X377502D01*
X380501Y596994D02*
Y599993D01*
X878000Y821997D02*
Y815999D01*
X880999Y813000D01*
X883998Y815999D01*
Y821997D01*
X886997D02*
X892995D01*
X889996D01*
Y813000D01*
X895994D02*
X898993D01*
X897494D01*
Y821997D01*
X895994Y820498D01*
X760000Y311497D02*
Y305499D01*
X762999Y302500D01*
X765998Y305499D01*
Y311497D01*
X768997D02*
X774995D01*
X771996D01*
Y302500D01*
X783992D02*
X777994D01*
X783992Y308498D01*
Y309998D01*
X782493Y311497D01*
X779494D01*
X777994Y309998D01*
X928956Y674197D02*
Y668199D01*
X931955Y665200D01*
X934954Y668199D01*
Y674197D01*
X937953D02*
X943951D01*
X940952D01*
Y665200D01*
X946950Y672698D02*
X948450Y674197D01*
X951449D01*
X952948Y672698D01*
Y671198D01*
X951449Y669699D01*
X949949D01*
X951449D01*
X952948Y668199D01*
Y666700D01*
X951449Y665200D01*
X948450D01*
X946950Y666700D01*
X901417Y586607D02*
Y580609D01*
X904416Y577610D01*
X907415Y580609D01*
Y586607D01*
X910414D02*
X916412D01*
X913413D01*
Y577610D01*
X923910D02*
Y586607D01*
X919411Y582108D01*
X925409D01*
X567500Y776497D02*
Y770499D01*
X570499Y767500D01*
X573498Y770499D01*
Y776497D01*
X576497D02*
X582495D01*
X579496D01*
Y767500D01*
X591492Y776497D02*
X585494D01*
Y771999D01*
X588493Y773498D01*
X589993D01*
X591492Y771999D01*
Y768999D01*
X589993Y767500D01*
X586994D01*
X585494Y768999D01*
X462000Y529000D02*
Y537997D01*
X466498D01*
X467998Y536498D01*
Y533499D01*
X466498Y531999D01*
X462000D01*
X476995Y537997D02*
X473996Y536498D01*
X470997Y533499D01*
Y530499D01*
X472497Y529000D01*
X475496D01*
X476995Y530499D01*
Y531999D01*
X475496Y533499D01*
X470997D01*
X335000Y631497D02*
Y622500D01*
X340998D01*
X343997D02*
X346996D01*
X345497D01*
Y631497D01*
X343997Y629998D01*
X638800Y753048D02*
X644798D01*
X719800Y754048D02*
X725798D01*
X722799Y757048D02*
Y751049D01*
X874271Y497638D02*
X871272Y492443D01*
X834637Y426990D02*
X831638Y421795D01*
X835735Y422893D02*
X830540Y425892D01*
X828271Y696136D02*
X831270Y690942D01*
X869637Y626488D02*
X872636Y621294D01*
X873734Y625391D02*
X868539Y622392D01*
X730800Y364801D02*
X724802D01*
X649800Y363801D02*
X643802D01*
X646801Y360802D02*
Y366800D01*
X542519Y418184D02*
X539520Y423378D01*
X501153Y487832D02*
X498154Y493026D01*
X497056Y488929D02*
X502251Y491928D01*
X496519Y615932D02*
X499518Y621127D01*
X536153Y686580D02*
X539152Y691775D01*
X535055Y690677D02*
X540250Y687678D01*
X370143Y442357D02*
X377325Y449539D01*
X370143Y449539D02*
X377325Y442357D01*
X374600Y724439D02*
X381782Y731621D01*
X374600Y731621D02*
X381782Y724439D01*
X507043Y391060D02*
Y393181D01*
X504922Y395302D01*
X502802D01*
X501741Y394241D01*
Y392121D01*
X503862Y390000D01*
Y387879D01*
X502802Y386819D01*
X500681D01*
X498560Y388940D01*
Y391060D01*
X510224Y390000D02*
X503862Y383638D01*
X508103D01*
Y379397D01*
X514465Y385759D01*
X519767Y378336D02*
Y380457D01*
X517646Y382578D01*
X515525D01*
X511284Y378336D01*
Y376216D01*
X513405Y374095D01*
X515525D01*
X522948Y377276D02*
X516586Y370914D01*
X520827Y366673D01*
X529310Y370914D02*
X522948Y364552D01*
X525068Y366673D01*
X533551D01*
X527189D01*
Y360311D01*
X833940Y368078D02*
X831819D01*
X829698Y365958D01*
Y363837D01*
X830759Y362777D01*
X832879D01*
X835000Y364897D01*
X837121D01*
X838181Y363837D01*
Y361716D01*
X836060Y359596D01*
X833940D01*
X835000Y371259D02*
X841362Y364897D01*
Y369139D01*
X845603D01*
X839241Y375501D01*
X841362Y377621D02*
X847724Y371259D01*
X850905Y374440D01*
Y376561D01*
X846664Y380802D01*
X844543D01*
X841362Y377621D01*
X847724Y383983D02*
X849845Y386104D01*
X848784Y385043D01*
X855146Y378681D01*
X854086Y377621D01*
X856206Y379742D01*
Y392466D02*
X854086Y390345D01*
Y388224D01*
X858327Y383983D01*
X860448D01*
X862568Y386104D01*
Y388224D01*
X858327Y392466D01*
X856206D01*
X398502Y747000D02*
X397003Y748500D01*
Y751498D01*
X398502Y752998D01*
X400002D01*
X401502Y751498D01*
Y749999D01*
Y751498D01*
X403001Y752998D01*
X404501D01*
X406000Y751498D01*
Y748500D01*
X404501Y747000D01*
X406000Y755997D02*
X404501D01*
Y757497D01*
X406000D01*
Y755997D01*
X398502Y763495D02*
X397003Y764994D01*
Y767993D01*
X398502Y769493D01*
X400002D01*
X401502Y767993D01*
Y766494D01*
Y767993D01*
X403001Y769493D01*
X404501D01*
X406000Y767993D01*
Y764994D01*
X404501Y763495D01*
X397003Y772492D02*
X403001D01*
X406000Y775491D01*
X403001Y778490D01*
X397003D01*
X495998Y357498D02*
X494499Y358997D01*
X491499D01*
X490000Y357498D01*
Y351499D01*
X491499Y350000D01*
X494499D01*
X495998Y351499D01*
Y354499D01*
X492999D01*
X498997Y350000D02*
Y358997D01*
X504995Y350000D01*
Y358997D01*
X507994D02*
Y350000D01*
X512493D01*
X513992Y351499D01*
Y357498D01*
X512493Y358997D01*
X507994D01*
X990000Y382500D02*
Y388498D01*
X992999Y391497D01*
X995998Y388498D01*
Y382500D01*
Y386998D01*
X990000D01*
X998997Y391497D02*
Y382500D01*
X1003496D01*
X1004995Y383999D01*
Y389998D01*
X1003496Y391497D01*
X998997D01*
X1013992Y389998D02*
X1012493Y391497D01*
X1009494D01*
X1007994Y389998D01*
Y383999D01*
X1009494Y382500D01*
X1012493D01*
X1013992Y383999D01*
D43*
X604500Y310000D02*
G03*
X604500Y310000I-3000J0D01*
G01*
X342000Y550000D02*
G03*
X342000Y550000I-3000J0D01*
G01*
D44*
X580250Y322550D02*
G03*
X580250Y322550I-1250J0D01*
G01*
X317750Y562550D02*
G03*
X317750Y562550I-1250J0D01*
G01*
X371750Y573750D02*
G03*
X371750Y573750I-1250J0D01*
G01*
X376326Y316943D02*
G03*
X376326Y316943I-1250J0D01*
G01*
D45*
X859612Y533204D02*
X863204Y529612D01*
X866796Y540388D02*
X870388Y536796D01*
X587920Y372540D02*
X587920Y367460D01*
X598080D02*
X598080Y372540D01*
X925756Y684572D02*
X929348Y688164D01*
X918572Y691756D02*
X922164Y695348D01*
X548210Y604670D02*
X553290D01*
X548210Y614830D02*
X553290D01*
X607612Y446037D02*
X611204Y449629D01*
X614796Y438853D02*
X618388Y442445D01*
X467460Y521080D02*
X472540D01*
X467460Y510920D02*
X472540Y510920D01*
D46*
X817355Y471429D02*
X823355Y481821D01*
X831645Y463179D02*
X837645Y473571D01*
X532355D02*
X538355Y463179D01*
X546645Y481821D02*
X552645Y471429D01*
X644000Y398250D02*
X656000D01*
X644000Y381750D02*
X656000D01*
X815105Y642648D02*
X821105Y632256D01*
X829395Y650898D02*
X835395Y640505D01*
X591500Y270000D02*
X623500D01*
X591500Y320000D02*
X623500D01*
Y270000D02*
Y320000D01*
X591500Y270000D02*
Y320000D01*
X889924Y386591D02*
X898409Y395076D01*
X901591Y374924D02*
X910076Y383409D01*
X970750Y766500D02*
Y778500D01*
X954250Y766500D02*
Y778500D01*
X329000Y510000D02*
X361000Y510000D01*
X329000Y560000D02*
X361000Y560000D01*
X361000Y510000D02*
X361000Y560000D01*
X329000Y560000D02*
X329000Y510000D01*
X375578Y393839D02*
X415529Y353887D01*
X429672Y368029D01*
X449471Y387828D02*
X463613Y401970D01*
X423661Y441922D02*
X463613Y401970D01*
X375578Y410102D02*
X381588Y416113D01*
X375578Y393839D02*
Y410102D01*
X407398Y441922D02*
X423661D01*
X401387Y435912D02*
X407398Y441922D01*
X380035Y680921D02*
X419986Y640969D01*
X434128Y655111D01*
X453927Y674911D02*
X468070Y689053D01*
X428118Y729004D02*
X468070Y689053D01*
X380035Y697184D02*
X386045Y703195D01*
X380035Y697184D02*
X380035Y680921D01*
X411855Y729004D02*
X428118D01*
X405844Y722994D02*
X411855Y729004D01*
X557750Y297000D02*
X557750Y306000D01*
X540250Y297000D02*
Y306000D01*
X751500Y763250D02*
X763500Y763250D01*
X751500Y746750D02*
X763500Y746750D01*
X564145Y665679D02*
X570145Y676071D01*
X549855Y673929D02*
X555855Y684321D01*
X886005Y303369D02*
X892369Y297005D01*
X873631Y290995D02*
X879995Y284631D01*
X943964Y455631D02*
X952449Y464116D01*
X955631Y443964D02*
X964116Y452449D01*
X986750Y449000D02*
Y461000D01*
X1003250Y449000D02*
Y461000D01*
X1043250Y626000D02*
X1043250Y614000D01*
X1026750D02*
Y626000D01*
X764000Y433250D02*
X776000D01*
X764000Y416750D02*
X776000D01*
X1013250Y529000D02*
Y541000D01*
X996750D02*
X996750Y529000D01*
X335500Y488750D02*
X344500D01*
X335500Y471250D02*
X344500D01*
X317000Y570500D02*
X363000D01*
X317000Y609500D02*
X363000D01*
Y570500D02*
Y575250D01*
X317000Y570500D02*
Y575250D01*
X363000Y604750D02*
Y609500D01*
X317000Y604750D02*
Y609500D01*
X334948Y352475D02*
X367475Y319948D01*
X362525Y380052D02*
X395052Y347525D01*
X367475Y319948D02*
X370834Y323307D01*
X334948Y352475D02*
X338307Y355834D01*
X391693Y344166D02*
X395052Y347525D01*
X359166Y376693D02*
X362525Y380052D01*
X401750Y538500D02*
Y550500D01*
X418250Y538500D02*
Y550500D01*
X409000Y633250D02*
X421000D01*
X409000Y616750D02*
X421000D01*
X409000Y586750D02*
X421000D01*
X409000Y603250D02*
X421000D01*
X439250Y766500D02*
X439250Y778500D01*
X455750Y766500D02*
Y778500D01*
M02*
