G04 Layer_Physical_Order=2*
G04 Layer_Color=16711680*
%FSLAX44Y44*%
%MOMM*%
G71*
G01*
G75*
%ADD10C,1.0000*%
%ADD11C,1.0000*%
%ADD12R,1.1500X1.8500*%
%ADD15R,1.5500X1.8500*%
%ADD16R,1.3500X1.9500*%
%ADD17R,1.8500X1.1500*%
%ADD18R,0.7500X1.1500*%
%ADD19R,1.1500X0.7500*%
%ADD20R,2.1500X2.1000*%
%ADD21R,4.0000X2.0000*%
%ADD24C,1.5000*%
%ADD26C,0.6000*%
%ADD29C,0.5000*%
%ADD30C,2.0000*%
%ADD31C,2.5000*%
%ADD32C,1.2700*%
%ADD33R,1.8500X1.5500*%
%ADD34R,0.8000X1.6000*%
%ADD35R,0.8300X1.6000*%
%ADD36R,1.0000X0.8500*%
%ADD37O,3.0000X6.0000*%
%ADD38R,1.9500X1.3500*%
%ADD39O,1.7000X0.6000*%
%ADD40R,2.2000X4.1500*%
G04:AMPARAMS|DCode=41|XSize=1.85mm|YSize=1.15mm|CornerRadius=0mm|HoleSize=0mm|Usage=FLASHONLY|Rotation=60.000|XOffset=0mm|YOffset=0mm|HoleType=Round|Shape=Rectangle|*
%AMROTATEDRECTD41*
4,1,4,0.0355,-1.0886,-0.9605,-0.5136,-0.0355,1.0886,0.9605,0.5136,0.0355,-1.0886,0.0*
%
%ADD41ROTATEDRECTD41*%

G04:AMPARAMS|DCode=42|XSize=1.85mm|YSize=1.15mm|CornerRadius=0mm|HoleSize=0mm|Usage=FLASHONLY|Rotation=300.000|XOffset=0mm|YOffset=0mm|HoleType=Round|Shape=Rectangle|*
%AMROTATEDRECTD42*
4,1,4,-0.9605,0.5136,0.0355,1.0886,0.9605,-0.5136,-0.0355,-1.0886,-0.9605,0.5136,0.0*
%
%ADD42ROTATEDRECTD42*%

%ADD43O,0.6000X1.7000*%
%ADD44R,4.1500X2.2000*%
%ADD45R,2.1000X2.1500*%
G04:AMPARAMS|DCode=46|XSize=2.5mm|YSize=2.5mm|CornerRadius=0.625mm|HoleSize=0mm|Usage=FLASHONLY|Rotation=0.000|XOffset=0mm|YOffset=0mm|HoleType=Round|Shape=RoundedRectangle|*
%AMROUNDEDRECTD46*
21,1,2.5000,1.2500,0,0,0.0*
21,1,1.2500,2.5000,0,0,0.0*
1,1,1.2500,0.6250,-0.6250*
1,1,1.2500,-0.6250,-0.6250*
1,1,1.2500,-0.6250,0.6250*
1,1,1.2500,0.6250,0.6250*
%
%ADD46ROUNDEDRECTD46*%
G04:AMPARAMS|DCode=47|XSize=2.5mm|YSize=2.5mm|CornerRadius=0.625mm|HoleSize=0mm|Usage=FLASHONLY|Rotation=60.000|XOffset=0mm|YOffset=0mm|HoleType=Round|Shape=RoundedRectangle|*
%AMROUNDEDRECTD47*
21,1,2.5000,1.2500,0,0,60.0*
21,1,1.2500,2.5000,0,0,60.0*
1,1,1.2500,0.8538,0.2288*
1,1,1.2500,0.2288,-0.8538*
1,1,1.2500,-0.8538,-0.2288*
1,1,1.2500,-0.2288,0.8538*
%
%ADD47ROUNDEDRECTD47*%
G04:AMPARAMS|DCode=48|XSize=2.5mm|YSize=2.5mm|CornerRadius=0.625mm|HoleSize=0mm|Usage=FLASHONLY|Rotation=120.000|XOffset=0mm|YOffset=0mm|HoleType=Round|Shape=RoundedRectangle|*
%AMROUNDEDRECTD48*
21,1,2.5000,1.2500,0,0,120.0*
21,1,1.2500,2.5000,0,0,120.0*
1,1,1.2500,0.2288,0.8538*
1,1,1.2500,0.8538,-0.2288*
1,1,1.2500,-0.2288,-0.8538*
1,1,1.2500,-0.8538,0.2288*
%
%ADD48ROUNDEDRECTD48*%
G04:AMPARAMS|DCode=49|XSize=2.5mm|YSize=1.8mm|CornerRadius=0.45mm|HoleSize=0mm|Usage=FLASHONLY|Rotation=60.000|XOffset=0mm|YOffset=0mm|HoleType=Round|Shape=RoundedRectangle|*
%AMROUNDEDRECTD49*
21,1,2.5000,0.9000,0,0,60.0*
21,1,1.6000,1.8000,0,0,60.0*
1,1,0.9000,0.7897,0.4678*
1,1,0.9000,-0.0103,-0.9178*
1,1,0.9000,-0.7897,-0.4678*
1,1,0.9000,0.0103,0.9178*
%
%ADD49ROUNDEDRECTD49*%
G04:AMPARAMS|DCode=50|XSize=2.5mm|YSize=1.8mm|CornerRadius=0.45mm|HoleSize=0mm|Usage=FLASHONLY|Rotation=0.000|XOffset=0mm|YOffset=0mm|HoleType=Round|Shape=RoundedRectangle|*
%AMROUNDEDRECTD50*
21,1,2.5000,0.9000,0,0,0.0*
21,1,1.6000,1.8000,0,0,0.0*
1,1,0.9000,0.8000,-0.4500*
1,1,0.9000,-0.8000,-0.4500*
1,1,0.9000,-0.8000,0.4500*
1,1,0.9000,0.8000,0.4500*
%
%ADD50ROUNDEDRECTD50*%
G04:AMPARAMS|DCode=51|XSize=2.5mm|YSize=1.8mm|CornerRadius=0.45mm|HoleSize=0mm|Usage=FLASHONLY|Rotation=300.000|XOffset=0mm|YOffset=0mm|HoleType=Round|Shape=RoundedRectangle|*
%AMROUNDEDRECTD51*
21,1,2.5000,0.9000,0,0,300.0*
21,1,1.6000,1.8000,0,0,300.0*
1,1,0.9000,0.0103,-0.9178*
1,1,0.9000,-0.7897,0.4678*
1,1,0.9000,-0.0103,0.9178*
1,1,0.9000,0.7897,-0.4678*
%
%ADD51ROUNDEDRECTD51*%
G04:AMPARAMS|DCode=52|XSize=4.5mm|YSize=13mm|CornerRadius=1.125mm|HoleSize=0mm|Usage=FLASHONLY|Rotation=45.000|XOffset=0mm|YOffset=0mm|HoleType=Round|Shape=RoundedRectangle|*
%AMROUNDEDRECTD52*
21,1,4.5000,10.7500,0,0,45.0*
21,1,2.2500,13.0000,0,0,45.0*
1,1,2.2500,4.5962,-3.0052*
1,1,2.2500,3.0052,-4.5962*
1,1,2.2500,-4.5962,3.0052*
1,1,2.2500,-3.0052,4.5962*
%
%ADD52ROUNDEDRECTD52*%
%ADD53C,0.4000*%
G36*
X390922Y166311D02*
Y-195811D01*
X260811Y-325922D01*
X-260811D01*
X-390922Y-195811D01*
Y165811D01*
X-245811Y310922D01*
X83311D01*
X92116Y302116D01*
X92116Y302116D01*
X92335Y301970D01*
X91780Y300884D01*
X91000Y301039D01*
X87500D01*
Y296250D01*
X93039D01*
Y299000D01*
X92884Y299780D01*
X92442Y300442D01*
X93233Y301370D01*
X93439Y301232D01*
X95000Y300922D01*
X180000D01*
X180000Y300922D01*
X180405Y301002D01*
X181169Y299859D01*
X181116Y299780D01*
X180961Y299000D01*
Y296250D01*
X186500D01*
Y301039D01*
X183558D01*
X183241Y301546D01*
X183077Y302309D01*
X191689Y310922D01*
X246311D01*
X390922Y166311D01*
D02*
G37*
%LPC*%
G36*
X284250Y171539D02*
X276500D01*
X275720Y171384D01*
X275058Y170942D01*
X274616Y170280D01*
X274461Y169500D01*
Y163250D01*
X284250D01*
Y171539D01*
D02*
G37*
G36*
X360000Y159639D02*
X359851Y159609D01*
X359700Y159624D01*
X356466Y159305D01*
X356177Y159218D01*
X355877Y159188D01*
X352767Y158245D01*
X352502Y158103D01*
X352213Y158015D01*
X349347Y156483D01*
X349114Y156292D01*
X348848Y156150D01*
X346336Y154088D01*
X346145Y153855D01*
X345912Y153664D01*
X343850Y151152D01*
X343708Y150886D01*
X343517Y150653D01*
X341985Y147787D01*
X341897Y147498D01*
X341755Y147233D01*
X340812Y144122D01*
X340782Y143823D01*
X340695Y143534D01*
X340376Y140300D01*
X340406Y140000D01*
X340376Y139700D01*
X340695Y136466D01*
X340782Y136177D01*
X340812Y135878D01*
X341755Y132767D01*
X341897Y132502D01*
X341985Y132213D01*
X343517Y129347D01*
X343708Y129114D01*
X343850Y128848D01*
X345912Y126336D01*
X346145Y126145D01*
X346336Y125912D01*
X348848Y123850D01*
X349114Y123708D01*
X349347Y123517D01*
X352213Y121985D01*
X352502Y121897D01*
X352767Y121755D01*
X355877Y120812D01*
X356177Y120782D01*
X356466Y120695D01*
X359700Y120376D01*
X359851Y120391D01*
X360000Y120361D01*
X360149Y120391D01*
X360300Y120376D01*
X363534Y120695D01*
X363823Y120782D01*
X364123Y120812D01*
X367233Y121755D01*
X367498Y121897D01*
X367787Y121985D01*
X370653Y123517D01*
X370886Y123708D01*
X371152Y123850D01*
X373664Y125912D01*
X373855Y126145D01*
X374088Y126336D01*
X376150Y128848D01*
X376292Y129114D01*
X376483Y129347D01*
X378015Y132213D01*
X378103Y132502D01*
X378245Y132767D01*
X379188Y135878D01*
X379218Y136177D01*
X379305Y136466D01*
X379624Y139700D01*
X379594Y140000D01*
X379624Y140300D01*
X379305Y143534D01*
X379218Y143823D01*
X379188Y144122D01*
X378245Y147233D01*
X378103Y147498D01*
X378015Y147787D01*
X376483Y150653D01*
X376292Y150886D01*
X376150Y151152D01*
X374088Y153664D01*
X373855Y153855D01*
X373664Y154088D01*
X371152Y156150D01*
X370886Y156292D01*
X370653Y156483D01*
X367787Y158015D01*
X367498Y158103D01*
X367233Y158245D01*
X364123Y159188D01*
X363823Y159218D01*
X363534Y159305D01*
X360300Y159624D01*
X360149Y159609D01*
X360000Y159639D01*
D02*
G37*
G36*
X295000Y171539D02*
X287250D01*
Y163250D01*
X297039D01*
Y169500D01*
X296884Y170280D01*
X296442Y170942D01*
X295780Y171384D01*
X295000Y171539D01*
D02*
G37*
G36*
X-266000Y212750D02*
X-277539D01*
Y193500D01*
X-277384Y192720D01*
X-276942Y192058D01*
X-276280Y191616D01*
X-275500Y191461D01*
X-266000D01*
Y212750D01*
D02*
G37*
G36*
X-115500Y-142431D02*
X-117588Y-142706D01*
X-119535Y-143512D01*
X-121206Y-144794D01*
X-122488Y-146466D01*
X-123294Y-148412D01*
X-123569Y-150500D01*
X-123294Y-152588D01*
X-122488Y-154535D01*
X-121661Y-155612D01*
X-121636Y-155984D01*
X-134326Y-168674D01*
X-135652Y-170659D01*
X-136117Y-173000D01*
Y-192522D01*
X-136154Y-192878D01*
X-136988Y-193965D01*
X-137794Y-195912D01*
X-138069Y-198000D01*
X-137794Y-200088D01*
X-136988Y-202034D01*
X-135706Y-203706D01*
X-134035Y-204988D01*
X-132088Y-205794D01*
X-130000Y-206069D01*
X-127912Y-205794D01*
X-125965Y-204988D01*
X-124294Y-203706D01*
X-123012Y-202034D01*
X-122206Y-200088D01*
X-121931Y-198000D01*
X-122206Y-195912D01*
X-123012Y-193965D01*
X-123839Y-192888D01*
X-123883Y-192250D01*
Y-175534D01*
X-111174Y-162826D01*
X-109848Y-160841D01*
X-109382Y-158500D01*
Y-155978D01*
X-109346Y-155622D01*
X-108512Y-154535D01*
X-107706Y-152588D01*
X-107431Y-150500D01*
X-107706Y-148412D01*
X-108512Y-146466D01*
X-109794Y-144794D01*
X-111466Y-143512D01*
X-113412Y-142706D01*
X-115500Y-142431D01*
D02*
G37*
G36*
X-362500Y-183711D02*
X-366750D01*
X-367530Y-183866D01*
X-368192Y-184308D01*
X-368634Y-184970D01*
X-368789Y-185750D01*
Y-193500D01*
X-362500D01*
Y-183711D01*
D02*
G37*
G36*
X-355250D02*
X-359500D01*
Y-193500D01*
X-353211D01*
Y-185750D01*
X-353366Y-184970D01*
X-353808Y-184308D01*
X-354470Y-183866D01*
X-355250Y-183711D01*
D02*
G37*
G36*
X284250Y160250D02*
X274461D01*
Y154000D01*
X274616Y153220D01*
X275058Y152558D01*
X275720Y152116D01*
X276500Y151961D01*
X284250D01*
Y160250D01*
D02*
G37*
G36*
X-360000Y159639D02*
X-360149Y159609D01*
X-360300Y159624D01*
X-363534Y159305D01*
X-363823Y159218D01*
X-364123Y159188D01*
X-367233Y158245D01*
X-367498Y158103D01*
X-367787Y158015D01*
X-370653Y156483D01*
X-370886Y156292D01*
X-371152Y156150D01*
X-373664Y154088D01*
X-373855Y153855D01*
X-374088Y153664D01*
X-376150Y151152D01*
X-376292Y150886D01*
X-376483Y150653D01*
X-378015Y147787D01*
X-378103Y147498D01*
X-378245Y147233D01*
X-379188Y144122D01*
X-379218Y143823D01*
X-379305Y143534D01*
X-379624Y140300D01*
X-379594Y140000D01*
X-379624Y139700D01*
X-379305Y136466D01*
X-379218Y136177D01*
X-379188Y135878D01*
X-378245Y132767D01*
X-378103Y132502D01*
X-378015Y132213D01*
X-376483Y129347D01*
X-376292Y129114D01*
X-376150Y128848D01*
X-374088Y126336D01*
X-373855Y126145D01*
X-373664Y125912D01*
X-371152Y123850D01*
X-370886Y123708D01*
X-370653Y123517D01*
X-367787Y121985D01*
X-367498Y121897D01*
X-367233Y121755D01*
X-364123Y120812D01*
X-363823Y120782D01*
X-363534Y120695D01*
X-360300Y120376D01*
X-360149Y120391D01*
X-360000Y120361D01*
X-359851Y120391D01*
X-359700Y120376D01*
X-356466Y120695D01*
X-356177Y120782D01*
X-355877Y120812D01*
X-352767Y121755D01*
X-352502Y121897D01*
X-352213Y121985D01*
X-349347Y123517D01*
X-349114Y123708D01*
X-348848Y123850D01*
X-346336Y125912D01*
X-346145Y126145D01*
X-345912Y126336D01*
X-343850Y128848D01*
X-343708Y129114D01*
X-343517Y129347D01*
X-341985Y132213D01*
X-341897Y132502D01*
X-341755Y132767D01*
X-340812Y135878D01*
X-340782Y136177D01*
X-340695Y136466D01*
X-340376Y139700D01*
X-340406Y140000D01*
X-340376Y140300D01*
X-340695Y143534D01*
X-340782Y143823D01*
X-340812Y144122D01*
X-341755Y147233D01*
X-341897Y147498D01*
X-341985Y147787D01*
X-343517Y150653D01*
X-343708Y150886D01*
X-343850Y151152D01*
X-345912Y153664D01*
X-346145Y153855D01*
X-346336Y154088D01*
X-348848Y156150D01*
X-349114Y156292D01*
X-349347Y156483D01*
X-352213Y158015D01*
X-352502Y158103D01*
X-352767Y158245D01*
X-355877Y159188D01*
X-356177Y159218D01*
X-356466Y159305D01*
X-359700Y159624D01*
X-359851Y159609D01*
X-360000Y159639D01*
D02*
G37*
G36*
X297039Y160250D02*
X287250D01*
Y151961D01*
X295000D01*
X295780Y152116D01*
X296442Y152558D01*
X296884Y153220D01*
X297039Y154000D01*
Y160250D01*
D02*
G37*
G36*
X-353211Y-196500D02*
X-359500D01*
Y-206289D01*
X-355250D01*
X-354470Y-206134D01*
X-353808Y-205692D01*
X-353366Y-205030D01*
X-353211Y-204250D01*
Y-196500D01*
D02*
G37*
G36*
X118500Y-217211D02*
X110750D01*
X109970Y-217366D01*
X109308Y-217808D01*
X108866Y-218470D01*
X108711Y-219250D01*
Y-223500D01*
X118500D01*
Y-217211D01*
D02*
G37*
G36*
X129250D02*
X121500D01*
Y-223500D01*
X131289D01*
Y-219250D01*
X131134Y-218470D01*
X130692Y-217808D01*
X130030Y-217366D01*
X129250Y-217211D01*
D02*
G37*
G36*
X131289Y-226500D02*
X121500D01*
Y-232789D01*
X129250D01*
X130030Y-232634D01*
X130692Y-232192D01*
X131134Y-231530D01*
X131289Y-230750D01*
Y-226500D01*
D02*
G37*
G36*
X118500D02*
X108711D01*
Y-230750D01*
X108228Y-231339D01*
X83000D01*
Y-258668D01*
X110329D01*
Y-233135D01*
X110750Y-232789D01*
X118500D01*
Y-226500D01*
D02*
G37*
G36*
X227329Y-238003D02*
X200000D01*
Y-252003D01*
X227329D01*
Y-238003D01*
D02*
G37*
G36*
X-299750Y-198711D02*
X-304000D01*
Y-208500D01*
X-297711D01*
Y-200750D01*
X-297866Y-199970D01*
X-298308Y-199308D01*
X-298970Y-198866D01*
X-299750Y-198711D01*
D02*
G37*
G36*
X-362500Y-196500D02*
X-368789D01*
Y-204250D01*
X-368634Y-205030D01*
X-368192Y-205692D01*
X-367530Y-206134D01*
X-366750Y-206289D01*
X-362500D01*
Y-196500D01*
D02*
G37*
G36*
X-307000Y-198711D02*
X-311250D01*
X-312030Y-198866D01*
X-312692Y-199308D01*
X-313134Y-199970D01*
X-313289Y-200750D01*
Y-208500D01*
X-307000D01*
Y-198711D01*
D02*
G37*
G36*
Y-211500D02*
X-313289D01*
Y-219250D01*
X-313134Y-220030D01*
X-312692Y-220692D01*
X-312030Y-221134D01*
X-311250Y-221289D01*
X-307000D01*
Y-211500D01*
D02*
G37*
G36*
X-297711D02*
X-304000D01*
Y-221289D01*
X-299750D01*
X-298970Y-221134D01*
X-298308Y-220692D01*
X-297866Y-220030D01*
X-297711Y-219250D01*
Y-211500D01*
D02*
G37*
G36*
X-309550Y-160200D02*
X-310001Y-160290D01*
X-311655Y-161395D01*
X-312760Y-163049D01*
X-313148Y-165000D01*
Y-169000D01*
X-309550D01*
Y-160200D01*
D02*
G37*
G36*
X-306550D02*
Y-169000D01*
X-302952D01*
Y-165000D01*
X-303340Y-163049D01*
X-304445Y-161395D01*
X-306099Y-160290D01*
X-306550Y-160200D01*
D02*
G37*
G36*
X-281150Y-160200D02*
Y-169000D01*
X-277552D01*
Y-165000D01*
X-277940Y-163049D01*
X-279045Y-161395D01*
X-280699Y-160290D01*
X-281150Y-160200D01*
D02*
G37*
G36*
X83250Y-163961D02*
X81000D01*
Y-170250D01*
X85289D01*
Y-166000D01*
X85134Y-165220D01*
X84692Y-164558D01*
X84030Y-164116D01*
X83250Y-163961D01*
D02*
G37*
G36*
X-284150Y-160200D02*
X-284601Y-160290D01*
X-286255Y-161395D01*
X-287360Y-163049D01*
X-287748Y-165000D01*
Y-169000D01*
X-284150D01*
Y-160200D01*
D02*
G37*
G36*
X-269000Y-129961D02*
X-287500D01*
Y-140500D01*
X-266961D01*
Y-132000D01*
X-267116Y-131220D01*
X-267558Y-130558D01*
X-268220Y-130116D01*
X-269000Y-129961D01*
D02*
G37*
G36*
X-360000Y-120361D02*
X-360149Y-120391D01*
X-360300Y-120376D01*
X-363534Y-120695D01*
X-363823Y-120782D01*
X-364123Y-120812D01*
X-367233Y-121755D01*
X-367498Y-121897D01*
X-367787Y-121985D01*
X-370653Y-123517D01*
X-370886Y-123708D01*
X-371152Y-123850D01*
X-373664Y-125912D01*
X-373855Y-126145D01*
X-374088Y-126336D01*
X-376150Y-128848D01*
X-376292Y-129114D01*
X-376483Y-129347D01*
X-378015Y-132213D01*
X-378103Y-132502D01*
X-378245Y-132767D01*
X-379188Y-135878D01*
X-379218Y-136177D01*
X-379305Y-136466D01*
X-379624Y-139700D01*
X-379594Y-140000D01*
X-379624Y-140300D01*
X-379305Y-143534D01*
X-379218Y-143823D01*
X-379188Y-144122D01*
X-378245Y-147233D01*
X-378103Y-147498D01*
X-378015Y-147787D01*
X-376483Y-150653D01*
X-376292Y-150886D01*
X-376150Y-151152D01*
X-374088Y-153664D01*
X-373855Y-153855D01*
X-373664Y-154088D01*
X-371152Y-156150D01*
X-370886Y-156292D01*
X-370653Y-156483D01*
X-367787Y-158015D01*
X-367498Y-158103D01*
X-367233Y-158245D01*
X-364123Y-159188D01*
X-363823Y-159218D01*
X-363534Y-159305D01*
X-360300Y-159624D01*
X-360149Y-159609D01*
X-360000Y-159639D01*
X-359851Y-159609D01*
X-359700Y-159624D01*
X-356466Y-159305D01*
X-356177Y-159218D01*
X-355877Y-159188D01*
X-352767Y-158245D01*
X-352502Y-158103D01*
X-352213Y-158015D01*
X-349347Y-156483D01*
X-349114Y-156292D01*
X-348848Y-156150D01*
X-346336Y-154088D01*
X-346145Y-153855D01*
X-345912Y-153664D01*
X-343850Y-151152D01*
X-343708Y-150886D01*
X-343517Y-150653D01*
X-341985Y-147787D01*
X-341897Y-147498D01*
X-341755Y-147233D01*
X-340812Y-144122D01*
X-340782Y-143823D01*
X-340695Y-143534D01*
X-340376Y-140300D01*
X-340406Y-140000D01*
X-340376Y-139700D01*
X-340695Y-136466D01*
X-340782Y-136177D01*
X-340812Y-135878D01*
X-341755Y-132767D01*
X-341897Y-132502D01*
X-341985Y-132213D01*
X-343517Y-129347D01*
X-343708Y-129114D01*
X-343850Y-128848D01*
X-345912Y-126336D01*
X-346145Y-126145D01*
X-346336Y-125912D01*
X-348848Y-123850D01*
X-349114Y-123708D01*
X-349347Y-123517D01*
X-352213Y-121985D01*
X-352502Y-121897D01*
X-352767Y-121755D01*
X-355877Y-120812D01*
X-356177Y-120782D01*
X-356466Y-120695D01*
X-359700Y-120376D01*
X-359851Y-120391D01*
X-360000Y-120361D01*
D02*
G37*
G36*
X-290500Y-129961D02*
X-309000D01*
X-309780Y-130116D01*
X-310442Y-130558D01*
X-310884Y-131220D01*
X-311039Y-132000D01*
Y-140500D01*
X-290500D01*
Y-129961D01*
D02*
G37*
G36*
Y-143500D02*
X-311039D01*
Y-152000D01*
X-310884Y-152780D01*
X-310442Y-153442D01*
X-309780Y-153884D01*
X-309000Y-154039D01*
X-290500D01*
Y-143500D01*
D02*
G37*
G36*
X-266961D02*
X-287500D01*
Y-154039D01*
X-269000D01*
X-268220Y-153884D01*
X-267558Y-153442D01*
X-267116Y-152780D01*
X-266961Y-152000D01*
Y-143500D01*
D02*
G37*
G36*
X78000Y-163961D02*
X75750D01*
X74970Y-164116D01*
X74308Y-164558D01*
X73866Y-165220D01*
X73711Y-166000D01*
Y-170250D01*
X78000D01*
Y-163961D01*
D02*
G37*
G36*
X-277552Y-172000D02*
X-281150D01*
Y-180800D01*
X-280699Y-180710D01*
X-279045Y-179605D01*
X-277940Y-177951D01*
X-277552Y-176000D01*
Y-172000D01*
D02*
G37*
G36*
X-283461Y138250D02*
X-294750D01*
Y127211D01*
X-285500D01*
X-284720Y127366D01*
X-284058Y127808D01*
X-283616Y128470D01*
X-283461Y129250D01*
Y138250D01*
D02*
G37*
G36*
X-295350Y-158883D02*
X-297691Y-159348D01*
X-299676Y-160674D01*
X-301002Y-162659D01*
X-301468Y-165000D01*
Y-170500D01*
Y-180650D01*
X-301002Y-182991D01*
X-299676Y-184976D01*
X-284091Y-200560D01*
X-283783Y-200897D01*
X-283309Y-201475D01*
Y-219250D01*
X-283076Y-220420D01*
X-282413Y-221413D01*
X-281420Y-222076D01*
X-280250Y-222309D01*
X-268750D01*
X-267579Y-222076D01*
X-266587Y-221413D01*
X-265924Y-220420D01*
X-265691Y-219250D01*
Y-200750D01*
X-265821Y-200097D01*
X-265828Y-199994D01*
X-265851Y-199947D01*
X-265924Y-199580D01*
X-266332Y-198968D01*
X-266355Y-198923D01*
X-266374Y-198906D01*
X-266587Y-198587D01*
X-267213Y-198169D01*
X-267251Y-198135D01*
X-267276Y-198127D01*
X-267579Y-197924D01*
X-268283Y-197784D01*
X-268381Y-197751D01*
X-268565Y-197726D01*
X-268656Y-197696D01*
X-268999Y-197527D01*
X-269525Y-197206D01*
X-270128Y-196782D01*
X-273543Y-193806D01*
X-286139Y-181210D01*
X-285329Y-180223D01*
X-284601Y-180710D01*
X-284150Y-180800D01*
Y-172000D01*
X-287748D01*
Y-176000D01*
X-287360Y-177951D01*
X-286873Y-178679D01*
X-287859Y-179489D01*
X-289233Y-178116D01*
Y-170500D01*
Y-165000D01*
X-289698Y-162659D01*
X-291024Y-160674D01*
X-293009Y-159348D01*
X-295350Y-158883D01*
D02*
G37*
G36*
X-285500Y152289D02*
X-294750D01*
Y141250D01*
X-283461D01*
Y150250D01*
X-283616Y151030D01*
X-284058Y151692D01*
X-284720Y152134D01*
X-285500Y152289D01*
D02*
G37*
G36*
X-297750D02*
X-307000D01*
X-307780Y152134D01*
X-308442Y151692D01*
X-308884Y151030D01*
X-309039Y150250D01*
Y141250D01*
X-297750D01*
Y152289D01*
D02*
G37*
G36*
X78000Y-173250D02*
X73711D01*
Y-177500D01*
X73866Y-178280D01*
X74308Y-178942D01*
X74970Y-179384D01*
X75750Y-179539D01*
X78000D01*
Y-173250D01*
D02*
G37*
G36*
X85289D02*
X81000D01*
Y-179539D01*
X83250D01*
X84030Y-179384D01*
X84692Y-178942D01*
X85134Y-178280D01*
X85289Y-177500D01*
Y-173250D01*
D02*
G37*
G36*
X-302952Y-172000D02*
X-306550D01*
Y-180800D01*
X-306099Y-180710D01*
X-304445Y-179605D01*
X-303340Y-177951D01*
X-302952Y-176000D01*
Y-172000D01*
D02*
G37*
G36*
X-297750Y138250D02*
X-309039D01*
Y129250D01*
X-308884Y128470D01*
X-308442Y127808D01*
X-307780Y127366D01*
X-307000Y127211D01*
X-297750D01*
Y138250D01*
D02*
G37*
G36*
X-309550Y-172000D02*
X-313148D01*
Y-176000D01*
X-312760Y-177951D01*
X-311655Y-179605D01*
X-310001Y-180710D01*
X-309550Y-180800D01*
Y-172000D01*
D02*
G37*
G36*
X178500Y-271500D02*
X162918D01*
Y-285000D01*
X163246Y-288333D01*
X164218Y-291537D01*
X165797Y-294490D01*
X167921Y-297079D01*
X170510Y-299203D01*
X173463Y-300782D01*
X176667Y-301754D01*
X178500Y-301935D01*
Y-271500D01*
D02*
G37*
G36*
X197082D02*
X181500D01*
Y-301935D01*
X183333Y-301754D01*
X186537Y-300782D01*
X189490Y-299203D01*
X192079Y-297079D01*
X194203Y-294490D01*
X195782Y-291537D01*
X196754Y-288333D01*
X197082Y-285000D01*
Y-271500D01*
D02*
G37*
G36*
X-246250Y-289250D02*
X-267539D01*
Y-298750D01*
X-267384Y-299530D01*
X-266942Y-300192D01*
X-266280Y-300634D01*
X-265500Y-300789D01*
X-246250D01*
Y-289250D01*
D02*
G37*
G36*
X84500Y279039D02*
X81000D01*
X80220Y278884D01*
X79558Y278442D01*
X79116Y277780D01*
X78961Y277000D01*
Y274250D01*
X84500D01*
Y279039D01*
D02*
G37*
G36*
X193000Y279039D02*
X189500D01*
Y274250D01*
X195039D01*
Y277000D01*
X194884Y277780D01*
X194442Y278442D01*
X193780Y278884D01*
X193000Y279039D01*
D02*
G37*
G36*
X186500D02*
X183000D01*
X182220Y278884D01*
X181558Y278442D01*
X181116Y277780D01*
X180961Y277000D01*
Y274250D01*
X186500D01*
Y279039D01*
D02*
G37*
G36*
X84500Y271250D02*
X78961D01*
Y268500D01*
X79116Y267720D01*
X79558Y267058D01*
X80220Y266616D01*
X81000Y266461D01*
X84500D01*
Y271250D01*
D02*
G37*
G36*
X-221961Y-289250D02*
X-243250D01*
Y-300789D01*
X-224000D01*
X-223220Y-300634D01*
X-222558Y-300192D01*
X-222116Y-299530D01*
X-221961Y-298750D01*
Y-289250D01*
D02*
G37*
G36*
X270000Y273069D02*
X267912Y272794D01*
X265965Y271988D01*
X264294Y270706D01*
X263012Y269035D01*
X262206Y267088D01*
X261931Y265000D01*
X262206Y262912D01*
X263012Y260965D01*
X264294Y259294D01*
X265965Y258012D01*
X267912Y257206D01*
X270000Y256931D01*
X272088Y257206D01*
X274035Y258012D01*
X275706Y259294D01*
X276988Y260965D01*
X277794Y262912D01*
X278069Y265000D01*
X277794Y267088D01*
X276988Y269035D01*
X275706Y270706D01*
X274035Y271988D01*
X272088Y272794D01*
X270000Y273069D01*
D02*
G37*
G36*
X-168461Y278000D02*
X-178750D01*
Y270711D01*
X-170500D01*
X-169720Y270866D01*
X-169058Y271308D01*
X-168616Y271970D01*
X-168461Y272750D01*
Y278000D01*
D02*
G37*
G36*
X-181750D02*
X-192039D01*
Y272750D01*
X-191884Y271970D01*
X-191442Y271308D01*
X-190780Y270866D01*
X-190000Y270711D01*
X-181750D01*
Y278000D01*
D02*
G37*
G36*
X93039Y271250D02*
X87500D01*
Y266461D01*
X91000D01*
X91780Y266616D01*
X92442Y267058D01*
X92884Y267720D01*
X93039Y268500D01*
Y271250D01*
D02*
G37*
G36*
X91000Y279039D02*
X87500D01*
Y274250D01*
X93039D01*
Y277000D01*
X92884Y277780D01*
X92442Y278442D01*
X91780Y278884D01*
X91000Y279039D01*
D02*
G37*
G36*
X186500Y293250D02*
X180961D01*
Y290500D01*
X181116Y289720D01*
X181558Y289058D01*
X182220Y288616D01*
X183000Y288461D01*
X186500D01*
Y293250D01*
D02*
G37*
G36*
X93039Y293250D02*
X87500D01*
Y288461D01*
X91000D01*
X91780Y288616D01*
X92442Y289058D01*
X92884Y289720D01*
X93039Y290500D01*
Y293250D01*
D02*
G37*
G36*
X84500D02*
X78961D01*
Y290500D01*
X79116Y289720D01*
X79558Y289058D01*
X80220Y288616D01*
X81000Y288461D01*
X84500D01*
Y293250D01*
D02*
G37*
G36*
X193000Y301039D02*
X189500D01*
Y296250D01*
X195039D01*
Y299000D01*
X194884Y299780D01*
X194442Y300442D01*
X193780Y300884D01*
X193000Y301039D01*
D02*
G37*
G36*
X84500Y301039D02*
X81000D01*
X80220Y300884D01*
X79558Y300442D01*
X79116Y299780D01*
X78961Y299000D01*
Y296250D01*
X84500D01*
Y301039D01*
D02*
G37*
G36*
X195039Y293250D02*
X189500D01*
Y288461D01*
X193000D01*
X193780Y288616D01*
X194442Y289058D01*
X194884Y289720D01*
X195039Y290500D01*
Y293250D01*
D02*
G37*
G36*
X38000Y297118D02*
X-36000D01*
X-38341Y296652D01*
X-40326Y295326D01*
X-44326Y291326D01*
X-45652Y289341D01*
X-46118Y287000D01*
Y285127D01*
X-46157Y284680D01*
X-46263Y284039D01*
X-46385Y283584D01*
X-46395Y283559D01*
X-47750D01*
X-48920Y283326D01*
X-49913Y282663D01*
X-50576Y281670D01*
X-50809Y280500D01*
Y277395D01*
X-50834Y277385D01*
X-51289Y277263D01*
X-51930Y277157D01*
X-52250Y277129D01*
X-52570Y277157D01*
X-53211Y277263D01*
X-53666Y277385D01*
X-53691Y277395D01*
Y280250D01*
X-53924Y281420D01*
X-54587Y282413D01*
X-55580Y283076D01*
X-56750Y283309D01*
X-68250D01*
X-69420Y283076D01*
X-70413Y282413D01*
X-71076Y281420D01*
X-71309Y280250D01*
Y261750D01*
X-71281Y261612D01*
X-72087Y260631D01*
X-83684D01*
X-83695Y260634D01*
X-84691Y261750D01*
Y280250D01*
X-84924Y281420D01*
X-85587Y282413D01*
X-86579Y283076D01*
X-87750Y283309D01*
X-99250D01*
X-100421Y283076D01*
X-101413Y282413D01*
X-102076Y281420D01*
X-102309Y280250D01*
Y261750D01*
X-103305Y260634D01*
X-103316Y260631D01*
X-128986D01*
X-129417Y261083D01*
X-129720Y261901D01*
X-129514Y262228D01*
X-129041Y262867D01*
X-128490Y263517D01*
X-128021Y264003D01*
X-127728Y264228D01*
X-125645Y266944D01*
X-124335Y270106D01*
X-123888Y273500D01*
X-124335Y276894D01*
X-125645Y280056D01*
X-127728Y282772D01*
X-130444Y284855D01*
X-133606Y286165D01*
X-137000Y286612D01*
X-140394Y286165D01*
X-143556Y284855D01*
X-146272Y282772D01*
X-148356Y280056D01*
X-149665Y276894D01*
X-150112Y273500D01*
X-149665Y270106D01*
X-148356Y266944D01*
X-146272Y264228D01*
X-145979Y264003D01*
X-145510Y263517D01*
X-144959Y262867D01*
X-144486Y262228D01*
X-144279Y261901D01*
X-144583Y261083D01*
X-145014Y260631D01*
X-186960D01*
X-186960Y260631D01*
X-189701Y260270D01*
X-192255Y259212D01*
X-194449Y257529D01*
X-194449Y257529D01*
X-238108Y213870D01*
X-240556Y212855D01*
X-243272Y210772D01*
X-245355Y208056D01*
X-246665Y204894D01*
X-247112Y201500D01*
X-246922Y200055D01*
X-247865Y199113D01*
X-250296Y196837D01*
X-251461Y197342D01*
Y212750D01*
X-263000D01*
Y191461D01*
X-259911D01*
X-259266Y190191D01*
X-259363Y190059D01*
X-275500D01*
X-276670Y189826D01*
X-277663Y189163D01*
X-278326Y188171D01*
X-278559Y187000D01*
Y145500D01*
X-278326Y144330D01*
X-277663Y143337D01*
X-276670Y142674D01*
X-275500Y142441D01*
X-260591D01*
Y118617D01*
X-330750D01*
X-333091Y118152D01*
X-335076Y116826D01*
X-369826Y82076D01*
X-371152Y80091D01*
X-371618Y77750D01*
Y-63500D01*
Y-76196D01*
X-371649Y-76592D01*
X-371749Y-77251D01*
X-371865Y-77726D01*
X-371899Y-77820D01*
X-372421Y-77924D01*
X-372695Y-78108D01*
X-372706Y-78111D01*
X-372726Y-78128D01*
X-373413Y-78587D01*
X-373606Y-78877D01*
X-373615Y-78884D01*
X-373627Y-78908D01*
X-374076Y-79580D01*
X-374142Y-79914D01*
X-374159Y-79946D01*
X-374166Y-80033D01*
X-374309Y-80750D01*
Y-99250D01*
X-374076Y-100421D01*
X-373413Y-101413D01*
X-372421Y-102076D01*
X-371250Y-102309D01*
X-359750D01*
X-358579Y-102076D01*
X-357587Y-101413D01*
X-356924Y-100421D01*
X-356691Y-99250D01*
Y-80750D01*
X-356834Y-80033D01*
X-356841Y-79946D01*
X-356858Y-79914D01*
X-356924Y-79580D01*
X-357373Y-78908D01*
X-357385Y-78884D01*
X-357393Y-78877D01*
X-357587Y-78587D01*
X-358274Y-78128D01*
X-358294Y-78111D01*
X-358305Y-78108D01*
X-358579Y-77924D01*
X-359101Y-77820D01*
X-359136Y-77726D01*
X-359251Y-77251D01*
X-359351Y-76592D01*
X-359383Y-76196D01*
Y-69618D01*
X-321034D01*
X-301468Y-89184D01*
Y-93716D01*
X-302738Y-94101D01*
X-303724Y-92624D01*
X-311924Y-84424D01*
X-313909Y-83098D01*
X-316250Y-82632D01*
X-324123D01*
X-324570Y-82593D01*
X-325211Y-82487D01*
X-325667Y-82365D01*
X-325691Y-82355D01*
Y-80750D01*
X-325924Y-79580D01*
X-326587Y-78587D01*
X-327579Y-77924D01*
X-328750Y-77691D01*
X-340250D01*
X-341421Y-77924D01*
X-342413Y-78587D01*
X-343076Y-79580D01*
X-343309Y-80750D01*
Y-99250D01*
X-343076Y-100421D01*
X-342413Y-101413D01*
X-341421Y-102076D01*
X-340250Y-102309D01*
X-340154D01*
X-340134Y-102357D01*
X-340013Y-102808D01*
X-339907Y-103443D01*
X-339868Y-103885D01*
Y-126250D01*
X-339402Y-128591D01*
X-338076Y-130576D01*
X-336118Y-132534D01*
Y-181196D01*
X-336149Y-181593D01*
X-336249Y-182251D01*
X-336365Y-182726D01*
X-336399Y-182820D01*
X-336921Y-182924D01*
X-337195Y-183108D01*
X-337206Y-183111D01*
X-337226Y-183128D01*
X-337913Y-183587D01*
X-338106Y-183877D01*
X-338115Y-183884D01*
X-338127Y-183908D01*
X-338576Y-184580D01*
X-338643Y-184914D01*
X-338659Y-184946D01*
X-338666Y-185033D01*
X-338809Y-185750D01*
Y-204250D01*
X-338576Y-205420D01*
X-337913Y-206413D01*
X-336921Y-207076D01*
X-335750Y-207309D01*
X-324250D01*
X-323079Y-207076D01*
X-322087Y-206413D01*
X-321424Y-205420D01*
X-321191Y-204250D01*
Y-185750D01*
X-321334Y-185033D01*
X-321341Y-184946D01*
X-321357Y-184914D01*
X-321424Y-184580D01*
X-321873Y-183908D01*
X-321885Y-183884D01*
X-321894Y-183877D01*
X-322087Y-183587D01*
X-322774Y-183128D01*
X-322794Y-183111D01*
X-322805Y-183108D01*
X-323079Y-182924D01*
X-323601Y-182820D01*
X-323635Y-182726D01*
X-323751Y-182251D01*
X-323851Y-181593D01*
X-323882Y-181196D01*
Y-130000D01*
X-324348Y-127659D01*
X-325674Y-125674D01*
X-327632Y-123716D01*
Y-103659D01*
X-327619Y-103279D01*
X-327543Y-102590D01*
X-327446Y-102040D01*
X-327429Y-101975D01*
X-327223Y-101838D01*
X-327179Y-101822D01*
X-327129Y-101775D01*
X-326587Y-101413D01*
X-326339Y-101042D01*
X-326305Y-101010D01*
X-326276Y-100947D01*
X-325924Y-100421D01*
X-325839Y-99995D01*
X-325807Y-99925D01*
X-325803Y-99812D01*
X-325691Y-99250D01*
Y-95145D01*
X-325667Y-95135D01*
X-325211Y-95013D01*
X-324570Y-94907D01*
X-324123Y-94867D01*
X-318784D01*
X-314168Y-99484D01*
Y-108000D01*
Y-119000D01*
X-313702Y-121341D01*
X-312376Y-123326D01*
X-310391Y-124652D01*
X-308050Y-125118D01*
X-305709Y-124652D01*
X-303724Y-123326D01*
X-302398Y-121341D01*
X-302348Y-121086D01*
X-301053D01*
X-301002Y-121341D01*
X-299676Y-123326D01*
X-297691Y-124652D01*
X-295350Y-125118D01*
X-293009Y-124652D01*
X-291024Y-123326D01*
X-289698Y-121341D01*
X-289648Y-121086D01*
X-288353D01*
X-288302Y-121341D01*
X-286976Y-123326D01*
X-284991Y-124652D01*
X-282650Y-125118D01*
X-280309Y-124652D01*
X-278324Y-123326D01*
X-276998Y-121341D01*
X-276947Y-121086D01*
X-275653D01*
X-275602Y-121341D01*
X-274276Y-123326D01*
X-272291Y-124652D01*
X-269950Y-125118D01*
X-267609Y-124652D01*
X-266956Y-124216D01*
X-266717Y-124113D01*
X-266068Y-123665D01*
X-265459Y-123327D01*
X-264752Y-123011D01*
X-263944Y-122724D01*
X-263032Y-122472D01*
X-262018Y-122258D01*
X-260936Y-122092D01*
X-259246Y-121957D01*
X-258971Y-122083D01*
X-258084Y-123034D01*
X-258059Y-123150D01*
Y-136000D01*
X-257826Y-137171D01*
X-257163Y-138163D01*
X-256171Y-138826D01*
X-255000Y-139059D01*
X-251654D01*
X-251634Y-139108D01*
X-251513Y-139558D01*
X-251407Y-140193D01*
X-251367Y-140636D01*
Y-147966D01*
X-264296Y-160895D01*
X-265560Y-160770D01*
X-265624Y-160674D01*
X-267609Y-159348D01*
X-269950Y-158883D01*
X-272291Y-159348D01*
X-274276Y-160674D01*
X-275602Y-162659D01*
X-276068Y-165000D01*
Y-176000D01*
X-275602Y-178341D01*
X-274276Y-180326D01*
X-272291Y-181652D01*
X-269950Y-182118D01*
X-267609Y-181652D01*
X-265624Y-180326D01*
X-264298Y-178341D01*
X-263902Y-176349D01*
X-262909Y-176152D01*
X-260924Y-174826D01*
X-251147Y-165049D01*
X-250070Y-165768D01*
X-250544Y-166912D01*
X-250819Y-169000D01*
Y-225250D01*
X-250544Y-227338D01*
X-249738Y-229284D01*
X-248456Y-230956D01*
X-218069Y-261342D01*
Y-267551D01*
X-218082Y-268569D01*
X-218268Y-271587D01*
X-218413Y-272678D01*
X-218587Y-273537D01*
X-218712Y-273951D01*
X-219137Y-274236D01*
X-219201Y-274263D01*
X-219244Y-274307D01*
X-219663Y-274587D01*
X-219985Y-275069D01*
X-220034Y-275119D01*
X-220056Y-275176D01*
X-220326Y-275579D01*
X-220435Y-276127D01*
X-220475Y-276228D01*
X-220474Y-276322D01*
X-220559Y-276750D01*
Y-298750D01*
X-220326Y-299921D01*
X-219663Y-300913D01*
X-218671Y-301576D01*
X-217500Y-301809D01*
X-176000D01*
X-174830Y-301576D01*
X-173837Y-300913D01*
X-173174Y-299921D01*
X-172941Y-298750D01*
Y-289563D01*
X-172254Y-288284D01*
X-171200Y-286686D01*
X-165712Y-280177D01*
X-163773Y-278185D01*
X-142658Y-257069D01*
X-60342D01*
X-50080Y-267331D01*
X-50145Y-268552D01*
X-50373Y-269847D01*
X-50718Y-270882D01*
X-51154Y-271691D01*
X-51674Y-272326D01*
X-52309Y-272846D01*
X-53118Y-273282D01*
X-54153Y-273627D01*
X-55448Y-273855D01*
X-55614Y-273864D01*
X-56759Y-273763D01*
X-58000Y-273557D01*
X-58975Y-273295D01*
X-59674Y-273010D01*
X-60106Y-272747D01*
X-60318Y-272550D01*
X-60407Y-272418D01*
X-60441Y-272320D01*
Y-271250D01*
X-60674Y-270079D01*
X-61337Y-269087D01*
X-62330Y-268424D01*
X-63500Y-268191D01*
X-84500D01*
X-85670Y-268424D01*
X-86663Y-269087D01*
X-87326Y-270079D01*
X-87559Y-271250D01*
Y-292750D01*
X-87326Y-293920D01*
X-86663Y-294913D01*
X-85670Y-295576D01*
X-84500Y-295809D01*
X-63500D01*
X-62330Y-295576D01*
X-61337Y-294913D01*
X-60674Y-293920D01*
X-60441Y-292750D01*
Y-291679D01*
X-60407Y-291582D01*
X-60318Y-291450D01*
X-60106Y-291253D01*
X-59674Y-290990D01*
X-58975Y-290705D01*
X-58000Y-290443D01*
X-56759Y-290237D01*
X-55265Y-290105D01*
X-53883Y-290069D01*
X-33117D01*
X-31735Y-290105D01*
X-30241Y-290237D01*
X-29000Y-290443D01*
X-28025Y-290705D01*
X-27326Y-290990D01*
X-26895Y-291253D01*
X-26682Y-291450D01*
X-26593Y-291582D01*
X-26559Y-291679D01*
Y-292750D01*
X-26326Y-293920D01*
X-25663Y-294913D01*
X-24671Y-295576D01*
X-23500Y-295809D01*
X-2500D01*
X-1329Y-295576D01*
X-337Y-294913D01*
X326Y-293920D01*
X559Y-292750D01*
Y-271250D01*
X326Y-270079D01*
X-337Y-269087D01*
X-1329Y-268424D01*
X-2500Y-268191D01*
X-23500D01*
X-24671Y-268424D01*
X-25663Y-269087D01*
X-26326Y-270079D01*
X-26559Y-271250D01*
Y-272320D01*
X-26593Y-272418D01*
X-26682Y-272550D01*
X-26895Y-272747D01*
X-27326Y-273010D01*
X-28025Y-273295D01*
X-29000Y-273557D01*
X-29640Y-273663D01*
X-29847Y-273627D01*
X-30882Y-273282D01*
X-31691Y-272846D01*
X-32326Y-272326D01*
X-32846Y-271691D01*
X-33282Y-270882D01*
X-33627Y-269847D01*
X-33855Y-268552D01*
X-33931Y-267114D01*
Y-264000D01*
X-34206Y-261912D01*
X-35012Y-259965D01*
X-36294Y-258294D01*
X-51294Y-243294D01*
X-52965Y-242012D01*
X-54912Y-241206D01*
X-57000Y-240931D01*
X-146000D01*
X-148088Y-241206D01*
X-150035Y-242012D01*
X-151706Y-243294D01*
X-174863Y-266452D01*
X-179127Y-270455D01*
X-180915Y-271931D01*
X-201373D01*
X-201557Y-271246D01*
X-201763Y-270005D01*
X-201895Y-268513D01*
X-201931Y-267132D01*
Y-258000D01*
X-202206Y-255912D01*
X-203012Y-253965D01*
X-204294Y-252294D01*
X-234681Y-221908D01*
Y-172342D01*
X-215044Y-152706D01*
X-213762Y-151034D01*
X-212956Y-149088D01*
X-212681Y-147000D01*
Y-124750D01*
X-212956Y-122662D01*
X-213762Y-120716D01*
X-215044Y-119044D01*
X-225994Y-108094D01*
X-227666Y-106812D01*
X-229612Y-106006D01*
X-231700Y-105731D01*
X-232441D01*
Y-98517D01*
X-218837Y-84913D01*
X-218830Y-84902D01*
X-218818Y-84894D01*
X-218498Y-84405D01*
X-218185Y-83937D01*
X-218083Y-83918D01*
X-216879Y-84127D01*
X-216682Y-85620D01*
X-216554Y-85999D01*
X-216476Y-86391D01*
X-215594Y-88520D01*
X-215482Y-88688D01*
X-215417Y-88879D01*
X-184167Y-143006D01*
X-184034Y-143157D01*
X-183945Y-143338D01*
X-182542Y-145166D01*
X-182241Y-145430D01*
X-181978Y-145731D01*
X-180150Y-147133D01*
X-180632Y-148311D01*
X-184822Y-147305D01*
X-190000Y-146898D01*
X-195178Y-147305D01*
X-200229Y-148518D01*
X-205028Y-150506D01*
X-209457Y-153220D01*
X-213407Y-156593D01*
X-216780Y-160543D01*
X-219494Y-164972D01*
X-221482Y-169771D01*
X-222694Y-174822D01*
X-223102Y-180000D01*
X-222694Y-185178D01*
X-221482Y-190229D01*
X-219494Y-195028D01*
X-216780Y-199457D01*
X-213407Y-203407D01*
X-209457Y-206780D01*
X-205028Y-209494D01*
X-200229Y-211482D01*
X-195178Y-212694D01*
X-190000Y-213102D01*
X-184822Y-212694D01*
X-179771Y-211482D01*
X-174972Y-209494D01*
X-170543Y-206780D01*
X-166593Y-203407D01*
X-163220Y-199457D01*
X-160506Y-195028D01*
X-158518Y-190229D01*
X-157305Y-185178D01*
X-156898Y-180000D01*
X-157305Y-174822D01*
X-158518Y-169771D01*
X-160506Y-164972D01*
X-163220Y-160543D01*
X-166593Y-156593D01*
X-170543Y-153220D01*
X-174972Y-150506D01*
X-176371Y-149926D01*
X-176040Y-148689D01*
X-174274Y-148921D01*
X-173875Y-148895D01*
X-173476Y-148921D01*
X-171192Y-148621D01*
X-170813Y-148492D01*
X-170420Y-148414D01*
X-168292Y-147532D01*
X-167959Y-147310D01*
X-167600Y-147133D01*
X-165772Y-145731D01*
X-165509Y-145430D01*
X-165208Y-145166D01*
X-163805Y-143338D01*
X-163628Y-142979D01*
X-163406Y-142647D01*
X-162524Y-140518D01*
X-162446Y-140126D01*
X-162318Y-139747D01*
X-162017Y-137463D01*
X-162043Y-137063D01*
X-162017Y-136664D01*
X-162318Y-134380D01*
X-162446Y-134001D01*
X-162524Y-133609D01*
X-163056Y-132324D01*
X-162164Y-131161D01*
X-161818Y-131206D01*
X-159860Y-130949D01*
X-158036Y-130193D01*
X-150242Y-125693D01*
X-148675Y-124491D01*
X-148590Y-124380D01*
X-147825D01*
X-147128Y-124560D01*
X-146992Y-124680D01*
X-146728Y-124981D01*
X-144900Y-126383D01*
X-144541Y-126560D01*
X-144208Y-126782D01*
X-142080Y-127664D01*
X-141687Y-127742D01*
X-141308Y-127871D01*
X-139024Y-128171D01*
X-138625Y-128145D01*
X-138226Y-128171D01*
X-135942Y-127871D01*
X-135563Y-127742D01*
X-135170Y-127664D01*
X-133042Y-126782D01*
X-132709Y-126560D01*
X-132350Y-126383D01*
X-130522Y-124980D01*
X-130259Y-124680D01*
X-129958Y-124416D01*
X-128555Y-122588D01*
X-128378Y-122229D01*
X-128156Y-121897D01*
X-127274Y-119768D01*
X-127196Y-119376D01*
X-127068Y-118997D01*
X-126767Y-116713D01*
X-126793Y-116313D01*
X-126767Y-115914D01*
X-127068Y-113630D01*
X-127196Y-113251D01*
X-127274Y-112858D01*
X-127775Y-111649D01*
X-126690Y-110951D01*
X-119102Y-119102D01*
X-110302Y-127295D01*
X-100939Y-134839D01*
X-91063Y-141697D01*
X-80722Y-147832D01*
X-69970Y-153214D01*
X-68203Y-153946D01*
X-68212Y-154056D01*
X-68391Y-155330D01*
X-68621Y-156343D01*
X-68874Y-157077D01*
X-69105Y-157525D01*
X-69235Y-157691D01*
X-69250D01*
X-69430Y-157727D01*
X-69596Y-157748D01*
X-69688Y-157778D01*
X-70420Y-157924D01*
X-70711Y-158118D01*
X-70729Y-158124D01*
X-70759Y-158150D01*
X-71413Y-158587D01*
X-71617Y-158892D01*
X-71631Y-158905D01*
X-71649Y-158941D01*
X-72076Y-159579D01*
X-72146Y-159931D01*
X-72166Y-159972D01*
X-72173Y-160068D01*
X-72309Y-160750D01*
Y-172250D01*
X-72076Y-173421D01*
X-71413Y-174413D01*
X-70420Y-175076D01*
X-69250Y-175309D01*
X-50750D01*
X-49580Y-175076D01*
X-48587Y-174413D01*
X-47924Y-173421D01*
X-47691Y-172250D01*
Y-162862D01*
X-46421Y-161876D01*
X-35803Y-164586D01*
X-33169Y-165061D01*
X-33200Y-166346D01*
X-33933Y-166443D01*
X-34312Y-166571D01*
X-34705Y-166649D01*
X-36833Y-167531D01*
X-37166Y-167753D01*
X-37525Y-167930D01*
X-39353Y-169333D01*
X-39616Y-169634D01*
X-39917Y-169897D01*
X-41320Y-171725D01*
X-41497Y-172084D01*
X-41719Y-172417D01*
X-42601Y-174545D01*
X-42679Y-174938D01*
X-42807Y-175317D01*
X-43108Y-177601D01*
X-43082Y-178000D01*
X-43108Y-178399D01*
X-42807Y-180683D01*
X-42679Y-181062D01*
X-42601Y-181455D01*
X-41719Y-183583D01*
X-41497Y-183916D01*
X-41320Y-184275D01*
X-39917Y-186103D01*
X-39616Y-186367D01*
X-39353Y-186667D01*
X-37915Y-187770D01*
X-38283Y-189081D01*
X-39106Y-189160D01*
X-40021Y-189181D01*
X-42751D01*
X-44327Y-189173D01*
X-49003Y-189027D01*
X-49488Y-188985D01*
X-49580Y-188924D01*
X-50750Y-188691D01*
X-69250D01*
X-70420Y-188924D01*
X-71413Y-189587D01*
X-72076Y-190579D01*
X-72309Y-191750D01*
Y-203250D01*
X-72076Y-204421D01*
X-71413Y-205413D01*
X-70420Y-206076D01*
X-69250Y-206309D01*
X-50750D01*
X-49988Y-206157D01*
X-49917Y-206151D01*
X-49894Y-206138D01*
X-49580Y-206076D01*
X-49072Y-205737D01*
X-42593Y-205319D01*
X-40290D01*
X-37731Y-205436D01*
X-36548Y-205582D01*
X-35407Y-205788D01*
X-35208Y-205837D01*
X-35106Y-207169D01*
X-36583Y-207781D01*
X-36916Y-208003D01*
X-37275Y-208180D01*
X-39103Y-209583D01*
X-39366Y-209883D01*
X-39667Y-210147D01*
X-41070Y-211975D01*
X-41247Y-212334D01*
X-41469Y-212667D01*
X-42351Y-214795D01*
X-42429Y-215188D01*
X-42557Y-215567D01*
X-42858Y-217851D01*
X-42832Y-218250D01*
X-42858Y-218649D01*
X-42557Y-220933D01*
X-42429Y-221312D01*
X-42351Y-221705D01*
X-41469Y-223833D01*
X-41247Y-224166D01*
X-41070Y-224525D01*
X-39667Y-226353D01*
X-39366Y-226616D01*
X-39103Y-226917D01*
X-37275Y-228320D01*
X-36916Y-228497D01*
X-36583Y-228719D01*
X-34455Y-229601D01*
X-34062Y-229679D01*
X-33683Y-229807D01*
X-31399Y-230108D01*
X-31198Y-230095D01*
X-31000Y-230134D01*
X31500D01*
X31698Y-230095D01*
X31899Y-230108D01*
X34183Y-229807D01*
X34562Y-229679D01*
X34955Y-229601D01*
X37083Y-228719D01*
X37416Y-228497D01*
X37775Y-228320D01*
X39603Y-226917D01*
X39866Y-226616D01*
X40167Y-226353D01*
X41570Y-224525D01*
X41747Y-224166D01*
X41969Y-223833D01*
X42851Y-221705D01*
X42929Y-221312D01*
X43057Y-220933D01*
X43358Y-218649D01*
X43332Y-218250D01*
X43358Y-217851D01*
X43057Y-215567D01*
X42929Y-215188D01*
X42851Y-214795D01*
X41969Y-212667D01*
X41747Y-212334D01*
X41570Y-211975D01*
X40167Y-210147D01*
X39866Y-209883D01*
X39603Y-209583D01*
X37775Y-208180D01*
X37416Y-208003D01*
X37083Y-207781D01*
X35421Y-207092D01*
X35407Y-205788D01*
X36508Y-205589D01*
X39106Y-205340D01*
X40021Y-205319D01*
X56826D01*
X62546Y-205422D01*
X64372Y-205552D01*
X64744Y-205602D01*
X65079Y-205826D01*
X65714Y-205952D01*
X65819Y-205990D01*
X65891Y-205987D01*
X66250Y-206059D01*
X73750D01*
X74921Y-205826D01*
X75913Y-205163D01*
X76576Y-204170D01*
X76809Y-203000D01*
Y-191500D01*
X76576Y-190329D01*
X75913Y-189337D01*
X74921Y-188674D01*
X73750Y-188441D01*
X66250D01*
X65890Y-188513D01*
X65819Y-188510D01*
X65714Y-188548D01*
X65079Y-188674D01*
X64915Y-188784D01*
X58146Y-189181D01*
X40290D01*
X38259Y-189088D01*
X37878Y-187799D01*
X39353Y-186667D01*
X39616Y-186367D01*
X39917Y-186103D01*
X41320Y-184275D01*
X41497Y-183916D01*
X41719Y-183583D01*
X42601Y-181455D01*
X42679Y-181062D01*
X42807Y-180683D01*
X43108Y-178399D01*
X43082Y-178000D01*
X43108Y-177601D01*
X42807Y-175317D01*
X42679Y-174938D01*
X42601Y-174545D01*
X41719Y-172417D01*
X41497Y-172084D01*
X41320Y-171725D01*
X39917Y-169897D01*
X39616Y-169634D01*
X39353Y-169333D01*
X37525Y-167930D01*
X37166Y-167753D01*
X36833Y-167531D01*
X34705Y-166649D01*
X34312Y-166571D01*
X33933Y-166443D01*
X33200Y-166346D01*
X33169Y-165061D01*
X35803Y-164586D01*
X47454Y-161612D01*
X58862Y-157815D01*
X69970Y-153214D01*
X80722Y-147832D01*
X85916Y-144750D01*
X94707D01*
X96119Y-144782D01*
X97867Y-144902D01*
X101356Y-145398D01*
X102452Y-145642D01*
X102558Y-145893D01*
X102884Y-146957D01*
X103152Y-148203D01*
X103352Y-149630D01*
X103475Y-151234D01*
X103508Y-152609D01*
Y-166827D01*
X103783Y-168915D01*
X104589Y-170861D01*
X105871Y-172532D01*
X117260Y-183921D01*
X116734Y-185191D01*
X110750D01*
X109579Y-185424D01*
X108587Y-186087D01*
X107924Y-187080D01*
X107691Y-188250D01*
Y-190853D01*
X107661Y-190865D01*
X107206Y-190987D01*
X106565Y-191093D01*
X106120Y-191133D01*
X97303D01*
X96908Y-191101D01*
X96249Y-191001D01*
X95774Y-190886D01*
X95680Y-190851D01*
X95576Y-190329D01*
X95392Y-190055D01*
X95389Y-190044D01*
X95372Y-190024D01*
X94913Y-189337D01*
X94623Y-189144D01*
X94616Y-189135D01*
X94592Y-189123D01*
X93920Y-188674D01*
X93586Y-188608D01*
X93553Y-188591D01*
X93467Y-188584D01*
X92750Y-188441D01*
X85250D01*
X84080Y-188674D01*
X83087Y-189337D01*
X82424Y-190329D01*
X82191Y-191500D01*
Y-203000D01*
X82424Y-204171D01*
X83087Y-205163D01*
X84080Y-205826D01*
X85250Y-206059D01*
X92750D01*
X93467Y-205916D01*
X93553Y-205909D01*
X93586Y-205893D01*
X93920Y-205826D01*
X94592Y-205377D01*
X94616Y-205365D01*
X94623Y-205357D01*
X94913Y-205163D01*
X95372Y-204476D01*
X95389Y-204456D01*
X95392Y-204445D01*
X95576Y-204171D01*
X95680Y-203649D01*
X95774Y-203615D01*
X96249Y-203499D01*
X96908Y-203399D01*
X97303Y-203368D01*
X147216D01*
X168674Y-224826D01*
X170659Y-226152D01*
X173000Y-226618D01*
X205000D01*
X207341Y-226152D01*
X209326Y-224826D01*
X234576Y-199576D01*
X235902Y-197591D01*
X236367Y-195250D01*
Y-164750D01*
X235902Y-162409D01*
X234576Y-160424D01*
X216868Y-142716D01*
Y-118284D01*
X237034Y-98118D01*
X240572D01*
X241058Y-99291D01*
X228924Y-111424D01*
X227598Y-113409D01*
X227132Y-115750D01*
Y-136250D01*
X227598Y-138591D01*
X228924Y-140576D01*
X241703Y-153355D01*
X241655Y-153867D01*
X241368Y-154815D01*
X240587Y-155337D01*
X239924Y-156329D01*
X239691Y-157500D01*
Y-158982D01*
X239512Y-159215D01*
X238706Y-161161D01*
X238431Y-163250D01*
Y-208908D01*
X233908Y-213431D01*
X233343D01*
X233215Y-213333D01*
X230941Y-212391D01*
X228500Y-212069D01*
X226059Y-212391D01*
X223785Y-213333D01*
X221831Y-214832D01*
X220333Y-216785D01*
X219391Y-219059D01*
X219069Y-221500D01*
X219391Y-223941D01*
X220333Y-226215D01*
X221831Y-228169D01*
X223785Y-229667D01*
X226059Y-230609D01*
X228500Y-230931D01*
X230941Y-230609D01*
X233215Y-229667D01*
X233343Y-229569D01*
X237250D01*
X239338Y-229294D01*
X241285Y-228488D01*
X242956Y-227206D01*
X252206Y-217956D01*
X253488Y-216285D01*
X254294Y-214338D01*
X254569Y-212250D01*
Y-163250D01*
X254344Y-161542D01*
X255497Y-160898D01*
X256776Y-162178D01*
X257327Y-162799D01*
X258039Y-163693D01*
X258572Y-164462D01*
X258691Y-164670D01*
Y-169000D01*
X258924Y-170170D01*
X259587Y-171163D01*
X260579Y-171826D01*
X261750Y-172059D01*
X267270D01*
X267409Y-172152D01*
X269750Y-172617D01*
X281620D01*
X282066Y-172657D01*
X282707Y-172763D01*
X283162Y-172885D01*
X283191Y-172897D01*
Y-173500D01*
X283424Y-174671D01*
X284087Y-175663D01*
X285079Y-176326D01*
X286250Y-176559D01*
X304750D01*
X305921Y-176326D01*
X306913Y-175663D01*
X307576Y-174671D01*
X307809Y-173500D01*
Y-162000D01*
X307576Y-160830D01*
X306913Y-159837D01*
X305921Y-159174D01*
X304750Y-158941D01*
X286250D01*
X285826Y-159025D01*
X285733Y-159024D01*
X285632Y-159064D01*
X285079Y-159174D01*
X284680Y-159441D01*
X284624Y-159463D01*
X284573Y-159512D01*
X284087Y-159837D01*
X283843Y-160202D01*
X283697Y-160231D01*
X281840Y-160382D01*
X272309D01*
Y-157500D01*
X272250Y-157203D01*
X272253Y-157159D01*
X272223Y-157068D01*
X272076Y-156329D01*
X271884Y-156042D01*
X271879Y-156025D01*
X271854Y-155997D01*
X271413Y-155337D01*
X271110Y-155135D01*
X271099Y-155122D01*
X271065Y-155105D01*
X270420Y-154674D01*
X270072Y-154605D01*
X270033Y-154585D01*
X269938Y-154578D01*
X269250Y-154441D01*
X268671D01*
X268143Y-154361D01*
X267582Y-154220D01*
X266998Y-154014D01*
X266386Y-153736D01*
X265747Y-153383D01*
X265081Y-152949D01*
X264391Y-152429D01*
X263985Y-152083D01*
X260665Y-148764D01*
X261151Y-147591D01*
X320750D01*
X320750Y-147591D01*
X323491Y-147230D01*
X326045Y-146172D01*
X328239Y-144489D01*
X340720Y-132008D01*
X340736Y-132014D01*
X341755Y-132767D01*
X340812Y-135878D01*
X340782Y-136177D01*
X340695Y-136466D01*
X340376Y-139700D01*
X340406Y-140000D01*
X340376Y-140300D01*
X340695Y-143534D01*
X340782Y-143823D01*
X340812Y-144122D01*
X341755Y-147233D01*
X341897Y-147498D01*
X341985Y-147787D01*
X343517Y-150653D01*
X343708Y-150886D01*
X343850Y-151152D01*
X345912Y-153664D01*
X346145Y-153855D01*
X346336Y-154088D01*
X348848Y-156150D01*
X349114Y-156292D01*
X349347Y-156483D01*
X352213Y-158015D01*
X352502Y-158103D01*
X352767Y-158245D01*
X355877Y-159188D01*
X356177Y-159218D01*
X356466Y-159305D01*
X359700Y-159624D01*
X359851Y-159609D01*
X360000Y-159639D01*
X360149Y-159609D01*
X360300Y-159624D01*
X363534Y-159305D01*
X363823Y-159218D01*
X364123Y-159188D01*
X367233Y-158245D01*
X367498Y-158103D01*
X367787Y-158015D01*
X370653Y-156483D01*
X370886Y-156292D01*
X371152Y-156150D01*
X373664Y-154088D01*
X373855Y-153855D01*
X374088Y-153664D01*
X376150Y-151152D01*
X376292Y-150886D01*
X376483Y-150653D01*
X378015Y-147787D01*
X378103Y-147498D01*
X378245Y-147233D01*
X379188Y-144122D01*
X379218Y-143823D01*
X379305Y-143534D01*
X379624Y-140300D01*
X379594Y-140000D01*
X379624Y-139700D01*
X379305Y-136466D01*
X379218Y-136177D01*
X379188Y-135878D01*
X378245Y-132767D01*
X378103Y-132502D01*
X378015Y-132213D01*
X376483Y-129347D01*
X376292Y-129114D01*
X376150Y-128848D01*
X374088Y-126336D01*
X373855Y-126145D01*
X373664Y-125912D01*
X371152Y-123850D01*
X370886Y-123708D01*
X370653Y-123517D01*
X367787Y-121985D01*
X367498Y-121897D01*
X367233Y-121755D01*
X364123Y-120812D01*
X363823Y-120782D01*
X363534Y-120695D01*
X360300Y-120376D01*
X360149Y-120391D01*
X360000Y-120361D01*
X359851Y-120391D01*
X359700Y-120376D01*
X356466Y-120695D01*
X356177Y-120782D01*
X355877Y-120812D01*
X352767Y-121755D01*
X352014Y-120736D01*
X352007Y-120720D01*
X385739Y-86989D01*
X387422Y-84795D01*
X388480Y-82241D01*
X388841Y-79500D01*
X388841Y-79500D01*
Y-15750D01*
Y54500D01*
Y81000D01*
X388480Y83741D01*
X387422Y86295D01*
X385739Y88489D01*
X385739Y88489D01*
X363739Y110489D01*
X361545Y112172D01*
X358991Y113230D01*
X356250Y113591D01*
X356250Y113591D01*
X282387D01*
X266341Y129637D01*
Y206500D01*
X265980Y209241D01*
X264922Y211795D01*
X263239Y213989D01*
X263239Y213989D01*
X250907Y226321D01*
X249834Y227450D01*
X248146Y229435D01*
X246672Y231398D01*
X245411Y233338D01*
X244357Y235251D01*
X243507Y237137D01*
X242855Y238997D01*
X242394Y240835D01*
X242120Y242656D01*
X242059Y243885D01*
Y244500D01*
X241949Y245052D01*
X241945Y245165D01*
X241912Y245238D01*
X241826Y245671D01*
X241480Y246188D01*
X241451Y246252D01*
X241415Y246285D01*
X241163Y246663D01*
X240630Y247019D01*
X240579Y247066D01*
X240533Y247084D01*
X240171Y247326D01*
X239567Y247446D01*
X239462Y247486D01*
X239382Y247483D01*
X239000Y247559D01*
X227500D01*
X226933Y247446D01*
X226821Y247442D01*
X226752Y247410D01*
X226329Y247326D01*
X225798Y246971D01*
X225737Y246943D01*
X225705Y246909D01*
X225337Y246663D01*
X224972Y246117D01*
X224926Y246067D01*
X224910Y246024D01*
X224674Y245671D01*
X224551Y245053D01*
X224512Y244947D01*
X224444Y244518D01*
X224279Y244354D01*
X223748Y244028D01*
X222806Y243646D01*
X221463Y243282D01*
X219787Y242983D01*
X215230Y242606D01*
X214332Y242591D01*
X163000D01*
X160259Y242230D01*
X157705Y241172D01*
X155511Y239489D01*
X155511Y239489D01*
X131113Y215091D01*
X105328D01*
X69541Y250878D01*
X70167Y252048D01*
X71000Y251882D01*
X98833D01*
X98999Y251877D01*
X99715Y251809D01*
X100290Y251720D01*
X100437Y251686D01*
X100443Y251677D01*
X100465Y251621D01*
X100514Y251570D01*
X100837Y251087D01*
X101255Y250808D01*
X101297Y250765D01*
X101361Y250737D01*
X101830Y250424D01*
X102307Y250329D01*
X102393Y250292D01*
X102501Y250290D01*
X103000Y250191D01*
X111000D01*
X112170Y250424D01*
X113163Y251087D01*
X113751Y251968D01*
X114425Y252029D01*
X115099Y251968D01*
X115209Y251802D01*
X115213Y251790D01*
X115232Y251768D01*
X115687Y251087D01*
X115709Y251073D01*
X115883Y248898D01*
Y247377D01*
X115843Y246930D01*
X115737Y246289D01*
X115615Y245834D01*
X115605Y245809D01*
X111750D01*
X110580Y245576D01*
X109587Y244913D01*
X108924Y243920D01*
X108691Y242750D01*
Y231250D01*
X108924Y230079D01*
X109587Y229087D01*
X110580Y228424D01*
X111750Y228191D01*
X130250D01*
X131420Y228424D01*
X132413Y229087D01*
X133076Y230079D01*
X133309Y231250D01*
Y242750D01*
X133235Y243123D01*
X134387Y243840D01*
X135465Y243012D01*
X137412Y242206D01*
X139500Y241931D01*
X141588Y242206D01*
X143534Y243012D01*
X145206Y244294D01*
X146488Y245965D01*
X147232Y247762D01*
X147684Y248271D01*
X148750Y249270D01*
X149755Y250093D01*
X149893Y250191D01*
X156000D01*
X157171Y250424D01*
X158163Y251087D01*
X158826Y252080D01*
X158853Y252213D01*
X160147D01*
X160174Y252079D01*
X160837Y251087D01*
X161829Y250424D01*
X163000Y250191D01*
X171000D01*
X172171Y250424D01*
X173163Y251087D01*
X173826Y252079D01*
X174059Y253250D01*
Y254855D01*
X174083Y254865D01*
X174539Y254987D01*
X175180Y255093D01*
X175627Y255132D01*
X235716D01*
X253382Y237466D01*
X253868Y236912D01*
X254518Y236084D01*
X255018Y235349D01*
X255373Y234722D01*
X255441Y234566D01*
Y226000D01*
X255674Y224830D01*
X256337Y223837D01*
X257330Y223174D01*
X258500Y222941D01*
X266541D01*
X266879Y222702D01*
X268755Y221094D01*
X279632Y210216D01*
Y207627D01*
X279593Y207180D01*
X279487Y206539D01*
X279365Y206084D01*
X279355Y206059D01*
X276500D01*
X275329Y205826D01*
X274337Y205163D01*
X273674Y204170D01*
X273441Y203000D01*
Y187500D01*
X273674Y186329D01*
X274337Y185337D01*
X275329Y184674D01*
X276500Y184441D01*
X295000D01*
X296171Y184674D01*
X297163Y185337D01*
X297826Y186329D01*
X298059Y187500D01*
Y203000D01*
X297826Y204170D01*
X297163Y205163D01*
X296171Y205826D01*
X295000Y206059D01*
X292145D01*
X292135Y206084D01*
X292013Y206539D01*
X291907Y207180D01*
X291868Y207628D01*
Y212750D01*
X291402Y215091D01*
X290076Y217076D01*
X275059Y232092D01*
X274547Y232674D01*
X273872Y233529D01*
X273358Y234278D01*
X273059Y234804D01*
Y244500D01*
X272826Y245671D01*
X272163Y246663D01*
X271171Y247326D01*
X270000Y247559D01*
X260914D01*
X260732Y247689D01*
X258799Y249352D01*
X242576Y265576D01*
X240591Y266902D01*
X238250Y267367D01*
X196060D01*
X195039Y268500D01*
Y271250D01*
X188000D01*
X180961D01*
Y268500D01*
X179940Y267367D01*
X175627D01*
X175180Y267407D01*
X174539Y267513D01*
X174084Y267635D01*
X174059Y267645D01*
Y269250D01*
X173826Y270420D01*
X173163Y271413D01*
X172171Y272076D01*
X171000Y272309D01*
X163000D01*
X161829Y272076D01*
X160837Y271413D01*
X160174Y270420D01*
X160147Y270287D01*
X158853D01*
X158826Y270420D01*
X158163Y271413D01*
X157171Y272076D01*
X156000Y272309D01*
X148000D01*
X146830Y272076D01*
X145837Y271413D01*
X145174Y270420D01*
X144941Y269250D01*
Y263763D01*
X144811Y263466D01*
X144456Y262838D01*
X143987Y262146D01*
X142737Y260639D01*
X140191Y258093D01*
X140067Y257994D01*
X139500Y258069D01*
X137412Y257794D01*
X135465Y256988D01*
X133794Y255706D01*
X132512Y254035D01*
X131706Y252088D01*
X131431Y250000D01*
X131706Y247912D01*
X132278Y246530D01*
X131738Y245929D01*
X131288Y245602D01*
X130250Y245809D01*
X128395D01*
X128385Y245833D01*
X128263Y246289D01*
X128157Y246930D01*
X128118Y247377D01*
Y249498D01*
X128219Y250771D01*
X128262Y251053D01*
X128313Y251087D01*
X128767Y251768D01*
X128787Y251790D01*
X128791Y251802D01*
X128976Y252080D01*
X129127Y252841D01*
X129155Y252925D01*
X129152Y252963D01*
X129209Y253250D01*
Y269250D01*
X128976Y270420D01*
X128313Y271413D01*
X127320Y272076D01*
X126150Y272309D01*
X117850D01*
X116679Y272076D01*
X115687Y271413D01*
X115099Y270532D01*
X114425Y270471D01*
X113751Y270532D01*
X113163Y271413D01*
X112170Y272076D01*
X111000Y272309D01*
X103000D01*
X101830Y272076D01*
X100837Y271413D01*
X100174Y270420D01*
X99941Y269250D01*
Y264397D01*
X99912Y264385D01*
X99457Y264263D01*
X98817Y264157D01*
X98370Y264118D01*
X73534D01*
X42326Y295326D01*
X40341Y296652D01*
X38000Y297118D01*
D02*
G37*
G36*
X162000Y291907D02*
X161705Y291848D01*
X161403D01*
X159452Y291460D01*
X158350Y291003D01*
X156696Y289898D01*
X155852Y289054D01*
X154747Y287400D01*
X154290Y286298D01*
X153902Y284347D01*
Y283153D01*
X154290Y281202D01*
X154747Y280100D01*
X155852Y278446D01*
X156696Y277602D01*
X158350Y276497D01*
X159452Y276040D01*
X161403Y275652D01*
X161705D01*
X162000Y275593D01*
X162295Y275652D01*
X162597D01*
X164548Y276040D01*
X165650Y276497D01*
X167304Y277602D01*
X168148Y278446D01*
X169253Y280100D01*
X169710Y281202D01*
X170098Y283153D01*
Y284347D01*
X169710Y286298D01*
X169253Y287400D01*
X168148Y289054D01*
X167304Y289898D01*
X165650Y291003D01*
X164548Y291460D01*
X162597Y291848D01*
X162295D01*
X162000Y291907D01*
D02*
G37*
G36*
X112000D02*
X111705Y291848D01*
X111403D01*
X109452Y291460D01*
X108350Y291003D01*
X106696Y289898D01*
X105852Y289054D01*
X104747Y287400D01*
X104290Y286298D01*
X103902Y284347D01*
Y283153D01*
X104290Y281202D01*
X104747Y280100D01*
X105852Y278446D01*
X106696Y277602D01*
X108350Y276497D01*
X109452Y276040D01*
X111403Y275652D01*
X111705D01*
X112000Y275593D01*
X112296Y275652D01*
X112597D01*
X114548Y276040D01*
X115650Y276497D01*
X117304Y277602D01*
X118148Y278446D01*
X119253Y280100D01*
X119710Y281202D01*
X120098Y283153D01*
Y284347D01*
X119710Y286298D01*
X119253Y287400D01*
X118148Y289054D01*
X117304Y289898D01*
X115650Y291003D01*
X114548Y291460D01*
X112597Y291848D01*
X112296D01*
X112000Y291907D01*
D02*
G37*
G36*
X-170500Y288289D02*
X-178750D01*
Y281000D01*
X-168461D01*
Y286250D01*
X-168616Y287030D01*
X-169058Y287692D01*
X-169720Y288134D01*
X-170500Y288289D01*
D02*
G37*
G36*
X-181750D02*
X-190000D01*
X-190780Y288134D01*
X-191442Y287692D01*
X-191884Y287030D01*
X-192039Y286250D01*
Y281000D01*
X-181750D01*
Y288289D01*
D02*
G37*
G36*
X60000Y-301931D02*
X57912Y-302206D01*
X55965Y-303012D01*
X54294Y-304294D01*
X53012Y-305965D01*
X52206Y-307912D01*
X51931Y-310000D01*
X52206Y-312088D01*
X53012Y-314035D01*
X54294Y-315706D01*
X55965Y-316988D01*
X57912Y-317794D01*
X60000Y-318069D01*
X62088Y-317794D01*
X64035Y-316988D01*
X65706Y-315706D01*
X66988Y-314035D01*
X67794Y-312088D01*
X68069Y-310000D01*
X67794Y-307912D01*
X66988Y-305965D01*
X65706Y-304294D01*
X64035Y-303012D01*
X62088Y-302206D01*
X60000Y-301931D01*
D02*
G37*
G36*
X-121500Y-269211D02*
X-130500D01*
X-131280Y-269366D01*
X-131942Y-269808D01*
X-132384Y-270470D01*
X-132539Y-271250D01*
Y-280500D01*
X-121500D01*
Y-269211D01*
D02*
G37*
G36*
X-109500D02*
X-118500D01*
Y-280500D01*
X-107461D01*
Y-271250D01*
X-107616Y-270470D01*
X-108058Y-269808D01*
X-108720Y-269366D01*
X-109500Y-269211D01*
D02*
G37*
G36*
X-246250Y-274711D02*
X-265500D01*
X-266280Y-274866D01*
X-266942Y-275308D01*
X-267384Y-275970D01*
X-267539Y-276750D01*
Y-286250D01*
X-246250D01*
Y-274711D01*
D02*
G37*
G36*
X-224000D02*
X-243250D01*
Y-286250D01*
X-221961D01*
Y-276750D01*
X-222116Y-275970D01*
X-222558Y-275308D01*
X-223220Y-274866D01*
X-224000Y-274711D01*
D02*
G37*
G36*
X130000Y-236913D02*
X126471Y-237260D01*
X123078Y-238290D01*
X119951Y-239961D01*
X117211Y-242211D01*
X114961Y-244951D01*
X113290Y-248078D01*
X112261Y-251471D01*
X111913Y-255000D01*
Y-260246D01*
X111910Y-260270D01*
X111858Y-260418D01*
X111770Y-260550D01*
X111557Y-260747D01*
X111125Y-261010D01*
X110426Y-261295D01*
X109451Y-261557D01*
X108210Y-261763D01*
X106716Y-261895D01*
X105335Y-261931D01*
X89250D01*
X87162Y-262206D01*
X85216Y-263012D01*
X83544Y-264294D01*
X73908Y-273931D01*
X53117D01*
X51736Y-273895D01*
X50241Y-273763D01*
X49000Y-273557D01*
X48025Y-273295D01*
X47326Y-273010D01*
X46894Y-272747D01*
X46682Y-272550D01*
X46593Y-272418D01*
X46559Y-272320D01*
Y-271250D01*
X46326Y-270079D01*
X45663Y-269087D01*
X44671Y-268424D01*
X43500Y-268191D01*
X22500D01*
X21330Y-268424D01*
X20337Y-269087D01*
X19674Y-270079D01*
X19441Y-271250D01*
Y-292750D01*
X19674Y-293920D01*
X20337Y-294913D01*
X21330Y-295576D01*
X22500Y-295809D01*
X43500D01*
X44671Y-295576D01*
X45663Y-294913D01*
X46326Y-293920D01*
X46559Y-292750D01*
Y-291679D01*
X46593Y-291582D01*
X46682Y-291450D01*
X46894Y-291253D01*
X47326Y-290990D01*
X48025Y-290705D01*
X49000Y-290443D01*
X50241Y-290237D01*
X51736Y-290105D01*
X53117Y-290069D01*
X77250D01*
X79338Y-289794D01*
X81285Y-288988D01*
X82956Y-287706D01*
X92592Y-278069D01*
X105335D01*
X106716Y-278105D01*
X108210Y-278237D01*
X109451Y-278443D01*
X110426Y-278705D01*
X111125Y-278990D01*
X111557Y-279253D01*
X111770Y-279450D01*
X111858Y-279582D01*
X111910Y-279730D01*
X111913Y-279754D01*
Y-285000D01*
X112261Y-288529D01*
X113290Y-291922D01*
X114961Y-295049D01*
X117211Y-297789D01*
X119951Y-300039D01*
X123078Y-301710D01*
X126471Y-302740D01*
X130000Y-303087D01*
X133529Y-302740D01*
X136922Y-301710D01*
X140049Y-300039D01*
X142789Y-297789D01*
X145039Y-295049D01*
X146710Y-291922D01*
X147739Y-288529D01*
X148087Y-285000D01*
Y-255000D01*
X147739Y-251471D01*
X146710Y-248078D01*
X145039Y-244951D01*
X142789Y-242211D01*
X140049Y-239961D01*
X136922Y-238290D01*
X133529Y-237260D01*
X130000Y-236913D01*
D02*
G37*
G36*
X-266000Y237039D02*
X-275500D01*
X-276280Y236884D01*
X-276942Y236442D01*
X-277384Y235780D01*
X-277539Y235000D01*
Y215750D01*
X-266000D01*
Y237039D01*
D02*
G37*
G36*
X181500Y-238065D02*
Y-268500D01*
X197082D01*
Y-255000D01*
X196754Y-251667D01*
X195782Y-248463D01*
X194203Y-245510D01*
X192079Y-242921D01*
X189490Y-240797D01*
X186537Y-239218D01*
X183333Y-238246D01*
X181500Y-238065D01*
D02*
G37*
G36*
X178500D02*
X176667Y-238246D01*
X173463Y-239218D01*
X170510Y-240797D01*
X167921Y-242921D01*
X165797Y-245510D01*
X164218Y-248463D01*
X163246Y-251667D01*
X162918Y-255000D01*
Y-268500D01*
X178500D01*
Y-238065D01*
D02*
G37*
G36*
X-253500Y237039D02*
X-263000D01*
Y215750D01*
X-251461D01*
Y235000D01*
X-251616Y235780D01*
X-252058Y236442D01*
X-252720Y236884D01*
X-253500Y237039D01*
D02*
G37*
G36*
X-107461Y-283500D02*
X-118500D01*
Y-294789D01*
X-109500D01*
X-108720Y-294634D01*
X-108058Y-294192D01*
X-107616Y-293530D01*
X-107461Y-292750D01*
Y-283500D01*
D02*
G37*
G36*
X-121500D02*
X-132539D01*
Y-292750D01*
X-132384Y-293530D01*
X-131942Y-294192D01*
X-131280Y-294634D01*
X-130500Y-294789D01*
X-121500D01*
Y-283500D01*
D02*
G37*
G36*
X-270000Y273069D02*
X-272088Y272794D01*
X-274035Y271988D01*
X-275706Y270706D01*
X-276988Y269035D01*
X-277794Y267088D01*
X-278069Y265000D01*
X-277794Y262912D01*
X-276988Y260965D01*
X-275706Y259294D01*
X-274035Y258012D01*
X-272088Y257206D01*
X-270000Y256931D01*
X-267912Y257206D01*
X-265965Y258012D01*
X-264294Y259294D01*
X-263012Y260965D01*
X-262206Y262912D01*
X-261931Y265000D01*
X-262206Y267088D01*
X-263012Y269035D01*
X-264294Y270706D01*
X-265965Y271988D01*
X-267912Y272794D01*
X-270000Y273069D01*
D02*
G37*
%LPD*%
G36*
X-126995Y-191563D02*
X-126875Y-193327D01*
X-126820Y-193645D01*
X-126755Y-193915D01*
X-126680Y-194135D01*
X-126595Y-194307D01*
X-126500Y-194429D01*
X-133500D01*
X-133405Y-194307D01*
X-133320Y-194135D01*
X-133245Y-193915D01*
X-133180Y-193645D01*
X-133125Y-193327D01*
X-133045Y-192543D01*
X-133005Y-191563D01*
X-133000Y-191000D01*
X-127000D01*
X-126995Y-191563D01*
D02*
G37*
G36*
X-112095Y-154193D02*
X-112180Y-154365D01*
X-112255Y-154585D01*
X-112320Y-154855D01*
X-112375Y-155173D01*
X-112455Y-155957D01*
X-112495Y-156937D01*
X-112500Y-157500D01*
X-118500D01*
X-118505Y-156937D01*
X-118625Y-155173D01*
X-118680Y-154855D01*
X-118745Y-154585D01*
X-118820Y-154365D01*
X-118905Y-154193D01*
X-119000Y-154071D01*
X-112000D01*
X-112095Y-154193D01*
D02*
G37*
G36*
X-276107Y-195628D02*
X-272017Y-199192D01*
X-271204Y-199765D01*
X-270473Y-200210D01*
X-269827Y-200529D01*
X-269263Y-200719D01*
X-268783Y-200783D01*
X-280217D01*
X-280252Y-200604D01*
X-280356Y-200371D01*
X-280531Y-200083D01*
X-280775Y-199741D01*
X-281472Y-198892D01*
X-282448Y-197825D01*
X-283702Y-196540D01*
X-277338Y-194419D01*
X-276107Y-195628D01*
D02*
G37*
G36*
X295392Y-81569D02*
Y-93319D01*
X294505Y-93680D01*
X294122Y-93762D01*
X293530Y-93366D01*
X292750Y-93211D01*
X287500D01*
Y-105000D01*
X286000D01*
Y-106500D01*
X277211D01*
Y-108472D01*
X275941Y-108904D01*
X274272Y-106728D01*
X271556Y-104644D01*
X268394Y-103335D01*
X265000Y-102888D01*
X261606Y-103335D01*
X259616Y-104159D01*
X258896Y-103083D01*
X268616Y-93363D01*
X269942Y-91378D01*
X270408Y-89037D01*
Y-86494D01*
X272734Y-84168D01*
X289000D01*
X291341Y-83702D01*
X293326Y-82376D01*
X294122Y-81184D01*
X295392Y-81569D01*
D02*
G37*
G36*
X-328753Y-83320D02*
X-328572Y-83830D01*
X-328271Y-84280D01*
X-327849Y-84670D01*
X-327306Y-85000D01*
X-326642Y-85270D01*
X-325859Y-85480D01*
X-324954Y-85630D01*
X-323929Y-85720D01*
X-322783Y-85750D01*
Y-91750D01*
X-323929Y-91780D01*
X-324954Y-91870D01*
X-325859Y-92020D01*
X-326642Y-92230D01*
X-327306Y-92500D01*
X-327849Y-92830D01*
X-328271Y-93220D01*
X-328572Y-93670D01*
X-328753Y-94180D01*
X-328814Y-94750D01*
Y-82750D01*
X-328753Y-83320D01*
D02*
G37*
G36*
X-105161Y-83512D02*
X-105136Y-83780D01*
X-105096Y-84038D01*
X-105039Y-84288D01*
X-104967Y-84528D01*
X-104878Y-84758D01*
X-104773Y-84980D01*
X-104652Y-85193D01*
X-104515Y-85396D01*
X-104361Y-85590D01*
X-111976D01*
X-111823Y-85396D01*
X-111685Y-85193D01*
X-111564Y-84980D01*
X-111459Y-84758D01*
X-111370Y-84528D01*
X-111298Y-84288D01*
X-111241Y-84038D01*
X-111201Y-83780D01*
X-111177Y-83512D01*
X-111169Y-83236D01*
X-105169D01*
X-105161Y-83512D01*
D02*
G37*
G36*
X318866Y-71613D02*
X319767Y-72335D01*
X320704Y-72971D01*
X321675Y-73523D01*
X322682Y-73989D01*
X323724Y-74371D01*
X324801Y-74668D01*
X325913Y-74880D01*
X327060Y-75008D01*
X328243Y-75050D01*
Y-81050D01*
X327060Y-81092D01*
X325913Y-81220D01*
X324801Y-81432D01*
X323724Y-81729D01*
X322682Y-82111D01*
X321675Y-82577D01*
X320704Y-83129D01*
X319767Y-83765D01*
X318866Y-84487D01*
X318000Y-85293D01*
X312629Y-82179D01*
X313371Y-81352D01*
X313945Y-80523D01*
X314352Y-79691D01*
X314592Y-78857D01*
X314664Y-78021D01*
X314569Y-77183D01*
X314307Y-76343D01*
X313877Y-75500D01*
X313279Y-74655D01*
X312515Y-73807D01*
X318000Y-70807D01*
X318866Y-71613D01*
D02*
G37*
G36*
X-309887Y105112D02*
X-310059Y104250D01*
Y83250D01*
X-309968Y82792D01*
X-309968Y82690D01*
X-309928Y82595D01*
X-309826Y82079D01*
X-309538Y81648D01*
X-309512Y81587D01*
X-309465Y81539D01*
X-309163Y81087D01*
X-308716Y80789D01*
X-308669Y80742D01*
X-308608Y80716D01*
X-308171Y80424D01*
X-307935Y80377D01*
X-307913Y80333D01*
X-307700Y79671D01*
X-307505Y78764D01*
X-307280Y76197D01*
X-323989Y59489D01*
X-325672Y57295D01*
X-326730Y54741D01*
X-327091Y52000D01*
X-327091Y52000D01*
Y35950D01*
X-327131Y34013D01*
X-327345Y30906D01*
X-327695Y28119D01*
X-328175Y25656D01*
X-328774Y23524D01*
X-329476Y21726D01*
X-329891Y20950D01*
X-334427Y16413D01*
X-336711Y13436D01*
X-338147Y9970D01*
X-338637Y6250D01*
X-338147Y2530D01*
X-336711Y-936D01*
X-334427Y-3913D01*
X-288809Y-49531D01*
X-288809Y-83354D01*
X-290079Y-83739D01*
X-291024Y-82324D01*
X-314174Y-59174D01*
X-316159Y-57848D01*
X-318500Y-57382D01*
X-359383D01*
Y75216D01*
X-328216Y106383D01*
X-310594D01*
X-309887Y105112D01*
D02*
G37*
G36*
X317780Y-90427D02*
X317870Y-91451D01*
X318020Y-92355D01*
X318230Y-93139D01*
X318500Y-93802D01*
X318830Y-94345D01*
X319220Y-94767D01*
X319670Y-95070D01*
X320180Y-95252D01*
X320750Y-95314D01*
X309283Y-95283D01*
X309752Y-95223D01*
X310171Y-95043D01*
X310541Y-94743D01*
X310862Y-94323D01*
X311133Y-93783D01*
X311355Y-93123D01*
X311528Y-92343D01*
X311651Y-91443D01*
X311725Y-90423D01*
X311750Y-89283D01*
X317750D01*
X317780Y-90427D01*
D02*
G37*
G36*
X-329157Y-99277D02*
X-329491Y-99457D01*
X-329786Y-99757D01*
X-330042Y-100177D01*
X-330258Y-100717D01*
X-330435Y-101377D01*
X-330573Y-102157D01*
X-330671Y-103057D01*
X-330750Y-105217D01*
X-336750D01*
X-336780Y-104077D01*
X-336870Y-103057D01*
X-337020Y-102157D01*
X-337230Y-101377D01*
X-337500Y-100717D01*
X-337830Y-100177D01*
X-338220Y-99757D01*
X-338670Y-99457D01*
X-339180Y-99277D01*
X-339750Y-99217D01*
X-328783D01*
X-329157Y-99277D01*
D02*
G37*
G36*
X-221250Y-54000D02*
X-221000Y-82750D01*
X-235750Y-97500D01*
X-272500Y-97500D01*
X-279750Y-104750D01*
X-279750Y-112500D01*
X-285750D01*
X-285750Y-47538D01*
X-284802Y-46692D01*
X-221250Y-54000D01*
D02*
G37*
G36*
X-267541Y-106051D02*
X-266577Y-106628D01*
X-265560Y-107137D01*
X-264490Y-107578D01*
X-263367Y-107951D01*
X-262190Y-108257D01*
X-260961Y-108495D01*
X-259679Y-108664D01*
X-258343Y-108766D01*
X-256955Y-108800D01*
Y-118800D01*
X-258484Y-118828D01*
X-261289Y-119052D01*
X-262566Y-119247D01*
X-263758Y-119499D01*
X-264865Y-119806D01*
X-265889Y-120169D01*
X-266828Y-120588D01*
X-267682Y-121063D01*
X-268452Y-121594D01*
Y-105406D01*
X-267541Y-106051D01*
D02*
G37*
G36*
X109080Y-97869D02*
X108275Y-97347D01*
X107388Y-97046D01*
X106420Y-96967D01*
X105370Y-97109D01*
X104238Y-97472D01*
X103025Y-98056D01*
X101730Y-98862D01*
X100354Y-99888D01*
X98896Y-101136D01*
X97356Y-102605D01*
X88456Y-97225D01*
X90126Y-95486D01*
X92697Y-92360D01*
X93599Y-90971D01*
X94244Y-89700D01*
X94634Y-88545D01*
X94768Y-87506D01*
X94646Y-86584D01*
X94268Y-85779D01*
X93634Y-85090D01*
X109080Y-97869D01*
D02*
G37*
G36*
X-29167Y-96152D02*
X-19603Y-98548D01*
X-15912Y-99096D01*
X-16006Y-100366D01*
X-31250D01*
X-31448Y-100405D01*
X-31649Y-100392D01*
X-33933Y-100693D01*
X-34312Y-100821D01*
X-34705Y-100899D01*
X-36833Y-101781D01*
X-37166Y-102003D01*
X-37525Y-102180D01*
X-39353Y-103583D01*
X-39616Y-103884D01*
X-39917Y-104147D01*
X-41320Y-105975D01*
X-41497Y-106334D01*
X-41719Y-106667D01*
X-42601Y-108795D01*
X-42679Y-109188D01*
X-42807Y-109566D01*
X-43108Y-111851D01*
X-43082Y-112250D01*
X-43108Y-112649D01*
X-42807Y-114934D01*
X-42679Y-115312D01*
X-42601Y-115705D01*
X-41719Y-117833D01*
X-41497Y-118166D01*
X-41320Y-118525D01*
X-39917Y-120353D01*
X-39616Y-120616D01*
X-39353Y-120917D01*
X-37525Y-122320D01*
X-37166Y-122497D01*
X-36833Y-122719D01*
X-34705Y-123601D01*
X-34312Y-123679D01*
X-33933Y-123807D01*
X-33509Y-123863D01*
X-32709Y-125250D01*
X-33262Y-126585D01*
X-33580Y-129000D01*
Y-141500D01*
X-33262Y-143915D01*
X-32330Y-146165D01*
X-31160Y-147690D01*
X-31876Y-148842D01*
X-35558Y-148110D01*
X-47069Y-144863D01*
X-56035Y-141556D01*
X-57211Y-141121D01*
X-58400Y-140673D01*
X-69151Y-135716D01*
X-79586Y-129873D01*
X-89530Y-123228D01*
X-98923Y-115824D01*
X-107705Y-107705D01*
X-112924Y-102059D01*
X-112878Y-101850D01*
X-112278Y-100887D01*
X-111381Y-101063D01*
X-110228Y-101364D01*
X-109112Y-101733D01*
X-108030Y-102168D01*
X-106979Y-102671D01*
X-105958Y-103244D01*
X-104965Y-103887D01*
X-103999Y-104602D01*
X-103057Y-105392D01*
X-102370Y-106041D01*
X-93706Y-114706D01*
X-92035Y-115988D01*
X-90088Y-116794D01*
X-88000Y-117069D01*
X-73118D01*
X-71029Y-116794D01*
X-69083Y-115988D01*
X-67412Y-114706D01*
X-45775Y-93069D01*
X-37785D01*
X-29167Y-96152D01*
D02*
G37*
G36*
X-95066Y-89143D02*
X-95620Y-89789D01*
X-95924Y-90545D01*
X-95976Y-91411D01*
X-95776Y-92387D01*
X-95326Y-93473D01*
X-94624Y-94669D01*
X-93671Y-95975D01*
X-92467Y-97391D01*
X-91012Y-98917D01*
X-99978Y-104094D01*
X-101023Y-103107D01*
X-102104Y-102199D01*
X-103223Y-101372D01*
X-104377Y-100624D01*
X-105569Y-99956D01*
X-106797Y-99367D01*
X-108061Y-98858D01*
X-109362Y-98429D01*
X-110700Y-98080D01*
X-112074Y-97810D01*
X-94261Y-88607D01*
X-95066Y-89143D01*
D02*
G37*
G36*
X137944Y-33244D02*
X137444Y-35296D01*
X137093Y-37174D01*
X136891Y-38877D01*
X136838Y-40406D01*
X136935Y-41760D01*
X137180Y-42940D01*
X137575Y-43945D01*
X138119Y-44776D01*
X138812Y-45432D01*
X139654Y-45913D01*
X121295Y-38019D01*
X122353Y-37550D01*
X123345Y-36967D01*
X124269Y-36268D01*
X125125Y-35454D01*
X125915Y-34525D01*
X126637Y-33481D01*
X127292Y-32322D01*
X127880Y-31048D01*
X128400Y-29659D01*
X128853Y-28155D01*
X137944Y-33244D01*
D02*
G37*
G36*
X-128372Y-29597D02*
X-127852Y-30966D01*
X-127261Y-32223D01*
X-126598Y-33370D01*
X-125864Y-34405D01*
X-125057Y-35329D01*
X-124180Y-36142D01*
X-123230Y-36845D01*
X-122209Y-37436D01*
X-121117Y-37916D01*
X-139604Y-45947D01*
X-138763Y-45461D01*
X-138071Y-44801D01*
X-137528Y-43966D01*
X-137135Y-42956D01*
X-136890Y-41771D01*
X-136795Y-40411D01*
X-136849Y-38877D01*
X-137053Y-37167D01*
X-137405Y-35282D01*
X-137907Y-33223D01*
X-128820Y-28118D01*
X-128372Y-29597D01*
D02*
G37*
G36*
X144933Y45615D02*
X147655Y35963D01*
X147657Y35894D01*
X148282Y31928D01*
X148878Y29907D01*
X149977Y28110D01*
X151504Y26659D01*
X158799Y21350D01*
X160649Y20343D01*
X162697Y19850D01*
X164803Y19903D01*
X169385Y20625D01*
X171573Y16835D01*
X171910Y16451D01*
X171966Y16357D01*
X172041Y16301D01*
X172360Y15938D01*
X172587Y15825D01*
X176077Y10662D01*
X176940Y9184D01*
X177574Y8366D01*
X178204Y7544D01*
X178218Y7533D01*
X178229Y7519D01*
X179054Y6892D01*
X179875Y6262D01*
X179892Y6255D01*
X179906Y6244D01*
X180865Y5852D01*
X181821Y5456D01*
X181839Y5454D01*
X181856Y5447D01*
X182883Y5316D01*
X183909Y5181D01*
X217327D01*
X223046Y5078D01*
X224872Y4948D01*
X225244Y4898D01*
X225579Y4674D01*
X226214Y4548D01*
X226319Y4510D01*
X226391Y4513D01*
X226750Y4441D01*
X234250D01*
X235420Y4674D01*
X236413Y5337D01*
X237076Y6330D01*
X237309Y7500D01*
Y18882D01*
X242691D01*
Y7500D01*
X242924Y6330D01*
X243221Y5885D01*
X243382Y3377D01*
Y-14500D01*
X243848Y-16841D01*
X245174Y-18826D01*
X270624Y-44276D01*
X272101Y-45262D01*
X271716Y-46532D01*
X257684D01*
X256326Y-45174D01*
X254341Y-43848D01*
X252000Y-43383D01*
X248804D01*
X248407Y-43351D01*
X247749Y-43251D01*
X247274Y-43136D01*
X247180Y-43101D01*
X247076Y-42579D01*
X246892Y-42305D01*
X246889Y-42294D01*
X246872Y-42274D01*
X246413Y-41587D01*
X246123Y-41393D01*
X246116Y-41385D01*
X246092Y-41373D01*
X245420Y-40924D01*
X245086Y-40858D01*
X245054Y-40841D01*
X244967Y-40834D01*
X244250Y-40691D01*
X241395D01*
X241385Y-40666D01*
X241263Y-40211D01*
X241157Y-39570D01*
X241118Y-39123D01*
Y-36000D01*
X240652Y-33659D01*
X239326Y-31674D01*
X234576Y-26924D01*
X232591Y-25598D01*
X230250Y-25133D01*
X226615D01*
X226343Y-25115D01*
X225643Y-25028D01*
X225120Y-24924D01*
X225093Y-24916D01*
X225076Y-24829D01*
X224861Y-24508D01*
X224850Y-24476D01*
X224810Y-24431D01*
X224413Y-23837D01*
X224076Y-23612D01*
X224053Y-23587D01*
X224000Y-23561D01*
X223421Y-23174D01*
X223033Y-23097D01*
X222977Y-23070D01*
X222869Y-23064D01*
X222250Y-22941D01*
X214750D01*
X213580Y-23174D01*
X212587Y-23837D01*
X211924Y-24829D01*
X211691Y-26000D01*
Y-30955D01*
X211632Y-31250D01*
X211691Y-31545D01*
Y-37500D01*
X211924Y-38670D01*
X212587Y-39663D01*
X213580Y-40326D01*
X214750Y-40559D01*
X222250D01*
X223090Y-40392D01*
X223586Y-41585D01*
X223587Y-41588D01*
X222924Y-42579D01*
X222691Y-43750D01*
Y-55250D01*
X222924Y-56420D01*
X223587Y-57413D01*
X224580Y-58076D01*
X225750Y-58309D01*
X244250D01*
X244967Y-58166D01*
X245054Y-58159D01*
X245086Y-58142D01*
X245420Y-58076D01*
X246092Y-57627D01*
X246116Y-57615D01*
X246123Y-57607D01*
X246413Y-57413D01*
X246872Y-56726D01*
X246889Y-56706D01*
X246892Y-56695D01*
X247076Y-56420D01*
X247180Y-55899D01*
X247274Y-55865D01*
X247749Y-55749D01*
X248407Y-55649D01*
X248804Y-55617D01*
X249466D01*
X250824Y-56976D01*
X252809Y-58302D01*
X255150Y-58767D01*
X260666D01*
X261051Y-60037D01*
X259574Y-61024D01*
X251424Y-69174D01*
X250098Y-71159D01*
X249632Y-73500D01*
Y-82966D01*
X247559Y-85039D01*
X246289Y-84513D01*
Y-82000D01*
X235000D01*
X223711D01*
Y-86250D01*
X223866Y-87030D01*
X224308Y-87692D01*
X224970Y-88134D01*
X225750Y-88289D01*
X227900D01*
X228386Y-89462D01*
X206424Y-111424D01*
X205098Y-113409D01*
X204632Y-115750D01*
Y-145250D01*
X205098Y-147591D01*
X206424Y-149576D01*
X207189Y-150341D01*
X206398Y-151345D01*
X205028Y-150506D01*
X200229Y-148518D01*
X195178Y-147305D01*
X190000Y-146898D01*
X184822Y-147305D01*
X179771Y-148518D01*
X174972Y-150506D01*
X170543Y-153220D01*
X166593Y-156593D01*
X163220Y-160543D01*
X160506Y-164972D01*
X158518Y-169771D01*
X157305Y-174822D01*
X157000Y-178708D01*
X155695Y-179094D01*
X154918Y-178081D01*
X152965Y-176583D01*
X150880Y-175719D01*
X148206Y-173044D01*
X146535Y-171762D01*
X144588Y-170956D01*
X142500Y-170681D01*
X126842D01*
X119646Y-163484D01*
Y-147614D01*
X119678Y-146188D01*
X119802Y-144437D01*
X120316Y-140920D01*
X120682Y-139305D01*
X121138Y-137695D01*
X121677Y-136127D01*
X122297Y-134599D01*
X123000Y-133109D01*
X123234Y-132676D01*
X123830Y-131644D01*
X124011Y-131110D01*
X124064Y-131011D01*
X124072Y-130932D01*
X124214Y-130513D01*
X124173Y-129892D01*
X124180Y-129823D01*
X124165Y-129776D01*
X124136Y-129323D01*
X123852Y-128748D01*
X123832Y-128681D01*
X123801Y-128643D01*
X123608Y-128252D01*
X123146Y-127847D01*
X123074Y-127760D01*
X123004Y-127722D01*
X122711Y-127465D01*
X112751Y-121715D01*
X111621Y-121332D01*
X110430Y-121410D01*
X109360Y-121938D01*
X108573Y-122835D01*
X108573Y-122835D01*
X105828Y-127589D01*
X104777Y-127918D01*
X103384Y-128203D01*
X99407Y-128575D01*
X97528Y-128612D01*
X83805D01*
X81716Y-128887D01*
X79770Y-129693D01*
X79770Y-129693D01*
X79770D01*
X79600Y-129824D01*
X78514Y-130473D01*
X69151Y-135716D01*
X58290Y-140724D01*
X47069Y-144863D01*
X35558Y-148110D01*
X31876Y-148842D01*
X31160Y-147690D01*
X32330Y-146165D01*
X33262Y-143915D01*
X33504Y-142077D01*
X33635Y-141909D01*
X34172Y-141426D01*
X34984Y-140874D01*
X36077Y-140291D01*
X37445Y-139703D01*
X39080Y-139126D01*
X41041Y-138551D01*
X41209Y-138463D01*
X41393Y-138423D01*
X41443Y-138389D01*
X44670Y-137479D01*
X55318Y-133551D01*
X65626Y-128799D01*
X75529Y-123252D01*
X84967Y-116947D01*
X93880Y-109920D01*
X99087Y-105107D01*
X99169Y-105068D01*
X99302Y-104923D01*
X99468Y-104818D01*
X100948Y-103406D01*
X102265Y-102279D01*
X103455Y-101391D01*
X104501Y-100740D01*
X105374Y-100320D01*
X106047Y-100104D01*
X106258Y-100076D01*
X108219Y-100888D01*
X110634Y-101206D01*
X113049Y-100888D01*
X115299Y-99956D01*
X117231Y-98473D01*
X118714Y-96541D01*
X124964Y-85716D01*
X125896Y-83465D01*
X126214Y-81051D01*
X125896Y-78636D01*
X124964Y-76386D01*
X123481Y-74454D01*
X121549Y-72971D01*
X110724Y-66721D01*
X108474Y-65789D01*
X107206Y-65622D01*
X106531Y-64252D01*
X108909Y-60132D01*
X110434Y-60032D01*
X111212Y-61046D01*
X113144Y-62529D01*
X123969Y-68779D01*
X126219Y-69711D01*
X128634Y-70029D01*
X131049Y-69711D01*
X133299Y-68779D01*
X135231Y-67296D01*
X136714Y-65364D01*
X142964Y-54539D01*
X143896Y-52289D01*
X144214Y-49874D01*
X143896Y-47459D01*
X142964Y-45209D01*
X142083Y-44061D01*
X142073Y-44041D01*
X142057Y-44027D01*
X141481Y-43277D01*
X140218Y-42308D01*
X140122Y-42063D01*
X139971Y-41338D01*
X139901Y-40350D01*
X139944Y-39110D01*
X140118Y-37636D01*
X140435Y-35940D01*
X140600Y-35263D01*
X140998Y-33851D01*
X142397Y-26822D01*
X143683Y-26864D01*
X143891Y-28441D01*
X144833Y-30715D01*
X146332Y-32668D01*
X148285Y-34167D01*
X150559Y-35109D01*
X153000Y-35431D01*
X153781Y-35328D01*
X181566Y-50610D01*
X182787Y-51369D01*
X183805Y-52188D01*
X184536Y-52982D01*
X185023Y-53740D01*
X185316Y-54485D01*
X185454Y-55273D01*
X185435Y-56173D01*
X185225Y-57232D01*
X184784Y-58462D01*
X184141Y-59739D01*
X183664Y-60528D01*
X182961Y-61563D01*
X182223Y-61397D01*
X181709Y-61108D01*
X181432Y-59003D01*
X181304Y-58624D01*
X181226Y-58232D01*
X180344Y-56103D01*
X180122Y-55771D01*
X179945Y-55412D01*
X178542Y-53584D01*
X178242Y-53320D01*
X177978Y-53019D01*
X176150Y-51617D01*
X175791Y-51440D01*
X175458Y-51218D01*
X173330Y-50336D01*
X172937Y-50258D01*
X172558Y-50129D01*
X170274Y-49829D01*
X169875Y-49855D01*
X169476Y-49829D01*
X167192Y-50129D01*
X166813Y-50258D01*
X166420Y-50336D01*
X164292Y-51218D01*
X163959Y-51440D01*
X163600Y-51617D01*
X161772Y-53019D01*
X161509Y-53320D01*
X161208Y-53584D01*
X159805Y-55412D01*
X159716Y-55593D01*
X159583Y-55745D01*
X128333Y-109871D01*
X128268Y-110062D01*
X128156Y-110230D01*
X127274Y-112359D01*
X127196Y-112751D01*
X127068Y-113130D01*
X126767Y-115414D01*
X126793Y-115813D01*
X126767Y-116213D01*
X127068Y-118497D01*
X127196Y-118876D01*
X127274Y-119268D01*
X128156Y-121397D01*
X128378Y-121729D01*
X128555Y-122088D01*
X129958Y-123916D01*
X130259Y-124180D01*
X130522Y-124480D01*
X132350Y-125883D01*
X132709Y-126060D01*
X133042Y-126282D01*
X135170Y-127164D01*
X135563Y-127242D01*
X135942Y-127371D01*
X138226Y-127671D01*
X138625Y-127645D01*
X139024Y-127671D01*
X141308Y-127371D01*
X141687Y-127242D01*
X142080Y-127164D01*
X142819Y-126858D01*
X143120Y-127060D01*
X143703Y-127866D01*
X143392Y-128385D01*
X141727Y-131049D01*
X140163Y-133463D01*
X138618Y-135622D01*
X138030Y-136354D01*
X137561Y-136872D01*
X137539Y-136892D01*
X137277Y-136910D01*
X136207Y-137438D01*
X135420Y-138335D01*
X135420Y-138335D01*
X126170Y-154356D01*
X125786Y-155486D01*
X125864Y-156677D01*
X126392Y-157748D01*
X127289Y-158535D01*
X137249Y-164285D01*
X138379Y-164668D01*
X139570Y-164590D01*
X140640Y-164062D01*
X141427Y-163165D01*
X141427Y-163165D01*
X150414Y-147599D01*
X157108Y-136888D01*
X157603Y-136142D01*
X158319Y-135182D01*
X159067Y-134292D01*
X159846Y-133471D01*
X160474Y-132888D01*
X160610Y-132928D01*
X161574Y-133612D01*
X161568Y-133630D01*
X161267Y-135914D01*
X161293Y-136313D01*
X161267Y-136713D01*
X161568Y-138997D01*
X161696Y-139376D01*
X161774Y-139768D01*
X162656Y-141897D01*
X162878Y-142229D01*
X163055Y-142588D01*
X164458Y-144416D01*
X164758Y-144680D01*
X165022Y-144981D01*
X166850Y-146383D01*
X167209Y-146560D01*
X167542Y-146782D01*
X169670Y-147664D01*
X170063Y-147742D01*
X170441Y-147871D01*
X172726Y-148171D01*
X173125Y-148145D01*
X173524Y-148171D01*
X175808Y-147871D01*
X176187Y-147742D01*
X176580Y-147664D01*
X178708Y-146782D01*
X179041Y-146560D01*
X179400Y-146383D01*
X181228Y-144981D01*
X181491Y-144680D01*
X181792Y-144416D01*
X183195Y-142588D01*
X183284Y-142407D01*
X183417Y-142255D01*
X214667Y-88129D01*
X214732Y-87938D01*
X214844Y-87770D01*
X215726Y-85641D01*
X215804Y-85249D01*
X215932Y-84870D01*
X216233Y-82586D01*
X216207Y-82187D01*
X216233Y-81787D01*
X215932Y-79503D01*
X215804Y-79124D01*
X215726Y-78732D01*
X214844Y-76603D01*
X214622Y-76271D01*
X214445Y-75912D01*
X213042Y-74084D01*
X212742Y-73820D01*
X212478Y-73519D01*
X210650Y-72117D01*
X210291Y-71940D01*
X209958Y-71718D01*
X207830Y-70836D01*
X207437Y-70758D01*
X207058Y-70629D01*
X204774Y-70329D01*
X204375Y-70355D01*
X203976Y-70329D01*
X201691Y-70629D01*
X201313Y-70758D01*
X200920Y-70836D01*
X198792Y-71718D01*
X198459Y-71940D01*
X198100Y-72117D01*
X197256Y-72764D01*
X196706Y-72520D01*
X196183Y-71987D01*
X196486Y-71171D01*
X197613Y-68728D01*
X198055Y-67917D01*
X205575Y-54757D01*
X205600Y-54696D01*
X205639Y-54643D01*
X205992Y-53738D01*
X206363Y-52842D01*
X206366Y-52824D01*
X206373Y-52808D01*
X206381Y-52742D01*
X206405Y-52680D01*
X206512Y-51715D01*
X206638Y-50754D01*
Y-33681D01*
X206363Y-31592D01*
X206309Y-31461D01*
Y-26000D01*
X206076Y-24829D01*
X205413Y-23837D01*
X204421Y-23174D01*
X203250Y-22941D01*
X195750D01*
X194579Y-23174D01*
X193587Y-23837D01*
X192924Y-24829D01*
X192691Y-26000D01*
Y-28200D01*
X191581Y-29646D01*
X190775Y-31592D01*
X190555Y-33268D01*
X190528Y-33352D01*
X190534Y-33421D01*
X190530Y-33454D01*
X190515Y-33512D01*
X190510Y-33607D01*
X190500Y-33681D01*
Y-33783D01*
X190439Y-34885D01*
X190378Y-35191D01*
X189142Y-35997D01*
X188836Y-35929D01*
X187696Y-35500D01*
X186453Y-34880D01*
X160753Y-20744D01*
X159669Y-19332D01*
X157715Y-17833D01*
X155441Y-16891D01*
X153000Y-16569D01*
X150559Y-16891D01*
X148285Y-17833D01*
X146332Y-19332D01*
X144833Y-21285D01*
X144597Y-21855D01*
X143356Y-21531D01*
X144558Y-11377D01*
X145005Y0D01*
X144558Y11377D01*
X143220Y22684D01*
X140998Y33851D01*
X140622Y35186D01*
X140529Y35571D01*
X140215Y37278D01*
X140043Y38758D01*
X140003Y39996D01*
X140077Y40974D01*
X140229Y41681D01*
X140309Y41880D01*
X141803Y43027D01*
X143286Y44959D01*
X143591Y45694D01*
X144933Y45615D01*
D02*
G37*
G36*
X238030Y-38929D02*
X238120Y-39954D01*
X238270Y-40858D01*
X238480Y-41642D01*
X238750Y-42306D01*
X239080Y-42849D01*
X239470Y-43271D01*
X239920Y-43572D01*
X240430Y-43753D01*
X241000Y-43814D01*
X229000D01*
X229570Y-43753D01*
X230080Y-43572D01*
X230530Y-43271D01*
X230920Y-42849D01*
X231250Y-42306D01*
X231520Y-41642D01*
X231730Y-40858D01*
X231880Y-39954D01*
X231970Y-38929D01*
X232000Y-37783D01*
X238000D01*
X238030Y-38929D01*
D02*
G37*
G36*
X222277Y-26454D02*
X222457Y-26831D01*
X222757Y-27164D01*
X223177Y-27452D01*
X223717Y-27696D01*
X224377Y-27895D01*
X225157Y-28050D01*
X226057Y-28161D01*
X227077Y-28228D01*
X228217Y-28250D01*
Y-34250D01*
X227073Y-34280D01*
X226049Y-34370D01*
X225145Y-34520D01*
X224361Y-34730D01*
X223698Y-35000D01*
X223155Y-35330D01*
X222733Y-35720D01*
X222430Y-36170D01*
X222248Y-36680D01*
X222187Y-37250D01*
X222217Y-26033D01*
X222277Y-26454D01*
D02*
G37*
G36*
X356700Y-35250D02*
X356546Y-35269D01*
X356365Y-35330D01*
X356156Y-35433D01*
X355919Y-35578D01*
X355655Y-35764D01*
X355045Y-36262D01*
X354323Y-36926D01*
X353922Y-37321D01*
X353917Y-37317D01*
X353579Y-37651D01*
X348808Y-41846D01*
X348576Y-41898D01*
X348504Y-41765D01*
X348594Y-41448D01*
X341560Y-36985D01*
X342109Y-37237D01*
X342724Y-37338D01*
X343406Y-37287D01*
X344155Y-37086D01*
X344970Y-36734D01*
X345852Y-36232D01*
X346800Y-35578D01*
X347815Y-34774D01*
X348897Y-33818D01*
X349925Y-32828D01*
X350074Y-32677D01*
X351236Y-31345D01*
X351422Y-31081D01*
X351567Y-30844D01*
X351670Y-30635D01*
X351731Y-30454D01*
X351750Y-30300D01*
X356700Y-35250D01*
D02*
G37*
G36*
X198569Y-50754D02*
X187146Y-61008D01*
X195628Y-65978D01*
X194879Y-67354D01*
X193659Y-69997D01*
X193189Y-71264D01*
X192812Y-72495D01*
X192528Y-73690D01*
X192338Y-74849D01*
X192241Y-75971D01*
X192237Y-77058D01*
X192326Y-78108D01*
X177770Y-69704D01*
X178855Y-69205D01*
X179905Y-68622D01*
X180918Y-67954D01*
X181895Y-67202D01*
X182836Y-66366D01*
X183741Y-65446D01*
X184610Y-64441D01*
X185443Y-63353D01*
X186239Y-62180D01*
X186819Y-61221D01*
X187600Y-59670D01*
X188181Y-58050D01*
X188487Y-56506D01*
X188519Y-55040D01*
X188276Y-53651D01*
X187759Y-52340D01*
X186967Y-51105D01*
X185900Y-49949D01*
X184560Y-48869D01*
X182945Y-47866D01*
X184807Y-37478D01*
X186472Y-38307D01*
X187962Y-38868D01*
X189276Y-39160D01*
X190415Y-39184D01*
X191379Y-38938D01*
X192167Y-38424D01*
X192781Y-37641D01*
X193219Y-36590D01*
X193482Y-35270D01*
X193569Y-33681D01*
X198569Y-50754D01*
D02*
G37*
G36*
X244277Y-44299D02*
X244457Y-44761D01*
X244757Y-45169D01*
X245177Y-45522D01*
X245717Y-45821D01*
X246377Y-46065D01*
X247157Y-46255D01*
X248057Y-46391D01*
X249077Y-46473D01*
X250217Y-46500D01*
Y-52500D01*
X249077Y-52527D01*
X248057Y-52609D01*
X247157Y-52744D01*
X246377Y-52935D01*
X245717Y-53179D01*
X245177Y-53478D01*
X244757Y-53831D01*
X244457Y-54239D01*
X244277Y-54701D01*
X244217Y-55217D01*
Y-43783D01*
X244277Y-44299D01*
D02*
G37*
G36*
X-108731Y-60030D02*
X-106353Y-64149D01*
X-107028Y-65519D01*
X-108296Y-65686D01*
X-110546Y-66618D01*
X-121371Y-72868D01*
X-123303Y-74351D01*
X-124786Y-76283D01*
X-125718Y-78533D01*
X-126036Y-80948D01*
X-125718Y-83363D01*
X-125549Y-83770D01*
X-126675Y-84372D01*
X-129873Y-79586D01*
X-135716Y-69151D01*
X-136566Y-67309D01*
X-135472Y-66649D01*
X-135053Y-67194D01*
X-133121Y-68676D01*
X-130871Y-69608D01*
X-128456Y-69926D01*
X-126041Y-69608D01*
X-123791Y-68676D01*
X-112966Y-62426D01*
X-111034Y-60944D01*
X-110256Y-59929D01*
X-108731Y-60030D01*
D02*
G37*
G36*
X-186024Y-62648D02*
X-184370Y-64967D01*
X-183505Y-65990D01*
X-182614Y-66921D01*
X-181696Y-67761D01*
X-180753Y-68509D01*
X-179785Y-69165D01*
X-178790Y-69731D01*
X-177770Y-70204D01*
X-192326Y-78608D01*
X-192226Y-77488D01*
X-192218Y-76344D01*
X-192303Y-75177D01*
X-192479Y-73986D01*
X-192748Y-72772D01*
X-193108Y-71535D01*
X-193561Y-70274D01*
X-194106Y-68990D01*
X-195472Y-66351D01*
X-186812Y-61351D01*
X-186024Y-62648D01*
D02*
G37*
G36*
X-362473Y-75923D02*
X-362391Y-76943D01*
X-362256Y-77843D01*
X-362065Y-78623D01*
X-361821Y-79283D01*
X-361522Y-79823D01*
X-361169Y-80243D01*
X-360761Y-80543D01*
X-360299Y-80723D01*
X-359783Y-80783D01*
X-371217D01*
X-370701Y-80723D01*
X-370239Y-80543D01*
X-369831Y-80243D01*
X-369478Y-79823D01*
X-369179Y-79283D01*
X-368935Y-78623D01*
X-368745Y-77843D01*
X-368609Y-76943D01*
X-368527Y-75923D01*
X-368500Y-74783D01*
X-362500D01*
X-362473Y-75923D01*
D02*
G37*
G36*
X-182016Y-54591D02*
X-183106Y-55233D01*
X-186677Y-57616D01*
X-187373Y-58165D01*
X-188528Y-59206D01*
X-188988Y-59698D01*
X-189369Y-60172D01*
X-194828Y-50716D01*
X-193726Y-49145D01*
X-192017Y-46245D01*
X-191409Y-44915D01*
X-190967Y-43666D01*
X-190690Y-42497D01*
X-190578Y-41409D01*
X-190632Y-40401D01*
X-190850Y-39473D01*
X-191233Y-38626D01*
X-182016Y-54591D01*
D02*
G37*
G36*
X290561Y-50074D02*
X290703Y-50090D01*
X291221Y-50116D01*
X294650Y-50150D01*
Y-55150D01*
X290498Y-55244D01*
Y-50056D01*
X290561Y-50074D01*
D02*
G37*
G36*
X330977Y-46692D02*
X333070Y-48448D01*
X334009Y-49092D01*
X334876Y-49581D01*
X335672Y-49913D01*
X336397Y-50090D01*
X337049Y-50111D01*
X337631Y-49976D01*
X338140Y-49685D01*
X332406Y-54148D01*
X332658Y-54874D01*
X332705Y-55346D01*
X332547Y-55564D01*
X332185Y-55527D01*
X331618Y-55235D01*
X330847Y-54689D01*
X329871Y-53888D01*
X327305Y-51523D01*
X325716Y-49959D01*
X329823Y-45580D01*
X330977Y-46692D01*
D02*
G37*
G36*
X367659Y-75113D02*
X326875Y-115897D01*
X325705Y-115272D01*
X325809Y-114750D01*
Y-95250D01*
X325576Y-94080D01*
X324913Y-93087D01*
X323921Y-92424D01*
X322750Y-92191D01*
X321147D01*
X321135Y-92162D01*
X321013Y-91707D01*
X320907Y-91067D01*
X320868Y-90621D01*
Y-86834D01*
X321025Y-86677D01*
X321586Y-86228D01*
X322321Y-85728D01*
X323076Y-85300D01*
X323854Y-84939D01*
X324658Y-84644D01*
X325495Y-84413D01*
X326369Y-84247D01*
X327082Y-84167D01*
X346000D01*
X348341Y-83702D01*
X350326Y-82376D01*
X351652Y-80391D01*
X352118Y-78050D01*
X351652Y-75709D01*
X350326Y-73724D01*
X348341Y-72398D01*
X346000Y-71933D01*
X327082D01*
X326369Y-71853D01*
X325495Y-71687D01*
X324658Y-71456D01*
X323854Y-71161D01*
X323076Y-70800D01*
X322321Y-70372D01*
X321585Y-69872D01*
X321025Y-69424D01*
X320117Y-68516D01*
Y-50428D01*
X321291Y-49942D01*
X328324Y-56976D01*
X330309Y-58302D01*
X332650Y-58767D01*
X346000D01*
X348341Y-58302D01*
X350326Y-56976D01*
X351652Y-54991D01*
X352118Y-52650D01*
X351652Y-50309D01*
X350326Y-48324D01*
X348465Y-47081D01*
X348426Y-46590D01*
X348599Y-45759D01*
X349391Y-45602D01*
X351376Y-44276D01*
X357202Y-38449D01*
X357480Y-38223D01*
X358838Y-38044D01*
X360784Y-37238D01*
X362456Y-35956D01*
X363738Y-34285D01*
X364544Y-32338D01*
X364819Y-30250D01*
X364544Y-28162D01*
X363738Y-26216D01*
X362456Y-24544D01*
X360948Y-23387D01*
X360994Y-22797D01*
X361299Y-22118D01*
X367659D01*
Y-75113D01*
D02*
G37*
G36*
X110783Y-199717D02*
X104783Y-200250D01*
Y-194250D01*
X105927Y-194220D01*
X106951Y-194130D01*
X107854Y-193980D01*
X108637Y-193770D01*
X109300Y-193500D01*
X109843Y-193170D01*
X110266Y-192780D01*
X110569Y-192330D01*
X110751Y-191820D01*
X110814Y-191250D01*
X110783Y-199717D01*
D02*
G37*
G36*
X286313Y-172500D02*
X286252Y-171930D01*
X286070Y-171420D01*
X285767Y-170970D01*
X285344Y-170580D01*
X284802Y-170250D01*
X284138Y-169980D01*
X283355Y-169770D01*
X282451Y-169620D01*
X281427Y-169530D01*
X280283Y-169500D01*
Y-163500D01*
X281423Y-163485D01*
X284123Y-163265D01*
X284783Y-163133D01*
X285323Y-162972D01*
X285743Y-162781D01*
X286043Y-162561D01*
X286223Y-162312D01*
X286283Y-162033D01*
X286313Y-172500D01*
D02*
G37*
G36*
X-204950Y-268687D02*
X-204800Y-270391D01*
X-204550Y-271895D01*
X-204200Y-273198D01*
X-203750Y-274301D01*
X-203200Y-275204D01*
X-202550Y-275907D01*
X-201800Y-276409D01*
X-200950Y-276712D01*
X-200000Y-276814D01*
X-217467Y-276783D01*
X-216998Y-276683D01*
X-216579Y-276383D01*
X-216209Y-275883D01*
X-215888Y-275183D01*
X-215617Y-274283D01*
X-215395Y-273183D01*
X-215222Y-271883D01*
X-215025Y-268683D01*
X-215000Y-266783D01*
X-205000D01*
X-204950Y-268687D01*
D02*
G37*
G36*
X-36900Y-268900D02*
X-36600Y-270600D01*
X-36100Y-272100D01*
X-35400Y-273400D01*
X-34500Y-274500D01*
X-33400Y-275400D01*
X-32100Y-276100D01*
X-30600Y-276600D01*
X-29655Y-276767D01*
X-28352Y-276550D01*
X-27048Y-276200D01*
X-25944Y-275750D01*
X-25041Y-275200D01*
X-24339Y-274550D01*
X-23838Y-273800D01*
X-23537Y-272950D01*
X-23437Y-272000D01*
Y-292000D01*
X-23537Y-291050D01*
X-23838Y-290200D01*
X-24339Y-289450D01*
X-25041Y-288800D01*
X-25944Y-288250D01*
X-27048Y-287800D01*
X-28352Y-287450D01*
X-29856Y-287200D01*
X-31561Y-287050D01*
X-33467Y-287000D01*
Y-281311D01*
X-42000Y-287000D01*
X-53533Y-279311D01*
Y-287000D01*
X-55439Y-287050D01*
X-57144Y-287200D01*
X-58649Y-287450D01*
X-59953Y-287800D01*
X-61056Y-288250D01*
X-61959Y-288800D01*
X-62661Y-289450D01*
X-63162Y-290200D01*
X-63463Y-291050D01*
X-63563Y-292000D01*
Y-272000D01*
X-63463Y-272950D01*
X-63162Y-273800D01*
X-62661Y-274550D01*
X-61959Y-275200D01*
X-61056Y-275750D01*
X-59953Y-276200D01*
X-58649Y-276550D01*
X-57144Y-276800D01*
X-55668Y-276930D01*
X-55100Y-276900D01*
X-53400Y-276600D01*
X-51900Y-276100D01*
X-50600Y-275400D01*
X-49500Y-274500D01*
X-48600Y-273400D01*
X-47900Y-272100D01*
X-47400Y-270600D01*
X-47100Y-268900D01*
X-47000Y-267000D01*
X-37000D01*
X-36900Y-268900D01*
D02*
G37*
G36*
X-165426Y-275497D02*
X-167980Y-278121D01*
X-173654Y-284852D01*
X-174884Y-286715D01*
X-175782Y-288388D01*
X-176349Y-289870D01*
X-176585Y-291162D01*
X-176490Y-292264D01*
X-176063Y-293175D01*
X-187925Y-276814D01*
X-187238Y-277464D01*
X-186361Y-277784D01*
X-185294Y-277773D01*
X-184036Y-277431D01*
X-182589Y-276758D01*
X-180951Y-275753D01*
X-179123Y-274418D01*
X-177104Y-272752D01*
X-172498Y-268426D01*
X-165426Y-275497D01*
D02*
G37*
G36*
X-50683Y-191872D02*
X-50383Y-191951D01*
X-49883Y-192021D01*
X-49183Y-192082D01*
X-44383Y-192231D01*
X-40783Y-192250D01*
Y-202250D01*
X-42683Y-202260D01*
X-49883Y-202724D01*
X-50383Y-202869D01*
X-50683Y-203033D01*
X-50783Y-203217D01*
Y-191783D01*
X-50683Y-191872D01*
D02*
G37*
G36*
X92777Y-192049D02*
X92957Y-192511D01*
X93257Y-192919D01*
X93677Y-193272D01*
X94217Y-193571D01*
X94877Y-193815D01*
X95657Y-194006D01*
X96557Y-194141D01*
X97577Y-194223D01*
X98717Y-194250D01*
Y-200250D01*
X97577Y-200277D01*
X96557Y-200359D01*
X95657Y-200494D01*
X94877Y-200685D01*
X94217Y-200929D01*
X93677Y-201228D01*
X93257Y-201581D01*
X92957Y-201989D01*
X92777Y-202451D01*
X92717Y-202967D01*
Y-191533D01*
X92777Y-192049D01*
D02*
G37*
G36*
X66283Y-202967D02*
X66183Y-202831D01*
X65883Y-202709D01*
X65383Y-202601D01*
X64683Y-202508D01*
X62683Y-202365D01*
X56283Y-202250D01*
Y-192250D01*
X58183Y-192243D01*
X65883Y-191791D01*
X66183Y-191669D01*
X66283Y-191533D01*
Y-202967D01*
D02*
G37*
G36*
X29174Y-189493D02*
X30161Y-190071D01*
X31214Y-190582D01*
X32334Y-191024D01*
X33519Y-191399D01*
X34771Y-191705D01*
X36089Y-191944D01*
X37474Y-192114D01*
X40442Y-192250D01*
Y-202250D01*
X38925Y-202284D01*
X36089Y-202556D01*
X34771Y-202795D01*
X33519Y-203101D01*
X32334Y-203475D01*
X31214Y-203918D01*
X30161Y-204429D01*
X29174Y-205007D01*
X28254Y-205654D01*
Y-188846D01*
X29174Y-189493D01*
D02*
G37*
G36*
X-326973Y-180923D02*
X-326891Y-181943D01*
X-326755Y-182843D01*
X-326565Y-183623D01*
X-326321Y-184283D01*
X-326022Y-184823D01*
X-325669Y-185243D01*
X-325261Y-185543D01*
X-324799Y-185723D01*
X-324283Y-185783D01*
X-335717D01*
X-335201Y-185723D01*
X-334739Y-185543D01*
X-334331Y-185243D01*
X-333978Y-184823D01*
X-333679Y-184283D01*
X-333435Y-183623D01*
X-333245Y-182843D01*
X-333109Y-181943D01*
X-333027Y-180923D01*
X-333000Y-179783D01*
X-327000D01*
X-326973Y-180923D01*
D02*
G37*
G36*
X-28254Y-205654D02*
X-29174Y-205007D01*
X-30161Y-204429D01*
X-31214Y-203918D01*
X-32334Y-203475D01*
X-33519Y-203101D01*
X-34771Y-202795D01*
X-36089Y-202556D01*
X-37474Y-202386D01*
X-40442Y-202250D01*
Y-192250D01*
X-38925Y-192216D01*
X-36089Y-191944D01*
X-34771Y-191705D01*
X-33519Y-191399D01*
X-32334Y-191024D01*
X-31214Y-190582D01*
X-30161Y-190071D01*
X-29174Y-189493D01*
X-28254Y-188846D01*
Y-205654D01*
D02*
G37*
G36*
X254028Y-108528D02*
X254151Y-108784D01*
X253645Y-109444D01*
X252335Y-112606D01*
X251888Y-116000D01*
X252335Y-119394D01*
X253645Y-122556D01*
X255728Y-125272D01*
X256010Y-125488D01*
X255681Y-126715D01*
X255259Y-126770D01*
X252705Y-127828D01*
X250511Y-129511D01*
X250445Y-129598D01*
X250087Y-129837D01*
X249424Y-130829D01*
X249398Y-130963D01*
X248828Y-131705D01*
X247770Y-134259D01*
X247409Y-137000D01*
X247770Y-139741D01*
X248182Y-140734D01*
X247105Y-141453D01*
X239368Y-133716D01*
Y-118284D01*
X249494Y-108158D01*
X251287D01*
X253345Y-107748D01*
X254028Y-108528D01*
D02*
G37*
G36*
X-239820Y-136027D02*
X-240330Y-136207D01*
X-240780Y-136507D01*
X-241170Y-136927D01*
X-241500Y-137467D01*
X-241770Y-138127D01*
X-241980Y-138907D01*
X-242130Y-139807D01*
X-242220Y-140827D01*
X-242250Y-141967D01*
X-248250D01*
X-248280Y-140827D01*
X-248370Y-139807D01*
X-248520Y-138907D01*
X-248730Y-138127D01*
X-249000Y-137467D01*
X-249330Y-136927D01*
X-249720Y-136507D01*
X-250170Y-136207D01*
X-250680Y-136027D01*
X-251250Y-135967D01*
X-239250D01*
X-239820Y-136027D01*
D02*
G37*
G36*
X152738Y-138090D02*
X147983Y-145626D01*
X138081Y-139909D01*
X138375Y-139964D01*
X138750Y-139834D01*
X139205Y-139520D01*
X139741Y-139022D01*
X140358Y-138339D01*
X141055Y-137472D01*
X142692Y-135186D01*
X144650Y-132162D01*
X152738Y-138090D01*
D02*
G37*
G36*
X79823Y-62974D02*
X71511Y-77371D01*
X71446Y-77562D01*
X71334Y-77730D01*
X70452Y-79858D01*
X70374Y-80251D01*
X70245Y-80630D01*
X69945Y-82914D01*
X69971Y-83313D01*
X69945Y-83713D01*
X70245Y-85997D01*
X70374Y-86376D01*
X70452Y-86768D01*
X71334Y-88897D01*
X71556Y-89229D01*
X71733Y-89588D01*
X73136Y-91416D01*
X73436Y-91680D01*
X73700Y-91981D01*
X75528Y-93383D01*
X75887Y-93560D01*
X76220Y-93782D01*
X78348Y-94664D01*
X78741Y-94742D01*
X79119Y-94871D01*
X81404Y-95171D01*
X81803Y-95145D01*
X82202Y-95171D01*
X84486Y-94871D01*
X84537Y-94854D01*
X85196Y-95968D01*
X85197Y-95971D01*
X82558Y-98389D01*
X73669Y-105210D01*
X64219Y-111230D01*
X54280Y-116404D01*
X43928Y-120692D01*
X40790Y-121682D01*
X40522Y-121511D01*
X40385Y-121248D01*
X40296Y-119859D01*
X41320Y-118525D01*
X41497Y-118166D01*
X41719Y-117833D01*
X42601Y-115705D01*
X42679Y-115312D01*
X42807Y-114934D01*
X43108Y-112649D01*
X43082Y-112250D01*
X43108Y-111851D01*
X42807Y-109566D01*
X42679Y-109188D01*
X42601Y-108795D01*
X41719Y-106667D01*
X41497Y-106334D01*
X41320Y-105975D01*
X39917Y-104147D01*
X39616Y-103884D01*
X39353Y-103583D01*
X37525Y-102180D01*
X37166Y-102003D01*
X36833Y-101781D01*
X34705Y-100899D01*
X34312Y-100821D01*
X33933Y-100693D01*
X31649Y-100392D01*
X31448Y-100405D01*
X31250Y-100366D01*
X16006D01*
X15912Y-99096D01*
X19603Y-98548D01*
X29167Y-96152D01*
X38452Y-92830D01*
X47365Y-88615D01*
X55823Y-83545D01*
X63743Y-77671D01*
X71049Y-71049D01*
X77671Y-63743D01*
X78759Y-62276D01*
X79823Y-62974D01*
D02*
G37*
G36*
X275049Y-116855D02*
X275197Y-117620D01*
X275444Y-118295D01*
X275789Y-118880D01*
X276233Y-119375D01*
X276775Y-119780D01*
X277416Y-120095D01*
X278155Y-120320D01*
X278993Y-120455D01*
X279930Y-120500D01*
X278141Y-125500D01*
X266582Y-125874D01*
X275000Y-116000D01*
X275049Y-116855D01*
D02*
G37*
G36*
X164072Y-127046D02*
X162898Y-127577D01*
X161769Y-128179D01*
X160684Y-128851D01*
X159643Y-129595D01*
X158646Y-130410D01*
X157693Y-131297D01*
X156785Y-132254D01*
X155921Y-133282D01*
X155101Y-134381D01*
X154325Y-135551D01*
X145720Y-130451D01*
X146554Y-129060D01*
X147918Y-126418D01*
X148449Y-125167D01*
X148879Y-123963D01*
X149208Y-122805D01*
X149436Y-121694D01*
X149564Y-120630D01*
X149590Y-119613D01*
X149516Y-118642D01*
X164072Y-127046D01*
D02*
G37*
G36*
X-54958Y-152683D02*
X-54620Y-155883D01*
X-54325Y-157183D01*
X-53946Y-158283D01*
X-53482Y-159183D01*
X-52934Y-159883D01*
X-52301Y-160383D01*
X-51584Y-160683D01*
X-50783Y-160783D01*
X-69217D01*
X-68416Y-160683D01*
X-67699Y-160383D01*
X-67066Y-159883D01*
X-66518Y-159183D01*
X-66054Y-158283D01*
X-65675Y-157183D01*
X-65380Y-155883D01*
X-65169Y-154383D01*
X-65042Y-152683D01*
X-65000Y-150783D01*
X-55000D01*
X-54958Y-152683D01*
D02*
G37*
G36*
X261631Y-154096D02*
X262478Y-154818D01*
X263324Y-155454D01*
X264169Y-156006D01*
X265013Y-156472D01*
X265856Y-156854D01*
X266698Y-157151D01*
X267538Y-157363D01*
X268378Y-157491D01*
X269217Y-157533D01*
X261814Y-167018D01*
X262103Y-166508D01*
X262233Y-165922D01*
X262204Y-165261D01*
X262016Y-164525D01*
X261668Y-163714D01*
X261161Y-162828D01*
X260495Y-161867D01*
X259670Y-160831D01*
X258685Y-159719D01*
X257540Y-158533D01*
X260783Y-153290D01*
X261631Y-154096D01*
D02*
G37*
G36*
X129249Y-191820D02*
X129431Y-192330D01*
X129734Y-192780D01*
X130157Y-193170D01*
X130700Y-193500D01*
X131363Y-193770D01*
X132146Y-193980D01*
X133049Y-194130D01*
X134073Y-194220D01*
X135217Y-194250D01*
Y-200250D01*
X129217Y-199717D01*
X129186Y-191250D01*
X129249Y-191820D01*
D02*
G37*
G36*
X27444Y-124449D02*
X27931Y-125185D01*
X28646Y-125757D01*
X29588Y-126167D01*
X30758Y-126413D01*
X32155Y-126497D01*
X33780Y-126417D01*
X35633Y-126175D01*
X37713Y-125770D01*
X40021Y-125202D01*
X40180Y-135616D01*
X38140Y-136214D01*
X36330Y-136853D01*
X34750Y-137532D01*
X33400Y-138252D01*
X32281Y-139012D01*
X31391Y-139813D01*
X30732Y-140655D01*
X30303Y-141537D01*
X30103Y-142459D01*
X30134Y-143422D01*
X27185Y-123551D01*
X27444Y-124449D01*
D02*
G37*
G36*
X3227Y-125404D02*
X2738Y-126585D01*
X2420Y-129000D01*
Y-141500D01*
X2738Y-143915D01*
X3670Y-146165D01*
X5153Y-148097D01*
X7085Y-149580D01*
X9335Y-150512D01*
X10321Y-150642D01*
X10263Y-151915D01*
X0Y-152318D01*
X-10263Y-151915D01*
X-10321Y-150642D01*
X-9335Y-150512D01*
X-7085Y-149580D01*
X-5153Y-148097D01*
X-3670Y-146165D01*
X-2738Y-143915D01*
X-2420Y-141500D01*
Y-129000D01*
X-2738Y-126585D01*
X-3227Y-125404D01*
X-2379Y-124134D01*
X2379D01*
X3227Y-125404D01*
D02*
G37*
G36*
X110857Y-135636D02*
X121136Y-130126D01*
X120270Y-131727D01*
X119495Y-133369D01*
X118811Y-135054D01*
X118218Y-136781D01*
X117717Y-138549D01*
X117306Y-140360D01*
X116759Y-144108D01*
X116622Y-146045D01*
X116577Y-148024D01*
X106577Y-153006D01*
X106531Y-151080D01*
X106394Y-149301D01*
X106166Y-147669D01*
X105847Y-146185D01*
X105437Y-144848D01*
X104935Y-143658D01*
X104578Y-143031D01*
X103691Y-142784D01*
X101904Y-142387D01*
X98188Y-141858D01*
X96258Y-141725D01*
X94282Y-141681D01*
X97036Y-131681D01*
X99580Y-131631D01*
X103834Y-131233D01*
X105543Y-130884D01*
X106974Y-130435D01*
X108126Y-129887D01*
X108999Y-129239D01*
X109594Y-128491D01*
X109911Y-127644D01*
X109949Y-126697D01*
X110857Y-135636D01*
D02*
G37*
G36*
X352506Y-22797D02*
X352552Y-23387D01*
X351044Y-24544D01*
X349762Y-26216D01*
X348956Y-28162D01*
X348779Y-29509D01*
X348358Y-29990D01*
X346450Y-31898D01*
X345851Y-32427D01*
X344981Y-33117D01*
X344223Y-33639D01*
X343884Y-33832D01*
X335000D01*
X332659Y-34298D01*
X331388Y-35148D01*
X330118Y-34469D01*
Y-27217D01*
X330155Y-26522D01*
X330172Y-26440D01*
X330209Y-26353D01*
X330210Y-26245D01*
X330309Y-25750D01*
Y-22395D01*
X330334Y-22385D01*
X330789Y-22263D01*
X331430Y-22157D01*
X331878Y-22118D01*
X352201D01*
X352506Y-22797D01*
D02*
G37*
G36*
X29308Y144534D02*
X29647Y143688D01*
X30212Y142941D01*
X31003Y142293D01*
X32021Y141745D01*
X33265Y141297D01*
X34734Y140948D01*
X36430Y140699D01*
X38352Y140550D01*
X40500Y140500D01*
Y130500D01*
X38352Y130450D01*
X36430Y130301D01*
X34734Y130052D01*
X33265Y129703D01*
X32021Y129255D01*
X31003Y128707D01*
X30212Y128060D01*
X29647Y127312D01*
X29308Y126466D01*
X29195Y125519D01*
Y145481D01*
X29308Y144534D01*
D02*
G37*
G36*
X219021Y137804D02*
X219106Y136757D01*
X219256Y135759D01*
X219470Y134809D01*
X219749Y133908D01*
X220092Y133056D01*
X220500Y132252D01*
X220972Y131497D01*
X221508Y130791D01*
X222109Y130133D01*
X217867Y125891D01*
X217209Y126492D01*
X216503Y127028D01*
X215748Y127500D01*
X214944Y127908D01*
X214092Y128251D01*
X213191Y128530D01*
X212241Y128744D01*
X211243Y128894D01*
X210196Y128980D01*
X209100Y129001D01*
X219000Y138900D01*
X219021Y137804D01*
D02*
G37*
G36*
X232882Y195966D02*
Y125428D01*
X231709Y124942D01*
X223734Y132917D01*
X223492Y133237D01*
X223166Y133758D01*
X222880Y134321D01*
X222634Y134933D01*
X222428Y135599D01*
X222264Y136323D01*
X222146Y137109D01*
X222077Y137958D01*
X222064Y138634D01*
X222112Y139000D01*
X221665Y142394D01*
X220355Y145556D01*
X218272Y148272D01*
X215556Y150356D01*
X212394Y151665D01*
X209889Y151995D01*
X209582Y152865D01*
X209572Y153318D01*
X213407Y156593D01*
X216780Y160543D01*
X219494Y164972D01*
X221482Y169771D01*
X222694Y174822D01*
X223102Y180000D01*
X222694Y185178D01*
X221482Y190229D01*
X219494Y195028D01*
X216780Y199457D01*
X213407Y203407D01*
X209457Y206780D01*
X206880Y208359D01*
X207239Y209629D01*
X219220D01*
X232882Y195966D01*
D02*
G37*
G36*
X-27722Y124054D02*
X-28650Y124730D01*
X-29645Y125290D01*
X-30708Y125736D01*
X-31838Y126066D01*
X-33036Y126280D01*
X-34302Y126380D01*
X-35635Y126364D01*
X-37036Y126232D01*
X-38504Y125985D01*
X-40039Y125624D01*
X-40182Y136040D01*
X-38156Y136633D01*
X-36356Y137267D01*
X-34782Y137944D01*
X-33433Y138662D01*
X-32310Y139423D01*
X-31413Y140225D01*
X-30741Y141069D01*
X-30295Y141955D01*
X-30075Y142883D01*
X-30080Y143853D01*
X-27722Y124054D01*
D02*
G37*
G36*
X8204Y151668D02*
X8432Y150388D01*
X7085Y149830D01*
X5153Y148347D01*
X3670Y146415D01*
X2738Y144165D01*
X2420Y141750D01*
Y129250D01*
X2738Y126835D01*
X3227Y125654D01*
X2379Y124384D01*
X-2379D01*
X-3227Y125654D01*
X-2738Y126835D01*
X-2420Y129250D01*
Y141750D01*
X-2738Y144165D01*
X-3670Y146415D01*
X-5153Y148347D01*
X-7085Y149830D01*
X-8432Y150388D01*
X-8204Y151668D01*
X0Y151990D01*
X8204Y151668D01*
D02*
G37*
G36*
X165067Y201619D02*
X163220Y199457D01*
X160506Y195028D01*
X158518Y190229D01*
X157305Y185178D01*
X156898Y180000D01*
X157305Y174822D01*
X158518Y169771D01*
X160506Y164972D01*
X163220Y160543D01*
X166593Y156593D01*
X170543Y153220D01*
X174972Y150506D01*
X179771Y148518D01*
X184822Y147305D01*
X190000Y146898D01*
X195178Y147305D01*
X197885Y147955D01*
X198618Y146825D01*
X197645Y145556D01*
X196335Y142394D01*
X195888Y139000D01*
X196335Y135606D01*
X197645Y132444D01*
X199728Y129728D01*
X202444Y127645D01*
X205606Y126335D01*
X209000Y125888D01*
X209366Y125936D01*
X210042Y125923D01*
X210891Y125854D01*
X211677Y125736D01*
X212401Y125572D01*
X213067Y125366D01*
X213679Y125120D01*
X214242Y124834D01*
X214763Y124508D01*
X215083Y124266D01*
X222882Y116466D01*
Y30000D01*
X223348Y27659D01*
X224674Y25674D01*
X227179Y23170D01*
X226536Y22016D01*
X226391Y21987D01*
X226319Y21990D01*
X226214Y21952D01*
X225579Y21826D01*
X225415Y21716D01*
X218646Y21319D01*
X188630D01*
X188039Y22376D01*
X187299Y23887D01*
X187190Y24149D01*
X187214Y24513D01*
X187012Y25109D01*
X186993Y25220D01*
X186952Y25284D01*
X186830Y25644D01*
X186830Y25644D01*
X177580Y41665D01*
X176793Y42562D01*
X175723Y43090D01*
X174532Y43168D01*
X173402Y42785D01*
X164949Y37905D01*
X163850Y38312D01*
X163551Y38564D01*
X163477Y38815D01*
X163421Y39238D01*
X163290Y39557D01*
X161298Y47361D01*
X158833Y54767D01*
X159970Y55371D01*
X160958Y54084D01*
X161259Y53820D01*
X161522Y53519D01*
X163350Y52117D01*
X163709Y51940D01*
X164042Y51718D01*
X166170Y50836D01*
X166563Y50758D01*
X166942Y50629D01*
X169226Y50329D01*
X169625Y50355D01*
X170024Y50329D01*
X172308Y50629D01*
X172687Y50758D01*
X173080Y50836D01*
X175208Y51718D01*
X175541Y51940D01*
X175900Y52117D01*
X177728Y53520D01*
X177991Y53820D01*
X178292Y54084D01*
X179695Y55912D01*
X179872Y56271D01*
X180094Y56603D01*
X180976Y58732D01*
X181054Y59124D01*
X181182Y59503D01*
X181287Y60297D01*
X181612Y60456D01*
X182602Y60558D01*
X182896Y60030D01*
X193311Y40437D01*
X194534Y38723D01*
X194912Y38411D01*
X198420Y32335D01*
X199207Y31438D01*
X200277Y30910D01*
X201468Y30832D01*
X202598Y31215D01*
X212557Y36965D01*
X213455Y37752D01*
X213983Y38823D01*
X214061Y40013D01*
X213677Y41144D01*
X213677Y41144D01*
X204427Y57165D01*
X203640Y58062D01*
X202570Y58590D01*
X202432Y58599D01*
X202118Y58994D01*
X199317Y63529D01*
X199074Y63977D01*
X197118Y67657D01*
X196719Y68458D01*
X196246Y69558D01*
X195868Y70598D01*
X195973Y70803D01*
X197026Y71395D01*
X197292Y71218D01*
X199420Y70336D01*
X199813Y70258D01*
X200191Y70129D01*
X202476Y69829D01*
X202875Y69855D01*
X203274Y69829D01*
X205558Y70129D01*
X205937Y70258D01*
X206330Y70336D01*
X208458Y71218D01*
X208791Y71440D01*
X209150Y71617D01*
X210978Y73019D01*
X211241Y73320D01*
X211542Y73584D01*
X212945Y75412D01*
X213122Y75771D01*
X213344Y76103D01*
X214226Y78232D01*
X214304Y78624D01*
X214432Y79003D01*
X214733Y81287D01*
X214707Y81687D01*
X214733Y82086D01*
X214432Y84370D01*
X214304Y84749D01*
X214226Y85141D01*
X213344Y87270D01*
X213232Y87438D01*
X213167Y87629D01*
X181917Y141755D01*
X181784Y141907D01*
X181695Y142088D01*
X180292Y143916D01*
X179991Y144180D01*
X179728Y144481D01*
X177900Y145883D01*
X177541Y146060D01*
X177208Y146282D01*
X175080Y147164D01*
X174687Y147242D01*
X174308Y147371D01*
X172024Y147671D01*
X171625Y147645D01*
X171226Y147671D01*
X168941Y147371D01*
X168563Y147242D01*
X168170Y147164D01*
X166042Y146282D01*
X165709Y146060D01*
X165350Y145883D01*
X163522Y144481D01*
X163259Y144180D01*
X162958Y143916D01*
X161555Y142088D01*
X161378Y141729D01*
X161156Y141397D01*
X160274Y139268D01*
X160196Y138876D01*
X160068Y138497D01*
X159854Y136871D01*
X158531Y136551D01*
X158347Y136816D01*
X157874Y137614D01*
X154400Y143765D01*
X154431Y144000D01*
X154109Y146441D01*
X153167Y148715D01*
X151669Y150668D01*
X149715Y152167D01*
X147441Y153109D01*
X145000Y153431D01*
X142559Y153109D01*
X140285Y152167D01*
X138331Y150668D01*
X136833Y148715D01*
X135891Y146441D01*
X135569Y144000D01*
X135891Y141559D01*
X136833Y139285D01*
X138331Y137331D01*
X140285Y135833D01*
X140364Y135800D01*
X143827Y129669D01*
X144270Y128840D01*
X144806Y127702D01*
X144792Y127668D01*
X144351Y127199D01*
X143780Y126856D01*
X141830Y127664D01*
X141437Y127742D01*
X141058Y127871D01*
X138774Y128171D01*
X138375Y128145D01*
X137976Y128171D01*
X135691Y127871D01*
X135313Y127742D01*
X134920Y127664D01*
X132792Y126782D01*
X132459Y126560D01*
X132100Y126383D01*
X130272Y124981D01*
X130009Y124680D01*
X129708Y124416D01*
X128305Y122588D01*
X128128Y122229D01*
X127906Y121897D01*
X127024Y119768D01*
X126946Y119376D01*
X126818Y118997D01*
X126517Y116713D01*
X126543Y116313D01*
X126517Y115914D01*
X126818Y113630D01*
X126946Y113251D01*
X127024Y112858D01*
X127684Y111266D01*
X126598Y110569D01*
X118870Y118870D01*
X110087Y127047D01*
X100743Y134577D01*
X90886Y141421D01*
X80565Y147544D01*
X74069Y150796D01*
Y151015D01*
X74182Y154165D01*
X74320Y155458D01*
X74506Y156532D01*
X74717Y157331D01*
X74910Y157823D01*
X75420Y157924D01*
X75782Y158166D01*
X75828Y158183D01*
X75879Y158231D01*
X76413Y158587D01*
X76665Y158964D01*
X76701Y158998D01*
X76729Y159061D01*
X77076Y159579D01*
X77162Y160012D01*
X77195Y160084D01*
X77199Y160197D01*
X77309Y160750D01*
Y172250D01*
X77076Y173421D01*
X76413Y174413D01*
X75420Y175076D01*
X74250Y175309D01*
X55750D01*
X54580Y175076D01*
X53587Y174413D01*
X52924Y173421D01*
X52691Y172250D01*
Y160862D01*
X52612Y160690D01*
X51566Y159898D01*
X47361Y161298D01*
X35734Y164265D01*
X32208Y164902D01*
X32238Y166187D01*
X34183Y166443D01*
X34562Y166571D01*
X34955Y166649D01*
X37083Y167531D01*
X37416Y167753D01*
X37775Y167930D01*
X39603Y169333D01*
X39866Y169634D01*
X40167Y169897D01*
X41570Y171725D01*
X41747Y172084D01*
X41969Y172417D01*
X42851Y174545D01*
X42929Y174938D01*
X43057Y175317D01*
X43358Y177601D01*
X43332Y178000D01*
X43358Y178399D01*
X43057Y180683D01*
X42929Y181062D01*
X42851Y181455D01*
X41969Y183583D01*
X41747Y183916D01*
X41570Y184275D01*
X40167Y186103D01*
X39866Y186367D01*
X39603Y186667D01*
X38165Y187770D01*
X38533Y189081D01*
X39355Y189160D01*
X40271Y189181D01*
X47751D01*
X49327Y189173D01*
X54003Y189027D01*
X54488Y188985D01*
X54580Y188924D01*
X55750Y188691D01*
X74250D01*
X75420Y188924D01*
X76413Y189587D01*
X77076Y190579D01*
X77309Y191750D01*
Y199380D01*
X78482Y199866D01*
X94674Y183674D01*
X96659Y182348D01*
X99000Y181882D01*
X141000D01*
X143341Y182348D01*
X145326Y183674D01*
X164133Y202482D01*
X165067Y201619D01*
D02*
G37*
G36*
X-242926Y178467D02*
X-245517Y175770D01*
X-249681Y170760D01*
X-251254Y168447D01*
X-252487Y166262D01*
X-253381Y164205D01*
X-253936Y162275D01*
X-254151Y160473D01*
X-254027Y158800D01*
X-253563Y157254D01*
X-266246Y186936D01*
X-265464Y185709D01*
X-264384Y184991D01*
X-263007Y184782D01*
X-261332Y185082D01*
X-259360Y185891D01*
X-257090Y187209D01*
X-254522Y189037D01*
X-251657Y191373D01*
X-245033Y197574D01*
X-242926Y178467D01*
D02*
G37*
G36*
X73606Y160683D02*
X73059Y160383D01*
X72576Y159883D01*
X72158Y159183D01*
X71804Y158283D01*
X71515Y157183D01*
X71290Y155883D01*
X71129Y154383D01*
X71000Y150783D01*
X61000D01*
X60950Y152683D01*
X60800Y154383D01*
X60550Y155883D01*
X60200Y157183D01*
X59750Y158283D01*
X59200Y159183D01*
X58550Y159883D01*
X57800Y160383D01*
X56950Y160683D01*
X56000Y160783D01*
X74217D01*
X73606Y160683D01*
D02*
G37*
G36*
X-111656Y146419D02*
X-110316Y145819D01*
X-108898Y145289D01*
X-107402Y144829D01*
X-105829Y144441D01*
X-102450Y143875D01*
X-100644Y143699D01*
X-96799Y143557D01*
X-97530Y133557D01*
X-100103Y133507D01*
X-104396Y133109D01*
X-106114Y132760D01*
X-107548Y132311D01*
X-108697Y131763D01*
X-109561Y131115D01*
X-110140Y130367D01*
X-110434Y129520D01*
X-110443Y128572D01*
X-112919Y147091D01*
X-111656Y146419D01*
D02*
G37*
G36*
X-64625Y238276D02*
X-67611Y235291D01*
X-68727Y234251D01*
X-69644Y233513D01*
X-70292Y233059D01*
X-76500D01*
X-77670Y232826D01*
X-78663Y232163D01*
X-79326Y231171D01*
X-79559Y230000D01*
Y211500D01*
X-79436Y210881D01*
X-79430Y210773D01*
X-79403Y210717D01*
X-79326Y210329D01*
X-78939Y209750D01*
X-78913Y209697D01*
X-78888Y209674D01*
X-78663Y209337D01*
X-78069Y208940D01*
X-78024Y208900D01*
X-77993Y208889D01*
X-77670Y208674D01*
X-77584Y208657D01*
X-77576Y208630D01*
X-77481Y208153D01*
X-77368Y206928D01*
Y203804D01*
X-77399Y203407D01*
X-77499Y202749D01*
X-77614Y202274D01*
X-77649Y202180D01*
X-78170Y202076D01*
X-78445Y201892D01*
X-78456Y201889D01*
X-78476Y201872D01*
X-79163Y201413D01*
X-79356Y201123D01*
X-79365Y201116D01*
X-79377Y201092D01*
X-79826Y200421D01*
X-79892Y200086D01*
X-79909Y200054D01*
X-79916Y199967D01*
X-80059Y199250D01*
Y191750D01*
X-79826Y190579D01*
X-79163Y189587D01*
X-78170Y188924D01*
X-77000Y188691D01*
X-65500D01*
X-64330Y188924D01*
X-63337Y189587D01*
X-62674Y190579D01*
X-62441Y191750D01*
Y199250D01*
X-62584Y199967D01*
X-62591Y200054D01*
X-62607Y200086D01*
X-62674Y200421D01*
X-63123Y201092D01*
X-63135Y201116D01*
X-63144Y201123D01*
X-63337Y201413D01*
X-64024Y201872D01*
X-64044Y201889D01*
X-64055Y201892D01*
X-64330Y202076D01*
X-64851Y202180D01*
X-64886Y202274D01*
X-65001Y202749D01*
X-65101Y203407D01*
X-65132Y203804D01*
Y206864D01*
X-65093Y207307D01*
X-64988Y207942D01*
X-64866Y208392D01*
X-64833Y208475D01*
X-63829Y208674D01*
X-62837Y209337D01*
X-62174Y210329D01*
X-61941Y211500D01*
Y223107D01*
X-61859Y223251D01*
X-61346Y223989D01*
X-59916Y225683D01*
X-54716Y230882D01*
X-35533D01*
X-35280Y229613D01*
X-36833Y228969D01*
X-37166Y228747D01*
X-37525Y228570D01*
X-39353Y227167D01*
X-39616Y226866D01*
X-39917Y226603D01*
X-41320Y224775D01*
X-41497Y224416D01*
X-41719Y224083D01*
X-42601Y221955D01*
X-42679Y221562D01*
X-42807Y221183D01*
X-43108Y218899D01*
X-43082Y218500D01*
X-43108Y218101D01*
X-42807Y215816D01*
X-42679Y215438D01*
X-42601Y215045D01*
X-41719Y212917D01*
X-41497Y212584D01*
X-41320Y212225D01*
X-39917Y210397D01*
X-39616Y210133D01*
X-39353Y209833D01*
X-37525Y208430D01*
X-37166Y208253D01*
X-36833Y208031D01*
X-34705Y207149D01*
X-34312Y207071D01*
X-33933Y206943D01*
X-32922Y206809D01*
X-32317Y205564D01*
X-32335Y205451D01*
X-33057Y203708D01*
X-33315Y201750D01*
Y192750D01*
X-33074Y190919D01*
X-33123Y190456D01*
X-33386Y190000D01*
X-33891Y189487D01*
X-34062Y189429D01*
X-34455Y189351D01*
X-36583Y188469D01*
X-36916Y188247D01*
X-37275Y188070D01*
X-39103Y186667D01*
X-39366Y186367D01*
X-39667Y186103D01*
X-41070Y184275D01*
X-41247Y183916D01*
X-41469Y183583D01*
X-42351Y181455D01*
X-42429Y181062D01*
X-42557Y180683D01*
X-42858Y178399D01*
X-42832Y178000D01*
X-42858Y177601D01*
X-42557Y175317D01*
X-42429Y174938D01*
X-42351Y174545D01*
X-41469Y172417D01*
X-41247Y172084D01*
X-41070Y171725D01*
X-39667Y169897D01*
X-39366Y169634D01*
X-39103Y169333D01*
X-37275Y167930D01*
X-36916Y167753D01*
X-36583Y167531D01*
X-34455Y166649D01*
X-34062Y166571D01*
X-33683Y166443D01*
X-32027Y166225D01*
X-31997Y164940D01*
X-35734Y164265D01*
X-47361Y161298D01*
X-58747Y157508D01*
X-69834Y152916D01*
X-80565Y147544D01*
X-82112Y146626D01*
X-97021D01*
X-100439Y146752D01*
X-102048Y146909D01*
X-105209Y147438D01*
X-106586Y147778D01*
X-107913Y148186D01*
X-109154Y148650D01*
X-110311Y149168D01*
X-110603Y149324D01*
X-111402Y149785D01*
X-112043Y150002D01*
X-112134Y150047D01*
X-112183Y150050D01*
X-112532Y150168D01*
X-113278Y150119D01*
X-113325Y150122D01*
X-113347Y150115D01*
X-113723Y150090D01*
X-114410Y149752D01*
X-114454Y149736D01*
X-114471Y149721D01*
X-114793Y149562D01*
X-115274Y149015D01*
X-115350Y148948D01*
X-115372Y148903D01*
X-115580Y148665D01*
X-115580Y148665D01*
X-124830Y132644D01*
X-125214Y131514D01*
X-125136Y130323D01*
X-124608Y129252D01*
X-123711Y128465D01*
X-113751Y122715D01*
X-112621Y122332D01*
X-111430Y122410D01*
X-110360Y122938D01*
X-109573Y123835D01*
X-109573Y123835D01*
X-106305Y129495D01*
X-105351Y129793D01*
X-103949Y130078D01*
X-99932Y130451D01*
X-98029Y130488D01*
X-80012D01*
X-77923Y130763D01*
X-75977Y131569D01*
X-75977Y131569D01*
X-75954Y131531D01*
X-69002Y135424D01*
X-58164Y140421D01*
X-46968Y144551D01*
X-35481Y147791D01*
X-32406Y148403D01*
X-31689Y147250D01*
X-32330Y146415D01*
X-33262Y144165D01*
X-33475Y142546D01*
X-33645Y142332D01*
X-34195Y141840D01*
X-35014Y141286D01*
X-36107Y140704D01*
X-37470Y140118D01*
X-39095Y139545D01*
X-41041Y138975D01*
X-41207Y138889D01*
X-41391Y138849D01*
X-41446Y138811D01*
X-44796Y137867D01*
X-55475Y133927D01*
X-65811Y129162D01*
X-75742Y123600D01*
X-85206Y117276D01*
X-94145Y110230D01*
X-99322Y105444D01*
X-99412Y105401D01*
X-99539Y105261D01*
X-99699Y105160D01*
X-101179Y103750D01*
X-102497Y102623D01*
X-103691Y101733D01*
X-104741Y101080D01*
X-105623Y100654D01*
X-106307Y100433D01*
X-106518Y100403D01*
X-108292Y101138D01*
X-110706Y101456D01*
X-113121Y101138D01*
X-115371Y100206D01*
X-117303Y98723D01*
X-118786Y96791D01*
X-125036Y85966D01*
X-125968Y83715D01*
X-126286Y81301D01*
X-125968Y78886D01*
X-125036Y76636D01*
X-123553Y74704D01*
X-121621Y73221D01*
X-110796Y66971D01*
X-108546Y66039D01*
X-107278Y65872D01*
X-106603Y64502D01*
X-108981Y60382D01*
X-110506Y60282D01*
X-111284Y61296D01*
X-113216Y62779D01*
X-124041Y69029D01*
X-126292Y69961D01*
X-128706Y70279D01*
X-131121Y69961D01*
X-133371Y69029D01*
X-135303Y67546D01*
X-136786Y65614D01*
X-143036Y54789D01*
X-143968Y52539D01*
X-144286Y50124D01*
X-143968Y47709D01*
X-143036Y45459D01*
X-141553Y43527D01*
X-140103Y42413D01*
X-140024Y42217D01*
X-139875Y41511D01*
X-139805Y40533D01*
X-139850Y39296D01*
X-140027Y37818D01*
X-140348Y36114D01*
X-140551Y35289D01*
X-140959Y33841D01*
X-143180Y22677D01*
X-144517Y11374D01*
X-144964Y0D01*
X-144517Y-11374D01*
X-143180Y-22677D01*
X-142554Y-25824D01*
X-143238Y-26716D01*
X-143587Y-27559D01*
X-145000Y-27652D01*
X-151823Y-15835D01*
X-152610Y-14938D01*
X-153680Y-14410D01*
X-154871Y-14332D01*
X-156001Y-14715D01*
X-165961Y-20465D01*
X-166164Y-20644D01*
X-166189Y-20655D01*
X-166198Y-20665D01*
X-166210Y-20671D01*
X-166268Y-20735D01*
X-166858Y-21252D01*
X-166996Y-21531D01*
X-166997Y-21533D01*
X-166999Y-21539D01*
X-167004Y-21548D01*
X-167011Y-21556D01*
X-167020Y-21580D01*
X-167386Y-22323D01*
X-167407Y-22651D01*
X-167408Y-22653D01*
X-167408Y-22659D01*
X-167409Y-22670D01*
X-167412Y-22680D01*
X-167411Y-22705D01*
X-167464Y-23514D01*
X-167360Y-23819D01*
X-167359Y-23846D01*
X-167353Y-23858D01*
X-167353Y-23872D01*
X-165174Y-32542D01*
X-164586Y-35803D01*
X-161612Y-47454D01*
X-160859Y-49718D01*
X-160791Y-49986D01*
X-160756Y-50062D01*
X-160747Y-50145D01*
X-160669Y-50289D01*
X-159251Y-54548D01*
X-160389Y-55152D01*
X-161208Y-54084D01*
X-161509Y-53820D01*
X-161772Y-53519D01*
X-163600Y-52117D01*
X-163959Y-51940D01*
X-164292Y-51718D01*
X-166420Y-50836D01*
X-166813Y-50758D01*
X-167192Y-50629D01*
X-168712Y-50429D01*
X-169114Y-49677D01*
X-169036Y-48486D01*
X-169420Y-47356D01*
X-169420Y-47356D01*
X-178670Y-31335D01*
X-179457Y-30438D01*
X-180527Y-29910D01*
X-181718Y-29832D01*
X-182848Y-30215D01*
X-192807Y-35965D01*
X-193420Y-36502D01*
X-193464Y-36534D01*
X-193474Y-36550D01*
X-193705Y-36752D01*
X-194233Y-37823D01*
X-194311Y-39014D01*
X-194032Y-39834D01*
X-194020Y-39887D01*
X-193997Y-39937D01*
X-193927Y-40144D01*
X-193927Y-40144D01*
X-193819Y-40330D01*
X-193759Y-40463D01*
X-193672Y-40835D01*
X-193645Y-41332D01*
X-193713Y-41985D01*
X-193906Y-42800D01*
X-194248Y-43767D01*
X-194733Y-44829D01*
X-196300Y-47488D01*
X-197048Y-48554D01*
X-200783Y-53633D01*
X-200998Y-54024D01*
X-201270Y-54378D01*
X-201504Y-54943D01*
X-201798Y-55478D01*
X-201905Y-55912D01*
X-202076Y-56325D01*
X-202156Y-56930D01*
X-202302Y-57523D01*
X-202292Y-57970D01*
X-202351Y-58413D01*
X-202271Y-59019D01*
X-202259Y-59630D01*
X-202134Y-60059D01*
X-202076Y-60501D01*
X-201842Y-61066D01*
X-201672Y-61653D01*
X-201441Y-62035D01*
X-201270Y-62448D01*
X-198054Y-68018D01*
X-196876Y-70292D01*
X-196411Y-71389D01*
X-196019Y-72480D01*
X-195713Y-73531D01*
X-195639Y-73863D01*
X-196759Y-74570D01*
X-197022Y-74269D01*
X-198850Y-72867D01*
X-199209Y-72690D01*
X-199542Y-72468D01*
X-201670Y-71586D01*
X-202063Y-71508D01*
X-202442Y-71379D01*
X-204726Y-71079D01*
X-205125Y-71105D01*
X-205524Y-71079D01*
X-207808Y-71379D01*
X-208187Y-71508D01*
X-208580Y-71586D01*
X-210708Y-72468D01*
X-211041Y-72690D01*
X-211400Y-72867D01*
X-213228Y-74269D01*
X-213491Y-74570D01*
X-213792Y-74834D01*
X-215195Y-76662D01*
X-215372Y-77021D01*
X-215594Y-77353D01*
X-216476Y-79482D01*
X-216554Y-79874D01*
X-216682Y-80253D01*
X-216692Y-80328D01*
X-217963Y-80250D01*
X-218179Y-55459D01*
X-217967Y-53854D01*
X-218457Y-50134D01*
X-219893Y-46668D01*
X-222177Y-43691D01*
X-298191Y32323D01*
X-299555Y33370D01*
X-299586Y33408D01*
X-299645Y33438D01*
X-301168Y34607D01*
X-304634Y36043D01*
X-304820Y36068D01*
X-304847Y36150D01*
X-305297Y38291D01*
X-305869Y44515D01*
X-305909Y46683D01*
Y47613D01*
X-289011Y64511D01*
X-289011Y64511D01*
X-287328Y66705D01*
X-286270Y69259D01*
X-285909Y72000D01*
X-285909Y72000D01*
Y72879D01*
X-285808Y75854D01*
X-285655Y77348D01*
X-285448Y78598D01*
X-285209Y79549D01*
X-284974Y80174D01*
X-284896Y80311D01*
X-284329Y80424D01*
X-283952Y80676D01*
X-283902Y80695D01*
X-283851Y80744D01*
X-283337Y81087D01*
X-283075Y81479D01*
X-283036Y81516D01*
X-283007Y81581D01*
X-282674Y82079D01*
X-282585Y82528D01*
X-282550Y82606D01*
X-282547Y82718D01*
X-282441Y83250D01*
Y104250D01*
X-282613Y105112D01*
X-281906Y106383D01*
X-260591D01*
Y102204D01*
X-260632Y99928D01*
X-260847Y96367D01*
X-261201Y93258D01*
X-261682Y90615D01*
X-262230Y88610D01*
X-274323Y76517D01*
X-276607Y73541D01*
X-278043Y70074D01*
X-278533Y66354D01*
X-278043Y62634D01*
X-276607Y59168D01*
X-274323Y56191D01*
X-198309Y-19823D01*
X-195332Y-22107D01*
X-191866Y-23543D01*
X-188146Y-24033D01*
X-184426Y-23543D01*
X-180959Y-22107D01*
X-177983Y-19823D01*
X-162073Y-3913D01*
X-159789Y-936D01*
X-158353Y2530D01*
X-157863Y6250D01*
X-158353Y9970D01*
X-159789Y13436D01*
X-162073Y16413D01*
X-238087Y92427D01*
X-238149Y92475D01*
X-238318Y93085D01*
X-238791Y95714D01*
X-239369Y102716D01*
X-239409Y105081D01*
Y114250D01*
Y150000D01*
X-239770Y152741D01*
X-240828Y155295D01*
X-242511Y157489D01*
X-242511Y157489D01*
X-249798Y164776D01*
X-249745Y164897D01*
X-248653Y166833D01*
X-247234Y168919D01*
X-243236Y173730D01*
X-241844Y175179D01*
X-226511Y190511D01*
X-225861Y191360D01*
X-224728Y192228D01*
X-222645Y194944D01*
X-221335Y198106D01*
X-220943Y201079D01*
X-190811Y231211D01*
X-189173Y232791D01*
X-186503Y235157D01*
X-184055Y237105D01*
X-181845Y238634D01*
X-180415Y239449D01*
X-65111D01*
X-64625Y238276D01*
D02*
G37*
G36*
X155771Y135163D02*
X157414Y132791D01*
X158267Y131750D01*
X159140Y130807D01*
X160035Y129960D01*
X160950Y129211D01*
X161887Y128559D01*
X162844Y128004D01*
X163822Y127546D01*
X149266Y119142D01*
X149373Y120308D01*
X149391Y121489D01*
X149319Y122687D01*
X149158Y123902D01*
X148906Y125132D01*
X148565Y126378D01*
X148135Y127640D01*
X147614Y128919D01*
X147004Y130213D01*
X146304Y131524D01*
X154981Y136495D01*
X155771Y135163D01*
D02*
G37*
G36*
X-286192Y83170D02*
X-286781Y82832D01*
X-287301Y82268D01*
X-287752Y81478D01*
X-288133Y80462D01*
X-288445Y79221D01*
X-288688Y77754D01*
X-288861Y76062D01*
X-289000Y72000D01*
X-304000D01*
X-304030Y74144D01*
X-304475Y79221D01*
X-304742Y80462D01*
X-305068Y81478D01*
X-305454Y82268D01*
X-305899Y82832D01*
X-306403Y83170D01*
X-306967Y83283D01*
X-285533D01*
X-286192Y83170D01*
D02*
G37*
G36*
X-242425Y102563D02*
X-241827Y95317D01*
X-241304Y92406D01*
X-240630Y89969D01*
X-239808Y88007D01*
X-238836Y86521D01*
X-237714Y85508D01*
X-236443Y84971D01*
X-235022Y84908D01*
X-264978Y81408D01*
X-263557Y81791D01*
X-262286Y82589D01*
X-261164Y83802D01*
X-260192Y85431D01*
X-259370Y87476D01*
X-258697Y89935D01*
X-258173Y92811D01*
X-257799Y96102D01*
X-257575Y99808D01*
X-257500Y103930D01*
X-242500Y106899D01*
X-242425Y102563D01*
D02*
G37*
G36*
X129593Y79415D02*
X135424Y69002D01*
X135607Y68606D01*
X134585Y67790D01*
X133621Y68529D01*
X131371Y69461D01*
X128956Y69779D01*
X126542Y69461D01*
X124291Y68529D01*
X113466Y62279D01*
X111534Y60796D01*
X110756Y59782D01*
X109231Y59882D01*
X106853Y64002D01*
X107528Y65372D01*
X108796Y65539D01*
X111046Y66471D01*
X121871Y72721D01*
X123803Y74204D01*
X125286Y76136D01*
X126218Y78386D01*
X126536Y80801D01*
X126388Y81925D01*
X127608Y82385D01*
X129593Y79415D01*
D02*
G37*
G36*
X191949Y77326D02*
X191906Y76047D01*
X191946Y74771D01*
X192069Y73497D01*
X192277Y72227D01*
X192568Y70959D01*
X192943Y69693D01*
X193401Y68431D01*
X193943Y67171D01*
X194568Y65915D01*
X185849Y61013D01*
X185061Y62430D01*
X183456Y64932D01*
X182638Y66017D01*
X181810Y66992D01*
X180972Y67856D01*
X180124Y68609D01*
X179266Y69251D01*
X178398Y69783D01*
X177520Y70204D01*
X192076Y78608D01*
X191949Y77326D01*
D02*
G37*
G36*
X321073Y73676D02*
X322405Y72514D01*
X322669Y72328D01*
X322906Y72183D01*
X323115Y72080D01*
X323296Y72019D01*
X323450Y72000D01*
X318500Y67050D01*
X318481Y67204D01*
X318420Y67385D01*
X318317Y67594D01*
X318172Y67831D01*
X317986Y68095D01*
X317488Y68706D01*
X316824Y69427D01*
X316429Y69828D01*
X320672Y74071D01*
X321073Y73676D01*
D02*
G37*
G36*
X-88653Y97596D02*
X-90307Y95876D01*
X-92848Y92783D01*
X-93735Y91410D01*
X-94368Y90153D01*
X-94744Y89012D01*
X-94866Y87987D01*
X-94732Y87078D01*
X-94342Y86285D01*
X-93697Y85608D01*
X-109364Y98168D01*
X-108548Y97656D01*
X-107652Y97365D01*
X-106676Y97293D01*
X-105619Y97441D01*
X-104482Y97809D01*
X-103264Y98396D01*
X-101966Y99204D01*
X-100588Y100231D01*
X-99129Y101479D01*
X-97589Y102946D01*
X-88653Y97596D01*
D02*
G37*
G36*
X58164Y140421D02*
X69002Y135424D01*
X79415Y129593D01*
X89338Y122963D01*
X98710Y115574D01*
X107473Y107473D01*
X112502Y102033D01*
X111881Y100834D01*
X110956Y100956D01*
X109996Y100829D01*
X109942Y100833D01*
X109887Y100815D01*
X108541Y100638D01*
X107306Y100126D01*
X107161Y100148D01*
X106439Y100388D01*
X105532Y100829D01*
X104466Y101494D01*
X103263Y102391D01*
X101942Y103521D01*
X100806Y104605D01*
X96706Y108706D01*
X95035Y109988D01*
X93088Y110794D01*
X91000Y111069D01*
X71000D01*
X68912Y110794D01*
X66965Y109988D01*
X65294Y108706D01*
X62162Y105574D01*
X61069Y106276D01*
Y129000D01*
X60794Y131088D01*
X59988Y133034D01*
X58706Y134706D01*
X52206Y141206D01*
X52056Y141320D01*
X52677Y142445D01*
X58164Y140421D01*
D02*
G37*
G36*
X246578Y119955D02*
X248261Y117761D01*
X270511Y95511D01*
X270511Y95511D01*
X272705Y93828D01*
X273769Y93387D01*
X273516Y92118D01*
X256034D01*
X245117Y103034D01*
Y120163D01*
X246388Y120415D01*
X246578Y119955D01*
D02*
G37*
G36*
X99890Y101251D02*
X101353Y100000D01*
X102739Y98966D01*
X104049Y98149D01*
X105283Y97548D01*
X106442Y97164D01*
X107524Y96997D01*
X108530Y97047D01*
X109461Y97314D01*
X110315Y97797D01*
X93950Y85933D01*
X94640Y86582D01*
X95076Y87343D01*
X95259Y88217D01*
X95188Y89205D01*
X94863Y90305D01*
X94284Y91518D01*
X93451Y92844D01*
X92365Y94282D01*
X91025Y95834D01*
X89431Y97498D01*
X98352Y102719D01*
X99890Y101251D01*
D02*
G37*
G36*
X355824Y88449D02*
X354985Y87492D01*
X354585Y87799D01*
X352556Y89355D01*
X349394Y90665D01*
X346000Y91112D01*
X342606Y90665D01*
X339444Y89355D01*
X336728Y87272D01*
X334645Y84556D01*
X333335Y81394D01*
X332888Y78000D01*
X333335Y74606D01*
X334645Y71444D01*
X336728Y68728D01*
X339444Y66645D01*
X342606Y65335D01*
X346000Y64888D01*
X349394Y65335D01*
X352556Y66645D01*
X355272Y68728D01*
X357355Y71444D01*
X358665Y74606D01*
X359112Y78000D01*
X358665Y81394D01*
X357355Y84556D01*
X355798Y86585D01*
X355492Y86985D01*
X356449Y87824D01*
X367659Y76613D01*
Y73647D01*
X367598Y71883D01*
X367330Y69612D01*
X366906Y67702D01*
X366351Y66157D01*
X365700Y64963D01*
X364980Y64079D01*
X364186Y63438D01*
X363263Y62976D01*
X362134Y62677D01*
X361651Y62639D01*
X358141Y62569D01*
X334484D01*
X332396Y62294D01*
X331190Y61795D01*
X330390Y62838D01*
X330488Y62965D01*
X331294Y64912D01*
X331569Y67000D01*
X331294Y69088D01*
X330488Y71034D01*
X329206Y72706D01*
X327534Y73988D01*
X325588Y74794D01*
X324241Y74971D01*
X323760Y75392D01*
X308826Y90326D01*
X307608Y91139D01*
X307993Y92409D01*
X351863D01*
X355824Y88449D01*
D02*
G37*
G36*
X170997Y266680D02*
X171178Y266170D01*
X171479Y265720D01*
X171901Y265330D01*
X172444Y265000D01*
X173107Y264730D01*
X173891Y264520D01*
X174796Y264370D01*
X175821Y264280D01*
X176967Y264250D01*
Y258250D01*
X175821Y258220D01*
X174796Y258130D01*
X173891Y257980D01*
X173107Y257770D01*
X172444Y257500D01*
X171901Y257170D01*
X171479Y256780D01*
X171178Y256330D01*
X170997Y255820D01*
X170937Y255250D01*
Y267250D01*
X170997Y266680D01*
D02*
G37*
G36*
X-133977Y269181D02*
X-133794Y266359D01*
X-130000D01*
X-130760Y265569D01*
X-131440Y264768D01*
X-132040Y263956D01*
X-132560Y263133D01*
X-133000Y262299D01*
X-133360Y261453D01*
X-133457Y261157D01*
X-133423Y260638D01*
X-133170Y259100D01*
X-132870Y257802D01*
X-132524Y256742D01*
X-132132Y255921D01*
X-131693Y255340D01*
X-142307D01*
X-141868Y255921D01*
X-141476Y256742D01*
X-141130Y257802D01*
X-140830Y259100D01*
X-140577Y260638D01*
X-140530Y261117D01*
X-140640Y261453D01*
X-141000Y262299D01*
X-141440Y263133D01*
X-141960Y263956D01*
X-142560Y264768D01*
X-143240Y265569D01*
X-144000Y266359D01*
X-140133D01*
X-140023Y269181D01*
X-140000Y271914D01*
X-134000D01*
X-133977Y269181D01*
D02*
G37*
G36*
X103033Y253283D02*
X102973Y253609D01*
X102793Y253901D01*
X102493Y254159D01*
X102073Y254382D01*
X101533Y254571D01*
X100873Y254725D01*
X100093Y254846D01*
X99193Y254931D01*
X97033Y255000D01*
Y261000D01*
X98177Y261030D01*
X99201Y261120D01*
X100105Y261270D01*
X100888Y261480D01*
X101552Y261750D01*
X102094Y262080D01*
X102517Y262470D01*
X102819Y262920D01*
X103002Y263430D01*
X103063Y264000D01*
X103033Y253283D01*
D02*
G37*
G36*
X125905Y253223D02*
X125715Y253043D01*
X125547Y252743D01*
X125402Y252323D01*
X125279Y251783D01*
X125179Y251123D01*
X125045Y249443D01*
X125017Y248084D01*
X125030Y247571D01*
X125120Y246546D01*
X125270Y245641D01*
X125480Y244858D01*
X125750Y244194D01*
X126080Y243651D01*
X126470Y243229D01*
X126920Y242928D01*
X127430Y242747D01*
X128000Y242687D01*
X116000D01*
X116570Y242747D01*
X117080Y242928D01*
X117530Y243229D01*
X117920Y243651D01*
X118250Y244194D01*
X118520Y244858D01*
X118730Y245641D01*
X118880Y246546D01*
X118970Y247571D01*
X118990Y248326D01*
X118989Y248423D01*
X118721Y251783D01*
X118598Y252323D01*
X118453Y252743D01*
X118285Y253043D01*
X118095Y253223D01*
X117883Y253283D01*
X126117D01*
X125905Y253223D01*
D02*
G37*
G36*
X-173004Y242814D02*
X-174279Y243547D01*
X-175743Y243882D01*
X-177394Y243817D01*
X-179234Y243352D01*
X-181261Y242488D01*
X-183476Y241225D01*
X-185879Y239562D01*
X-188471Y237500D01*
X-191250Y235038D01*
X-194217Y232176D01*
X-205877Y241730D01*
X-189967Y256217D01*
X-173004Y242814D01*
D02*
G37*
G36*
X-47687Y265000D02*
X-47747Y265570D01*
X-47928Y266080D01*
X-48229Y266530D01*
X-48651Y266920D01*
X-49194Y267250D01*
X-49858Y267520D01*
X-50641Y267730D01*
X-51546Y267880D01*
X-52250Y267942D01*
X-52954Y267880D01*
X-53858Y267730D01*
X-54643Y267520D01*
X-55306Y267250D01*
X-55849Y266920D01*
X-56271Y266530D01*
X-56572Y266080D01*
X-56753Y265570D01*
X-56814Y265000D01*
Y277000D01*
X-56753Y276430D01*
X-56572Y275920D01*
X-56271Y275470D01*
X-55849Y275080D01*
X-55306Y274750D01*
X-54643Y274480D01*
X-53858Y274270D01*
X-52954Y274120D01*
X-52250Y274058D01*
X-51546Y274120D01*
X-50641Y274270D01*
X-49858Y274480D01*
X-49194Y274750D01*
X-48651Y275080D01*
X-48229Y275470D01*
X-47928Y275920D01*
X-47747Y276430D01*
X-47687Y277000D01*
Y265000D01*
D02*
G37*
G36*
X-36970Y285321D02*
X-36880Y284296D01*
X-36730Y283391D01*
X-36520Y282607D01*
X-36250Y281944D01*
X-35920Y281401D01*
X-35530Y280979D01*
X-35080Y280678D01*
X-34570Y280497D01*
X-34000Y280436D01*
X-46000D01*
X-45430Y280497D01*
X-44920Y280678D01*
X-44470Y280979D01*
X-44080Y281401D01*
X-43750Y281944D01*
X-43480Y282607D01*
X-43270Y283391D01*
X-43120Y284296D01*
X-43030Y285321D01*
X-43000Y286467D01*
X-37000D01*
X-36970Y285321D01*
D02*
G37*
G36*
X59101Y261247D02*
X58382Y260170D01*
X58142Y260270D01*
X55401Y260631D01*
X55401Y260631D01*
X4152D01*
X3269Y261901D01*
X3289Y262000D01*
Y269750D01*
X-6500D01*
X-16289D01*
Y262000D01*
X-16269Y261901D01*
X-17151Y260631D01*
X-28169D01*
X-29211Y261901D01*
X-29191Y262000D01*
Y280500D01*
X-29424Y281670D01*
X-30087Y282663D01*
X-31079Y283326D01*
X-32038Y283517D01*
X-32156Y283835D01*
X-31400Y284883D01*
X35466D01*
X59101Y261247D01*
D02*
G37*
G36*
X-88299Y261723D02*
X-88761Y261543D01*
X-89169Y261243D01*
X-89522Y260823D01*
X-89821Y260283D01*
X-90065Y259623D01*
X-90255Y258843D01*
X-90391Y257943D01*
X-90473Y256923D01*
X-90500Y255783D01*
X-96500D01*
X-96527Y256923D01*
X-96609Y257943D01*
X-96744Y258843D01*
X-96935Y259623D01*
X-97179Y260283D01*
X-97478Y260823D01*
X-97831Y261243D01*
X-98239Y261543D01*
X-98701Y261723D01*
X-99217Y261783D01*
X-87783D01*
X-88299Y261723D01*
D02*
G37*
G36*
X152518Y253314D02*
X152234Y253829D01*
X151824Y254135D01*
X151289Y254232D01*
X150628Y254119D01*
X149842Y253796D01*
X148931Y253264D01*
X147894Y252523D01*
X146733Y251572D01*
X145490Y250407D01*
X144461Y249249D01*
X144430Y249165D01*
X144326Y249315D01*
X144033Y249040D01*
X144012Y249767D01*
X140433Y254912D01*
X140611Y254903D01*
X140814Y254938D01*
X141042Y255018D01*
X141294Y255142D01*
X141571Y255311D01*
X141873Y255524D01*
X142200Y255781D01*
X142928Y256430D01*
X143328Y256821D01*
X143827Y256023D01*
X143790Y257283D01*
X144802Y258337D01*
X146436Y260308D01*
X147058Y261224D01*
X147550Y262096D01*
X147913Y262921D01*
X148145Y263702D01*
X148248Y264436D01*
X148221Y265125D01*
X148063Y265768D01*
X152518Y253314D01*
D02*
G37*
G36*
X256423Y247362D02*
X258842Y245280D01*
X259871Y244545D01*
X260780Y244016D01*
X261568Y243691D01*
X262236Y243570D01*
X262784Y243654D01*
X263211Y243943D01*
X263518Y244436D01*
X258563Y232482D01*
X258743Y233103D01*
X258787Y233774D01*
X258697Y234496D01*
X258472Y235269D01*
X258112Y236092D01*
X257618Y236966D01*
X256988Y237890D01*
X256224Y238865D01*
X255324Y239891D01*
X254290Y240967D01*
X255033Y248710D01*
X256423Y247362D01*
D02*
G37*
G36*
X288780Y207821D02*
X288870Y206796D01*
X289020Y205891D01*
X289230Y205107D01*
X289500Y204444D01*
X289830Y203901D01*
X290220Y203479D01*
X290670Y203178D01*
X291180Y202997D01*
X291750Y202936D01*
X279750D01*
X280320Y202997D01*
X280830Y203178D01*
X281280Y203479D01*
X281670Y203901D01*
X282000Y204444D01*
X282270Y205107D01*
X282480Y205891D01*
X282630Y206796D01*
X282720Y207821D01*
X282750Y208967D01*
X288750D01*
X288780Y207821D01*
D02*
G37*
G36*
X70866Y207482D02*
X70380Y206309D01*
X55750D01*
X54988Y206157D01*
X54917Y206151D01*
X54894Y206138D01*
X54580Y206076D01*
X54072Y205737D01*
X47593Y205319D01*
X40539D01*
X37981Y205436D01*
X36799Y205582D01*
X35657Y205788D01*
X35015Y205945D01*
X34914Y206337D01*
X34977Y207262D01*
X36833Y208031D01*
X37166Y208253D01*
X37525Y208430D01*
X39353Y209833D01*
X39616Y210133D01*
X39917Y210397D01*
X41320Y212225D01*
X41497Y212584D01*
X41719Y212917D01*
X42601Y215045D01*
X42679Y215438D01*
X42807Y215816D01*
X43108Y218101D01*
X43082Y218500D01*
X43108Y218899D01*
X42807Y221183D01*
X42679Y221562D01*
X42601Y221955D01*
X41719Y224083D01*
X41497Y224416D01*
X41320Y224775D01*
X39917Y226603D01*
X39616Y226866D01*
X39353Y227167D01*
X37525Y228570D01*
X37166Y228747D01*
X36833Y228969D01*
X35280Y229613D01*
X35533Y230882D01*
X47466D01*
X70866Y207482D01*
D02*
G37*
G36*
X-68223Y204077D02*
X-68141Y203057D01*
X-68005Y202157D01*
X-67815Y201377D01*
X-67571Y200717D01*
X-67272Y200177D01*
X-66919Y199757D01*
X-66511Y199457D01*
X-66049Y199277D01*
X-65533Y199217D01*
X-76967D01*
X-76451Y199277D01*
X-75989Y199457D01*
X-75581Y199757D01*
X-75228Y200177D01*
X-74929Y200717D01*
X-74685Y201377D01*
X-74495Y202157D01*
X-74359Y203057D01*
X-74277Y204077D01*
X-74250Y205217D01*
X-68250D01*
X-68223Y204077D01*
D02*
G37*
G36*
X29424Y205007D02*
X30411Y204429D01*
X31464Y203918D01*
X32583Y203475D01*
X33769Y203101D01*
X35021Y202795D01*
X36339Y202556D01*
X37724Y202386D01*
X40692Y202250D01*
Y192250D01*
X39175Y192216D01*
X36339Y191944D01*
X35021Y191705D01*
X33769Y191399D01*
X32583Y191024D01*
X31464Y190582D01*
X30411Y190071D01*
X29424Y189493D01*
X28504Y188846D01*
Y205654D01*
X29424Y205007D01*
D02*
G37*
G36*
X55783Y191783D02*
X55683Y191872D01*
X55383Y191951D01*
X54883Y192021D01*
X54183Y192082D01*
X49383Y192231D01*
X45783Y192250D01*
Y202250D01*
X47683Y202260D01*
X54883Y202724D01*
X55383Y202869D01*
X55683Y203033D01*
X55783Y203217D01*
Y191783D01*
D02*
G37*
G36*
X227533Y226033D02*
X212533Y224500D01*
Y239500D01*
X215383Y239550D01*
X220183Y239947D01*
X222133Y240295D01*
X223783Y240742D01*
X225133Y241288D01*
X226183Y241934D01*
X226933Y242679D01*
X227383Y243523D01*
X227533Y244467D01*
Y226033D01*
D02*
G37*
G36*
X-60790Y229217D02*
X-61948Y228018D01*
X-63776Y225853D01*
X-64446Y224887D01*
X-64955Y224000D01*
X-65301Y223190D01*
X-65485Y222458D01*
X-65507Y221805D01*
X-65366Y221229D01*
X-65064Y220732D01*
X-72768Y229937D01*
X-72338Y229566D01*
X-71815Y229374D01*
X-71199Y229358D01*
X-70489Y229520D01*
X-69687Y229858D01*
X-68792Y230374D01*
X-67804Y231067D01*
X-66723Y231938D01*
X-64283Y234210D01*
X-60790Y229217D01*
D02*
G37*
G36*
X269712Y236442D02*
X269633Y235806D01*
X269698Y235109D01*
X269908Y234351D01*
X270263Y233533D01*
X270763Y232654D01*
X271407Y231714D01*
X272197Y230714D01*
X273131Y229654D01*
X274210Y228533D01*
X272467Y221790D01*
X271122Y223093D01*
X268762Y225116D01*
X267748Y225835D01*
X266845Y226360D01*
X266051Y226690D01*
X265368Y226825D01*
X264796Y226766D01*
X264334Y226512D01*
X263982Y226063D01*
X269937Y237018D01*
X269712Y236442D01*
D02*
G37*
G36*
X-65820Y211473D02*
X-66330Y211293D01*
X-66780Y210993D01*
X-67170Y210573D01*
X-67500Y210033D01*
X-67770Y209373D01*
X-67980Y208593D01*
X-68130Y207693D01*
X-68220Y206673D01*
X-68250Y205533D01*
X-74250D01*
X-74272Y206673D01*
X-74450Y208593D01*
X-74605Y209373D01*
X-74804Y210033D01*
X-75048Y210573D01*
X-75336Y210993D01*
X-75669Y211293D01*
X-76046Y211473D01*
X-76467Y211533D01*
X-65250D01*
X-65820Y211473D01*
D02*
G37*
G36*
X239073Y242351D02*
X239391Y240235D01*
X239922Y238118D01*
X240664Y236000D01*
X241619Y233882D01*
X242785Y231764D01*
X244164Y229644D01*
X245755Y227524D01*
X247558Y225404D01*
X249574Y223283D01*
X241520Y210123D01*
X238517Y213146D01*
X227327Y225874D01*
X227533Y226033D01*
X238967Y244467D01*
X239073Y242351D01*
D02*
G37*
G36*
X196669Y61995D02*
X199611Y57232D01*
X200178Y56520D01*
X200676Y56000D01*
X201107Y55672D01*
X201471Y55535D01*
X201766Y55591D01*
X191864Y49874D01*
X191803Y49956D01*
X191647Y50218D01*
X187016Y58817D01*
X195764Y63665D01*
X196669Y61995D01*
D02*
G37*
G36*
X184072Y23982D02*
X184113Y23684D01*
X184259Y23232D01*
X184510Y22627D01*
X185328Y20956D01*
X188228Y15769D01*
X179590Y10731D01*
X178691Y12258D01*
X174658Y18224D01*
X174406Y18401D01*
X174234Y18409D01*
X184136Y24126D01*
X184072Y23982D01*
D02*
G37*
G36*
X253081Y7473D02*
X252959Y7293D01*
X252851Y6993D01*
X252758Y6573D01*
X252679Y6033D01*
X252565Y4593D01*
X252500Y1533D01*
X246500D01*
X246493Y2673D01*
X246242Y6573D01*
X246149Y6993D01*
X246041Y7293D01*
X245919Y7473D01*
X245783Y7533D01*
X253217D01*
X253081Y7473D01*
D02*
G37*
G36*
X103083Y22994D02*
X103216Y22843D01*
X103305Y22662D01*
X104708Y20834D01*
X105009Y20570D01*
X105272Y20269D01*
X107100Y18867D01*
X107459Y18690D01*
X107792Y18468D01*
X109920Y17586D01*
X110313Y17508D01*
X110691Y17379D01*
X112976Y17079D01*
X113375Y17105D01*
X113774Y17079D01*
X116058Y17379D01*
X116437Y17508D01*
X116830Y17586D01*
X118958Y18468D01*
X119291Y18690D01*
X119650Y18867D01*
X121478Y20269D01*
X121741Y20570D01*
X122042Y20834D01*
X123445Y22662D01*
X123622Y23021D01*
X123844Y23353D01*
X124726Y25482D01*
X124804Y25874D01*
X124835Y25967D01*
X125984Y26017D01*
X126132Y25984D01*
X126931Y22381D01*
X128398Y11233D01*
X128889Y0D01*
X128398Y-11233D01*
X126931Y-22381D01*
X125938Y-26859D01*
X124650Y-26803D01*
X124610Y-26503D01*
X124482Y-26124D01*
X124404Y-25732D01*
X123522Y-23603D01*
X123300Y-23271D01*
X123123Y-22912D01*
X121720Y-21084D01*
X121419Y-20820D01*
X121156Y-20519D01*
X119328Y-19117D01*
X118969Y-18940D01*
X118636Y-18718D01*
X116508Y-17836D01*
X116115Y-17758D01*
X115736Y-17629D01*
X113452Y-17329D01*
X113053Y-17355D01*
X112654Y-17329D01*
X110369Y-17629D01*
X109991Y-17758D01*
X109598Y-17836D01*
X107470Y-18718D01*
X107137Y-18940D01*
X106778Y-19117D01*
X104950Y-20519D01*
X104686Y-20820D01*
X104386Y-21084D01*
X102983Y-22912D01*
X102894Y-23093D01*
X102761Y-23245D01*
X94503Y-37548D01*
X93346Y-37012D01*
X96152Y-29167D01*
X98548Y-19603D01*
X99995Y-9849D01*
X100479Y0D01*
X99995Y9849D01*
X98548Y19603D01*
X96152Y29167D01*
X93056Y37822D01*
X94213Y38358D01*
X103083Y22994D01*
D02*
G37*
G36*
X297950Y13000D02*
X297664Y12983D01*
X297367Y12927D01*
X297059Y12830D01*
X296739Y12695D01*
X296409Y12519D01*
X296066Y12305D01*
X295713Y12050D01*
X295348Y11756D01*
X294585Y11049D01*
X291049Y14585D01*
X291422Y14972D01*
X292050Y15713D01*
X292304Y16066D01*
X292519Y16408D01*
X292695Y16739D01*
X292831Y17059D01*
X292927Y17367D01*
X292983Y17664D01*
X293000Y17950D01*
X297950Y13000D01*
D02*
G37*
G36*
X-39213Y121274D02*
X-39353Y121167D01*
X-39616Y120866D01*
X-39917Y120603D01*
X-41320Y118775D01*
X-41497Y118416D01*
X-41719Y118083D01*
X-42601Y115955D01*
X-42679Y115562D01*
X-42807Y115183D01*
X-43108Y112899D01*
X-43082Y112500D01*
X-43108Y112101D01*
X-42807Y109817D01*
X-42679Y109438D01*
X-42601Y109045D01*
X-41719Y106917D01*
X-41497Y106584D01*
X-41320Y106225D01*
X-39917Y104397D01*
X-39616Y104134D01*
X-39353Y103833D01*
X-37525Y102430D01*
X-37166Y102253D01*
X-36833Y102031D01*
X-34705Y101149D01*
X-34312Y101071D01*
X-33933Y100943D01*
X-31649Y100642D01*
X-31448Y100655D01*
X-31250Y100616D01*
X31250D01*
X31448Y100655D01*
X31649Y100642D01*
X33933Y100943D01*
X34312Y101071D01*
X34705Y101149D01*
X35110Y101317D01*
X35829Y100240D01*
X29719Y94130D01*
X29559Y94109D01*
X27285Y93167D01*
X25331Y91669D01*
X23833Y89715D01*
X22891Y87441D01*
X22569Y85000D01*
X22891Y82559D01*
X23833Y80285D01*
X25331Y78331D01*
X27285Y76833D01*
X29559Y75891D01*
X32000Y75569D01*
X34441Y75891D01*
X36715Y76833D01*
X38668Y78331D01*
X40167Y80285D01*
X41109Y82559D01*
X41130Y82719D01*
X45837Y87426D01*
X46931Y86724D01*
Y75000D01*
X47035Y74209D01*
X47024Y74126D01*
X47299Y72038D01*
X48105Y70092D01*
X49388Y68421D01*
X50321Y67705D01*
X50245Y67604D01*
X53500Y65190D01*
X59632Y59632D01*
X65190Y53500D01*
X70120Y46853D01*
X74375Y39754D01*
X77913Y32273D01*
X80701Y24481D01*
X82712Y16452D01*
X83926Y8266D01*
X84333Y0D01*
X83926Y-8266D01*
X82712Y-16452D01*
X80701Y-24481D01*
X77913Y-32273D01*
X74375Y-39754D01*
X70120Y-46853D01*
X65190Y-53500D01*
X59632Y-59632D01*
X53500Y-65190D01*
X46853Y-70120D01*
X39754Y-74375D01*
X32273Y-77913D01*
X24481Y-80701D01*
X16452Y-82712D01*
X8266Y-83926D01*
X0Y-84333D01*
X-8266Y-83926D01*
X-16452Y-82712D01*
X-24481Y-80701D01*
X-31939Y-78033D01*
X-31965Y-78012D01*
X-33912Y-77206D01*
X-36000Y-76931D01*
X-49118D01*
X-51206Y-77206D01*
X-53152Y-78012D01*
X-54823Y-79294D01*
X-76460Y-100931D01*
X-84658D01*
X-89122Y-96466D01*
X-90193Y-95343D01*
X-91267Y-94080D01*
X-92063Y-92990D01*
X-92581Y-92107D01*
X-92601Y-92058D01*
X-91836Y-90974D01*
X-90553D01*
X-90292Y-91313D01*
X-89991Y-91577D01*
X-89728Y-91878D01*
X-87900Y-93280D01*
X-87541Y-93457D01*
X-87208Y-93680D01*
X-85080Y-94561D01*
X-84687Y-94639D01*
X-84308Y-94768D01*
X-82024Y-95069D01*
X-81625Y-95042D01*
X-81226Y-95069D01*
X-78941Y-94768D01*
X-78563Y-94639D01*
X-78170Y-94561D01*
X-76042Y-93680D01*
X-75709Y-93457D01*
X-75350Y-93280D01*
X-73522Y-91878D01*
X-73259Y-91577D01*
X-72958Y-91313D01*
X-71555Y-89485D01*
X-71378Y-89127D01*
X-71156Y-88794D01*
X-70274Y-86665D01*
X-70196Y-86273D01*
X-70068Y-85894D01*
X-69767Y-83610D01*
X-69793Y-83211D01*
X-69767Y-82811D01*
X-70068Y-80527D01*
X-70196Y-80148D01*
X-70274Y-79756D01*
X-71156Y-77627D01*
X-71268Y-77460D01*
X-71333Y-77269D01*
X-102583Y-23142D01*
X-102716Y-22990D01*
X-102805Y-22809D01*
X-104208Y-20981D01*
X-104509Y-20718D01*
X-104772Y-20417D01*
X-106600Y-19014D01*
X-106959Y-18837D01*
X-107292Y-18615D01*
X-109420Y-17733D01*
X-109813Y-17655D01*
X-110191Y-17527D01*
X-112476Y-17226D01*
X-112875Y-17252D01*
X-113274Y-17226D01*
X-115558Y-17527D01*
X-115937Y-17655D01*
X-116330Y-17733D01*
X-118458Y-18615D01*
X-118791Y-18837D01*
X-119150Y-19014D01*
X-120978Y-20417D01*
X-121241Y-20718D01*
X-121542Y-20981D01*
X-122945Y-22809D01*
X-123122Y-23168D01*
X-123344Y-23501D01*
X-124226Y-25629D01*
X-124304Y-26022D01*
X-124432Y-26400D01*
X-124531Y-27150D01*
X-125820Y-27206D01*
X-126891Y-22374D01*
X-128358Y-11230D01*
X-128848Y0D01*
X-128358Y11230D01*
X-126891Y22374D01*
X-126032Y26249D01*
X-125841Y26316D01*
X-125677Y26323D01*
X-124476Y25982D01*
X-123594Y23853D01*
X-123372Y23521D01*
X-123195Y23162D01*
X-121792Y21334D01*
X-121491Y21070D01*
X-121228Y20769D01*
X-119400Y19367D01*
X-119041Y19190D01*
X-118708Y18968D01*
X-116580Y18086D01*
X-116187Y18008D01*
X-115808Y17879D01*
X-113524Y17579D01*
X-113125Y17605D01*
X-112726Y17579D01*
X-110442Y17879D01*
X-110063Y18008D01*
X-109670Y18086D01*
X-107542Y18968D01*
X-107209Y19190D01*
X-106850Y19367D01*
X-105022Y20769D01*
X-104759Y21070D01*
X-104458Y21334D01*
X-103055Y23162D01*
X-102966Y23343D01*
X-102833Y23495D01*
X-71583Y77621D01*
X-71518Y77812D01*
X-71406Y77980D01*
X-70524Y80108D01*
X-70446Y80501D01*
X-70318Y80880D01*
X-70017Y83164D01*
X-70043Y83563D01*
X-70017Y83962D01*
X-70318Y86247D01*
X-70446Y86626D01*
X-70524Y87018D01*
X-71406Y89147D01*
X-71628Y89479D01*
X-71805Y89838D01*
X-73208Y91666D01*
X-73509Y91930D01*
X-73772Y92231D01*
X-75600Y93633D01*
X-75959Y93810D01*
X-76292Y94032D01*
X-78420Y94914D01*
X-78813Y94992D01*
X-79192Y95121D01*
X-81476Y95421D01*
X-81875Y95395D01*
X-82274Y95421D01*
X-84558Y95121D01*
X-84937Y94992D01*
X-85003Y94979D01*
X-85640Y96118D01*
X-82820Y98701D01*
X-73903Y105544D01*
X-64423Y111584D01*
X-54453Y116774D01*
X-44068Y121075D01*
X-39809Y122418D01*
X-39213Y121274D01*
D02*
G37*
G36*
X291455Y22613D02*
X291012Y22034D01*
X290206Y20088D01*
X289950Y18143D01*
X289947Y18132D01*
X289946Y18111D01*
X289942Y18082D01*
X289931Y18056D01*
X289869Y17940D01*
X289765Y17775D01*
X289638Y17598D01*
X289476Y17407D01*
X288551Y16482D01*
X287178Y16905D01*
X287076Y17421D01*
X286413Y18413D01*
X285420Y19076D01*
X284250Y19309D01*
X265750D01*
X264579Y19076D01*
X263587Y18413D01*
X261909Y18188D01*
X260841Y18902D01*
X258500Y19368D01*
X257132D01*
X256920Y19384D01*
X256353Y19465D01*
X256333Y19469D01*
X255932Y20641D01*
X255982Y20674D01*
X259190Y23883D01*
X290829D01*
X291455Y22613D01*
D02*
G37*
G36*
X-308925Y44346D02*
X-308327Y37836D01*
X-307803Y35342D01*
X-307130Y33355D01*
X-306307Y31876D01*
X-305335Y30905D01*
X-304213Y30442D01*
X-302941Y30486D01*
X-301520Y31037D01*
X-331478Y14908D01*
X-330057Y15858D01*
X-328786Y17098D01*
X-327664Y18626D01*
X-326692Y20444D01*
X-325870Y22552D01*
X-325197Y24949D01*
X-324673Y27635D01*
X-324299Y30610D01*
X-324075Y33876D01*
X-324000Y37430D01*
X-309000Y48363D01*
X-308925Y44346D01*
D02*
G37*
G36*
X265813Y5967D02*
X265768Y6258D01*
X265631Y6519D01*
X265403Y6749D01*
X265083Y6948D01*
X264673Y7117D01*
X264171Y7255D01*
X263577Y7362D01*
X262893Y7439D01*
X261250Y7500D01*
Y13500D01*
X262117Y13515D01*
X263577Y13638D01*
X264171Y13745D01*
X264673Y13883D01*
X265083Y14052D01*
X265403Y14251D01*
X265631Y14481D01*
X265768Y14741D01*
X265813Y15033D01*
Y5967D01*
D02*
G37*
G36*
X284237Y14525D02*
X284388Y14100D01*
X284639Y13725D01*
X284991Y13400D01*
X285444Y13125D01*
X285997Y12900D01*
X286651Y12725D01*
X287406Y12600D01*
X288261Y12525D01*
X289217Y12500D01*
Y7500D01*
X288261Y7475D01*
X287406Y7400D01*
X286651Y7275D01*
X285997Y7100D01*
X285444Y6875D01*
X284991Y6600D01*
X284639Y6275D01*
X284388Y5900D01*
X284237Y5475D01*
X284186Y5000D01*
Y15000D01*
X284237Y14525D01*
D02*
G37*
G36*
X319883Y16466D02*
Y11534D01*
X313756Y5408D01*
X311455D01*
X309114Y4942D01*
X307130Y3616D01*
X303884Y371D01*
X302558Y-1614D01*
X302092Y-3955D01*
Y-28045D01*
X302558Y-30386D01*
X303884Y-32371D01*
X307130Y-35616D01*
X307882Y-36119D01*
Y-71050D01*
X308348Y-73391D01*
X309674Y-75376D01*
X310934Y-76635D01*
X311252Y-77086D01*
X311465Y-77502D01*
X311563Y-77817D01*
X311591Y-78063D01*
X311570Y-78298D01*
X311487Y-78588D01*
X311300Y-78970D01*
X311009Y-79389D01*
X310424Y-79974D01*
X309098Y-81959D01*
X308633Y-84300D01*
Y-90782D01*
X308608Y-91124D01*
X308543Y-91593D01*
X307951Y-92078D01*
X307774Y-92131D01*
X306608Y-91289D01*
Y-59000D01*
X306181Y-56854D01*
X304965Y-55035D01*
X298615Y-48685D01*
X296796Y-47469D01*
X294650Y-47042D01*
X291407D01*
X291341Y-46998D01*
X291086Y-46947D01*
Y-45653D01*
X291341Y-45602D01*
X293326Y-44276D01*
X294652Y-42291D01*
X295117Y-39950D01*
X294652Y-37609D01*
X293326Y-35624D01*
X291341Y-34298D01*
X289000Y-33832D01*
X277484D01*
X255618Y-11966D01*
Y4288D01*
X255621Y4439D01*
X255712Y5590D01*
X256079Y5867D01*
X257173Y5984D01*
X257242Y5962D01*
X258909Y4848D01*
X261250Y4382D01*
X262700D01*
X262766Y4375D01*
X262924Y3579D01*
X263587Y2587D01*
X264579Y1924D01*
X265750Y1691D01*
X284250D01*
X285420Y1924D01*
X286413Y2587D01*
X287076Y3579D01*
X287211Y4258D01*
X287298Y4282D01*
X287790Y4363D01*
X288121Y4392D01*
X290000D01*
X292146Y4819D01*
X293965Y6035D01*
X297461Y9530D01*
X297568Y9616D01*
X297775Y9766D01*
X297940Y9869D01*
X298056Y9931D01*
X298082Y9942D01*
X298111Y9946D01*
X298132Y9947D01*
X298143Y9950D01*
X300088Y10206D01*
X302034Y11012D01*
X303706Y12294D01*
X304988Y13966D01*
X305794Y15912D01*
X306069Y18000D01*
X305794Y20088D01*
X304988Y22034D01*
X304545Y22613D01*
X305171Y23883D01*
X312466D01*
X319883Y16466D01*
D02*
G37*
G36*
X327247Y-10570D02*
X327428Y-11080D01*
X327729Y-11530D01*
X328152Y-11920D01*
X328694Y-12250D01*
X329358Y-12520D01*
X330141Y-12730D01*
X331046Y-12880D01*
X332071Y-12970D01*
X333217Y-13000D01*
Y-19000D01*
X332071Y-19030D01*
X331046Y-19120D01*
X330141Y-19270D01*
X329358Y-19480D01*
X328694Y-19750D01*
X328152Y-20080D01*
X327729Y-20470D01*
X327428Y-20920D01*
X327247Y-21430D01*
X327187Y-22000D01*
Y-10000D01*
X327247Y-10570D01*
D02*
G37*
G36*
X253240Y18099D02*
X253399Y17711D01*
X253665Y17369D01*
X254037Y17072D01*
X254515Y16821D01*
X255099Y16615D01*
X255790Y16455D01*
X256587Y16341D01*
X257491Y16273D01*
X258500Y16250D01*
Y10250D01*
X257491Y10227D01*
X256587Y10159D01*
X255790Y10044D01*
X255099Y9885D01*
X254515Y9679D01*
X254037Y9428D01*
X253665Y9131D01*
X253399Y8789D01*
X253240Y8401D01*
X253186Y7967D01*
Y18533D01*
X253240Y18099D01*
D02*
G37*
G36*
X-312057Y2723D02*
X-311338Y2194D01*
X-310584Y1755D01*
X-310255Y1610D01*
X-309000Y2865D01*
X-308899Y2144D01*
X-308596Y1286D01*
X-308478Y1055D01*
X-308110Y984D01*
X-307215Y909D01*
X-306284Y924D01*
X-305319Y1031D01*
X-304317Y1228D01*
X-304257Y-4803D01*
X-304056Y-5048D01*
X-300828Y-8536D01*
X-298911Y-10486D01*
X-299174Y-10748D01*
X-292272Y-10817D01*
X-292470Y-11818D01*
X-292576Y-12784D01*
X-292591Y-13715D01*
X-292516Y-14610D01*
X-292350Y-15470D01*
X-292093Y-16295D01*
X-291745Y-17084D01*
X-291306Y-17838D01*
X-290777Y-18557D01*
X-290156Y-19241D01*
X-295417Y-22465D01*
X-296034Y-21894D01*
X-296707Y-21356D01*
X-297436Y-20852D01*
X-298222Y-20382D01*
X-299064Y-19946D01*
X-299963Y-19544D01*
X-300918Y-19175D01*
X-302998Y-18540D01*
X-304122Y-18272D01*
X-304168Y-13731D01*
X-305103Y-12812D01*
X-307548Y-10665D01*
X-311772Y-10622D01*
X-312040Y-9498D01*
X-312675Y-7418D01*
X-313044Y-6463D01*
X-313267Y-5964D01*
X-313932Y-5548D01*
X-314926Y-5044D01*
X-315784Y-4741D01*
X-316505Y-4640D01*
X-314952Y-3087D01*
X-315394Y-2534D01*
X-315965Y-1917D01*
X-312741Y3344D01*
X-312057Y2723D01*
D02*
G37*
G36*
X226783Y7533D02*
X226683Y7669D01*
X226383Y7791D01*
X225883Y7899D01*
X225183Y7992D01*
X223183Y8135D01*
X216783Y8250D01*
Y18250D01*
X218683Y18257D01*
X226383Y18709D01*
X226683Y18831D01*
X226783Y18967D01*
Y7533D01*
D02*
G37*
G36*
X-146493Y-34046D02*
X-147634Y-33483D01*
X-148561Y-33317D01*
X-149274Y-33548D01*
X-149773Y-34176D01*
X-150058Y-35202D01*
X-150129Y-36624D01*
X-149986Y-38444D01*
X-149628Y-40660D01*
X-149057Y-43274D01*
X-148271Y-46285D01*
X-157825Y-49241D01*
X-164386Y-23126D01*
X-146493Y-34046D01*
D02*
G37*
G36*
X265783Y35783D02*
X265683Y35919D01*
X265383Y36041D01*
X264883Y36149D01*
X264183Y36242D01*
X262183Y36385D01*
X255783Y36500D01*
Y46500D01*
X257683Y46507D01*
X265383Y46959D01*
X265683Y47081D01*
X265783Y47217D01*
Y35783D01*
D02*
G37*
G36*
X385750Y54500D02*
X370750Y34500D01*
X370650Y37350D01*
X370350Y39900D01*
X369850Y42150D01*
X369150Y44100D01*
X368250Y45750D01*
X367150Y47100D01*
X365850Y48150D01*
X364350Y48900D01*
X362650Y49350D01*
X361132Y49470D01*
X357660Y49500D01*
Y59500D01*
X357822Y59503D01*
X361802Y59583D01*
X362650Y59650D01*
X364350Y60100D01*
X365850Y60850D01*
X367150Y61900D01*
X368250Y63250D01*
X369150Y64900D01*
X369850Y66850D01*
X370350Y69100D01*
X370650Y71650D01*
X370750Y74500D01*
X385750Y54500D01*
D02*
G37*
G36*
X284317Y47081D02*
X284617Y46959D01*
X285117Y46851D01*
X285817Y46758D01*
X287817Y46615D01*
X294217Y46500D01*
Y36500D01*
X292317Y36493D01*
X284617Y36041D01*
X284317Y35919D01*
X284217Y35783D01*
Y47217D01*
X284317Y47081D01*
D02*
G37*
G36*
X249174Y81674D02*
X251159Y80348D01*
X253500Y79882D01*
X301966D01*
X315301Y66548D01*
X315527Y66270D01*
X315706Y64912D01*
X316512Y62965D01*
X317794Y61294D01*
X319466Y60012D01*
X321412Y59206D01*
X323500Y58931D01*
X325588Y59206D01*
X326262Y59485D01*
X326981Y58408D01*
X318142Y49569D01*
X293672D01*
X290301Y49629D01*
X289898Y50907D01*
X292272Y52728D01*
X294356Y55444D01*
X295665Y58606D01*
X296112Y62000D01*
X295665Y65394D01*
X294356Y68556D01*
X292272Y71272D01*
X289556Y73355D01*
X286394Y74665D01*
X283000Y75112D01*
X279606Y74665D01*
X276444Y73355D01*
X273728Y71272D01*
X271644Y68556D01*
X270335Y65394D01*
X269888Y62000D01*
X270335Y58606D01*
X271644Y55444D01*
X273728Y52728D01*
X275226Y51579D01*
X274795Y50309D01*
X265750D01*
X265391Y50237D01*
X265319Y50240D01*
X265214Y50202D01*
X264579Y50076D01*
X264415Y49966D01*
X257646Y49569D01*
X253250D01*
X251161Y49294D01*
X249215Y48488D01*
X247544Y47206D01*
X247209Y46871D01*
X247177Y46871D01*
X245716Y46974D01*
X245382Y47017D01*
X244921Y47326D01*
X243750Y47559D01*
X236250D01*
X236099Y47529D01*
X235117Y48334D01*
Y94072D01*
X236291Y94558D01*
X249174Y81674D01*
D02*
G37*
G36*
X-242399Y62923D02*
X-242096Y62065D01*
X-241591Y61071D01*
X-240885Y59941D01*
X-239977Y58674D01*
X-237556Y55731D01*
X-234328Y52242D01*
X-232411Y50293D01*
X-236654Y46051D01*
X-238603Y47967D01*
X-245035Y53616D01*
X-246302Y54524D01*
X-247432Y55230D01*
X-248426Y55735D01*
X-249284Y56038D01*
X-250005Y56139D01*
X-242500Y63644D01*
X-242399Y62923D01*
D02*
G37*
G36*
X-120906Y38591D02*
X-121814Y38817D01*
X-122694Y38765D01*
X-123548Y38435D01*
X-124375Y37827D01*
X-125175Y36940D01*
X-125948Y35775D01*
X-126694Y34332D01*
X-127414Y32611D01*
X-128107Y30611D01*
X-128772Y28333D01*
X-137864Y33402D01*
X-137358Y35466D01*
X-137002Y37352D01*
X-136797Y39059D01*
X-136743Y40587D01*
X-136839Y41936D01*
X-137086Y43107D01*
X-137483Y44099D01*
X-138030Y44913D01*
X-138728Y45548D01*
X-139577Y46004D01*
X-120906Y38591D01*
D02*
G37*
G36*
X327176Y-25777D02*
X327139Y-25957D01*
X327106Y-26257D01*
X327054Y-27217D01*
X327000Y-31717D01*
X321000D01*
X320970Y-30577D01*
X320880Y-29557D01*
X320730Y-28657D01*
X320520Y-27877D01*
X320250Y-27217D01*
X319920Y-26677D01*
X319530Y-26257D01*
X319080Y-25957D01*
X318570Y-25777D01*
X318000Y-25717D01*
X327217D01*
X327176Y-25777D01*
D02*
G37*
G36*
X170957Y24146D02*
X170907Y24107D01*
X170720Y24049D01*
X170397Y23973D01*
X166741Y23322D01*
X164325Y22935D01*
X162769Y32813D01*
X165764Y33140D01*
X170957Y24146D01*
D02*
G37*
G36*
X360998Y46412D02*
X362134Y46322D01*
X363263Y46024D01*
X364186Y45562D01*
X364980Y44921D01*
X365700Y44037D01*
X366351Y42843D01*
X366906Y41298D01*
X367330Y39388D01*
X367598Y37117D01*
X367659Y35353D01*
Y-9882D01*
X331878D01*
X331430Y-9843D01*
X330789Y-9737D01*
X330334Y-9615D01*
X330309Y-9605D01*
Y-6250D01*
X330076Y-5079D01*
X329413Y-4087D01*
X328421Y-3424D01*
X327250Y-3191D01*
X324120D01*
X323634Y-2018D01*
X330326Y4674D01*
X331652Y6659D01*
X332118Y9000D01*
Y19000D01*
X331652Y21341D01*
X330326Y23326D01*
X321418Y32234D01*
X321955Y33493D01*
X323573Y33706D01*
X325519Y34512D01*
X327190Y35794D01*
X337827Y46431D01*
X341136D01*
X341389Y45161D01*
X339444Y44356D01*
X336728Y42272D01*
X334645Y39556D01*
X333335Y36394D01*
X332888Y33000D01*
X333335Y29606D01*
X334645Y26444D01*
X336728Y23728D01*
X339444Y21644D01*
X342606Y20335D01*
X346000Y19888D01*
X349394Y20335D01*
X352556Y21644D01*
X355272Y23728D01*
X357355Y26444D01*
X358665Y29606D01*
X359112Y33000D01*
X358665Y36394D01*
X357355Y39556D01*
X355272Y42272D01*
X352556Y44356D01*
X350611Y45161D01*
X350864Y46431D01*
X358828D01*
X360998Y46412D01*
D02*
G37*
G36*
X243785Y44331D02*
X243988Y44209D01*
X244328Y44101D01*
X244802Y44008D01*
X245413Y43929D01*
X247041Y43815D01*
X250500Y43750D01*
Y33750D01*
X249211Y33743D01*
X244328Y33399D01*
X243988Y33291D01*
X243785Y33169D01*
X243717Y33033D01*
Y44467D01*
X243785Y44331D01*
D02*
G37*
G36*
X138946Y45018D02*
X138245Y44385D01*
X137694Y43573D01*
X137294Y42582D01*
X137042Y41412D01*
X136941Y40062D01*
X136990Y38532D01*
X137188Y36823D01*
X137536Y34935D01*
X138034Y32868D01*
X128930Y27799D01*
X128272Y30087D01*
X126871Y33827D01*
X126130Y35278D01*
X125360Y36451D01*
X124563Y37344D01*
X123738Y37959D01*
X122885Y38294D01*
X122005Y38351D01*
X121097Y38128D01*
X139796Y45471D01*
X138946Y45018D01*
D02*
G37*
%LPC*%
G36*
X284500Y-93211D02*
X279250D01*
X278470Y-93366D01*
X277808Y-93808D01*
X277366Y-94470D01*
X277211Y-95250D01*
Y-103500D01*
X284500D01*
Y-93211D01*
D02*
G37*
G36*
X-345000Y60612D02*
X-348394Y60165D01*
X-351556Y58856D01*
X-354272Y56772D01*
X-356356Y54056D01*
X-357665Y50894D01*
X-358112Y47500D01*
X-357665Y44106D01*
X-356356Y40944D01*
X-354272Y38228D01*
X-351556Y36144D01*
X-348394Y34835D01*
X-345000Y34388D01*
X-341606Y34835D01*
X-338444Y36144D01*
X-335728Y38228D01*
X-333644Y40944D01*
X-332335Y44106D01*
X-331888Y47500D01*
X-332335Y50894D01*
X-333644Y54056D01*
X-335728Y56772D01*
X-338444Y58856D01*
X-341606Y60165D01*
X-345000Y60612D01*
D02*
G37*
G36*
X212750Y1539D02*
X210500D01*
Y-4750D01*
X214789D01*
Y-500D01*
X214634Y280D01*
X214192Y942D01*
X213530Y1384D01*
X212750Y1539D01*
D02*
G37*
G36*
X214789Y-7750D02*
X210500D01*
Y-14039D01*
X212750D01*
X213530Y-13884D01*
X214192Y-13442D01*
X214634Y-12780D01*
X214789Y-12000D01*
Y-7750D01*
D02*
G37*
G36*
X207500Y1539D02*
X205250D01*
X204470Y1384D01*
X203808Y942D01*
X203366Y280D01*
X203211Y-500D01*
Y-4750D01*
X207500D01*
Y1539D01*
D02*
G37*
G36*
Y-7750D02*
X203211D01*
Y-12000D01*
X203366Y-12780D01*
X203808Y-13442D01*
X204470Y-13884D01*
X205250Y-14039D01*
X207500D01*
Y-7750D01*
D02*
G37*
G36*
X244250Y-72711D02*
X236500D01*
Y-79000D01*
X246289D01*
Y-74750D01*
X246134Y-73970D01*
X245692Y-73308D01*
X245030Y-72866D01*
X244250Y-72711D01*
D02*
G37*
G36*
X233500D02*
X225750D01*
X224970Y-72866D01*
X224308Y-73308D01*
X223866Y-73970D01*
X223711Y-74750D01*
Y-79000D01*
X233500D01*
Y-72711D01*
D02*
G37*
G36*
X346000Y-60252D02*
X342000D01*
Y-63850D01*
X350800D01*
X350710Y-63399D01*
X349605Y-61745D01*
X347951Y-60640D01*
X346000Y-60252D01*
D02*
G37*
G36*
X339000D02*
X335000D01*
X333049Y-60640D01*
X331395Y-61745D01*
X330290Y-63399D01*
X330200Y-63850D01*
X339000D01*
Y-60252D01*
D02*
G37*
G36*
Y-66850D02*
X330200D01*
X330290Y-67301D01*
X331395Y-68955D01*
X333049Y-70060D01*
X335000Y-70448D01*
X339000D01*
Y-66850D01*
D02*
G37*
G36*
X350800D02*
X342000D01*
Y-70448D01*
X346000D01*
X347951Y-70060D01*
X349605Y-68955D01*
X350710Y-67301D01*
X350800Y-66850D01*
D02*
G37*
G36*
X-134250Y223385D02*
Y213000D01*
X-123865D01*
X-124033Y214274D01*
X-125296Y217324D01*
X-127306Y219944D01*
X-129926Y221954D01*
X-132976Y223217D01*
X-134250Y223385D01*
D02*
G37*
G36*
X-138250D02*
X-139524Y223217D01*
X-142574Y221954D01*
X-145194Y219944D01*
X-147204Y217324D01*
X-148467Y214274D01*
X-148635Y213000D01*
X-138250D01*
Y223385D01*
D02*
G37*
G36*
X-96000Y232039D02*
X-100250D01*
Y222250D01*
X-93961D01*
Y230000D01*
X-94116Y230780D01*
X-94558Y231442D01*
X-95220Y231884D01*
X-96000Y232039D01*
D02*
G37*
G36*
X-103250D02*
X-107500D01*
X-108280Y231884D01*
X-108942Y231442D01*
X-109384Y230780D01*
X-109539Y230000D01*
Y222250D01*
X-103250D01*
Y232039D01*
D02*
G37*
G36*
X-93961Y219250D02*
X-100250D01*
Y209461D01*
X-96000D01*
X-95220Y209616D01*
X-94558Y210058D01*
X-94116Y210720D01*
X-93961Y211500D01*
Y219250D01*
D02*
G37*
G36*
X-69000Y184569D02*
X-74500D01*
X-76588Y184294D01*
X-78534Y183488D01*
X-80206Y182206D01*
X-85027Y177384D01*
X-106454D01*
X-108542Y177109D01*
X-110489Y176303D01*
X-112160Y175021D01*
X-113442Y173349D01*
X-114248Y171403D01*
X-114523Y169315D01*
X-114248Y167226D01*
X-113442Y165280D01*
X-112160Y163609D01*
X-110489Y162327D01*
X-108542Y161521D01*
X-106454Y161246D01*
X-81685D01*
X-79597Y161521D01*
X-77651Y162327D01*
X-75979Y163609D01*
X-75542Y164047D01*
X-73091Y166421D01*
X-70819Y168431D01*
X-69000D01*
X-66912Y168706D01*
X-64966Y169512D01*
X-64463Y169897D01*
X-64330Y169924D01*
X-63337Y170587D01*
X-62674Y171579D01*
X-62668Y171611D01*
X-62012Y172465D01*
X-61206Y174412D01*
X-60931Y176500D01*
X-61206Y178588D01*
X-62012Y180534D01*
X-62668Y181389D01*
X-62674Y181421D01*
X-63337Y182413D01*
X-64330Y183076D01*
X-64463Y183103D01*
X-64966Y183488D01*
X-66912Y184294D01*
X-69000Y184569D01*
D02*
G37*
G36*
X-190000Y213102D02*
X-195178Y212694D01*
X-200229Y211482D01*
X-205028Y209494D01*
X-209457Y206780D01*
X-213407Y203407D01*
X-216780Y199457D01*
X-219494Y195028D01*
X-221482Y190229D01*
X-222694Y185178D01*
X-223102Y180000D01*
X-222694Y174822D01*
X-221482Y169771D01*
X-219494Y164972D01*
X-216780Y160543D01*
X-213407Y156593D01*
X-209457Y153220D01*
X-205028Y150506D01*
X-200229Y148518D01*
X-195178Y147305D01*
X-190000Y146898D01*
X-184822Y147305D01*
X-179771Y148518D01*
X-174972Y150506D01*
X-170543Y153220D01*
X-166593Y156593D01*
X-163220Y160543D01*
X-160506Y164972D01*
X-158518Y169771D01*
X-157305Y174822D01*
X-156898Y180000D01*
X-157305Y185178D01*
X-158518Y190229D01*
X-160506Y195028D01*
X-163220Y199457D01*
X-166593Y203407D01*
X-170543Y206780D01*
X-174972Y209494D01*
X-179771Y211482D01*
X-184822Y212694D01*
X-190000Y213102D01*
D02*
G37*
G36*
X-88961Y184500D02*
X-95250D01*
Y180211D01*
X-91000D01*
X-90220Y180366D01*
X-89558Y180808D01*
X-89116Y181470D01*
X-88961Y182250D01*
Y184500D01*
D02*
G37*
G36*
X-98250D02*
X-104539D01*
Y182250D01*
X-104384Y181470D01*
X-103942Y180808D01*
X-103280Y180366D01*
X-102500Y180211D01*
X-98250D01*
Y184500D01*
D02*
G37*
G36*
X-139379Y165668D02*
X-140570Y165590D01*
X-141640Y165062D01*
X-142427Y164165D01*
X-142427Y164165D01*
X-151677Y148144D01*
X-152061Y147014D01*
X-152005Y146158D01*
X-154952Y140731D01*
X-154997Y140658D01*
X-156940Y137549D01*
X-157435Y136803D01*
X-158151Y135843D01*
X-158898Y134954D01*
X-159322Y134507D01*
X-160528Y135082D01*
X-160517Y135164D01*
X-160543Y135563D01*
X-160517Y135962D01*
X-160818Y138247D01*
X-160946Y138626D01*
X-161024Y139018D01*
X-161906Y141147D01*
X-162128Y141479D01*
X-162305Y141838D01*
X-163708Y143666D01*
X-164009Y143930D01*
X-164272Y144231D01*
X-166100Y145633D01*
X-166459Y145810D01*
X-166792Y146032D01*
X-168920Y146914D01*
X-169313Y146992D01*
X-169692Y147121D01*
X-171976Y147421D01*
X-172375Y147395D01*
X-172774Y147421D01*
X-175058Y147121D01*
X-175437Y146992D01*
X-175830Y146914D01*
X-177958Y146032D01*
X-178291Y145810D01*
X-178650Y145633D01*
X-180478Y144231D01*
X-180741Y143930D01*
X-181042Y143666D01*
X-182445Y141838D01*
X-182534Y141657D01*
X-182667Y141505D01*
X-213917Y87379D01*
X-213982Y87188D01*
X-214094Y87020D01*
X-214976Y84892D01*
X-215054Y84499D01*
X-215182Y84120D01*
X-215483Y81836D01*
X-215457Y81437D01*
X-215483Y81038D01*
X-215182Y78753D01*
X-215054Y78374D01*
X-214976Y77982D01*
X-214094Y75853D01*
X-213872Y75521D01*
X-213695Y75162D01*
X-212292Y73334D01*
X-211991Y73070D01*
X-211728Y72769D01*
X-209900Y71367D01*
X-209541Y71190D01*
X-209208Y70968D01*
X-207080Y70086D01*
X-206687Y70008D01*
X-206308Y69879D01*
X-204024Y69579D01*
X-203625Y69605D01*
X-203226Y69579D01*
X-200942Y69879D01*
X-200563Y70008D01*
X-200170Y70086D01*
X-198042Y70968D01*
X-197709Y71190D01*
X-197350Y71367D01*
X-195522Y72769D01*
X-195259Y73070D01*
X-194958Y73334D01*
X-194580Y73826D01*
X-193310D01*
X-192999Y73421D01*
X-191432Y72219D01*
X-183638Y67719D01*
X-181813Y66963D01*
X-181675Y66945D01*
X-181292Y66282D01*
X-181100Y65588D01*
X-181135Y65411D01*
X-181264Y65032D01*
X-181565Y62748D01*
X-181538Y62348D01*
X-181565Y61949D01*
X-181264Y59665D01*
X-181135Y59286D01*
X-181057Y58893D01*
X-180175Y56765D01*
X-179953Y56432D01*
X-179776Y56073D01*
X-178374Y54246D01*
X-178073Y53982D01*
X-177809Y53681D01*
X-175981Y52278D01*
X-175622Y52101D01*
X-175290Y51879D01*
X-173161Y50998D01*
X-172769Y50919D01*
X-172390Y50791D01*
X-170106Y50490D01*
X-169706Y50516D01*
X-169307Y50490D01*
X-167023Y50791D01*
X-166644Y50919D01*
X-166252Y50998D01*
X-164123Y51879D01*
X-163790Y52101D01*
X-163432Y52278D01*
X-161604Y53681D01*
X-161340Y53982D01*
X-161039Y54246D01*
X-159637Y56073D01*
X-159547Y56254D01*
X-159414Y56406D01*
X-128164Y110533D01*
X-128099Y110724D01*
X-127987Y110892D01*
X-127106Y113020D01*
X-127028Y113413D01*
X-126899Y113791D01*
X-126598Y116076D01*
X-126624Y116475D01*
X-126598Y116874D01*
X-126899Y119158D01*
X-127028Y119537D01*
X-127106Y119930D01*
X-127987Y122058D01*
X-128210Y122391D01*
X-128387Y122750D01*
X-129789Y124578D01*
X-130090Y124841D01*
X-130354Y125142D01*
X-132182Y126545D01*
X-132540Y126722D01*
X-132873Y126944D01*
X-135002Y127826D01*
X-135394Y127904D01*
X-135773Y128032D01*
X-138057Y128333D01*
X-138456Y128307D01*
X-138856Y128333D01*
X-141140Y128032D01*
X-141519Y127904D01*
X-141911Y127826D01*
X-142650Y127519D01*
X-142951Y127721D01*
X-143534Y128528D01*
X-143224Y129047D01*
X-140995Y132613D01*
X-139345Y135223D01*
X-137193Y138450D01*
X-137175Y138474D01*
X-136764Y138943D01*
X-136680Y139014D01*
X-136651Y139072D01*
X-136420Y139335D01*
X-136420Y139335D01*
X-127170Y155356D01*
X-126786Y156487D01*
X-126864Y157677D01*
X-127392Y158748D01*
X-128289Y159535D01*
X-138249Y165285D01*
X-139379Y165668D01*
D02*
G37*
G36*
X-98250Y191789D02*
X-102500D01*
X-103280Y191634D01*
X-103942Y191192D01*
X-104384Y190530D01*
X-104539Y189750D01*
Y187500D01*
X-98250D01*
Y191789D01*
D02*
G37*
G36*
X-103250Y219250D02*
X-109539D01*
Y211500D01*
X-109384Y210720D01*
X-108942Y210058D01*
X-108280Y209616D01*
X-107500Y209461D01*
X-103250D01*
Y219250D01*
D02*
G37*
G36*
X-123865Y209000D02*
X-134250D01*
Y198615D01*
X-132976Y198783D01*
X-129926Y200046D01*
X-127306Y202056D01*
X-125296Y204676D01*
X-124033Y207726D01*
X-123865Y209000D01*
D02*
G37*
G36*
X-91000Y191789D02*
X-95250D01*
Y187500D01*
X-88961D01*
Y189750D01*
X-89116Y190530D01*
X-89558Y191192D01*
X-90220Y191634D01*
X-91000Y191789D01*
D02*
G37*
G36*
X-138250Y209000D02*
X-148635D01*
X-148467Y207726D01*
X-147204Y204676D01*
X-145194Y202056D01*
X-142574Y200046D01*
X-139524Y198783D01*
X-138250Y198615D01*
Y209000D01*
D02*
G37*
%LPD*%
G36*
X-76967Y180217D02*
X-68781Y172813D01*
X-69095Y172943D01*
X-69548Y172887D01*
X-70139Y172646D01*
X-70868Y172220D01*
X-71736Y171609D01*
X-72742Y170813D01*
X-75169Y168666D01*
X-78150Y165779D01*
X-85221Y172850D01*
X-83652Y174410D01*
X-77049Y180303D01*
X-76967Y180217D01*
D02*
G37*
G36*
X-158745Y119629D02*
X-158723Y119423D01*
X-158687Y119222D01*
X-158636Y119026D01*
X-158571Y118835D01*
X-158491Y118650D01*
X-158397Y118470D01*
X-158288Y118295D01*
X-158165Y118125D01*
X-158027Y117961D01*
X-165477D01*
X-165340Y118125D01*
X-165216Y118295D01*
X-165108Y118470D01*
X-165013Y118650D01*
X-164934Y118835D01*
X-164868Y119026D01*
X-164818Y119222D01*
X-164781Y119423D01*
X-164760Y119629D01*
X-164752Y119840D01*
X-158752D01*
X-158745Y119629D01*
D02*
G37*
G36*
X-139081Y140909D02*
X-139182Y140853D01*
X-139385Y140623D01*
X-139688Y140221D01*
X-141910Y136888D01*
X-144636Y132577D01*
X-153302Y137580D01*
X-152305Y139197D01*
X-149203Y144907D01*
X-148960Y145574D01*
X-148842Y146083D01*
X-148850Y146434D01*
X-148983Y146626D01*
X-139081Y140909D01*
D02*
G37*
G36*
X-145552Y131112D02*
X-146385Y129721D01*
X-147749Y127080D01*
X-148280Y125829D01*
X-148710Y124624D01*
X-149039Y123467D01*
X-149268Y122356D01*
X-149395Y121292D01*
X-149422Y120274D01*
X-149347Y119303D01*
X-163904Y127707D01*
X-162730Y128238D01*
X-161600Y128840D01*
X-160515Y129513D01*
X-159474Y130257D01*
X-158477Y131072D01*
X-157525Y131958D01*
X-156616Y132915D01*
X-155752Y133943D01*
X-154932Y135042D01*
X-154156Y136213D01*
X-145552Y131112D01*
D02*
G37*
%LPC*%
G36*
X1250Y282539D02*
X-5000D01*
Y272750D01*
X3289D01*
Y280500D01*
X3134Y281280D01*
X2692Y281942D01*
X2030Y282384D01*
X1250Y282539D01*
D02*
G37*
G36*
X-8000D02*
X-14250D01*
X-15030Y282384D01*
X-15692Y281942D01*
X-16134Y281280D01*
X-16289Y280500D01*
Y272750D01*
X-8000D01*
Y282539D01*
D02*
G37*
G36*
X0Y78177D02*
X-85Y78160D01*
X-171Y78172D01*
X-8582Y77700D01*
X-8750Y77657D01*
X-8923Y77661D01*
X-17228Y76250D01*
X-17390Y76189D01*
X-17562Y76174D01*
X-25657Y73842D01*
X-25811Y73762D01*
X-25981Y73729D01*
X-33763Y70505D01*
X-33907Y70409D01*
X-34072Y70356D01*
X-41445Y66281D01*
X-41577Y66170D01*
X-41735Y66099D01*
X-48605Y61224D01*
X-48724Y61098D01*
X-48874Y61010D01*
X-55155Y55397D01*
X-55259Y55259D01*
X-55397Y55155D01*
X-61010Y48874D01*
X-61098Y48724D01*
X-61224Y48605D01*
X-66099Y41735D01*
X-66170Y41577D01*
X-66281Y41445D01*
X-70356Y34072D01*
X-70409Y33907D01*
X-70505Y33763D01*
X-73729Y25981D01*
X-73762Y25811D01*
X-73842Y25657D01*
X-76174Y17562D01*
X-76189Y17390D01*
X-76250Y17228D01*
X-77661Y8923D01*
X-77657Y8750D01*
X-77700Y8582D01*
X-78172Y171D01*
X-78148Y0D01*
X-78172Y-171D01*
X-77700Y-8582D01*
X-77657Y-8750D01*
X-77661Y-8923D01*
X-76250Y-17228D01*
X-76189Y-17390D01*
X-76174Y-17562D01*
X-73842Y-25657D01*
X-73762Y-25811D01*
X-73729Y-25981D01*
X-70505Y-33763D01*
X-70409Y-33907D01*
X-70356Y-34072D01*
X-66281Y-41445D01*
X-66170Y-41577D01*
X-66099Y-41735D01*
X-61224Y-48605D01*
X-61098Y-48724D01*
X-61010Y-48874D01*
X-55397Y-55155D01*
X-55259Y-55259D01*
X-55155Y-55397D01*
X-48874Y-61010D01*
X-48724Y-61098D01*
X-48605Y-61224D01*
X-41735Y-66099D01*
X-41577Y-66170D01*
X-41445Y-66281D01*
X-34072Y-70356D01*
X-33907Y-70409D01*
X-33763Y-70505D01*
X-25981Y-73729D01*
X-25811Y-73762D01*
X-25657Y-73842D01*
X-17562Y-76174D01*
X-17390Y-76189D01*
X-17228Y-76250D01*
X-8923Y-77661D01*
X-8750Y-77657D01*
X-8582Y-77700D01*
X-171Y-78172D01*
X-85Y-78160D01*
X0Y-78177D01*
X85Y-78160D01*
X171Y-78172D01*
X8582Y-77700D01*
X8750Y-77657D01*
X8923Y-77661D01*
X17228Y-76250D01*
X17390Y-76189D01*
X17562Y-76174D01*
X25657Y-73842D01*
X25811Y-73762D01*
X25981Y-73729D01*
X33763Y-70505D01*
X33907Y-70409D01*
X34072Y-70356D01*
X41445Y-66281D01*
X41577Y-66170D01*
X41735Y-66099D01*
X48605Y-61224D01*
X48724Y-61098D01*
X48874Y-61010D01*
X55155Y-55397D01*
X55259Y-55259D01*
X55397Y-55155D01*
X61010Y-48874D01*
X61098Y-48724D01*
X61224Y-48605D01*
X66099Y-41735D01*
X66170Y-41577D01*
X66281Y-41445D01*
X70356Y-34072D01*
X70409Y-33907D01*
X70505Y-33763D01*
X73729Y-25981D01*
X73762Y-25811D01*
X73842Y-25657D01*
X76174Y-17562D01*
X76189Y-17390D01*
X76250Y-17228D01*
X77661Y-8923D01*
X77657Y-8750D01*
X77700Y-8582D01*
X78172Y-171D01*
X78148Y0D01*
X78172Y171D01*
X77700Y8582D01*
X77657Y8750D01*
X77661Y8923D01*
X76250Y17228D01*
X76189Y17390D01*
X76174Y17562D01*
X73842Y25657D01*
X73762Y25811D01*
X73729Y25981D01*
X70505Y33763D01*
X70409Y33907D01*
X70356Y34072D01*
X66281Y41445D01*
X66170Y41577D01*
X66099Y41735D01*
X61224Y48605D01*
X61098Y48724D01*
X61010Y48874D01*
X55397Y55155D01*
X55259Y55259D01*
X55155Y55397D01*
X48874Y61010D01*
X48724Y61098D01*
X48605Y61224D01*
X41735Y66099D01*
X41577Y66170D01*
X41445Y66281D01*
X34072Y70356D01*
X33907Y70409D01*
X33763Y70505D01*
X25981Y73729D01*
X25811Y73762D01*
X25657Y73842D01*
X17562Y76174D01*
X17390Y76189D01*
X17228Y76250D01*
X8923Y77661D01*
X8750Y77657D01*
X8582Y77700D01*
X171Y78172D01*
X85Y78160D01*
X0Y78177D01*
D02*
G37*
G36*
X289000Y-17500D02*
X281711D01*
Y-25750D01*
X281866Y-26530D01*
X282308Y-27192D01*
X282970Y-27634D01*
X283750Y-27789D01*
X289000D01*
Y-17500D01*
D02*
G37*
G36*
X299289D02*
X292000D01*
Y-27789D01*
X297250D01*
X298030Y-27634D01*
X298692Y-27192D01*
X299134Y-26530D01*
X299289Y-25750D01*
Y-17500D01*
D02*
G37*
G36*
X289000Y-4211D02*
X283750D01*
X282970Y-4366D01*
X282308Y-4808D01*
X281866Y-5470D01*
X281711Y-6250D01*
Y-14500D01*
X289000D01*
Y-4211D01*
D02*
G37*
G36*
X297250D02*
X292000D01*
Y-14500D01*
X299289D01*
Y-6250D01*
X299134Y-5470D01*
X298692Y-4808D01*
X298030Y-4366D01*
X297250Y-4211D01*
D02*
G37*
%LPD*%
G36*
X43537Y-272950D02*
X43838Y-273800D01*
X44339Y-274550D01*
X45041Y-275200D01*
X45944Y-275750D01*
X47048Y-276200D01*
X48351Y-276550D01*
X49856Y-276800D01*
X51561Y-276950D01*
X53467Y-277000D01*
Y-287000D01*
X51561Y-287050D01*
X49856Y-287200D01*
X48351Y-287450D01*
X47048Y-287800D01*
X45944Y-288250D01*
X45041Y-288800D01*
X44339Y-289450D01*
X43838Y-290200D01*
X43537Y-291050D01*
X43436Y-292000D01*
Y-272000D01*
X43537Y-272950D01*
D02*
G37*
G36*
X115015Y-280000D02*
X114914Y-279050D01*
X114614Y-278200D01*
X114112Y-277450D01*
X113410Y-276800D01*
X112507Y-276250D01*
X111404Y-275800D01*
X110100Y-275450D01*
X108595Y-275200D01*
X106890Y-275050D01*
X104984Y-275000D01*
Y-265000D01*
X106890Y-264950D01*
X108595Y-264800D01*
X110100Y-264550D01*
X111404Y-264200D01*
X112507Y-263750D01*
X113410Y-263200D01*
X114112Y-262550D01*
X114614Y-261800D01*
X114914Y-260950D01*
X115015Y-260000D01*
Y-280000D01*
D02*
G37*
D10*
X155627Y37150D02*
G03*
X-80012Y138557I-155627J-37150D01*
G01*
X-60236Y-148582D02*
G03*
X83804Y-136681I60236J148582D01*
G01*
X-158306Y-25379D02*
G03*
X-60236Y-148582I158306J25379D01*
G01*
X-165000Y-180000D02*
G03*
X-165000Y-180000I-25000J0D01*
G01*
X215000D02*
G03*
X215000Y-180000I-25000J0D01*
G01*
Y180000D02*
G03*
X215000Y180000I-25000J0D01*
G01*
X-165000D02*
G03*
X-165000Y180000I-25000J0D01*
G01*
X-19627Y135435D02*
G03*
X-108380Y83557I19627J-135435D01*
G01*
X-126419Y52411D02*
G03*
X-126507Y-52199I126419J-52411D01*
G01*
X126534Y-52239D02*
G03*
X126669Y51912I-126534J52239D01*
G01*
X18001Y-135250D02*
G03*
X108150Y-83188I-18001J135250D01*
G01*
X-35165Y-85401D02*
G03*
X55093Y74126I35165J85401D01*
G01*
X89250Y-270000D02*
X130000D01*
X161679Y114468D02*
X162171Y113597D01*
X180180Y-82935D02*
X198569Y-50754D01*
X179000Y-85000D02*
X180180Y-82935D01*
X145000Y144000D02*
X161679Y114468D01*
X138787Y-150977D02*
X161921Y-113963D01*
X137938Y-152336D02*
X138787Y-150977D01*
X18000Y-197250D02*
X68500D01*
X179671Y83287D02*
X200436Y44225D01*
X163547Y27874D02*
X174521Y29603D01*
X155627Y37150D02*
Y37150D01*
X-110884Y138557D02*
X-80012D01*
X155627Y37150D02*
X156252Y33183D01*
X83805Y-136681D02*
X110145D01*
X-269950Y-113800D02*
X-231700D01*
X-210000Y-280000D02*
X-177000D01*
X-182859Y-42878D02*
X-182271Y-42080D01*
X-194282Y-58413D02*
X-182859Y-42878D01*
X-194282Y-58413D02*
X-179921Y-83287D01*
X-210000Y-280000D02*
Y-258000D01*
X-242750Y-225250D02*
X-210000Y-258000D01*
X-177000Y-280000D02*
X-146000Y-249000D01*
X77250Y-282000D02*
X89250Y-270000D01*
X33000Y-282000D02*
X77250D01*
X-71250Y176500D02*
X-69000D01*
X-74500D02*
X-71250D01*
X246500Y-212250D02*
Y-163250D01*
X237250Y-221500D02*
X246500Y-212250D01*
X228500Y-221500D02*
X237250D01*
X142500Y-178750D02*
X148250Y-184500D01*
X123500Y-178750D02*
X142500D01*
X111577Y-166827D02*
X123500Y-178750D01*
X-220750Y-147000D02*
Y-124750D01*
X-242750Y-169000D02*
X-220750Y-147000D01*
X-242750Y-225250D02*
Y-169000D01*
X-42000Y-282000D02*
Y-264000D01*
Y-282000D02*
X-13000D01*
X-73000D02*
X-42000D01*
X-57000Y-249000D02*
X-42000Y-264000D01*
X-146000Y-249000D02*
X-57000D01*
X334484Y54500D02*
X378250D01*
X321484Y41500D02*
X334484Y54500D01*
X275000Y41500D02*
X321484D01*
X111577Y-166827D02*
Y-135250D01*
X183909Y13250D02*
X228250D01*
X174577Y29250D02*
X183909Y13250D01*
X-81685Y169315D02*
X-74500Y176500D01*
X-106454Y169315D02*
X-81685D01*
X53000Y106000D02*
Y129000D01*
X32000Y85000D02*
X53000Y106000D01*
X154321Y-26416D02*
X198569Y-50754D01*
X-59750Y-197250D02*
X-18000D01*
X18250Y197250D02*
X63750D01*
X156252Y33183D02*
X163547Y27874D01*
X110145Y-136681D02*
X111577Y-135250D01*
X-161752Y114625D02*
X-139749Y149830D01*
X-111577Y139250D02*
X-110884Y138557D01*
X-60000Y-166500D02*
Y-148818D01*
X-108169Y-88831D02*
X-88000Y-109000D01*
X66000Y146000D02*
Y165000D01*
X91000Y103000D02*
X108669Y85331D01*
X-88000Y-109000D02*
X-73118D01*
X-49118Y-85000D01*
X-36000D01*
X18000Y135500D02*
X46500D01*
X53000Y129000D01*
X55000Y75000D02*
Y87000D01*
X71000Y103000D01*
X91000D01*
X253250Y41500D02*
X275000D01*
X240000Y38750D02*
X250500D01*
X253250Y41500D01*
X198569Y-50754D02*
Y-33681D01*
X-182271Y-42080D02*
X-182250Y-42000D01*
X-231700Y-113800D02*
X-220750Y-124750D01*
D11*
X270000Y265000D02*
D03*
X-270000D02*
D03*
X60000Y-310000D02*
D03*
X315000Y130000D02*
D03*
X10000Y270000D02*
D03*
X139500Y250000D02*
D03*
X270500Y-98250D02*
D03*
X256250Y-38750D02*
D03*
X-180850Y85401D02*
D03*
X-278000Y-151500D02*
D03*
X-300000Y-151750D02*
D03*
X210500Y112000D02*
D03*
X-96000Y-310000D02*
D03*
X69750Y-100000D02*
D03*
X74500Y121500D02*
D03*
X113000Y2250D02*
D03*
X315000Y165000D02*
D03*
Y200000D02*
D03*
X242250Y71250D02*
D03*
X330000Y-208750D02*
D03*
X371250Y-190250D02*
D03*
X203500Y-18750D02*
D03*
X205750Y27000D02*
D03*
X236500Y-1750D02*
D03*
X264000Y-7500D02*
D03*
X159500Y-148500D02*
D03*
X357250Y-60750D02*
D03*
X216000Y-64500D02*
D03*
X196500Y-138000D02*
D03*
X222500Y-129500D02*
D03*
X298000Y-153000D02*
D03*
X275500Y-216500D02*
D03*
X299750Y-239250D02*
D03*
X240750Y-263250D02*
D03*
X250000Y-295500D02*
D03*
X216000Y-297000D02*
D03*
X119500Y-210000D02*
D03*
X-96250Y-269250D02*
D03*
X17000Y-268500D02*
D03*
X83250Y-155500D02*
D03*
X97250Y-116750D02*
D03*
X-91500Y-233250D02*
D03*
X43250Y-233500D02*
D03*
X-168000Y-293000D02*
D03*
X-303250Y-267500D02*
D03*
X-260250Y-248750D02*
D03*
X-151500Y-216750D02*
D03*
X-20250Y-313500D02*
D03*
X-217250Y-105250D02*
D03*
X-228500Y-192000D02*
D03*
X-257500Y-181000D02*
D03*
X-128000Y-133250D02*
D03*
X-379250Y-111250D02*
D03*
X-350750Y-76000D02*
D03*
X-322250Y-115250D02*
D03*
X-363250Y113250D02*
D03*
X-222750Y-28750D02*
D03*
X-155000Y40000D02*
D03*
X-200750Y135500D02*
D03*
X-381250Y-170000D02*
D03*
X-136250Y-30750D02*
D03*
X-349250Y-52000D02*
D03*
X-54750Y100250D02*
D03*
X-105250Y115250D02*
D03*
X215000Y280000D02*
D03*
X70000Y285000D02*
D03*
X250000Y280000D02*
D03*
X-100000Y290000D02*
D03*
X98000Y236000D02*
D03*
X-48750Y201250D02*
D03*
X-88750Y202500D02*
D03*
X-140000Y184750D02*
D03*
X-236000Y282000D02*
D03*
X-232500Y237000D02*
D03*
X-299500Y198750D02*
D03*
X-335000Y165000D02*
D03*
X323500Y67000D02*
D03*
X356750Y-30250D02*
D03*
X-106454Y169315D02*
D03*
X-163562Y-115098D02*
D03*
X-88000Y-109000D02*
D03*
X-115500Y-150500D02*
D03*
X-130000Y-198000D02*
D03*
X298000Y18000D02*
D03*
X-271000Y126000D02*
D03*
X-312000Y-41000D02*
D03*
X-317000Y-227250D02*
D03*
X-185750Y-246000D02*
D03*
X301000Y69750D02*
D03*
D12*
X264250Y235250D02*
D03*
X233250D02*
D03*
X-62500Y271000D02*
D03*
X-93500D02*
D03*
X-101750Y220750D02*
D03*
X-70750D02*
D03*
X-365500Y-90000D02*
D03*
X-334500D02*
D03*
X-361000Y-195000D02*
D03*
X-330000D02*
D03*
X-305500Y-210000D02*
D03*
X-274500D02*
D03*
D15*
X-6500Y271250D02*
D03*
X-40000D02*
D03*
D16*
X286000Y-105000D02*
D03*
X316000D02*
D03*
X320500Y-16000D02*
D03*
X290500Y-16000D02*
D03*
D17*
X121000Y237000D02*
D03*
Y206000D02*
D03*
X235000Y-80500D02*
D03*
Y-49500D02*
D03*
X275000Y41500D02*
D03*
X275000Y10500D02*
D03*
X-60000Y-166500D02*
D03*
Y-197500D02*
D03*
X65000Y197500D02*
D03*
Y166500D02*
D03*
X295500Y-136750D02*
D03*
Y-167750D02*
D03*
X120000Y-225000D02*
D03*
Y-194000D02*
D03*
D18*
X89000Y-197250D02*
D03*
X70000Y-197250D02*
D03*
X79500Y-171750D02*
D03*
X265500Y-163250D02*
D03*
X246500Y-163250D02*
D03*
X256000Y-137750D02*
D03*
X249500Y13250D02*
D03*
X230500Y13250D02*
D03*
X240000Y38750D02*
D03*
X218500Y-31750D02*
D03*
X199500D02*
D03*
X209000Y-6250D02*
D03*
D19*
X-71250Y195500D02*
D03*
Y176500D02*
D03*
X-96750Y186000D02*
D03*
D20*
X-296250Y139750D02*
D03*
X-296250Y93750D02*
D03*
D21*
X-289000Y-142000D02*
D03*
D24*
X-266000Y166000D02*
X-250000Y150000D01*
X-186960Y250040D02*
X-137000D01*
X258000Y-137000D02*
X320750D01*
X100941Y204500D02*
X135500D01*
X-137000Y250040D02*
X-95000D01*
X230250Y232000D02*
X255750Y206500D01*
X163000Y232000D02*
X230250D01*
X135500Y204500D02*
X163000Y232000D01*
X55401Y250040D02*
X100941Y204500D01*
X-95000Y250040D02*
X55401D01*
X-234000Y203000D02*
X-186960Y250040D01*
X255750Y125250D02*
Y206500D01*
Y125250D02*
X278000Y103000D01*
X378250Y54500D02*
Y81000D01*
X356250Y103000D02*
X378250Y81000D01*
X278000Y103000D02*
X356250D01*
X-316500Y2860D02*
Y52000D01*
X-250000Y114250D02*
Y150000D01*
Y63639D02*
Y114250D01*
X-261000Y171000D02*
X-234000Y198000D01*
X378250Y-15750D02*
Y54500D01*
X320750Y-137000D02*
X378250Y-79500D01*
Y-15750D01*
X-316500Y52000D02*
X-296500Y72000D01*
X-297000Y89500D02*
X-296500Y89000D01*
Y72000D02*
Y89000D01*
X-234000Y198000D02*
Y201500D01*
Y203000D01*
D26*
X-316500Y2860D02*
X-286820Y-26820D01*
X324000Y-44000D02*
Y-16000D01*
X-365500Y77750D02*
X-330750Y112500D01*
X-365500Y-63500D02*
Y77750D01*
X314750Y-105500D02*
Y-84300D01*
X217750Y-31250D02*
X230250D01*
X89000Y-197250D02*
X149750D01*
X-333750Y-126250D02*
Y-88750D01*
X69250Y-198000D02*
X70000D01*
X253540Y-150290D02*
X269750Y-166500D01*
X-275000Y-215000D02*
Y-201000D01*
X-140154Y151581D02*
X-139749Y149830D01*
X-60236Y-148582D02*
X-60000Y-148818D01*
X-60236Y-148582D02*
X-60236Y-148582D01*
X-74000Y-281000D02*
X-73000Y-282000D01*
X63750Y197250D02*
X65000Y198500D01*
X-137000Y250040D02*
Y273500D01*
X274950Y-39950D02*
X283500D01*
X249500Y-14500D02*
X274950Y-39950D01*
X249500Y-14500D02*
Y13250D01*
X99000Y188000D02*
X141000D01*
X50000Y237000D02*
X99000Y188000D01*
X141000D02*
X168746Y215746D01*
X-57250Y237000D02*
X50000D01*
X71000Y258000D02*
X103750D01*
X38000Y291000D02*
X71000Y258000D01*
X-36000Y291000D02*
X38000D01*
X121000Y237000D02*
X122000Y238000D01*
Y261250D01*
X-40000Y287000D02*
X-36000Y291000D01*
X103750Y258000D02*
X107000Y261250D01*
X-40000Y271250D02*
Y287000D01*
X-40250Y271000D02*
X-40000Y271250D01*
X-62500Y271000D02*
X-40250D01*
X-95000Y250040D02*
X-93500Y251540D01*
Y271000D01*
X140750Y250000D02*
X152000Y261250D01*
X221754Y215746D02*
X239000Y198500D01*
X168746Y215746D02*
X221754D01*
X167000Y261250D02*
X238250D01*
X285750Y195250D02*
Y212750D01*
X264250Y234250D02*
X285750Y212750D01*
X264250Y234250D02*
Y235250D01*
X238250Y261250D02*
X264250Y235250D01*
X139500Y250000D02*
X140750D01*
X-70750Y223500D02*
X-57250Y237000D01*
X304500Y86000D02*
X323500Y67000D01*
X253500Y86000D02*
X304500D01*
X239000Y100500D02*
X253500Y86000D01*
X239000Y100500D02*
Y198500D01*
X251287Y-102040D02*
X264290Y-89037D01*
X246960Y-102040D02*
X251287D01*
X264290Y-89037D02*
Y-83960D01*
X270200Y-78050D01*
X283500D01*
X255750Y-73500D02*
X263900Y-65350D01*
X255750Y-85500D02*
Y-73500D01*
X249250Y-92000D02*
X255750Y-85500D01*
X-365500Y-63500D02*
X-318500D01*
X-365500Y-90000D02*
Y-63500D01*
X-251750Y112500D02*
X-250000Y114250D01*
X-330750Y112500D02*
X-251750D01*
X-318500Y-63500D02*
X-295350Y-86650D01*
X-333750Y-126250D02*
X-330000Y-130000D01*
Y-195000D02*
Y-130000D01*
X-333750Y-88750D02*
X-316250D01*
X-275500Y-215500D02*
X-275000Y-215000D01*
X-295350Y-180650D02*
X-275000Y-201000D01*
X-308050Y-113500D02*
Y-96950D01*
X-316250Y-88750D02*
X-308050Y-96950D01*
X-295350Y-113500D02*
Y-86650D01*
X-245250Y-150500D02*
Y-129250D01*
X-265250Y-170500D02*
X-245250Y-150500D01*
X-269950Y-170500D02*
X-265250D01*
X210750Y-115750D02*
X234500Y-92000D01*
X210750Y-145250D02*
Y-115750D01*
Y-145250D02*
X230250Y-164750D01*
X-140423Y152750D02*
X-140154Y151581D01*
X230250Y-195250D02*
Y-164750D01*
X205000Y-220500D02*
X230250Y-195250D01*
X173000Y-220500D02*
X205000D01*
X149750Y-197250D02*
X173000Y-220500D01*
X-295350Y-180650D02*
Y-170500D01*
X321000Y-78050D02*
X340500D01*
X314750Y-84300D02*
X321000Y-78050D01*
X269750Y-166500D02*
X287000D01*
X247290Y-150290D02*
X253540D01*
X233250Y-136250D02*
X247290Y-150290D01*
X233250Y-136250D02*
Y-115750D01*
X261250Y10500D02*
X275000D01*
X258500Y13250D02*
X261250Y10500D01*
X249500Y13250D02*
X258500D01*
X255150Y-52650D02*
X283500D01*
X252000Y-49500D02*
X255150Y-52650D01*
X235000Y-49500D02*
X252000D01*
X233250Y-115750D02*
X246960Y-102040D01*
X234500Y-92000D02*
X249250D01*
X347050Y-39950D02*
X356750Y-30250D01*
X340500Y-39950D02*
X347050D01*
X378000Y-16000D02*
X378250Y-15750D01*
X263900Y-65350D02*
X283500D01*
X235000Y-49500D02*
Y-36000D01*
X230250Y-31250D02*
X235000Y-36000D01*
X-70750Y220750D02*
Y223500D01*
X-71250Y220250D02*
X-70750Y220750D01*
X-71250Y195500D02*
Y220250D01*
X-60000Y-197500D02*
X-59750Y-197250D01*
X-161752Y114625D02*
Y119840D01*
X-115500Y-158500D02*
Y-150500D01*
X108669Y83088D02*
Y85331D01*
X-108169Y-88831D02*
Y-83236D01*
X-130000Y-173000D02*
X-115500Y-158500D01*
X-130000Y-198000D02*
Y-173000D01*
X324000Y-16000D02*
X378000D01*
X324000Y-44000D02*
X332650Y-52650D01*
X340500D01*
X314000Y-71050D02*
X321000Y-78050D01*
X314000Y-71050D02*
Y-31290D01*
X209000Y139000D02*
X229000Y119000D01*
X311455Y-31290D02*
X314000D01*
X308210Y-28045D02*
X311455Y-31290D01*
X326000Y9000D02*
Y19000D01*
X308210Y-3955D02*
X311455Y-710D01*
X316290D01*
X326000Y9000D01*
X308210Y-28045D02*
Y-3955D01*
X256656Y30000D02*
X315000D01*
X326000Y19000D01*
X251656Y25000D02*
X256656Y30000D01*
X229000D02*
Y119000D01*
Y30000D02*
X234000Y25000D01*
X251656D01*
X264000Y-116000D02*
X265000D01*
X-250000Y63639D02*
X-223181Y36820D01*
D29*
X264000Y-116000D02*
X271000Y-123000D01*
X283500Y-52650D02*
X294650D01*
X271000Y-123000D02*
X294000D01*
X294650Y-52650D02*
X301000Y-59000D01*
X294000Y-123000D02*
X301000Y-116000D01*
Y-59000D01*
X284000Y10000D02*
X290000D01*
X298000Y18000D01*
D30*
X-136250Y211000D02*
D03*
X-137000Y273500D02*
D03*
X346000Y78000D02*
D03*
Y33000D02*
D03*
X-302000Y-8500D02*
D03*
X-345000Y47500D02*
D03*
X209000Y139000D02*
D03*
X283000Y62000D02*
D03*
X265000Y-116000D02*
D03*
X-234000Y201500D02*
D03*
D31*
X180000Y-255000D02*
D03*
X130000D02*
D03*
D32*
X228500Y-221500D02*
D03*
X148250Y-184750D02*
D03*
X18000Y-198000D02*
D03*
X-18000Y197000D02*
D03*
X145000Y144000D02*
D03*
X32000Y85000D02*
D03*
X18000Y135500D02*
D03*
X-18000Y-135250D02*
D03*
X153000Y-26000D02*
D03*
D33*
X285750Y161750D02*
D03*
Y195250D02*
D03*
D34*
X107000Y261250D02*
D03*
X152000Y261250D02*
D03*
X167000Y261250D02*
D03*
D35*
X122000Y261250D02*
D03*
D36*
X86000Y294750D02*
D03*
X86000Y272750D02*
D03*
X188000Y294750D02*
D03*
X188000Y272750D02*
D03*
D37*
X180000Y-270000D02*
D03*
X130000D02*
D03*
D38*
X-180250Y279500D02*
D03*
X-180250Y249500D02*
D03*
X-245250Y-129250D02*
D03*
Y-99250D02*
D03*
D39*
X340500Y-39950D02*
D03*
Y-52650D02*
D03*
X340500Y-65350D02*
D03*
Y-78050D02*
D03*
X283500Y-39950D02*
D03*
Y-52650D02*
D03*
X283500Y-65350D02*
D03*
Y-78050D02*
D03*
D40*
X-264500Y214250D02*
D03*
X-264500Y166250D02*
D03*
D41*
X111577Y-135250D02*
D03*
X138423Y-150750D02*
D03*
X-139423Y151750D02*
D03*
X-112577Y136250D02*
D03*
D42*
X-154827Y-28250D02*
D03*
X-181673Y-43750D02*
D03*
X201423Y44750D02*
D03*
X174577Y29250D02*
D03*
D43*
X-269950Y-170500D02*
D03*
X-282650D02*
D03*
X-295350Y-170500D02*
D03*
X-308050D02*
D03*
X-269950Y-113500D02*
D03*
X-282650D02*
D03*
X-295350Y-113500D02*
D03*
X-308050D02*
D03*
D44*
X-244750Y-287750D02*
D03*
X-196750D02*
D03*
D45*
X-120000Y-282000D02*
D03*
X-74000Y-282000D02*
D03*
X-13000Y-282000D02*
D03*
X33000D02*
D03*
D46*
X-18000Y135500D02*
D03*
X18000D02*
D03*
Y-135250D02*
D03*
X-18000D02*
D03*
D47*
X-126419Y52412D02*
D03*
X-108419Y83588D02*
D03*
X126347Y-52162D02*
D03*
X108347Y-83338D02*
D03*
D48*
X-108169Y-83236D02*
D03*
X-126169Y-52059D02*
D03*
X108669Y83088D02*
D03*
X126669Y51912D02*
D03*
D49*
X-161752Y114625D02*
D03*
X-179752Y83448D02*
D03*
X179921Y-82787D02*
D03*
X161921Y-113963D02*
D03*
D50*
X-17750Y197250D02*
D03*
X18250D02*
D03*
X-18000Y-197250D02*
D03*
X18000D02*
D03*
D51*
X179671Y83287D02*
D03*
X161671Y114463D02*
D03*
X-161921Y-114463D02*
D03*
X-179921Y-83287D02*
D03*
D52*
X-218198Y36302D02*
D03*
X-278302Y-23802D02*
D03*
D53*
X207000Y-245003D02*
X220329D01*
X90000D02*
X103329D01*
X96664Y-238339D02*
Y-251668D01*
M02*
