G04 Layer_Physical_Order=1*
G04 Layer_Color=255*
%FSLAX44Y44*%
%MOMM*%
G71*
G01*
G75*
%ADD10C,0.8000*%
%ADD11C,2.0000*%
%ADD12R,2.0000X1.2000*%
%ADD13R,2.0000X4.0000*%
%ADD14R,1.8500X1.8500*%
%ADD15R,1.8500X1.8500*%
G04:AMPARAMS|DCode=16|XSize=2.5mm|YSize=2.5mm|CornerRadius=0.625mm|HoleSize=0mm|Usage=FLASHONLY|Rotation=240.000|XOffset=0mm|YOffset=0mm|HoleType=Round|Shape=RoundedRectangle|*
%AMROUNDEDRECTD16*
21,1,2.5000,1.2500,0,0,240.0*
21,1,1.2500,2.5000,0,0,240.0*
1,1,1.2500,-0.8538,-0.2288*
1,1,1.2500,-0.2288,0.8538*
1,1,1.2500,0.8538,0.2288*
1,1,1.2500,0.2288,-0.8538*
%
%ADD16ROUNDEDRECTD16*%
G04:AMPARAMS|DCode=17|XSize=2.5mm|YSize=2.5mm|CornerRadius=0.625mm|HoleSize=0mm|Usage=FLASHONLY|Rotation=120.000|XOffset=0mm|YOffset=0mm|HoleType=Round|Shape=RoundedRectangle|*
%AMROUNDEDRECTD17*
21,1,2.5000,1.2500,0,0,120.0*
21,1,1.2500,2.5000,0,0,120.0*
1,1,1.2500,0.2288,0.8538*
1,1,1.2500,0.8538,-0.2288*
1,1,1.2500,-0.2288,-0.8538*
1,1,1.2500,-0.8538,0.2288*
%
%ADD17ROUNDEDRECTD17*%
G04:AMPARAMS|DCode=18|XSize=2.5mm|YSize=2.5mm|CornerRadius=0.625mm|HoleSize=0mm|Usage=FLASHONLY|Rotation=180.000|XOffset=0mm|YOffset=0mm|HoleType=Round|Shape=RoundedRectangle|*
%AMROUNDEDRECTD18*
21,1,2.5000,1.2500,0,0,180.0*
21,1,1.2500,2.5000,0,0,180.0*
1,1,1.2500,-0.6250,0.6250*
1,1,1.2500,0.6250,0.6250*
1,1,1.2500,0.6250,-0.6250*
1,1,1.2500,-0.6250,-0.6250*
%
%ADD18ROUNDEDRECTD18*%
%ADD19O,0.6000X1.7000*%
%ADD20C,1.0000*%
%ADD21R,2.2000X4.1500*%
%ADD22R,2.5000X2.1500*%
%ADD23R,1.9500X1.8500*%
%ADD24O,1.7000X0.6000*%
%ADD25R,2.1500X2.5000*%
%ADD26O,6.0000X4.0000*%
%ADD27P,2.6163X4X375.0*%
%ADD28R,1.8500X1.9500*%
%ADD29R,4.1500X2.2000*%
%ADD30C,0.5080*%
%ADD31C,0.5000*%
%ADD32C,0.7000*%
%ADD33C,0.6350*%
%ADD34C,1.2700*%
%ADD35C,0.2540*%
%ADD36C,1.8000*%
%ADD37C,1.6000*%
%ADD38C,3.0000*%
G36*
X956313Y523000D02*
X956233Y523760D01*
X955992Y524440D01*
X955591Y525040D01*
X955029Y525560D01*
X954306Y526000D01*
X953422Y526360D01*
X952378Y526640D01*
X951174Y526840D01*
X949809Y526960D01*
X948283Y527000D01*
Y535000D01*
X949809Y535040D01*
X951174Y535160D01*
X952378Y535360D01*
X953422Y535640D01*
X954306Y536000D01*
X955029Y536440D01*
X955591Y536960D01*
X955992Y537560D01*
X956233Y538240D01*
X956313Y539000D01*
Y523000D01*
D02*
G37*
G36*
X777124Y525717D02*
X775537Y524074D01*
X773042Y521129D01*
X772134Y519827D01*
X771452Y518638D01*
X770996Y517564D01*
X770767Y516603D01*
X770764Y515756D01*
X770987Y515023D01*
X771436Y514403D01*
X760153Y525686D01*
X760773Y525237D01*
X761506Y525014D01*
X762353Y525017D01*
X763314Y525246D01*
X764388Y525702D01*
X765576Y526384D01*
X766879Y527292D01*
X768294Y528426D01*
X771467Y531374D01*
X777124Y525717D01*
D02*
G37*
G36*
X912047Y537201D02*
X912287Y536739D01*
X912687Y536331D01*
X913247Y535978D01*
X913967Y535679D01*
X914847Y535435D01*
X915887Y535244D01*
X917087Y535109D01*
X918447Y535027D01*
X919967Y535000D01*
Y527000D01*
X918443Y526960D01*
X917079Y526840D01*
X915875Y526640D01*
X914831Y526360D01*
X913948Y526000D01*
X913225Y525560D01*
X912663Y525040D01*
X912260Y524440D01*
X912018Y523760D01*
X911936Y523000D01*
X911967Y537717D01*
X912047Y537201D01*
D02*
G37*
G36*
X695240Y686203D02*
X694560Y685963D01*
X693960Y685563D01*
X693440Y685003D01*
X693000Y684283D01*
X692640Y683403D01*
X692360Y682363D01*
X692160Y681163D01*
X692040Y679803D01*
X692000Y678283D01*
X684000D01*
X683960Y679803D01*
X683840Y681163D01*
X683640Y682363D01*
X683360Y683403D01*
X683000Y684283D01*
X682560Y685003D01*
X682040Y685563D01*
X681440Y685963D01*
X680760Y686203D01*
X680000Y686283D01*
X696000D01*
X695240Y686203D01*
D02*
G37*
G36*
X890063Y523000D02*
X889982Y523760D01*
X889740Y524440D01*
X889337Y525040D01*
X888775Y525560D01*
X888052Y526000D01*
X887169Y526360D01*
X886125Y526640D01*
X884921Y526840D01*
X883557Y526960D01*
X882033Y527000D01*
Y535000D01*
X883553Y535027D01*
X886113Y535244D01*
X887153Y535435D01*
X888033Y535679D01*
X888753Y535978D01*
X889313Y536331D01*
X889713Y536739D01*
X889953Y537201D01*
X890033Y537717D01*
X890063Y523000D01*
D02*
G37*
G36*
X795742Y530855D02*
X795837Y529770D01*
X795996Y528813D01*
X796218Y527984D01*
X796504Y527282D01*
X796853Y526707D01*
X797266Y526261D01*
X797742Y525942D01*
X798282Y525750D01*
X798885Y525686D01*
X786185D01*
X786788Y525750D01*
X787328Y525942D01*
X787804Y526261D01*
X788217Y526707D01*
X788566Y527282D01*
X788852Y527984D01*
X789074Y528813D01*
X789233Y529770D01*
X789328Y530855D01*
X789360Y532067D01*
X795710D01*
X795742Y530855D01*
D02*
G37*
G36*
X719750Y561397D02*
X719942Y560857D01*
X720261Y560381D01*
X720707Y559968D01*
X721282Y559619D01*
X721983Y559333D01*
X722813Y559111D01*
X723770Y558952D01*
X724855Y558857D01*
X726067Y558825D01*
Y552475D01*
X724855Y552443D01*
X723770Y552348D01*
X722813Y552189D01*
X721983Y551967D01*
X721282Y551681D01*
X720707Y551332D01*
X720261Y550919D01*
X719942Y550443D01*
X719750Y549903D01*
X719687Y549300D01*
Y562000D01*
X719750Y561397D01*
D02*
G37*
G36*
X1296115Y493885D02*
X915002D01*
X914323Y495155D01*
X914393Y495259D01*
X914590Y496250D01*
Y523261D01*
X914592Y523266D01*
X914644Y523345D01*
X914793Y523482D01*
X915118Y523680D01*
X915659Y523901D01*
X916424Y524106D01*
X917405Y524269D01*
X918590Y524373D01*
X919746Y524404D01*
X948504D01*
X949661Y524373D01*
X950848Y524269D01*
X951830Y524106D01*
X952595Y523901D01*
X953137Y523680D01*
X953460Y523483D01*
X953608Y523346D01*
X953660Y523269D01*
X953660Y523267D01*
Y514500D01*
X953857Y513509D01*
X954419Y512669D01*
X955259Y512107D01*
X956250Y511910D01*
X977750D01*
X978741Y512107D01*
X979581Y512669D01*
X980143Y513509D01*
X980340Y514500D01*
Y539500D01*
X980143Y540491D01*
X979581Y541331D01*
X978741Y541893D01*
X977750Y542090D01*
X956250D01*
X955259Y541893D01*
X954419Y541331D01*
X953857Y540491D01*
X953660Y539500D01*
Y538733D01*
X953660Y538731D01*
X953608Y538654D01*
X953460Y538517D01*
X953136Y538320D01*
X952595Y538099D01*
X951830Y537894D01*
X950848Y537731D01*
X949661Y537627D01*
X948504Y537596D01*
X919617D01*
X918547Y537616D01*
X917311Y537690D01*
X916266Y537808D01*
X915428Y537961D01*
X914813Y538132D01*
X914487Y538268D01*
X914393Y538741D01*
X914182Y539056D01*
X914180Y539063D01*
X914172Y539071D01*
X913831Y539581D01*
X913501Y539802D01*
X913496Y539807D01*
X913486Y539812D01*
X912991Y540143D01*
X912613Y540218D01*
X912580Y540233D01*
X912524Y540236D01*
X912000Y540340D01*
X890000D01*
X889476Y540236D01*
X889420Y540233D01*
X889387Y540218D01*
X889009Y540143D01*
X888514Y539812D01*
X888504Y539807D01*
X888499Y539802D01*
X888169Y539581D01*
X887828Y539071D01*
X887820Y539063D01*
X887818Y539056D01*
X887607Y538741D01*
X887513Y538268D01*
X887187Y538132D01*
X886572Y537961D01*
X885770Y537814D01*
X883420Y537615D01*
X882383Y537596D01*
X856000D01*
X854293Y537372D01*
X852702Y536713D01*
X851336Y535664D01*
X837268Y521596D01*
X810247D01*
X809090Y521627D01*
X807905Y521731D01*
X806924Y521894D01*
X806159Y522099D01*
X805618Y522320D01*
X805293Y522518D01*
X805144Y522655D01*
X805091Y522733D01*
X805090Y522738D01*
Y525750D01*
X804893Y526741D01*
X804331Y527581D01*
X803491Y528143D01*
X802500Y528340D01*
X798891D01*
X798824Y528450D01*
X798678Y528810D01*
X798530Y529361D01*
X798408Y530096D01*
X798362Y530621D01*
Y536806D01*
X799632Y537623D01*
X799708Y537608D01*
X799770Y537567D01*
X802000Y537123D01*
X818950D01*
X821180Y537567D01*
X823070Y538830D01*
X828120Y543880D01*
X829383Y545770D01*
X829568Y546697D01*
X829750Y546660D01*
X837000D01*
Y558500D01*
Y570340D01*
X829827D01*
Y573586D01*
X831384Y575143D01*
X832621Y576297D01*
X833645Y577124D01*
X834406Y577660D01*
X848250D01*
X849241Y577857D01*
X850081Y578419D01*
X850643Y579259D01*
X850840Y580250D01*
Y598750D01*
X850643Y599741D01*
X850081Y600581D01*
X849241Y601143D01*
X848250Y601340D01*
X845356D01*
X845289Y601450D01*
X845143Y601810D01*
X844995Y602361D01*
X844932Y602743D01*
X844994Y603121D01*
X845141Y603667D01*
X845287Y604022D01*
X845371Y604160D01*
X848250D01*
X849241Y604357D01*
X850081Y604919D01*
X850643Y605759D01*
X850840Y606750D01*
Y625250D01*
X850643Y626241D01*
X850081Y627081D01*
X849241Y627643D01*
X848250Y627840D01*
X829750D01*
X828759Y627643D01*
X827919Y627081D01*
X827357Y626241D01*
X827160Y625250D01*
Y606750D01*
X827357Y605759D01*
X827919Y604919D01*
X828759Y604357D01*
X829750Y604160D01*
X832629D01*
X832713Y604022D01*
X832859Y603667D01*
X833006Y603121D01*
X833068Y602743D01*
X833005Y602361D01*
X832857Y601810D01*
X832711Y601450D01*
X832644Y601340D01*
X829750D01*
X828759Y601143D01*
X827919Y600581D01*
X827357Y599741D01*
X827160Y598750D01*
Y588147D01*
X826883Y587662D01*
X826318Y586843D01*
X824806Y585046D01*
X819880Y580120D01*
X818617Y578230D01*
X818173Y576000D01*
Y571743D01*
X816903Y571358D01*
X816244Y572344D01*
X814412Y573569D01*
X813878Y573675D01*
X813464Y574533D01*
X814022Y575635D01*
X814180Y575667D01*
X816070Y576930D01*
X816082Y576948D01*
X816244Y577056D01*
X817468Y578888D01*
X817898Y581050D01*
X817468Y583212D01*
X816244Y585044D01*
X816082Y585152D01*
X816070Y585170D01*
X814180Y586433D01*
X811950Y586877D01*
X781022D01*
X779707Y587422D01*
X778000Y587646D01*
X744000D01*
X742293Y587422D01*
X740702Y586763D01*
X739336Y585714D01*
X738287Y584348D01*
X737628Y582757D01*
X736407Y582988D01*
Y591558D01*
X736596Y593000D01*
Y625000D01*
X736372Y626707D01*
X735713Y628298D01*
X734664Y629664D01*
X694596Y669732D01*
Y678503D01*
X694627Y679655D01*
X694731Y680836D01*
X694894Y681812D01*
X695098Y682573D01*
X695318Y683110D01*
X695514Y683431D01*
X695650Y683577D01*
X695727Y683629D01*
X695814Y683659D01*
X695823Y683660D01*
X700500D01*
X701491Y683857D01*
X702331Y684419D01*
X702893Y685259D01*
X703090Y686250D01*
Y707750D01*
X702893Y708741D01*
X702331Y709581D01*
X701491Y710143D01*
X700500Y710340D01*
X690738D01*
X690733Y710341D01*
X690655Y710394D01*
X690518Y710543D01*
X690320Y710867D01*
X690099Y711409D01*
X689894Y712174D01*
X689731Y713155D01*
X689627Y714340D01*
X689596Y715497D01*
Y721395D01*
X689648Y722747D01*
X689711Y723334D01*
X689799Y723872D01*
X689903Y724329D01*
X690019Y724705D01*
X690137Y724998D01*
X690249Y725211D01*
X690343Y725349D01*
X690517Y725483D01*
X692207Y727684D01*
X693269Y730248D01*
X693631Y733000D01*
X693269Y735751D01*
X692207Y738316D01*
X690517Y740517D01*
X688316Y742207D01*
X685751Y743269D01*
X683000Y743631D01*
X680248Y743269D01*
X677684Y742207D01*
X675483Y740517D01*
X673793Y738316D01*
X672731Y735751D01*
X672369Y733000D01*
X672731Y730248D01*
X673793Y727684D01*
X675483Y725483D01*
X675657Y725349D01*
X675751Y725211D01*
X675863Y724998D01*
X675981Y724705D01*
X676096Y724329D01*
X676201Y723872D01*
X676283Y723365D01*
X676396Y722001D01*
X676404Y721607D01*
Y715455D01*
X676378Y714325D01*
X676286Y713121D01*
X676141Y712117D01*
X675956Y711326D01*
X675756Y710761D01*
X675579Y710428D01*
X675508Y710340D01*
X675500D01*
X675268Y710294D01*
X675221Y710288D01*
X675192Y710279D01*
X674509Y710143D01*
X673669Y709581D01*
X673107Y708741D01*
X673044Y708424D01*
X673038Y708412D01*
X673036Y708383D01*
X672910Y707750D01*
Y686250D01*
X673107Y685259D01*
X673669Y684419D01*
X674509Y683857D01*
X675500Y683660D01*
X680177D01*
X680186Y683659D01*
X680273Y683629D01*
X680350Y683577D01*
X680486Y683431D01*
X680682Y683110D01*
X680901Y682573D01*
X681106Y681812D01*
X681269Y680836D01*
X681373Y679655D01*
X681404Y678503D01*
Y667000D01*
X681628Y665293D01*
X682287Y663702D01*
X683336Y662336D01*
X723404Y622268D01*
Y594632D01*
X723214Y593190D01*
Y576190D01*
X723438Y574483D01*
X724098Y572892D01*
X725146Y571525D01*
X732986Y563686D01*
X734209Y562747D01*
X734185Y562251D01*
X733853Y561477D01*
X724621D01*
X724096Y561523D01*
X723361Y561645D01*
X722810Y561793D01*
X722450Y561939D01*
X722340Y562006D01*
Y567250D01*
X722143Y568241D01*
X721581Y569081D01*
X720741Y569643D01*
X719750Y569840D01*
X700250D01*
X699259Y569643D01*
X698419Y569081D01*
X697857Y568241D01*
X697660Y567250D01*
Y548750D01*
X697857Y547759D01*
X698419Y546919D01*
X699259Y546357D01*
X700250Y546160D01*
X719750D01*
X720741Y546357D01*
X721581Y546919D01*
X722143Y547759D01*
X722340Y548750D01*
Y549294D01*
X722450Y549361D01*
X722810Y549507D01*
X723361Y549655D01*
X724096Y549777D01*
X724621Y549823D01*
X743896D01*
X744021Y548553D01*
X742088Y548169D01*
X740256Y546944D01*
X739032Y545112D01*
X738999Y544950D01*
X749750D01*
X760501D01*
X760469Y545112D01*
X759244Y546944D01*
X757412Y548169D01*
X755250Y548599D01*
X751566D01*
X751087Y549869D01*
X751238Y550001D01*
X755250D01*
X757412Y550432D01*
X759244Y551656D01*
X760469Y553488D01*
X760899Y555650D01*
X760469Y557812D01*
X759244Y559644D01*
X757412Y560869D01*
X757368Y560877D01*
X757238Y562198D01*
X758298Y562637D01*
X759664Y563686D01*
X760713Y565052D01*
X761372Y566643D01*
X761596Y568350D01*
X761372Y570057D01*
X760713Y571648D01*
X759664Y573014D01*
X759444Y573184D01*
X759875Y574454D01*
X766058D01*
X767226Y574392D01*
X768242Y574213D01*
X769049Y573944D01*
X769673Y573608D01*
X770160Y573210D01*
X770558Y572723D01*
X770894Y572099D01*
X771163Y571292D01*
X771342Y570276D01*
X771404Y569108D01*
Y534982D01*
X769537Y533115D01*
X766601Y530388D01*
X765326Y529367D01*
X764189Y528573D01*
X763782Y528340D01*
X753000D01*
X752009Y528143D01*
X751169Y527581D01*
X750607Y526741D01*
X750410Y525750D01*
Y507250D01*
X750607Y506259D01*
X751169Y505419D01*
X752009Y504857D01*
X753000Y504660D01*
X771500D01*
X772491Y504857D01*
X773331Y505419D01*
X773893Y506259D01*
X774090Y507250D01*
Y518032D01*
X774323Y518439D01*
X775096Y519547D01*
X777458Y522335D01*
X778705Y523626D01*
X780140Y525061D01*
X781410Y524535D01*
Y507250D01*
X781607Y506259D01*
X782169Y505419D01*
X783009Y504857D01*
X784000Y504660D01*
X802500D01*
X803165Y504793D01*
X803182Y504794D01*
X803189Y504797D01*
X803491Y504857D01*
X804331Y505419D01*
X804893Y506259D01*
X805035Y506975D01*
X805040Y506992D01*
X805043Y507015D01*
X805090Y507250D01*
Y507388D01*
X805112Y507419D01*
X805247Y507535D01*
X805573Y507721D01*
X806124Y507930D01*
X806900Y508124D01*
X807891Y508278D01*
X809084Y508376D01*
X810227Y508404D01*
X840000D01*
X841707Y508628D01*
X843298Y509287D01*
X844664Y510336D01*
X858732Y524404D01*
X882253D01*
X883410Y524373D01*
X884595Y524269D01*
X885576Y524106D01*
X886341Y523901D01*
X886882Y523680D01*
X887207Y523482D01*
X887356Y523345D01*
X887408Y523267D01*
X887410Y523261D01*
Y496250D01*
X887607Y495259D01*
X887677Y495155D01*
X886998Y493885D01*
X660385D01*
Y621410D01*
Y696920D01*
X660089Y698407D01*
X659247Y699667D01*
X658885Y700029D01*
Y1136115D01*
X1296115D01*
Y493885D01*
D02*
G37*
G36*
X844747Y606720D02*
X844207Y606529D01*
X843731Y606212D01*
X843318Y605767D01*
X842969Y605196D01*
X842683Y604497D01*
X842461Y603671D01*
X842306Y602744D01*
X842461Y601813D01*
X842683Y600984D01*
X842969Y600282D01*
X843318Y599707D01*
X843731Y599261D01*
X844207Y598942D01*
X844747Y598750D01*
X845350Y598686D01*
X832650D01*
X833253Y598750D01*
X833793Y598942D01*
X834269Y599261D01*
X834682Y599707D01*
X835031Y600282D01*
X835317Y600984D01*
X835539Y601813D01*
X835694Y602744D01*
X835539Y603671D01*
X835317Y604497D01*
X835031Y605196D01*
X834682Y605767D01*
X834269Y606212D01*
X833793Y606529D01*
X833253Y606720D01*
X832650Y606783D01*
X845350D01*
X844747Y606720D01*
D02*
G37*
G36*
X799489Y573953D02*
X799304Y573611D01*
X799088Y573569D01*
X797256Y572344D01*
X796031Y570512D01*
X795602Y568350D01*
X796031Y566188D01*
X797256Y564356D01*
X799088Y563131D01*
X801021Y562747D01*
X800896Y561477D01*
X795650D01*
X793420Y561033D01*
X791530Y559770D01*
X788415Y556655D01*
X787152Y554765D01*
X786708Y552535D01*
Y530621D01*
X786662Y530096D01*
X786540Y529361D01*
X786392Y528810D01*
X786246Y528450D01*
X786179Y528340D01*
X784763D01*
X784758Y528343D01*
X783982Y529602D01*
X784372Y530543D01*
X784596Y532250D01*
Y569980D01*
X784646Y571161D01*
X784797Y572242D01*
X785027Y573110D01*
X785310Y573772D01*
X785622Y574253D01*
X785960Y574601D01*
X786352Y574867D01*
X786853Y575077D01*
X787508Y575223D01*
X798732D01*
X799489Y573953D01*
D02*
G37*
G36*
X788350Y577875D02*
X787143Y577795D01*
X786064Y577555D01*
X785111Y577155D01*
X784286Y576595D01*
X783587Y575875D01*
X783016Y574995D01*
X782571Y573955D01*
X782254Y572755D01*
X782064Y571395D01*
X782000Y569875D01*
X774000Y569050D01*
X773920Y570570D01*
X773680Y571930D01*
X773280Y573130D01*
X772720Y574170D01*
X772000Y575050D01*
X771120Y575770D01*
X770080Y576330D01*
X768880Y576730D01*
X767520Y576970D01*
X766000Y577050D01*
X778000Y581050D01*
X788350Y577875D01*
D02*
G37*
G36*
X802518Y522240D02*
X802760Y521560D01*
X803163Y520960D01*
X803725Y520440D01*
X804448Y520000D01*
X805331Y519640D01*
X806375Y519360D01*
X807579Y519160D01*
X808943Y519040D01*
X810467Y519000D01*
Y511000D01*
X808947Y510963D01*
X807587Y510851D01*
X806387Y510666D01*
X805347Y510405D01*
X804467Y510071D01*
X803747Y509662D01*
X803187Y509179D01*
X802787Y508621D01*
X802547Y507989D01*
X802467Y507283D01*
X802437Y523000D01*
X802518Y522240D01*
D02*
G37*
G36*
X687040Y714193D02*
X687160Y712829D01*
X687360Y711625D01*
X687640Y710581D01*
X688000Y709698D01*
X688440Y708975D01*
X688960Y708413D01*
X689560Y708010D01*
X690240Y707768D01*
X691000Y707686D01*
X675533Y707717D01*
X676192Y707797D01*
X676781Y708037D01*
X677301Y708437D01*
X677752Y708997D01*
X678133Y709717D01*
X678445Y710597D01*
X678688Y711637D01*
X678861Y712837D01*
X678965Y714197D01*
X679000Y715717D01*
X687000D01*
X687040Y714193D01*
D02*
G37*
G36*
X812487Y578151D02*
X811949Y577956D01*
X811475Y577630D01*
X811064Y577174D01*
X810716Y576588D01*
X810431Y575872D01*
X810210Y575026D01*
X810157Y574700D01*
X810210Y574374D01*
X810431Y573528D01*
X810716Y572812D01*
X811064Y572226D01*
X811475Y571770D01*
X811949Y571444D01*
X812487Y571249D01*
X813088Y571184D01*
X800412D01*
X801013Y571249D01*
X801551Y571444D01*
X802025Y571770D01*
X802436Y572226D01*
X802784Y572812D01*
X803069Y573528D01*
X803290Y574374D01*
X803343Y574700D01*
X803290Y575026D01*
X803069Y575872D01*
X802784Y576588D01*
X802436Y577174D01*
X802025Y577630D01*
X801551Y577956D01*
X801013Y578151D01*
X800412Y578216D01*
X813088D01*
X812487Y578151D01*
D02*
G37*
G36*
X688296Y726944D02*
X688024Y726544D01*
X687784Y726087D01*
X687576Y725572D01*
X687400Y724999D01*
X687256Y724369D01*
X687144Y723681D01*
X687064Y722935D01*
X687000Y721272D01*
X679000D01*
X678984Y722132D01*
X678856Y723681D01*
X678744Y724369D01*
X678600Y724999D01*
X678424Y725572D01*
X678216Y726087D01*
X677976Y726544D01*
X677704Y726944D01*
X677400Y727287D01*
X688600D01*
X688296Y726944D01*
D02*
G37*
G36*
X837263Y580313D02*
X836839Y580737D01*
X836310Y580966D01*
X835676Y581000D01*
X834936Y580840D01*
X834090Y580485D01*
X833139Y579936D01*
X832083Y579192D01*
X830922Y578253D01*
X828283Y575793D01*
X825293Y581783D01*
X826486Y583021D01*
X828378Y585269D01*
X829077Y586281D01*
X829611Y587216D01*
X829981Y588077D01*
X830186Y588862D01*
X830227Y589571D01*
X830102Y590205D01*
X829814Y590763D01*
X837263Y580313D01*
D02*
G37*
%LPC*%
G36*
X1045250Y600649D02*
X1037250D01*
X1032831Y600214D01*
X1028583Y598925D01*
X1024667Y596832D01*
X1021235Y594015D01*
X1018418Y590583D01*
X1016325Y586667D01*
X1015036Y582419D01*
X1014798Y580000D01*
X1045250D01*
Y600649D01*
D02*
G37*
G36*
X1223000Y642000D02*
X1213160D01*
Y634750D01*
X1213357Y633759D01*
X1213919Y632919D01*
X1214759Y632357D01*
X1215750Y632160D01*
X1223000D01*
Y642000D01*
D02*
G37*
G36*
X719250Y861340D02*
X712000D01*
Y851000D01*
X721840D01*
Y858750D01*
X721643Y859741D01*
X721081Y860581D01*
X720241Y861143D01*
X719250Y861340D01*
D02*
G37*
G36*
X1233000Y842590D02*
X1225000D01*
X1224009Y842393D01*
X1223169Y841831D01*
X1222607Y840991D01*
X1222410Y840000D01*
Y822000D01*
X1233000D01*
Y842590D01*
D02*
G37*
G36*
X708000Y861340D02*
X700750D01*
X699759Y861143D01*
X698919Y860581D01*
X698357Y859741D01*
X698160Y858750D01*
Y851000D01*
X708000D01*
Y861340D01*
D02*
G37*
G36*
X1278250Y726340D02*
X1259750D01*
X1258759Y726143D01*
X1257919Y725581D01*
X1257357Y724741D01*
X1257160Y723750D01*
Y705250D01*
X1257357Y704259D01*
X1257919Y703419D01*
X1258759Y702857D01*
X1259750Y702660D01*
X1264629D01*
X1264713Y702522D01*
X1264859Y702167D01*
X1265005Y701621D01*
X1265127Y700892D01*
X1265173Y700371D01*
Y661414D01*
X1262177Y658418D01*
X1261004Y657328D01*
X1260021Y656539D01*
X1259151Y655932D01*
X1258990Y655840D01*
X1246750D01*
X1245759Y655643D01*
X1244919Y655081D01*
X1244357Y654241D01*
X1244160Y653250D01*
Y641026D01*
X1244053Y640837D01*
X1243470Y640000D01*
X1241880Y638120D01*
X1238042Y634282D01*
X1237134Y634636D01*
X1236840Y634876D01*
Y642000D01*
X1227000D01*
Y632160D01*
X1234124D01*
X1234364Y631866D01*
X1234718Y630958D01*
X1202130Y598370D01*
X1200867Y596480D01*
X1200602Y595151D01*
X1200430Y595080D01*
X1198020Y593230D01*
X1196170Y590820D01*
X1195007Y588013D01*
X1194611Y585000D01*
X1195007Y581987D01*
X1196170Y579180D01*
X1198020Y576770D01*
X1200430Y574920D01*
X1200972Y574695D01*
X1201012Y574662D01*
X1201021Y574660D01*
X1201028Y574654D01*
X1201465Y574423D01*
X1202970Y573455D01*
X1203402Y573132D01*
X1205134Y571626D01*
X1210584Y566175D01*
X1210890Y565806D01*
X1211341Y565176D01*
X1211709Y564565D01*
X1211999Y563975D01*
X1212217Y563406D01*
X1212368Y562852D01*
X1212459Y562309D01*
X1212491Y561770D01*
X1212460Y561090D01*
X1212469Y561031D01*
X1212458Y560972D01*
X1212471Y560905D01*
X1212352Y560000D01*
X1212783Y556726D01*
X1214046Y553676D01*
X1216056Y551056D01*
X1218676Y549046D01*
X1221726Y547783D01*
X1225000Y547352D01*
X1228274Y547783D01*
X1231324Y549046D01*
X1233944Y551056D01*
X1235954Y553676D01*
X1237217Y556726D01*
X1237648Y560000D01*
X1237217Y563274D01*
X1235954Y566324D01*
X1233944Y568944D01*
X1231324Y570954D01*
X1228274Y572217D01*
X1225000Y572648D01*
X1224095Y572529D01*
X1224028Y572542D01*
X1223969Y572531D01*
X1223910Y572540D01*
X1223230Y572509D01*
X1222691Y572541D01*
X1222147Y572631D01*
X1221594Y572783D01*
X1221024Y573001D01*
X1220435Y573291D01*
X1219825Y573659D01*
X1219194Y574110D01*
X1218825Y574416D01*
X1216710Y576531D01*
X1216515Y576785D01*
X1216266Y577189D01*
X1216106Y577538D01*
X1216018Y577833D01*
X1215981Y578087D01*
X1215985Y578326D01*
X1216029Y578578D01*
X1216126Y578869D01*
X1216190Y578998D01*
X1216330Y579180D01*
X1217493Y581987D01*
X1217890Y585000D01*
X1217493Y588013D01*
X1216330Y590820D01*
X1214480Y593230D01*
X1214418Y594178D01*
X1249812Y629571D01*
X1250990Y630665D01*
X1251970Y631449D01*
X1252837Y632053D01*
X1253026Y632160D01*
X1265250D01*
X1266241Y632357D01*
X1267081Y632919D01*
X1267643Y633759D01*
X1267840Y634750D01*
Y646990D01*
X1267932Y647151D01*
X1268519Y647992D01*
X1270113Y649872D01*
X1275120Y654880D01*
X1276383Y656770D01*
X1276827Y659000D01*
Y700371D01*
X1276873Y700892D01*
X1276994Y701621D01*
X1277141Y702167D01*
X1277287Y702522D01*
X1277371Y702660D01*
X1278250D01*
X1279241Y702857D01*
X1280081Y703419D01*
X1280643Y704259D01*
X1280840Y705250D01*
Y723750D01*
X1280643Y724741D01*
X1280081Y725581D01*
X1279241Y726143D01*
X1278250Y726340D01*
D02*
G37*
G36*
X1245000Y842590D02*
X1237000D01*
Y822000D01*
X1247590D01*
Y840000D01*
X1247393Y840991D01*
X1246831Y841831D01*
X1245991Y842393D01*
X1245000Y842590D01*
D02*
G37*
G36*
X1236000Y596390D02*
X1232988Y595993D01*
X1230180Y594830D01*
X1227770Y592980D01*
X1225920Y590570D01*
X1224757Y587763D01*
X1224361Y584750D01*
X1224757Y581738D01*
X1225920Y578930D01*
X1227770Y576520D01*
X1230180Y574670D01*
X1232988Y573507D01*
X1236000Y573111D01*
X1239013Y573507D01*
X1241820Y574670D01*
X1244230Y576520D01*
X1246080Y578930D01*
X1247243Y581738D01*
X1247640Y584750D01*
X1247243Y587763D01*
X1246080Y590570D01*
X1244230Y592980D01*
X1241820Y594830D01*
X1239013Y595993D01*
X1236000Y596390D01*
D02*
G37*
G36*
X721840Y847000D02*
X712000D01*
Y836660D01*
X719250D01*
X720241Y836857D01*
X721081Y837419D01*
X721643Y838259D01*
X721840Y839250D01*
Y847000D01*
D02*
G37*
G36*
X708000D02*
X698160D01*
Y839250D01*
X698357Y838259D01*
X698919Y837419D01*
X699759Y836857D01*
X700750Y836660D01*
X708000D01*
Y847000D01*
D02*
G37*
G36*
X1146000Y596390D02*
X1142988Y595993D01*
X1140180Y594830D01*
X1137770Y592980D01*
X1135920Y590570D01*
X1134757Y587763D01*
X1134361Y584750D01*
X1134757Y581738D01*
X1135920Y578930D01*
X1137770Y576520D01*
X1140180Y574670D01*
X1142988Y573507D01*
X1146000Y573111D01*
X1149013Y573507D01*
X1151820Y574670D01*
X1154230Y576520D01*
X1156080Y578930D01*
X1157243Y581738D01*
X1157640Y584750D01*
X1157243Y587763D01*
X1156080Y590570D01*
X1154230Y592980D01*
X1151820Y594830D01*
X1149013Y595993D01*
X1146000Y596390D01*
D02*
G37*
G36*
X1131000Y619648D02*
X1127726Y619217D01*
X1124676Y617954D01*
X1122056Y615944D01*
X1120046Y613324D01*
X1118783Y610274D01*
X1118352Y607000D01*
X1118783Y603726D01*
X1120046Y600676D01*
X1122056Y598056D01*
X1124676Y596046D01*
X1127726Y594783D01*
X1131000Y594352D01*
X1134274Y594783D01*
X1137324Y596046D01*
X1139944Y598056D01*
X1141954Y600676D01*
X1143217Y603726D01*
X1143648Y607000D01*
X1143217Y610274D01*
X1141954Y613324D01*
X1139944Y615944D01*
X1137324Y617954D01*
X1134274Y619217D01*
X1131000Y619648D01*
D02*
G37*
G36*
X730840Y877000D02*
X721000D01*
Y866660D01*
X728250D01*
X729241Y866857D01*
X730081Y867419D01*
X730643Y868259D01*
X730840Y869250D01*
Y877000D01*
D02*
G37*
G36*
X728250Y891340D02*
X721000D01*
Y881000D01*
X730840D01*
Y888750D01*
X730643Y889741D01*
X730081Y890581D01*
X729241Y891143D01*
X728250Y891340D01*
D02*
G37*
G36*
X1224750Y886840D02*
X1217500D01*
Y877000D01*
X1227340D01*
Y884250D01*
X1227143Y885241D01*
X1226581Y886081D01*
X1225741Y886643D01*
X1224750Y886840D01*
D02*
G37*
G36*
X965200Y871886D02*
X965099Y871865D01*
X964997Y871878D01*
X960132Y871495D01*
X959935Y871439D01*
X959731Y871431D01*
X954986Y870292D01*
X954800Y870206D01*
X954600Y870166D01*
X950092Y868299D01*
X949921Y868186D01*
X949730Y868115D01*
X945569Y865565D01*
X945419Y865426D01*
X945240Y865326D01*
X941530Y862157D01*
X941403Y861997D01*
X941243Y861870D01*
X938074Y858160D01*
X937974Y857981D01*
X937835Y857831D01*
X935285Y853670D01*
X935214Y853478D01*
X935101Y853308D01*
X933233Y848800D01*
X933194Y848599D01*
X933108Y848414D01*
X931969Y843669D01*
X931961Y843465D01*
X931905Y843268D01*
X931522Y838403D01*
X931546Y838200D01*
X931522Y837997D01*
X931905Y833132D01*
X931961Y832935D01*
X931969Y832731D01*
X933108Y827986D01*
X933194Y827801D01*
X933233Y827600D01*
X935101Y823092D01*
X935214Y822922D01*
X935285Y822730D01*
X937835Y818569D01*
X937974Y818419D01*
X938074Y818240D01*
X941243Y814530D01*
X941403Y814403D01*
X941530Y814243D01*
X945240Y811074D01*
X945419Y810974D01*
X945569Y810835D01*
X949730Y808285D01*
X949922Y808214D01*
X950092Y808101D01*
X954600Y806234D01*
X954800Y806194D01*
X954986Y806108D01*
X959731Y804969D01*
X959935Y804961D01*
X960132Y804905D01*
X964997Y804522D01*
X965099Y804535D01*
X965200Y804514D01*
X965301Y804535D01*
X965403Y804522D01*
X970268Y804905D01*
X970465Y804961D01*
X970669Y804969D01*
X975414Y806108D01*
X975600Y806194D01*
X975800Y806234D01*
X980308Y808101D01*
X980479Y808214D01*
X980670Y808285D01*
X984831Y810835D01*
X984981Y810974D01*
X985160Y811074D01*
X988870Y814243D01*
X988997Y814403D01*
X989157Y814530D01*
X992326Y818240D01*
X992426Y818419D01*
X992565Y818569D01*
X995115Y822730D01*
X995186Y822922D01*
X995299Y823092D01*
X997167Y827600D01*
X997206Y827801D01*
X997292Y827986D01*
X998431Y832731D01*
X998439Y832935D01*
X998495Y833132D01*
X998878Y837997D01*
X998854Y838200D01*
X998878Y838403D01*
X998495Y843268D01*
X998439Y843465D01*
X998431Y843669D01*
X997292Y848414D01*
X997206Y848599D01*
X997167Y848800D01*
X995299Y853308D01*
X995185Y853478D01*
X995115Y853670D01*
X992565Y857831D01*
X992426Y857981D01*
X992326Y858160D01*
X989157Y861870D01*
X988997Y861997D01*
X988870Y862157D01*
X985160Y865326D01*
X984981Y865426D01*
X984831Y865565D01*
X980670Y868115D01*
X980478Y868186D01*
X980308Y868299D01*
X975800Y870166D01*
X975600Y870206D01*
X975414Y870292D01*
X970669Y871431D01*
X970465Y871439D01*
X970268Y871495D01*
X965403Y871878D01*
X965301Y871865D01*
X965200Y871886D01*
D02*
G37*
G36*
X717000Y877000D02*
X707160D01*
Y869250D01*
X707357Y868259D01*
X707919Y867419D01*
X708759Y866857D01*
X709750Y866660D01*
X717000D01*
Y877000D01*
D02*
G37*
G36*
X1251250Y619648D02*
X1247976Y619217D01*
X1244926Y617954D01*
X1242306Y615944D01*
X1240296Y613324D01*
X1239033Y610274D01*
X1238602Y607000D01*
X1239033Y603726D01*
X1240296Y600676D01*
X1242306Y598056D01*
X1244926Y596046D01*
X1247976Y594783D01*
X1251250Y594352D01*
X1254524Y594783D01*
X1257574Y596046D01*
X1260194Y598056D01*
X1262204Y600676D01*
X1263467Y603726D01*
X1263898Y607000D01*
X1263467Y610274D01*
X1262204Y613324D01*
X1260194Y615944D01*
X1257574Y617954D01*
X1254524Y619217D01*
X1251250Y619648D01*
D02*
G37*
G36*
X700000Y612605D02*
X698032Y612346D01*
X696198Y611586D01*
X694622Y610378D01*
X693414Y608802D01*
X692654Y606968D01*
X692395Y605000D01*
X692654Y603032D01*
X693414Y601198D01*
X694622Y599622D01*
X696198Y598414D01*
X698032Y597654D01*
X700000Y597395D01*
X701968Y597654D01*
X703802Y598414D01*
X705378Y599622D01*
X706586Y601198D01*
X707346Y603032D01*
X707605Y605000D01*
X707346Y606968D01*
X706586Y608802D01*
X705378Y610378D01*
X703802Y611586D01*
X701968Y612346D01*
X700000Y612605D01*
D02*
G37*
G36*
X1213500Y873000D02*
X1203660D01*
Y865750D01*
X1203857Y864759D01*
X1204419Y863919D01*
X1205259Y863357D01*
X1206250Y863160D01*
X1213500D01*
Y873000D01*
D02*
G37*
G36*
X1057250Y600649D02*
X1049250D01*
Y580000D01*
X1079702D01*
X1079464Y582419D01*
X1078175Y586667D01*
X1076082Y590583D01*
X1073265Y594015D01*
X1069833Y596832D01*
X1065918Y598925D01*
X1061669Y600214D01*
X1057250Y600649D01*
D02*
G37*
G36*
X1227340Y873000D02*
X1217500D01*
Y863160D01*
X1224750D01*
X1225741Y863357D01*
X1226581Y863919D01*
X1227143Y864759D01*
X1227340Y865750D01*
Y873000D01*
D02*
G37*
G36*
X1243500Y687840D02*
X1236250D01*
X1235259Y687643D01*
X1234419Y687081D01*
X1233857Y686241D01*
X1233660Y685250D01*
Y678000D01*
X1243500D01*
Y687840D01*
D02*
G37*
G36*
X1254750D02*
X1247500D01*
Y678000D01*
X1257340D01*
Y685250D01*
X1257143Y686241D01*
X1256581Y687081D01*
X1255741Y687643D01*
X1254750Y687840D01*
D02*
G37*
G36*
X1185090Y728000D02*
X1174500D01*
Y721410D01*
X1182500D01*
X1183491Y721607D01*
X1184331Y722169D01*
X1184893Y723009D01*
X1185090Y724000D01*
Y728000D01*
D02*
G37*
G36*
X1233000Y752590D02*
X1225000D01*
X1224009Y752393D01*
X1223169Y751831D01*
X1222607Y750991D01*
X1222410Y750000D01*
Y732000D01*
X1233000D01*
Y752590D01*
D02*
G37*
G36*
X1182500Y738590D02*
X1174500D01*
Y732000D01*
X1185090D01*
Y736000D01*
X1184893Y736991D01*
X1184331Y737831D01*
X1183491Y738393D01*
X1182500Y738590D01*
D02*
G37*
G36*
X1170500D02*
X1162500D01*
X1161509Y738393D01*
X1160669Y737831D01*
X1160107Y736991D01*
X1159910Y736000D01*
Y732000D01*
X1170500D01*
Y738590D01*
D02*
G37*
G36*
Y728000D02*
X1159910D01*
Y724000D01*
X1160107Y723009D01*
X1160669Y722169D01*
X1161509Y721607D01*
X1162500Y721410D01*
X1170500D01*
Y728000D01*
D02*
G37*
G36*
X1233000Y728000D02*
X1222410D01*
Y710000D01*
X1222607Y709009D01*
X1223169Y708169D01*
X1224009Y707607D01*
X1225000Y707410D01*
X1233000D01*
Y728000D01*
D02*
G37*
G36*
X740500Y710340D02*
X730000D01*
Y699000D01*
X743090D01*
Y707750D01*
X742893Y708741D01*
X742331Y709581D01*
X741491Y710143D01*
X740500Y710340D01*
D02*
G37*
G36*
X726000D02*
X715500D01*
X714509Y710143D01*
X713669Y709581D01*
X713107Y708741D01*
X712910Y707750D01*
Y699000D01*
X726000D01*
Y710340D01*
D02*
G37*
G36*
Y695000D02*
X712910D01*
Y686250D01*
X713107Y685259D01*
X713669Y684419D01*
X714509Y683857D01*
X715500Y683660D01*
X726000D01*
Y695000D01*
D02*
G37*
G36*
X743090D02*
X730000D01*
Y683660D01*
X740500D01*
X741491Y683857D01*
X742331Y684419D01*
X742893Y685259D01*
X743090Y686250D01*
Y695000D01*
D02*
G37*
G36*
X1247590Y728000D02*
X1237000D01*
Y707410D01*
X1245000D01*
X1245991Y707607D01*
X1246831Y708169D01*
X1247393Y709009D01*
X1247590Y710000D01*
Y728000D01*
D02*
G37*
G36*
X1245000Y752590D02*
X1237000D01*
Y732000D01*
X1247590D01*
Y750000D01*
X1247393Y750991D01*
X1246831Y751831D01*
X1245991Y752393D01*
X1245000Y752590D01*
D02*
G37*
G36*
X1170500Y818000D02*
X1159910D01*
Y814000D01*
X1160107Y813009D01*
X1160669Y812169D01*
X1161509Y811607D01*
X1162500Y811410D01*
X1170500D01*
Y818000D01*
D02*
G37*
G36*
X1223000Y655840D02*
X1215750D01*
X1214759Y655643D01*
X1213919Y655081D01*
X1213357Y654241D01*
X1213160Y653250D01*
Y646000D01*
X1223000D01*
Y655840D01*
D02*
G37*
G36*
X1247590Y818000D02*
X1237000D01*
Y797410D01*
X1245000D01*
X1245991Y797607D01*
X1246831Y798169D01*
X1247393Y799009D01*
X1247590Y800000D01*
Y818000D01*
D02*
G37*
G36*
X1182500Y828590D02*
X1174500D01*
Y822000D01*
X1185090D01*
Y826000D01*
X1184893Y826991D01*
X1184331Y827831D01*
X1183491Y828393D01*
X1182500Y828590D01*
D02*
G37*
G36*
X1170500D02*
X1162500D01*
X1161509Y828393D01*
X1160669Y827831D01*
X1160107Y826991D01*
X1159910Y826000D01*
Y822000D01*
X1170500D01*
Y828590D01*
D02*
G37*
G36*
X1185090Y818000D02*
X1174500D01*
Y811410D01*
X1182500D01*
X1183491Y811607D01*
X1184331Y812169D01*
X1184893Y813009D01*
X1185090Y814000D01*
Y818000D01*
D02*
G37*
G36*
X1233000Y818000D02*
X1222410D01*
Y800000D01*
X1222607Y799009D01*
X1223169Y798169D01*
X1224009Y797607D01*
X1225000Y797410D01*
X1233000D01*
Y818000D01*
D02*
G37*
G36*
X1243500Y674000D02*
X1233660D01*
Y666750D01*
X1233857Y665759D01*
X1234419Y664919D01*
X1235259Y664357D01*
X1236250Y664160D01*
X1243500D01*
Y674000D01*
D02*
G37*
G36*
X1257340D02*
X1247500D01*
Y664160D01*
X1254750D01*
X1255741Y664357D01*
X1256581Y664919D01*
X1257143Y665759D01*
X1257340Y666750D01*
Y674000D01*
D02*
G37*
G36*
X775200Y672870D02*
X775074Y672844D01*
X774946Y672857D01*
X771712Y672539D01*
X771468Y672465D01*
X771214Y672439D01*
X768103Y671496D01*
X767878Y671376D01*
X767634Y671302D01*
X764768Y669770D01*
X764571Y669608D01*
X764346Y669488D01*
X761833Y667426D01*
X761672Y667228D01*
X761474Y667067D01*
X759413Y664554D01*
X759292Y664329D01*
X759130Y664132D01*
X757598Y661266D01*
X757524Y661021D01*
X757404Y660797D01*
X756460Y657686D01*
X756435Y657432D01*
X756361Y657188D01*
X756043Y653954D01*
X756068Y653700D01*
X756043Y653446D01*
X756361Y650212D01*
X756435Y649967D01*
X756460Y649714D01*
X757404Y646603D01*
X757524Y646378D01*
X757598Y646134D01*
X759130Y643268D01*
X759292Y643071D01*
X759413Y642846D01*
X761474Y640333D01*
X761672Y640172D01*
X761833Y639974D01*
X764346Y637912D01*
X764571Y637792D01*
X764768Y637630D01*
X767634Y636098D01*
X767878Y636024D01*
X768103Y635904D01*
X771214Y634961D01*
X771468Y634935D01*
X771712Y634861D01*
X774946Y634543D01*
X775074Y634556D01*
X775200Y634530D01*
X775326Y634556D01*
X775454Y634543D01*
X778688Y634861D01*
X778932Y634935D01*
X779186Y634961D01*
X782297Y635904D01*
X782522Y636024D01*
X782766Y636098D01*
X785632Y637630D01*
X785829Y637792D01*
X786054Y637912D01*
X788567Y639974D01*
X788728Y640172D01*
X788926Y640333D01*
X790987Y642846D01*
X791108Y643071D01*
X791270Y643268D01*
X792802Y646134D01*
X792876Y646378D01*
X792996Y646603D01*
X793940Y649714D01*
X793964Y649967D01*
X794038Y650212D01*
X794357Y653446D01*
X794332Y653700D01*
X794357Y653954D01*
X794038Y657188D01*
X793964Y657432D01*
X793940Y657686D01*
X792996Y660797D01*
X792876Y661022D01*
X792802Y661266D01*
X791270Y664132D01*
X791108Y664329D01*
X790987Y664554D01*
X788926Y667067D01*
X788728Y667228D01*
X788567Y667426D01*
X786054Y669488D01*
X785829Y669608D01*
X785632Y669770D01*
X782766Y671302D01*
X782522Y671376D01*
X782297Y671496D01*
X779186Y672439D01*
X778932Y672465D01*
X778688Y672539D01*
X775454Y672857D01*
X775326Y672844D01*
X775200Y672870D01*
D02*
G37*
G36*
X1234250Y655840D02*
X1227000D01*
Y646000D01*
X1236840D01*
Y653250D01*
X1236643Y654241D01*
X1236081Y655081D01*
X1235241Y655643D01*
X1234250Y655840D01*
D02*
G37*
G36*
X731000Y805590D02*
X712250D01*
X711259Y805393D01*
X710419Y804831D01*
X709857Y803991D01*
X709660Y803000D01*
Y794000D01*
X731000D01*
Y805590D01*
D02*
G37*
G36*
Y790000D02*
X709660D01*
Y781000D01*
X709857Y780009D01*
X710419Y779169D01*
X711259Y778607D01*
X712250Y778410D01*
X731000D01*
Y790000D01*
D02*
G37*
G36*
X1148250Y542376D02*
Y533000D01*
X1157626D01*
X1157493Y534012D01*
X1156330Y536820D01*
X1154480Y539230D01*
X1152070Y541080D01*
X1149262Y542243D01*
X1148250Y542376D01*
D02*
G37*
G36*
X1155200Y1032870D02*
X1155074Y1032844D01*
X1154946Y1032857D01*
X1151712Y1032539D01*
X1151467Y1032465D01*
X1151214Y1032439D01*
X1148103Y1031496D01*
X1147878Y1031376D01*
X1147634Y1031302D01*
X1144768Y1029770D01*
X1144571Y1029608D01*
X1144346Y1029488D01*
X1141833Y1027426D01*
X1141672Y1027228D01*
X1141474Y1027067D01*
X1139413Y1024554D01*
X1139292Y1024329D01*
X1139130Y1024132D01*
X1137598Y1021266D01*
X1137524Y1021021D01*
X1137404Y1020797D01*
X1136460Y1017686D01*
X1136435Y1017432D01*
X1136361Y1017188D01*
X1136043Y1013954D01*
X1136068Y1013700D01*
X1136043Y1013446D01*
X1136361Y1010212D01*
X1136435Y1009967D01*
X1136460Y1009714D01*
X1137404Y1006603D01*
X1137524Y1006378D01*
X1137598Y1006134D01*
X1139130Y1003268D01*
X1139292Y1003071D01*
X1139413Y1002846D01*
X1141474Y1000333D01*
X1141672Y1000172D01*
X1141833Y999974D01*
X1144346Y997913D01*
X1144571Y997792D01*
X1144768Y997630D01*
X1147634Y996098D01*
X1147878Y996024D01*
X1148103Y995904D01*
X1151214Y994960D01*
X1151467Y994936D01*
X1151712Y994862D01*
X1154946Y994543D01*
X1155074Y994556D01*
X1155200Y994530D01*
X1155326Y994556D01*
X1155454Y994543D01*
X1158688Y994862D01*
X1158932Y994936D01*
X1159186Y994960D01*
X1162297Y995904D01*
X1162522Y996024D01*
X1162766Y996098D01*
X1165632Y997630D01*
X1165829Y997792D01*
X1166054Y997913D01*
X1168567Y999974D01*
X1168728Y1000172D01*
X1168926Y1000333D01*
X1170987Y1002846D01*
X1171108Y1003071D01*
X1171270Y1003268D01*
X1172802Y1006134D01*
X1172876Y1006378D01*
X1172996Y1006603D01*
X1173940Y1009714D01*
X1173964Y1009967D01*
X1174038Y1010212D01*
X1174357Y1013446D01*
X1174332Y1013700D01*
X1174357Y1013954D01*
X1174038Y1017188D01*
X1173964Y1017432D01*
X1173940Y1017686D01*
X1172996Y1020797D01*
X1172876Y1021022D01*
X1172802Y1021266D01*
X1171270Y1024132D01*
X1171108Y1024329D01*
X1170987Y1024554D01*
X1168926Y1027067D01*
X1168728Y1027228D01*
X1168567Y1027426D01*
X1166054Y1029488D01*
X1165829Y1029608D01*
X1165632Y1029770D01*
X1162766Y1031302D01*
X1162522Y1031376D01*
X1162297Y1031496D01*
X1159186Y1032439D01*
X1158932Y1032465D01*
X1158688Y1032539D01*
X1155454Y1032857D01*
X1155326Y1032844D01*
X1155200Y1032870D01*
D02*
G37*
G36*
X747750Y540950D02*
X738999D01*
X739032Y540788D01*
X740256Y538956D01*
X742088Y537732D01*
X744250Y537301D01*
X747750D01*
Y540950D01*
D02*
G37*
G36*
X719750Y539840D02*
X712000D01*
Y530000D01*
X722340D01*
Y537250D01*
X722143Y538241D01*
X721581Y539081D01*
X720741Y539643D01*
X719750Y539840D01*
D02*
G37*
G36*
X1108000Y1132596D02*
X697000D01*
X695293Y1132372D01*
X693702Y1131713D01*
X692336Y1130664D01*
X664336Y1102664D01*
X663287Y1101298D01*
X662628Y1099707D01*
X662404Y1098000D01*
Y879000D01*
Y856000D01*
X662628Y854293D01*
X663287Y852702D01*
X664336Y851336D01*
X671453Y844218D01*
X672063Y810699D01*
X672053Y809541D01*
X671971Y808355D01*
X671826Y807376D01*
X671635Y806614D01*
X671427Y806080D01*
X671241Y805766D01*
X671117Y805629D01*
X671059Y805590D01*
X664250D01*
X663259Y805393D01*
X662419Y804831D01*
X661857Y803991D01*
X661660Y803000D01*
Y781000D01*
X661857Y780009D01*
X662419Y779169D01*
X663259Y778607D01*
X664250Y778410D01*
X678481D01*
X678628Y777293D01*
X679287Y775702D01*
X680336Y774336D01*
X719932Y734739D01*
X720833Y733789D01*
X721655Y732801D01*
X721945Y732404D01*
X722184Y732036D01*
X722360Y731725D01*
X722474Y731481D01*
X722534Y731315D01*
X722592Y731067D01*
X722636Y730972D01*
X722731Y730248D01*
X723793Y727684D01*
X725483Y725483D01*
X727684Y723793D01*
X730248Y722731D01*
X733000Y722369D01*
X735751Y722731D01*
X736569Y723070D01*
X736727Y723090D01*
X737314Y723287D01*
X737735Y723381D01*
X738110Y723421D01*
X738447Y723416D01*
X738761Y723370D01*
X739068Y723283D01*
X739382Y723149D01*
X739715Y722957D01*
X739949Y722784D01*
X814366Y648366D01*
X816033Y647253D01*
X818000Y646861D01*
X825897D01*
X826266Y646829D01*
X826797Y646741D01*
X827160Y646644D01*
Y637750D01*
X827357Y636759D01*
X827919Y635919D01*
X828759Y635357D01*
X829750Y635160D01*
X848250D01*
X849241Y635357D01*
X850081Y635919D01*
X850643Y636759D01*
X850840Y637750D01*
Y656250D01*
X850643Y657241D01*
X850081Y658081D01*
X849241Y658643D01*
X848250Y658840D01*
X829750D01*
X829221Y658735D01*
X829166Y658732D01*
X829134Y658717D01*
X828759Y658643D01*
X828259Y658309D01*
X828250Y658305D01*
X828246Y658300D01*
X827919Y658081D01*
X827575Y657566D01*
X827568Y657559D01*
X827566Y657553D01*
X827397Y657300D01*
X827396Y657300D01*
X826986Y657224D01*
X825993Y657139D01*
X820128D01*
X745616Y731651D01*
X745518Y731767D01*
X745193Y732197D01*
X744488Y733286D01*
X744198Y733805D01*
X743221Y735920D01*
X742929Y736681D01*
X742796Y736891D01*
X742207Y738316D01*
X740517Y740517D01*
X738316Y742207D01*
X735751Y743269D01*
X733000Y743631D01*
X731392Y743419D01*
X731226Y743434D01*
X730958Y743405D01*
X730855Y743409D01*
X730693Y743439D01*
X730464Y743512D01*
X730168Y743643D01*
X729812Y743842D01*
X729434Y744094D01*
X728419Y744923D01*
X728108Y745221D01*
X696092Y777237D01*
X696578Y778410D01*
X705750D01*
X706741Y778607D01*
X707581Y779169D01*
X708143Y780009D01*
X708340Y781000D01*
Y803000D01*
X708143Y803991D01*
X707581Y804831D01*
X706741Y805393D01*
X705750Y805590D01*
X686531D01*
X686517Y805594D01*
X686427Y805654D01*
X686277Y805813D01*
X686068Y806146D01*
X685835Y806694D01*
X685614Y807463D01*
X685433Y808447D01*
X685307Y809634D01*
X685256Y810793D01*
X684595Y847120D01*
X684476Y847913D01*
X684372Y848707D01*
X684349Y848763D01*
X684340Y848823D01*
X684019Y849558D01*
X683713Y850298D01*
X683676Y850346D01*
X683652Y850402D01*
X683152Y851028D01*
X682664Y851664D01*
X675596Y858732D01*
Y867058D01*
X675656Y868187D01*
X675929Y869397D01*
X677160Y869250D01*
X677357Y868259D01*
X677919Y867419D01*
X678759Y866857D01*
X679750Y866660D01*
X698250D01*
X699241Y866857D01*
X700081Y867419D01*
X700643Y868259D01*
X700840Y869250D01*
Y883138D01*
X700879Y883206D01*
X701306Y883820D01*
X702503Y885236D01*
X705890Y888623D01*
X707160Y888286D01*
Y881000D01*
X717000D01*
Y891340D01*
X714266D01*
X713780Y892513D01*
X720284Y899016D01*
X721398Y900684D01*
X721525Y901324D01*
X721869Y901838D01*
X722299Y904000D01*
Y915000D01*
X721869Y917162D01*
X720644Y918994D01*
X718812Y920219D01*
X716650Y920648D01*
X714488Y920219D01*
X712656Y918994D01*
X711431Y917162D01*
X711002Y915000D01*
Y905765D01*
X710869Y905667D01*
X709598Y906310D01*
Y915000D01*
X709169Y917162D01*
X709089Y917281D01*
Y917822D01*
X720128Y928861D01*
X756871D01*
X765401Y920331D01*
Y828525D01*
X764228Y828039D01*
X753576Y838691D01*
X752583Y839750D01*
X751898Y840588D01*
X751840Y840669D01*
Y858750D01*
X751643Y859741D01*
X751081Y860581D01*
X750241Y861143D01*
X749250Y861340D01*
X747405D01*
X747309Y861699D01*
X747221Y862231D01*
X747189Y862601D01*
Y899979D01*
X747233Y901118D01*
X747314Y901985D01*
X747350Y902217D01*
X747372Y902318D01*
X747405Y902423D01*
X747437Y902682D01*
X747699Y904000D01*
Y915000D01*
X747269Y917162D01*
X746044Y918994D01*
X744212Y920219D01*
X742050Y920648D01*
X739888Y920219D01*
X738056Y918994D01*
X736831Y917162D01*
X736402Y915000D01*
Y904000D01*
X736664Y902682D01*
X736694Y902423D01*
X736725Y902330D01*
X736911Y899041D01*
Y862601D01*
X736879Y862231D01*
X736791Y861699D01*
X736694Y861340D01*
X730750D01*
X729759Y861143D01*
X728919Y860581D01*
X728357Y859741D01*
X728160Y858750D01*
Y839250D01*
X728357Y838259D01*
X728919Y837419D01*
X729759Y836857D01*
X730750Y836660D01*
X740267D01*
X740581Y836523D01*
X741100Y836232D01*
X741668Y835849D01*
X742910Y834823D01*
X756861Y820872D01*
Y805201D01*
X755591Y804816D01*
X755581Y804831D01*
X754741Y805393D01*
X753750Y805590D01*
X735000D01*
Y792000D01*
Y778410D01*
X753750D01*
X754741Y778607D01*
X755581Y779169D01*
X755591Y779184D01*
X756861Y778799D01*
Y732337D01*
X757252Y730370D01*
X758366Y728703D01*
X813243Y673826D01*
X814910Y672712D01*
X816877Y672321D01*
X847964D01*
X900919Y619366D01*
X902586Y618252D01*
X904552Y617861D01*
X1096871D01*
X1100861Y613871D01*
Y573000D01*
X1101252Y571034D01*
X1102366Y569366D01*
X1117366Y554366D01*
X1119034Y553252D01*
X1121000Y552861D01*
X1169217D01*
X1169662Y552783D01*
X1170019Y552664D01*
X1170253Y552538D01*
X1170410Y552410D01*
X1170538Y552253D01*
X1170664Y552019D01*
X1170783Y551662D01*
X1170861Y551217D01*
Y544634D01*
X1170804Y544245D01*
X1170672Y543711D01*
X1170482Y543163D01*
X1170230Y542599D01*
X1169910Y542018D01*
X1169519Y541418D01*
X1169052Y540802D01*
X1168509Y540171D01*
X1168047Y539693D01*
X1167770Y539480D01*
X1165920Y537070D01*
X1164757Y534263D01*
X1164361Y531250D01*
X1164757Y528237D01*
X1165920Y525430D01*
X1167770Y523020D01*
X1170180Y521170D01*
X1172988Y520007D01*
X1176000Y519610D01*
X1179013Y520007D01*
X1181820Y521170D01*
X1184230Y523020D01*
X1184443Y523297D01*
X1184921Y523758D01*
X1185552Y524302D01*
X1186168Y524769D01*
X1186768Y525160D01*
X1187350Y525480D01*
X1187913Y525732D01*
X1188461Y525922D01*
X1188995Y526054D01*
X1189384Y526111D01*
X1192866D01*
X1193255Y526054D01*
X1193789Y525922D01*
X1194337Y525732D01*
X1194901Y525480D01*
X1195482Y525160D01*
X1196082Y524768D01*
X1196698Y524302D01*
X1197330Y523758D01*
X1197807Y523297D01*
X1198020Y523020D01*
X1200430Y521170D01*
X1203238Y520007D01*
X1206250Y519610D01*
X1209263Y520007D01*
X1212070Y521170D01*
X1214480Y523020D01*
X1216330Y525430D01*
X1217493Y528237D01*
X1217890Y531250D01*
X1217493Y534263D01*
X1216330Y537070D01*
X1214480Y539480D01*
X1212070Y541330D01*
X1209263Y542493D01*
X1206250Y542890D01*
X1203238Y542493D01*
X1200430Y541330D01*
X1198020Y539480D01*
X1197807Y539203D01*
X1197330Y538742D01*
X1196698Y538198D01*
X1196082Y537732D01*
X1195482Y537340D01*
X1194901Y537020D01*
X1194337Y536768D01*
X1193789Y536578D01*
X1193255Y536446D01*
X1192866Y536389D01*
X1189384D01*
X1188995Y536446D01*
X1188461Y536578D01*
X1187913Y536768D01*
X1187349Y537020D01*
X1186768Y537340D01*
X1186168Y537732D01*
X1185552Y538198D01*
X1184921Y538741D01*
X1184443Y539203D01*
X1184230Y539480D01*
X1183953Y539693D01*
X1183492Y540171D01*
X1182948Y540802D01*
X1182481Y541418D01*
X1182090Y542018D01*
X1181770Y542600D01*
X1181518Y543163D01*
X1181328Y543711D01*
X1181196Y544245D01*
X1181139Y544634D01*
Y558000D01*
Y571616D01*
X1181196Y572005D01*
X1181328Y572539D01*
X1181518Y573087D01*
X1181770Y573651D01*
X1182090Y574232D01*
X1182482Y574832D01*
X1182948Y575448D01*
X1183491Y576079D01*
X1183953Y576557D01*
X1184230Y576770D01*
X1186080Y579180D01*
X1187243Y581987D01*
X1187640Y585000D01*
X1187243Y588013D01*
X1186080Y590820D01*
X1184230Y593230D01*
X1181820Y595080D01*
X1179013Y596243D01*
X1176000Y596640D01*
X1172988Y596243D01*
X1170180Y595080D01*
X1167770Y593230D01*
X1165920Y590820D01*
X1164757Y588013D01*
X1164361Y585000D01*
X1164757Y581987D01*
X1165920Y579180D01*
X1167770Y576770D01*
X1168047Y576557D01*
X1168508Y576079D01*
X1169052Y575448D01*
X1169519Y574832D01*
X1169910Y574232D01*
X1170230Y573650D01*
X1170482Y573087D01*
X1170672Y572539D01*
X1170804Y572005D01*
X1170861Y571616D01*
Y564782D01*
X1170783Y564338D01*
X1170664Y563981D01*
X1170538Y563747D01*
X1170410Y563590D01*
X1170253Y563462D01*
X1170019Y563336D01*
X1169662Y563217D01*
X1169217Y563139D01*
X1123129D01*
X1111139Y575129D01*
Y616000D01*
X1110748Y617966D01*
X1109634Y619634D01*
X1102634Y626634D01*
X1100966Y627748D01*
X1099000Y628139D01*
X1095065D01*
X1094579Y629312D01*
X1138129Y672861D01*
X1148229D01*
X1148417Y671591D01*
X1148103Y671496D01*
X1147878Y671376D01*
X1147634Y671302D01*
X1144768Y669770D01*
X1144571Y669608D01*
X1144346Y669488D01*
X1141833Y667426D01*
X1141672Y667228D01*
X1141474Y667067D01*
X1139413Y664554D01*
X1139292Y664329D01*
X1139130Y664132D01*
X1137598Y661266D01*
X1137524Y661021D01*
X1137404Y660797D01*
X1136460Y657686D01*
X1136435Y657432D01*
X1136361Y657188D01*
X1136043Y653954D01*
X1136068Y653700D01*
X1136043Y653446D01*
X1136361Y650212D01*
X1136435Y649967D01*
X1136460Y649714D01*
X1137404Y646603D01*
X1137524Y646378D01*
X1137598Y646134D01*
X1139130Y643268D01*
X1139292Y643071D01*
X1139413Y642846D01*
X1141474Y640333D01*
X1141672Y640172D01*
X1141833Y639974D01*
X1144346Y637912D01*
X1144571Y637792D01*
X1144768Y637630D01*
X1147634Y636098D01*
X1147878Y636024D01*
X1148103Y635904D01*
X1151214Y634961D01*
X1151467Y634935D01*
X1151712Y634861D01*
X1154946Y634543D01*
X1155074Y634556D01*
X1155200Y634530D01*
X1155326Y634556D01*
X1155454Y634543D01*
X1158688Y634861D01*
X1158932Y634935D01*
X1159186Y634961D01*
X1162297Y635904D01*
X1162522Y636024D01*
X1162766Y636098D01*
X1165632Y637630D01*
X1165829Y637792D01*
X1166054Y637912D01*
X1168567Y639974D01*
X1168728Y640172D01*
X1168926Y640333D01*
X1170987Y642846D01*
X1171108Y643071D01*
X1171270Y643268D01*
X1172802Y646134D01*
X1172876Y646378D01*
X1172996Y646603D01*
X1173940Y649714D01*
X1173964Y649967D01*
X1174038Y650212D01*
X1174357Y653446D01*
X1174332Y653700D01*
X1174357Y653954D01*
X1174038Y657188D01*
X1173964Y657432D01*
X1173940Y657686D01*
X1172996Y660797D01*
X1172876Y661022D01*
X1172802Y661266D01*
X1171270Y664132D01*
X1171108Y664329D01*
X1170987Y664554D01*
X1168926Y667067D01*
X1168728Y667228D01*
X1168567Y667426D01*
X1166054Y669488D01*
X1165829Y669608D01*
X1165632Y669770D01*
X1162766Y671302D01*
X1162522Y671376D01*
X1162297Y671496D01*
X1161982Y671591D01*
X1162171Y672861D01*
X1201399D01*
X1201769Y672829D01*
X1202301Y672741D01*
X1202660Y672645D01*
Y666750D01*
X1202857Y665759D01*
X1203419Y664919D01*
X1204259Y664357D01*
X1205250Y664160D01*
X1223750D01*
X1224741Y664357D01*
X1225581Y664919D01*
X1226143Y665759D01*
X1226340Y666750D01*
Y685250D01*
X1226143Y686241D01*
X1225581Y687081D01*
X1224741Y687643D01*
X1223750Y687840D01*
X1217856D01*
X1217759Y688199D01*
X1217671Y688731D01*
X1217639Y689101D01*
X1217639Y744500D01*
X1217247Y746467D01*
X1216133Y748134D01*
X1208134Y756134D01*
X1206467Y757248D01*
X1204500Y757639D01*
X1196500Y757639D01*
X1186351D01*
X1185981Y757671D01*
X1185449Y757759D01*
X1185090Y757856D01*
Y758500D01*
X1184893Y759491D01*
X1184331Y760331D01*
X1183491Y760893D01*
X1182500Y761090D01*
X1162500D01*
X1161509Y760893D01*
X1160669Y760331D01*
X1160107Y759491D01*
X1159910Y758500D01*
Y746500D01*
X1160107Y745509D01*
X1160669Y744669D01*
X1161509Y744107D01*
X1162500Y743910D01*
X1182500D01*
X1183491Y744107D01*
X1184331Y744669D01*
X1184893Y745509D01*
X1185090Y746500D01*
Y747144D01*
X1185449Y747241D01*
X1185981Y747329D01*
X1186351Y747361D01*
X1196500D01*
X1202372Y747361D01*
X1207361Y742372D01*
X1207361Y689101D01*
X1207329Y688731D01*
X1207241Y688199D01*
X1207144Y687840D01*
X1205250D01*
X1204259Y687643D01*
X1203419Y687081D01*
X1202857Y686241D01*
X1202660Y685250D01*
Y683355D01*
X1202301Y683259D01*
X1201769Y683171D01*
X1201399Y683139D01*
X1136000D01*
X1134034Y682748D01*
X1132366Y681634D01*
X1086412Y635679D01*
X1017667D01*
X1017181Y636852D01*
X1056170Y675842D01*
X1058835D01*
X1058910Y675750D01*
Y657250D01*
X1059107Y656259D01*
X1059669Y655419D01*
X1060509Y654857D01*
X1061500Y654660D01*
X1080000D01*
X1080991Y654857D01*
X1081831Y655419D01*
X1082393Y656259D01*
X1082590Y657250D01*
Y658767D01*
X1082590Y658769D01*
X1082642Y658846D01*
X1082790Y658983D01*
X1083114Y659180D01*
X1083655Y659401D01*
X1084420Y659606D01*
X1085402Y659769D01*
X1086589Y659873D01*
X1087746Y659904D01*
X1104500D01*
X1106207Y660128D01*
X1107798Y660787D01*
X1109164Y661836D01*
X1148232Y700904D01*
X1155033D01*
X1155956Y700892D01*
X1158363Y700744D01*
X1159227Y700629D01*
X1159903Y700493D01*
X1160172Y700413D01*
X1160393Y700082D01*
X1160401Y700063D01*
X1160414Y700051D01*
X1160669Y699669D01*
X1161111Y699373D01*
X1161126Y699359D01*
X1161142Y699352D01*
X1161509Y699107D01*
X1162010Y699008D01*
X1162065Y698986D01*
X1162116Y698987D01*
X1162500Y698910D01*
X1182500D01*
X1183491Y699107D01*
X1184331Y699669D01*
X1184893Y700509D01*
X1185090Y701500D01*
Y713500D01*
X1184893Y714491D01*
X1184331Y715331D01*
X1183491Y715893D01*
X1182500Y716090D01*
X1162500D01*
X1162116Y716013D01*
X1162065Y716014D01*
X1162010Y715992D01*
X1161509Y715893D01*
X1161142Y715648D01*
X1161126Y715641D01*
X1161111Y715627D01*
X1160669Y715331D01*
X1160414Y714949D01*
X1160401Y714937D01*
X1160393Y714918D01*
X1160172Y714587D01*
X1159903Y714507D01*
X1159291Y714383D01*
X1155930Y714108D01*
X1155033Y714096D01*
X1145500D01*
X1143793Y713872D01*
X1142202Y713213D01*
X1140836Y712164D01*
X1101768Y673096D01*
X1087746D01*
X1086589Y673127D01*
X1085402Y673231D01*
X1084420Y673394D01*
X1083655Y673599D01*
X1083113Y673820D01*
X1082790Y674017D01*
X1082642Y674154D01*
X1082590Y674231D01*
X1082590Y674233D01*
Y675750D01*
X1082665Y675842D01*
X1091778D01*
X1092293Y675628D01*
X1094000Y675404D01*
X1095707Y675628D01*
X1097298Y676287D01*
X1098664Y677336D01*
X1155782Y734453D01*
X1156830Y735819D01*
X1157489Y737410D01*
X1157714Y739118D01*
Y789764D01*
X1158933Y790625D01*
X1160194Y790380D01*
X1160393Y790082D01*
X1160401Y790063D01*
X1160414Y790051D01*
X1160669Y789669D01*
X1161111Y789373D01*
X1161126Y789359D01*
X1161142Y789352D01*
X1161509Y789107D01*
X1162010Y789008D01*
X1162065Y788986D01*
X1162116Y788987D01*
X1162500Y788910D01*
X1182500D01*
X1183491Y789107D01*
X1184331Y789669D01*
X1184893Y790509D01*
X1185090Y791500D01*
Y803500D01*
X1184893Y804491D01*
X1184331Y805331D01*
X1183491Y805893D01*
X1182500Y806090D01*
X1162500D01*
X1162116Y806013D01*
X1162065Y806014D01*
X1162010Y805992D01*
X1161509Y805893D01*
X1161142Y805648D01*
X1161126Y805641D01*
X1161111Y805627D01*
X1160669Y805331D01*
X1160414Y804949D01*
X1160401Y804937D01*
X1160393Y804918D01*
X1160172Y804587D01*
X1159903Y804507D01*
X1159291Y804383D01*
X1155930Y804108D01*
X1155032Y804096D01*
X1134793D01*
X1133086Y803872D01*
X1131495Y803213D01*
X1130129Y802164D01*
X1116545Y788581D01*
X1115630Y787709D01*
X1114624Y786854D01*
X1113716Y786185D01*
X1112920Y785699D01*
X1112258Y785390D01*
X1111751Y785234D01*
X1111408Y785191D01*
X1111302Y785200D01*
X1109477Y786254D01*
X1107338Y787140D01*
X1105044Y787442D01*
X1102749Y787140D01*
X1100611Y786254D01*
X1098775Y784845D01*
X1097366Y783009D01*
X1091116Y772184D01*
X1090230Y770045D01*
X1089928Y767751D01*
X1090230Y765456D01*
X1091116Y763318D01*
X1092525Y761482D01*
X1094361Y760073D01*
X1105186Y753823D01*
X1107324Y752937D01*
X1109224Y752687D01*
X1110021Y751528D01*
X1106707Y745787D01*
X1105304Y745898D01*
X1104138Y747418D01*
X1102302Y748827D01*
X1091477Y755077D01*
X1089338Y755963D01*
X1087044Y756265D01*
X1084749Y755963D01*
X1082611Y755077D01*
X1080775Y753668D01*
X1079947Y752589D01*
X1079634Y752708D01*
X1079020Y753052D01*
X1078236Y753610D01*
X1077315Y754384D01*
X1076942Y754738D01*
X1076599Y755099D01*
X1075806Y756041D01*
X1075179Y756904D01*
X1074715Y757677D01*
X1074406Y758346D01*
X1074232Y758898D01*
X1074167Y759331D01*
X1074178Y759665D01*
X1074226Y759871D01*
X1076128Y763167D01*
X1076453Y764124D01*
X1076387Y765133D01*
X1075940Y766039D01*
X1075181Y766705D01*
X1075181Y766705D01*
X1059159Y775955D01*
X1058202Y776280D01*
X1057194Y776214D01*
X1056288Y775767D01*
X1055621Y775007D01*
X1055621Y775007D01*
X1046372Y758986D01*
X1046047Y758029D01*
X1046113Y757021D01*
X1046560Y756114D01*
X1047319Y755448D01*
X1047319Y755448D01*
X1063341Y746198D01*
X1063826Y746033D01*
X1063877Y746006D01*
X1063918Y746002D01*
X1064298Y745873D01*
X1064868Y745911D01*
X1064883Y745909D01*
X1064893Y745912D01*
X1065306Y745939D01*
X1065835Y746200D01*
X1065849Y746205D01*
X1065857Y746211D01*
X1066077Y746320D01*
X1066372Y746152D01*
X1066997Y745716D01*
X1068754Y744220D01*
X1068982Y743999D01*
X1069543Y743411D01*
X1070440Y742363D01*
X1071162Y741397D01*
X1071712Y740525D01*
X1072096Y739760D01*
X1072327Y739117D01*
X1072329Y739108D01*
X1072230Y738869D01*
X1071928Y736574D01*
X1072230Y734279D01*
X1073116Y732141D01*
X1074525Y730305D01*
X1076361Y728896D01*
X1087186Y722646D01*
X1089324Y721760D01*
X1091619Y721458D01*
X1091691Y721468D01*
X1091837Y721410D01*
X1092120Y721190D01*
X1092737Y720324D01*
X1092482Y718390D01*
X1092504Y718052D01*
X1092482Y717714D01*
X1092783Y715430D01*
X1092891Y715109D01*
X1092958Y714777D01*
X1093839Y712648D01*
X1094027Y712366D01*
X1094177Y712063D01*
X1095580Y710235D01*
X1095835Y710011D01*
X1096058Y709757D01*
X1097886Y708354D01*
X1098189Y708204D01*
X1098471Y708016D01*
X1100600Y707134D01*
X1100932Y707068D01*
X1101253Y706959D01*
X1103537Y706659D01*
X1103875Y706681D01*
X1104213Y706659D01*
X1106497Y706959D01*
X1106818Y707068D01*
X1107150Y707134D01*
X1108617Y707742D01*
X1109336Y706665D01*
X1090830Y688158D01*
X1082665D01*
X1082590Y688250D01*
Y706750D01*
X1082393Y707741D01*
X1081831Y708581D01*
X1080991Y709143D01*
X1080000Y709340D01*
X1061500D01*
X1060509Y709143D01*
X1059669Y708581D01*
X1059107Y707741D01*
X1058910Y706750D01*
Y705233D01*
X1058910Y705231D01*
X1058858Y705154D01*
X1058710Y705017D01*
X1058386Y704820D01*
X1057845Y704599D01*
X1057080Y704394D01*
X1056098Y704231D01*
X1054911Y704127D01*
X1053754Y704096D01*
X1026500D01*
X1024793Y703872D01*
X1023202Y703213D01*
X1021836Y702164D01*
X1008398Y688726D01*
X1003468D01*
X1002263Y688757D01*
X1001022Y688862D01*
X999991Y689027D01*
X999182Y689237D01*
X998603Y689464D01*
X998251Y689670D01*
X998132Y689777D01*
X998014Y690675D01*
X997128Y692813D01*
X995719Y694649D01*
X993883Y696058D01*
X993057Y696400D01*
X993052Y696404D01*
X993043Y696406D01*
X991819Y696913D01*
X991708Y697111D01*
X991516Y697619D01*
X991337Y698336D01*
X991196Y699250D01*
X991141Y699912D01*
Y706071D01*
X991250Y706160D01*
X1009750D01*
X1010741Y706357D01*
X1011581Y706919D01*
X1012143Y707759D01*
X1012340Y708750D01*
Y727250D01*
X1012143Y728241D01*
X1011581Y729081D01*
X1010741Y729643D01*
X1009750Y729840D01*
X1007374D01*
X1007338Y729879D01*
X1007195Y730113D01*
X1007020Y730544D01*
X1006849Y731180D01*
X1006711Y732012D01*
X1006658Y732613D01*
Y739725D01*
X1010397Y741274D01*
X1018673Y745582D01*
X1026542Y750595D01*
X1033944Y756274D01*
X1040822Y762578D01*
X1047126Y769456D01*
X1052805Y776858D01*
X1057818Y784727D01*
X1062126Y793003D01*
X1065697Y801622D01*
X1068502Y810520D01*
X1070521Y819629D01*
X1071739Y828879D01*
X1072146Y838200D01*
X1071739Y847521D01*
X1070521Y856771D01*
X1068502Y865880D01*
X1065697Y874778D01*
X1062126Y883397D01*
X1057818Y891673D01*
X1052805Y899542D01*
X1047346Y906656D01*
Y950752D01*
X1047377Y951905D01*
X1047481Y953086D01*
X1047644Y954062D01*
X1047849Y954823D01*
X1048068Y955360D01*
X1048264Y955681D01*
X1048400Y955827D01*
X1048477Y955879D01*
X1048564Y955909D01*
X1048573Y955910D01*
X1050000D01*
X1050087Y955839D01*
Y915514D01*
X1049873Y914999D01*
X1049649Y913292D01*
X1049873Y911584D01*
X1050532Y909993D01*
X1051196Y909128D01*
X1051155Y909093D01*
X1056499Y902128D01*
X1061723Y893928D01*
X1066213Y885303D01*
X1069934Y876320D01*
X1072234Y869025D01*
X1072721Y866830D01*
X1072961Y865341D01*
X1073660Y855516D01*
Y853000D01*
X1073740Y852600D01*
X1073739Y852546D01*
X1073761Y852493D01*
X1073780Y852397D01*
X1073783Y852357D01*
X1073792Y852340D01*
X1073857Y852009D01*
X1074112Y851628D01*
X1074119Y851610D01*
X1074134Y851595D01*
X1074419Y851169D01*
X1074815Y850904D01*
X1074829Y850890D01*
X1074848Y850882D01*
X1075259Y850607D01*
X1075353Y850589D01*
X1075511Y850193D01*
X1075695Y849572D01*
X1076284Y846224D01*
X1076321Y845872D01*
X1076656Y838200D01*
X1076232Y828486D01*
X1074962Y818846D01*
X1072858Y809353D01*
X1070517Y801929D01*
X1070141Y800735D01*
X1069974Y800227D01*
X1069963Y800145D01*
X1069778Y799527D01*
X1061871Y785833D01*
X1061547Y784876D01*
X1061613Y783867D01*
X1062060Y782961D01*
X1062819Y782295D01*
X1062819Y782295D01*
X1078841Y773045D01*
X1079798Y772720D01*
X1080806Y772786D01*
X1081712Y773233D01*
X1082378Y773993D01*
X1082379Y773993D01*
X1091628Y790014D01*
X1091953Y790971D01*
X1091887Y791979D01*
X1091440Y792886D01*
X1090681Y793552D01*
X1084593Y797067D01*
X1084493Y797183D01*
X1084348Y797455D01*
X1084212Y797894D01*
X1084121Y798531D01*
X1084108Y799369D01*
X1084195Y800398D01*
X1084396Y801606D01*
X1084719Y802982D01*
X1084990Y803913D01*
X1085627Y805932D01*
X1087981Y816550D01*
X1089401Y827334D01*
X1089875Y838200D01*
X1089582Y844911D01*
X1089613Y845065D01*
X1089596Y845150D01*
X1089607Y845236D01*
X1089513Y846669D01*
X1089509Y847840D01*
X1089583Y848801D01*
X1089715Y849537D01*
X1089875Y850036D01*
X1090015Y850302D01*
X1090088Y850388D01*
X1090098Y850396D01*
X1090138Y850410D01*
X1094750D01*
X1095741Y850607D01*
X1096581Y851169D01*
X1097143Y852009D01*
X1097340Y853000D01*
Y871500D01*
X1097143Y872491D01*
X1096581Y873331D01*
X1095741Y873893D01*
X1094750Y874090D01*
X1084968D01*
X1084796Y874398D01*
X1083376Y877740D01*
X1082949Y878961D01*
X1082356Y880842D01*
X1078194Y890890D01*
X1073172Y900538D01*
X1067328Y909711D01*
X1062403Y916129D01*
Y955831D01*
X1062500Y955910D01*
X1063927D01*
X1063936Y955909D01*
X1064023Y955879D01*
X1064100Y955827D01*
X1064236Y955681D01*
X1064432Y955360D01*
X1064651Y954823D01*
X1064856Y954062D01*
X1065019Y953086D01*
X1065123Y951905D01*
X1065154Y950752D01*
Y949750D01*
X1065378Y948043D01*
X1066037Y946452D01*
X1067086Y945086D01*
X1068804Y943367D01*
X1069793Y942334D01*
X1070760Y941214D01*
X1071509Y940222D01*
X1072038Y939380D01*
X1072284Y938867D01*
X1071649Y937332D01*
X1071347Y935038D01*
X1071649Y932743D01*
X1072534Y930605D01*
X1078784Y919779D01*
X1080193Y917943D01*
X1082029Y916534D01*
X1084168Y915649D01*
X1086462Y915347D01*
X1088757Y915649D01*
X1090895Y916534D01*
X1101721Y922784D01*
X1103557Y924193D01*
X1104723Y925713D01*
X1106125Y925824D01*
X1109440Y920084D01*
X1108643Y918925D01*
X1106743Y918674D01*
X1104605Y917789D01*
X1093779Y911539D01*
X1091943Y910130D01*
X1090534Y908294D01*
X1089649Y906155D01*
X1089346Y903861D01*
X1089649Y901566D01*
X1090534Y899428D01*
X1096784Y888603D01*
X1098193Y886766D01*
X1100029Y885357D01*
X1102168Y884472D01*
X1104462Y884170D01*
X1106757Y884472D01*
X1108471Y885182D01*
X1108662Y885175D01*
X1109479Y884779D01*
X1109830Y884431D01*
X1109873Y883936D01*
X1109904Y882696D01*
Y879247D01*
X1109873Y878089D01*
X1109769Y876902D01*
X1109606Y875920D01*
X1109401Y875155D01*
X1109180Y874613D01*
X1108983Y874290D01*
X1108846Y874142D01*
X1108769Y874090D01*
X1108767Y874090D01*
X1107250D01*
X1106259Y873893D01*
X1105419Y873331D01*
X1104857Y872491D01*
X1104660Y871500D01*
Y853000D01*
X1104857Y852009D01*
X1105419Y851169D01*
X1106259Y850607D01*
X1107250Y850410D01*
X1125750D01*
X1126741Y850607D01*
X1127581Y851169D01*
X1128143Y852009D01*
X1128340Y853000D01*
Y871500D01*
X1128143Y872491D01*
X1127581Y873331D01*
X1126741Y873893D01*
X1125750Y874090D01*
X1124233D01*
X1124231Y874090D01*
X1124154Y874142D01*
X1124017Y874290D01*
X1123820Y874614D01*
X1123599Y875155D01*
X1123394Y875920D01*
X1123231Y876902D01*
X1123127Y878089D01*
X1123096Y879247D01*
Y886428D01*
X1123098Y886781D01*
X1123292Y893195D01*
X1123411Y894534D01*
X1124734Y895079D01*
X1126054Y894066D01*
X1126358Y893916D01*
X1126640Y893728D01*
X1128768Y892846D01*
X1129100Y892780D01*
X1129421Y892671D01*
X1131705Y892370D01*
X1132044Y892392D01*
X1132382Y892370D01*
X1134666Y892671D01*
X1134987Y892780D01*
X1135319Y892846D01*
X1137447Y893728D01*
X1137729Y893916D01*
X1138033Y894066D01*
X1139861Y895468D01*
X1140084Y895723D01*
X1140339Y895946D01*
X1141741Y897774D01*
X1141891Y898078D01*
X1142079Y898360D01*
X1142961Y900488D01*
X1143027Y900820D01*
X1143136Y901141D01*
X1143437Y903425D01*
X1143415Y903763D01*
X1143437Y904101D01*
X1143136Y906386D01*
X1143027Y906706D01*
X1142961Y907039D01*
X1142079Y909167D01*
X1141984Y909309D01*
X1141929Y909471D01*
X1113179Y959267D01*
X1113067Y959396D01*
X1112991Y959549D01*
X1111589Y961377D01*
X1111334Y961600D01*
X1111111Y961855D01*
X1109283Y963258D01*
X1108979Y963407D01*
X1108697Y963596D01*
X1106569Y964477D01*
X1106237Y964543D01*
X1105916Y964652D01*
X1103632Y964953D01*
X1103294Y964931D01*
X1102956Y964953D01*
X1100671Y964652D01*
X1100351Y964543D01*
X1100018Y964477D01*
X1097890Y963596D01*
X1097608Y963407D01*
X1097304Y963258D01*
X1095476Y961855D01*
X1095253Y961600D01*
X1094998Y961377D01*
X1093596Y959549D01*
X1093446Y959245D01*
X1093258Y958964D01*
X1092376Y956835D01*
X1092310Y956503D01*
X1092201Y956182D01*
X1091900Y953898D01*
X1091923Y953560D01*
X1091900Y953222D01*
X1092155Y951287D01*
X1091538Y950421D01*
X1091256Y950202D01*
X1091109Y950144D01*
X1091038Y950154D01*
X1088743Y949851D01*
X1086605Y948966D01*
X1084780Y947912D01*
X1084673Y947903D01*
X1084330Y947945D01*
X1083823Y948101D01*
X1083161Y948411D01*
X1082366Y948896D01*
X1081457Y949566D01*
X1080451Y950421D01*
X1079536Y951292D01*
X1078421Y952408D01*
X1078481Y953086D01*
X1078644Y954062D01*
X1078848Y954823D01*
X1079068Y955360D01*
X1079264Y955681D01*
X1079400Y955827D01*
X1079477Y955879D01*
X1079564Y955909D01*
X1079573Y955910D01*
X1081000D01*
X1081991Y956107D01*
X1082831Y956669D01*
X1083393Y957509D01*
X1083590Y958500D01*
Y969945D01*
X1086833Y973404D01*
X1131268D01*
X1145404Y959268D01*
Y913000D01*
X1145628Y911293D01*
X1146287Y909702D01*
X1147336Y908336D01*
X1153836Y901836D01*
X1155202Y900787D01*
X1156793Y900128D01*
X1158500Y899904D01*
X1159724D01*
X1160515Y899899D01*
X1160669Y899669D01*
X1161509Y899107D01*
X1162500Y898910D01*
X1182500D01*
X1183491Y899107D01*
X1184331Y899669D01*
X1184893Y900509D01*
X1185090Y901500D01*
Y913500D01*
X1184893Y914491D01*
X1184331Y915331D01*
X1183491Y915893D01*
X1182500Y916090D01*
X1162500D01*
X1161509Y915893D01*
X1160669Y915331D01*
X1159678Y915277D01*
X1158596Y916313D01*
Y962000D01*
X1158372Y963707D01*
X1157713Y965298D01*
X1156664Y966664D01*
X1138664Y984664D01*
X1137298Y985713D01*
X1135707Y986372D01*
X1134000Y986596D01*
X1084000D01*
X1082293Y986372D01*
X1080702Y985713D01*
X1079336Y984664D01*
X1078553Y983882D01*
X1075388Y980768D01*
X1074114Y979590D01*
X1062500D01*
X1062403Y979669D01*
Y980880D01*
X1062456Y981476D01*
X1062594Y982302D01*
X1062763Y982933D01*
X1062938Y983360D01*
X1063079Y983591D01*
X1063144Y983660D01*
X1063750D01*
X1064741Y983857D01*
X1065581Y984419D01*
X1066143Y985259D01*
X1066340Y986250D01*
Y1004750D01*
X1066143Y1005741D01*
X1065581Y1006581D01*
X1064741Y1007143D01*
X1063750Y1007340D01*
X1060817D01*
X1060213Y1008798D01*
X1059164Y1010164D01*
X1030688Y1038640D01*
X1031215Y1039910D01*
X1033250D01*
X1034241Y1040107D01*
X1035081Y1040669D01*
X1035643Y1041509D01*
X1035840Y1042500D01*
Y1082500D01*
X1035643Y1083491D01*
X1035081Y1084331D01*
X1034241Y1084893D01*
X1033250Y1085090D01*
X1013250D01*
X1012259Y1084893D01*
X1011419Y1084331D01*
X1010857Y1083491D01*
X1010660Y1082500D01*
Y1042500D01*
X1010857Y1041509D01*
X1011419Y1040669D01*
X1012259Y1040107D01*
X1013250Y1039910D01*
X1016429D01*
X1016516Y1039387D01*
X1016644Y1037729D01*
X1016654Y1037139D01*
Y1036750D01*
X1016878Y1035043D01*
X1017537Y1033452D01*
X1018586Y1032086D01*
X1043479Y1007192D01*
X1043419Y1006581D01*
X1042857Y1005741D01*
X1042660Y1004750D01*
Y986250D01*
X1042857Y985259D01*
X1043419Y984419D01*
X1044259Y983857D01*
X1045250Y983660D01*
X1049346D01*
X1049410Y983591D01*
X1049552Y983360D01*
X1049726Y982933D01*
X1049896Y982302D01*
X1050034Y981476D01*
X1050087Y980880D01*
Y979661D01*
X1050000Y979590D01*
X1031500D01*
X1030509Y979393D01*
X1029669Y978831D01*
X1029107Y977991D01*
X1028910Y977000D01*
Y958500D01*
X1029107Y957509D01*
X1029669Y956669D01*
X1030509Y956107D01*
X1031500Y955910D01*
X1032927D01*
X1032936Y955909D01*
X1033023Y955879D01*
X1033100Y955827D01*
X1033235Y955681D01*
X1033432Y955360D01*
X1033652Y954823D01*
X1033856Y954062D01*
X1034019Y953086D01*
X1034123Y951905D01*
X1034154Y950752D01*
Y904018D01*
X1034378Y902310D01*
X1035037Y900720D01*
X1035843Y899669D01*
X1036086Y899353D01*
X1036692Y898754D01*
X1036692Y898754D01*
X1037670Y897675D01*
X1043151Y890285D01*
X1047880Y882394D01*
X1051814Y874077D01*
X1054914Y865414D01*
X1057149Y856490D01*
X1058499Y847389D01*
X1058950Y838200D01*
X1058499Y829011D01*
X1057149Y819910D01*
X1054914Y810986D01*
X1051814Y802323D01*
X1047880Y794006D01*
X1043151Y786115D01*
X1037670Y778725D01*
X1031492Y771908D01*
X1024675Y765730D01*
X1017285Y760249D01*
X1009394Y755519D01*
X1001077Y751586D01*
X998239Y750571D01*
X998278Y750467D01*
X997288Y750058D01*
X995922Y749009D01*
X994874Y747643D01*
X994215Y746052D01*
X993990Y744345D01*
X994215Y742637D01*
X994342Y742331D01*
Y732613D01*
X994289Y732012D01*
X994151Y731180D01*
X993980Y730544D01*
X993805Y730113D01*
X993662Y729879D01*
X993626Y729840D01*
X991250D01*
X991141Y729929D01*
Y755569D01*
X998357Y758151D01*
X1006044Y761786D01*
X1013337Y766158D01*
X1020167Y771223D01*
X1026467Y776933D01*
X1032177Y783233D01*
X1037242Y790063D01*
X1041613Y797356D01*
X1045249Y805043D01*
X1048113Y813048D01*
X1050180Y821296D01*
X1051427Y829707D01*
X1051844Y838200D01*
X1051427Y846693D01*
X1050180Y855104D01*
X1048113Y863352D01*
X1045249Y871357D01*
X1041613Y879044D01*
X1037242Y886337D01*
X1032177Y893167D01*
X1026467Y899467D01*
X1020167Y905177D01*
X1013337Y910242D01*
X1006044Y914613D01*
X998357Y918249D01*
X990351Y921114D01*
X982104Y923179D01*
X973693Y924427D01*
X965200Y924844D01*
X956707Y924427D01*
X955560Y924257D01*
X953796Y926021D01*
Y974001D01*
X953827Y975207D01*
X953932Y976448D01*
X954097Y977478D01*
X954306Y978288D01*
X954534Y978867D01*
X954740Y979219D01*
X954847Y979338D01*
X955745Y979456D01*
X957883Y980342D01*
X959719Y981751D01*
X961128Y983587D01*
X962014Y985725D01*
X962316Y988020D01*
Y1000520D01*
X962014Y1002815D01*
X961281Y1004585D01*
X961886Y1005855D01*
X968514D01*
X969119Y1004585D01*
X968386Y1002815D01*
X968084Y1000520D01*
Y988020D01*
X968386Y985725D01*
X969272Y983587D01*
X970681Y981751D01*
X972517Y980342D01*
X974655Y979456D01*
X976950Y979154D01*
X989450D01*
X991745Y979456D01*
X993883Y980342D01*
X995719Y981751D01*
X997128Y983587D01*
X998014Y985725D01*
X998299Y987896D01*
X998397Y987987D01*
X998710Y988178D01*
X999256Y988398D01*
X1000040Y988604D01*
X1001050Y988768D01*
X1002275Y988873D01*
X1003471Y988904D01*
X1006503D01*
X1007662Y988873D01*
X1008848Y988769D01*
X1009830Y988606D01*
X1010595Y988401D01*
X1011136Y988180D01*
X1011460Y987983D01*
X1011608Y987846D01*
X1011659Y987769D01*
X1011660Y987767D01*
Y986250D01*
X1011857Y985259D01*
X1012419Y984419D01*
X1013259Y983857D01*
X1014250Y983660D01*
X1032750D01*
X1033741Y983857D01*
X1034581Y984419D01*
X1035143Y985259D01*
X1035340Y986250D01*
Y1004750D01*
X1035143Y1005741D01*
X1034581Y1006581D01*
X1033741Y1007143D01*
X1032750Y1007340D01*
X1014250D01*
X1013259Y1007143D01*
X1012419Y1006581D01*
X1011857Y1005741D01*
X1011660Y1004750D01*
Y1003233D01*
X1011659Y1003231D01*
X1011608Y1003154D01*
X1011460Y1003017D01*
X1011136Y1002820D01*
X1010595Y1002599D01*
X1009830Y1002394D01*
X1008848Y1002231D01*
X1007662Y1002127D01*
X1006503Y1002096D01*
X1003457D01*
X1002194Y1002127D01*
X1000885Y1002233D01*
X999786Y1002401D01*
X998907Y1002617D01*
X998259Y1002858D01*
X997918Y1003045D01*
X997128Y1004953D01*
X997084Y1005010D01*
X997061Y1005166D01*
X997110Y1005520D01*
X997551Y1006488D01*
X999354Y1007234D01*
X999635Y1007422D01*
X999939Y1007572D01*
X1001767Y1008975D01*
X1001991Y1009230D01*
X1002245Y1009453D01*
X1003648Y1011281D01*
X1003798Y1011585D01*
X1003986Y1011866D01*
X1004867Y1013995D01*
X1004933Y1014327D01*
X1005042Y1014648D01*
X1005343Y1016932D01*
X1005321Y1017270D01*
X1005343Y1017608D01*
X1005042Y1019892D01*
X1004933Y1020213D01*
X1004867Y1020545D01*
X1003986Y1022674D01*
X1003798Y1022955D01*
X1003648Y1023259D01*
X1002245Y1025087D01*
X1001990Y1025311D01*
X1001767Y1025565D01*
X999939Y1026968D01*
X999635Y1027118D01*
X999354Y1027306D01*
X997225Y1028187D01*
X996893Y1028253D01*
X996572Y1028362D01*
X994288Y1028663D01*
X994118Y1028652D01*
X993950Y1028685D01*
X936450D01*
X936283Y1028652D01*
X936112Y1028663D01*
X933828Y1028362D01*
X933507Y1028253D01*
X933175Y1028187D01*
X931046Y1027306D01*
X930765Y1027118D01*
X930461Y1026968D01*
X928633Y1025565D01*
X928409Y1025310D01*
X928155Y1025087D01*
X926752Y1023259D01*
X926602Y1022955D01*
X926414Y1022674D01*
X925533Y1020545D01*
X925467Y1020213D01*
X925358Y1019892D01*
X925057Y1017608D01*
X925079Y1017270D01*
X925057Y1016932D01*
X925358Y1014648D01*
X925467Y1014327D01*
X925533Y1013995D01*
X926414Y1011866D01*
X926602Y1011585D01*
X926752Y1011281D01*
X928155Y1009453D01*
X928410Y1009230D01*
X928633Y1008975D01*
X930461Y1007572D01*
X930765Y1007422D01*
X931046Y1007234D01*
X932849Y1006488D01*
X933290Y1005520D01*
X933339Y1005166D01*
X933316Y1005010D01*
X933272Y1004953D01*
X932386Y1002815D01*
X932084Y1000520D01*
Y988020D01*
X932386Y985725D01*
X933272Y983587D01*
X934681Y981751D01*
X936517Y980342D01*
X938655Y979456D01*
X939553Y979338D01*
X939660Y979219D01*
X939866Y978867D01*
X940094Y978288D01*
X940303Y977478D01*
X940468Y976448D01*
X940573Y975207D01*
X940604Y974001D01*
Y923288D01*
X940828Y921581D01*
X941487Y919990D01*
X942536Y918624D01*
X948530Y912630D01*
X949896Y911581D01*
X951487Y910922D01*
X953194Y910698D01*
X954176Y910827D01*
X954193Y910714D01*
X956976Y911187D01*
X965200Y911648D01*
X973424Y911187D01*
X981544Y909807D01*
X989458Y907527D01*
X997068Y904375D01*
X1004277Y900391D01*
X1010994Y895624D01*
X1017136Y890136D01*
X1022624Y883994D01*
X1027391Y877277D01*
X1031375Y870068D01*
X1034527Y862458D01*
X1036807Y854544D01*
X1038187Y846424D01*
X1038649Y838200D01*
X1038187Y829976D01*
X1036807Y821856D01*
X1034527Y813941D01*
X1031375Y806332D01*
X1027391Y799123D01*
X1022624Y792406D01*
X1017136Y786264D01*
X1010994Y780776D01*
X1004277Y776009D01*
X997068Y772025D01*
X989458Y768873D01*
X985769Y767810D01*
X985769Y767810D01*
X984983Y767658D01*
X982626Y767190D01*
X980628Y765855D01*
X979293Y763857D01*
X978824Y761500D01*
Y729901D01*
X978750Y729840D01*
X960250D01*
X959259Y729643D01*
X958419Y729081D01*
X957857Y728241D01*
X957660Y727250D01*
Y725733D01*
X957660Y725731D01*
X957608Y725654D01*
X957460Y725517D01*
X957136Y725320D01*
X956595Y725099D01*
X955830Y724894D01*
X954848Y724731D01*
X953661Y724627D01*
X952503Y724596D01*
X939500D01*
X937793Y724372D01*
X936202Y723713D01*
X934836Y722664D01*
X918370Y706198D01*
X912087D01*
X911840Y706500D01*
Y725000D01*
X911643Y725991D01*
X911081Y726831D01*
X910241Y727393D01*
X909250Y727590D01*
X907733D01*
X907731Y727590D01*
X907654Y727642D01*
X907517Y727790D01*
X907320Y728114D01*
X907099Y728655D01*
X906894Y729420D01*
X906731Y730402D01*
X906627Y731589D01*
X906596Y732747D01*
Y738522D01*
X906372Y740229D01*
X905713Y741820D01*
X904664Y743187D01*
X897446Y750405D01*
X896597Y751274D01*
X896597Y751274D01*
X893959Y753299D01*
X886831Y759831D01*
X880299Y766959D01*
X874413Y774630D01*
X869218Y782785D01*
X864753Y791361D01*
X861053Y800294D01*
X858146Y809515D01*
X856053Y818954D01*
X854791Y828540D01*
X854369Y838200D01*
X854791Y847859D01*
X856053Y857446D01*
X858146Y866885D01*
X861053Y876106D01*
X864753Y885039D01*
X869218Y893615D01*
X874413Y901770D01*
X880299Y909441D01*
X881650Y910916D01*
Y910916D01*
X881649Y910941D01*
X892664Y921956D01*
X893713Y923322D01*
X894372Y924913D01*
X894596Y926620D01*
X894372Y928328D01*
X894158Y928843D01*
Y959778D01*
X894372Y960293D01*
X894596Y962000D01*
X894372Y963707D01*
X893713Y965298D01*
X892664Y966664D01*
X850479Y1008850D01*
X849327Y1010047D01*
X848154Y1011377D01*
X847192Y1012595D01*
X846440Y1013690D01*
X845897Y1014645D01*
X845840Y1014777D01*
Y1018234D01*
X847013Y1018720D01*
X854366Y1011366D01*
X856033Y1010252D01*
X858000Y1009861D01*
X903663D01*
X905630Y1010252D01*
X907297Y1011366D01*
X930672Y1034741D01*
X949880D01*
X951846Y1035132D01*
X953514Y1036246D01*
X967634Y1050366D01*
X968748Y1052033D01*
X969139Y1054000D01*
Y1090872D01*
X971128Y1092861D01*
X1031871D01*
X1039861Y1084872D01*
Y1038337D01*
X1040252Y1036370D01*
X1041366Y1034703D01*
X1066703Y1009366D01*
X1068370Y1008252D01*
X1070337Y1007861D01*
X1118000D01*
X1119967Y1008252D01*
X1121634Y1009366D01*
X1147129Y1034861D01*
X1182871D01*
X1199861Y1017871D01*
Y998101D01*
X1199829Y997731D01*
X1199741Y997199D01*
X1199644Y996840D01*
X1195250D01*
X1194259Y996643D01*
X1193419Y996081D01*
X1192857Y995241D01*
X1192660Y994250D01*
Y986679D01*
X1192627Y986464D01*
X1192508Y985995D01*
X1192335Y985506D01*
X1192102Y984994D01*
X1191806Y984459D01*
X1191442Y983902D01*
X1191006Y983324D01*
X1190716Y982983D01*
X1170765Y963032D01*
X1170423Y962740D01*
X1169843Y962304D01*
X1169286Y961939D01*
X1168751Y961643D01*
X1168240Y961411D01*
X1167753Y961239D01*
X1167287Y961121D01*
X1167084Y961090D01*
X1162500D01*
X1161509Y960893D01*
X1160669Y960331D01*
X1160107Y959491D01*
X1159910Y958500D01*
Y946500D01*
X1160107Y945509D01*
X1160669Y944669D01*
X1161509Y944107D01*
X1162500Y943910D01*
X1182500D01*
X1183491Y944107D01*
X1184331Y944669D01*
X1184893Y945509D01*
X1185090Y946500D01*
Y958500D01*
X1184893Y959491D01*
X1184331Y960331D01*
X1184208Y961941D01*
X1194731Y972464D01*
X1194830Y972554D01*
X1195460Y973058D01*
X1195609Y973160D01*
X1213750D01*
X1214591Y973328D01*
X1214912Y973239D01*
X1215861Y972579D01*
Y971128D01*
X1197366Y952634D01*
X1196252Y950966D01*
X1195861Y949000D01*
Y893628D01*
X1190939Y888706D01*
X1190038Y887869D01*
X1189293Y887272D01*
X1188675Y886840D01*
X1175250D01*
X1174259Y886643D01*
X1173419Y886081D01*
X1172857Y885241D01*
X1172660Y884250D01*
Y865750D01*
X1172857Y864759D01*
X1173419Y863919D01*
X1174259Y863357D01*
X1175250Y863160D01*
X1179138D01*
X1179142Y863153D01*
X1179241Y862782D01*
X1179329Y862256D01*
X1179361Y861891D01*
Y856628D01*
X1175767Y853034D01*
X1175426Y852744D01*
X1174848Y852309D01*
X1174291Y851944D01*
X1173756Y851648D01*
X1173244Y851415D01*
X1172755Y851242D01*
X1172287Y851123D01*
X1172071Y851090D01*
X1162500D01*
X1161509Y850893D01*
X1160669Y850331D01*
X1160107Y849491D01*
X1159910Y848500D01*
Y836500D01*
X1160107Y835509D01*
X1160669Y834669D01*
X1161509Y834107D01*
X1162500Y833910D01*
X1182500D01*
X1183491Y834107D01*
X1184331Y834669D01*
X1184893Y835509D01*
X1185090Y836500D01*
Y847687D01*
X1186218Y848950D01*
X1188134Y850866D01*
X1189248Y852533D01*
X1189639Y854500D01*
Y861891D01*
X1189671Y862256D01*
X1189759Y862782D01*
X1189858Y863153D01*
X1189862Y863160D01*
X1193750D01*
X1194741Y863357D01*
X1195581Y863919D01*
X1196143Y864759D01*
X1196340Y865750D01*
Y879175D01*
X1196751Y879764D01*
X1197976Y881208D01*
X1202978Y886210D01*
X1203964Y885401D01*
X1203857Y885241D01*
X1203660Y884250D01*
Y877000D01*
X1213500D01*
Y886840D01*
X1206250D01*
X1205259Y886643D01*
X1205099Y886536D01*
X1204290Y887522D01*
X1204634Y887866D01*
X1205748Y889533D01*
X1206139Y891500D01*
Y946871D01*
X1224634Y965366D01*
X1225748Y967033D01*
X1226139Y969000D01*
Y973069D01*
X1226250Y973160D01*
X1233500D01*
Y985000D01*
Y996840D01*
X1226250D01*
X1226139Y996931D01*
Y1015000D01*
X1225748Y1016966D01*
X1224634Y1018634D01*
X1189772Y1053495D01*
X1188105Y1054609D01*
X1186139Y1055000D01*
X1140861D01*
X1138895Y1054609D01*
X1137228Y1053495D01*
X1111871Y1028139D01*
X1073129D01*
X1060139Y1041128D01*
Y1042740D01*
X1061409Y1043266D01*
X1068337Y1036338D01*
X1070018Y1035215D01*
X1072000Y1034820D01*
X1073160D01*
Y1034000D01*
X1073357Y1033009D01*
X1073919Y1032169D01*
X1074759Y1031607D01*
X1075750Y1031410D01*
X1095750D01*
X1096741Y1031607D01*
X1097581Y1032169D01*
X1098143Y1033009D01*
X1098340Y1034000D01*
Y1034820D01*
X1098750D01*
X1100732Y1035215D01*
X1102412Y1036338D01*
X1109066Y1042991D01*
X1109987Y1043846D01*
X1110743Y1044451D01*
X1111403Y1044910D01*
X1124750D01*
X1125741Y1045107D01*
X1126581Y1045669D01*
X1127143Y1046509D01*
X1127340Y1047500D01*
Y1066000D01*
X1127143Y1066991D01*
X1126581Y1067831D01*
X1125741Y1068393D01*
X1124750Y1068590D01*
X1106250D01*
X1105259Y1068393D01*
X1104419Y1067831D01*
X1103857Y1066991D01*
X1103660Y1066000D01*
Y1052653D01*
X1103221Y1052022D01*
X1101979Y1050554D01*
X1099168Y1047743D01*
X1097581Y1047831D01*
X1096741Y1048393D01*
X1095750Y1048590D01*
X1075750D01*
X1074759Y1048393D01*
X1073919Y1047831D01*
X1073667Y1047454D01*
X1072190Y1047135D01*
X1069180Y1050145D01*
Y1100000D01*
X1069180Y1100000D01*
X1068785Y1101982D01*
X1067663Y1103662D01*
X1053662Y1117663D01*
X1052958Y1118134D01*
X1053343Y1119404D01*
X1105155D01*
X1105795Y1118604D01*
X1106528Y1117526D01*
X1107159Y1116413D01*
X1107691Y1115265D01*
X1108127Y1114077D01*
X1108467Y1112844D01*
X1108711Y1111563D01*
X1108859Y1110230D01*
X1108904Y1108982D01*
Y1104747D01*
X1108873Y1103588D01*
X1108769Y1102402D01*
X1108606Y1101420D01*
X1108401Y1100655D01*
X1108180Y1100114D01*
X1107983Y1099790D01*
X1107846Y1099642D01*
X1107769Y1099591D01*
X1107767Y1099590D01*
X1106250D01*
X1105259Y1099393D01*
X1104419Y1098831D01*
X1103857Y1097991D01*
X1103660Y1097000D01*
Y1092739D01*
X1103658Y1092734D01*
X1103606Y1092655D01*
X1103457Y1092518D01*
X1103132Y1092320D01*
X1102591Y1092099D01*
X1101826Y1091894D01*
X1100845Y1091731D01*
X1100620Y1091711D01*
X1099887Y1091756D01*
X1099023Y1091871D01*
X1098347Y1092007D01*
X1098078Y1092087D01*
X1097857Y1092418D01*
X1097849Y1092437D01*
X1097836Y1092449D01*
X1097581Y1092831D01*
X1097139Y1093127D01*
X1097124Y1093141D01*
X1097108Y1093148D01*
X1096741Y1093393D01*
X1096240Y1093492D01*
X1096185Y1093514D01*
X1096134Y1093513D01*
X1095750Y1093590D01*
X1075750D01*
X1074759Y1093393D01*
X1073919Y1092831D01*
X1073357Y1091991D01*
X1073160Y1091000D01*
Y1079000D01*
X1073357Y1078009D01*
X1073919Y1077169D01*
X1074759Y1076607D01*
X1075750Y1076410D01*
X1095750D01*
X1096134Y1076487D01*
X1096185Y1076486D01*
X1096240Y1076508D01*
X1096741Y1076607D01*
X1097108Y1076852D01*
X1097124Y1076859D01*
X1097139Y1076873D01*
X1097581Y1077169D01*
X1097836Y1077551D01*
X1097849Y1077563D01*
X1097857Y1077582D01*
X1098078Y1077913D01*
X1098347Y1077993D01*
X1098959Y1078117D01*
X1101167Y1078298D01*
X1102018Y1078210D01*
X1102873Y1078068D01*
X1103507Y1077908D01*
X1103800Y1077798D01*
X1103857Y1077509D01*
X1104086Y1077166D01*
X1104091Y1077153D01*
X1104104Y1077140D01*
X1104419Y1076669D01*
X1104777Y1076430D01*
X1104786Y1076420D01*
X1104802Y1076412D01*
X1105259Y1076107D01*
X1105667Y1076026D01*
X1105709Y1076008D01*
X1105768Y1076006D01*
X1106250Y1075910D01*
X1124750D01*
X1125741Y1076107D01*
X1126581Y1076669D01*
X1127143Y1077509D01*
X1127340Y1078500D01*
Y1097000D01*
X1127143Y1097991D01*
X1126581Y1098831D01*
X1125741Y1099393D01*
X1124750Y1099590D01*
X1123233D01*
X1123231Y1099591D01*
X1123154Y1099642D01*
X1123017Y1099790D01*
X1122820Y1100114D01*
X1122599Y1100655D01*
X1122394Y1101420D01*
X1122231Y1102402D01*
X1122127Y1103588D01*
X1122096Y1104747D01*
Y1117429D01*
X1125134Y1120861D01*
X1141871D01*
X1144861Y1117871D01*
Y1070000D01*
X1145252Y1068033D01*
X1146366Y1066366D01*
X1152696Y1060036D01*
X1154363Y1058922D01*
X1156330Y1058531D01*
X1194202D01*
X1228866Y1023866D01*
X1263861Y988872D01*
Y758601D01*
X1263829Y758231D01*
X1263741Y757699D01*
X1263644Y757340D01*
X1259750D01*
X1258759Y757143D01*
X1257919Y756581D01*
X1257357Y755741D01*
X1257160Y754750D01*
Y736250D01*
X1257357Y735259D01*
X1257919Y734419D01*
X1258759Y733857D01*
X1259750Y733660D01*
X1278250D01*
X1278407Y733691D01*
X1280560Y733673D01*
X1282861Y731372D01*
Y613129D01*
X1261366Y591634D01*
X1260252Y589967D01*
X1259861Y588000D01*
Y587340D01*
X1255750D01*
X1254759Y587143D01*
X1253919Y586581D01*
X1253357Y585741D01*
X1253160Y584750D01*
Y566250D01*
X1253357Y565259D01*
X1253919Y564419D01*
X1254759Y563857D01*
X1255750Y563660D01*
X1274250D01*
X1275241Y563857D01*
X1276081Y564419D01*
X1276643Y565259D01*
X1276840Y566250D01*
Y584750D01*
X1276643Y585741D01*
X1276081Y586581D01*
X1275241Y587143D01*
X1274250Y587340D01*
X1273266D01*
X1272780Y588513D01*
X1291634Y607366D01*
X1292748Y609034D01*
X1293139Y611000D01*
Y733500D01*
X1292748Y735467D01*
X1291634Y737134D01*
X1282784Y745983D01*
X1282493Y746325D01*
X1282058Y746903D01*
X1281693Y747460D01*
X1281397Y747995D01*
X1281165Y748506D01*
X1280991Y748995D01*
X1280872Y749464D01*
X1280840Y749677D01*
Y754750D01*
X1280643Y755741D01*
X1280081Y756581D01*
X1279241Y757143D01*
X1278250Y757340D01*
X1274355D01*
X1274259Y757699D01*
X1274171Y758231D01*
X1274139Y758601D01*
Y991000D01*
X1273748Y992967D01*
X1272634Y994634D01*
X1240267Y1027000D01*
X1250979Y1037712D01*
X1251248Y1037936D01*
X1251710Y1038267D01*
X1252128Y1038517D01*
X1252498Y1038693D01*
X1252817Y1038805D01*
X1253089Y1038865D01*
X1253322Y1038885D01*
X1253503Y1038875D01*
X1253726Y1038783D01*
X1257000Y1038352D01*
X1260274Y1038783D01*
X1263324Y1040046D01*
X1265944Y1042056D01*
X1267954Y1044676D01*
X1269217Y1047726D01*
X1269648Y1051000D01*
X1269217Y1054274D01*
X1267954Y1057324D01*
X1265944Y1059944D01*
X1263324Y1061954D01*
X1260274Y1063217D01*
X1257000Y1063648D01*
X1253726Y1063217D01*
X1250676Y1061954D01*
X1248056Y1059944D01*
X1246046Y1057324D01*
X1244783Y1054274D01*
X1244352Y1051000D01*
X1244783Y1047726D01*
X1244875Y1047504D01*
X1244885Y1047322D01*
X1244865Y1047089D01*
X1244805Y1046817D01*
X1244693Y1046498D01*
X1244517Y1046128D01*
X1244267Y1045710D01*
X1243936Y1045248D01*
X1243712Y1044979D01*
X1233000Y1034267D01*
X1199964Y1067304D01*
X1198297Y1068418D01*
X1196330Y1068809D01*
X1158458D01*
X1155139Y1072129D01*
Y1120000D01*
X1154748Y1121966D01*
X1153634Y1123634D01*
X1147634Y1129634D01*
X1145966Y1130748D01*
X1144000Y1131139D01*
X1123000D01*
X1121033Y1130748D01*
X1119366Y1129634D01*
X1117896Y1128163D01*
X1117887Y1128155D01*
X1117576Y1127981D01*
X1117305Y1127899D01*
X1117005Y1127877D01*
X1116605Y1127930D01*
X1116069Y1128103D01*
X1115397Y1128437D01*
X1114604Y1128956D01*
X1113711Y1129672D01*
X1112853Y1130476D01*
X1112664Y1130664D01*
X1112535Y1130763D01*
X1112533Y1130766D01*
X1112529Y1130768D01*
X1111298Y1131713D01*
X1109707Y1132372D01*
X1108000Y1132596D01*
D02*
G37*
G36*
X1144250Y542376D02*
X1143238Y542243D01*
X1140430Y541080D01*
X1138020Y539230D01*
X1136170Y536820D01*
X1135007Y534012D01*
X1134874Y533000D01*
X1144250D01*
Y542376D01*
D02*
G37*
G36*
X1274250Y556340D02*
X1255750D01*
X1254759Y556143D01*
X1253919Y555581D01*
X1253357Y554741D01*
X1253160Y553750D01*
Y552139D01*
X1252250D01*
X1250284Y551748D01*
X1248616Y550634D01*
X1242080Y544098D01*
X1241765Y543863D01*
X1241294Y543578D01*
X1240772Y543326D01*
X1240195Y543106D01*
X1239557Y542920D01*
X1238857Y542773D01*
X1238091Y542667D01*
X1237261Y542605D01*
X1236596Y542594D01*
X1236250Y542640D01*
X1233238Y542243D01*
X1230430Y541080D01*
X1228020Y539230D01*
X1226170Y536820D01*
X1225007Y534012D01*
X1224611Y531000D01*
X1225007Y527988D01*
X1226170Y525180D01*
X1228020Y522770D01*
X1230430Y520920D01*
X1233238Y519757D01*
X1236250Y519361D01*
X1239263Y519757D01*
X1242070Y520920D01*
X1244480Y522770D01*
X1246330Y525180D01*
X1247493Y527988D01*
X1247890Y531000D01*
X1247844Y531346D01*
X1247855Y532011D01*
X1247917Y532841D01*
X1248023Y533607D01*
X1248170Y534307D01*
X1248355Y534945D01*
X1248576Y535522D01*
X1248828Y536044D01*
X1249113Y536515D01*
X1249348Y536830D01*
X1251987Y539470D01*
X1253160Y538984D01*
Y535250D01*
X1253357Y534259D01*
X1253919Y533419D01*
X1254759Y532857D01*
X1255750Y532660D01*
X1274250D01*
X1275241Y532857D01*
X1276081Y533419D01*
X1276643Y534259D01*
X1276840Y535250D01*
Y553750D01*
X1276643Y554741D01*
X1276081Y555581D01*
X1275241Y556143D01*
X1274250Y556340D01*
D02*
G37*
G36*
X1244750Y996840D02*
X1237500D01*
Y987000D01*
X1247340D01*
Y994250D01*
X1247143Y995241D01*
X1246581Y996081D01*
X1245741Y996643D01*
X1244750Y996840D01*
D02*
G37*
G36*
X850840Y556500D02*
X841000D01*
Y546660D01*
X848250D01*
X849241Y546857D01*
X850081Y547419D01*
X850643Y548259D01*
X850840Y549250D01*
Y556500D01*
D02*
G37*
G36*
X760501Y540950D02*
X751750D01*
Y537301D01*
X755250D01*
X757412Y537732D01*
X759244Y538956D01*
X760469Y540788D01*
X760501Y540950D01*
D02*
G37*
G36*
X899000Y563000D02*
X887410D01*
Y544250D01*
X887607Y543259D01*
X888169Y542419D01*
X889009Y541857D01*
X890000Y541660D01*
X899000D01*
Y563000D01*
D02*
G37*
G36*
X914590D02*
X903000D01*
Y541660D01*
X912000D01*
X912991Y541857D01*
X913831Y542419D01*
X914393Y543259D01*
X914590Y544250D01*
Y563000D01*
D02*
G37*
G36*
X708000Y539840D02*
X700250D01*
X699259Y539643D01*
X698419Y539081D01*
X697857Y538241D01*
X697660Y537250D01*
Y530000D01*
X708000D01*
Y539840D01*
D02*
G37*
G36*
X1235186Y1127777D02*
X1179920D01*
Y1104920D01*
X1235186D01*
Y1127777D01*
D02*
G37*
G36*
X977750Y582090D02*
X956250D01*
X955259Y581893D01*
X954419Y581331D01*
X953857Y580491D01*
X953660Y579500D01*
Y554500D01*
X953857Y553509D01*
X954419Y552669D01*
X955259Y552107D01*
X956250Y551910D01*
X977750D01*
X978741Y552107D01*
X979581Y552669D01*
X980143Y553509D01*
X980340Y554500D01*
Y557638D01*
X980362Y557644D01*
X981022Y557770D01*
X982439Y557880D01*
X1007874Y532445D01*
X1008487Y531802D01*
X1009760Y530324D01*
X1010917Y528829D01*
X1011959Y527315D01*
X1012888Y525782D01*
X1013704Y524231D01*
X1014410Y522661D01*
X1015007Y521069D01*
X1015496Y519454D01*
X1015502Y519430D01*
X1015536Y519081D01*
X1015739Y518414D01*
X1015897Y517733D01*
X1015961Y517593D01*
X1015983Y517442D01*
X1016084Y517275D01*
X1016825Y514832D01*
X1018918Y510917D01*
X1021735Y507485D01*
X1025167Y504668D01*
X1029083Y502575D01*
X1033331Y501286D01*
X1037750Y500851D01*
X1057750D01*
X1062169Y501286D01*
X1066417Y502575D01*
X1070333Y504668D01*
X1073765Y507485D01*
X1076582Y510917D01*
X1078675Y514832D01*
X1079964Y519081D01*
X1080399Y523500D01*
X1079964Y527919D01*
X1078675Y532167D01*
X1076582Y536083D01*
X1073765Y539515D01*
X1070333Y542332D01*
X1066417Y544425D01*
X1062169Y545714D01*
X1057750Y546149D01*
X1037750D01*
X1033331Y545714D01*
X1029083Y544425D01*
X1025192Y542345D01*
X1024059Y542877D01*
X1022635Y543773D01*
X1018936Y546793D01*
X1017760Y547921D01*
X992340Y573340D01*
X990483Y574765D01*
X988321Y575661D01*
X986000Y575967D01*
X984364D01*
X981996Y576104D01*
X981083Y576219D01*
X980362Y576356D01*
X980340Y576362D01*
Y579500D01*
X980143Y580491D01*
X979581Y581331D01*
X978741Y581893D01*
X977750Y582090D01*
D02*
G37*
G36*
X1275000Y1117605D02*
X1273032Y1117346D01*
X1271198Y1116586D01*
X1269622Y1115378D01*
X1268414Y1113802D01*
X1267654Y1111968D01*
X1267395Y1110000D01*
X1267654Y1108032D01*
X1268414Y1106198D01*
X1269622Y1104622D01*
X1271198Y1103414D01*
X1273032Y1102654D01*
X1275000Y1102395D01*
X1276968Y1102654D01*
X1278802Y1103414D01*
X1280378Y1104622D01*
X1281586Y1106198D01*
X1282346Y1108032D01*
X1282605Y1110000D01*
X1282346Y1111968D01*
X1281586Y1113802D01*
X1280378Y1115378D01*
X1278802Y1116586D01*
X1276968Y1117346D01*
X1275000Y1117605D01*
D02*
G37*
G36*
X1131250Y521648D02*
X1127976Y521217D01*
X1124926Y519954D01*
X1122306Y517944D01*
X1120296Y515324D01*
X1119033Y512274D01*
X1118602Y509000D01*
X1119033Y505726D01*
X1120296Y502676D01*
X1122306Y500056D01*
X1124926Y498046D01*
X1127976Y496783D01*
X1131250Y496352D01*
X1134524Y496783D01*
X1137574Y498046D01*
X1140194Y500056D01*
X1142204Y502676D01*
X1143467Y505726D01*
X1143898Y509000D01*
X1143467Y512274D01*
X1142204Y515324D01*
X1140194Y517944D01*
X1137574Y519954D01*
X1134524Y521217D01*
X1131250Y521648D01*
D02*
G37*
G36*
X670000Y1132605D02*
X668032Y1132346D01*
X666198Y1131586D01*
X664622Y1130378D01*
X663414Y1128802D01*
X662654Y1126968D01*
X662395Y1125000D01*
X662654Y1123032D01*
X663414Y1121198D01*
X664622Y1119622D01*
X666198Y1118414D01*
X668032Y1117654D01*
X670000Y1117395D01*
X671968Y1117654D01*
X673802Y1118414D01*
X675378Y1119622D01*
X676586Y1121198D01*
X677346Y1123032D01*
X677605Y1125000D01*
X677346Y1126968D01*
X676586Y1128802D01*
X675378Y1130378D01*
X673802Y1131586D01*
X671968Y1132346D01*
X670000Y1132605D01*
D02*
G37*
G36*
X1251250Y521648D02*
X1247976Y521217D01*
X1244926Y519954D01*
X1242306Y517944D01*
X1240296Y515324D01*
X1239033Y512274D01*
X1238602Y509000D01*
X1239033Y505726D01*
X1240296Y502676D01*
X1242306Y500056D01*
X1244926Y498046D01*
X1247976Y496783D01*
X1251250Y496352D01*
X1254524Y496783D01*
X1257574Y498046D01*
X1260194Y500056D01*
X1262204Y502676D01*
X1263467Y505726D01*
X1263898Y509000D01*
X1263467Y512274D01*
X1262204Y515324D01*
X1260194Y517944D01*
X1257574Y519954D01*
X1254524Y521217D01*
X1251250Y521648D01*
D02*
G37*
G36*
X1144250Y529000D02*
X1134874D01*
X1135007Y527988D01*
X1136170Y525180D01*
X1138020Y522770D01*
X1140430Y520920D01*
X1143238Y519757D01*
X1144250Y519624D01*
Y529000D01*
D02*
G37*
G36*
X1262603Y1102776D02*
X1169920D01*
Y1079920D01*
X1262603D01*
Y1102776D01*
D02*
G37*
G36*
X1095750Y1071090D02*
X1075750D01*
X1074759Y1070893D01*
X1073919Y1070331D01*
X1073357Y1069491D01*
X1073160Y1068500D01*
Y1056500D01*
X1073357Y1055509D01*
X1073919Y1054669D01*
X1074759Y1054107D01*
X1075750Y1053910D01*
X1095750D01*
X1096741Y1054107D01*
X1097581Y1054669D01*
X1098143Y1055509D01*
X1098340Y1056500D01*
Y1068500D01*
X1098143Y1069491D01*
X1097581Y1070331D01*
X1096741Y1070893D01*
X1095750Y1071090D01*
D02*
G37*
G36*
X708000Y526000D02*
X697660D01*
Y518750D01*
X697857Y517759D01*
X698419Y516919D01*
X699259Y516357D01*
X700250Y516160D01*
X708000D01*
Y526000D01*
D02*
G37*
G36*
X722340D02*
X712000D01*
Y516160D01*
X719750D01*
X720741Y516357D01*
X721581Y516919D01*
X722143Y517759D01*
X722340Y518750D01*
Y526000D01*
D02*
G37*
G36*
X1157626Y529000D02*
X1148250D01*
Y519624D01*
X1149262Y519757D01*
X1152070Y520920D01*
X1154480Y522770D01*
X1156330Y525180D01*
X1157493Y527988D01*
X1157626Y529000D01*
D02*
G37*
G36*
X1182500Y938590D02*
X1174500D01*
Y932000D01*
X1185090D01*
Y936000D01*
X1184893Y936991D01*
X1184331Y937831D01*
X1183491Y938393D01*
X1182500Y938590D01*
D02*
G37*
G36*
X1170500D02*
X1162500D01*
X1161509Y938393D01*
X1160669Y937831D01*
X1160107Y936991D01*
X1159910Y936000D01*
Y932000D01*
X1170500D01*
Y938590D01*
D02*
G37*
G36*
X1185090Y928000D02*
X1174500D01*
Y921410D01*
X1182500D01*
X1183491Y921607D01*
X1184331Y922169D01*
X1184893Y923009D01*
X1185090Y924000D01*
Y928000D01*
D02*
G37*
G36*
X912000Y588340D02*
X903000D01*
Y567000D01*
X914590D01*
Y585750D01*
X914393Y586741D01*
X913831Y587581D01*
X912991Y588143D01*
X912000Y588340D01*
D02*
G37*
G36*
X1245000Y952590D02*
X1237000D01*
Y932000D01*
X1247590D01*
Y950000D01*
X1247393Y950991D01*
X1246831Y951831D01*
X1245991Y952393D01*
X1245000Y952590D01*
D02*
G37*
G36*
X1233000D02*
X1225000D01*
X1224009Y952393D01*
X1223169Y951831D01*
X1222607Y950991D01*
X1222410Y950000D01*
Y932000D01*
X1233000D01*
Y952590D01*
D02*
G37*
G36*
X1170500Y928000D02*
X1159910D01*
Y924000D01*
X1160107Y923009D01*
X1160669Y922169D01*
X1161509Y921607D01*
X1162500Y921410D01*
X1170500D01*
Y928000D01*
D02*
G37*
G36*
X1233000Y928000D02*
X1222410D01*
Y910000D01*
X1222607Y909009D01*
X1223169Y908169D01*
X1224009Y907607D01*
X1225000Y907410D01*
X1233000D01*
Y928000D01*
D02*
G37*
G36*
X734998Y907500D02*
X731350D01*
Y898749D01*
X731512Y898782D01*
X733344Y900006D01*
X734569Y901838D01*
X734998Y904000D01*
Y907500D01*
D02*
G37*
G36*
X727350D02*
X723701D01*
Y904000D01*
X724131Y901838D01*
X725356Y900006D01*
X727188Y898782D01*
X727350Y898749D01*
Y907500D01*
D02*
G37*
G36*
X731350Y920251D02*
Y911500D01*
X734998D01*
Y915000D01*
X734569Y917162D01*
X733344Y918994D01*
X731512Y920219D01*
X731350Y920251D01*
D02*
G37*
G36*
X727350Y920251D02*
X727188Y920219D01*
X725356Y918994D01*
X724131Y917162D01*
X723701Y915000D01*
Y911500D01*
X727350D01*
Y920251D01*
D02*
G37*
G36*
X1247590Y928000D02*
X1237000D01*
Y907410D01*
X1245000D01*
X1245991Y907607D01*
X1246831Y908169D01*
X1247393Y909009D01*
X1247590Y910000D01*
Y928000D01*
D02*
G37*
G36*
X899000Y588340D02*
X890000D01*
X889009Y588143D01*
X888169Y587581D01*
X887607Y586741D01*
X887410Y585750D01*
Y567000D01*
X899000D01*
Y588340D01*
D02*
G37*
G36*
X1045250Y576000D02*
X1014798D01*
X1015036Y573581D01*
X1016325Y569333D01*
X1018418Y565417D01*
X1021235Y561985D01*
X1024667Y559168D01*
X1028583Y557075D01*
X1032831Y555786D01*
X1037250Y555351D01*
X1045250D01*
Y576000D01*
D02*
G37*
G36*
X1247340Y983000D02*
X1237500D01*
Y973160D01*
X1244750D01*
X1245741Y973357D01*
X1246581Y973919D01*
X1247143Y974759D01*
X1247340Y975750D01*
Y983000D01*
D02*
G37*
G36*
X848250Y570340D02*
X841000D01*
Y560500D01*
X850840D01*
Y567750D01*
X850643Y568741D01*
X850081Y569581D01*
X849241Y570143D01*
X848250Y570340D01*
D02*
G37*
G36*
X1079702Y576000D02*
X1049250D01*
Y555351D01*
X1057250D01*
X1061669Y555786D01*
X1065918Y557075D01*
X1069833Y559168D01*
X1073265Y561985D01*
X1076082Y565417D01*
X1078175Y569333D01*
X1079464Y573581D01*
X1079702Y576000D01*
D02*
G37*
%LPD*%
G36*
X1213727Y579860D02*
X1213511Y579216D01*
X1213399Y578570D01*
X1213389Y577922D01*
X1213482Y577273D01*
X1213678Y576622D01*
X1213977Y575969D01*
X1214379Y575314D01*
X1214883Y574657D01*
X1215491Y573999D01*
X1208113Y572397D01*
X1207473Y573023D01*
X1205030Y575148D01*
X1204448Y575584D01*
X1202773Y576661D01*
X1202237Y576944D01*
X1214046Y580502D01*
X1213727Y579860D01*
D02*
G37*
G36*
X1255763Y634783D02*
X1255269Y635142D01*
X1254686Y635322D01*
X1254012D01*
X1253249Y635142D01*
X1252396Y634783D01*
X1251453Y634244D01*
X1250420Y633526D01*
X1249297Y632628D01*
X1246783Y630293D01*
X1242293Y634783D01*
X1243550Y636085D01*
X1245526Y638420D01*
X1246244Y639453D01*
X1246783Y640396D01*
X1247142Y641249D01*
X1247322Y642012D01*
Y642686D01*
X1247142Y643269D01*
X1246783Y643763D01*
X1255763Y634783D01*
D02*
G37*
G36*
X1269707Y653217D02*
X1268447Y651912D01*
X1266465Y649574D01*
X1265744Y648540D01*
X1265202Y647597D01*
X1264839Y646744D01*
X1264657Y645982D01*
X1264654Y645310D01*
X1264830Y644728D01*
X1265186Y644237D01*
X1256237Y653186D01*
X1256728Y652830D01*
X1257309Y652654D01*
X1257981Y652657D01*
X1258744Y652840D01*
X1259597Y653202D01*
X1260540Y653744D01*
X1261574Y654465D01*
X1262698Y655366D01*
X1265217Y657707D01*
X1269707Y653217D01*
D02*
G37*
G36*
X1216829Y572706D02*
X1217613Y572057D01*
X1218400Y571494D01*
X1219192Y571016D01*
X1219988Y570625D01*
X1220788Y570319D01*
X1221592Y570099D01*
X1222400Y569964D01*
X1223212Y569916D01*
X1224028Y569953D01*
X1215047Y560972D01*
X1215084Y561788D01*
X1215036Y562600D01*
X1214901Y563408D01*
X1214681Y564212D01*
X1214375Y565012D01*
X1213984Y565808D01*
X1213506Y566600D01*
X1212943Y567387D01*
X1212294Y568171D01*
X1211560Y568950D01*
X1216050Y573440D01*
X1216829Y572706D01*
D02*
G37*
G36*
X1276747Y705219D02*
X1276207Y705029D01*
X1275731Y704712D01*
X1275318Y704267D01*
X1274969Y703696D01*
X1274683Y702997D01*
X1274461Y702171D01*
X1274302Y701219D01*
X1274207Y700139D01*
X1274175Y698933D01*
X1267825D01*
X1267793Y700139D01*
X1267698Y701219D01*
X1267539Y702171D01*
X1267317Y702997D01*
X1267031Y703696D01*
X1266682Y704267D01*
X1266269Y704712D01*
X1265793Y705029D01*
X1265253Y705219D01*
X1264650Y705283D01*
X1277350D01*
X1276747Y705219D01*
D02*
G37*
G36*
X1178500Y558000D02*
X1173500Y550500D01*
X1173450Y551450D01*
X1173300Y552300D01*
X1173050Y553050D01*
X1172700Y553700D01*
X1172250Y554250D01*
X1171700Y554700D01*
X1171050Y555050D01*
X1170300Y555300D01*
X1169450Y555450D01*
X1168500Y555500D01*
Y560500D01*
X1169450Y560550D01*
X1170300Y560700D01*
X1171050Y560950D01*
X1171700Y561300D01*
X1172250Y561750D01*
X1172700Y562300D01*
X1173050Y562950D01*
X1173300Y563700D01*
X1173450Y564550D01*
X1173500Y565500D01*
X1178500Y558000D01*
D02*
G37*
G36*
X988518Y700214D02*
X988622Y698945D01*
X988796Y697822D01*
X989040Y696845D01*
X989354Y696014D01*
X989737Y695330D01*
X990191Y694791D01*
X990714Y694398D01*
X991306Y694152D01*
X991968Y694052D01*
X977983Y694599D01*
X978648Y694645D01*
X979243Y694837D01*
X979768Y695174D01*
X980223Y695658D01*
X980608Y696288D01*
X980923Y697064D01*
X981168Y697987D01*
X981343Y699055D01*
X981448Y700269D01*
X981483Y701630D01*
X988483D01*
X988518Y700214D01*
D02*
G37*
G36*
X1267508Y587370D02*
X1267625Y585879D01*
X1267696Y585515D01*
X1267782Y585217D01*
X1267884Y584985D01*
X1268001Y584819D01*
X1268134Y584720D01*
X1268283Y584687D01*
X1261717D01*
X1261866Y584720D01*
X1261999Y584819D01*
X1262116Y584985D01*
X1262218Y585217D01*
X1262304Y585515D01*
X1262375Y585879D01*
X1262430Y586310D01*
X1262492Y587370D01*
X1262500Y588000D01*
X1267500D01*
X1267508Y587370D01*
D02*
G37*
G36*
X1178538Y544519D02*
X1178652Y543745D01*
X1178842Y542975D01*
X1179108Y542208D01*
X1179450Y541444D01*
X1179868Y540684D01*
X1180362Y539927D01*
X1180932Y539174D01*
X1181578Y538424D01*
X1182300Y537677D01*
X1169700D01*
X1170422Y538424D01*
X1171068Y539174D01*
X1171638Y539927D01*
X1172132Y540684D01*
X1172550Y541444D01*
X1172892Y542208D01*
X1173158Y542975D01*
X1173348Y543745D01*
X1173462Y544519D01*
X1173500Y545296D01*
X1178500D01*
X1178538Y544519D01*
D02*
G37*
G36*
X1215025Y689261D02*
X1215100Y688406D01*
X1215225Y687651D01*
X1215400Y686998D01*
X1215625Y686444D01*
X1215900Y685991D01*
X1216225Y685639D01*
X1216600Y685388D01*
X1217025Y685237D01*
X1217500Y685186D01*
X1207500D01*
X1207975Y685237D01*
X1208400Y685388D01*
X1208775Y685639D01*
X1209100Y685991D01*
X1209375Y686444D01*
X1209600Y686998D01*
X1209775Y687651D01*
X1209900Y688406D01*
X1209975Y689261D01*
X1210000Y690217D01*
X1215000D01*
X1215025Y689261D01*
D02*
G37*
G36*
X1054911Y690873D02*
X1056098Y690769D01*
X1057080Y690606D01*
X1057845Y690401D01*
X1058387Y690180D01*
X1058710Y689983D01*
X1058858Y689846D01*
X1058910Y689769D01*
X1058910Y689767D01*
Y688250D01*
X1058835Y688158D01*
X1055222D01*
X1054707Y688372D01*
X1053000Y688596D01*
X1051293Y688372D01*
X1049702Y687713D01*
X1048336Y686664D01*
X1008268Y646596D01*
X995355D01*
X995272Y647866D01*
X996572Y648038D01*
X996893Y648147D01*
X997225Y648213D01*
X999354Y649094D01*
X999635Y649282D01*
X999939Y649432D01*
X1001767Y650835D01*
X1001991Y651090D01*
X1002245Y651313D01*
X1003648Y653141D01*
X1003798Y653445D01*
X1003986Y653726D01*
X1004867Y655855D01*
X1004933Y656187D01*
X1005042Y656508D01*
X1005343Y658792D01*
X1005321Y659130D01*
X1005343Y659468D01*
X1005042Y661752D01*
X1004933Y662073D01*
X1004867Y662405D01*
X1003986Y664534D01*
X1003798Y664815D01*
X1003648Y665119D01*
X1002245Y666947D01*
X1001990Y667170D01*
X1001767Y667425D01*
X999939Y668828D01*
X999635Y668978D01*
X999354Y669166D01*
X997551Y669912D01*
X997110Y670880D01*
X997061Y671234D01*
X997084Y671390D01*
X997128Y671447D01*
X998014Y673585D01*
X998132Y674483D01*
X998251Y674590D01*
X998603Y674796D01*
X999182Y675023D01*
X999991Y675233D01*
X1001022Y675398D01*
X1002263Y675503D01*
X1003468Y675534D01*
X1011130D01*
X1012837Y675758D01*
X1014428Y676417D01*
X1015794Y677466D01*
X1029232Y690904D01*
X1053754D01*
X1054911Y690873D01*
D02*
G37*
G36*
X909268Y689370D02*
X909510Y688690D01*
X909913Y688090D01*
X910475Y687570D01*
X911198Y687130D01*
X912082Y686770D01*
X913125Y686490D01*
X914329Y686290D01*
X915642Y686174D01*
X920252Y686130D01*
Y678130D01*
X912896Y677854D01*
X912097Y677714D01*
X911217Y677481D01*
X910497Y677195D01*
X909937Y676858D01*
X909537Y676468D01*
X909297Y676026D01*
X909217Y675533D01*
X909212Y677716D01*
X907107Y677637D01*
Y686623D01*
X907328Y686529D01*
X907791Y686445D01*
X908498Y686372D01*
X909194Y686340D01*
X909186Y690130D01*
X909268Y689370D01*
D02*
G37*
G36*
X1061563Y689500D02*
X1061483Y690260D01*
X1061242Y690940D01*
X1060841Y691540D01*
X1060279Y692060D01*
X1059556Y692500D01*
X1058672Y692860D01*
X1057628Y693140D01*
X1056424Y693340D01*
X1055059Y693460D01*
X1053533Y693500D01*
Y701500D01*
X1055059Y701540D01*
X1056424Y701660D01*
X1057628Y701860D01*
X1058672Y702140D01*
X1059556Y702500D01*
X1060279Y702940D01*
X1060841Y703460D01*
X1061242Y704060D01*
X1061483Y704740D01*
X1061563Y705500D01*
Y689500D01*
D02*
G37*
G36*
X1205313Y673000D02*
X1205263Y673475D01*
X1205112Y673900D01*
X1204861Y674275D01*
X1204509Y674600D01*
X1204056Y674875D01*
X1203503Y675100D01*
X1202849Y675275D01*
X1202094Y675400D01*
X1201239Y675475D01*
X1200283Y675500D01*
Y680500D01*
X1201239Y680525D01*
X1202094Y680600D01*
X1202849Y680725D01*
X1203503Y680900D01*
X1204056Y681125D01*
X1204509Y681400D01*
X1204861Y681725D01*
X1205112Y682100D01*
X1205263Y682525D01*
X1205313Y683000D01*
Y673000D01*
D02*
G37*
G36*
X935011Y674139D02*
X934928Y674897D01*
X934678Y675576D01*
X934263Y676174D01*
X933681Y676693D01*
X932933Y677132D01*
X932019Y677491D01*
X930939Y677771D01*
X929692Y677970D01*
X928279Y678090D01*
X926700Y678130D01*
Y686130D01*
X928279Y686170D01*
X929692Y686290D01*
X930939Y686489D01*
X932019Y686769D01*
X932933Y687128D01*
X933681Y687567D01*
X934263Y688086D01*
X934678Y688684D01*
X934928Y689363D01*
X935011Y690121D01*
Y674139D01*
D02*
G37*
G36*
X1181578Y577826D02*
X1180932Y577076D01*
X1180362Y576323D01*
X1179868Y575566D01*
X1179450Y574806D01*
X1179108Y574042D01*
X1178842Y573275D01*
X1178652Y572505D01*
X1178538Y571731D01*
X1178500Y570954D01*
X1173500D01*
X1173462Y571731D01*
X1173348Y572505D01*
X1173158Y573275D01*
X1172892Y574042D01*
X1172550Y574806D01*
X1172132Y575566D01*
X1171638Y576323D01*
X1171068Y577076D01*
X1170422Y577826D01*
X1169700Y578573D01*
X1182300D01*
X1181578Y577826D01*
D02*
G37*
G36*
X1080017Y673740D02*
X1080258Y673060D01*
X1080659Y672460D01*
X1081221Y671940D01*
X1081944Y671500D01*
X1082828Y671140D01*
X1083872Y670860D01*
X1085076Y670660D01*
X1086441Y670540D01*
X1087967Y670500D01*
Y662500D01*
X1086441Y662460D01*
X1085076Y662340D01*
X1083872Y662140D01*
X1082828Y661860D01*
X1081944Y661500D01*
X1081221Y661060D01*
X1080659Y660540D01*
X1080258Y659940D01*
X1080017Y659260D01*
X1079937Y658500D01*
Y674500D01*
X1080017Y673740D01*
D02*
G37*
G36*
X953661Y711373D02*
X954848Y711269D01*
X955830Y711106D01*
X956595Y710901D01*
X957137Y710680D01*
X957460Y710483D01*
X957608Y710346D01*
X957660Y710269D01*
X957660Y710267D01*
Y708750D01*
X957857Y707759D01*
X958419Y706919D01*
X959259Y706357D01*
X960250Y706160D01*
X978750D01*
X978824Y706099D01*
Y699993D01*
X978771Y699376D01*
X978632Y698530D01*
X978462Y697887D01*
X978288Y697458D01*
X978158Y697246D01*
X976950D01*
X974655Y696944D01*
X972517Y696058D01*
X970681Y694649D01*
X969272Y692813D01*
X968386Y690675D01*
X968084Y688380D01*
Y675880D01*
X968386Y673585D01*
X969119Y671815D01*
X968514Y670545D01*
X961886D01*
X961281Y671815D01*
X962014Y673585D01*
X962316Y675880D01*
Y688380D01*
X962014Y690675D01*
X961128Y692813D01*
X959719Y694649D01*
X957883Y696058D01*
X955745Y696944D01*
X953450Y697246D01*
X940950D01*
X938655Y696944D01*
X936517Y696058D01*
X934681Y694649D01*
X933272Y692813D01*
X932386Y690675D01*
X932268Y689777D01*
X932149Y689670D01*
X931797Y689464D01*
X931218Y689237D01*
X930409Y689027D01*
X929378Y688862D01*
X928137Y688757D01*
X926932Y688726D01*
X919571D01*
X915768Y688763D01*
X914655Y688861D01*
X913674Y689024D01*
X912909Y689229D01*
X912368Y689450D01*
X912043Y689648D01*
X911894Y689785D01*
X911842Y689864D01*
X911840Y689869D01*
Y693882D01*
X919318D01*
X919833Y693668D01*
X921540Y693444D01*
X923247Y693668D01*
X924838Y694327D01*
X926204Y695376D01*
X942232Y711404D01*
X952503D01*
X953661Y711373D01*
D02*
G37*
G36*
X1199823Y524950D02*
X1199076Y525672D01*
X1198326Y526318D01*
X1197573Y526888D01*
X1196816Y527382D01*
X1196056Y527800D01*
X1195292Y528142D01*
X1194525Y528408D01*
X1193755Y528598D01*
X1192981Y528712D01*
X1192204Y528750D01*
X1192204Y533750D01*
X1192981Y533788D01*
X1193755Y533902D01*
X1194525Y534092D01*
X1195292Y534358D01*
X1196056Y534700D01*
X1196816Y535118D01*
X1197573Y535612D01*
X1198326Y536182D01*
X1199076Y536828D01*
X1199823Y537550D01*
X1199823Y524950D01*
D02*
G37*
G36*
X995472Y689363D02*
X995722Y688684D01*
X996137Y688086D01*
X996719Y687567D01*
X997467Y687128D01*
X998381Y686769D01*
X999461Y686489D01*
X1000708Y686290D01*
X1002121Y686170D01*
X1003700Y686130D01*
Y678130D01*
X1002121Y678090D01*
X1000708Y677970D01*
X999461Y677771D01*
X998381Y677491D01*
X997467Y677132D01*
X996719Y676693D01*
X996137Y676174D01*
X995722Y675576D01*
X995472Y674897D01*
X995389Y674139D01*
Y690121D01*
X995472Y689363D01*
D02*
G37*
G36*
X829814Y647000D02*
X829762Y647475D01*
X829610Y647900D01*
X829357Y648275D01*
X829005Y648600D01*
X828552Y648875D01*
X827999Y649100D01*
X827345Y649275D01*
X826591Y649400D01*
X825737Y649475D01*
X824783Y649500D01*
Y654500D01*
X825733Y654517D01*
X827333Y654654D01*
X827983Y654775D01*
X828533Y654929D01*
X828983Y655118D01*
X829333Y655341D01*
X829583Y655599D01*
X829733Y655891D01*
X829783Y656217D01*
X829814Y647000D01*
D02*
G37*
G36*
X1183174Y536828D02*
X1183924Y536182D01*
X1184677Y535612D01*
X1185434Y535118D01*
X1186194Y534700D01*
X1186958Y534358D01*
X1187725Y534092D01*
X1188495Y533902D01*
X1189269Y533788D01*
X1190046Y533750D01*
Y528750D01*
X1189269Y528712D01*
X1188495Y528598D01*
X1187725Y528408D01*
X1186958Y528142D01*
X1186194Y527800D01*
X1185434Y527382D01*
X1184677Y526888D01*
X1183924Y526318D01*
X1183174Y525672D01*
X1182427Y524950D01*
Y537550D01*
X1183174Y536828D01*
D02*
G37*
G36*
X827543Y1088860D02*
X826864Y1087590D01*
X810000D01*
X809009Y1087393D01*
X808169Y1086831D01*
X807607Y1085991D01*
X807410Y1085000D01*
Y1045000D01*
X807607Y1044009D01*
X808169Y1043169D01*
X809009Y1042607D01*
X810000Y1042410D01*
X813261D01*
X813404Y1042268D01*
Y1025000D01*
X813628Y1023293D01*
X814287Y1021702D01*
X815336Y1020336D01*
X817611Y1018060D01*
X818579Y1017065D01*
X820659Y1014689D01*
X821381Y1013732D01*
X821925Y1012899D01*
X822160Y1012455D01*
Y1003750D01*
X822357Y1002759D01*
X822919Y1001919D01*
X823759Y1001357D01*
X824750Y1001160D01*
X838756D01*
X839721Y1000478D01*
X842695Y997932D01*
X844103Y996568D01*
X881842Y958830D01*
Y929791D01*
X872545Y920494D01*
X871984Y919933D01*
X871685Y919589D01*
X871685Y919589D01*
X870172Y917938D01*
X863584Y909352D01*
X857769Y900225D01*
X852772Y890626D01*
X848631Y880628D01*
X845376Y870307D01*
X843034Y859741D01*
X841916Y851246D01*
X840594Y850938D01*
X840331Y851331D01*
X839491Y851893D01*
X838500Y852090D01*
X820000D01*
X819009Y851893D01*
X818169Y851331D01*
X817607Y850491D01*
X817410Y849500D01*
Y831000D01*
X817607Y830009D01*
X818169Y829169D01*
X819009Y828607D01*
X820000Y828410D01*
X838500D01*
X839491Y828607D01*
X840274Y829131D01*
X840616Y829066D01*
X841563Y828727D01*
X841622Y827388D01*
X843034Y816659D01*
X845376Y806093D01*
X848631Y795772D01*
X852772Y785774D01*
X857769Y776175D01*
X863584Y767048D01*
X870172Y758462D01*
X877483Y750483D01*
X885462Y743172D01*
X887868Y741326D01*
X893404Y735790D01*
Y732747D01*
X893373Y731589D01*
X893269Y730402D01*
X893106Y729420D01*
X892901Y728655D01*
X892680Y728113D01*
X892483Y727790D01*
X892346Y727642D01*
X892269Y727590D01*
X892267Y727590D01*
X890750D01*
X889759Y727393D01*
X888919Y726831D01*
X888357Y725991D01*
X888160Y725000D01*
Y706500D01*
X887913Y706198D01*
X875610D01*
X857111Y724697D01*
X856263Y725589D01*
X855471Y726529D01*
X855158Y726967D01*
X855253Y728488D01*
X855959Y728896D01*
X857795Y730305D01*
X859204Y732141D01*
X860090Y734279D01*
X860392Y736574D01*
X860090Y738869D01*
X859204Y741007D01*
X852954Y751832D01*
X851545Y753668D01*
X849709Y755077D01*
X847571Y755963D01*
X845276Y756265D01*
X842982Y755963D01*
X840843Y755077D01*
X830018Y748827D01*
X828182Y747418D01*
X827016Y745898D01*
X825613Y745787D01*
X822299Y751528D01*
X823096Y752687D01*
X824996Y752937D01*
X827134Y753823D01*
X837959Y760073D01*
X839795Y761482D01*
X841204Y763318D01*
X842090Y765456D01*
X842392Y767751D01*
X842090Y770045D01*
X841204Y772184D01*
X836872Y779688D01*
X836777Y780062D01*
X836458Y781857D01*
X835878Y789423D01*
X835846Y791962D01*
Y792252D01*
X835877Y793405D01*
X835981Y794586D01*
X836144Y795562D01*
X836348Y796323D01*
X836568Y796860D01*
X836764Y797181D01*
X836900Y797327D01*
X836977Y797379D01*
X837064Y797409D01*
X837073Y797410D01*
X838500D01*
X839491Y797607D01*
X840331Y798169D01*
X840893Y799009D01*
X841090Y800000D01*
Y818500D01*
X840893Y819491D01*
X840331Y820331D01*
X839491Y820893D01*
X838500Y821090D01*
X820000D01*
X819009Y820893D01*
X818169Y820331D01*
X817607Y819491D01*
X817410Y818500D01*
Y800000D01*
X817607Y799009D01*
X818169Y798169D01*
X819009Y797607D01*
X820000Y797410D01*
X821427D01*
X821436Y797409D01*
X821523Y797379D01*
X821600Y797327D01*
X821736Y797181D01*
X821932Y796860D01*
X822151Y796323D01*
X822356Y795562D01*
X822519Y794586D01*
X822623Y793405D01*
X822654Y792252D01*
Y792120D01*
X822622Y790265D01*
X822510Y788359D01*
X822329Y786785D01*
X822151Y785854D01*
X812018Y780004D01*
X810182Y778595D01*
X808773Y776759D01*
X808745Y776692D01*
X808622Y776594D01*
X808291Y776460D01*
X807232Y776358D01*
X805684Y777546D01*
X805380Y777696D01*
X805099Y777884D01*
X802970Y778766D01*
X802638Y778832D01*
X802317Y778941D01*
X800033Y779241D01*
X799695Y779219D01*
X799357Y779241D01*
X797073Y778941D01*
X796752Y778832D01*
X796420Y778766D01*
X794291Y777884D01*
X794009Y777696D01*
X793706Y777546D01*
X791878Y776143D01*
X791654Y775889D01*
X791400Y775665D01*
X790906Y775022D01*
X789636Y775453D01*
Y848308D01*
X820710Y879381D01*
X822856Y881485D01*
X826007Y884372D01*
X827532Y885610D01*
X828064Y885988D01*
X828438Y886217D01*
X828777Y886377D01*
X828790Y886387D01*
X828806Y886391D01*
X828903Y886465D01*
X829339Y886646D01*
X831175Y888055D01*
X832584Y889891D01*
X838834Y900716D01*
X839720Y902855D01*
X840022Y905149D01*
X839720Y907444D01*
X838834Y909582D01*
X837425Y911418D01*
X835589Y912827D01*
X824764Y919077D01*
X822626Y919963D01*
X820726Y920213D01*
X819929Y921372D01*
X823243Y927113D01*
X824645Y927002D01*
X825812Y925482D01*
X827648Y924073D01*
X838473Y917823D01*
X840612Y916937D01*
X842906Y916635D01*
X845201Y916937D01*
X847339Y917823D01*
X849175Y919232D01*
X850584Y921068D01*
X856834Y931893D01*
X857720Y934031D01*
X858022Y936326D01*
X857720Y938621D01*
X856834Y940759D01*
X855425Y942595D01*
X853589Y944004D01*
X852955Y944370D01*
X852931Y945851D01*
X852964Y945885D01*
X853164Y946086D01*
X853198Y946130D01*
X853198Y946130D01*
X853199Y946131D01*
X854213Y947452D01*
X854872Y949043D01*
X855096Y950750D01*
Y967500D01*
X854872Y969207D01*
X854213Y970798D01*
X853164Y972164D01*
X850600Y974728D01*
X848003Y977507D01*
X847014Y978718D01*
X846239Y979794D01*
X845840Y980456D01*
Y991250D01*
X845643Y992241D01*
X845081Y993081D01*
X844241Y993643D01*
X843250Y993840D01*
X824750D01*
X823759Y993643D01*
X822919Y993081D01*
X822357Y992241D01*
X822160Y991250D01*
Y972750D01*
X822357Y971759D01*
X822919Y970919D01*
X823759Y970357D01*
X824750Y970160D01*
X835544D01*
X836206Y969761D01*
X837256Y969005D01*
X839905Y966729D01*
X841099Y965572D01*
X841904Y964768D01*
Y953607D01*
X840911Y952732D01*
X840156Y952154D01*
X839498Y951711D01*
X838978Y951421D01*
X838861Y951372D01*
X838331Y951442D01*
X838259Y951432D01*
X838113Y951490D01*
X837755Y951769D01*
X837275Y952364D01*
X837213Y952576D01*
X837468Y954510D01*
X837446Y954848D01*
X837468Y955186D01*
X837167Y957470D01*
X837058Y957791D01*
X836992Y958123D01*
X836111Y960252D01*
X835922Y960534D01*
X835773Y960837D01*
X834370Y962665D01*
X834116Y962889D01*
X833892Y963143D01*
X832064Y964546D01*
X831760Y964696D01*
X831479Y964884D01*
X829350Y965766D01*
X829018Y965832D01*
X828697Y965941D01*
X826413Y966241D01*
X826075Y966219D01*
X825737Y966241D01*
X823453Y965941D01*
X823132Y965832D01*
X822800Y965766D01*
X820671Y964884D01*
X820389Y964696D01*
X820086Y964546D01*
X818258Y963143D01*
X818035Y962889D01*
X817780Y962665D01*
X816377Y960837D01*
X816302Y960684D01*
X816189Y960556D01*
X787439Y910759D01*
X787384Y910598D01*
X787289Y910456D01*
X786407Y908327D01*
X786341Y907995D01*
X786233Y907674D01*
X785932Y905390D01*
X785954Y905052D01*
X785932Y904714D01*
X786233Y902430D01*
X786341Y902109D01*
X786407Y901777D01*
X787289Y899648D01*
X787477Y899366D01*
X787627Y899062D01*
X789030Y897235D01*
X789284Y897011D01*
X789508Y896757D01*
X791336Y895354D01*
X791639Y895204D01*
X791921Y895016D01*
X794050Y894134D01*
X794382Y894068D01*
X794703Y893959D01*
X796987Y893659D01*
X797325Y893681D01*
X797663Y893659D01*
X799947Y893959D01*
X800268Y894068D01*
X800600Y894134D01*
X802729Y895016D01*
X803011Y895204D01*
X803314Y895354D01*
X804862Y896542D01*
X805921Y896440D01*
X806252Y896306D01*
X806375Y896208D01*
X806403Y896141D01*
X807812Y894305D01*
X809648Y892896D01*
X812137Y891459D01*
X812289Y889905D01*
X812046Y889568D01*
X811215Y888588D01*
X810326Y887655D01*
X778376Y855704D01*
X777327Y854338D01*
X776949Y853424D01*
X775679Y853677D01*
Y922460D01*
X775288Y924426D01*
X774174Y926094D01*
X762634Y937634D01*
X760966Y938748D01*
X759000Y939139D01*
X718000D01*
X716033Y938748D01*
X714366Y937634D01*
X700316Y923584D01*
X699202Y921917D01*
X698811Y919950D01*
Y917281D01*
X698731Y917162D01*
X698301Y915000D01*
Y904000D01*
X698731Y901838D01*
X699956Y900006D01*
X700793Y899446D01*
Y897919D01*
X700366Y897634D01*
X695919Y893186D01*
X694996Y892327D01*
X694237Y891717D01*
X693700Y891340D01*
X679750D01*
X678759Y891143D01*
X677919Y890581D01*
X677357Y889741D01*
X677160Y888750D01*
X675929Y888604D01*
X675656Y889813D01*
X675596Y890942D01*
Y1048612D01*
X676866Y1048997D01*
X676919Y1048919D01*
X677759Y1048357D01*
X678750Y1048160D01*
X683080D01*
X683095Y1048124D01*
X683198Y1047743D01*
X683288Y1047204D01*
X683320Y1046830D01*
Y953500D01*
X683715Y951518D01*
X684837Y949837D01*
X690338Y944337D01*
X692018Y943215D01*
X694000Y942821D01*
X733000D01*
X734982Y943215D01*
X736663Y944337D01*
X745713Y953388D01*
X746835Y955068D01*
X747230Y957050D01*
Y958780D01*
X747269Y958838D01*
X747699Y961000D01*
Y972000D01*
X747269Y974162D01*
X746044Y975994D01*
X744212Y977218D01*
X742050Y977648D01*
X740342Y977309D01*
X739716Y978479D01*
X755634Y994396D01*
X756748Y996064D01*
X757139Y998030D01*
Y1004300D01*
X758409Y1004618D01*
X759130Y1003268D01*
X759292Y1003071D01*
X759413Y1002846D01*
X761474Y1000333D01*
X761672Y1000172D01*
X761833Y999974D01*
X764346Y997913D01*
X764571Y997792D01*
X764768Y997630D01*
X767634Y996098D01*
X767878Y996024D01*
X768103Y995904D01*
X771214Y994960D01*
X771468Y994936D01*
X771712Y994862D01*
X774946Y994543D01*
X775074Y994556D01*
X775200Y994530D01*
X775326Y994556D01*
X775454Y994543D01*
X778688Y994862D01*
X778932Y994936D01*
X779186Y994960D01*
X782297Y995904D01*
X782522Y996024D01*
X782766Y996098D01*
X785632Y997630D01*
X785829Y997792D01*
X786054Y997913D01*
X788567Y999974D01*
X788728Y1000172D01*
X788926Y1000333D01*
X790987Y1002846D01*
X791108Y1003071D01*
X791270Y1003268D01*
X792802Y1006134D01*
X792876Y1006378D01*
X792996Y1006603D01*
X793940Y1009714D01*
X793964Y1009967D01*
X794038Y1010212D01*
X794357Y1013446D01*
X794332Y1013700D01*
X794357Y1013954D01*
X794038Y1017188D01*
X793964Y1017432D01*
X793940Y1017686D01*
X792996Y1020797D01*
X792876Y1021022D01*
X792802Y1021266D01*
X791270Y1024132D01*
X791108Y1024329D01*
X790987Y1024554D01*
X788926Y1027067D01*
X788728Y1027228D01*
X788567Y1027426D01*
X786054Y1029488D01*
X785829Y1029608D01*
X785632Y1029770D01*
X782766Y1031302D01*
X782522Y1031376D01*
X782297Y1031496D01*
X779186Y1032439D01*
X778932Y1032465D01*
X778688Y1032539D01*
X775454Y1032857D01*
X775326Y1032844D01*
X775200Y1032870D01*
X775074Y1032844D01*
X774946Y1032857D01*
X771712Y1032539D01*
X771468Y1032465D01*
X771214Y1032439D01*
X768103Y1031496D01*
X767878Y1031376D01*
X767634Y1031302D01*
X764768Y1029770D01*
X764571Y1029608D01*
X764346Y1029488D01*
X761833Y1027426D01*
X761672Y1027228D01*
X761474Y1027067D01*
X759413Y1024554D01*
X759292Y1024329D01*
X759130Y1024132D01*
X758409Y1022782D01*
X757139Y1023100D01*
Y1040872D01*
X805169Y1088901D01*
X827516D01*
X827543Y1088860D01*
D02*
G37*
G36*
X842872Y1017343D02*
X842753Y1016505D01*
X842831Y1015583D01*
X843105Y1014577D01*
X843576Y1013488D01*
X844243Y1012314D01*
X845106Y1011057D01*
X846166Y1009716D01*
X847421Y1008292D01*
X848874Y1006783D01*
X846217Y998126D01*
X844439Y999848D01*
X841314Y1002522D01*
X839967Y1003475D01*
X838764Y1004172D01*
X837705Y1004613D01*
X836789Y1004797D01*
X836017Y1004725D01*
X835388Y1004398D01*
X834903Y1003813D01*
X843186Y1018097D01*
X842872Y1017343D01*
D02*
G37*
G36*
X995004Y1002728D02*
X995294Y1002051D01*
X995753Y1001453D01*
X996381Y1000935D01*
X997178Y1000496D01*
X998145Y1000138D01*
X999280Y999859D01*
X1000584Y999659D01*
X1002057Y999540D01*
X1003700Y999500D01*
Y991500D01*
X1002131Y991460D01*
X1000731Y991340D01*
X999501Y991140D01*
X998439Y990861D01*
X997546Y990501D01*
X996823Y990061D01*
X996268Y989541D01*
X995882Y988942D01*
X995666Y988262D01*
X995618Y987503D01*
X994883Y1003486D01*
X995004Y1002728D01*
D02*
G37*
G36*
X1207525Y998261D02*
X1207600Y997406D01*
X1207725Y996651D01*
X1207900Y995997D01*
X1208125Y995444D01*
X1208400Y994991D01*
X1208725Y994639D01*
X1209100Y994388D01*
X1209525Y994237D01*
X1210000Y994186D01*
X1200000D01*
X1200475Y994237D01*
X1200900Y994388D01*
X1201275Y994639D01*
X1201600Y994991D01*
X1201875Y995444D01*
X1202100Y995997D01*
X1202275Y996651D01*
X1202400Y997406D01*
X1202475Y998261D01*
X1202500Y999217D01*
X1207500D01*
X1207525Y998261D01*
D02*
G37*
G36*
X824361Y1026334D02*
X828186Y1023092D01*
X829203Y1022424D01*
X830090Y1021963D01*
X830848Y1021709D01*
X831478Y1021661D01*
X831978Y1021821D01*
X832349Y1022187D01*
X824814Y1010651D01*
X825033Y1011169D01*
X825076Y1011784D01*
X824945Y1012497D01*
X824639Y1013308D01*
X824158Y1014215D01*
X823502Y1015221D01*
X822670Y1016324D01*
X820483Y1018822D01*
X819126Y1020217D01*
X822829Y1027828D01*
X824361Y1026334D01*
D02*
G37*
G36*
X1075814Y1036217D02*
X1075775Y1036453D01*
X1075661Y1036665D01*
X1075470Y1036851D01*
X1075203Y1037012D01*
X1074860Y1037149D01*
X1074441Y1037261D01*
X1073945Y1037348D01*
X1073373Y1037410D01*
X1072000Y1037460D01*
Y1042540D01*
X1072725Y1042552D01*
X1073945Y1042652D01*
X1074441Y1042739D01*
X1074860Y1042851D01*
X1075203Y1042988D01*
X1075470Y1043149D01*
X1075661Y1043335D01*
X1075775Y1043547D01*
X1075814Y1043783D01*
Y1036217D01*
D02*
G37*
G36*
X1028694Y1042475D02*
X1028391Y1042302D01*
X1028124Y1042012D01*
X1027892Y1041608D01*
X1027696Y1041087D01*
X1027535Y1040451D01*
X1027411Y1039699D01*
X1027321Y1038832D01*
X1027250Y1036750D01*
X1019250D01*
X1019232Y1037849D01*
X1019090Y1039699D01*
X1018965Y1040451D01*
X1018804Y1041087D01*
X1018608Y1041608D01*
X1018376Y1042012D01*
X1018109Y1042302D01*
X1017806Y1042475D01*
X1017467Y1042533D01*
X1029033D01*
X1028694Y1042475D01*
D02*
G37*
G36*
X732018Y1022296D02*
X732401Y1021871D01*
X732846Y1021496D01*
X733355Y1021171D01*
X733925Y1020896D01*
X734559Y1020671D01*
X735255Y1020496D01*
X736014Y1020371D01*
X736836Y1020296D01*
X737720Y1020271D01*
Y1015271D01*
X736836Y1015246D01*
X736014Y1015171D01*
X735255Y1015046D01*
X734559Y1014871D01*
X733925Y1014646D01*
X733355Y1014371D01*
X732846Y1014046D01*
X732401Y1013671D01*
X732018Y1013246D01*
X731698Y1012771D01*
Y1022771D01*
X732018Y1022296D01*
D02*
G37*
G36*
X833861Y1082499D02*
Y1034000D01*
X834252Y1032033D01*
X835366Y1030366D01*
X839720Y1026013D01*
X839234Y1024840D01*
X830242D01*
X829740Y1025169D01*
X826596Y1027834D01*
Y1042410D01*
X830000D01*
X830991Y1042607D01*
X831831Y1043169D01*
X832393Y1044009D01*
X832590Y1045000D01*
Y1081821D01*
X833860Y1082500D01*
X833861Y1082499D01*
D02*
G37*
G36*
X1014314Y987500D02*
X1014233Y988260D01*
X1013992Y988940D01*
X1013591Y989540D01*
X1013029Y990060D01*
X1012306Y990500D01*
X1011423Y990860D01*
X1010378Y991140D01*
X1009174Y991340D01*
X1007809Y991460D01*
X1006283Y991500D01*
Y999500D01*
X1007809Y999540D01*
X1009174Y999660D01*
X1010378Y999860D01*
X1011423Y1000140D01*
X1012306Y1000500D01*
X1013029Y1000940D01*
X1013591Y1001460D01*
X1013992Y1002060D01*
X1014233Y1002740D01*
X1014314Y1003500D01*
Y987500D01*
D02*
G37*
G36*
X1179896Y961325D02*
X1179397Y960719D01*
X1179040Y960184D01*
X1178826Y959720D01*
X1178755Y959328D01*
X1178826Y959007D01*
X1179040Y958757D01*
X1179397Y958579D01*
X1179896Y958472D01*
X1180538Y958437D01*
X1166396D01*
X1167098Y958472D01*
X1167801Y958579D01*
X1168504Y958757D01*
X1169210Y959007D01*
X1169916Y959328D01*
X1170624Y959720D01*
X1171333Y960184D01*
X1172043Y960719D01*
X1172754Y961325D01*
X1173467Y962002D01*
X1180538D01*
X1179896Y961325D01*
D02*
G37*
G36*
X842832Y982802D02*
X842658Y982141D01*
X842695Y981367D01*
X842944Y980480D01*
X843404Y979480D01*
X844075Y978367D01*
X844958Y977141D01*
X846052Y975801D01*
X848874Y972783D01*
X843217Y967126D01*
X841651Y968643D01*
X838859Y971042D01*
X837633Y971925D01*
X836520Y972596D01*
X835520Y973056D01*
X834633Y973305D01*
X833859Y973342D01*
X833198Y973168D01*
X832651Y972783D01*
X843217Y983349D01*
X842832Y982802D01*
D02*
G37*
G36*
X1078990Y958453D02*
X1078310Y958213D01*
X1077710Y957813D01*
X1077190Y957253D01*
X1076750Y956533D01*
X1076390Y955653D01*
X1076110Y954613D01*
X1075910Y953413D01*
X1075790Y952053D01*
X1075750Y950533D01*
X1067750D01*
X1067710Y952053D01*
X1067590Y953413D01*
X1067390Y954613D01*
X1067110Y955653D01*
X1066750Y956533D01*
X1066310Y957253D01*
X1065790Y957813D01*
X1065190Y958213D01*
X1064510Y958453D01*
X1063750Y958533D01*
X1079750D01*
X1078990Y958453D01*
D02*
G37*
G36*
X747717Y1056647D02*
X740826Y1049757D01*
X739712Y1048090D01*
X739321Y1046123D01*
Y1022909D01*
X736691D01*
X736343Y1022941D01*
X735782Y1023034D01*
X735310Y1023152D01*
X734924Y1023289D01*
X734619Y1023436D01*
X734385Y1023586D01*
X734206Y1023737D01*
X734084Y1023872D01*
X733992Y1024095D01*
X731982Y1026714D01*
X729362Y1028724D01*
X726312Y1029988D01*
X723038Y1030419D01*
X719764Y1029988D01*
X716714Y1028724D01*
X714094Y1026714D01*
X712084Y1024095D01*
X710821Y1021044D01*
X710390Y1017771D01*
X710821Y1014497D01*
X712084Y1011447D01*
X714094Y1008827D01*
X716714Y1006817D01*
X719764Y1005554D01*
X723038Y1005123D01*
X726312Y1005554D01*
X729362Y1006817D01*
X731982Y1008827D01*
X733992Y1011447D01*
X734084Y1011670D01*
X734206Y1011805D01*
X734385Y1011955D01*
X734619Y1012105D01*
X734924Y1012252D01*
X735310Y1012389D01*
X735782Y1012508D01*
X736343Y1012600D01*
X736691Y1012632D01*
X739321D01*
Y1005589D01*
X713016Y979284D01*
X711902Y977617D01*
X711511Y975650D01*
Y974281D01*
X711431Y974162D01*
X711002Y972000D01*
Y961000D01*
X711431Y958838D01*
X712656Y957006D01*
X714488Y955781D01*
X716650Y955351D01*
X718812Y955781D01*
X720644Y957006D01*
X721869Y958838D01*
X722299Y961000D01*
Y972000D01*
X722019Y973405D01*
X722919Y974326D01*
X723888Y972940D01*
X723701Y972000D01*
Y961000D01*
X724131Y958838D01*
X725356Y957006D01*
X727188Y955781D01*
X729350Y955351D01*
X731512Y955781D01*
X731960Y956081D01*
X732770Y955095D01*
X730855Y953179D01*
X696145D01*
X693680Y955645D01*
Y1046830D01*
X693712Y1047204D01*
X693802Y1047743D01*
X693905Y1048124D01*
X693920Y1048160D01*
X697250D01*
X697541Y1048218D01*
X698811Y1047327D01*
Y976021D01*
X698767Y974882D01*
X698686Y974015D01*
X698650Y973783D01*
X698628Y973682D01*
X698595Y973577D01*
X698564Y973317D01*
X698301Y972000D01*
Y961000D01*
X698731Y958838D01*
X699956Y957006D01*
X701788Y955781D01*
X703950Y955351D01*
X706112Y955781D01*
X707944Y957006D01*
X709169Y958838D01*
X709598Y961000D01*
Y972000D01*
X709336Y973318D01*
X709305Y973577D01*
X709275Y973670D01*
X709089Y976959D01*
Y1047617D01*
X709750Y1048160D01*
X728250D01*
X729241Y1048357D01*
X730081Y1048919D01*
X730643Y1049759D01*
X730840Y1050750D01*
Y1057589D01*
X730852Y1057594D01*
X731238Y1057697D01*
X731783Y1057787D01*
X732162Y1057821D01*
X747231D01*
X747717Y1056647D01*
D02*
G37*
G36*
X1086624Y976967D02*
X1080937Y970901D01*
X1074901Y976936D01*
X1074996Y976959D01*
X1075204Y977103D01*
X1075526Y977369D01*
X1077176Y978893D01*
X1080967Y982624D01*
X1086624Y976967D01*
D02*
G37*
G36*
X954433Y981998D02*
X953754Y981748D01*
X953156Y981333D01*
X952637Y980751D01*
X952198Y980003D01*
X951839Y979089D01*
X951559Y978009D01*
X951360Y976762D01*
X951240Y975349D01*
X951200Y973770D01*
X943200D01*
X943160Y975349D01*
X943040Y976762D01*
X942841Y978009D01*
X942561Y979089D01*
X942202Y980003D01*
X941763Y980751D01*
X941244Y981333D01*
X940646Y981748D01*
X939967Y981998D01*
X939209Y982081D01*
X955191D01*
X954433Y981998D01*
D02*
G37*
G36*
X1062580Y986213D02*
X1061985Y986003D01*
X1061460Y985653D01*
X1061005Y985163D01*
X1060620Y984533D01*
X1060305Y983763D01*
X1060060Y982853D01*
X1059885Y981803D01*
X1059780Y980613D01*
X1059745Y979283D01*
X1052745D01*
X1052710Y980613D01*
X1052605Y981803D01*
X1052430Y982853D01*
X1052185Y983763D01*
X1051870Y984533D01*
X1051485Y985163D01*
X1051030Y985653D01*
X1050505Y986003D01*
X1049910Y986213D01*
X1049245Y986283D01*
X1063245D01*
X1062580Y986213D01*
D02*
G37*
G36*
X706454Y977680D02*
X706702Y973313D01*
X706768Y973005D01*
X706843Y972775D01*
X701057D01*
X701132Y973005D01*
X701198Y973313D01*
X701257Y973700D01*
X701352Y974711D01*
X701434Y976820D01*
X701450Y978620D01*
X706450D01*
X706454Y977680D01*
D02*
G37*
G36*
X1195283Y975783D02*
X1195074Y975757D01*
X1194833Y975680D01*
X1194560Y975552D01*
X1194254Y975372D01*
X1193917Y975140D01*
X1193146Y974523D01*
X1192246Y973700D01*
X1191748Y973212D01*
Y980283D01*
X1192423Y980994D01*
X1193028Y981704D01*
X1193562Y982413D01*
X1194025Y983122D01*
X1194417Y983829D01*
X1194738Y984536D01*
X1194989Y985242D01*
X1195168Y985947D01*
X1195276Y986651D01*
X1195313Y987354D01*
X1195283Y975783D01*
D02*
G37*
G36*
X1095717Y1042939D02*
X1095809Y1042856D01*
X1095962Y1042782D01*
X1096177Y1042718D01*
X1096452Y1042663D01*
X1096789Y1042619D01*
X1097647Y1042560D01*
X1098750Y1042540D01*
Y1037460D01*
X1098168Y1037455D01*
X1096452Y1037337D01*
X1096177Y1037282D01*
X1095962Y1037218D01*
X1095809Y1037144D01*
X1095717Y1037061D01*
X1095686Y1036967D01*
Y1043033D01*
X1095717Y1042939D01*
D02*
G37*
G36*
X898124Y1097217D02*
X896369Y1095406D01*
X893649Y1092236D01*
X892685Y1090878D01*
X891984Y1089671D01*
X891547Y1088615D01*
X891374Y1087710D01*
X891465Y1086957D01*
X891819Y1086355D01*
X892437Y1085903D01*
X877403Y1093437D01*
X878219Y1093184D01*
X879168Y1093176D01*
X880250Y1093414D01*
X881465Y1093897D01*
X882813Y1094626D01*
X884294Y1095601D01*
X885907Y1096820D01*
X889533Y1099996D01*
X891545Y1101952D01*
X898124Y1097217D01*
D02*
G37*
G36*
X908783Y1094283D02*
X908703Y1094799D01*
X908463Y1095261D01*
X908063Y1095669D01*
X907503Y1096022D01*
X906783Y1096321D01*
X905903Y1096565D01*
X904863Y1096756D01*
X903663Y1096891D01*
X902303Y1096973D01*
X900783Y1097000D01*
Y1105000D01*
X902307Y1105040D01*
X903671Y1105160D01*
X904875Y1105360D01*
X905919Y1105640D01*
X906802Y1106000D01*
X907525Y1106440D01*
X908087Y1106960D01*
X908490Y1107560D01*
X908732Y1108240D01*
X908813Y1109000D01*
X908783Y1094283D01*
D02*
G37*
G36*
X727810Y1100763D02*
X728437Y1100250D01*
X729045Y1099831D01*
X729635Y1099506D01*
X730206Y1099275D01*
X730759Y1099138D01*
X731293Y1099096D01*
X731809Y1099147D01*
X732307Y1099293D01*
X732785Y1099533D01*
X728003Y1090750D01*
X727958Y1091311D01*
X727849Y1091880D01*
X727678Y1092458D01*
X727443Y1093045D01*
X727146Y1093641D01*
X726785Y1094245D01*
X726362Y1094859D01*
X725875Y1095481D01*
X725326Y1096112D01*
X724713Y1096751D01*
X727165Y1101370D01*
X727810Y1100763D01*
D02*
G37*
G36*
X954043Y1118134D02*
X953337Y1117663D01*
X943337Y1107663D01*
X942215Y1105982D01*
X941821Y1104000D01*
Y1062145D01*
X939855Y1060180D01*
X929512D01*
X929138Y1061256D01*
X929102Y1061450D01*
X929643Y1062259D01*
X929840Y1063250D01*
Y1081750D01*
X929643Y1082741D01*
X929081Y1083581D01*
X928241Y1084143D01*
X927250Y1084340D01*
X908750D01*
X907759Y1084143D01*
X906919Y1083581D01*
X906357Y1082741D01*
X906160Y1081750D01*
Y1064669D01*
X906122Y1064616D01*
X904707Y1062975D01*
X892769Y1051036D01*
X892500Y1051090D01*
X875437D01*
X875172Y1051278D01*
X873613Y1052614D01*
X870935Y1055292D01*
X871005Y1055511D01*
X871509Y1056607D01*
X872500Y1056410D01*
X892500D01*
X893491Y1056607D01*
X894331Y1057169D01*
X894893Y1058009D01*
X895090Y1059000D01*
Y1071000D01*
X894893Y1071991D01*
X894331Y1072831D01*
X893491Y1073393D01*
X892500Y1073590D01*
X872500D01*
X871509Y1073393D01*
X871409Y1073326D01*
X870139Y1074005D01*
Y1078495D01*
X871409Y1079174D01*
X871509Y1079107D01*
X872500Y1078910D01*
X892500D01*
X893491Y1079107D01*
X894331Y1079669D01*
X894893Y1080509D01*
X895090Y1081500D01*
Y1089791D01*
X895692Y1090640D01*
X898283Y1093660D01*
X899004Y1094404D01*
X901132D01*
X902203Y1094385D01*
X903439Y1094310D01*
X904484Y1094192D01*
X905322Y1094039D01*
X905937Y1093868D01*
X906263Y1093733D01*
X906357Y1093259D01*
X906568Y1092944D01*
X906570Y1092937D01*
X906578Y1092929D01*
X906919Y1092419D01*
X907249Y1092198D01*
X907254Y1092193D01*
X907264Y1092188D01*
X907759Y1091857D01*
X908137Y1091782D01*
X908170Y1091767D01*
X908226Y1091764D01*
X908750Y1091660D01*
X927250D01*
X928241Y1091857D01*
X929081Y1092419D01*
X929643Y1093259D01*
X929840Y1094250D01*
Y1112750D01*
X929643Y1113741D01*
X929081Y1114581D01*
X928241Y1115143D01*
X927250Y1115340D01*
X925733D01*
X925731Y1115340D01*
X925654Y1115392D01*
X925517Y1115540D01*
X925320Y1115864D01*
X925099Y1116405D01*
X925007Y1116750D01*
X925106Y1117049D01*
X925442Y1117673D01*
X925840Y1118160D01*
X926327Y1118558D01*
X926951Y1118894D01*
X927758Y1119163D01*
X928774Y1119342D01*
X929942Y1119404D01*
X953657D01*
X954043Y1118134D01*
D02*
G37*
G36*
X907226Y1119342D02*
X908242Y1119163D01*
X909049Y1118894D01*
X909673Y1118558D01*
X910160Y1118160D01*
X910558Y1117673D01*
X910894Y1117049D01*
X910993Y1116750D01*
X910901Y1116405D01*
X910680Y1115863D01*
X910483Y1115540D01*
X910346Y1115392D01*
X910269Y1115340D01*
X910267Y1115340D01*
X908750D01*
X907759Y1115143D01*
X906919Y1114581D01*
X906357Y1113741D01*
X906160Y1112750D01*
Y1108739D01*
X906158Y1108734D01*
X906106Y1108655D01*
X905957Y1108518D01*
X905632Y1108320D01*
X905091Y1108099D01*
X904326Y1107894D01*
X903345Y1107731D01*
X902160Y1107627D01*
X901003Y1107596D01*
X896250D01*
X894543Y1107372D01*
X892952Y1106713D01*
X891586Y1105664D01*
X889390Y1103469D01*
X887776Y1101900D01*
X884271Y1098830D01*
X882799Y1097718D01*
X881483Y1096851D01*
X880367Y1096248D01*
X879970Y1096090D01*
X872500D01*
X871509Y1095893D01*
X871409Y1095826D01*
X870139Y1096505D01*
Y1098000D01*
X869748Y1099967D01*
X868634Y1101634D01*
X852037Y1118230D01*
X852523Y1119404D01*
X906058D01*
X907226Y1119342D01*
D02*
G37*
G36*
X930000Y1122000D02*
X928480Y1121920D01*
X927120Y1121680D01*
X925920Y1121280D01*
X924880Y1120720D01*
X924000Y1120000D01*
X923411Y1119280D01*
X923280Y1119120D01*
X922720Y1118080D01*
X922453Y1117280D01*
X922320Y1116880D01*
X922318Y1116871D01*
X922360Y1116621D01*
X922640Y1115577D01*
X923000Y1114694D01*
X923440Y1113971D01*
X923960Y1113409D01*
X924560Y1113008D01*
X925240Y1112767D01*
X926000Y1112686D01*
X910000D01*
X910760Y1112767D01*
X911440Y1113008D01*
X912040Y1113409D01*
X912560Y1113971D01*
X913000Y1114694D01*
X913360Y1115577D01*
X913640Y1116621D01*
X913681Y1116871D01*
X913680Y1116880D01*
X913280Y1118080D01*
X912720Y1119120D01*
X912000Y1120000D01*
X911120Y1120720D01*
X910080Y1121280D01*
X908880Y1121680D01*
X907520Y1121920D01*
X906000Y1122000D01*
X906000Y1122000D01*
X918000Y1130000D01*
X930000Y1122000D01*
D02*
G37*
G36*
X1112014Y1127714D02*
X1113082Y1126858D01*
X1114107Y1126186D01*
X1115090Y1125698D01*
X1116030Y1125394D01*
X1116928Y1125274D01*
X1117784Y1125338D01*
X1118597Y1125585D01*
X1119368Y1126016D01*
X1119903Y1126469D01*
X1121232Y1127768D01*
X1124768Y1124232D01*
X1123773Y1123231D01*
X1119554Y1118463D01*
X1119494Y1118273D01*
X1116860Y1120906D01*
X1115500Y1118500D01*
X1111500Y1108843D01*
X1111443Y1110420D01*
X1111274Y1111949D01*
X1110991Y1113432D01*
X1110595Y1114868D01*
X1110086Y1116257D01*
X1109464Y1117600D01*
X1108728Y1118895D01*
X1107880Y1120144D01*
X1106918Y1121345D01*
X1105843Y1122500D01*
X1110904Y1128753D01*
X1112014Y1127714D01*
D02*
G37*
G36*
X1119540Y1103441D02*
X1119660Y1102076D01*
X1119860Y1100872D01*
X1120140Y1099827D01*
X1120500Y1098944D01*
X1120940Y1098221D01*
X1121460Y1097659D01*
X1122060Y1097258D01*
X1122740Y1097017D01*
X1123500Y1096936D01*
X1107500D01*
X1108260Y1097017D01*
X1108940Y1097258D01*
X1109540Y1097659D01*
X1110060Y1098221D01*
X1110500Y1098944D01*
X1110860Y1099827D01*
X1111140Y1100872D01*
X1111340Y1102076D01*
X1111460Y1103441D01*
X1111500Y1104967D01*
X1119500D01*
X1119540Y1103441D01*
D02*
G37*
G36*
X722571Y1113036D02*
X721935Y1112328D01*
X721440Y1111621D01*
X721086Y1110914D01*
X720874Y1110207D01*
X720803Y1109500D01*
X720874Y1108793D01*
X721086Y1108086D01*
X721440Y1107379D01*
X721935Y1106672D01*
X722571Y1105965D01*
X719035Y1102429D01*
X718328Y1103065D01*
X717621Y1103560D01*
X716914Y1103914D01*
X716207Y1104126D01*
X715500Y1104197D01*
X714793Y1104126D01*
X714086Y1103914D01*
X713379Y1103560D01*
X712672Y1103065D01*
X711964Y1102429D01*
X713732Y1111268D01*
X717268Y1114803D01*
X722571Y1113036D01*
D02*
G37*
G36*
X1106283Y1078533D02*
X1106203Y1079002D01*
X1105963Y1079421D01*
X1105563Y1079791D01*
X1105003Y1080112D01*
X1104283Y1080383D01*
X1103403Y1080605D01*
X1102363Y1080778D01*
X1101194Y1080898D01*
X1098597Y1080685D01*
X1097717Y1080508D01*
X1096997Y1080292D01*
X1096437Y1080036D01*
X1096037Y1079741D01*
X1095797Y1079407D01*
X1095717Y1079033D01*
Y1090967D01*
X1095797Y1090593D01*
X1096037Y1090259D01*
X1096437Y1089964D01*
X1096997Y1089708D01*
X1097717Y1089492D01*
X1098597Y1089315D01*
X1099637Y1089177D01*
X1100654Y1089115D01*
X1101171Y1089160D01*
X1102375Y1089360D01*
X1103419Y1089640D01*
X1104302Y1090000D01*
X1105025Y1090440D01*
X1105587Y1090960D01*
X1105990Y1091560D01*
X1106232Y1092240D01*
X1106313Y1093000D01*
X1106283Y1078533D01*
D02*
G37*
G36*
X693097Y1050732D02*
X692666Y1050580D01*
X692285Y1050326D01*
X691954Y1049970D01*
X691675Y1049513D01*
X691446Y1048954D01*
X691269Y1048294D01*
X691142Y1047532D01*
X691065Y1046668D01*
X691040Y1045703D01*
X685960D01*
X685935Y1046668D01*
X685858Y1047532D01*
X685731Y1048294D01*
X685554Y1048954D01*
X685325Y1049513D01*
X685046Y1049970D01*
X684715Y1050326D01*
X684334Y1050580D01*
X683903Y1050732D01*
X683420Y1050783D01*
X693580D01*
X693097Y1050732D01*
D02*
G37*
G36*
X1113467Y1047533D02*
X1113072Y1047820D01*
X1112605Y1047964D01*
X1112066D01*
X1111456Y1047820D01*
X1110773Y1047533D01*
X1110019Y1047102D01*
X1109193Y1046527D01*
X1108295Y1045809D01*
X1106283Y1043941D01*
X1102691Y1047533D01*
X1103697Y1048575D01*
X1105277Y1050443D01*
X1105852Y1051269D01*
X1106283Y1052023D01*
X1106570Y1052706D01*
X1106714Y1053316D01*
Y1053855D01*
X1106570Y1054322D01*
X1106283Y1054717D01*
X1113467Y1047533D01*
D02*
G37*
G36*
X871612Y1050918D02*
X873577Y1049234D01*
X874421Y1048635D01*
X875174Y1048198D01*
X875835Y1047922D01*
X876405Y1047808D01*
X876883Y1047856D01*
X877269Y1048065D01*
X877564Y1048437D01*
X872563Y1039356D01*
X872752Y1039834D01*
X872819Y1040362D01*
X872765Y1040942D01*
X872590Y1041572D01*
X872294Y1042254D01*
X871877Y1042987D01*
X871339Y1043770D01*
X870680Y1044605D01*
X869899Y1045490D01*
X868997Y1046427D01*
X870493Y1052002D01*
X871612Y1050918D01*
D02*
G37*
G36*
X1254412Y1041341D02*
X1253850Y1041450D01*
X1253279Y1041480D01*
X1252698Y1041430D01*
X1252109Y1041301D01*
X1251511Y1041092D01*
X1250904Y1040803D01*
X1250288Y1040434D01*
X1249663Y1039986D01*
X1249029Y1039458D01*
X1248386Y1038850D01*
X1244850Y1042386D01*
X1245458Y1043029D01*
X1245986Y1043663D01*
X1246434Y1044288D01*
X1246803Y1044904D01*
X1247092Y1045511D01*
X1247301Y1046109D01*
X1247430Y1046698D01*
X1247480Y1047279D01*
X1247450Y1047850D01*
X1247341Y1048412D01*
X1254412Y1041341D01*
D02*
G37*
G36*
X728238Y1067597D02*
X728391Y1067166D01*
X728646Y1066785D01*
X729004Y1066454D01*
X729464Y1066175D01*
X730026Y1065946D01*
X730691Y1065769D01*
X731457Y1065642D01*
X732326Y1065565D01*
X733297Y1065540D01*
Y1060460D01*
X732326Y1060435D01*
X731457Y1060358D01*
X730691Y1060231D01*
X730026Y1060054D01*
X729464Y1059825D01*
X729004Y1059546D01*
X728646Y1059215D01*
X728391Y1058834D01*
X728238Y1058403D01*
X728186Y1057920D01*
Y1068080D01*
X728238Y1067597D01*
D02*
G37*
G36*
X716963Y1118230D02*
X711866Y1113134D01*
X700316Y1101584D01*
X699202Y1099917D01*
X698811Y1097950D01*
Y1072673D01*
X697541Y1071782D01*
X697250Y1071840D01*
X696155Y1072304D01*
X696045Y1072659D01*
X695973Y1073024D01*
X695896Y1073138D01*
X695856Y1073269D01*
X695618Y1073555D01*
X695411Y1073864D01*
X695297Y1073940D01*
X695210Y1074046D01*
X694880Y1074219D01*
X694571Y1074426D01*
X694436Y1074452D01*
X694315Y1074516D01*
X693945Y1074550D01*
X693580Y1074623D01*
X683420D01*
X683055Y1074550D01*
X682685Y1074516D01*
X682563Y1074452D01*
X682429Y1074426D01*
X682120Y1074219D01*
X681790Y1074046D01*
X681703Y1073940D01*
X681589Y1073864D01*
X681382Y1073555D01*
X681144Y1073269D01*
X681104Y1073138D01*
X681027Y1073024D01*
X680955Y1072659D01*
X680844Y1072304D01*
X679704Y1071840D01*
X678750D01*
X677759Y1071643D01*
X676919Y1071081D01*
X676866Y1071003D01*
X675596Y1071388D01*
Y1095268D01*
X699732Y1119404D01*
X716477D01*
X716963Y1118230D01*
D02*
G37*
G36*
X790603Y1110648D02*
X748135Y1068179D01*
X732162D01*
X731783Y1068213D01*
X731238Y1068303D01*
X730852Y1068406D01*
X730840Y1068411D01*
Y1069250D01*
X730643Y1070241D01*
X730081Y1071081D01*
X729241Y1071643D01*
X728250Y1071840D01*
X709750D01*
X709089Y1072383D01*
Y1095822D01*
X714338Y1101070D01*
X714707Y1101329D01*
X715044Y1101497D01*
X715298Y1101574D01*
X715500Y1101594D01*
X715702Y1101574D01*
X715956Y1101497D01*
X716293Y1101329D01*
X716662Y1101070D01*
X723716Y1094016D01*
X723878Y1093831D01*
X724275Y1093324D01*
X724605Y1092845D01*
X724872Y1092398D01*
X725078Y1091984D01*
X725229Y1091608D01*
X725330Y1091268D01*
X725364Y1091089D01*
X725352Y1091000D01*
X725783Y1087726D01*
X727046Y1084676D01*
X729056Y1082056D01*
X731676Y1080046D01*
X734726Y1078783D01*
X738000Y1078352D01*
X741274Y1078783D01*
X744324Y1080046D01*
X746944Y1082056D01*
X748954Y1084676D01*
X750217Y1087726D01*
X750648Y1091000D01*
X750217Y1094274D01*
X748954Y1097324D01*
X746944Y1099944D01*
X744324Y1101954D01*
X741274Y1103217D01*
X738000Y1103648D01*
X734726Y1103217D01*
X731676Y1101954D01*
X731375Y1101723D01*
X731355Y1101713D01*
X731312Y1101700D01*
X731267Y1101696D01*
X731176Y1101703D01*
X731006Y1101745D01*
X730749Y1101849D01*
X730408Y1102036D01*
X729995Y1102321D01*
X729724Y1102543D01*
X723930Y1108338D01*
X723671Y1108708D01*
X723502Y1109044D01*
X723426Y1109298D01*
X723406Y1109500D01*
X723426Y1109702D01*
X723502Y1109956D01*
X723671Y1110293D01*
X723930Y1110662D01*
X725089Y1111821D01*
X790117D01*
X790603Y1110648D01*
D02*
G37*
G36*
X919354Y1063283D02*
X918808Y1063408D01*
X918225Y1063427D01*
X917608Y1063340D01*
X916954Y1063146D01*
X916265Y1062846D01*
X915540Y1062439D01*
X914779Y1061926D01*
X913983Y1061306D01*
X913151Y1060580D01*
X912283Y1059747D01*
X905247Y1059783D01*
X906395Y1060966D01*
X908160Y1063014D01*
X908779Y1063880D01*
X909221Y1064640D01*
X909486Y1065294D01*
X909575Y1065843D01*
X909487Y1066285D01*
X909223Y1066623D01*
X908783Y1066854D01*
X919354Y1063283D01*
D02*
G37*
G36*
X693097Y1071982D02*
X692666Y1071830D01*
X692285Y1071576D01*
X691954Y1071220D01*
X691675Y1070763D01*
X691446Y1070204D01*
X691269Y1069544D01*
X691142Y1068782D01*
X691065Y1067918D01*
X691040Y1066953D01*
X685960D01*
X685935Y1067918D01*
X685858Y1068782D01*
X685731Y1069544D01*
X685554Y1070204D01*
X685325Y1070763D01*
X685046Y1071220D01*
X684715Y1071576D01*
X684334Y1071830D01*
X683903Y1071982D01*
X683420Y1072033D01*
X693580D01*
X693097Y1071982D01*
D02*
G37*
G36*
X1047990Y958453D02*
X1047310Y958213D01*
X1046710Y957813D01*
X1046190Y957253D01*
X1045750Y956533D01*
X1045390Y955653D01*
X1045110Y954613D01*
X1044910Y953413D01*
X1044790Y952053D01*
X1044750Y950533D01*
X1036750D01*
X1036710Y952053D01*
X1036590Y953413D01*
X1036390Y954613D01*
X1036110Y955653D01*
X1035750Y956533D01*
X1035310Y957253D01*
X1034790Y957813D01*
X1034190Y958213D01*
X1033510Y958453D01*
X1032750Y958533D01*
X1048750D01*
X1047990Y958453D01*
D02*
G37*
G36*
X1278224Y749651D02*
X1278332Y748947D01*
X1278511Y748242D01*
X1278761Y747537D01*
X1279082Y746830D01*
X1279474Y746122D01*
X1279937Y745414D01*
X1280471Y744705D01*
X1281076Y743994D01*
X1281752Y743283D01*
Y736212D01*
X1281704Y736225D01*
X1281588Y736237D01*
X1281153Y736257D01*
X1278217Y736283D01*
X1278186Y750354D01*
X1278224Y749651D01*
D02*
G37*
G36*
X1071777Y760779D02*
X1071597Y759999D01*
X1071572Y759178D01*
X1071701Y758315D01*
X1071985Y757410D01*
X1072424Y756463D01*
X1073017Y755475D01*
X1073765Y754444D01*
X1074667Y753372D01*
X1075109Y752907D01*
X1075589Y752451D01*
X1076650Y751560D01*
X1077632Y750861D01*
X1078534Y750355D01*
X1079357Y750042D01*
X1080100Y749922D01*
X1080763Y749995D01*
X1081347Y750261D01*
X1081852Y750720D01*
X1082276Y751371D01*
X1074597Y736445D01*
X1074898Y737213D01*
X1075037Y738031D01*
X1075014Y738898D01*
X1074828Y739816D01*
X1074480Y740783D01*
X1073970Y741799D01*
X1073298Y742866D01*
X1072463Y743982D01*
X1071466Y745148D01*
X1070820Y745824D01*
X1070496Y746138D01*
X1068581Y747768D01*
X1067755Y748345D01*
X1067015Y748764D01*
X1066363Y749025D01*
X1065797Y749128D01*
X1065319Y749072D01*
X1064928Y748858D01*
X1064624Y748486D01*
X1072112Y761517D01*
X1071777Y760779D01*
D02*
G37*
G36*
X726702Y742982D02*
X727892Y742009D01*
X728461Y741630D01*
X729012Y741322D01*
X729546Y741087D01*
X730062Y740922D01*
X730561Y740830D01*
X731043Y740809D01*
X731507Y740860D01*
X725112Y731665D01*
X725020Y732055D01*
X724870Y732471D01*
X724663Y732912D01*
X724399Y733380D01*
X724078Y733874D01*
X723699Y734393D01*
X722771Y735510D01*
X721613Y736730D01*
X726081Y743576D01*
X726702Y742982D01*
D02*
G37*
G36*
X1089331Y742037D02*
Y735687D01*
X1085885Y735676D01*
Y742047D01*
X1089331Y742037D01*
D02*
G37*
G36*
X1182487Y757025D02*
X1182638Y756600D01*
X1182889Y756225D01*
X1183241Y755900D01*
X1183694Y755625D01*
X1184248Y755400D01*
X1184902Y755225D01*
X1185656Y755100D01*
X1186511Y755025D01*
X1187467Y755000D01*
Y750000D01*
X1186511Y749975D01*
X1185656Y749900D01*
X1184902Y749775D01*
X1184248Y749600D01*
X1183694Y749375D01*
X1183241Y749100D01*
X1182889Y748775D01*
X1182638Y748400D01*
X1182487Y747975D01*
X1182437Y747500D01*
Y757500D01*
X1182487Y757025D01*
D02*
G37*
G36*
X836490Y799953D02*
X835810Y799713D01*
X835210Y799313D01*
X834690Y798753D01*
X834250Y798033D01*
X833890Y797153D01*
X833610Y796113D01*
X833410Y794913D01*
X833290Y793553D01*
X833254Y792177D01*
X833290Y789308D01*
X833886Y781531D01*
X834243Y779517D01*
X834680Y777792D01*
X835197Y776357D01*
X835793Y775210D01*
X836469Y774353D01*
X837224Y773785D01*
X829108Y778109D01*
X827234Y776244D01*
X822744Y780734D01*
X823240Y781235D01*
X821265Y782287D01*
X822022Y782007D01*
X822700Y782016D01*
X823298Y782313D01*
X823816Y782900D01*
X824254Y783775D01*
X824612Y784940D01*
X824891Y786393D01*
X825091Y788135D01*
X825210Y790166D01*
X825245Y792212D01*
X825210Y793553D01*
X825090Y794913D01*
X824890Y796113D01*
X824610Y797153D01*
X824250Y798033D01*
X823810Y798753D01*
X823290Y799313D01*
X822690Y799713D01*
X822010Y799953D01*
X821250Y800033D01*
X837250D01*
X836490Y799953D01*
D02*
G37*
G36*
X1125638Y782688D02*
X1124372Y781366D01*
X1122439Y778982D01*
X1121772Y777921D01*
X1121305Y776947D01*
X1121038Y776061D01*
X1120971Y775261D01*
X1121103Y774549D01*
X1121435Y773923D01*
X1121967Y773385D01*
X1109294Y783304D01*
X1109957Y782894D01*
X1110678Y782655D01*
X1111457Y782588D01*
X1112295Y782692D01*
X1113192Y782967D01*
X1114147Y783414D01*
X1115161Y784033D01*
X1116233Y784822D01*
X1117363Y785784D01*
X1118552Y786916D01*
X1125638Y782688D01*
D02*
G37*
G36*
X1271525Y758761D02*
X1271600Y757906D01*
X1271725Y757151D01*
X1271900Y756497D01*
X1272125Y755944D01*
X1272400Y755491D01*
X1272725Y755139D01*
X1273100Y754888D01*
X1273525Y754737D01*
X1274000Y754687D01*
X1264000D01*
X1264475Y754737D01*
X1264900Y754888D01*
X1265275Y755139D01*
X1265600Y755491D01*
X1265875Y755944D01*
X1266100Y756497D01*
X1266275Y757151D01*
X1266400Y757906D01*
X1266475Y758761D01*
X1266500Y759717D01*
X1271500D01*
X1271525Y758761D01*
D02*
G37*
G36*
X1144521Y772079D02*
X1143251Y771826D01*
X1142661Y773252D01*
X1142473Y773534D01*
X1142323Y773838D01*
X1140920Y775665D01*
X1140666Y775889D01*
X1140442Y776143D01*
X1138614Y777546D01*
X1138310Y777696D01*
X1138029Y777884D01*
X1135900Y778766D01*
X1135568Y778832D01*
X1135247Y778941D01*
X1132963Y779241D01*
X1132625Y779219D01*
X1132287Y779241D01*
X1130003Y778941D01*
X1129682Y778832D01*
X1129350Y778766D01*
X1127221Y777884D01*
X1126940Y777696D01*
X1126636Y777546D01*
X1125598Y776749D01*
X1124706Y777666D01*
X1126316Y779652D01*
X1127277Y780655D01*
X1137525Y790903D01*
X1144521D01*
Y772079D01*
D02*
G37*
G36*
X1004035Y732881D02*
X1004140Y731686D01*
X1004315Y730631D01*
X1004560Y729717D01*
X1004875Y728944D01*
X1005260Y728311D01*
X1005715Y727819D01*
X1006240Y727468D01*
X1006835Y727257D01*
X1007500Y727187D01*
X993500D01*
X994165Y727257D01*
X994760Y727468D01*
X995285Y727819D01*
X995740Y728311D01*
X996125Y728944D01*
X996440Y729717D01*
X996685Y730631D01*
X996860Y731686D01*
X996965Y732881D01*
X997000Y734217D01*
X1004000D01*
X1004035Y732881D01*
D02*
G37*
G36*
X841297Y720778D02*
X842051Y720343D01*
X842841Y719822D01*
X843639Y719232D01*
X845413Y717716D01*
X846048Y717103D01*
X867775Y695376D01*
X869141Y694327D01*
X870732Y693668D01*
X872440Y693444D01*
X874147Y693668D01*
X874662Y693882D01*
X888160D01*
Y675500D01*
X888357Y674509D01*
X888919Y673669D01*
X889759Y673107D01*
X890750Y672910D01*
X909250D01*
X909754Y673010D01*
X909812Y673013D01*
X909849Y673029D01*
X910241Y673107D01*
X910718Y673426D01*
X910732Y673432D01*
X910739Y673440D01*
X911081Y673669D01*
X911410Y674161D01*
X911420Y674172D01*
X911424Y674181D01*
X911643Y674509D01*
X911719Y674894D01*
X912030Y675017D01*
X912653Y675183D01*
X913169Y675273D01*
X920122Y675534D01*
X926932D01*
X928137Y675503D01*
X929378Y675398D01*
X930409Y675233D01*
X931218Y675023D01*
X931797Y674796D01*
X932149Y674590D01*
X932268Y674483D01*
X932386Y673585D01*
X933272Y671447D01*
X933316Y671390D01*
X933339Y671234D01*
X933290Y670880D01*
X932849Y669912D01*
X931046Y669166D01*
X930765Y668978D01*
X930461Y668828D01*
X928633Y667425D01*
X928409Y667170D01*
X928155Y666947D01*
X926752Y665119D01*
X926602Y664815D01*
X926414Y664534D01*
X925533Y662405D01*
X925467Y662073D01*
X925358Y661752D01*
X925057Y659468D01*
X925079Y659130D01*
X925057Y658792D01*
X925358Y656508D01*
X925467Y656187D01*
X925533Y655855D01*
X926414Y653726D01*
X926602Y653445D01*
X926752Y653141D01*
X928155Y651313D01*
X928410Y651089D01*
X928633Y650835D01*
X930461Y649432D01*
X930765Y649282D01*
X931046Y649094D01*
X933175Y648213D01*
X933507Y648147D01*
X933828Y648038D01*
X935128Y647866D01*
X935045Y646596D01*
X913732D01*
X860664Y699664D01*
X859298Y700713D01*
X857707Y701372D01*
X856000Y701596D01*
X827732D01*
X822377Y706952D01*
X823041Y708016D01*
X825170Y707134D01*
X825502Y707068D01*
X825823Y706959D01*
X828107Y706659D01*
X828445Y706681D01*
X828783Y706659D01*
X831067Y706959D01*
X831388Y707068D01*
X831720Y707134D01*
X833849Y708016D01*
X834130Y708204D01*
X834434Y708354D01*
X836262Y709757D01*
X836486Y710011D01*
X836740Y710235D01*
X838143Y712063D01*
X838292Y712366D01*
X838481Y712648D01*
X839362Y714777D01*
X839428Y715109D01*
X839537Y715430D01*
X839838Y717714D01*
X839816Y718052D01*
X839838Y718390D01*
X839606Y720152D01*
X840394Y720944D01*
X840738Y721052D01*
X841297Y720778D01*
D02*
G37*
G36*
X960313Y710000D02*
X960233Y710760D01*
X959992Y711440D01*
X959591Y712040D01*
X959029Y712560D01*
X958306Y713000D01*
X957422Y713360D01*
X956379Y713640D01*
X955174Y713840D01*
X953809Y713960D01*
X952283Y714000D01*
Y722000D01*
X953809Y722040D01*
X955174Y722160D01*
X956379Y722360D01*
X957422Y722640D01*
X958306Y723000D01*
X959029Y723440D01*
X959591Y723960D01*
X959992Y724560D01*
X960233Y725240D01*
X960313Y726000D01*
Y710000D01*
D02*
G37*
G36*
X1162533Y701533D02*
X1162453Y701907D01*
X1162213Y702241D01*
X1161813Y702536D01*
X1161253Y702792D01*
X1160533Y703008D01*
X1159653Y703185D01*
X1158613Y703323D01*
X1156053Y703480D01*
X1154533Y703500D01*
Y711500D01*
X1156053Y711520D01*
X1159653Y711815D01*
X1160533Y711992D01*
X1161253Y712208D01*
X1161813Y712464D01*
X1162213Y712759D01*
X1162453Y713093D01*
X1162533Y713467D01*
Y701533D01*
D02*
G37*
G36*
X818256Y712868D02*
X817240Y712089D01*
X789636Y739692D01*
Y759900D01*
X790906Y760240D01*
X818256Y712868D01*
D02*
G37*
G36*
X740834Y734912D02*
X741889Y732629D01*
X742269Y731949D01*
X743071Y730710D01*
X743493Y730151D01*
X743930Y729632D01*
X744381Y729154D01*
X742278Y724186D01*
X741717Y724697D01*
X741139Y725125D01*
X740543Y725470D01*
X739931Y725731D01*
X739302Y725909D01*
X738656Y726003D01*
X737993Y726013D01*
X737313Y725941D01*
X736617Y725785D01*
X735903Y725545D01*
X740511Y735753D01*
X740834Y734912D01*
D02*
G37*
G36*
X904040Y731441D02*
X904160Y730076D01*
X904360Y728872D01*
X904640Y727828D01*
X905000Y726944D01*
X905440Y726221D01*
X905960Y725659D01*
X906560Y725258D01*
X907240Y725017D01*
X908000Y724937D01*
X892000D01*
X892760Y725017D01*
X893440Y725258D01*
X894040Y725659D01*
X894560Y726221D01*
X895000Y726944D01*
X895360Y727828D01*
X895640Y728872D01*
X895840Y730076D01*
X895960Y731441D01*
X896000Y732967D01*
X904000D01*
X904040Y731441D01*
D02*
G37*
G36*
X1144521Y763617D02*
Y741850D01*
X1115517Y712846D01*
X1114501Y713625D01*
X1142511Y762141D01*
X1142566Y762302D01*
X1142661Y762444D01*
X1143251Y763870D01*
X1144521Y763617D01*
D02*
G37*
G36*
X852664Y730064D02*
X852172Y729592D01*
X851881Y729033D01*
X851789Y728388D01*
X851898Y727656D01*
X852206Y726837D01*
X852715Y725932D01*
X853424Y724939D01*
X854333Y723861D01*
X855441Y722695D01*
X848129Y718694D01*
X847155Y719634D01*
X845252Y721260D01*
X844324Y721946D01*
X843412Y722548D01*
X842515Y723065D01*
X841634Y723497D01*
X840768Y723845D01*
X839918Y724108D01*
X839083Y724287D01*
X853356Y730449D01*
X852664Y730064D01*
D02*
G37*
G36*
X1162533Y791533D02*
X1162453Y791907D01*
X1162213Y792241D01*
X1161813Y792536D01*
X1161253Y792792D01*
X1160533Y793008D01*
X1159653Y793185D01*
X1158613Y793323D01*
X1156053Y793480D01*
X1154533Y793500D01*
Y801500D01*
X1156053Y801520D01*
X1159653Y801815D01*
X1160533Y801992D01*
X1161253Y802208D01*
X1161813Y802464D01*
X1162213Y802759D01*
X1162453Y803093D01*
X1162533Y803467D01*
Y791533D01*
D02*
G37*
G36*
X1197253Y884217D02*
X1196260Y883189D01*
X1194698Y881347D01*
X1194129Y880533D01*
X1193702Y879790D01*
X1193416Y879118D01*
X1193271Y878518D01*
X1193268Y877990D01*
X1193407Y877532D01*
X1193687Y877146D01*
X1186646Y884186D01*
X1187032Y883907D01*
X1187490Y883768D01*
X1188018Y883771D01*
X1188618Y883916D01*
X1189290Y884202D01*
X1190033Y884629D01*
X1190847Y885198D01*
X1191732Y885908D01*
X1193717Y887753D01*
X1197253Y884217D01*
D02*
G37*
G36*
X701752Y888217D02*
X700782Y887211D01*
X699250Y885399D01*
X698689Y884593D01*
X698264Y883852D01*
X697976Y883178D01*
X697824Y882571D01*
X697808Y882029D01*
X697929Y881554D01*
X698186Y881146D01*
X696635Y882934D01*
X693000Y878997D01*
X688997Y883000D01*
X689143Y883056D01*
X689391Y883225D01*
X689743Y883507D01*
X691418Y885028D01*
X693257Y886830D01*
X691646Y888687D01*
X692010Y888384D01*
X692450Y888229D01*
X692966Y888219D01*
X693559Y888356D01*
X694228Y888640D01*
X694973Y889069D01*
X695795Y889645D01*
X696692Y890368D01*
X698717Y892253D01*
X701752Y888217D01*
D02*
G37*
G36*
X827670Y888719D02*
X827204Y888498D01*
X826635Y888150D01*
X825964Y887673D01*
X824315Y886335D01*
X821074Y883365D01*
X818401Y880745D01*
X811987Y885644D01*
X813142Y886856D01*
X814087Y887971D01*
X814822Y888989D01*
X815346Y889910D01*
X815660Y890733D01*
X815763Y891460D01*
X815656Y892090D01*
X815339Y892623D01*
X814811Y893059D01*
X814073Y893398D01*
X827670Y888719D01*
D02*
G37*
G36*
X1121168Y897145D02*
X1121028Y896451D01*
X1120904Y895587D01*
X1120706Y893348D01*
X1120508Y886826D01*
X1120500Y884769D01*
X1112500Y882460D01*
X1112460Y884080D01*
X1112339Y885468D01*
X1112139Y886622D01*
X1111858Y887543D01*
X1111496Y888231D01*
X1111055Y888687D01*
X1110533Y888909D01*
X1109930Y888898D01*
X1109248Y888654D01*
X1108485Y888177D01*
X1121324Y897668D01*
X1121168Y897145D01*
D02*
G37*
G36*
X718148Y901406D02*
X718346Y901453D01*
X718398Y901371D01*
X718304Y901158D01*
X718065Y900815D01*
X717680Y900342D01*
X715648Y898144D01*
X713564Y896029D01*
X710213Y899749D01*
X711161Y900732D01*
X712656Y902507D01*
X713203Y903299D01*
X713617Y904029D01*
X713897Y904695D01*
X714044Y905297D01*
X714058Y905837D01*
X713938Y906313D01*
X713685Y906726D01*
X718148Y901406D01*
D02*
G37*
G36*
X1078718Y948495D02*
X1079849Y947534D01*
X1080921Y946744D01*
X1081934Y946126D01*
X1082889Y945679D01*
X1083786Y945403D01*
X1084624Y945299D01*
X1085404Y945366D01*
X1086125Y945605D01*
X1086787Y946015D01*
X1074114Y936097D01*
X1074646Y936635D01*
X1074978Y937260D01*
X1075111Y937973D01*
X1075043Y938772D01*
X1074776Y939659D01*
X1074309Y940633D01*
X1073643Y941694D01*
X1072776Y942842D01*
X1071710Y944077D01*
X1070444Y945399D01*
X1077529Y949628D01*
X1078718Y948495D01*
D02*
G37*
G36*
X851328Y947922D02*
X850640Y947203D01*
X849611Y945933D01*
X849269Y945380D01*
X849043Y944883D01*
X848932Y944441D01*
X848937Y944054D01*
X849058Y943723D01*
X849294Y943446D01*
X849645Y943225D01*
X837905Y948779D01*
X838345Y948655D01*
X838860Y948666D01*
X839450Y948811D01*
X840115Y949089D01*
X840854Y949502D01*
X841668Y950049D01*
X842557Y950730D01*
X844558Y952495D01*
X845672Y953578D01*
X851328Y947922D01*
D02*
G37*
G36*
X744868Y902996D02*
X744802Y902687D01*
X744743Y902300D01*
X744648Y901289D01*
X744566Y899181D01*
X744550Y897380D01*
X739550D01*
X739546Y898320D01*
X739298Y902687D01*
X739232Y902996D01*
X739157Y903225D01*
X744943D01*
X744868Y902996D01*
D02*
G37*
G36*
X1162563Y902467D02*
X1162523Y902473D01*
X1162401Y902479D01*
X1158500Y902500D01*
Y910500D01*
X1162563Y910533D01*
Y902467D01*
D02*
G37*
G36*
X1120540Y877941D02*
X1120660Y876576D01*
X1120860Y875371D01*
X1121140Y874327D01*
X1121500Y873444D01*
X1121940Y872721D01*
X1122460Y872159D01*
X1123060Y871758D01*
X1123740Y871517D01*
X1124500Y871436D01*
X1108500D01*
X1109260Y871517D01*
X1109940Y871758D01*
X1110540Y872159D01*
X1111060Y872721D01*
X1111500Y873444D01*
X1111860Y874327D01*
X1112140Y875371D01*
X1112340Y876576D01*
X1112460Y877941D01*
X1112500Y879467D01*
X1120500D01*
X1120540Y877941D01*
D02*
G37*
G36*
X838517Y847490D02*
X838758Y846810D01*
X839159Y846210D01*
X839721Y845690D01*
X840444Y845250D01*
X841328Y844890D01*
X842372Y844610D01*
X843576Y844410D01*
X844941Y844290D01*
X846467Y844250D01*
Y836250D01*
X844941Y836210D01*
X843576Y836090D01*
X842372Y835890D01*
X841328Y835610D01*
X840444Y835250D01*
X839721Y834810D01*
X839159Y834290D01*
X838758Y833690D01*
X838517Y833010D01*
X838437Y832250D01*
Y848250D01*
X838517Y847490D01*
D02*
G37*
G36*
X748777Y842623D02*
X748513Y842286D01*
X748425Y841843D01*
X748514Y841294D01*
X748780Y840640D01*
X749221Y839880D01*
X749839Y839014D01*
X750634Y838043D01*
X752753Y835783D01*
X745717Y835748D01*
X744849Y836580D01*
X743221Y837926D01*
X742460Y838439D01*
X741735Y838846D01*
X741046Y839146D01*
X740392Y839340D01*
X739774Y839427D01*
X739192Y839408D01*
X738646Y839283D01*
X749217Y842854D01*
X748777Y842623D01*
D02*
G37*
G36*
X1082697Y805298D02*
X1082214Y803641D01*
X1081856Y802115D01*
X1081623Y800721D01*
X1081516Y799457D01*
X1081534Y798325D01*
X1081678Y797324D01*
X1081947Y796454D01*
X1082341Y795715D01*
X1082861Y795107D01*
X1083506Y794631D01*
X1073376Y800514D01*
X1073160Y800181D01*
X1073027Y800075D01*
X1072979Y800199D01*
X1073015Y800550D01*
X1073134Y801130D01*
X1073626Y802975D01*
X1074993Y807455D01*
X1082697Y805298D01*
D02*
G37*
G36*
X682724Y809440D02*
X682868Y808075D01*
X683090Y806871D01*
X683389Y805827D01*
X683765Y804944D01*
X684219Y804221D01*
X684749Y803659D01*
X685356Y803258D01*
X686040Y803017D01*
X686802Y802936D01*
X670799D01*
X671558Y803017D01*
X672234Y803258D01*
X672827Y803659D01*
X673337Y804221D01*
X673764Y804944D01*
X674108Y805827D01*
X674369Y806871D01*
X674547Y808075D01*
X674642Y809440D01*
X674654Y810966D01*
X682656D01*
X682724Y809440D01*
D02*
G37*
G36*
X1080959Y876806D02*
X1082467Y873255D01*
X1083179Y871985D01*
X1083863Y871051D01*
X1084518Y870455D01*
X1085145Y870195D01*
X1085743Y870272D01*
X1086314Y870686D01*
X1086856Y871436D01*
X1076283Y853033D01*
X1090313D01*
X1089556Y852953D01*
X1088893Y852714D01*
X1088326Y852316D01*
X1087854Y851758D01*
X1087478Y851041D01*
X1087196Y850165D01*
X1087010Y849129D01*
X1086919Y847934D01*
X1086924Y846580D01*
X1087023Y845066D01*
X1079009Y845071D01*
X1078850Y846584D01*
X1078220Y850167D01*
X1077960Y851042D01*
X1077675Y851759D01*
X1077365Y852316D01*
X1077029Y852714D01*
X1076669Y852953D01*
X1076283Y853033D01*
X1076262Y855437D01*
X1075536Y865639D01*
X1075266Y867316D01*
X1074602Y870308D01*
X1074208Y871622D01*
X1080162Y879087D01*
X1080959Y876806D01*
D02*
G37*
G36*
X1189025Y865733D02*
X1188600Y865583D01*
X1188225Y865333D01*
X1187900Y864983D01*
X1187625Y864533D01*
X1187400Y863983D01*
X1187225Y863333D01*
X1187100Y862583D01*
X1187025Y861733D01*
X1187000Y860783D01*
X1182000D01*
X1181975Y861733D01*
X1181900Y862583D01*
X1181775Y863333D01*
X1181600Y863983D01*
X1181375Y864533D01*
X1181100Y864983D01*
X1180775Y865333D01*
X1180400Y865583D01*
X1179975Y865733D01*
X1179500Y865783D01*
X1189500D01*
X1189025Y865733D01*
D02*
G37*
G36*
X673080Y889480D02*
X673320Y888120D01*
X673720Y886920D01*
X674280Y885880D01*
X675000Y885000D01*
X675880Y884280D01*
X676920Y883720D01*
X677029Y883684D01*
X677806Y884000D01*
X678529Y884440D01*
X679091Y884960D01*
X679492Y885560D01*
X679733Y886240D01*
X679814Y887000D01*
Y883062D01*
X681000Y883000D01*
Y875000D01*
X679814Y874938D01*
Y871000D01*
X679733Y871760D01*
X679492Y872440D01*
X679091Y873040D01*
X678529Y873560D01*
X677806Y874000D01*
X677029Y874316D01*
X676920Y874280D01*
X675880Y873720D01*
X675000Y873000D01*
X674280Y872120D01*
X673720Y871080D01*
X673320Y869880D01*
X673080Y868520D01*
X673000Y867000D01*
X665000Y879000D01*
X673000Y891000D01*
X673080Y889480D01*
D02*
G37*
G36*
X1184871Y851331D02*
X1182441Y848608D01*
X1182414Y848502D01*
X1182467Y848467D01*
X1171396Y848437D01*
X1172099Y848474D01*
X1172803Y848582D01*
X1173509Y848762D01*
X1174214Y849012D01*
X1174921Y849333D01*
X1175629Y849725D01*
X1176337Y850188D01*
X1177046Y850722D01*
X1177756Y851327D01*
X1178467Y852002D01*
X1185538D01*
X1184871Y851331D01*
D02*
G37*
G36*
X744575Y862761D02*
X744650Y861906D01*
X744775Y861151D01*
X744950Y860498D01*
X745175Y859944D01*
X745450Y859491D01*
X745775Y859139D01*
X746150Y858888D01*
X746575Y858737D01*
X747050Y858687D01*
X737050D01*
X737525Y858737D01*
X737950Y858888D01*
X738325Y859139D01*
X738650Y859491D01*
X738925Y859944D01*
X739150Y860498D01*
X739325Y861151D01*
X739450Y861906D01*
X739525Y862761D01*
X739550Y863717D01*
X744550D01*
X744575Y862761D01*
D02*
G37*
G36*
X1255814Y543467D02*
X1255778Y543663D01*
X1255671Y543839D01*
X1255493Y543994D01*
X1255243Y544128D01*
X1254923Y544242D01*
X1254531Y544335D01*
X1254067Y544407D01*
X1253533Y544459D01*
X1252250Y544500D01*
Y549500D01*
X1252927Y549510D01*
X1254067Y549593D01*
X1254531Y549665D01*
X1254923Y549758D01*
X1255243Y549872D01*
X1255493Y550006D01*
X1255671Y550161D01*
X1255778Y550337D01*
X1255814Y550533D01*
Y543467D01*
D02*
G37*
G36*
X1247950Y539164D02*
X1247427Y538588D01*
X1246961Y537960D01*
X1246550Y537281D01*
X1246196Y536551D01*
X1245898Y535769D01*
X1245656Y534936D01*
X1245470Y534051D01*
X1245341Y533116D01*
X1245267Y532128D01*
X1245250Y531090D01*
X1236340Y540000D01*
X1237378Y540017D01*
X1238366Y540090D01*
X1239301Y540220D01*
X1240186Y540406D01*
X1241019Y540648D01*
X1241801Y540946D01*
X1242531Y541300D01*
X1243210Y541711D01*
X1243838Y542177D01*
X1244414Y542700D01*
X1247950Y539164D01*
D02*
G37*
G36*
X1017218Y544852D02*
X1021121Y541666D01*
X1022814Y540601D01*
X1024335Y539887D01*
X1025684Y539525D01*
X1026860Y539514D01*
X1027864Y539855D01*
X1028696Y540547D01*
X1029355Y541592D01*
X1027437Y537510D01*
X1027923Y537413D01*
X1029033Y537332D01*
X1030140Y537389D01*
X1031245Y537585D01*
X1020098Y519788D01*
X1019800Y520871D01*
X1019719Y521085D01*
X1018420Y518320D01*
X1017999Y520124D01*
X1017461Y521900D01*
X1016806Y523647D01*
X1016033Y525367D01*
X1015143Y527058D01*
X1014135Y528721D01*
X1013010Y530356D01*
X1011767Y531963D01*
X1010406Y533542D01*
X1008929Y535092D01*
X1015008Y546972D01*
X1017218Y544852D01*
D02*
G37*
G36*
X977770Y574916D02*
X978019Y574587D01*
X978435Y574297D01*
X979017Y574046D01*
X979765Y573833D01*
X980679Y573659D01*
X981760Y573524D01*
X984420Y573369D01*
X986000Y573350D01*
Y560650D01*
X984420Y560631D01*
X980679Y560341D01*
X979765Y560167D01*
X979017Y559954D01*
X978435Y559703D01*
X978019Y559413D01*
X977770Y559084D01*
X977686Y558717D01*
Y575283D01*
X977770Y574916D01*
D02*
G37*
D10*
X1076346Y798520D02*
G03*
X1056245Y913292I-111146J39680D01*
G01*
X1000586Y744345D02*
G03*
X1041739Y903029I-35386J93855D01*
G01*
X987639Y761411D02*
G03*
X953194Y917294I-22439J76789D01*
G01*
X847821Y840007D02*
G03*
X892473Y746049I117379J-1807D01*
G01*
X876649Y915269D02*
G03*
X847821Y840007I88551J-77069D01*
G01*
X669000Y879000D02*
Y1098000D01*
Y879000D02*
X689000D01*
X669000Y1098000D02*
X697000Y1126000D01*
X918000D02*
X1108000D01*
X697000D02*
X918000D01*
X918000Y1126000D02*
X918000Y1126000D01*
X918000Y1108000D02*
Y1126000D01*
X896250Y1101000D02*
X916000D01*
X887000Y1091750D02*
X896250Y1101000D01*
X834000Y982000D02*
X848500Y967500D01*
Y950750D02*
Y967500D01*
X840619Y942869D02*
X848500Y950750D01*
X838000Y1012000D02*
X888000Y962000D01*
X815000Y1050000D02*
X820000Y1045000D01*
Y1025000D02*
Y1045000D01*
X1054500Y995500D02*
Y1005500D01*
X1023250Y1036750D02*
X1054500Y1005500D01*
X1023250Y1036750D02*
Y1062500D01*
X783040Y736960D02*
X825000Y695000D01*
X783040Y736960D02*
Y851040D01*
X825000Y695000D02*
X856000D01*
X669000Y856000D02*
Y879000D01*
X679000Y792000D02*
X685000D01*
X669000Y856000D02*
X678000Y847000D01*
X679000Y792000D01*
X762250Y516500D02*
X778000Y532250D01*
Y581050D01*
X749750D02*
X778000D01*
X744000D02*
X749750D01*
Y568350D02*
X755000D01*
X737650D02*
X749750D01*
X856000Y695000D02*
X911000Y640000D01*
X1011000D01*
X730000Y593000D02*
Y625000D01*
X688000Y667000D02*
X730000Y625000D01*
X688000Y667000D02*
Y697000D01*
X729810Y593190D02*
X730000Y593000D01*
X683000Y702000D02*
X688000Y697000D01*
X683000Y702000D02*
Y733000D01*
X685000Y779000D02*
X731000Y733000D01*
X685000Y779000D02*
Y792000D01*
X1145500Y707500D02*
X1172500D01*
X1104500Y666500D02*
X1145500Y707500D01*
X1070750Y666500D02*
X1104500D01*
X1026500Y697500D02*
X1070750D01*
X1011130Y682130D02*
X1026500Y697500D01*
X983200Y682130D02*
X1011130D01*
X1134793Y797500D02*
X1172500D01*
X1151118Y739118D02*
Y797000D01*
X1107331Y770038D02*
X1134793Y797500D01*
X1011000Y640000D02*
X1053000Y682000D01*
X1094000D02*
X1151118Y739118D01*
X1152000Y913000D02*
X1158500Y906500D01*
X1152000Y913000D02*
Y962000D01*
X1134000Y980000D02*
X1152000Y962000D01*
X1108000Y1126000D02*
X1115500Y1118500D01*
X783040Y851040D02*
X822619Y890619D01*
Y902861D01*
X1085750Y1085000D02*
X1112750D01*
X1115500Y1087750D01*
Y1118500D01*
X829250Y782750D02*
Y809250D01*
X900000Y715750D02*
Y738522D01*
X829250Y840250D02*
X847578D01*
X902620Y682130D02*
X947200D01*
X1061250Y761077D02*
X1083465Y738862D01*
X1116500Y862250D02*
Y893043D01*
X984430Y995500D02*
X1023500D01*
X842989Y729491D02*
X872440Y700040D01*
X921540D02*
X939500Y718000D01*
X969500D01*
X947200Y923288D02*
Y994270D01*
X1054500Y995500D02*
X1056245Y993755D01*
X1071750Y949750D02*
Y967750D01*
Y949750D02*
X1088750Y932750D01*
X1040750Y904018D02*
Y967750D01*
X983200Y682130D02*
X984983Y683913D01*
X1071750Y967750D02*
X1084000Y980000D01*
X1134000D01*
X729810Y576190D02*
Y593190D01*
Y576190D02*
X737650Y568350D01*
X840000Y515000D02*
X856000Y531000D01*
X794750Y515000D02*
X840000D01*
X792535Y517215D02*
X793250Y516500D01*
X794750Y515000D01*
X916000Y1101000D02*
X918250Y1103250D01*
X920500Y1105500D01*
X918000Y1108000D02*
X920500Y1105500D01*
X1158500Y906500D02*
X1177000D01*
X947200Y923288D02*
X953194Y917294D01*
X856000Y531000D02*
X963500D01*
X833000Y1012000D02*
X838000D01*
X820000Y1025000D02*
X833000Y1012000D01*
X892473Y746049D02*
X900000Y738522D01*
X876649Y915269D02*
X888000Y926620D01*
X1106681Y902862D02*
X1116500Y893043D01*
D11*
X1225000Y560000D02*
D03*
X1257000Y1051000D02*
D03*
X723038Y1017771D02*
D03*
X738000Y1091000D02*
D03*
X1131000Y607000D02*
D03*
X1251250D02*
D03*
X1251250Y509000D02*
D03*
X1131250D02*
D03*
D12*
X1172500Y752500D02*
D03*
Y730000D02*
D03*
Y707500D02*
D03*
Y842500D02*
D03*
Y820000D02*
D03*
Y797500D02*
D03*
X882500Y1042500D02*
D03*
Y1065000D02*
D03*
Y1087500D02*
D03*
X1085750Y1040000D02*
D03*
Y1062500D02*
D03*
Y1085000D02*
D03*
X1172500Y952500D02*
D03*
Y930000D02*
D03*
Y907500D02*
D03*
D13*
X1235000Y730000D02*
D03*
Y820000D02*
D03*
X820000Y1065000D02*
D03*
X1023250Y1062500D02*
D03*
X1235000Y930000D02*
D03*
D14*
X1265000Y575500D02*
D03*
Y544500D02*
D03*
X1070750Y697500D02*
D03*
Y666500D02*
D03*
X829250Y809250D02*
D03*
Y840250D02*
D03*
X1269000Y745500D02*
D03*
Y714500D02*
D03*
X839000Y589500D02*
D03*
Y558500D02*
D03*
Y616000D02*
D03*
Y647000D02*
D03*
X900000Y684750D02*
D03*
Y715750D02*
D03*
X1115500Y1056750D02*
D03*
Y1087750D02*
D03*
X834000Y982000D02*
D03*
Y1013000D02*
D03*
X918000Y1072500D02*
D03*
Y1103500D02*
D03*
D15*
X1256000Y644000D02*
D03*
X1225000D02*
D03*
X1214500Y676000D02*
D03*
X1245500D02*
D03*
X1184500Y875000D02*
D03*
X1215500D02*
D03*
X1204500Y985000D02*
D03*
X1235500D02*
D03*
X719000Y1060000D02*
D03*
X688000D02*
D03*
X762250Y516500D02*
D03*
X793250D02*
D03*
X1054500Y995500D02*
D03*
X1023500D02*
D03*
X1085500Y862250D02*
D03*
X1116500D02*
D03*
X1000500Y718000D02*
D03*
X969500D02*
D03*
X1071750Y967750D02*
D03*
X1040750D02*
D03*
D16*
X1107331Y770038D02*
D03*
X1089331Y738862D02*
D03*
X822619Y902861D02*
D03*
X840619Y934038D02*
D03*
D17*
X842989Y738862D02*
D03*
X824989Y770038D02*
D03*
X1088750Y932750D02*
D03*
X1106750Y901573D02*
D03*
D18*
X983200Y682130D02*
D03*
X947200D02*
D03*
Y994270D02*
D03*
X983200D02*
D03*
D19*
X703950Y909500D02*
D03*
X716650D02*
D03*
X729350D02*
D03*
X742050D02*
D03*
X703950Y966500D02*
D03*
X716650D02*
D03*
X729350D02*
D03*
X742050D02*
D03*
D20*
X670000Y1125000D02*
D03*
X1275000Y1110000D02*
D03*
X700000Y605000D02*
D03*
D21*
X901000Y565000D02*
D03*
Y517000D02*
D03*
D22*
X688000Y697000D02*
D03*
X728000D02*
D03*
D23*
X710000Y528000D02*
D03*
Y558000D02*
D03*
D24*
X749750Y581050D02*
D03*
Y568350D02*
D03*
Y555650D02*
D03*
Y542950D02*
D03*
X806750Y581050D02*
D03*
Y568350D02*
D03*
Y555650D02*
D03*
Y542950D02*
D03*
D25*
X967000Y527000D02*
D03*
Y567000D02*
D03*
D26*
X1047250Y578000D02*
D03*
X1047750Y523500D02*
D03*
D27*
X1076750Y787923D02*
D03*
X1061250Y761077D02*
D03*
D28*
X719000Y879000D02*
D03*
X689000D02*
D03*
X710000Y849000D02*
D03*
X740000D02*
D03*
D29*
X733000Y792000D02*
D03*
X685000D02*
D03*
D30*
X688500Y953500D02*
Y1062000D01*
X724000Y1063000D02*
X750280D01*
X796440Y1109160D02*
X839560D01*
X750280Y1063000D02*
X796440Y1109160D01*
X957000Y1114000D02*
X1050000D01*
X947000Y1104000D02*
X957000Y1114000D01*
X947000Y1060000D02*
Y1104000D01*
X942000Y1055000D02*
X947000Y1060000D01*
X921000Y1055000D02*
X942000D01*
X867880Y1030120D02*
X896120D01*
X921000Y1055000D01*
X854120Y1043880D02*
Y1094600D01*
X839560Y1109160D02*
X854120Y1094600D01*
Y1043880D02*
X867880Y1030120D01*
X1098750Y1040000D02*
X1115500Y1056750D01*
X1085750Y1040000D02*
X1098750D01*
X742050Y957050D02*
Y966500D01*
X733000Y948000D02*
X742050Y957050D01*
X694000Y948000D02*
X733000D01*
X1072000Y1040000D02*
X1085750D01*
X1064000Y1048000D02*
X1072000Y1040000D01*
X1064000Y1048000D02*
Y1100000D01*
X1050000Y1114000D02*
X1064000Y1100000D01*
X688500Y953500D02*
X694000Y948000D01*
D31*
X904552Y623000D02*
X1099000D01*
X1176000Y558000D02*
Y585000D01*
Y531250D02*
Y558000D01*
X1121000D02*
X1176000D01*
X1106000Y573000D02*
X1121000Y558000D01*
X1106000Y573000D02*
Y616000D01*
X1099000Y623000D02*
X1106000Y616000D01*
X1088540Y630540D02*
X1136000Y678000D01*
X907676Y630540D02*
X1088540D01*
X1232500Y1027500D02*
X1269000Y991000D01*
X1196330Y1063670D02*
X1232500Y1027500D01*
X1233500D01*
X1257000Y1051000D01*
X744460Y1019000D02*
Y1046123D01*
Y1003460D02*
Y1019000D01*
X743231Y1017771D02*
X744460Y1019000D01*
X723038Y1017771D02*
X743231D01*
X799917Y1101580D02*
X836420D01*
X744460Y1046123D02*
X799917Y1101580D01*
X716650Y975650D02*
X744460Y1003460D01*
X716650Y966500D02*
Y975650D01*
X729350Y966500D02*
Y975380D01*
X752000Y998030D01*
Y1043000D01*
X803040Y1094040D01*
X715500Y1109500D02*
X722960Y1116960D01*
X703950Y1097950D02*
X715500Y1109500D01*
X734000Y1091000D01*
X738000D01*
X803040Y1094040D02*
X830960D01*
X770540Y734460D02*
Y922460D01*
X759000Y934000D02*
X770540Y922460D01*
X718000Y934000D02*
X759000D01*
X703950Y919950D02*
X718000Y934000D01*
X969000Y1098000D02*
X1034000D01*
X964000Y1093000D02*
X969000Y1098000D01*
X964000Y1054000D02*
Y1093000D01*
X949880Y1039880D02*
X964000Y1054000D01*
X928543Y1039880D02*
X949880D01*
X960540Y1105540D02*
X1045460D01*
X954580Y1099580D02*
X960540Y1105540D01*
X954580Y1056860D02*
Y1099580D01*
X945140Y1047420D02*
X954580Y1056860D01*
X925420Y1047420D02*
X945140D01*
X915420Y1066420D02*
Y1069420D01*
X893000Y1044000D02*
X915420Y1066420D01*
X858000Y1015000D02*
X903663D01*
X928543Y1039880D01*
X900540Y1022540D02*
X925420Y1047420D01*
X861460Y1022540D02*
X900540D01*
X865000Y1053960D02*
Y1098000D01*
X846040Y1116960D02*
X865000Y1098000D01*
X722960Y1116960D02*
X846040D01*
X846540Y1037460D02*
Y1091460D01*
X836420Y1101580D02*
X846540Y1091460D01*
X865000Y1053960D02*
X874960Y1044000D01*
X846540Y1037460D02*
X861460Y1022540D01*
X839000Y1034000D02*
X858000Y1015000D01*
X839000Y1034000D02*
Y1086000D01*
X830960Y1094040D02*
X839000Y1086000D01*
X1034000Y1098000D02*
X1045000Y1087000D01*
Y1038337D02*
Y1087000D01*
Y1038337D02*
X1070337Y1013000D01*
X1118000D01*
X1200000Y985000D02*
X1204500D01*
X1205000Y990000D02*
Y1020000D01*
X1185000Y1040000D02*
X1205000Y1020000D01*
X1145000Y1040000D02*
X1185000D01*
X1118000Y1013000D02*
X1145000Y1040000D01*
X1156330Y1063670D02*
X1196330D01*
X1150000Y1070000D02*
X1156330Y1063670D01*
X1186139Y1049861D02*
X1221000Y1015000D01*
X1140861Y1049861D02*
X1186139D01*
X1114000Y1023000D02*
X1140861Y1049861D01*
X762000Y732337D02*
X816877Y677460D01*
X762000Y732337D02*
Y823000D01*
X816877Y677460D02*
X850092D01*
X820000Y685000D02*
X853215D01*
X770540Y734460D02*
X820000Y685000D01*
X733000Y733000D02*
X737000D01*
X731000D02*
X733000D01*
X818000Y652000D02*
X838000D01*
X839000Y651000D01*
Y647000D02*
Y651000D01*
X737000Y733000D02*
X818000Y652000D01*
X1269000Y745500D02*
Y991000D01*
X1150000Y1070000D02*
Y1120000D01*
X1144000Y1126000D02*
X1150000Y1120000D01*
X1123000Y1126000D02*
X1144000D01*
X689000Y879000D02*
X704000Y894000D01*
X708000D01*
X716650Y902650D01*
Y909500D01*
X1115500Y1118500D02*
X1123000Y1126000D01*
X1276000Y745500D02*
X1288000Y733500D01*
Y611000D02*
Y733500D01*
X1265000Y588000D02*
X1288000Y611000D01*
X1269000Y745500D02*
X1276000D01*
X1265000Y575500D02*
Y588000D01*
X1236250Y531000D02*
X1252250Y547000D01*
X1262500D01*
X1265000Y544500D01*
X1206250Y531250D02*
X1206250Y531250D01*
X1176000Y531250D02*
X1206250D01*
X1212500Y744500D02*
X1212500Y678000D01*
X1204500Y752500D02*
X1212500Y744500D01*
X1196500Y752500D02*
X1204500Y752500D01*
X1172500Y752500D02*
X1196500D01*
X1212500Y678000D02*
X1214500Y676000D01*
X1136000Y678000D02*
X1211000D01*
X850092Y677460D02*
X904552Y623000D01*
X853215Y685000D02*
X907676Y630540D01*
X1184500Y854500D02*
Y875000D01*
X1172500Y842500D02*
X1184500Y854500D01*
Y875000D02*
X1201000Y891500D01*
Y949000D01*
X1221000Y969000D01*
Y1015000D01*
X1071000Y1023000D02*
X1114000D01*
X1055000Y1039000D02*
X1071000Y1023000D01*
X741000Y854000D02*
X742050Y855050D01*
X741000Y850000D02*
Y854000D01*
X740000Y845000D02*
X762000Y823000D01*
X740000Y849000D02*
X741000Y850000D01*
X742050Y855050D02*
Y909500D01*
X703950D02*
Y919950D01*
X1055000Y1039000D02*
Y1096000D01*
X1045460Y1105540D02*
X1055000Y1096000D01*
X703950Y966500D02*
Y1097950D01*
X1213750Y675250D02*
X1216750Y672250D01*
X874960Y1044000D02*
X893000D01*
X1170000Y955000D02*
X1200000Y985000D01*
D32*
X888000Y926620D02*
Y962000D01*
X1053000Y682000D02*
X1094000D01*
X872440Y700040D02*
X921540D01*
X1000500Y718000D02*
Y744258D01*
X984983Y683913D02*
Y761500D01*
X1056245Y913292D02*
Y913292D01*
Y993755D01*
X1000500Y744258D02*
X1000586Y744345D01*
X1040750Y904018D02*
X1041739Y903029D01*
D33*
X1271000Y659000D02*
Y710500D01*
X1256000Y644000D02*
X1271000Y659000D01*
X1206250Y585000D02*
Y594250D01*
X1256000Y644000D01*
X792535Y517215D02*
Y552535D01*
X795650Y555650D01*
X806750D01*
X778000Y581050D02*
X806750D01*
Y542950D02*
X818950D01*
X802000D02*
X806750D01*
Y555650D02*
X812000D01*
X806750Y568350D02*
Y581050D01*
X811950D01*
X839000Y589500D02*
Y616000D01*
X837500Y589500D02*
X839000D01*
X824000Y576000D02*
X837500Y589500D01*
X824000Y548000D02*
Y576000D01*
X824989Y770038D02*
Y778489D01*
X829250Y782750D01*
X840619Y934038D02*
Y942869D01*
X1083465Y738862D02*
X1089331D01*
X983200Y994270D02*
X984430Y995500D01*
X842989Y729491D02*
Y738862D01*
X963500Y531000D02*
X967000Y534500D01*
X1206250Y578750D02*
X1225000Y560000D01*
X1206250Y578750D02*
Y585000D01*
X818950Y542950D02*
X824000Y548000D01*
X712350Y555650D02*
X749750D01*
X710000Y558000D02*
X712350Y555650D01*
X892473Y746049D02*
X892473Y746049D01*
X847578Y840250D02*
X847821Y840007D01*
D34*
X900000Y684750D02*
X902620Y682130D01*
X1035500Y523500D02*
X1047750D01*
X974500Y567000D02*
X986000D01*
X1022500Y530500D01*
X1034500D01*
D35*
X1185000Y1122697D02*
Y1110000D01*
Y1122697D02*
X1189837Y1110000D01*
X1194674Y1122697D02*
X1189837Y1110000D01*
X1194674Y1122697D02*
Y1110000D01*
X1198302Y1122697D02*
Y1110000D01*
X1214566Y1122697D02*
X1212753Y1122093D01*
X1211543Y1120279D01*
X1210939Y1117256D01*
Y1115442D01*
X1211543Y1112419D01*
X1212753Y1110605D01*
X1214566Y1110000D01*
X1215776D01*
X1217590Y1110605D01*
X1218799Y1112419D01*
X1219404Y1115442D01*
Y1117256D01*
X1218799Y1120279D01*
X1217590Y1122093D01*
X1215776Y1122697D01*
X1214566D01*
X1229501Y1120883D02*
X1228896Y1122093D01*
X1227082Y1122697D01*
X1225873D01*
X1224059Y1122093D01*
X1222850Y1120279D01*
X1222245Y1117256D01*
Y1114232D01*
X1222850Y1111814D01*
X1224059Y1110605D01*
X1225873Y1110000D01*
X1226478D01*
X1228292Y1110605D01*
X1229501Y1111814D01*
X1230106Y1113628D01*
Y1114232D01*
X1229501Y1116046D01*
X1228292Y1117256D01*
X1226478Y1117860D01*
X1225873D01*
X1224059Y1117256D01*
X1222850Y1116046D01*
X1222245Y1114232D01*
X1175000Y1085000D02*
Y1097696D01*
X1181348D01*
X1183464Y1095580D01*
Y1091348D01*
X1181348Y1089232D01*
X1175000D01*
X1179232D02*
X1183464Y1085000D01*
X1194044D02*
X1189812D01*
X1187696Y1087116D01*
Y1091348D01*
X1189812Y1093464D01*
X1194044D01*
X1196160Y1091348D01*
Y1089232D01*
X1187696D01*
X1200392Y1093464D02*
X1204624Y1085000D01*
X1208856Y1093464D01*
X1225784Y1095580D02*
X1227899Y1097696D01*
X1232132D01*
X1234248Y1095580D01*
Y1093464D01*
X1232132Y1091348D01*
X1230015D01*
X1232132D01*
X1234248Y1089232D01*
Y1087116D01*
X1232132Y1085000D01*
X1227899D01*
X1225784Y1087116D01*
X1238479Y1085000D02*
Y1087116D01*
X1240595D01*
Y1085000D01*
X1238479D01*
X1249059Y1095580D02*
X1251175Y1097696D01*
X1255407D01*
X1257523Y1095580D01*
Y1087116D01*
X1255407Y1085000D01*
X1251175D01*
X1249059Y1087116D01*
Y1095580D01*
D36*
X1236000Y584750D02*
D03*
X1206250Y585000D02*
D03*
X1176000D02*
D03*
X1146000Y584750D02*
D03*
X1236250Y531000D02*
D03*
X1206250Y531250D02*
D03*
X1176000Y531250D02*
D03*
X1146250Y531000D02*
D03*
D37*
X733000Y733000D02*
D03*
X683000D02*
D03*
D38*
X1034750Y523000D02*
D03*
Y578000D02*
D03*
M02*
