M48
;Layer_Color=9474304
;FILE_FORMAT=4:4
METRIC,LZ
;TYPE=PLATED
T1F00S00C0.8000
T2F00S00C1.0000
T3F00S00C1.2000
T5F00S00C2.0000
;TYPE=NON_PLATED
T6F00S00C3.3000
T7F00S00C15.0000
%
T01
X00315Y00625
X00365
T02
X00909567Y00340227
X00930603Y00361617
X00951993Y00383007
X0096861Y0032361
X0094775Y00302397
X0099Y00345
X0101139Y00366036
X00973206Y00403867
T03
X00883227Y00345354
X009527Y00276234
X01037553Y00361087
X00968256Y00430383
T05
X0043Y003225
X00485
T06
X010458Y004188
Y006988
X003258
Y004188
T07
X006858Y005588
M30
