M48
;Layer_Color=9474304
;FILE_FORMAT=4:4
METRIC,LZ
;TYPE=PLATED
T1F00S00C0.8000
T2F00S00C1.0000
T3F00S00C1.2000
T5F00S00C2.0000
;TYPE=NON_PLATED
T6F00S00C3.3000
T7F00S00C6.2000
%
T01
X00683Y00733
X00733
T02
X0120625Y0053125
X0123625Y00531
X01236Y0058475
X0120625Y00585
X01176
X01146Y0058475
X0114625Y00531
X01176Y0053125
T03
X0125125Y00509
X0125125Y00607
X01131
X0113125Y00509
T05
X0103475Y00523
Y00578
T06
X011552Y006537
X007752
Y010137
X011552
T07
X009652Y008382
M30
